<?xml version="1.0" encoding="UTF-8" standalone="no"?>
<!DOCTYPE svg PUBLIC "-//W3C//DTD SVG 1.1//EN"
 "http://www.w3.org/Graphics/SVG/1.1/DTD/svg11.dtd">
<!-- Generated by graphviz version 2.26.3 (20100126.1600)
 -->
<!-- Title: innodb_version_history Pages: 1 -->
<svg width="306pt" height="268pt"
 viewBox="0.00 0.00 306.00 268.00" xmlns="http://www.w3.org/2000/svg" xmlns:xlink="http://www.w3.org/1999/xlink">
<g id="graph1" class="graph" transform="scale(1 1) rotate(0) translate(4 264)">
<title>innodb_version_history</title>
<polygon fill="white" stroke="white" points="-4,5 -4,-264 303,-264 303,5 -4,5"/>
<!-- InnoDB Buildin (MySQL 5.1) -->
<g id="node1" class="node"><title>InnoDB Buildin (MySQL 5.1)</title>
<ellipse fill="none" stroke="black" cx="149" cy="-241" rx="149.2" ry="18.3848"/>
<text text-anchor="middle" x="149" y="-237.4" font-family="Times Roman,serif" font-size="14.00">InnoDB Buildin (MySQL 5.1)</text>
</g>
<!-- InnoDB Plugin 1.0 -->
<g id="node2" class="node"><title>InnoDB Plugin 1.0</title>
<ellipse fill="none" stroke="black" cx="149" cy="-167" rx="101.116" ry="18.3848"/>
<text text-anchor="middle" x="149" y="-163.4" font-family="Times Roman,serif" font-size="14.00">InnoDB Plugin 1.0</text>
</g>
<!-- InnoDB Buildin (MySQL 5.1)&#45;&gt;InnoDB Plugin 1.0 -->
<g id="edge2" class="edge"><title>InnoDB Buildin (MySQL 5.1)&#45;&gt;InnoDB Plugin 1.0</title>
<path fill="none" stroke="black" d="M149,-222.327C149,-214.264 149,-204.648 149,-195.711"/>
<polygon fill="black" stroke="black" points="152.5,-195.667 149,-185.667 145.5,-195.667 152.5,-195.667"/>
</g>
<!-- InnoDB 1.1 -->
<g id="node3" class="node"><title>InnoDB 1.1</title>
<ellipse fill="none" stroke="black" cx="149" cy="-93" rx="67.1751" ry="18.3848"/>
<text text-anchor="middle" x="149" y="-89.4" font-family="Times Roman,serif" font-size="14.00">InnoDB 1.1</text>
</g>
<!-- InnoDB Plugin 1.0&#45;&gt;InnoDB 1.1 -->
<g id="edge4" class="edge"><title>InnoDB Plugin 1.0&#45;&gt;InnoDB 1.1</title>
<path fill="none" stroke="black" d="M149,-148.327C149,-140.264 149,-130.648 149,-121.711"/>
<polygon fill="black" stroke="black" points="152.5,-121.667 149,-111.667 145.5,-121.667 152.5,-121.667"/>
</g>
<!-- InnoDB 1.2 -->
<g id="node4" class="node"><title>InnoDB 1.2</title>
<ellipse fill="none" stroke="black" cx="83" cy="-19" rx="67.1751" ry="18.3848"/>
<text text-anchor="middle" x="83" y="-15.4" font-family="Times Roman,serif" font-size="14.00">InnoDB 1.2</text>
</g>
<!-- InnoDB 1.1&#45;&gt;InnoDB 1.2 -->
<g id="edge8" class="edge"><title>InnoDB 1.1&#45;&gt;InnoDB 1.2</title>
<path fill="none" stroke="black" d="M132.685,-74.7079C124.613,-65.657 114.733,-54.5795 105.916,-44.6933"/>
<polygon fill="black" stroke="black" points="108.395,-42.215 99.1269,-37.0817 103.171,-46.8744 108.395,-42.215"/>
</g>
<!-- XtraDB -->
<g id="node5" class="node"><title>XtraDB</title>
<ellipse fill="none" stroke="black" cx="216" cy="-19" rx="48.0833" ry="18.3848"/>
<text text-anchor="middle" x="216" y="-15.4" font-family="Times Roman,serif" font-size="14.00">XtraDB</text>
</g>
<!-- InnoDB 1.1&#45;&gt;XtraDB -->
<g id="edge6" class="edge"><title>InnoDB 1.1&#45;&gt;XtraDB</title>
<path fill="none" stroke="black" d="M165.562,-74.7079C173.879,-65.5219 184.086,-54.2483 193.137,-44.2515"/>
<polygon fill="black" stroke="black" points="195.973,-46.3343 200.09,-36.5721 190.784,-41.636 195.973,-46.3343"/>
</g>
</g>
</svg>
