<?xml version="1.0" encoding="UTF-8" standalone="no"?>
<!DOCTYPE svg PUBLIC "-//W3C//DTD SVG 1.1//EN"
 "http://www.w3.org/Graphics/SVG/1.1/DTD/svg11.dtd">
<!-- Generated by graphviz version 2.38.0 (20140413.2041)
 -->
<!-- Title: mysql_history_graph Pages: 1 -->
<svg width="1026pt" height="1484pt"
 viewBox="0.00 0.00 1026.09 1484.00" xmlns="http://www.w3.org/2000/svg" xmlns:xlink="http://www.w3.org/1999/xlink">
<g id="graph0" class="graph" transform="scale(1 1) rotate(0) translate(4 1480)">
<title>mysql_history_graph</title>
<polygon fill="white" stroke="none" points="-4,4 -4,-1480 1022.09,-1480 1022.09,4 -4,4"/>
<!-- 1996 -->
<g id="node1" class="node"><title>1996</title>
<ellipse fill="none" stroke="black" cx="31.8472" cy="-1458" rx="28.6953" ry="18"/>
<text text-anchor="middle" x="31.8472" y="-1454.3" font-family="Times,serif" font-size="14.00">1996</text>
</g>
<!-- 1997 -->
<g id="node2" class="node"><title>1997</title>
<ellipse fill="none" stroke="black" cx="31.8472" cy="-1386" rx="28.6953" ry="18"/>
<text text-anchor="middle" x="31.8472" y="-1382.3" font-family="Times,serif" font-size="14.00">1997</text>
</g>
<!-- 1996&#45;&gt;1997 -->
<g id="edge1" class="edge"><title>1996&#45;&gt;1997</title>
<path fill="none" stroke="black" d="M31.8472,-1439.7C31.8472,-1431.98 31.8472,-1422.71 31.8472,-1414.11"/>
<polygon fill="black" stroke="black" points="35.3473,-1414.1 31.8472,-1404.1 28.3473,-1414.1 35.3473,-1414.1"/>
</g>
<!-- 1998 -->
<g id="node3" class="node"><title>1998</title>
<ellipse fill="none" stroke="black" cx="31.8472" cy="-1314" rx="28.6953" ry="18"/>
<text text-anchor="middle" x="31.8472" y="-1310.3" font-family="Times,serif" font-size="14.00">1998</text>
</g>
<!-- 1997&#45;&gt;1998 -->
<g id="edge2" class="edge"><title>1997&#45;&gt;1998</title>
<path fill="none" stroke="black" d="M31.8472,-1367.7C31.8472,-1359.98 31.8472,-1350.71 31.8472,-1342.11"/>
<polygon fill="black" stroke="black" points="35.3473,-1342.1 31.8472,-1332.1 28.3473,-1342.1 35.3473,-1342.1"/>
</g>
<!-- 1999 -->
<g id="node4" class="node"><title>1999</title>
<ellipse fill="none" stroke="black" cx="31.8472" cy="-1242" rx="28.6953" ry="18"/>
<text text-anchor="middle" x="31.8472" y="-1238.3" font-family="Times,serif" font-size="14.00">1999</text>
</g>
<!-- 1998&#45;&gt;1999 -->
<g id="edge3" class="edge"><title>1998&#45;&gt;1999</title>
<path fill="none" stroke="black" d="M31.8472,-1295.7C31.8472,-1287.98 31.8472,-1278.71 31.8472,-1270.11"/>
<polygon fill="black" stroke="black" points="35.3473,-1270.1 31.8472,-1260.1 28.3473,-1270.1 35.3473,-1270.1"/>
</g>
<!-- 2000 -->
<g id="node5" class="node"><title>2000</title>
<ellipse fill="none" stroke="black" cx="31.8472" cy="-1170" rx="28.6953" ry="18"/>
<text text-anchor="middle" x="31.8472" y="-1166.3" font-family="Times,serif" font-size="14.00">2000</text>
</g>
<!-- 1999&#45;&gt;2000 -->
<g id="edge4" class="edge"><title>1999&#45;&gt;2000</title>
<path fill="none" stroke="black" d="M31.8472,-1223.7C31.8472,-1215.98 31.8472,-1206.71 31.8472,-1198.11"/>
<polygon fill="black" stroke="black" points="35.3473,-1198.1 31.8472,-1188.1 28.3473,-1198.1 35.3473,-1198.1"/>
</g>
<!-- 2001 -->
<g id="node6" class="node"><title>2001</title>
<ellipse fill="none" stroke="black" cx="31.8472" cy="-1098" rx="28.6953" ry="18"/>
<text text-anchor="middle" x="31.8472" y="-1094.3" font-family="Times,serif" font-size="14.00">2001</text>
</g>
<!-- 2000&#45;&gt;2001 -->
<g id="edge5" class="edge"><title>2000&#45;&gt;2001</title>
<path fill="none" stroke="black" d="M31.8472,-1151.7C31.8472,-1143.98 31.8472,-1134.71 31.8472,-1126.11"/>
<polygon fill="black" stroke="black" points="35.3473,-1126.1 31.8472,-1116.1 28.3473,-1126.1 35.3473,-1126.1"/>
</g>
<!-- 2002 -->
<g id="node7" class="node"><title>2002</title>
<ellipse fill="none" stroke="black" cx="31.8472" cy="-1026" rx="28.6953" ry="18"/>
<text text-anchor="middle" x="31.8472" y="-1022.3" font-family="Times,serif" font-size="14.00">2002</text>
</g>
<!-- 2001&#45;&gt;2002 -->
<g id="edge6" class="edge"><title>2001&#45;&gt;2002</title>
<path fill="none" stroke="black" d="M31.8472,-1079.7C31.8472,-1071.98 31.8472,-1062.71 31.8472,-1054.11"/>
<polygon fill="black" stroke="black" points="35.3473,-1054.1 31.8472,-1044.1 28.3473,-1054.1 35.3473,-1054.1"/>
</g>
<!-- 2003 -->
<g id="node8" class="node"><title>2003</title>
<ellipse fill="none" stroke="black" cx="31.8472" cy="-954" rx="28.6953" ry="18"/>
<text text-anchor="middle" x="31.8472" y="-950.3" font-family="Times,serif" font-size="14.00">2003</text>
</g>
<!-- 2002&#45;&gt;2003 -->
<g id="edge7" class="edge"><title>2002&#45;&gt;2003</title>
<path fill="none" stroke="black" d="M31.8472,-1007.7C31.8472,-999.983 31.8472,-990.712 31.8472,-982.112"/>
<polygon fill="black" stroke="black" points="35.3473,-982.104 31.8472,-972.104 28.3473,-982.104 35.3473,-982.104"/>
</g>
<!-- 2004 -->
<g id="node9" class="node"><title>2004</title>
<ellipse fill="none" stroke="black" cx="31.8472" cy="-882" rx="28.6953" ry="18"/>
<text text-anchor="middle" x="31.8472" y="-878.3" font-family="Times,serif" font-size="14.00">2004</text>
</g>
<!-- 2003&#45;&gt;2004 -->
<g id="edge8" class="edge"><title>2003&#45;&gt;2004</title>
<path fill="none" stroke="black" d="M31.8472,-935.697C31.8472,-927.983 31.8472,-918.712 31.8472,-910.112"/>
<polygon fill="black" stroke="black" points="35.3473,-910.104 31.8472,-900.104 28.3473,-910.104 35.3473,-910.104"/>
</g>
<!-- 2005 -->
<g id="node10" class="node"><title>2005</title>
<ellipse fill="none" stroke="black" cx="31.8472" cy="-810" rx="28.6953" ry="18"/>
<text text-anchor="middle" x="31.8472" y="-806.3" font-family="Times,serif" font-size="14.00">2005</text>
</g>
<!-- 2004&#45;&gt;2005 -->
<g id="edge9" class="edge"><title>2004&#45;&gt;2005</title>
<path fill="none" stroke="black" d="M31.8472,-863.697C31.8472,-855.983 31.8472,-846.712 31.8472,-838.112"/>
<polygon fill="black" stroke="black" points="35.3473,-838.104 31.8472,-828.104 28.3473,-838.104 35.3473,-838.104"/>
</g>
<!-- 2006 -->
<g id="node11" class="node"><title>2006</title>
<ellipse fill="none" stroke="black" cx="31.8472" cy="-738" rx="28.6953" ry="18"/>
<text text-anchor="middle" x="31.8472" y="-734.3" font-family="Times,serif" font-size="14.00">2006</text>
</g>
<!-- 2005&#45;&gt;2006 -->
<g id="edge10" class="edge"><title>2005&#45;&gt;2006</title>
<path fill="none" stroke="black" d="M31.8472,-791.697C31.8472,-783.983 31.8472,-774.712 31.8472,-766.112"/>
<polygon fill="black" stroke="black" points="35.3473,-766.104 31.8472,-756.104 28.3473,-766.104 35.3473,-766.104"/>
</g>
<!-- 2007 -->
<g id="node12" class="node"><title>2007</title>
<ellipse fill="none" stroke="black" cx="31.8472" cy="-666" rx="28.6953" ry="18"/>
<text text-anchor="middle" x="31.8472" y="-662.3" font-family="Times,serif" font-size="14.00">2007</text>
</g>
<!-- 2006&#45;&gt;2007 -->
<g id="edge11" class="edge"><title>2006&#45;&gt;2007</title>
<path fill="none" stroke="black" d="M31.8472,-719.697C31.8472,-711.983 31.8472,-702.712 31.8472,-694.112"/>
<polygon fill="black" stroke="black" points="35.3473,-694.104 31.8472,-684.104 28.3473,-694.104 35.3473,-694.104"/>
</g>
<!-- 2008 -->
<g id="node13" class="node"><title>2008</title>
<ellipse fill="none" stroke="black" cx="31.8472" cy="-594" rx="28.6953" ry="18"/>
<text text-anchor="middle" x="31.8472" y="-590.3" font-family="Times,serif" font-size="14.00">2008</text>
</g>
<!-- 2007&#45;&gt;2008 -->
<g id="edge12" class="edge"><title>2007&#45;&gt;2008</title>
<path fill="none" stroke="black" d="M31.8472,-647.697C31.8472,-639.983 31.8472,-630.712 31.8472,-622.112"/>
<polygon fill="black" stroke="black" points="35.3473,-622.104 31.8472,-612.104 28.3473,-622.104 35.3473,-622.104"/>
</g>
<!-- 2009 -->
<g id="node14" class="node"><title>2009</title>
<ellipse fill="none" stroke="black" cx="31.8472" cy="-522" rx="28.6953" ry="18"/>
<text text-anchor="middle" x="31.8472" y="-518.3" font-family="Times,serif" font-size="14.00">2009</text>
</g>
<!-- 2008&#45;&gt;2009 -->
<g id="edge13" class="edge"><title>2008&#45;&gt;2009</title>
<path fill="none" stroke="black" d="M31.8472,-575.697C31.8472,-567.983 31.8472,-558.712 31.8472,-550.112"/>
<polygon fill="black" stroke="black" points="35.3473,-550.104 31.8472,-540.104 28.3473,-550.104 35.3473,-550.104"/>
</g>
<!-- 2010 -->
<g id="node15" class="node"><title>2010</title>
<ellipse fill="none" stroke="black" cx="31.8472" cy="-450" rx="28.6953" ry="18"/>
<text text-anchor="middle" x="31.8472" y="-446.3" font-family="Times,serif" font-size="14.00">2010</text>
</g>
<!-- 2009&#45;&gt;2010 -->
<g id="edge14" class="edge"><title>2009&#45;&gt;2010</title>
<path fill="none" stroke="black" d="M31.8472,-503.697C31.8472,-495.983 31.8472,-486.712 31.8472,-478.112"/>
<polygon fill="black" stroke="black" points="35.3473,-478.104 31.8472,-468.104 28.3473,-478.104 35.3473,-478.104"/>
</g>
<!-- 2011 -->
<g id="node16" class="node"><title>2011</title>
<ellipse fill="none" stroke="black" cx="31.8472" cy="-378" rx="28.6953" ry="18"/>
<text text-anchor="middle" x="31.8472" y="-374.3" font-family="Times,serif" font-size="14.00">2011</text>
</g>
<!-- 2010&#45;&gt;2011 -->
<g id="edge15" class="edge"><title>2010&#45;&gt;2011</title>
<path fill="none" stroke="black" d="M31.8472,-431.697C31.8472,-423.983 31.8472,-414.712 31.8472,-406.112"/>
<polygon fill="black" stroke="black" points="35.3473,-406.104 31.8472,-396.104 28.3473,-406.104 35.3473,-406.104"/>
</g>
<!-- 2012 -->
<g id="node17" class="node"><title>2012</title>
<ellipse fill="none" stroke="black" cx="31.8472" cy="-306" rx="28.6953" ry="18"/>
<text text-anchor="middle" x="31.8472" y="-302.3" font-family="Times,serif" font-size="14.00">2012</text>
</g>
<!-- 2011&#45;&gt;2012 -->
<g id="edge16" class="edge"><title>2011&#45;&gt;2012</title>
<path fill="none" stroke="black" d="M31.8472,-359.697C31.8472,-351.983 31.8472,-342.712 31.8472,-334.112"/>
<polygon fill="black" stroke="black" points="35.3473,-334.104 31.8472,-324.104 28.3473,-334.104 35.3473,-334.104"/>
</g>
<!-- 2013 -->
<g id="node18" class="node"><title>2013</title>
<ellipse fill="none" stroke="black" cx="31.8472" cy="-234" rx="28.6953" ry="18"/>
<text text-anchor="middle" x="31.8472" y="-230.3" font-family="Times,serif" font-size="14.00">2013</text>
</g>
<!-- 2012&#45;&gt;2013 -->
<g id="edge17" class="edge"><title>2012&#45;&gt;2013</title>
<path fill="none" stroke="black" d="M31.8472,-287.697C31.8472,-279.983 31.8472,-270.712 31.8472,-262.112"/>
<polygon fill="black" stroke="black" points="35.3473,-262.104 31.8472,-252.104 28.3473,-262.104 35.3473,-262.104"/>
</g>
<!-- 2014 -->
<g id="node19" class="node"><title>2014</title>
<ellipse fill="none" stroke="black" cx="31.8472" cy="-162" rx="28.6953" ry="18"/>
<text text-anchor="middle" x="31.8472" y="-158.3" font-family="Times,serif" font-size="14.00">2014</text>
</g>
<!-- 2013&#45;&gt;2014 -->
<g id="edge18" class="edge"><title>2013&#45;&gt;2014</title>
<path fill="none" stroke="black" d="M31.8472,-215.697C31.8472,-207.983 31.8472,-198.712 31.8472,-190.112"/>
<polygon fill="black" stroke="black" points="35.3473,-190.104 31.8472,-180.104 28.3473,-190.104 35.3473,-190.104"/>
</g>
<!-- 2015 -->
<g id="node20" class="node"><title>2015</title>
<ellipse fill="none" stroke="black" cx="31.8472" cy="-90" rx="28.6953" ry="18"/>
<text text-anchor="middle" x="31.8472" y="-86.3" font-family="Times,serif" font-size="14.00">2015</text>
</g>
<!-- 2014&#45;&gt;2015 -->
<g id="edge19" class="edge"><title>2014&#45;&gt;2015</title>
<path fill="none" stroke="black" d="M31.8472,-143.697C31.8472,-135.983 31.8472,-126.712 31.8472,-118.112"/>
<polygon fill="black" stroke="black" points="35.3473,-118.104 31.8472,-108.104 28.3473,-118.104 35.3473,-118.104"/>
</g>
<!-- future -->
<g id="node21" class="node"><title>future</title>
<ellipse fill="none" stroke="black" cx="31.8472" cy="-18" rx="31.6951" ry="18"/>
<text text-anchor="middle" x="31.8472" y="-14.3" font-family="Times,serif" font-size="14.00">future</text>
</g>
<!-- 2015&#45;&gt;future -->
<g id="edge20" class="edge"><title>2015&#45;&gt;future</title>
<path fill="none" stroke="black" d="M31.8472,-71.6966C31.8472,-63.9827 31.8472,-54.7125 31.8472,-46.1124"/>
<polygon fill="black" stroke="black" points="35.3473,-46.1043 31.8472,-36.1043 28.3473,-46.1044 35.3473,-46.1043"/>
</g>
<!-- MySQL 3.19 -->
<g id="node22" class="node"><title>MySQL 3.19</title>
<ellipse fill="none" stroke="red" cx="135.847" cy="-1458" rx="57.6901" ry="18"/>
<text text-anchor="middle" x="135.847" y="-1454.3" font-family="Times,serif" font-size="14.00">MySQL 3.19</text>
</g>
<!-- MySQL 3.20 -->
<g id="node23" class="node"><title>MySQL 3.20</title>
<ellipse fill="none" stroke="red" cx="135.847" cy="-1386" rx="57.6901" ry="18"/>
<text text-anchor="middle" x="135.847" y="-1382.3" font-family="Times,serif" font-size="14.00">MySQL 3.20</text>
</g>
<!-- MySQL 3.19&#45;&gt;MySQL 3.20 -->
<g id="edge21" class="edge"><title>MySQL 3.19&#45;&gt;MySQL 3.20</title>
<path fill="none" stroke="black" d="M135.847,-1439.7C135.847,-1431.98 135.847,-1422.71 135.847,-1414.11"/>
<polygon fill="black" stroke="black" points="139.347,-1414.1 135.847,-1404.1 132.347,-1414.1 139.347,-1414.1"/>
</g>
<!-- MySQL 3.21 -->
<g id="node24" class="node"><title>MySQL 3.21</title>
<ellipse fill="none" stroke="red" cx="135.847" cy="-1314" rx="57.6901" ry="18"/>
<text text-anchor="middle" x="135.847" y="-1310.3" font-family="Times,serif" font-size="14.00">MySQL 3.21</text>
</g>
<!-- MySQL 3.20&#45;&gt;MySQL 3.21 -->
<g id="edge22" class="edge"><title>MySQL 3.20&#45;&gt;MySQL 3.21</title>
<path fill="none" stroke="black" d="M135.847,-1367.7C135.847,-1359.98 135.847,-1350.71 135.847,-1342.11"/>
<polygon fill="black" stroke="black" points="139.347,-1342.1 135.847,-1332.1 132.347,-1342.1 139.347,-1342.1"/>
</g>
<!-- MySQL 3.22 -->
<g id="node25" class="node"><title>MySQL 3.22</title>
<ellipse fill="none" stroke="red" cx="269.847" cy="-1314" rx="57.6901" ry="18"/>
<text text-anchor="middle" x="269.847" y="-1310.3" font-family="Times,serif" font-size="14.00">MySQL 3.22</text>
</g>
<!-- MySQL 3.21&#45;&gt;MySQL 3.22 -->
<g id="edge23" class="edge"><title>MySQL 3.21&#45;&gt;MySQL 3.22</title>
<path fill="none" stroke="black" d="M193.949,-1314C196.543,-1314 199.137,-1314 201.731,-1314"/>
<polygon fill="black" stroke="black" points="201.737,-1317.5 211.737,-1314 201.737,-1310.5 201.737,-1317.5"/>
</g>
<!-- MySQL 3.23 -->
<g id="node26" class="node"><title>MySQL 3.23</title>
<ellipse fill="none" stroke="red" cx="269.847" cy="-1170" rx="57.6901" ry="18"/>
<text text-anchor="middle" x="269.847" y="-1166.3" font-family="Times,serif" font-size="14.00">MySQL 3.23</text>
</g>
<!-- MySQL 3.22&#45;&gt;MySQL 3.23 -->
<g id="edge24" class="edge"><title>MySQL 3.22&#45;&gt;MySQL 3.23</title>
<path fill="none" stroke="black" d="M269.847,-1295.87C269.847,-1271.67 269.847,-1227.21 269.847,-1198.39"/>
<polygon fill="black" stroke="black" points="273.347,-1198.19 269.847,-1188.19 266.347,-1198.19 273.347,-1198.19"/>
</g>
<!-- MySQL 4.0 -->
<g id="node27" class="node"><title>MySQL 4.0</title>
<ellipse fill="none" stroke="red" cx="269.847" cy="-954" rx="53.8905" ry="18"/>
<text text-anchor="middle" x="269.847" y="-950.3" font-family="Times,serif" font-size="14.00">MySQL 4.0</text>
</g>
<!-- MySQL 3.23&#45;&gt;MySQL 4.0 -->
<g id="edge25" class="edge"><title>MySQL 3.23&#45;&gt;MySQL 4.0</title>
<path fill="none" stroke="black" d="M269.847,-1151.85C269.847,-1114.83 269.847,-1027.18 269.847,-982.386"/>
<polygon fill="black" stroke="black" points="273.347,-982.232 269.847,-972.232 266.347,-982.232 273.347,-982.232"/>
</g>
<!-- MySQL 4.1 -->
<g id="node28" class="node"><title>MySQL 4.1</title>
<ellipse fill="none" stroke="red" cx="269.847" cy="-882" rx="53.8905" ry="18"/>
<text text-anchor="middle" x="269.847" y="-878.3" font-family="Times,serif" font-size="14.00">MySQL 4.1</text>
</g>
<!-- MySQL 4.0&#45;&gt;MySQL 4.1 -->
<g id="edge26" class="edge"><title>MySQL 4.0&#45;&gt;MySQL 4.1</title>
<path fill="none" stroke="black" d="M269.847,-935.697C269.847,-927.983 269.847,-918.712 269.847,-910.112"/>
<polygon fill="black" stroke="black" points="273.347,-910.104 269.847,-900.104 266.347,-910.104 273.347,-910.104"/>
</g>
<!-- MySQL 5.0 -->
<g id="node29" class="node"><title>MySQL 5.0</title>
<ellipse fill="none" stroke="red" cx="269.847" cy="-810" rx="53.8905" ry="18"/>
<text text-anchor="middle" x="269.847" y="-806.3" font-family="Times,serif" font-size="14.00">MySQL 5.0</text>
</g>
<!-- MySQL 4.1&#45;&gt;MySQL 5.0 -->
<g id="edge27" class="edge"><title>MySQL 4.1&#45;&gt;MySQL 5.0</title>
<path fill="none" stroke="black" d="M269.847,-863.697C269.847,-855.983 269.847,-846.712 269.847,-838.112"/>
<polygon fill="black" stroke="black" points="273.347,-838.104 269.847,-828.104 266.347,-838.104 273.347,-838.104"/>
</g>
<!-- MySQL 5.1 -->
<g id="node32" class="node"><title>MySQL 5.1</title>
<ellipse fill="none" stroke="red" cx="459.847" cy="-594" rx="53.8905" ry="18"/>
<text text-anchor="middle" x="459.847" y="-590.3" font-family="Times,serif" font-size="14.00">MySQL 5.1</text>
</g>
<!-- MySQL 5.0&#45;&gt;MySQL 5.1 -->
<g id="edge28" class="edge"><title>MySQL 5.0&#45;&gt;MySQL 5.1</title>
<path fill="none" stroke="black" d="M284.441,-792.563C317.735,-755.063 399.429,-663.05 438.438,-619.113"/>
<polygon fill="black" stroke="black" points="441.182,-621.295 445.204,-611.493 435.947,-616.647 441.182,-621.295"/>
</g>
<!-- Percona Server 5.0 -->
<g id="node58" class="node"><title>Percona Server 5.0</title>
<ellipse fill="none" stroke="orange" cx="230.847" cy="-666" rx="77.9862" ry="18"/>
<text text-anchor="middle" x="230.847" y="-662.3" font-family="Times,serif" font-size="14.00">Percona Server 5.0</text>
</g>
<!-- MySQL 5.0&#45;&gt;Percona Server 5.0 -->
<g id="edge64" class="edge"><title>MySQL 5.0&#45;&gt;Percona Server 5.0</title>
<path fill="none" stroke="black" d="M265.143,-791.871C258.467,-767.564 246.178,-722.819 238.266,-694.013"/>
<polygon fill="black" stroke="black" points="241.592,-692.905 235.568,-684.189 234.842,-694.759 241.592,-692.905"/>
</g>
<!-- MySQL Cluster 6.1 -->
<g id="node30" class="node"><title>MySQL Cluster 6.1</title>
<ellipse fill="none" stroke="#cd0000" cx="498.847" cy="-738" rx="81.4863" ry="18"/>
<text text-anchor="middle" x="498.847" y="-734.3" font-family="Times,serif" font-size="14.00">MySQL Cluster 6.1</text>
</g>
<!-- MySQL Cluster 6.2 -->
<g id="node31" class="node"><title>MySQL Cluster 6.2</title>
<ellipse fill="none" stroke="#cd0000" cx="568.847" cy="-666" rx="81.4863" ry="18"/>
<text text-anchor="middle" x="568.847" y="-662.3" font-family="Times,serif" font-size="14.00">MySQL Cluster 6.2</text>
</g>
<!-- MySQL Cluster 6.1&#45;&gt;MySQL Cluster 6.2 -->
<g id="edge37" class="edge"><title>MySQL Cluster 6.1&#45;&gt;MySQL Cluster 6.2</title>
<path fill="none" stroke="black" d="M515.792,-720.055C524.476,-711.371 535.203,-700.644 544.733,-691.114"/>
<polygon fill="black" stroke="black" points="547.462,-693.335 552.058,-683.789 542.512,-688.385 547.462,-693.335"/>
</g>
<!-- MySQL Cluster 6.3 -->
<g id="node33" class="node"><title>MySQL Cluster 6.3</title>
<ellipse fill="none" stroke="#cd0000" cx="612.847" cy="-594" rx="81.4863" ry="18"/>
<text text-anchor="middle" x="612.847" y="-590.3" font-family="Times,serif" font-size="14.00">MySQL Cluster 6.3</text>
</g>
<!-- MySQL Cluster 6.2&#45;&gt;MySQL Cluster 6.3 -->
<g id="edge40" class="edge"><title>MySQL Cluster 6.2&#45;&gt;MySQL Cluster 6.3</title>
<path fill="none" stroke="black" d="M579.498,-648.055C584.61,-639.922 590.848,-629.998 596.54,-620.943"/>
<polygon fill="black" stroke="black" points="599.63,-622.604 601.988,-612.275 593.703,-618.879 599.63,-622.604"/>
</g>
<!-- MySQL 5.1&#45;&gt;MySQL Cluster 6.1 -->
<g id="edge36" class="edge"><title>MySQL 5.1&#45;&gt;MySQL Cluster 6.1</title>
<path fill="none" stroke="black" d="M462.735,-612.253C465.943,-630.325 471.637,-659.441 478.847,-684 481.436,-692.817 484.799,-702.258 488.027,-710.694"/>
<polygon fill="black" stroke="black" points="484.784,-712.01 491.699,-720.036 491.298,-709.449 484.784,-712.01"/>
</g>
<!-- MySQL 5.1&#45;&gt;MySQL Cluster 6.2 -->
<g id="edge38" class="edge"><title>MySQL 5.1&#45;&gt;MySQL Cluster 6.2</title>
<path fill="none" stroke="black" d="M483.499,-610.189C498.597,-619.885 518.405,-632.606 535.138,-643.352"/>
<polygon fill="black" stroke="black" points="533.261,-646.306 543.566,-648.765 537.043,-640.416 533.261,-646.306"/>
</g>
<!-- MySQL 5.1&#45;&gt;MySQL Cluster 6.3 -->
<g id="edge39" class="edge"><title>MySQL 5.1&#45;&gt;MySQL Cluster 6.3</title>
<path fill="none" stroke="black" d="M513.935,-594C516.38,-594 518.825,-594 521.27,-594"/>
<polygon fill="black" stroke="black" points="521.322,-597.5 531.322,-594 521.322,-590.5 521.322,-597.5"/>
</g>
<!-- MySQL 6.0 -->
<g id="node34" class="node"><title>MySQL 6.0</title>
<ellipse fill="none" stroke="red" stroke-dasharray="1,5" cx="686.847" cy="-522" rx="53.8905" ry="18"/>
<text text-anchor="middle" x="686.847" y="-518.3" font-family="Times,serif" font-size="14.00">MySQL 6.0</text>
</g>
<!-- MySQL 5.1&#45;&gt;MySQL 6.0 -->
<g id="edge33" class="edge"><title>MySQL 5.1&#45;&gt;MySQL 6.0</title>
<path fill="none" stroke="black" stroke-dasharray="5,2" d="M498.098,-581.205C536.817,-569.265 596.8,-550.768 638.725,-537.839"/>
<polygon fill="black" stroke="black" points="639.915,-541.135 648.44,-534.844 637.852,-534.446 639.915,-541.135"/>
</g>
<!-- MySQL 5.2 -->
<g id="node35" class="node"><title>MySQL 5.2</title>
<ellipse fill="none" stroke="red" stroke-dasharray="1,5" cx="358.847" cy="-522" rx="53.8905" ry="18"/>
<text text-anchor="middle" x="358.847" y="-518.3" font-family="Times,serif" font-size="14.00">MySQL 5.2</text>
</g>
<!-- MySQL 5.1&#45;&gt;MySQL 5.2 -->
<g id="edge32" class="edge"><title>MySQL 5.1&#45;&gt;MySQL 5.2</title>
<path fill="none" stroke="black" stroke-dasharray="5,2" d="M437.432,-577.465C423.31,-567.677 404.891,-554.912 389.435,-544.2"/>
<polygon fill="black" stroke="black" points="391.412,-541.312 381.2,-538.492 387.425,-547.065 391.412,-541.312"/>
</g>
<!-- Percona Server 5.1 -->
<g id="node37" class="node"><title>Percona Server 5.1</title>
<ellipse fill="none" stroke="orange" cx="208.847" cy="-522" rx="77.9862" ry="18"/>
<text text-anchor="middle" x="208.847" y="-518.3" font-family="Times,serif" font-size="14.00">Percona Server 5.1</text>
</g>
<!-- MySQL 5.1&#45;&gt;Percona Server 5.1 -->
<g id="edge65" class="edge"><title>MySQL 5.1&#45;&gt;Percona Server 5.1</title>
<path fill="none" stroke="black" d="M419.798,-581.831C378.32,-570.263 313.126,-552.082 266.19,-538.992"/>
<polygon fill="black" stroke="black" points="267.039,-535.595 256.466,-536.28 265.158,-542.338 267.039,-535.595"/>
</g>
<!-- MySQL Cluster 7.0 -->
<g id="node38" class="node"><title>MySQL Cluster 7.0</title>
<ellipse fill="none" stroke="#cd0000" cx="877.847" cy="-522" rx="81.4863" ry="18"/>
<text text-anchor="middle" x="877.847" y="-518.3" font-family="Times,serif" font-size="14.00">MySQL Cluster 7.0</text>
</g>
<!-- MySQL 5.1&#45;&gt;MySQL Cluster 7.0 -->
<g id="edge41" class="edge"><title>MySQL 5.1&#45;&gt;MySQL Cluster 7.0</title>
<path fill="none" stroke="black" d="M499.322,-581.532C507.079,-579.51 515.187,-577.557 522.847,-576 637.166,-552.758 667.63,-558.278 782.847,-540 790.847,-538.731 799.214,-537.335 807.523,-535.905"/>
<polygon fill="black" stroke="black" points="808.349,-539.314 817.601,-534.151 807.149,-532.418 808.349,-539.314"/>
</g>
<!-- MySQL Cluster 7.1 -->
<g id="node40" class="node"><title>MySQL Cluster 7.1</title>
<ellipse fill="none" stroke="#cd0000" cx="874.847" cy="-450" rx="81.4863" ry="18"/>
<text text-anchor="middle" x="874.847" y="-446.3" font-family="Times,serif" font-size="14.00">MySQL Cluster 7.1</text>
</g>
<!-- MySQL 5.1&#45;&gt;MySQL Cluster 7.1 -->
<g id="edge43" class="edge"><title>MySQL 5.1&#45;&gt;MySQL Cluster 7.1</title>
<path fill="none" stroke="black" d="M499.347,-581.653C507.102,-579.62 515.203,-577.633 522.847,-576 622.744,-554.664 658.217,-585.15 749.847,-540 770.716,-529.717 769.366,-518.13 787.847,-504 802.998,-492.416 820.822,-481.187 836.379,-472.069"/>
<polygon fill="black" stroke="black" points="838.326,-474.987 845.239,-466.958 834.828,-468.923 838.326,-474.987"/>
</g>
<!-- MariaDB 5.1 -->
<g id="node41" class="node"><title>MariaDB 5.1</title>
<ellipse fill="none" stroke="blue" cx="392.847" cy="-450" rx="57.6901" ry="18"/>
<text text-anchor="middle" x="392.847" y="-446.3" font-family="Times,serif" font-size="14.00">MariaDB 5.1</text>
</g>
<!-- MySQL 5.1&#45;&gt;MariaDB 5.1 -->
<g id="edge50" class="edge"><title>MySQL 5.1&#45;&gt;MariaDB 5.1</title>
<path fill="none" stroke="black" d="M453.183,-576.05C445.945,-557.98 433.811,-528.634 421.847,-504 417.473,-494.993 412.328,-485.332 407.596,-476.759"/>
<polygon fill="black" stroke="black" points="410.614,-474.985 402.678,-467.965 404.504,-478.401 410.614,-474.985"/>
</g>
<!-- MariaDB 5.2 -->
<g id="node42" class="node"><title>MariaDB 5.2</title>
<ellipse fill="none" stroke="blue" cx="182.847" cy="-450" rx="57.6901" ry="18"/>
<text text-anchor="middle" x="182.847" y="-446.3" font-family="Times,serif" font-size="14.00">MariaDB 5.2</text>
</g>
<!-- MySQL 5.1&#45;&gt;MariaDB 5.2 -->
<g id="edge52" class="edge"><title>MySQL 5.1&#45;&gt;MariaDB 5.2</title>
<path fill="none" stroke="black" d="M405.907,-592.695C319.912,-590.934 157.755,-581.977 121.847,-540 103.439,-518.48 128.044,-491.34 151.281,-472.722"/>
<polygon fill="black" stroke="black" points="153.567,-475.379 159.37,-466.515 149.306,-469.826 153.567,-475.379"/>
</g>
<!-- MariaDB 5.3 -->
<g id="node47" class="node"><title>MariaDB 5.3</title>
<ellipse fill="none" stroke="blue" cx="285.847" cy="-306" rx="57.6901" ry="18"/>
<text text-anchor="middle" x="285.847" y="-302.3" font-family="Times,serif" font-size="14.00">MariaDB 5.3</text>
</g>
<!-- MySQL 5.1&#45;&gt;MariaDB 5.3 -->
<g id="edge55" class="edge"><title>MySQL 5.1&#45;&gt;MariaDB 5.3</title>
<path fill="none" stroke="black" d="M465.742,-575.999C475.567,-544.309 491.287,-475.493 459.847,-432 429.959,-390.653 392.086,-426.036 350.847,-396 328.15,-379.468 310.114,-352.642 298.855,-332.757"/>
<polygon fill="black" stroke="black" points="301.885,-331.003 294.024,-323.9 295.74,-334.355 301.885,-331.003"/>
</g>
<!-- MySQL Cluster 6.3&#45;&gt;MySQL Cluster 7.0 -->
<g id="edge42" class="edge"><title>MySQL Cluster 6.3&#45;&gt;MySQL Cluster 7.0</title>
<path fill="none" stroke="black" d="M663.003,-579.751C706.99,-568.132 771.038,-551.214 817.754,-538.874"/>
<polygon fill="black" stroke="black" points="818.672,-542.251 827.446,-536.313 816.884,-535.484 818.672,-542.251"/>
</g>
<!-- MySQL 5.5 -->
<g id="node39" class="node"><title>MySQL 5.5</title>
<ellipse fill="none" stroke="red" cx="570.847" cy="-450" rx="53.8905" ry="18"/>
<text text-anchor="middle" x="570.847" y="-446.3" font-family="Times,serif" font-size="14.00">MySQL 5.5</text>
</g>
<!-- MySQL 6.0&#45;&gt;MySQL 5.5 -->
<g id="edge31" class="edge"><title>MySQL 6.0&#45;&gt;MySQL 5.5</title>
<path fill="none" stroke="grey" d="M661.962,-505.983C645.143,-495.833 622.735,-482.312 604.351,-471.218"/>
<polygon fill="grey" stroke="grey" points="606.061,-468.162 595.691,-465.992 602.444,-474.155 606.061,-468.162"/>
</g>
<!-- Drizzle 7.0 -->
<g id="node44" class="node"><title>Drizzle 7.0</title>
<ellipse fill="none" stroke="#00008b" cx="699.847" cy="-378" rx="50.0912" ry="18"/>
<text text-anchor="middle" x="699.847" y="-374.3" font-family="Times,serif" font-size="14.00">Drizzle 7.0</text>
</g>
<!-- MySQL 6.0&#45;&gt;Drizzle 7.0 -->
<g id="edge74" class="edge"><title>MySQL 6.0&#45;&gt;Drizzle 7.0</title>
<path fill="none" stroke="black" d="M688.415,-503.871C690.631,-479.67 694.701,-435.211 697.339,-406.393"/>
<polygon fill="black" stroke="black" points="700.847,-406.467 698.274,-396.189 693.876,-405.829 700.847,-406.467"/>
</g>
<!-- MySQL 5.4 -->
<g id="node36" class="node"><title>MySQL 5.4</title>
<ellipse fill="none" stroke="red" stroke-dasharray="1,5" cx="560.847" cy="-522" rx="53.8905" ry="18"/>
<text text-anchor="middle" x="560.847" y="-518.3" font-family="Times,serif" font-size="14.00">MySQL 5.4</text>
</g>
<!-- MySQL 5.2&#45;&gt;MySQL 5.4 -->
<g id="edge34" class="edge"><title>MySQL 5.2&#45;&gt;MySQL 5.4</title>
<path fill="none" stroke="black" stroke-dasharray="5,2" d="M412.898,-522C440.778,-522 468.659,-522 496.539,-522"/>
<polygon fill="black" stroke="black" points="496.811,-525.5 506.811,-522 496.811,-518.5 496.811,-525.5"/>
</g>
<!-- MySQL 5.4&#45;&gt;MySQL 5.5 -->
<g id="edge30" class="edge"><title>MySQL 5.4&#45;&gt;MySQL 5.5</title>
<path fill="none" stroke="grey" d="M563.319,-503.697C564.421,-495.983 565.745,-486.712 566.974,-478.112"/>
<polygon fill="grey" stroke="grey" points="570.454,-478.499 568.404,-468.104 563.525,-477.509 570.454,-478.499"/>
</g>
<!-- Percona Server 5.1&#45;&gt;MariaDB 5.1 -->
<g id="edge51" class="edge"><title>Percona Server 5.1&#45;&gt;MariaDB 5.1</title>
<path fill="none" stroke="grey" d="M247.42,-506.326C276.802,-495.148 317.311,-479.736 348.115,-468.018"/>
<polygon fill="grey" stroke="grey" points="349.646,-471.18 357.748,-464.353 347.157,-464.637 349.646,-471.18"/>
</g>
<!-- Percona Server 5.1&#45;&gt;MariaDB 5.2 -->
<g id="edge54" class="edge"><title>Percona Server 5.1&#45;&gt;MariaDB 5.2</title>
<path fill="none" stroke="grey" d="M202.553,-504.055C199.627,-496.176 196.076,-486.617 192.799,-477.794"/>
<polygon fill="grey" stroke="grey" points="196.027,-476.431 189.264,-468.275 189.465,-478.868 196.027,-476.431"/>
</g>
<!-- Percona Server 5.5 -->
<g id="node43" class="node"><title>Percona Server 5.5</title>
<ellipse fill="none" stroke="orange" cx="437.847" cy="-378" rx="77.9862" ry="18"/>
<text text-anchor="middle" x="437.847" y="-374.3" font-family="Times,serif" font-size="14.00">Percona Server 5.5</text>
</g>
<!-- Percona Server 5.1&#45;&gt;Percona Server 5.5 -->
<g id="edge68" class="edge"><title>Percona Server 5.1&#45;&gt;Percona Server 5.5</title>
<path fill="none" stroke="black" d="M232.508,-504.735C247.2,-494.469 266.359,-480.777 282.847,-468 302.548,-452.733 304.857,-445.44 325.847,-432 346.349,-418.873 370.612,-406.995 391.304,-397.826"/>
<polygon fill="black" stroke="black" points="392.76,-401.01 400.533,-393.81 389.967,-394.591 392.76,-401.01"/>
</g>
<!-- Percona Server 5.1&#45;&gt;MariaDB 5.3 -->
<g id="edge57" class="edge"><title>Percona Server 5.1&#45;&gt;MariaDB 5.3</title>
<path fill="none" stroke="grey" d="M225.006,-504.142C233.585,-494.313 243.614,-481.267 249.847,-468 270.528,-423.981 279.612,-367.523 283.385,-334.494"/>
<polygon fill="grey" stroke="grey" points="286.898,-334.556 284.47,-324.243 279.937,-333.819 286.898,-334.556"/>
</g>
<!-- MySQL Cluster 7.0&#45;&gt;MySQL Cluster 7.1 -->
<g id="edge44" class="edge"><title>MySQL Cluster 7.0&#45;&gt;MySQL Cluster 7.1</title>
<path fill="none" stroke="black" d="M877.106,-503.697C876.775,-495.983 876.378,-486.712 876.009,-478.112"/>
<polygon fill="black" stroke="black" points="879.505,-477.945 875.58,-468.104 872.512,-478.245 879.505,-477.945"/>
</g>
<!-- MySQL 5.5&#45;&gt;Percona Server 5.5 -->
<g id="edge67" class="edge"><title>MySQL 5.5&#45;&gt;Percona Server 5.5</title>
<path fill="none" stroke="black" d="M543.289,-434.496C524.069,-424.38 498.146,-410.736 476.814,-399.509"/>
<polygon fill="black" stroke="black" points="478.161,-396.263 467.682,-394.703 474.901,-402.457 478.161,-396.263"/>
</g>
<!-- MySQL Cluster 7.2 -->
<g id="node45" class="node"><title>MySQL Cluster 7.2</title>
<ellipse fill="none" stroke="#cd0000" cx="874.847" cy="-306" rx="81.4863" ry="18"/>
<text text-anchor="middle" x="874.847" y="-302.3" font-family="Times,serif" font-size="14.00">MySQL Cluster 7.2</text>
</g>
<!-- MySQL 5.5&#45;&gt;MySQL Cluster 7.2 -->
<g id="edge45" class="edge"><title>MySQL 5.5&#45;&gt;MySQL Cluster 7.2</title>
<path fill="none" stroke="black" d="M617.854,-440.908C657.022,-432.976 713.524,-418.716 758.847,-396 793.205,-378.779 827.498,-350.797 849.785,-330.806"/>
<polygon fill="black" stroke="black" points="852.398,-333.161 857.43,-323.837 847.682,-327.987 852.398,-333.161"/>
</g>
<!-- MariaDB 5.5 -->
<g id="node48" class="node"><title>MariaDB 5.5</title>
<ellipse fill="none" stroke="blue" cx="495.847" cy="-306" rx="57.6901" ry="18"/>
<text text-anchor="middle" x="495.847" y="-302.3" font-family="Times,serif" font-size="14.00">MariaDB 5.5</text>
</g>
<!-- MySQL 5.5&#45;&gt;MariaDB 5.5 -->
<g id="edge58" class="edge"><title>MySQL 5.5&#45;&gt;MariaDB 5.5</title>
<path fill="none" stroke="black" d="M562.317,-432.207C553.17,-414.268 538.161,-385.03 524.847,-360 520.145,-351.159 514.916,-341.542 510.209,-332.956"/>
<polygon fill="black" stroke="black" points="513.24,-331.205 505.354,-324.13 507.107,-334.579 513.24,-331.205"/>
</g>
<!-- MySQL 5.6 -->
<g id="node49" class="node"><title>MySQL 5.6</title>
<ellipse fill="none" stroke="red" cx="491.847" cy="-234" rx="53.8905" ry="18"/>
<text text-anchor="middle" x="491.847" y="-230.3" font-family="Times,serif" font-size="14.00">MySQL 5.6</text>
</g>
<!-- MySQL 5.5&#45;&gt;MySQL 5.6 -->
<g id="edge29" class="edge"><title>MySQL 5.5&#45;&gt;MySQL 5.6</title>
<path fill="none" stroke="black" d="M574.512,-431.771C580.148,-400.882 587.853,-334.926 562.847,-288 555.5,-274.213 542.808,-263.024 530.168,-254.541"/>
<polygon fill="black" stroke="black" points="531.824,-251.448 521.492,-249.101 528.105,-257.379 531.824,-251.448"/>
</g>
<!-- MySQL Cluster 7.1&#45;&gt;MySQL Cluster 7.2 -->
<g id="edge46" class="edge"><title>MySQL Cluster 7.1&#45;&gt;MySQL Cluster 7.2</title>
<path fill="none" stroke="black" d="M874.847,-431.871C874.847,-407.67 874.847,-363.211 874.847,-334.393"/>
<polygon fill="black" stroke="black" points="878.347,-334.189 874.847,-324.189 871.347,-334.189 878.347,-334.189"/>
</g>
<!-- MariaDB 5.1&#45;&gt;MariaDB 5.2 -->
<g id="edge53" class="edge"><title>MariaDB 5.1&#45;&gt;MariaDB 5.2</title>
<path fill="none" stroke="black" d="M334.752,-450C306.946,-450 279.14,-450 251.334,-450"/>
<polygon fill="black" stroke="black" points="251.089,-446.5 241.089,-450 251.089,-453.5 251.089,-446.5"/>
</g>
<!-- MariaDB 5.2&#45;&gt;MariaDB 5.3 -->
<g id="edge56" class="edge"><title>MariaDB 5.2&#45;&gt;MariaDB 5.3</title>
<path fill="none" stroke="black" d="M195.067,-432.153C213.032,-407.386 246.697,-360.974 267.598,-332.159"/>
<polygon fill="black" stroke="black" points="270.605,-333.975 273.643,-323.825 264.938,-329.865 270.605,-333.975"/>
</g>
<!-- Percona Server 5.5&#45;&gt;MariaDB 5.5 -->
<g id="edge60" class="edge"><title>Percona Server 5.5&#45;&gt;MariaDB 5.5</title>
<path fill="none" stroke="grey" d="M451.887,-360.055C458.94,-351.543 467.619,-341.068 475.397,-331.681"/>
<polygon fill="grey" stroke="grey" points="478.251,-333.722 481.936,-323.789 472.861,-329.256 478.251,-333.722"/>
</g>
<!-- Percona Server 5.6 -->
<g id="node50" class="node"><title>Percona Server 5.6</title>
<ellipse fill="none" stroke="orange" cx="641.847" cy="-234" rx="77.9862" ry="18"/>
<text text-anchor="middle" x="641.847" y="-230.3" font-family="Times,serif" font-size="14.00">Percona Server 5.6</text>
</g>
<!-- Percona Server 5.5&#45;&gt;Percona Server 5.6 -->
<g id="edge71" class="edge"><title>Percona Server 5.5&#45;&gt;Percona Server 5.6</title>
<path fill="none" stroke="black" d="M429.692,-359.967C421.676,-340.461 412.779,-308.556 428.847,-288 433.557,-281.974 516.147,-262.658 577.073,-249.094"/>
<polygon fill="black" stroke="black" points="578.025,-252.468 587.029,-246.885 576.509,-245.634 578.025,-252.468"/>
</g>
<!-- MariaDB 10.0 -->
<g id="node53" class="node"><title>MariaDB 10.0</title>
<ellipse fill="none" stroke="blue" cx="371.847" cy="-162" rx="62.2891" ry="18"/>
<text text-anchor="middle" x="371.847" y="-158.3" font-family="Times,serif" font-size="14.00">MariaDB 10.0</text>
</g>
<!-- Percona Server 5.5&#45;&gt;MariaDB 10.0 -->
<g id="edge62" class="edge"><title>Percona Server 5.5&#45;&gt;MariaDB 10.0</title>
<path fill="none" stroke="grey" d="M430.578,-359.983C426.306,-349.67 420.954,-336.193 416.847,-324 401.199,-277.544 386.61,-222.303 378.495,-190.093"/>
<polygon fill="grey" stroke="grey" points="381.818,-188.953 375.999,-180.099 375.026,-190.649 381.818,-188.953"/>
</g>
<!-- Drizzle 7.1 -->
<g id="node46" class="node"><title>Drizzle 7.1</title>
<ellipse fill="none" stroke="#00008b" cx="704.847" cy="-306" rx="50.0912" ry="18"/>
<text text-anchor="middle" x="704.847" y="-302.3" font-family="Times,serif" font-size="14.00">Drizzle 7.1</text>
</g>
<!-- Drizzle 7.0&#45;&gt;Drizzle 7.1 -->
<g id="edge75" class="edge"><title>Drizzle 7.0&#45;&gt;Drizzle 7.1</title>
<path fill="none" stroke="black" d="M701.083,-359.697C701.634,-351.983 702.296,-342.712 702.911,-334.112"/>
<polygon fill="black" stroke="black" points="706.404,-334.328 703.625,-324.104 699.422,-333.83 706.404,-334.328"/>
</g>
<!-- MySQL Cluster 7.3 -->
<g id="node51" class="node"><title>MySQL Cluster 7.3</title>
<ellipse fill="none" stroke="#cd0000" cx="936.847" cy="-234" rx="81.4863" ry="18"/>
<text text-anchor="middle" x="936.847" y="-230.3" font-family="Times,serif" font-size="14.00">MySQL Cluster 7.3</text>
</g>
<!-- MySQL Cluster 7.2&#45;&gt;MySQL Cluster 7.3 -->
<g id="edge48" class="edge"><title>MySQL Cluster 7.2&#45;&gt;MySQL Cluster 7.3</title>
<path fill="none" stroke="black" d="M889.856,-288.055C897.471,-279.457 906.86,-268.857 915.238,-259.397"/>
<polygon fill="black" stroke="black" points="917.967,-261.596 921.977,-251.789 912.726,-256.954 917.967,-261.596"/>
</g>
<!-- Drizzle 7.2 -->
<g id="node52" class="node"><title>Drizzle 7.2</title>
<ellipse fill="none" stroke="#00008b" stroke-dasharray="5,2" cx="787.847" cy="-234" rx="50.0912" ry="18"/>
<text text-anchor="middle" x="787.847" y="-230.3" font-family="Times,serif" font-size="14.00">Drizzle 7.2</text>
</g>
<!-- Drizzle 7.1&#45;&gt;Drizzle 7.2 -->
<g id="edge76" class="edge"><title>Drizzle 7.1&#45;&gt;Drizzle 7.2</title>
<path fill="none" stroke="black" stroke-dasharray="5,2" d="M723.681,-289.116C734.824,-279.718 749.111,-267.669 761.375,-257.326"/>
<polygon fill="black" stroke="black" points="763.7,-259.944 769.088,-250.821 759.187,-254.593 763.7,-259.944"/>
</g>
<!-- MariaDB 5.3&#45;&gt;Percona Server 5.5 -->
<g id="edge69" class="edge"><title>MariaDB 5.3&#45;&gt;Percona Server 5.5</title>
<path fill="none" stroke="grey" d="M316.796,-321.253C339.4,-331.663 370.324,-345.904 395.257,-357.386"/>
<polygon fill="grey" stroke="grey" points="393.943,-360.634 404.49,-361.638 396.871,-354.276 393.943,-360.634"/>
</g>
<!-- MariaDB 5.3&#45;&gt;MariaDB 5.5 -->
<g id="edge59" class="edge"><title>MariaDB 5.3&#45;&gt;MariaDB 5.5</title>
<path fill="none" stroke="black" d="M344.089,-306C371.896,-306 399.702,-306 427.508,-306"/>
<polygon fill="black" stroke="black" points="427.752,-309.5 437.752,-306 427.752,-302.5 427.752,-309.5"/>
</g>
<!-- MariaDB 5.5&#45;&gt;MariaDB 10.0 -->
<g id="edge61" class="edge"><title>MariaDB 5.5&#45;&gt;MariaDB 10.0</title>
<path fill="none" stroke="black" d="M472.535,-289.51C458.86,-279.739 441.785,-266.295 428.847,-252 411.363,-232.681 395.737,-207.409 385.287,-188.733"/>
<polygon fill="black" stroke="black" points="388.321,-186.985 380.45,-179.892 382.18,-190.345 388.321,-186.985"/>
</g>
<!-- MySQL 5.6&#45;&gt;Percona Server 5.6 -->
<g id="edge70" class="edge"><title>MySQL 5.6&#45;&gt;Percona Server 5.6</title>
<path fill="none" stroke="black" d="M546.046,-234C548.52,-234 550.993,-234 553.467,-234"/>
<polygon fill="black" stroke="black" points="553.635,-237.5 563.635,-234 553.635,-230.5 553.635,-237.5"/>
</g>
<!-- MySQL 5.6&#45;&gt;MySQL Cluster 7.3 -->
<g id="edge47" class="edge"><title>MySQL 5.6&#45;&gt;MySQL Cluster 7.3</title>
<path fill="none" stroke="black" d="M516.737,-250.045C530.123,-257.723 547.253,-266.083 563.847,-270 623.107,-283.989 777.882,-280.564 837.847,-270 856.065,-266.79 875.342,-260.497 891.997,-254.058"/>
<polygon fill="black" stroke="black" points="893.485,-257.232 901.472,-250.272 890.888,-250.732 893.485,-257.232"/>
</g>
<!-- MySQL 5.7 -->
<g id="node55" class="node"><title>MySQL 5.7</title>
<ellipse fill="none" stroke="red" stroke-dasharray="5,2" cx="491.847" cy="-18" rx="53.8905" ry="18"/>
<text text-anchor="middle" x="491.847" y="-14.3" font-family="Times,serif" font-size="14.00">MySQL 5.7</text>
</g>
<!-- MySQL 5.6&#45;&gt;MySQL 5.7 -->
<g id="edge35" class="edge"><title>MySQL 5.6&#45;&gt;MySQL 5.7</title>
<path fill="none" stroke="black" stroke-dasharray="5,2" d="M491.847,-215.849C491.847,-178.832 491.847,-91.1809 491.847,-46.3863"/>
<polygon fill="black" stroke="black" points="495.347,-46.2324 491.847,-36.2325 488.347,-46.2325 495.347,-46.2324"/>
</g>
<!-- Percona Server 5.7 -->
<g id="node57" class="node"><title>Percona Server 5.7</title>
<ellipse fill="none" stroke="orange" stroke-dasharray="5,2" cx="641.847" cy="-18" rx="77.9862" ry="18"/>
<text text-anchor="middle" x="641.847" y="-14.3" font-family="Times,serif" font-size="14.00">Percona Server 5.7</text>
</g>
<!-- Percona Server 5.6&#45;&gt;Percona Server 5.7 -->
<g id="edge73" class="edge"><title>Percona Server 5.6&#45;&gt;Percona Server 5.7</title>
<path fill="none" stroke="black" stroke-dasharray="5,2" d="M641.847,-215.849C641.847,-178.832 641.847,-91.1809 641.847,-46.3863"/>
<polygon fill="black" stroke="black" points="645.347,-46.2324 641.847,-36.2325 638.347,-46.2325 645.347,-46.2324"/>
</g>
<!-- MySQL Cluster 7.4 -->
<g id="node56" class="node"><title>MySQL Cluster 7.4</title>
<ellipse fill="none" stroke="#cd0000" stroke-dasharray="5,2" cx="936.847" cy="-18" rx="81.4863" ry="18"/>
<text text-anchor="middle" x="936.847" y="-14.3" font-family="Times,serif" font-size="14.00">MySQL Cluster 7.4</text>
</g>
<!-- MySQL Cluster 7.3&#45;&gt;MySQL Cluster 7.4 -->
<g id="edge49" class="edge"><title>MySQL Cluster 7.3&#45;&gt;MySQL Cluster 7.4</title>
<path fill="none" stroke="black" stroke-dasharray="5,2" d="M936.847,-215.849C936.847,-178.832 936.847,-91.1809 936.847,-46.3863"/>
<polygon fill="black" stroke="black" points="940.347,-46.2324 936.847,-36.2325 933.347,-46.2325 940.347,-46.2324"/>
</g>
<!-- MariaDB 10.1 -->
<g id="node54" class="node"><title>MariaDB 10.1</title>
<ellipse fill="none" stroke="blue" stroke-dasharray="5,2" cx="357.847" cy="-18" rx="62.2891" ry="18"/>
<text text-anchor="middle" x="357.847" y="-14.3" font-family="Times,serif" font-size="14.00">MariaDB 10.1</text>
</g>
<!-- MariaDB 10.0&#45;&gt;MariaDB 10.1 -->
<g id="edge63" class="edge"><title>MariaDB 10.0&#45;&gt;MariaDB 10.1</title>
<path fill="none" stroke="black" stroke-dasharray="5,2" d="M370.158,-143.871C367.772,-119.67 363.389,-75.2108 360.548,-46.3932"/>
<polygon fill="black" stroke="black" points="364.006,-45.7976 359.542,-36.1893 357.04,-46.4845 364.006,-45.7976"/>
</g>
<!-- MySQL 5.7&#45;&gt;Percona Server 5.7 -->
<g id="edge72" class="edge"><title>MySQL 5.7&#45;&gt;Percona Server 5.7</title>
<path fill="none" stroke="black" stroke-dasharray="5,2" d="M546.046,-18C548.52,-18 550.993,-18 553.467,-18"/>
<polygon fill="black" stroke="black" points="553.635,-21.5001 563.635,-18 553.635,-14.5001 553.635,-21.5001"/>
</g>
<!-- Percona Server 5.0&#45;&gt;Percona Server 5.1 -->
<g id="edge66" class="edge"><title>Percona Server 5.0&#45;&gt;Percona Server 5.1</title>
<path fill="none" stroke="black" d="M228.193,-647.871C224.444,-623.67 217.556,-579.211 213.091,-550.393"/>
<polygon fill="black" stroke="black" points="216.5,-549.535 211.51,-540.189 209.583,-550.607 216.5,-549.535"/>
</g>
</g>
</svg>
