<?xml version="1.0" encoding="UTF-8" standalone="no"?>
<!DOCTYPE svg PUBLIC "-//W3C//DTD SVG 1.1//EN"
 "http://www.w3.org/Graphics/SVG/1.1/DTD/svg11.dtd">
<!-- Generated by graphviz version 2.26.3 (20100126.1600)
 -->
<!-- Title: mysql_history_graph Pages: 1 -->
<svg width="993pt" height="860pt"
 viewBox="0.00 0.00 993.00 860.00" xmlns="http://www.w3.org/2000/svg" xmlns:xlink="http://www.w3.org/1999/xlink">
<g id="graph1" class="graph" transform="scale(1 1) rotate(0) translate(4 856)">
<title>mysql_history_graph</title>
<polygon fill="white" stroke="white" points="-4,5 -4,-856 990,-856 990,5 -4,5"/>
<!-- MySQL 3.23 -->
<g id="node1" class="node"><title>MySQL 3.23</title>
<ellipse fill="none" stroke="red" cx="622" cy="-833" rx="70.9184" ry="18.3848"/>
<text text-anchor="middle" x="622" y="-829.4" font-family="Times Roman,serif" font-size="14.00">MySQL 3.23</text>
</g>
<!-- MySQL 4.0 -->
<g id="node2" class="node"><title>MySQL 4.0</title>
<ellipse fill="none" stroke="red" cx="622" cy="-759" rx="65.0538" ry="18.3848"/>
<text text-anchor="middle" x="622" y="-755.4" font-family="Times Roman,serif" font-size="14.00">MySQL 4.0</text>
</g>
<!-- MySQL 3.23&#45;&gt;MySQL 4.0 -->
<g id="edge2" class="edge"><title>MySQL 3.23&#45;&gt;MySQL 4.0</title>
<path fill="none" stroke="black" d="M622,-814.327C622,-806.264 622,-796.648 622,-787.711"/>
<polygon fill="black" stroke="black" points="625.5,-787.667 622,-777.667 618.5,-787.667 625.5,-787.667"/>
</g>
<!-- MySQL 4.1 -->
<g id="node3" class="node"><title>MySQL 4.1</title>
<ellipse fill="none" stroke="red" cx="622" cy="-685" rx="65.0538" ry="18.3848"/>
<text text-anchor="middle" x="622" y="-681.4" font-family="Times Roman,serif" font-size="14.00">MySQL 4.1</text>
</g>
<!-- MySQL 4.0&#45;&gt;MySQL 4.1 -->
<g id="edge4" class="edge"><title>MySQL 4.0&#45;&gt;MySQL 4.1</title>
<path fill="none" stroke="black" d="M622,-740.327C622,-732.264 622,-722.648 622,-713.711"/>
<polygon fill="black" stroke="black" points="625.5,-713.667 622,-703.667 618.5,-713.667 625.5,-713.667"/>
</g>
<!-- MySQL 5.0 -->
<g id="node4" class="node"><title>MySQL 5.0</title>
<ellipse fill="none" stroke="red" cx="622" cy="-611" rx="65.0538" ry="18.3848"/>
<text text-anchor="middle" x="622" y="-607.4" font-family="Times Roman,serif" font-size="14.00">MySQL 5.0</text>
</g>
<!-- MySQL 4.1&#45;&gt;MySQL 5.0 -->
<g id="edge6" class="edge"><title>MySQL 4.1&#45;&gt;MySQL 5.0</title>
<path fill="none" stroke="black" d="M622,-666.327C622,-658.264 622,-648.648 622,-639.711"/>
<polygon fill="black" stroke="black" points="625.5,-639.667 622,-629.667 618.5,-639.667 625.5,-639.667"/>
</g>
<!-- MySQL 5.1 -->
<g id="node5" class="node"><title>MySQL 5.1</title>
<ellipse fill="none" stroke="red" cx="485" cy="-537" rx="65.0538" ry="18.3848"/>
<text text-anchor="middle" x="485" y="-533.4" font-family="Times Roman,serif" font-size="14.00">MySQL 5.1</text>
</g>
<!-- MySQL 5.0&#45;&gt;MySQL 5.1 -->
<g id="edge8" class="edge"><title>MySQL 5.0&#45;&gt;MySQL 5.1</title>
<path fill="none" stroke="black" d="M591.595,-594.577C571.73,-583.847 545.597,-569.731 524.178,-558.162"/>
<polygon fill="black" stroke="black" points="525.782,-555.05 515.32,-553.377 522.455,-561.209 525.782,-555.05"/>
</g>
<!-- Percona Server 5.0 -->
<g id="node59" class="node"><title>Percona Server 5.0</title>
<ellipse fill="none" stroke="orange" cx="760" cy="-537" rx="104.151" ry="18.3848"/>
<text text-anchor="middle" x="760" y="-533.4" font-family="Times Roman,serif" font-size="14.00">Percona Server 5.0</text>
</g>
<!-- MySQL 5.0&#45;&gt;Percona Server 5.0 -->
<g id="edge72" class="edge"><title>MySQL 5.0&#45;&gt;Percona Server 5.0</title>
<path fill="none" stroke="black" d="M652.627,-594.577C671.856,-584.266 696.915,-570.828 717.988,-559.528"/>
<polygon fill="black" stroke="black" points="719.891,-562.479 727.05,-554.669 716.583,-556.31 719.891,-562.479"/>
</g>
<!-- MySQL 5.5 -->
<g id="node6" class="node"><title>MySQL 5.5</title>
<ellipse fill="none" stroke="red" cx="525" cy="-241" rx="65.0538" ry="18.3848"/>
<text text-anchor="middle" x="525" y="-237.4" font-family="Times Roman,serif" font-size="14.00">MySQL 5.5</text>
</g>
<!-- MySQL 5.1&#45;&gt;MySQL 5.5 -->
<g id="edge10" class="edge"><title>MySQL 5.1&#45;&gt;MySQL 5.5</title>
<path fill="none" stroke="black" d="M497.829,-518.578C504.246,-508.307 511.397,-494.997 515,-482 535.608,-407.655 531.734,-315.502 527.942,-269.675"/>
<polygon fill="black" stroke="black" points="531.416,-269.23 527.044,-259.579 524.444,-269.85 531.416,-269.23"/>
</g>
<!-- MySQL 5.4 -->
<g id="node14" class="node"><title>MySQL 5.4</title>
<ellipse fill="none" stroke="red" stroke-dasharray="1,5" cx="441" cy="-463" rx="65.0538" ry="18.3848"/>
<text text-anchor="middle" x="441" y="-459.4" font-family="Times Roman,serif" font-size="14.00">MySQL 5.4</text>
</g>
<!-- MySQL 5.1&#45;&gt;MySQL 5.4 -->
<g id="edge18" class="edge"><title>MySQL 5.1&#45;&gt;MySQL 5.4</title>
<path fill="none" stroke="black" stroke-dasharray="5,2" d="M474.124,-518.708C468.994,-510.08 462.769,-499.611 457.106,-490.088"/>
<polygon fill="black" stroke="black" points="460.023,-488.145 451.904,-481.338 454.006,-491.722 460.023,-488.145"/>
</g>
<!-- MySQL 6.0 -->
<g id="node16" class="node"><title>MySQL 6.0</title>
<ellipse fill="none" stroke="red" stroke-dasharray="1,5" cx="403" cy="-315" rx="65.0538" ry="18.3848"/>
<text text-anchor="middle" x="403" y="-311.4" font-family="Times Roman,serif" font-size="14.00">MySQL 6.0</text>
</g>
<!-- MySQL 5.1&#45;&gt;MySQL 6.0 -->
<g id="edge20" class="edge"><title>MySQL 5.1&#45;&gt;MySQL 6.0</title>
<path fill="none" stroke="black" stroke-dasharray="5,2" d="M432.206,-526.093C407.967,-518.162 381.453,-504.683 367,-482 339.275,-438.489 365.852,-377 385.734,-342.057"/>
<polygon fill="black" stroke="black" points="388.799,-343.749 390.86,-333.357 382.768,-340.196 388.799,-343.749"/>
</g>
<!-- MySQL Cluster 6.2 -->
<g id="node22" class="node"><title>MySQL Cluster 6.2</title>
<ellipse fill="none" stroke="#cd0000" cx="103" cy="-463" rx="103.238" ry="18.3848"/>
<text text-anchor="middle" x="103" y="-459.4" font-family="Times Roman,serif" font-size="14.00">MySQL Cluster 6.2</text>
</g>
<!-- MySQL 5.1&#45;&gt;MySQL Cluster 6.2 -->
<g id="edge24" class="edge"><title>MySQL 5.1&#45;&gt;MySQL Cluster 6.2</title>
<path fill="none" stroke="black" d="M431.079,-526.555C366.554,-514.055 257.915,-493.01 183.455,-478.586"/>
<polygon fill="black" stroke="black" points="183.667,-475.062 173.184,-476.596 182.336,-481.934 183.667,-475.062"/>
</g>
<!-- MySQL Cluster 6.3 -->
<g id="node23" class="node"><title>MySQL Cluster 6.3</title>
<ellipse fill="none" stroke="#cd0000" cx="141" cy="-389" rx="103.238" ry="18.3848"/>
<text text-anchor="middle" x="141" y="-385.4" font-family="Times Roman,serif" font-size="14.00">MySQL Cluster 6.3</text>
</g>
<!-- MySQL 5.1&#45;&gt;MySQL Cluster 6.3 -->
<g id="edge26" class="edge"><title>MySQL 5.1&#45;&gt;MySQL Cluster 6.3</title>
<path fill="none" stroke="black" d="M423.871,-530.354C376.489,-523.32 310.313,-509.283 258,-482 235.386,-470.206 234.808,-460.066 215,-444 202.048,-433.495 187.383,-422.432 174.544,-413.004"/>
<polygon fill="black" stroke="black" points="176.548,-410.134 166.406,-407.067 172.422,-415.789 176.548,-410.134"/>
</g>
<!-- MySQL Cluster 7.0 -->
<g id="node24" class="node"><title>MySQL Cluster 7.0</title>
<ellipse fill="none" stroke="#cd0000" cx="179" cy="-315" rx="103.238" ry="18.3848"/>
<text text-anchor="middle" x="179" y="-311.4" font-family="Times Roman,serif" font-size="14.00">MySQL Cluster 7.0</text>
</g>
<!-- MySQL 5.1&#45;&gt;MySQL Cluster 7.0 -->
<g id="edge30" class="edge"><title>MySQL 5.1&#45;&gt;MySQL Cluster 7.0</title>
<path fill="none" stroke="black" d="M430.459,-526.737C381.932,-516.628 315.68,-500.104 296,-482 256.758,-445.901 285.231,-412.476 253,-370 243.802,-357.878 231.231,-347.175 219.061,-338.508"/>
<polygon fill="black" stroke="black" points="220.98,-335.58 210.745,-332.841 217.038,-341.365 220.98,-335.58"/>
</g>
<!-- MySQL Cluster 7.1 -->
<g id="node25" class="node"><title>MySQL Cluster 7.1</title>
<ellipse fill="none" stroke="#cd0000" cx="189" cy="-241" rx="103.238" ry="18.3848"/>
<text text-anchor="middle" x="189" y="-237.4" font-family="Times Roman,serif" font-size="14.00">MySQL Cluster 7.1</text>
</g>
<!-- MySQL 5.1&#45;&gt;MySQL Cluster 7.1 -->
<g id="edge34" class="edge"><title>MySQL 5.1&#45;&gt;MySQL Cluster 7.1</title>
<path fill="none" stroke="black" d="M431.859,-526.233C404.675,-518.221 372.984,-504.625 352,-482 292.839,-418.213 346.819,-362.731 291,-296 278.911,-281.547 262.015,-270.308 245.448,-261.866"/>
<polygon fill="black" stroke="black" points="246.838,-258.65 236.31,-257.46 243.798,-264.956 246.838,-258.65"/>
</g>
<!-- MariaDB 5.1 -->
<g id="node39" class="node"><title>MariaDB 5.1</title>
<ellipse fill="none" stroke="blue" cx="711" cy="-389" rx="72.832" ry="18.3848"/>
<text text-anchor="middle" x="711" y="-385.4" font-family="Times Roman,serif" font-size="14.00">MariaDB 5.1</text>
</g>
<!-- MySQL 5.1&#45;&gt;MariaDB 5.1 -->
<g id="edge46" class="edge"><title>MySQL 5.1&#45;&gt;MariaDB 5.1</title>
<path fill="none" stroke="black" d="M531.957,-524.152C560.158,-515.087 595.897,-501.133 624,-482 650.825,-463.737 675.489,-435.844 691.652,-415.368"/>
<polygon fill="black" stroke="black" points="694.486,-417.424 697.832,-407.371 688.948,-413.143 694.486,-417.424"/>
</g>
<!-- MariaDB 5.2 -->
<g id="node40" class="node"><title>MariaDB 5.2</title>
<ellipse fill="none" stroke="blue" cx="730" cy="-315" rx="72.832" ry="18.3848"/>
<text text-anchor="middle" x="730" y="-311.4" font-family="Times Roman,serif" font-size="14.00">MariaDB 5.2</text>
</g>
<!-- MySQL 5.1&#45;&gt;MariaDB 5.2 -->
<g id="edge50" class="edge"><title>MySQL 5.1&#45;&gt;MariaDB 5.2</title>
<path fill="none" stroke="black" d="M526.107,-522.518C546.453,-513.564 570.016,-500.248 586,-482 621.133,-441.891 593.867,-410.109 629,-370 642.275,-354.844 660.778,-343.091 678.325,-334.413"/>
<polygon fill="black" stroke="black" points="679.821,-337.577 687.38,-330.153 676.842,-331.242 679.821,-337.577"/>
</g>
<!-- MariaDB 5.3 -->
<g id="node41" class="node"><title>MariaDB 5.3</title>
<ellipse fill="none" stroke="blue" cx="742" cy="-241" rx="72.832" ry="18.3848"/>
<text text-anchor="middle" x="742" y="-237.4" font-family="Times Roman,serif" font-size="14.00">MariaDB 5.3</text>
</g>
<!-- MySQL 5.1&#45;&gt;MariaDB 5.3 -->
<g id="edge56" class="edge"><title>MySQL 5.1&#45;&gt;MariaDB 5.3</title>
<path fill="none" stroke="black" d="M502.228,-518.796C511.743,-508.374 523.519,-494.85 533,-482 590.702,-403.791 578.444,-363.883 648,-296 661.929,-282.406 679.855,-270.852 696.311,-261.895"/>
<polygon fill="black" stroke="black" points="698.042,-264.939 705.267,-257.189 694.787,-258.742 698.042,-264.939"/>
</g>
<!-- Percona Server 5.1 -->
<g id="node45" class="node"><title>Percona Server 5.1</title>
<ellipse fill="none" stroke="orange" cx="804" cy="-463" rx="104.151" ry="18.3848"/>
<text text-anchor="middle" x="804" y="-459.4" font-family="Times Roman,serif" font-size="14.00">Percona Server 5.1</text>
</g>
<!-- MySQL 5.1&#45;&gt;Percona Server 5.1 -->
<g id="edge74" class="edge"><title>MySQL 5.1&#45;&gt;Percona Server 5.1</title>
<path fill="none" stroke="black" d="M535.546,-525.274C588.135,-513.075 670.991,-493.855 730.749,-479.992"/>
<polygon fill="black" stroke="black" points="731.555,-483.399 740.505,-477.729 729.973,-476.58 731.555,-483.399"/>
</g>
<!-- MySQL 5.6 -->
<g id="node7" class="node"><title>MySQL 5.6</title>
<ellipse fill="none" stroke="red" cx="514" cy="-167" rx="65.0538" ry="18.3848"/>
<text text-anchor="middle" x="514" y="-163.4" font-family="Times Roman,serif" font-size="14.00">MySQL 5.6</text>
</g>
<!-- MySQL 5.5&#45;&gt;MySQL 5.6 -->
<g id="edge12" class="edge"><title>MySQL 5.5&#45;&gt;MySQL 5.6</title>
<path fill="none" stroke="black" d="M522.224,-222.327C521.026,-214.264 519.596,-204.648 518.268,-195.711"/>
<polygon fill="black" stroke="black" points="521.707,-195.044 516.775,-185.667 514.783,-196.073 521.707,-195.044"/>
</g>
<!-- MySQL Cluster 7.2 -->
<g id="node26" class="node"><title>MySQL Cluster 7.2</title>
<ellipse fill="none" stroke="#cd0000" cx="306" cy="-167" rx="103.238" ry="18.3848"/>
<text text-anchor="middle" x="306" y="-163.4" font-family="Times Roman,serif" font-size="14.00">MySQL Cluster 7.2</text>
</g>
<!-- MySQL 5.5&#45;&gt;MySQL Cluster 7.2 -->
<g id="edge38" class="edge"><title>MySQL 5.5&#45;&gt;MySQL Cluster 7.2</title>
<path fill="none" stroke="black" d="M483.034,-226.82C449.4,-215.455 401.821,-199.378 364.456,-186.752"/>
<polygon fill="black" stroke="black" points="365.296,-183.342 354.701,-183.456 363.055,-189.973 365.296,-183.342"/>
</g>
<!-- MariaDB 5.5 -->
<g id="node42" class="node"><title>MariaDB 5.5</title>
<ellipse fill="none" stroke="blue" cx="912" cy="-93" rx="72.832" ry="18.3848"/>
<text text-anchor="middle" x="912" y="-89.4" font-family="Times Roman,serif" font-size="14.00">MariaDB 5.5</text>
</g>
<!-- MySQL 5.5&#45;&gt;MariaDB 5.5 -->
<g id="edge62" class="edge"><title>MySQL 5.5&#45;&gt;MariaDB 5.5</title>
<path fill="none" stroke="black" d="M583.015,-232.605C674.671,-219.162 843.802,-193.547 855,-186 867.269,-177.731 885.797,-144.908 898.372,-120.586"/>
<polygon fill="black" stroke="black" points="901.617,-121.927 903.036,-111.427 895.379,-118.75 901.617,-121.927"/>
</g>
<!-- Percona Server 5.5 -->
<g id="node55" class="node"><title>Percona Server 5.5</title>
<ellipse fill="none" stroke="orange" cx="742" cy="-167" rx="104.151" ry="18.3848"/>
<text text-anchor="middle" x="742" y="-163.4" font-family="Times Roman,serif" font-size="14.00">Percona Server 5.5</text>
</g>
<!-- MySQL 5.5&#45;&gt;Percona Server 5.5 -->
<g id="edge78" class="edge"><title>MySQL 5.5&#45;&gt;Percona Server 5.5</title>
<path fill="none" stroke="black" d="M566.84,-226.732C600.191,-215.359 647.263,-199.307 684.212,-186.707"/>
<polygon fill="black" stroke="black" points="685.522,-189.958 693.858,-183.417 683.263,-183.332 685.522,-189.958"/>
</g>
<!-- MySQL 5.7 -->
<g id="node18" class="node"><title>MySQL 5.7</title>
<ellipse fill="none" stroke="red" stroke-dasharray="1,5" cx="492" cy="-93" rx="65.0538" ry="18.3848"/>
<text text-anchor="middle" x="492" y="-89.4" font-family="Times Roman,serif" font-size="14.00">MySQL 5.7</text>
</g>
<!-- MySQL 5.6&#45;&gt;MySQL 5.7 -->
<g id="edge22" class="edge"><title>MySQL 5.6&#45;&gt;MySQL 5.7</title>
<path fill="none" stroke="black" stroke-dasharray="5,2" d="M508.448,-148.327C506.025,-140.176 503.13,-130.438 500.449,-121.42"/>
<polygon fill="black" stroke="black" points="503.754,-120.255 497.55,-111.667 497.045,-122.25 503.754,-120.255"/>
</g>
<!-- MySQL Cluster 7.3 -->
<g id="node27" class="node"><title>MySQL Cluster 7.3</title>
<ellipse fill="none" stroke="#cd0000" cx="306" cy="-93" rx="103.238" ry="18.3848"/>
<text text-anchor="middle" x="306" y="-89.4" font-family="Times Roman,serif" font-size="14.00">MySQL Cluster 7.3</text>
</g>
<!-- MySQL 5.6&#45;&gt;MySQL Cluster 7.3 -->
<g id="edge42" class="edge"><title>MySQL 5.6&#45;&gt;MySQL Cluster 7.3</title>
<path fill="none" stroke="black" d="M472.906,-152.38C441.198,-141.099 396.993,-125.373 362.041,-112.938"/>
<polygon fill="black" stroke="black" points="363.041,-109.579 352.447,-109.524 360.695,-116.174 363.041,-109.579"/>
</g>
<!-- Percona Server 5.6 -->
<g id="node60" class="node"><title>Percona Server 5.6</title>
<ellipse fill="none" stroke="orange" stroke-dasharray="5,2" cx="679" cy="-93" rx="104.151" ry="18.3848"/>
<text text-anchor="middle" x="679" y="-89.4" font-family="Times Roman,serif" font-size="14.00">Percona Server 5.6</text>
</g>
<!-- MySQL 5.6&#45;&gt;Percona Server 5.6 -->
<g id="edge84" class="edge"><title>MySQL 5.6&#45;&gt;Percona Server 5.6</title>
<path fill="none" stroke="black" stroke-dasharray="5,2" d="M548.992,-151.307C572.92,-140.575 604.935,-126.217 631.207,-114.434"/>
<polygon fill="black" stroke="black" points="632.909,-117.507 640.601,-110.221 630.044,-111.12 632.909,-117.507"/>
</g>
<!-- MySQL 5.4&#45;&gt;MySQL 5.5 -->
<g id="edge14" class="edge"><title>MySQL 5.4&#45;&gt;MySQL 5.5</title>
<path fill="none" stroke="grey" d="M448.017,-444.454C462.748,-405.523 496.968,-315.084 514.393,-269.032"/>
<polygon fill="grey" stroke="grey" points="517.678,-270.241 517.944,-259.649 511.131,-267.763 517.678,-270.241"/>
</g>
<!-- MySQL 6.0&#45;&gt;MySQL 5.5 -->
<g id="edge16" class="edge"><title>MySQL 6.0&#45;&gt;MySQL 5.5</title>
<path fill="none" stroke="grey" d="M430.684,-298.208C447.721,-287.874 469.761,-274.506 488.25,-263.291"/>
<polygon fill="grey" stroke="grey" points="490.269,-266.16 497.004,-257.981 486.638,-260.175 490.269,-266.16"/>
</g>
<!-- Drizzle 7.0 -->
<g id="node69" class="node"><title>Drizzle 7.0</title>
<ellipse fill="none" stroke="#00008b" cx="376" cy="-241" rx="65.7609" ry="18.3848"/>
<text text-anchor="middle" x="376" y="-237.4" font-family="Times Roman,serif" font-size="14.00">Drizzle 7.0</text>
</g>
<!-- MySQL 6.0&#45;&gt;Drizzle 7.0 -->
<g id="edge88" class="edge"><title>MySQL 6.0&#45;&gt;Drizzle 7.0</title>
<path fill="none" stroke="black" d="M396.187,-296.327C393.158,-288.026 389.529,-278.078 386.188,-268.921"/>
<polygon fill="black" stroke="black" points="389.433,-267.606 382.718,-259.411 382.857,-270.005 389.433,-267.606"/>
</g>
<!-- MySQL Cluster 6.2&#45;&gt;MySQL Cluster 6.3 -->
<g id="edge28" class="edge"><title>MySQL Cluster 6.2&#45;&gt;MySQL Cluster 6.3</title>
<path fill="none" stroke="black" d="M112.589,-444.327C116.864,-436.001 121.99,-426.019 126.704,-416.84"/>
<polygon fill="black" stroke="black" points="129.959,-418.162 131.414,-407.667 123.732,-414.964 129.959,-418.162"/>
</g>
<!-- MySQL Cluster 6.3&#45;&gt;MySQL Cluster 7.0 -->
<g id="edge32" class="edge"><title>MySQL Cluster 6.3&#45;&gt;MySQL Cluster 7.0</title>
<path fill="none" stroke="black" d="M150.589,-370.327C154.864,-362.001 159.99,-352.019 164.704,-342.84"/>
<polygon fill="black" stroke="black" points="167.959,-344.162 169.414,-333.667 161.732,-340.964 167.959,-344.162"/>
</g>
<!-- MySQL Cluster 7.0&#45;&gt;MySQL Cluster 7.1 -->
<g id="edge36" class="edge"><title>MySQL Cluster 7.0&#45;&gt;MySQL Cluster 7.1</title>
<path fill="none" stroke="black" d="M181.523,-296.327C182.613,-288.264 183.912,-278.648 185.12,-269.711"/>
<polygon fill="black" stroke="black" points="188.607,-270.046 186.477,-259.667 181.67,-269.109 188.607,-270.046"/>
</g>
<!-- MySQL Cluster 7.1&#45;&gt;MySQL Cluster 7.2 -->
<g id="edge40" class="edge"><title>MySQL Cluster 7.1&#45;&gt;MySQL Cluster 7.2</title>
<path fill="none" stroke="black" d="M217.322,-223.087C232.872,-213.252 252.339,-200.94 269.069,-190.358"/>
<polygon fill="black" stroke="black" points="270.952,-193.308 277.533,-185.005 267.21,-187.392 270.952,-193.308"/>
</g>
<!-- MySQL Cluster 7.2&#45;&gt;MySQL Cluster 7.3 -->
<g id="edge44" class="edge"><title>MySQL Cluster 7.2&#45;&gt;MySQL Cluster 7.3</title>
<path fill="none" stroke="black" d="M306,-148.327C306,-140.264 306,-130.648 306,-121.711"/>
<polygon fill="black" stroke="black" points="309.5,-121.667 306,-111.667 302.5,-121.667 309.5,-121.667"/>
</g>
<!-- MariaDB 5.1&#45;&gt;MariaDB 5.2 -->
<g id="edge52" class="edge"><title>MariaDB 5.1&#45;&gt;MariaDB 5.2</title>
<path fill="none" stroke="black" d="M715.795,-370.327C717.887,-362.176 720.387,-352.438 722.703,-343.42"/>
<polygon fill="black" stroke="black" points="726.11,-344.224 725.207,-333.667 719.33,-342.483 726.11,-344.224"/>
</g>
<!-- MariaDB 5.2&#45;&gt;MariaDB 5.3 -->
<g id="edge58" class="edge"><title>MariaDB 5.2&#45;&gt;MariaDB 5.3</title>
<path fill="none" stroke="black" d="M733.028,-296.327C734.336,-288.264 735.895,-278.648 737.344,-269.711"/>
<polygon fill="black" stroke="black" points="740.827,-270.099 738.973,-259.667 733.917,-268.978 740.827,-270.099"/>
</g>
<!-- MariaDB 5.3&#45;&gt;MariaDB 5.5 -->
<g id="edge64" class="edge"><title>MariaDB 5.3&#45;&gt;MariaDB 5.5</title>
<path fill="none" stroke="black" d="M804.187,-231.212C833.407,-223.557 866.468,-209.986 888,-186 903.674,-168.54 909.368,-142.177 911.318,-121.973"/>
<polygon fill="black" stroke="black" points="914.826,-121.987 912.043,-111.764 907.844,-121.491 914.826,-121.987"/>
</g>
<!-- MariaDB 5.3&#45;&gt;Percona Server 5.5 -->
<g id="edge82" class="edge"><title>MariaDB 5.3&#45;&gt;Percona Server 5.5</title>
<path fill="none" stroke="grey" d="M742,-222.327C742,-214.264 742,-204.648 742,-195.711"/>
<polygon fill="grey" stroke="grey" points="745.5,-195.667 742,-185.667 738.5,-195.667 745.5,-195.667"/>
</g>
<!-- MariaDB 10.0 -->
<g id="node43" class="node"><title>MariaDB 10.0</title>
<ellipse fill="none" stroke="blue" stroke-dasharray="5,2" cx="861" cy="-19" rx="79.196" ry="18.3848"/>
<text text-anchor="middle" x="861" y="-15.4" font-family="Times Roman,serif" font-size="14.00">MariaDB 10.0</text>
</g>
<!-- MariaDB 5.5&#45;&gt;MariaDB 10.0 -->
<g id="edge68" class="edge"><title>MariaDB 5.5&#45;&gt;MariaDB 10.0</title>
<path fill="none" stroke="black" stroke-dasharray="5,2" d="M899.393,-74.7079C893.386,-65.9914 886.083,-55.3952 879.466,-45.7937"/>
<polygon fill="black" stroke="black" points="882.195,-43.5859 873.638,-37.3382 876.431,-47.5583 882.195,-43.5859"/>
</g>
<!-- Percona Server 5.1&#45;&gt;MariaDB 5.1 -->
<g id="edge48" class="edge"><title>Percona Server 5.1&#45;&gt;MariaDB 5.1</title>
<path fill="none" stroke="grey" d="M781.011,-444.708C769.098,-435.228 754.39,-423.526 741.535,-413.297"/>
<polygon fill="grey" stroke="grey" points="743.408,-410.314 733.403,-406.826 739.049,-415.792 743.408,-410.314"/>
</g>
<!-- Percona Server 5.1&#45;&gt;MariaDB 5.2 -->
<g id="edge54" class="edge"><title>Percona Server 5.1&#45;&gt;MariaDB 5.2</title>
<path fill="none" stroke="grey" d="M805.595,-444.377C806.443,-424.734 805.365,-393.44 793,-370 786.576,-357.822 776.267,-347.12 765.832,-338.47"/>
<polygon fill="grey" stroke="grey" points="767.926,-335.664 757.891,-332.266 763.616,-341.18 767.926,-335.664"/>
</g>
<!-- Percona Server 5.1&#45;&gt;MariaDB 5.3 -->
<g id="edge60" class="edge"><title>Percona Server 5.1&#45;&gt;MariaDB 5.3</title>
<path fill="none" stroke="grey" d="M810.433,-444.521C820.451,-412.409 836.25,-345.047 812,-296 805.551,-282.956 794.378,-272.068 782.827,-263.513"/>
<polygon fill="grey" stroke="grey" points="784.629,-260.504 774.412,-257.7 780.65,-266.263 784.629,-260.504"/>
</g>
<!-- Percona Server 5.1&#45;&gt;Percona Server 5.5 -->
<g id="edge80" class="edge"><title>Percona Server 5.1&#45;&gt;Percona Server 5.5</title>
<path fill="none" stroke="black" d="M818.679,-444.329C825.709,-434.197 833.374,-421.092 837,-408 859.12,-328.139 866.878,-292.913 824,-222 816.001,-208.771 803.461,-198.036 790.572,-189.681"/>
<polygon fill="black" stroke="black" points="792.011,-186.461 781.644,-184.275 788.385,-192.449 792.011,-186.461"/>
</g>
<!-- Percona Server 5.5&#45;&gt;MariaDB 5.5 -->
<g id="edge66" class="edge"><title>Percona Server 5.5&#45;&gt;MariaDB 5.5</title>
<path fill="none" stroke="grey" d="M781.429,-149.837C806.588,-138.885 839.309,-124.642 865.701,-113.154"/>
<polygon fill="grey" stroke="grey" points="867.34,-116.257 875.113,-109.057 864.547,-109.839 867.34,-116.257"/>
</g>
<!-- Percona Server 5.5&#45;&gt;MariaDB 10.0 -->
<g id="edge70" class="edge"><title>Percona Server 5.5&#45;&gt;MariaDB 10.0</title>
<path fill="none" stroke="grey" d="M759.598,-148.572C769.401,-138.08 781.674,-124.56 792,-112 809.825,-90.3172 828.731,-64.6233 842.236,-45.7427"/>
<polygon fill="grey" stroke="grey" points="845.094,-47.7637 848.038,-37.5862 839.39,-43.7062 845.094,-47.7637"/>
</g>
<!-- Percona Server 5.5&#45;&gt;Percona Server 5.6 -->
<g id="edge86" class="edge"><title>Percona Server 5.5&#45;&gt;Percona Server 5.6</title>
<path fill="none" stroke="black" stroke-dasharray="5,2" d="M726.427,-148.708C718.855,-139.814 709.616,-128.962 701.311,-119.207"/>
<polygon fill="black" stroke="black" points="703.76,-116.684 694.612,-111.338 698.43,-121.221 703.76,-116.684"/>
</g>
<!-- Percona Server 5.0&#45;&gt;Percona Server 5.1 -->
<g id="edge76" class="edge"><title>Percona Server 5.0&#45;&gt;Percona Server 5.1</title>
<path fill="none" stroke="black" d="M771.103,-518.327C776.196,-509.761 782.332,-499.442 787.918,-490.047"/>
<polygon fill="black" stroke="black" points="790.95,-491.795 793.053,-481.411 784.934,-488.218 790.95,-491.795"/>
</g>
<!-- Drizzle 7.1 -->
<g id="node70" class="node"><title>Drizzle 7.1</title>
<ellipse fill="none" stroke="#00008b" cx="119" cy="-167" rx="65.7609" ry="18.3848"/>
<text text-anchor="middle" x="119" y="-163.4" font-family="Times Roman,serif" font-size="14.00">Drizzle 7.1</text>
</g>
<!-- Drizzle 7.0&#45;&gt;Drizzle 7.1 -->
<g id="edge90" class="edge"><title>Drizzle 7.0&#45;&gt;Drizzle 7.1</title>
<path fill="none" stroke="black" d="M329.757,-227.685C286.404,-215.202 221.501,-196.514 175.184,-183.178"/>
<polygon fill="black" stroke="black" points="175.883,-179.737 165.305,-180.333 173.946,-186.463 175.883,-179.737"/>
</g>
<!-- Drizzle 7.2 -->
<g id="node71" class="node"><title>Drizzle 7.2</title>
<ellipse fill="none" stroke="#00008b" cx="119" cy="-93" rx="65.7609" ry="18.3848"/>
<text text-anchor="middle" x="119" y="-89.4" font-family="Times Roman,serif" font-size="14.00">Drizzle 7.2</text>
</g>
<!-- Drizzle 7.1&#45;&gt;Drizzle 7.2 -->
<g id="edge92" class="edge"><title>Drizzle 7.1&#45;&gt;Drizzle 7.2</title>
<path fill="none" stroke="black" d="M119,-148.327C119,-140.264 119,-130.648 119,-121.711"/>
<polygon fill="black" stroke="black" points="122.5,-121.667 119,-111.667 115.5,-121.667 122.5,-121.667"/>
</g>
</g>
</svg>
