<?xml version="1.0" encoding="UTF-8" standalone="no"?>
<!DOCTYPE svg PUBLIC "-//W3C//DTD SVG 1.1//EN"
 "http://www.w3.org/Graphics/SVG/1.1/DTD/svg11.dtd">
<!-- Generated by graphviz version 2.42.4 (0)
 -->
<!-- Title: mysql_history_graph Pages: 1 -->
<svg width="1276pt" height="1556pt"
 viewBox="0.00 0.00 1276.12 1556.00" xmlns="http://www.w3.org/2000/svg" xmlns:xlink="http://www.w3.org/1999/xlink">
<g id="graph0" class="graph" transform="scale(1 1) rotate(0) translate(4 1552)">
<title>mysql_history_graph</title>
<polygon fill="white" stroke="transparent" points="-4,4 -4,-1552 1272.12,-1552 1272.12,4 -4,4"/>
<!-- MySQL 3.19 -->
<g id="node1" class="node">
<title>MySQL 3.19</title>
<ellipse fill="none" stroke="red" cx="829.82" cy="-1530" rx="68.49" ry="18"/>
<text text-anchor="middle" x="829.82" y="-1526.3" font-family="Times,serif" font-size="14.00">MySQL 3.19</text>
</g>
<!-- MySQL 3.20 -->
<g id="node2" class="node">
<title>MySQL 3.20</title>
<ellipse fill="none" stroke="red" cx="829.82" cy="-1458" rx="68.49" ry="18"/>
<text text-anchor="middle" x="829.82" y="-1454.3" font-family="Times,serif" font-size="14.00">MySQL 3.20</text>
</g>
<!-- MySQL 3.19&#45;&gt;MySQL 3.20 -->
<g id="edge1" class="edge">
<title>MySQL 3.19&#45;&gt;MySQL 3.20</title>
<path fill="none" stroke="black" d="M829.82,-1511.7C829.82,-1503.98 829.82,-1494.71 829.82,-1486.11"/>
<polygon fill="black" stroke="black" points="833.32,-1486.1 829.82,-1476.1 826.32,-1486.1 833.32,-1486.1"/>
</g>
<!-- MySQL 3.21 -->
<g id="node3" class="node">
<title>MySQL 3.21</title>
<ellipse fill="none" stroke="red" cx="829.82" cy="-1386" rx="68.49" ry="18"/>
<text text-anchor="middle" x="829.82" y="-1382.3" font-family="Times,serif" font-size="14.00">MySQL 3.21</text>
</g>
<!-- MySQL 3.20&#45;&gt;MySQL 3.21 -->
<g id="edge2" class="edge">
<title>MySQL 3.20&#45;&gt;MySQL 3.21</title>
<path fill="none" stroke="black" d="M829.82,-1439.7C829.82,-1431.98 829.82,-1422.71 829.82,-1414.11"/>
<polygon fill="black" stroke="black" points="833.32,-1414.1 829.82,-1404.1 826.32,-1414.1 833.32,-1414.1"/>
</g>
<!-- MySQL 3.22 -->
<g id="node4" class="node">
<title>MySQL 3.22</title>
<ellipse fill="none" stroke="red" cx="829.82" cy="-1314" rx="68.49" ry="18"/>
<text text-anchor="middle" x="829.82" y="-1310.3" font-family="Times,serif" font-size="14.00">MySQL 3.22</text>
</g>
<!-- MySQL 3.21&#45;&gt;MySQL 3.22 -->
<g id="edge3" class="edge">
<title>MySQL 3.21&#45;&gt;MySQL 3.22</title>
<path fill="none" stroke="black" d="M829.82,-1367.7C829.82,-1359.98 829.82,-1350.71 829.82,-1342.11"/>
<polygon fill="black" stroke="black" points="833.32,-1342.1 829.82,-1332.1 826.32,-1342.1 833.32,-1342.1"/>
</g>
<!-- MySQL 3.23 -->
<g id="node5" class="node">
<title>MySQL 3.23</title>
<ellipse fill="none" stroke="red" cx="829.82" cy="-1242" rx="68.49" ry="18"/>
<text text-anchor="middle" x="829.82" y="-1238.3" font-family="Times,serif" font-size="14.00">MySQL 3.23</text>
</g>
<!-- MySQL 3.22&#45;&gt;MySQL 3.23 -->
<g id="edge4" class="edge">
<title>MySQL 3.22&#45;&gt;MySQL 3.23</title>
<path fill="none" stroke="black" d="M829.82,-1295.7C829.82,-1287.98 829.82,-1278.71 829.82,-1270.11"/>
<polygon fill="black" stroke="black" points="833.32,-1270.1 829.82,-1260.1 826.32,-1270.1 833.32,-1270.1"/>
</g>
<!-- MySQL 4.0 -->
<g id="node6" class="node">
<title>MySQL 4.0</title>
<ellipse fill="none" stroke="red" cx="829.82" cy="-1170" rx="62.29" ry="18"/>
<text text-anchor="middle" x="829.82" y="-1166.3" font-family="Times,serif" font-size="14.00">MySQL 4.0</text>
</g>
<!-- MySQL 3.23&#45;&gt;MySQL 4.0 -->
<g id="edge5" class="edge">
<title>MySQL 3.23&#45;&gt;MySQL 4.0</title>
<path fill="none" stroke="black" d="M829.82,-1223.7C829.82,-1215.98 829.82,-1206.71 829.82,-1198.11"/>
<polygon fill="black" stroke="black" points="833.32,-1198.1 829.82,-1188.1 826.32,-1198.1 833.32,-1198.1"/>
</g>
<!-- MySQL 4.1 -->
<g id="node7" class="node">
<title>MySQL 4.1</title>
<ellipse fill="none" stroke="red" cx="829.82" cy="-1098" rx="62.29" ry="18"/>
<text text-anchor="middle" x="829.82" y="-1094.3" font-family="Times,serif" font-size="14.00">MySQL 4.1</text>
</g>
<!-- MySQL 4.0&#45;&gt;MySQL 4.1 -->
<g id="edge6" class="edge">
<title>MySQL 4.0&#45;&gt;MySQL 4.1</title>
<path fill="none" stroke="black" d="M829.82,-1151.7C829.82,-1143.98 829.82,-1134.71 829.82,-1126.11"/>
<polygon fill="black" stroke="black" points="833.32,-1126.1 829.82,-1116.1 826.32,-1126.1 833.32,-1126.1"/>
</g>
<!-- MySQL 5.0 -->
<g id="node8" class="node">
<title>MySQL 5.0</title>
<ellipse fill="none" stroke="red" cx="829.82" cy="-1026" rx="62.29" ry="18"/>
<text text-anchor="middle" x="829.82" y="-1022.3" font-family="Times,serif" font-size="14.00">MySQL 5.0</text>
</g>
<!-- MySQL 4.1&#45;&gt;MySQL 5.0 -->
<g id="edge7" class="edge">
<title>MySQL 4.1&#45;&gt;MySQL 5.0</title>
<path fill="none" stroke="black" d="M829.82,-1079.7C829.82,-1071.98 829.82,-1062.71 829.82,-1054.11"/>
<polygon fill="black" stroke="black" points="833.32,-1054.1 829.82,-1044.1 826.32,-1054.1 833.32,-1054.1"/>
</g>
<!-- MySQL 5.1 -->
<g id="node9" class="node">
<title>MySQL 5.1</title>
<ellipse fill="none" stroke="red" cx="581.82" cy="-954" rx="62.29" ry="18"/>
<text text-anchor="middle" x="581.82" y="-950.3" font-family="Times,serif" font-size="14.00">MySQL 5.1</text>
</g>
<!-- MySQL 5.0&#45;&gt;MySQL 5.1 -->
<g id="edge8" class="edge">
<title>MySQL 5.0&#45;&gt;MySQL 5.1</title>
<path fill="none" stroke="black" d="M786.91,-1012.89C744.67,-1000.97 680.09,-982.74 634.71,-969.93"/>
<polygon fill="black" stroke="black" points="635.62,-966.55 625.04,-967.2 633.72,-973.28 635.62,-966.55"/>
</g>
<!-- Percona Server 5.0 -->
<g id="node51" class="node">
<title>Percona Server 5.0</title>
<ellipse fill="none" stroke="orange" cx="829.82" cy="-954" rx="99.38" ry="18"/>
<text text-anchor="middle" x="829.82" y="-950.3" font-family="Times,serif" font-size="14.00">Percona Server 5.0</text>
</g>
<!-- MySQL 5.0&#45;&gt;Percona Server 5.0 -->
<g id="edge69" class="edge">
<title>MySQL 5.0&#45;&gt;Percona Server 5.0</title>
<path fill="none" stroke="black" d="M829.82,-1007.7C829.82,-999.98 829.82,-990.71 829.82,-982.11"/>
<polygon fill="black" stroke="black" points="833.32,-982.1 829.82,-972.1 826.32,-982.1 833.32,-982.1"/>
</g>
<!-- OurDelta 5.0 -->
<g id="node57" class="node">
<title>OurDelta 5.0</title>
<ellipse fill="none" stroke="green" cx="1062.82" cy="-954" rx="70.69" ry="18"/>
<text text-anchor="middle" x="1062.82" y="-950.3" font-family="Times,serif" font-size="14.00">OurDelta 5.0</text>
</g>
<!-- MySQL 5.0&#45;&gt;OurDelta 5.0 -->
<g id="edge85" class="edge">
<title>MySQL 5.0&#45;&gt;OurDelta 5.0</title>
<path fill="none" stroke="black" d="M871.48,-1012.49C909.89,-1000.94 967.13,-983.75 1009,-971.17"/>
<polygon fill="black" stroke="black" points="1010.18,-974.47 1018.75,-968.24 1008.17,-967.76 1010.18,-974.47"/>
</g>
<!-- MySQL 6.0 -->
<g id="node14" class="node">
<title>MySQL 6.0</title>
<ellipse fill="none" stroke="red" stroke-dasharray="1,5" cx="393.82" cy="-882" rx="62.29" ry="18"/>
<text text-anchor="middle" x="393.82" y="-878.3" font-family="Times,serif" font-size="14.00">MySQL 6.0</text>
</g>
<!-- MySQL 5.1&#45;&gt;MySQL 6.0 -->
<g id="edge16" class="edge">
<title>MySQL 5.1&#45;&gt;MySQL 6.0</title>
<path fill="none" stroke="black" stroke-dasharray="5,2" d="M545.13,-939.34C515.11,-928.16 472.48,-912.29 440.11,-900.24"/>
<polygon fill="black" stroke="black" points="441.02,-896.84 430.42,-896.63 438.57,-903.4 441.02,-896.84"/>
</g>
<!-- MySQL 5.2 -->
<g id="node17" class="node">
<title>MySQL 5.2</title>
<ellipse fill="none" stroke="red" stroke-dasharray="1,5" cx="536.82" cy="-882" rx="62.29" ry="18"/>
<text text-anchor="middle" x="536.82" y="-878.3" font-family="Times,serif" font-size="14.00">MySQL 5.2</text>
</g>
<!-- MySQL 5.1&#45;&gt;MySQL 5.2 -->
<g id="edge15" class="edge">
<title>MySQL 5.1&#45;&gt;MySQL 5.2</title>
<path fill="none" stroke="black" stroke-dasharray="5,2" d="M570.93,-936.05C565.57,-927.71 558.99,-917.49 553.06,-908.25"/>
<polygon fill="black" stroke="black" points="555.97,-906.31 547.62,-899.79 550.08,-910.09 555.97,-906.31"/>
</g>
<!-- MySQL Cluster 6.2 -->
<g id="node19" class="node">
<title>MySQL Cluster 6.2</title>
<ellipse fill="none" stroke="#cd0000" cx="138.82" cy="-882" rx="99.38" ry="18"/>
<text text-anchor="middle" x="138.82" y="-878.3" font-family="Times,serif" font-size="14.00">MySQL Cluster 6.2</text>
</g>
<!-- MySQL 5.1&#45;&gt;MySQL Cluster 6.2 -->
<g id="edge19" class="edge">
<title>MySQL 5.1&#45;&gt;MySQL Cluster 6.2</title>
<path fill="none" stroke="black" d="M528.39,-944.56C452.05,-932.49 311.11,-910.22 221.32,-896.04"/>
<polygon fill="black" stroke="black" points="221.59,-892.54 211.17,-894.43 220.5,-899.45 221.59,-892.54"/>
</g>
<!-- MySQL Cluster 6.3 -->
<g id="node20" class="node">
<title>MySQL Cluster 6.3</title>
<ellipse fill="none" stroke="#cd0000" cx="141.82" cy="-810" rx="99.38" ry="18"/>
<text text-anchor="middle" x="141.82" y="-806.3" font-family="Times,serif" font-size="14.00">MySQL Cluster 6.3</text>
</g>
<!-- MySQL 5.1&#45;&gt;MySQL Cluster 6.3 -->
<g id="edge20" class="edge">
<title>MySQL 5.1&#45;&gt;MySQL Cluster 6.3</title>
<path fill="none" stroke="black" d="M520.06,-950.93C458.97,-946.83 364.12,-934.82 289.82,-900 267.25,-889.42 267.64,-877.71 246.82,-864 228.29,-851.8 206.58,-840.41 187.72,-831.34"/>
<polygon fill="black" stroke="black" points="188.97,-828.06 178.44,-826.95 185.98,-834.39 188.97,-828.06"/>
</g>
<!-- MySQL Cluster 7.0 -->
<g id="node21" class="node">
<title>MySQL Cluster 7.0</title>
<ellipse fill="none" stroke="#cd0000" cx="159.82" cy="-738" rx="99.38" ry="18"/>
<text text-anchor="middle" x="159.82" y="-734.3" font-family="Times,serif" font-size="14.00">MySQL Cluster 7.0</text>
</g>
<!-- MySQL 5.1&#45;&gt;MySQL Cluster 7.0 -->
<g id="edge22" class="edge">
<title>MySQL 5.1&#45;&gt;MySQL Cluster 7.0</title>
<path fill="none" stroke="black" d="M519.22,-953.17C463.38,-950.48 381.59,-939.27 322.82,-900 274.65,-867.81 292.04,-831.67 249.82,-792 236.35,-779.34 219.32,-768.35 203.72,-759.72"/>
<polygon fill="black" stroke="black" points="205.2,-756.54 194.73,-754.91 201.9,-762.71 205.2,-756.54"/>
</g>
<!-- MySQL Cluster 7.1 -->
<g id="node22" class="node">
<title>MySQL Cluster 7.1</title>
<ellipse fill="none" stroke="#cd0000" cx="159.82" cy="-666" rx="99.38" ry="18"/>
<text text-anchor="middle" x="159.82" y="-662.3" font-family="Times,serif" font-size="14.00">MySQL Cluster 7.1</text>
</g>
<!-- MySQL 5.1&#45;&gt;MySQL Cluster 7.1 -->
<g id="edge24" class="edge">
<title>MySQL 5.1&#45;&gt;MySQL Cluster 7.1</title>
<path fill="none" stroke="black" d="M519.93,-951.63C382.85,-947.97 63.21,-935.66 30.82,-900 -23.33,-840.38 1.19,-782.64 51.82,-720 64.06,-704.86 81.71,-693.71 99.21,-685.66"/>
<polygon fill="black" stroke="black" points="101.07,-688.67 108.88,-681.51 98.31,-682.24 101.07,-688.67"/>
</g>
<!-- MariaDB 5.1 -->
<g id="node27" class="node">
<title>MariaDB 5.1</title>
<ellipse fill="none" stroke="blue" cx="838.82" cy="-810" rx="69.59" ry="18"/>
<text text-anchor="middle" x="838.82" y="-806.3" font-family="Times,serif" font-size="14.00">MariaDB 5.1</text>
</g>
<!-- MySQL 5.1&#45;&gt;MariaDB 5.1 -->
<g id="edge34" class="edge">
<title>MySQL 5.1&#45;&gt;MariaDB 5.1</title>
<path fill="none" stroke="black" d="M612.44,-938.23C632,-928.33 657.58,-914.49 678.82,-900 699.41,-885.96 700.72,-877.26 721.82,-864 743.61,-850.3 769.54,-838.18 791.44,-829"/>
<polygon fill="black" stroke="black" points="792.95,-832.16 800.87,-825.12 790.29,-825.69 792.95,-832.16"/>
</g>
<!-- MariaDB 5.2 -->
<g id="node28" class="node">
<title>MariaDB 5.2</title>
<ellipse fill="none" stroke="blue" cx="787.82" cy="-738" rx="69.59" ry="18"/>
<text text-anchor="middle" x="787.82" y="-734.3" font-family="Times,serif" font-size="14.00">MariaDB 5.2</text>
</g>
<!-- MySQL 5.1&#45;&gt;MariaDB 5.2 -->
<g id="edge36" class="edge">
<title>MySQL 5.1&#45;&gt;MariaDB 5.2</title>
<path fill="none" stroke="black" d="M600.86,-936.75C612.64,-926.49 627.92,-912.8 640.82,-900 687.64,-853.56 738.82,-795.75 766.74,-763.57"/>
<polygon fill="black" stroke="black" points="769.43,-765.81 773.32,-755.96 764.13,-761.23 769.43,-765.81"/>
</g>
<!-- MariaDB 5.3 -->
<g id="node29" class="node">
<title>MariaDB 5.3</title>
<ellipse fill="none" stroke="blue" cx="787.82" cy="-666" rx="69.59" ry="18"/>
<text text-anchor="middle" x="787.82" y="-662.3" font-family="Times,serif" font-size="14.00">MariaDB 5.3</text>
</g>
<!-- MySQL 5.1&#45;&gt;MariaDB 5.3 -->
<g id="edge39" class="edge">
<title>MySQL 5.1&#45;&gt;MariaDB 5.3</title>
<path fill="none" stroke="black" d="M590.51,-935.96C616.43,-885.29 692.41,-738 708.82,-720 720.23,-707.49 735.18,-696.5 749,-687.81"/>
<polygon fill="black" stroke="black" points="751.12,-690.62 757.86,-682.45 747.5,-684.63 751.12,-690.62"/>
</g>
<!-- Percona Server 5.1 -->
<g id="node37" class="node">
<title>Percona Server 5.1</title>
<ellipse fill="none" stroke="orange" cx="829.82" cy="-882" rx="99.38" ry="18"/>
<text text-anchor="middle" x="829.82" y="-878.3" font-family="Times,serif" font-size="14.00">Percona Server 5.1</text>
</g>
<!-- MySQL 5.1&#45;&gt;Percona Server 5.1 -->
<g id="edge70" class="edge">
<title>MySQL 5.1&#45;&gt;Percona Server 5.1</title>
<path fill="none" stroke="black" d="M624.74,-940.89C664.43,-929.68 723.88,-912.9 768.56,-900.29"/>
<polygon fill="black" stroke="black" points="769.76,-903.59 778.43,-897.51 767.85,-896.85 769.76,-903.59"/>
</g>
<!-- InfiniDB 1.5 -->
<g id="node40" class="node">
<title>InfiniDB 1.5</title>
<ellipse fill="none" stroke="steelblue" cx="1013.82" cy="-882" rx="66.09" ry="18"/>
<text text-anchor="middle" x="1013.82" y="-878.3" font-family="Times,serif" font-size="14.00">InfiniDB 1.5</text>
</g>
<!-- MySQL 5.1&#45;&gt;InfiniDB 1.5 -->
<g id="edge54" class="edge">
<title>MySQL 5.1&#45;&gt;InfiniDB 1.5</title>
<path fill="none" stroke="black" d="M637.83,-945.93C708.14,-936.77 832.31,-919.63 937.82,-900 943.53,-898.94 949.46,-897.76 955.37,-896.52"/>
<polygon fill="black" stroke="black" points="956.23,-899.92 965.28,-894.41 954.77,-893.07 956.23,-899.92"/>
</g>
<!-- MySQL 5.5 -->
<g id="node10" class="node">
<title>MySQL 5.5</title>
<ellipse fill="none" stroke="red" cx="514.82" cy="-666" rx="62.29" ry="18"/>
<text text-anchor="middle" x="514.82" y="-662.3" font-family="Times,serif" font-size="14.00">MySQL 5.5</text>
</g>
<!-- MySQL 5.6 -->
<g id="node11" class="node">
<title>MySQL 5.6</title>
<ellipse fill="none" stroke="red" cx="418.82" cy="-594" rx="62.29" ry="18"/>
<text text-anchor="middle" x="418.82" y="-590.3" font-family="Times,serif" font-size="14.00">MySQL 5.6</text>
</g>
<!-- MySQL 5.5&#45;&gt;MySQL 5.6 -->
<g id="edge11" class="edge">
<title>MySQL 5.5&#45;&gt;MySQL 5.6</title>
<path fill="none" stroke="black" d="M493.04,-649.12C480,-639.61 463.23,-627.38 448.94,-616.96"/>
<polygon fill="black" stroke="black" points="450.99,-614.13 440.85,-611.06 446.87,-619.78 450.99,-614.13"/>
</g>
<!-- MySQL Cluster 7.2 -->
<g id="node23" class="node">
<title>MySQL Cluster 7.2</title>
<ellipse fill="none" stroke="#cd0000" cx="190.82" cy="-594" rx="99.38" ry="18"/>
<text text-anchor="middle" x="190.82" y="-590.3" font-family="Times,serif" font-size="14.00">MySQL Cluster 7.2</text>
</g>
<!-- MySQL 5.5&#45;&gt;MySQL Cluster 7.2 -->
<g id="edge26" class="edge">
<title>MySQL 5.5&#45;&gt;MySQL Cluster 7.2</title>
<path fill="none" stroke="black" d="M466.32,-654.52C412.22,-642.83 324.19,-623.81 262.23,-610.43"/>
<polygon fill="black" stroke="black" points="262.64,-606.94 252.13,-608.25 261.16,-613.78 262.64,-606.94"/>
</g>
<!-- MariaDB 5.5 -->
<g id="node30" class="node">
<title>MariaDB 5.5</title>
<ellipse fill="none" stroke="blue" cx="796.82" cy="-522" rx="69.59" ry="18"/>
<text text-anchor="middle" x="796.82" y="-518.3" font-family="Times,serif" font-size="14.00">MariaDB 5.5</text>
</g>
<!-- MySQL 5.5&#45;&gt;MariaDB 5.5 -->
<g id="edge42" class="edge">
<title>MySQL 5.5&#45;&gt;MariaDB 5.5</title>
<path fill="none" stroke="black" d="M515.47,-647.85C517.2,-627.62 523.23,-594.42 543.82,-576 602.67,-523.34 640.55,-556.31 717.82,-540 723.54,-538.79 729.48,-537.53 735.44,-536.26"/>
<polygon fill="black" stroke="black" points="736.37,-539.64 745.42,-534.12 734.9,-532.79 736.37,-539.64"/>
</g>
<!-- Percona Server 5.5 -->
<g id="node38" class="node">
<title>Percona Server 5.5</title>
<ellipse fill="none" stroke="orange" cx="651.82" cy="-594" rx="99.38" ry="18"/>
<text text-anchor="middle" x="651.82" y="-590.3" font-family="Times,serif" font-size="14.00">Percona Server 5.5</text>
</g>
<!-- MySQL 5.5&#45;&gt;Percona Server 5.5 -->
<g id="edge72" class="edge">
<title>MySQL 5.5&#45;&gt;Percona Server 5.5</title>
<path fill="none" stroke="black" d="M544.21,-649.98C563.75,-640 589.67,-626.76 611.18,-615.77"/>
<polygon fill="black" stroke="black" points="612.78,-618.88 620.09,-611.21 609.6,-612.65 612.78,-618.88"/>
</g>
<!-- MySQL 5.7 -->
<g id="node12" class="node">
<title>MySQL 5.7</title>
<ellipse fill="none" stroke="red" cx="382.82" cy="-450" rx="62.29" ry="18"/>
<text text-anchor="middle" x="382.82" y="-446.3" font-family="Times,serif" font-size="14.00">MySQL 5.7</text>
</g>
<!-- MySQL 5.6&#45;&gt;MySQL 5.7 -->
<g id="edge12" class="edge">
<title>MySQL 5.6&#45;&gt;MySQL 5.7</title>
<path fill="none" stroke="black" d="M382.22,-579.15C365.17,-570.63 346.55,-557.87 336.82,-540 329.17,-525.95 331.22,-518.99 336.82,-504 340.87,-493.16 348.24,-483.08 355.91,-474.67"/>
<polygon fill="black" stroke="black" points="358.48,-477.05 362.96,-467.45 353.47,-472.16 358.48,-477.05"/>
</g>
<!-- MySQL Cluster 7.3 -->
<g id="node24" class="node">
<title>MySQL Cluster 7.3</title>
<ellipse fill="none" stroke="#cd0000" cx="190.82" cy="-522" rx="99.38" ry="18"/>
<text text-anchor="middle" x="190.82" y="-518.3" font-family="Times,serif" font-size="14.00">MySQL Cluster 7.3</text>
</g>
<!-- MySQL 5.6&#45;&gt;MySQL Cluster 7.3 -->
<g id="edge28" class="edge">
<title>MySQL 5.6&#45;&gt;MySQL Cluster 7.3</title>
<path fill="none" stroke="black" d="M377.8,-580.4C341.79,-569.35 289.03,-553.15 248.73,-540.78"/>
<polygon fill="black" stroke="black" points="249.61,-537.39 239.03,-537.8 247.56,-544.08 249.61,-537.39"/>
</g>
<!-- Percona Server 5.6 -->
<g id="node39" class="node">
<title>Percona Server 5.6</title>
<ellipse fill="none" stroke="orange" cx="609.82" cy="-522" rx="99.38" ry="18"/>
<text text-anchor="middle" x="609.82" y="-518.3" font-family="Times,serif" font-size="14.00">Percona Server 5.6</text>
</g>
<!-- MySQL 5.6&#45;&gt;Percona Server 5.6 -->
<g id="edge75" class="edge">
<title>MySQL 5.6&#45;&gt;Percona Server 5.6</title>
<path fill="none" stroke="black" d="M456.1,-579.34C485.22,-568.66 526.03,-553.71 558.28,-541.89"/>
<polygon fill="black" stroke="black" points="559.8,-545.06 567.99,-538.33 557.39,-538.49 559.8,-545.06"/>
</g>
<!-- WebscaleSQL -->
<g id="node56" class="node">
<title>WebscaleSQL</title>
<ellipse fill="none" stroke="purple" stroke-dasharray="1,5" cx="418.82" cy="-522" rx="73.39" ry="18"/>
<text text-anchor="middle" x="418.82" y="-518.3" font-family="Times,serif" font-size="14.00">WebscaleSQL</text>
</g>
<!-- MySQL 5.6&#45;&gt;WebscaleSQL -->
<g id="edge84" class="edge">
<title>MySQL 5.6&#45;&gt;WebscaleSQL</title>
<path fill="none" stroke="black" stroke-dasharray="1,5" d="M418.82,-575.7C418.82,-567.98 418.82,-558.71 418.82,-550.11"/>
<polygon fill="black" stroke="black" points="422.32,-550.1 418.82,-540.1 415.32,-550.1 422.32,-550.1"/>
</g>
<!-- MySQL 8.0 -->
<g id="node13" class="node">
<title>MySQL 8.0</title>
<ellipse fill="none" stroke="red" cx="392.82" cy="-234" rx="62.29" ry="18"/>
<text text-anchor="middle" x="392.82" y="-230.3" font-family="Times,serif" font-size="14.00">MySQL 8.0</text>
</g>
<!-- MySQL 5.7&#45;&gt;MySQL 8.0 -->
<g id="edge13" class="edge">
<title>MySQL 5.7&#45;&gt;MySQL 8.0</title>
<path fill="none" stroke="black" d="M383.62,-431.85C385.35,-394.83 389.45,-307.18 391.54,-262.39"/>
<polygon fill="black" stroke="black" points="395.05,-262.38 392.02,-252.23 388.05,-262.06 395.05,-262.38"/>
</g>
<!-- Percona Server 5.7 -->
<g id="node18" class="node">
<title>Percona Server 5.7</title>
<ellipse fill="none" stroke="orange" cx="509.82" cy="-306" rx="99.38" ry="18"/>
<text text-anchor="middle" x="509.82" y="-302.3" font-family="Times,serif" font-size="14.00">Percona Server 5.7</text>
</g>
<!-- MySQL 5.7&#45;&gt;Percona Server 5.7 -->
<g id="edge77" class="edge">
<title>MySQL 5.7&#45;&gt;Percona Server 5.7</title>
<path fill="none" stroke="black" d="M397.64,-432.43C419.89,-407.56 462.06,-360.4 487.89,-331.53"/>
<polygon fill="black" stroke="black" points="490.65,-333.69 494.71,-323.9 485.43,-329.02 490.65,-333.69"/>
</g>
<!-- MySQL Cluster 7.5 -->
<g id="node26" class="node">
<title>MySQL Cluster 7.5</title>
<ellipse fill="none" stroke="#cd0000" cx="255.82" cy="-378" rx="99.38" ry="18"/>
<text text-anchor="middle" x="255.82" y="-374.3" font-family="Times,serif" font-size="14.00">MySQL Cluster 7.5</text>
</g>
<!-- MySQL 5.7&#45;&gt;MySQL Cluster 7.5 -->
<g id="edge31" class="edge">
<title>MySQL 5.7&#45;&gt;MySQL Cluster 7.5</title>
<path fill="none" stroke="black" d="M355.27,-433.81C337.51,-424.02 314.15,-411.15 294.54,-400.34"/>
<polygon fill="black" stroke="black" points="295.99,-397.14 285.54,-395.38 292.61,-403.27 295.99,-397.14"/>
</g>
<!-- MariaDB 10.2 -->
<g id="node33" class="node">
<title>MariaDB 10.2</title>
<ellipse fill="none" stroke="blue" cx="707.82" cy="-306" rx="75.29" ry="18"/>
<text text-anchor="middle" x="707.82" y="-302.3" font-family="Times,serif" font-size="14.00">MariaDB 10.2</text>
</g>
<!-- MySQL 5.7&#45;&gt;MariaDB 10.2 -->
<g id="edge51" class="edge">
<title>MySQL 5.7&#45;&gt;MariaDB 10.2</title>
<path fill="none" stroke="grey" d="M415.77,-434.6C474.68,-408.86 598.05,-354.96 664.02,-326.14"/>
<polygon fill="grey" stroke="grey" points="665.55,-329.29 673.32,-322.08 662.75,-322.87 665.55,-329.29"/>
</g>
<!-- Percona Server 8.0 -->
<g id="node52" class="node">
<title>Percona Server 8.0</title>
<ellipse fill="none" stroke="orange" cx="442.82" cy="-162" rx="99.38" ry="18"/>
<text text-anchor="middle" x="442.82" y="-158.3" font-family="Times,serif" font-size="14.00">Percona Server 8.0</text>
</g>
<!-- MySQL 8.0&#45;&gt;Percona Server 8.0 -->
<g id="edge80" class="edge">
<title>MySQL 8.0&#45;&gt;Percona Server 8.0</title>
<path fill="none" stroke="black" d="M404.93,-216.05C410.8,-207.84 417.97,-197.79 424.49,-188.66"/>
<polygon fill="black" stroke="black" points="427.52,-190.45 430.48,-180.28 421.82,-186.38 427.52,-190.45"/>
</g>
<!-- MySQL 6.0&#45;&gt;MySQL 5.5 -->
<g id="edge9" class="edge">
<title>MySQL 6.0&#45;&gt;MySQL 5.5</title>
<path fill="none" stroke="grey" d="M405.18,-864.02C411.95,-853.72 420.6,-840.24 427.82,-828 455.32,-781.38 484.75,-725.5 501.36,-693.34"/>
<polygon fill="grey" stroke="grey" points="504.63,-694.65 506.09,-684.15 498.4,-691.44 504.63,-694.65"/>
</g>
<!-- Drizzle 7.0 -->
<g id="node53" class="node">
<title>Drizzle 7.0</title>
<ellipse fill="none" stroke="#00008b" cx="357.82" cy="-810" rx="61.19" ry="18"/>
<text text-anchor="middle" x="357.82" y="-806.3" font-family="Times,serif" font-size="14.00">Drizzle 7.0</text>
</g>
<!-- MySQL 6.0&#45;&gt;Drizzle 7.0 -->
<g id="edge81" class="edge">
<title>MySQL 6.0&#45;&gt;Drizzle 7.0</title>
<path fill="none" stroke="black" d="M385.11,-864.05C380.97,-856.01 375.93,-846.2 371.31,-837.23"/>
<polygon fill="black" stroke="black" points="374.39,-835.57 366.71,-828.28 368.17,-838.77 374.39,-835.57"/>
</g>
<!-- MySQL 5.4 -->
<g id="node15" class="node">
<title>MySQL 5.4</title>
<ellipse fill="none" stroke="red" stroke-dasharray="1,5" cx="536.82" cy="-810" rx="62.29" ry="18"/>
<text text-anchor="middle" x="536.82" y="-806.3" font-family="Times,serif" font-size="14.00">MySQL 5.4</text>
</g>
<!-- MySQL 5.4&#45;&gt;MySQL 5.5 -->
<g id="edge10" class="edge">
<title>MySQL 5.4&#45;&gt;MySQL 5.5</title>
<path fill="none" stroke="grey" d="M534.17,-791.87C530.42,-767.67 523.53,-723.21 519.07,-694.39"/>
<polygon fill="grey" stroke="grey" points="522.48,-693.54 517.49,-684.19 515.56,-694.61 522.48,-693.54"/>
</g>
<!-- MySQL Cluster 7.6 -->
<g id="node16" class="node">
<title>MySQL Cluster 7.6</title>
<ellipse fill="none" stroke="#cd0000" cx="255.82" cy="-306" rx="99.38" ry="18"/>
<text text-anchor="middle" x="255.82" y="-302.3" font-family="Times,serif" font-size="14.00">MySQL Cluster 7.6</text>
</g>
<!-- MySQL Cluster 7.6&#45;&gt;MySQL 8.0 -->
<g id="edge14" class="edge">
<title>MySQL Cluster 7.6&#45;&gt;MySQL 8.0</title>
<path fill="none" stroke="black" d="M287.6,-288.76C307.57,-278.56 333.44,-265.34 354.54,-254.56"/>
<polygon fill="black" stroke="black" points="356.25,-257.62 363.56,-249.95 353.06,-251.39 356.25,-257.62"/>
</g>
<!-- MySQL 5.2&#45;&gt;MySQL 5.4 -->
<g id="edge17" class="edge">
<title>MySQL 5.2&#45;&gt;MySQL 5.4</title>
<path fill="none" stroke="black" stroke-dasharray="5,2" d="M536.82,-863.7C536.82,-855.98 536.82,-846.71 536.82,-838.11"/>
<polygon fill="black" stroke="black" points="540.32,-838.1 536.82,-828.1 533.32,-838.1 540.32,-838.1"/>
</g>
<!-- Percona Server 5.7&#45;&gt;MySQL 8.0 -->
<g id="edge18" class="edge">
<title>Percona Server 5.7&#45;&gt;MySQL 8.0</title>
<path fill="none" stroke="grey" d="M482.39,-288.59C466.06,-278.82 445.17,-266.32 427.67,-255.85"/>
<polygon fill="grey" stroke="grey" points="429.26,-252.72 418.88,-250.59 425.66,-258.73 429.26,-252.72"/>
</g>
<!-- Percona Server 5.7&#45;&gt;Percona Server 8.0 -->
<g id="edge79" class="edge">
<title>Percona Server 5.7&#45;&gt;Percona Server 8.0</title>
<path fill="none" stroke="black" d="M501.74,-287.87C490.17,-263.35 468.79,-218.03 455.21,-189.26"/>
<polygon fill="black" stroke="black" points="458.37,-187.74 450.93,-180.19 452.03,-190.73 458.37,-187.74"/>
</g>
<!-- MySQL Cluster 6.2&#45;&gt;MySQL Cluster 6.3 -->
<g id="edge21" class="edge">
<title>MySQL Cluster 6.2&#45;&gt;MySQL Cluster 6.3</title>
<path fill="none" stroke="black" d="M139.56,-863.7C139.89,-855.98 140.29,-846.71 140.66,-838.11"/>
<polygon fill="black" stroke="black" points="144.16,-838.25 141.09,-828.1 137.16,-837.95 144.16,-838.25"/>
</g>
<!-- MySQL Cluster 6.3&#45;&gt;MySQL Cluster 7.0 -->
<g id="edge23" class="edge">
<title>MySQL Cluster 6.3&#45;&gt;MySQL Cluster 7.0</title>
<path fill="none" stroke="black" d="M146.27,-791.7C148.28,-783.9 150.69,-774.51 152.92,-765.83"/>
<polygon fill="black" stroke="black" points="156.32,-766.66 155.42,-756.1 149.54,-764.92 156.32,-766.66"/>
</g>
<!-- MySQL Cluster 7.0&#45;&gt;MySQL Cluster 7.1 -->
<g id="edge25" class="edge">
<title>MySQL Cluster 7.0&#45;&gt;MySQL Cluster 7.1</title>
<path fill="none" stroke="black" d="M159.82,-719.7C159.82,-711.98 159.82,-702.71 159.82,-694.11"/>
<polygon fill="black" stroke="black" points="163.32,-694.1 159.82,-684.1 156.32,-694.1 163.32,-694.1"/>
</g>
<!-- MySQL Cluster 7.1&#45;&gt;MySQL Cluster 7.2 -->
<g id="edge27" class="edge">
<title>MySQL Cluster 7.1&#45;&gt;MySQL Cluster 7.2</title>
<path fill="none" stroke="black" d="M167.49,-647.7C171.01,-639.73 175.28,-630.1 179.19,-621.26"/>
<polygon fill="black" stroke="black" points="182.4,-622.67 183.25,-612.1 176,-619.83 182.4,-622.67"/>
</g>
<!-- MySQL Cluster 7.2&#45;&gt;MySQL Cluster 7.3 -->
<g id="edge29" class="edge">
<title>MySQL Cluster 7.2&#45;&gt;MySQL Cluster 7.3</title>
<path fill="none" stroke="black" d="M190.82,-575.7C190.82,-567.98 190.82,-558.71 190.82,-550.11"/>
<polygon fill="black" stroke="black" points="194.32,-550.1 190.82,-540.1 187.32,-550.1 194.32,-550.1"/>
</g>
<!-- MySQL Cluster 7.4 -->
<g id="node25" class="node">
<title>MySQL Cluster 7.4</title>
<ellipse fill="none" stroke="#cd0000" cx="201.82" cy="-450" rx="99.38" ry="18"/>
<text text-anchor="middle" x="201.82" y="-446.3" font-family="Times,serif" font-size="14.00">MySQL Cluster 7.4</text>
</g>
<!-- MySQL Cluster 7.3&#45;&gt;MySQL Cluster 7.4 -->
<g id="edge30" class="edge">
<title>MySQL Cluster 7.3&#45;&gt;MySQL Cluster 7.4</title>
<path fill="none" stroke="black" d="M193.54,-503.7C194.75,-495.98 196.21,-486.71 197.56,-478.11"/>
<polygon fill="black" stroke="black" points="201.04,-478.53 199.13,-468.1 194.12,-477.44 201.04,-478.53"/>
</g>
<!-- MySQL Cluster 7.4&#45;&gt;MySQL Cluster 7.5 -->
<g id="edge32" class="edge">
<title>MySQL Cluster 7.4&#45;&gt;MySQL Cluster 7.5</title>
<path fill="none" stroke="black" d="M214.89,-432.05C221.3,-423.75 229.14,-413.58 236.25,-404.38"/>
<polygon fill="black" stroke="black" points="239.16,-406.33 242.5,-396.28 233.62,-402.06 239.16,-406.33"/>
</g>
<!-- MySQL Cluster 7.5&#45;&gt;MySQL Cluster 7.6 -->
<g id="edge33" class="edge">
<title>MySQL Cluster 7.5&#45;&gt;MySQL Cluster 7.6</title>
<path fill="none" stroke="black" d="M255.82,-359.7C255.82,-351.98 255.82,-342.71 255.82,-334.11"/>
<polygon fill="black" stroke="black" points="259.32,-334.1 255.82,-324.1 252.32,-334.1 259.32,-334.1"/>
</g>
<!-- MariaDB 5.1&#45;&gt;MariaDB 5.2 -->
<g id="edge37" class="edge">
<title>MariaDB 5.1&#45;&gt;MariaDB 5.2</title>
<path fill="none" stroke="black" d="M826.48,-792.05C820.34,-783.63 812.8,-773.28 806.01,-763.97"/>
<polygon fill="black" stroke="black" points="808.77,-761.81 800.05,-755.79 803.11,-765.93 808.77,-761.81"/>
</g>
<!-- OurDelta 5.1 -->
<g id="node58" class="node">
<title>OurDelta 5.1</title>
<ellipse fill="none" stroke="green" cx="1040.82" cy="-738" rx="70.69" ry="18"/>
<text text-anchor="middle" x="1040.82" y="-734.3" font-family="Times,serif" font-size="14.00">OurDelta 5.1</text>
</g>
<!-- MariaDB 5.1&#45;&gt;OurDelta 5.1 -->
<g id="edge87" class="edge">
<title>MariaDB 5.1&#45;&gt;OurDelta 5.1</title>
<path fill="none" stroke="black" d="M878.73,-795.17C911,-783.99 956.58,-768.19 991.2,-756.2"/>
<polygon fill="black" stroke="black" points="992.35,-759.5 1000.65,-752.92 990.06,-752.89 992.35,-759.5"/>
</g>
<!-- MariaDB 5.2&#45;&gt;MariaDB 5.3 -->
<g id="edge40" class="edge">
<title>MariaDB 5.2&#45;&gt;MariaDB 5.3</title>
<path fill="none" stroke="black" d="M787.82,-719.7C787.82,-711.98 787.82,-702.71 787.82,-694.11"/>
<polygon fill="black" stroke="black" points="791.32,-694.1 787.82,-684.1 784.32,-694.1 791.32,-694.1"/>
</g>
<!-- MariaDB 5.3&#45;&gt;MariaDB 5.5 -->
<g id="edge43" class="edge">
<title>MariaDB 5.3&#45;&gt;MariaDB 5.5</title>
<path fill="none" stroke="black" d="M788.91,-647.87C790.44,-623.67 793.26,-579.21 795.09,-550.39"/>
<polygon fill="black" stroke="black" points="798.59,-550.39 795.73,-540.19 791.61,-549.95 798.59,-550.39"/>
</g>
<!-- MariaDB 5.3&#45;&gt;Percona Server 5.5 -->
<g id="edge74" class="edge">
<title>MariaDB 5.3&#45;&gt;Percona Server 5.5</title>
<path fill="none" stroke="grey" d="M757.98,-649.64C738.77,-639.75 713.56,-626.78 692.52,-615.95"/>
<polygon fill="grey" stroke="grey" points="693.99,-612.77 683.49,-611.3 690.78,-618.99 693.99,-612.77"/>
</g>
<!-- MariaDB 10.0 -->
<g id="node31" class="node">
<title>MariaDB 10.0</title>
<ellipse fill="none" stroke="blue" cx="712.82" cy="-450" rx="75.29" ry="18"/>
<text text-anchor="middle" x="712.82" y="-446.3" font-family="Times,serif" font-size="14.00">MariaDB 10.0</text>
</g>
<!-- MariaDB 5.5&#45;&gt;MariaDB 10.0 -->
<g id="edge45" class="edge">
<title>MariaDB 5.5&#45;&gt;MariaDB 10.0</title>
<path fill="none" stroke="black" d="M776.92,-504.41C766.04,-495.34 752.39,-483.97 740.49,-474.06"/>
<polygon fill="black" stroke="black" points="742.51,-471.18 732.59,-467.47 738.03,-476.56 742.51,-471.18"/>
</g>
<!-- MariaDB 10.1 -->
<g id="node32" class="node">
<title>MariaDB 10.1</title>
<ellipse fill="none" stroke="blue" cx="709.82" cy="-378" rx="75.29" ry="18"/>
<text text-anchor="middle" x="709.82" y="-374.3" font-family="Times,serif" font-size="14.00">MariaDB 10.1</text>
</g>
<!-- MariaDB 10.0&#45;&gt;MariaDB 10.1 -->
<g id="edge46" class="edge">
<title>MariaDB 10.0&#45;&gt;MariaDB 10.1</title>
<path fill="none" stroke="black" d="M712.08,-431.7C711.75,-423.98 711.35,-414.71 710.98,-406.11"/>
<polygon fill="black" stroke="black" points="714.48,-405.95 710.56,-396.1 707.49,-406.25 714.48,-405.95"/>
</g>
<!-- MariaDB 10.1&#45;&gt;MariaDB 10.2 -->
<g id="edge48" class="edge">
<title>MariaDB 10.1&#45;&gt;MariaDB 10.2</title>
<path fill="none" stroke="black" d="M709.33,-359.7C709.11,-351.98 708.84,-342.71 708.6,-334.11"/>
<polygon fill="black" stroke="black" points="712.1,-334 708.31,-324.1 705.1,-334.2 712.1,-334"/>
</g>
<!-- MariaDB ColumnStore 1.0 -->
<g id="node47" class="node">
<title>MariaDB ColumnStore 1.0</title>
<ellipse fill="none" stroke="dodgerblue" cx="934.82" cy="-306" rx="133.78" ry="18"/>
<text text-anchor="middle" x="934.82" y="-302.3" font-family="Times,serif" font-size="14.00">MariaDB ColumnStore 1.0</text>
</g>
<!-- MariaDB 10.1&#45;&gt;MariaDB ColumnStore 1.0 -->
<g id="edge62" class="edge">
<title>MariaDB 10.1&#45;&gt;MariaDB ColumnStore 1.0</title>
<path fill="none" stroke="black" d="M753.74,-363.34C788.14,-352.64 836.37,-337.63 874.4,-325.8"/>
<polygon fill="black" stroke="black" points="875.83,-329.02 884.34,-322.71 873.75,-322.33 875.83,-329.02"/>
</g>
<!-- MariaDB 10.3 -->
<g id="node34" class="node">
<title>MariaDB 10.3</title>
<ellipse fill="none" stroke="blue" cx="707.82" cy="-234" rx="75.29" ry="18"/>
<text text-anchor="middle" x="707.82" y="-230.3" font-family="Times,serif" font-size="14.00">MariaDB 10.3</text>
</g>
<!-- MariaDB 10.2&#45;&gt;MariaDB 10.3 -->
<g id="edge50" class="edge">
<title>MariaDB 10.2&#45;&gt;MariaDB 10.3</title>
<path fill="none" stroke="black" d="M707.82,-287.7C707.82,-279.98 707.82,-270.71 707.82,-262.11"/>
<polygon fill="black" stroke="black" points="711.32,-262.1 707.82,-252.1 704.32,-262.1 711.32,-262.1"/>
</g>
<!-- MariaDB ColumnStore 1.1 -->
<g id="node48" class="node">
<title>MariaDB ColumnStore 1.1</title>
<ellipse fill="none" stroke="dodgerblue" cx="934.82" cy="-234" rx="133.78" ry="18"/>
<text text-anchor="middle" x="934.82" y="-230.3" font-family="Times,serif" font-size="14.00">MariaDB ColumnStore 1.1</text>
</g>
<!-- MariaDB 10.2&#45;&gt;MariaDB ColumnStore 1.1 -->
<g id="edge64" class="edge">
<title>MariaDB 10.2&#45;&gt;MariaDB ColumnStore 1.1</title>
<path fill="none" stroke="black" d="M752.13,-291.34C786.83,-280.64 835.49,-265.63 873.87,-253.8"/>
<polygon fill="black" stroke="black" points="875.37,-257 883.89,-250.71 873.3,-250.31 875.37,-257"/>
</g>
<!-- MariaDB 10.4 -->
<g id="node35" class="node">
<title>MariaDB 10.4</title>
<ellipse fill="none" stroke="blue" cx="707.82" cy="-90" rx="75.29" ry="18"/>
<text text-anchor="middle" x="707.82" y="-86.3" font-family="Times,serif" font-size="14.00">MariaDB 10.4</text>
</g>
<!-- MariaDB 10.3&#45;&gt;MariaDB 10.4 -->
<g id="edge52" class="edge">
<title>MariaDB 10.3&#45;&gt;MariaDB 10.4</title>
<path fill="none" stroke="black" d="M707.82,-215.87C707.82,-191.67 707.82,-147.21 707.82,-118.39"/>
<polygon fill="black" stroke="black" points="711.32,-118.19 707.82,-108.19 704.32,-118.19 711.32,-118.19"/>
</g>
<!-- MariaDB ColumnStore 1.2 -->
<g id="node49" class="node">
<title>MariaDB ColumnStore 1.2</title>
<ellipse fill="none" stroke="dodgerblue" cx="934.82" cy="-162" rx="133.78" ry="18"/>
<text text-anchor="middle" x="934.82" y="-158.3" font-family="Times,serif" font-size="14.00">MariaDB ColumnStore 1.2</text>
</g>
<!-- MariaDB 10.3&#45;&gt;MariaDB ColumnStore 1.2 -->
<g id="edge66" class="edge">
<title>MariaDB 10.3&#45;&gt;MariaDB ColumnStore 1.2</title>
<path fill="none" stroke="black" d="M752.13,-219.34C786.83,-208.64 835.49,-193.63 873.87,-181.8"/>
<polygon fill="black" stroke="black" points="875.37,-185 883.89,-178.71 873.3,-178.31 875.37,-185"/>
</g>
<!-- MariaDB 10.5 -->
<g id="node36" class="node">
<title>MariaDB 10.5</title>
<ellipse fill="none" stroke="blue" stroke-dasharray="5,2" cx="820.82" cy="-18" rx="75.29" ry="18"/>
<text text-anchor="middle" x="820.82" y="-14.3" font-family="Times,serif" font-size="14.00">MariaDB 10.5</text>
</g>
<!-- MariaDB 10.4&#45;&gt;MariaDB 10.5 -->
<g id="edge53" class="edge">
<title>MariaDB 10.4&#45;&gt;MariaDB 10.5</title>
<path fill="none" stroke="black" stroke-dasharray="5,2" d="M733.75,-72.94C749.39,-63.25 769.52,-50.78 786.48,-40.27"/>
<polygon fill="black" stroke="black" points="788.36,-43.23 795.02,-34.98 784.67,-37.28 788.36,-43.23"/>
</g>
<!-- Percona Server 5.1&#45;&gt;MariaDB 5.1 -->
<g id="edge35" class="edge">
<title>Percona Server 5.1&#45;&gt;MariaDB 5.1</title>
<path fill="none" stroke="grey" d="M832.05,-863.7C833.04,-855.98 834.23,-846.71 835.34,-838.11"/>
<polygon fill="grey" stroke="grey" points="838.82,-838.47 836.62,-828.1 831.88,-837.58 838.82,-838.47"/>
</g>
<!-- Percona Server 5.1&#45;&gt;MariaDB 5.2 -->
<g id="edge38" class="edge">
<title>Percona Server 5.1&#45;&gt;MariaDB 5.2</title>
<path fill="none" stroke="grey" d="M796.98,-864.99C782.8,-856.2 767.69,-843.83 759.82,-828 749.75,-807.74 759,-783.1 769.49,-764.89"/>
<polygon fill="grey" stroke="grey" points="772.7,-766.35 774.99,-756.01 766.75,-762.66 772.7,-766.35"/>
</g>
<!-- Percona Server 5.1&#45;&gt;MariaDB 5.3 -->
<g id="edge41" class="edge">
<title>Percona Server 5.1&#45;&gt;MariaDB 5.3</title>
<path fill="none" stroke="grey" d="M873.62,-865.61C890.57,-857.27 908.17,-845.08 917.82,-828 925.69,-814.07 922.67,-807.25 917.82,-792 902.96,-745.3 857.68,-708.98 824.73,-687.8"/>
<polygon fill="grey" stroke="grey" points="826.56,-684.82 816.22,-682.49 822.85,-690.76 826.56,-684.82"/>
</g>
<!-- Percona Server 5.1&#45;&gt;Percona Server 5.5 -->
<g id="edge73" class="edge">
<title>Percona Server 5.1&#45;&gt;Percona Server 5.5</title>
<path fill="none" stroke="black" d="M798.88,-864.71C783.2,-855.41 764.62,-842.69 750.82,-828 694.02,-767.51 667.16,-669.52 656.96,-622.24"/>
<polygon fill="black" stroke="black" points="660.33,-621.24 654.88,-612.15 653.48,-622.65 660.33,-621.24"/>
</g>
<!-- Percona Server 5.5&#45;&gt;MariaDB 5.5 -->
<g id="edge44" class="edge">
<title>Percona Server 5.5&#45;&gt;MariaDB 5.5</title>
<path fill="none" stroke="grey" d="M685.09,-576.94C706.16,-566.77 733.55,-553.54 755.95,-542.73"/>
<polygon fill="grey" stroke="grey" points="757.72,-545.76 765.2,-538.26 754.68,-539.46 757.72,-545.76"/>
</g>
<!-- Percona Server 5.5&#45;&gt;Percona Server 5.6 -->
<g id="edge76" class="edge">
<title>Percona Server 5.5&#45;&gt;Percona Server 5.6</title>
<path fill="none" stroke="black" d="M641.66,-576.05C636.78,-567.92 630.82,-558 625.39,-548.94"/>
<polygon fill="black" stroke="black" points="628.33,-547.05 620.19,-540.28 622.33,-550.65 628.33,-547.05"/>
</g>
<!-- Percona Server 5.6&#45;&gt;Percona Server 5.7 -->
<g id="edge78" class="edge">
<title>Percona Server 5.6&#45;&gt;Percona Server 5.7</title>
<path fill="none" stroke="black" d="M601.81,-503.85C584.4,-466.6 543.03,-378.07 522.22,-333.54"/>
<polygon fill="black" stroke="black" points="525.28,-331.81 517.87,-324.23 518.94,-334.77 525.28,-331.81"/>
</g>
<!-- Percona Server 5.6&#45;&gt;MariaDB 10.0 -->
<g id="edge47" class="edge">
<title>Percona Server 5.6&#45;&gt;MariaDB 10.0</title>
<path fill="none" stroke="grey" d="M634.23,-504.41C648.06,-495.02 665.52,-483.15 680.48,-472.98"/>
<polygon fill="grey" stroke="grey" points="682.64,-475.74 688.94,-467.23 678.71,-469.95 682.64,-475.74"/>
</g>
<!-- Percona Server 5.6&#45;&gt;MariaDB 10.1 -->
<g id="edge49" class="edge">
<title>Percona Server 5.6&#45;&gt;MariaDB 10.1</title>
<path fill="none" stroke="grey" d="M609.72,-503.76C610.41,-484.63 613.99,-453.63 628.82,-432 638.1,-418.47 652.08,-407.55 665.82,-399.22"/>
<polygon fill="grey" stroke="grey" points="667.82,-402.11 674.77,-394.12 664.35,-396.03 667.82,-402.11"/>
</g>
<!-- InfiniDB 2.0 -->
<g id="node41" class="node">
<title>InfiniDB 2.0</title>
<ellipse fill="none" stroke="steelblue" cx="1201.82" cy="-810" rx="66.09" ry="18"/>
<text text-anchor="middle" x="1201.82" y="-806.3" font-family="Times,serif" font-size="14.00">InfiniDB 2.0</text>
</g>
<!-- InfiniDB 1.5&#45;&gt;InfiniDB 2.0 -->
<g id="edge55" class="edge">
<title>InfiniDB 1.5&#45;&gt;InfiniDB 2.0</title>
<path fill="none" stroke="black" d="M1051.42,-867C1081.13,-855.94 1122.78,-840.43 1154.72,-828.54"/>
<polygon fill="black" stroke="black" points="1156.14,-831.74 1164.29,-824.97 1153.7,-825.18 1156.14,-831.74"/>
</g>
<!-- InfiniDB 2.2 -->
<g id="node42" class="node">
<title>InfiniDB 2.2</title>
<ellipse fill="none" stroke="steelblue" cx="1198.82" cy="-738" rx="66.09" ry="18"/>
<text text-anchor="middle" x="1198.82" y="-734.3" font-family="Times,serif" font-size="14.00">InfiniDB 2.2</text>
</g>
<!-- InfiniDB 2.0&#45;&gt;InfiniDB 2.2 -->
<g id="edge56" class="edge">
<title>InfiniDB 2.0&#45;&gt;InfiniDB 2.2</title>
<path fill="none" stroke="black" d="M1201.08,-791.7C1200.75,-783.98 1200.35,-774.71 1199.98,-766.11"/>
<polygon fill="black" stroke="black" points="1203.48,-765.95 1199.56,-756.1 1196.49,-766.25 1203.48,-765.95"/>
</g>
<!-- InfiniDB 3.5 -->
<g id="node43" class="node">
<title>InfiniDB 3.5</title>
<ellipse fill="none" stroke="steelblue" cx="1069.82" cy="-666" rx="66.09" ry="18"/>
<text text-anchor="middle" x="1069.82" y="-662.3" font-family="Times,serif" font-size="14.00">InfiniDB 3.5</text>
</g>
<!-- InfiniDB 2.2&#45;&gt;InfiniDB 3.5 -->
<g id="edge57" class="edge">
<title>InfiniDB 2.2&#45;&gt;InfiniDB 3.5</title>
<path fill="none" stroke="black" d="M1170.51,-721.64C1151.86,-711.52 1127.24,-698.16 1107.01,-687.18"/>
<polygon fill="black" stroke="black" points="1108.52,-684.02 1098.07,-682.33 1105.19,-690.17 1108.52,-684.02"/>
</g>
<!-- InfiniDB 3.6 -->
<g id="node44" class="node">
<title>InfiniDB 3.6</title>
<ellipse fill="none" stroke="steelblue" cx="1069.82" cy="-594" rx="66.09" ry="18"/>
<text text-anchor="middle" x="1069.82" y="-590.3" font-family="Times,serif" font-size="14.00">InfiniDB 3.6</text>
</g>
<!-- InfiniDB 3.5&#45;&gt;InfiniDB 3.6 -->
<g id="edge58" class="edge">
<title>InfiniDB 3.5&#45;&gt;InfiniDB 3.6</title>
<path fill="none" stroke="black" d="M1069.82,-647.7C1069.82,-639.98 1069.82,-630.71 1069.82,-622.11"/>
<polygon fill="black" stroke="black" points="1073.32,-622.1 1069.82,-612.1 1066.32,-622.1 1073.32,-622.1"/>
</g>
<!-- InfiniDB 4.0 -->
<g id="node45" class="node">
<title>InfiniDB 4.0</title>
<ellipse fill="none" stroke="steelblue" cx="950.82" cy="-522" rx="66.09" ry="18"/>
<text text-anchor="middle" x="950.82" y="-518.3" font-family="Times,serif" font-size="14.00">InfiniDB 4.0</text>
</g>
<!-- InfiniDB 3.6&#45;&gt;InfiniDB 4.0 -->
<g id="edge59" class="edge">
<title>InfiniDB 3.6&#45;&gt;InfiniDB 4.0</title>
<path fill="none" stroke="black" d="M1043.41,-577.46C1026.58,-567.57 1004.57,-554.62 986.24,-543.83"/>
<polygon fill="black" stroke="black" points="987.96,-540.79 977.57,-538.73 984.41,-546.82 987.96,-540.79"/>
</g>
<!-- InfiniDB 4.5 -->
<g id="node46" class="node">
<title>InfiniDB 4.5</title>
<ellipse fill="none" stroke="steelblue" cx="938.82" cy="-378" rx="66.09" ry="18"/>
<text text-anchor="middle" x="938.82" y="-374.3" font-family="Times,serif" font-size="14.00">InfiniDB 4.5</text>
</g>
<!-- InfiniDB 4.0&#45;&gt;InfiniDB 4.5 -->
<g id="edge60" class="edge">
<title>InfiniDB 4.0&#45;&gt;InfiniDB 4.5</title>
<path fill="none" stroke="black" d="M949.37,-503.87C947.33,-479.67 943.57,-435.21 941.14,-406.39"/>
<polygon fill="black" stroke="black" points="944.6,-405.86 940.27,-396.19 937.63,-406.45 944.6,-405.86"/>
</g>
<!-- InfiniDB 4.5&#45;&gt;MariaDB ColumnStore 1.0 -->
<g id="edge61" class="edge">
<title>InfiniDB 4.5&#45;&gt;MariaDB ColumnStore 1.0</title>
<path fill="none" stroke="black" d="M937.83,-359.7C937.39,-351.98 936.86,-342.71 936.37,-334.11"/>
<polygon fill="black" stroke="black" points="939.86,-333.89 935.8,-324.1 932.88,-334.29 939.86,-333.89"/>
</g>
<!-- MariaDB ColumnStore 1.0&#45;&gt;MariaDB ColumnStore 1.1 -->
<g id="edge63" class="edge">
<title>MariaDB ColumnStore 1.0&#45;&gt;MariaDB ColumnStore 1.1</title>
<path fill="none" stroke="black" d="M934.82,-287.7C934.82,-279.98 934.82,-270.71 934.82,-262.11"/>
<polygon fill="black" stroke="black" points="938.32,-262.1 934.82,-252.1 931.32,-262.1 938.32,-262.1"/>
</g>
<!-- MariaDB ColumnStore 1.1&#45;&gt;MariaDB ColumnStore 1.2 -->
<g id="edge65" class="edge">
<title>MariaDB ColumnStore 1.1&#45;&gt;MariaDB ColumnStore 1.2</title>
<path fill="none" stroke="black" d="M934.82,-215.7C934.82,-207.98 934.82,-198.71 934.82,-190.11"/>
<polygon fill="black" stroke="black" points="938.32,-190.1 934.82,-180.1 931.32,-190.1 938.32,-190.1"/>
</g>
<!-- MariaDB ColumnStore 1.4 -->
<g id="node50" class="node">
<title>MariaDB ColumnStore 1.4</title>
<ellipse fill="none" stroke="dodgerblue" stroke-dasharray="1,5" cx="934.82" cy="-90" rx="133.78" ry="18"/>
<text text-anchor="middle" x="934.82" y="-86.3" font-family="Times,serif" font-size="14.00">MariaDB ColumnStore 1.4</text>
</g>
<!-- MariaDB ColumnStore 1.2&#45;&gt;MariaDB ColumnStore 1.4 -->
<g id="edge67" class="edge">
<title>MariaDB ColumnStore 1.2&#45;&gt;MariaDB ColumnStore 1.4</title>
<path fill="none" stroke="black" d="M934.82,-143.7C934.82,-135.98 934.82,-126.71 934.82,-118.11"/>
<polygon fill="black" stroke="black" points="938.32,-118.1 934.82,-108.1 931.32,-118.1 938.32,-118.1"/>
</g>
<!-- MariaDB ColumnStore 1.4&#45;&gt;MariaDB 10.5 -->
<g id="edge68" class="edge">
<title>MariaDB ColumnStore 1.4&#45;&gt;MariaDB 10.5</title>
<path fill="none" stroke="black" stroke-dasharray="5,2" d="M907.52,-72.23C891.95,-62.68 872.3,-50.61 855.63,-40.38"/>
<polygon fill="black" stroke="black" points="857.08,-37.16 846.73,-34.91 853.42,-43.12 857.08,-37.16"/>
</g>
<!-- Percona Server 5.0&#45;&gt;Percona Server 5.1 -->
<g id="edge71" class="edge">
<title>Percona Server 5.0&#45;&gt;Percona Server 5.1</title>
<path fill="none" stroke="black" d="M829.82,-935.7C829.82,-927.98 829.82,-918.71 829.82,-910.11"/>
<polygon fill="black" stroke="black" points="833.32,-910.1 829.82,-900.1 826.32,-910.1 833.32,-910.1"/>
</g>
<!-- Drizzle 7.1 -->
<g id="node54" class="node">
<title>Drizzle 7.1</title>
<ellipse fill="none" stroke="#00008b" cx="357.82" cy="-738" rx="61.19" ry="18"/>
<text text-anchor="middle" x="357.82" y="-734.3" font-family="Times,serif" font-size="14.00">Drizzle 7.1</text>
</g>
<!-- Drizzle 7.0&#45;&gt;Drizzle 7.1 -->
<g id="edge82" class="edge">
<title>Drizzle 7.0&#45;&gt;Drizzle 7.1</title>
<path fill="none" stroke="black" d="M357.82,-791.7C357.82,-783.98 357.82,-774.71 357.82,-766.11"/>
<polygon fill="black" stroke="black" points="361.32,-766.1 357.82,-756.1 354.32,-766.1 361.32,-766.1"/>
</g>
<!-- Drizzle 7.2 -->
<g id="node55" class="node">
<title>Drizzle 7.2</title>
<ellipse fill="none" stroke="#00008b" stroke-dasharray="5,2" cx="357.82" cy="-666" rx="61.19" ry="18"/>
<text text-anchor="middle" x="357.82" y="-662.3" font-family="Times,serif" font-size="14.00">Drizzle 7.2</text>
</g>
<!-- Drizzle 7.1&#45;&gt;Drizzle 7.2 -->
<g id="edge83" class="edge">
<title>Drizzle 7.1&#45;&gt;Drizzle 7.2</title>
<path fill="none" stroke="black" stroke-dasharray="5,2" d="M357.82,-719.7C357.82,-711.98 357.82,-702.71 357.82,-694.11"/>
<polygon fill="black" stroke="black" points="361.32,-694.1 357.82,-684.1 354.32,-694.1 361.32,-694.1"/>
</g>
<!-- OurDelta 5.0&#45;&gt;OurDelta 5.1 -->
<g id="edge86" class="edge">
<title>OurDelta 5.0&#45;&gt;OurDelta 5.1</title>
<path fill="none" stroke="black" d="M1073.6,-936.08C1079.36,-926.03 1085.86,-912.78 1088.82,-900 1092.44,-884.41 1091.74,-879.73 1088.82,-864 1082.24,-828.49 1065.96,-790.04 1054.19,-765.29"/>
<polygon fill="black" stroke="black" points="1057.29,-763.67 1049.77,-756.21 1050.99,-766.73 1057.29,-763.67"/>
</g>
</g>
</svg>
