<?xml version="1.0" encoding="UTF-8" standalone="no"?>
<!DOCTYPE svg PUBLIC "-//W3C//DTD SVG 1.1//EN"
 "http://www.w3.org/Graphics/SVG/1.1/DTD/svg11.dtd">
<!-- Generated by graphviz version 2.40.1 (20161225.0304)
 -->
<!-- Title: mysql_history_graph Pages: 1 -->
<svg width="993pt" height="1340pt"
 viewBox="0.00 0.00 993.32 1340.00" xmlns="http://www.w3.org/2000/svg" xmlns:xlink="http://www.w3.org/1999/xlink">
<g id="graph0" class="graph" transform="scale(1 1) rotate(0) translate(4 1336)">
<title>mysql_history_graph</title>
<polygon fill="#ffffff" stroke="transparent" points="-4,4 -4,-1336 989.3166,-1336 989.3166,4 -4,4"/>
<!-- MySQL 3.19 -->
<g id="node1" class="node">
<title>MySQL 3.19</title>
<ellipse fill="none" stroke="#ff0000" cx="604.7728" cy="-1314" rx="69.5877" ry="18"/>
<text text-anchor="middle" x="604.7728" y="-1310.3" font-family="Times,serif" font-size="14.00" fill="#000000">MySQL 3.19</text>
</g>
<!-- MySQL 3.20 -->
<g id="node2" class="node">
<title>MySQL 3.20</title>
<ellipse fill="none" stroke="#ff0000" cx="604.7728" cy="-1242" rx="69.5877" ry="18"/>
<text text-anchor="middle" x="604.7728" y="-1238.3" font-family="Times,serif" font-size="14.00" fill="#000000">MySQL 3.20</text>
</g>
<!-- MySQL 3.19&#45;&gt;MySQL 3.20 -->
<g id="edge1" class="edge">
<title>MySQL 3.19&#45;&gt;MySQL 3.20</title>
<path fill="none" stroke="#000000" d="M604.7728,-1295.8314C604.7728,-1288.131 604.7728,-1278.9743 604.7728,-1270.4166"/>
<polygon fill="#000000" stroke="#000000" points="608.2729,-1270.4132 604.7728,-1260.4133 601.2729,-1270.4133 608.2729,-1270.4132"/>
</g>
<!-- MySQL 3.21 -->
<g id="node3" class="node">
<title>MySQL 3.21</title>
<ellipse fill="none" stroke="#ff0000" cx="604.7728" cy="-1170" rx="69.5877" ry="18"/>
<text text-anchor="middle" x="604.7728" y="-1166.3" font-family="Times,serif" font-size="14.00" fill="#000000">MySQL 3.21</text>
</g>
<!-- MySQL 3.20&#45;&gt;MySQL 3.21 -->
<g id="edge2" class="edge">
<title>MySQL 3.20&#45;&gt;MySQL 3.21</title>
<path fill="none" stroke="#000000" d="M604.7728,-1223.8314C604.7728,-1216.131 604.7728,-1206.9743 604.7728,-1198.4166"/>
<polygon fill="#000000" stroke="#000000" points="608.2729,-1198.4132 604.7728,-1188.4133 601.2729,-1198.4133 608.2729,-1198.4132"/>
</g>
<!-- MySQL 3.22 -->
<g id="node4" class="node">
<title>MySQL 3.22</title>
<ellipse fill="none" stroke="#ff0000" cx="604.7728" cy="-1098" rx="69.5877" ry="18"/>
<text text-anchor="middle" x="604.7728" y="-1094.3" font-family="Times,serif" font-size="14.00" fill="#000000">MySQL 3.22</text>
</g>
<!-- MySQL 3.21&#45;&gt;MySQL 3.22 -->
<g id="edge3" class="edge">
<title>MySQL 3.21&#45;&gt;MySQL 3.22</title>
<path fill="none" stroke="#000000" d="M604.7728,-1151.8314C604.7728,-1144.131 604.7728,-1134.9743 604.7728,-1126.4166"/>
<polygon fill="#000000" stroke="#000000" points="608.2729,-1126.4132 604.7728,-1116.4133 601.2729,-1126.4133 608.2729,-1126.4132"/>
</g>
<!-- MySQL 3.23 -->
<g id="node5" class="node">
<title>MySQL 3.23</title>
<ellipse fill="none" stroke="#ff0000" cx="604.7728" cy="-1026" rx="69.5877" ry="18"/>
<text text-anchor="middle" x="604.7728" y="-1022.3" font-family="Times,serif" font-size="14.00" fill="#000000">MySQL 3.23</text>
</g>
<!-- MySQL 3.22&#45;&gt;MySQL 3.23 -->
<g id="edge4" class="edge">
<title>MySQL 3.22&#45;&gt;MySQL 3.23</title>
<path fill="none" stroke="#000000" d="M604.7728,-1079.8314C604.7728,-1072.131 604.7728,-1062.9743 604.7728,-1054.4166"/>
<polygon fill="#000000" stroke="#000000" points="608.2729,-1054.4132 604.7728,-1044.4133 601.2729,-1054.4133 608.2729,-1054.4132"/>
</g>
<!-- MySQL 4.0 -->
<g id="node6" class="node">
<title>MySQL 4.0</title>
<ellipse fill="none" stroke="#ff0000" cx="604.7728" cy="-954" rx="63.8893" ry="18"/>
<text text-anchor="middle" x="604.7728" y="-950.3" font-family="Times,serif" font-size="14.00" fill="#000000">MySQL 4.0</text>
</g>
<!-- MySQL 3.23&#45;&gt;MySQL 4.0 -->
<g id="edge5" class="edge">
<title>MySQL 3.23&#45;&gt;MySQL 4.0</title>
<path fill="none" stroke="#000000" d="M604.7728,-1007.8314C604.7728,-1000.131 604.7728,-990.9743 604.7728,-982.4166"/>
<polygon fill="#000000" stroke="#000000" points="608.2729,-982.4132 604.7728,-972.4133 601.2729,-982.4133 608.2729,-982.4132"/>
</g>
<!-- MySQL 4.1 -->
<g id="node7" class="node">
<title>MySQL 4.1</title>
<ellipse fill="none" stroke="#ff0000" cx="604.7728" cy="-882" rx="63.8893" ry="18"/>
<text text-anchor="middle" x="604.7728" y="-878.3" font-family="Times,serif" font-size="14.00" fill="#000000">MySQL 4.1</text>
</g>
<!-- MySQL 4.0&#45;&gt;MySQL 4.1 -->
<g id="edge6" class="edge">
<title>MySQL 4.0&#45;&gt;MySQL 4.1</title>
<path fill="none" stroke="#000000" d="M604.7728,-935.8314C604.7728,-928.131 604.7728,-918.9743 604.7728,-910.4166"/>
<polygon fill="#000000" stroke="#000000" points="608.2729,-910.4132 604.7728,-900.4133 601.2729,-910.4133 608.2729,-910.4132"/>
</g>
<!-- MySQL 5.0 -->
<g id="node8" class="node">
<title>MySQL 5.0</title>
<ellipse fill="none" stroke="#ff0000" cx="604.7728" cy="-810" rx="63.8893" ry="18"/>
<text text-anchor="middle" x="604.7728" y="-806.3" font-family="Times,serif" font-size="14.00" fill="#000000">MySQL 5.0</text>
</g>
<!-- MySQL 4.1&#45;&gt;MySQL 5.0 -->
<g id="edge7" class="edge">
<title>MySQL 4.1&#45;&gt;MySQL 5.0</title>
<path fill="none" stroke="#000000" d="M604.7728,-863.8314C604.7728,-856.131 604.7728,-846.9743 604.7728,-838.4166"/>
<polygon fill="#000000" stroke="#000000" points="608.2729,-838.4132 604.7728,-828.4133 601.2729,-838.4133 608.2729,-838.4132"/>
</g>
<!-- MySQL 5.1 -->
<g id="node9" class="node">
<title>MySQL 5.1</title>
<ellipse fill="none" stroke="#ff0000" cx="513.7728" cy="-738" rx="63.8893" ry="18"/>
<text text-anchor="middle" x="513.7728" y="-734.3" font-family="Times,serif" font-size="14.00" fill="#000000">MySQL 5.1</text>
</g>
<!-- MySQL 5.0&#45;&gt;MySQL 5.1 -->
<g id="edge8" class="edge">
<title>MySQL 5.0&#45;&gt;MySQL 5.1</title>
<path fill="none" stroke="#000000" d="M583.207,-792.937C571.3937,-783.5902 556.5712,-771.8625 543.6582,-761.6456"/>
<polygon fill="#000000" stroke="#000000" points="545.513,-758.6501 535.4991,-755.19 541.1696,-764.1397 545.513,-758.6501"/>
</g>
<!-- Percona Server 5.0 -->
<g id="node38" class="node">
<title>Percona Server 5.0</title>
<ellipse fill="none" stroke="#ffa500" cx="741.7728" cy="-738" rx="100.1823" ry="18"/>
<text text-anchor="middle" x="741.7728" y="-734.3" font-family="Times,serif" font-size="14.00" fill="#000000">Percona Server 5.0</text>
</g>
<!-- MySQL 5.0&#45;&gt;Percona Server 5.0 -->
<g id="edge51" class="edge">
<title>MySQL 5.0&#45;&gt;Percona Server 5.0</title>
<path fill="none" stroke="#000000" d="M635.1775,-794.0209C654.2675,-783.9882 679.1453,-770.9137 700.0654,-759.9192"/>
<polygon fill="#000000" stroke="#000000" points="701.8375,-762.9419 709.0612,-755.1915 698.581,-756.7455 701.8375,-762.9419"/>
</g>
<!-- MySQL 6.0 -->
<g id="node14" class="node">
<title>MySQL 6.0</title>
<ellipse fill="none" stroke="#ff0000" stroke-dasharray="1,5" cx="513.7728" cy="-666" rx="63.8893" ry="18"/>
<text text-anchor="middle" x="513.7728" y="-662.3" font-family="Times,serif" font-size="14.00" fill="#000000">MySQL 6.0</text>
</g>
<!-- MySQL 5.1&#45;&gt;MySQL 6.0 -->
<g id="edge14" class="edge">
<title>MySQL 5.1&#45;&gt;MySQL 6.0</title>
<path fill="none" stroke="#000000" stroke-dasharray="5,2" d="M513.7728,-719.8314C513.7728,-712.131 513.7728,-702.9743 513.7728,-694.4166"/>
<polygon fill="#000000" stroke="#000000" points="517.2729,-694.4132 513.7728,-684.4133 510.2729,-694.4133 517.2729,-694.4132"/>
</g>
<!-- MySQL 5.2 -->
<g id="node15" class="node">
<title>MySQL 5.2</title>
<ellipse fill="none" stroke="#ff0000" stroke-dasharray="1,5" cx="368.7728" cy="-666" rx="63.8893" ry="18"/>
<text text-anchor="middle" x="368.7728" y="-662.3" font-family="Times,serif" font-size="14.00" fill="#000000">MySQL 5.2</text>
</g>
<!-- MySQL 5.1&#45;&gt;MySQL 5.2 -->
<g id="edge13" class="edge">
<title>MySQL 5.1&#45;&gt;MySQL 5.2</title>
<path fill="none" stroke="#000000" stroke-dasharray="5,2" d="M481.9519,-722.1993C460.7035,-711.6484 432.5624,-697.6748 409.657,-686.3012"/>
<polygon fill="#000000" stroke="#000000" points="411.0326,-683.0765 400.5194,-681.7638 407.9194,-689.3461 411.0326,-683.0765"/>
</g>
<!-- MySQL Cluster 6.2 -->
<g id="node18" class="node">
<title>MySQL Cluster 6.2</title>
<ellipse fill="none" stroke="#cd0000" cx="147.7728" cy="-666" rx="100.9827" ry="18"/>
<text text-anchor="middle" x="147.7728" y="-662.3" font-family="Times,serif" font-size="14.00" fill="#000000">MySQL Cluster 6.2</text>
</g>
<!-- MySQL 5.1&#45;&gt;MySQL Cluster 6.2 -->
<g id="edge18" class="edge">
<title>MySQL 5.1&#45;&gt;MySQL Cluster 6.2</title>
<path fill="none" stroke="#000000" d="M461.3339,-727.6842C399.7286,-715.5651 296.9335,-695.3431 225.9241,-681.374"/>
<polygon fill="#000000" stroke="#000000" points="226.1742,-677.8562 215.6866,-679.3601 224.8229,-684.7246 226.1742,-677.8562"/>
</g>
<!-- MySQL Cluster 6.3 -->
<g id="node19" class="node">
<title>MySQL Cluster 6.3</title>
<ellipse fill="none" stroke="#cd0000" cx="128.7728" cy="-594" rx="100.9827" ry="18"/>
<text text-anchor="middle" x="128.7728" y="-590.3" font-family="Times,serif" font-size="14.00" fill="#000000">MySQL Cluster 6.3</text>
</g>
<!-- MySQL 5.1&#45;&gt;MySQL Cluster 6.3 -->
<g id="edge19" class="edge">
<title>MySQL 5.1&#45;&gt;MySQL Cluster 6.3</title>
<path fill="none" stroke="#000000" d="M450.6472,-735.4362C327.4974,-729.7837 64.8128,-714.281 37.7728,-684 27.1158,-672.0657 29.8558,-661.904 37.7728,-648 45.7515,-633.9876 58.9566,-623.2359 72.8662,-615.1562"/>
<polygon fill="#000000" stroke="#000000" points="74.9023,-618.0358 82.0607,-610.2251 71.5939,-611.867 74.9023,-618.0358"/>
</g>
<!-- MySQL Cluster 7.0 -->
<g id="node20" class="node">
<title>MySQL Cluster 7.0</title>
<ellipse fill="none" stroke="#cd0000" cx="128.7728" cy="-522" rx="100.9827" ry="18"/>
<text text-anchor="middle" x="128.7728" y="-518.3" font-family="Times,serif" font-size="14.00" fill="#000000">MySQL Cluster 7.0</text>
</g>
<!-- MySQL 5.1&#45;&gt;MySQL Cluster 7.0 -->
<g id="edge21" class="edge">
<title>MySQL 5.1&#45;&gt;MySQL Cluster 7.0</title>
<path fill="none" stroke="#000000" d="M450.4368,-735.3256C325.3729,-729.4274 56.2126,-713.4332 26.7728,-684 -7.2652,-649.9697 -6.6807,-616.8505 18.7728,-576 28.5976,-560.232 44.5198,-548.9379 61.2361,-540.9003"/>
<polygon fill="#000000" stroke="#000000" points="62.8473,-544.0146 70.5709,-536.7623 60.0105,-537.6152 62.8473,-544.0146"/>
</g>
<!-- MySQL Cluster 7.1 -->
<g id="node21" class="node">
<title>MySQL Cluster 7.1</title>
<ellipse fill="none" stroke="#cd0000" cx="276.7728" cy="-450" rx="100.9827" ry="18"/>
<text text-anchor="middle" x="276.7728" y="-446.3" font-family="Times,serif" font-size="14.00" fill="#000000">MySQL Cluster 7.1</text>
</g>
<!-- MySQL 5.1&#45;&gt;MySQL Cluster 7.1 -->
<g id="edge23" class="edge">
<title>MySQL 5.1&#45;&gt;MySQL Cluster 7.1</title>
<path fill="none" stroke="#000000" d="M454.6563,-731.1275C397.3359,-723.1552 316.1327,-707.9527 295.7728,-684 246.0765,-625.5343 259.1979,-526.5103 269.6212,-478.1997"/>
<polygon fill="#000000" stroke="#000000" points="273.1024,-478.6759 271.9115,-468.1482 266.2773,-477.1207 273.1024,-478.6759"/>
</g>
<!-- MariaDB 5.1 -->
<g id="node27" class="node">
<title>MariaDB 5.1</title>
<ellipse fill="none" stroke="#0000ff" cx="703.7728" cy="-594" rx="69.5877" ry="18"/>
<text text-anchor="middle" x="703.7728" y="-590.3" font-family="Times,serif" font-size="14.00" fill="#000000">MariaDB 5.1</text>
</g>
<!-- MySQL 5.1&#45;&gt;MariaDB 5.1 -->
<g id="edge33" class="edge">
<title>MySQL 5.1&#45;&gt;MariaDB 5.1</title>
<path fill="none" stroke="#000000" d="M550.4388,-723.1507C571.7416,-713.615 598.491,-700.0285 619.7728,-684 644.4215,-665.4357 667.9849,-639.1856 683.8475,-619.8232"/>
<polygon fill="#000000" stroke="#000000" points="686.6098,-621.9733 690.155,-611.9892 681.1574,-617.5833 686.6098,-621.9733"/>
</g>
<!-- MariaDB 5.2 -->
<g id="node28" class="node">
<title>MariaDB 5.2</title>
<ellipse fill="none" stroke="#0000ff" cx="725.7728" cy="-522" rx="69.5877" ry="18"/>
<text text-anchor="middle" x="725.7728" y="-518.3" font-family="Times,serif" font-size="14.00" fill="#000000">MariaDB 5.2</text>
</g>
<!-- MySQL 5.1&#45;&gt;MariaDB 5.2 -->
<g id="edge35" class="edge">
<title>MySQL 5.1&#45;&gt;MariaDB 5.2</title>
<path fill="none" stroke="#000000" d="M543.446,-721.8193C558.2326,-712.4599 575.3473,-699.4707 586.7728,-684 617.0019,-643.0679 591.6405,-614.6198 624.7728,-576 637.9476,-560.6431 656.6074,-548.9625 674.3098,-540.4621"/>
<polygon fill="#000000" stroke="#000000" points="675.7938,-543.6322 683.4456,-536.3042 672.8941,-537.261 675.7938,-543.6322"/>
</g>
<!-- MariaDB 5.3 -->
<g id="node29" class="node">
<title>MariaDB 5.3</title>
<ellipse fill="none" stroke="#0000ff" cx="915.7728" cy="-450" rx="69.5877" ry="18"/>
<text text-anchor="middle" x="915.7728" y="-446.3" font-family="Times,serif" font-size="14.00" fill="#000000">MariaDB 5.3</text>
</g>
<!-- MySQL 5.1&#45;&gt;MariaDB 5.3 -->
<g id="edge38" class="edge">
<title>MySQL 5.1&#45;&gt;MariaDB 5.3</title>
<path fill="none" stroke="#000000" d="M569.7479,-729.3854C589.6392,-726.3633 612.1973,-722.9805 632.7728,-720 690.4993,-711.638 852.3528,-726.0536 892.7728,-684 946.2706,-628.3399 933.2768,-527.2089 922.8369,-478.169"/>
<polygon fill="#000000" stroke="#000000" points="926.216,-477.2424 920.6073,-468.2539 919.3865,-478.7782 926.216,-477.2424"/>
</g>
<!-- Percona Server 5.1 -->
<g id="node35" class="node">
<title>Percona Server 5.1</title>
<ellipse fill="none" stroke="#ffa500" cx="783.7728" cy="-666" rx="100.1823" ry="18"/>
<text text-anchor="middle" x="783.7728" y="-662.3" font-family="Times,serif" font-size="14.00" fill="#000000">Percona Server 5.1</text>
</g>
<!-- MySQL 5.1&#45;&gt;Percona Server 5.1 -->
<g id="edge52" class="edge">
<title>MySQL 5.1&#45;&gt;Percona Server 5.1</title>
<path fill="none" stroke="#000000" d="M560.1874,-725.6228C603.6331,-714.0372 668.9939,-696.6077 717.842,-683.5815"/>
<polygon fill="#000000" stroke="#000000" points="718.9298,-686.9139 727.6903,-680.9553 717.1261,-680.1502 718.9298,-686.9139"/>
</g>
<!-- MySQL 5.5 -->
<g id="node10" class="node">
<title>MySQL 5.5</title>
<ellipse fill="none" stroke="#ff0000" cx="459.7728" cy="-450" rx="63.8893" ry="18"/>
<text text-anchor="middle" x="459.7728" y="-446.3" font-family="Times,serif" font-size="14.00" fill="#000000">MySQL 5.5</text>
</g>
<!-- MySQL 5.6 -->
<g id="node11" class="node">
<title>MySQL 5.6</title>
<ellipse fill="none" stroke="#ff0000" cx="459.7728" cy="-378" rx="63.8893" ry="18"/>
<text text-anchor="middle" x="459.7728" y="-374.3" font-family="Times,serif" font-size="14.00" fill="#000000">MySQL 5.6</text>
</g>
<!-- MySQL 5.5&#45;&gt;MySQL 5.6 -->
<g id="edge9" class="edge">
<title>MySQL 5.5&#45;&gt;MySQL 5.6</title>
<path fill="none" stroke="#000000" d="M459.7728,-431.8314C459.7728,-424.131 459.7728,-414.9743 459.7728,-406.4166"/>
<polygon fill="#000000" stroke="#000000" points="463.2729,-406.4132 459.7728,-396.4133 456.2729,-406.4133 463.2729,-406.4132"/>
</g>
<!-- MySQL Cluster 7.2 -->
<g id="node22" class="node">
<title>MySQL Cluster 7.2</title>
<ellipse fill="none" stroke="#cd0000" cx="277.7728" cy="-378" rx="100.9827" ry="18"/>
<text text-anchor="middle" x="277.7728" y="-374.3" font-family="Times,serif" font-size="14.00" fill="#000000">MySQL Cluster 7.2</text>
</g>
<!-- MySQL 5.5&#45;&gt;MySQL Cluster 7.2 -->
<g id="edge25" class="edge">
<title>MySQL 5.5&#45;&gt;MySQL Cluster 7.2</title>
<path fill="none" stroke="#000000" d="M422.5032,-435.256C395.4769,-424.5643 358.5998,-409.9755 328.8343,-398.2002"/>
<polygon fill="#000000" stroke="#000000" points="330.028,-394.9085 319.4416,-394.4844 327.4529,-401.4177 330.028,-394.9085"/>
</g>
<!-- MariaDB 5.5 -->
<g id="node30" class="node">
<title>MariaDB 5.5</title>
<ellipse fill="none" stroke="#0000ff" cx="835.7728" cy="-306" rx="69.5877" ry="18"/>
<text text-anchor="middle" x="835.7728" y="-302.3" font-family="Times,serif" font-size="14.00" fill="#000000">MariaDB 5.5</text>
</g>
<!-- MySQL 5.5&#45;&gt;MariaDB 5.5 -->
<g id="edge41" class="edge">
<title>MySQL 5.5&#45;&gt;MariaDB 5.5</title>
<path fill="none" stroke="#000000" d="M494.7957,-434.8636C537.8249,-416.4399 613.1941,-384.7286 678.7728,-360 713.209,-347.0147 752.3496,-333.5494 782.9357,-323.3132"/>
<polygon fill="#000000" stroke="#000000" points="784.1694,-326.5914 792.5488,-320.1079 781.9552,-319.9508 784.1694,-326.5914"/>
</g>
<!-- Percona Server 5.5 -->
<g id="node36" class="node">
<title>Percona Server 5.5</title>
<ellipse fill="none" stroke="#ffa500" cx="787.7728" cy="-378" rx="100.1823" ry="18"/>
<text text-anchor="middle" x="787.7728" y="-374.3" font-family="Times,serif" font-size="14.00" fill="#000000">Percona Server 5.5</text>
</g>
<!-- MySQL 5.5&#45;&gt;Percona Server 5.5 -->
<g id="edge54" class="edge">
<title>MySQL 5.5&#45;&gt;Percona Server 5.5</title>
<path fill="none" stroke="#000000" d="M507.6251,-437.9607C515.9957,-435.9234 524.6297,-433.8656 532.7728,-432 592.5277,-418.3099 660.4477,-403.9873 711.1582,-393.5352"/>
<polygon fill="#000000" stroke="#000000" points="711.9737,-396.9408 721.0634,-391.4977 710.5632,-390.0844 711.9737,-396.9408"/>
</g>
<!-- MySQL 5.7 -->
<g id="node12" class="node">
<title>MySQL 5.7</title>
<ellipse fill="none" stroke="#ff0000" cx="459.7728" cy="-306" rx="63.8893" ry="18"/>
<text text-anchor="middle" x="459.7728" y="-302.3" font-family="Times,serif" font-size="14.00" fill="#000000">MySQL 5.7</text>
</g>
<!-- MySQL 5.6&#45;&gt;MySQL 5.7 -->
<g id="edge10" class="edge">
<title>MySQL 5.6&#45;&gt;MySQL 5.7</title>
<path fill="none" stroke="#000000" d="M459.7728,-359.8314C459.7728,-352.131 459.7728,-342.9743 459.7728,-334.4166"/>
<polygon fill="#000000" stroke="#000000" points="463.2729,-334.4132 459.7728,-324.4133 456.2729,-334.4133 463.2729,-334.4132"/>
</g>
<!-- MySQL Cluster 7.3 -->
<g id="node23" class="node">
<title>MySQL Cluster 7.3</title>
<ellipse fill="none" stroke="#cd0000" cx="277.7728" cy="-306" rx="100.9827" ry="18"/>
<text text-anchor="middle" x="277.7728" y="-302.3" font-family="Times,serif" font-size="14.00" fill="#000000">MySQL Cluster 7.3</text>
</g>
<!-- MySQL 5.6&#45;&gt;MySQL Cluster 7.3 -->
<g id="edge27" class="edge">
<title>MySQL 5.6&#45;&gt;MySQL Cluster 7.3</title>
<path fill="none" stroke="#000000" d="M422.5032,-363.256C395.4769,-352.5643 358.5998,-337.9755 328.8343,-326.2002"/>
<polygon fill="#000000" stroke="#000000" points="330.028,-322.9085 319.4416,-322.4844 327.4529,-329.4177 330.028,-322.9085"/>
</g>
<!-- Percona Server 5.6 -->
<g id="node37" class="node">
<title>Percona Server 5.6</title>
<ellipse fill="none" stroke="#ffa500" cx="647.7728" cy="-306" rx="100.1823" ry="18"/>
<text text-anchor="middle" x="647.7728" y="-302.3" font-family="Times,serif" font-size="14.00" fill="#000000">Percona Server 5.6</text>
</g>
<!-- MySQL 5.6&#45;&gt;Percona Server 5.6 -->
<g id="edge57" class="edge">
<title>MySQL 5.6&#45;&gt;Percona Server 5.6</title>
<path fill="none" stroke="#000000" d="M497.8174,-363.4297C526.0154,-352.6305 564.7756,-337.7861 595.8251,-325.8948"/>
<polygon fill="#000000" stroke="#000000" points="597.1066,-329.152 605.1934,-322.307 594.6031,-322.615 597.1066,-329.152"/>
</g>
<!-- MySQL 8.0 -->
<g id="node16" class="node">
<title>MySQL 8.0</title>
<ellipse fill="none" stroke="#ff0000" stroke-dasharray="5,2" cx="553.7728" cy="-162" rx="63.8893" ry="18"/>
<text text-anchor="middle" x="553.7728" y="-158.3" font-family="Times,serif" font-size="14.00" fill="#000000">MySQL 8.0</text>
</g>
<!-- MySQL 5.7&#45;&gt;MySQL 8.0 -->
<g id="edge16" class="edge">
<title>MySQL 5.7&#45;&gt;MySQL 8.0</title>
<path fill="none" stroke="#000000" stroke-dasharray="5,2" d="M464.4345,-287.9555C469.9114,-268.927 480.2661,-238.6271 495.7728,-216 503.3825,-204.8959 513.6479,-194.3916 523.4273,-185.6507"/>
<polygon fill="#000000" stroke="#000000" points="525.8105,-188.2174 531.106,-179.0409 521.2438,-182.9122 525.8105,-188.2174"/>
</g>
<!-- Percona Server 5.7 -->
<g id="node17" class="node">
<title>Percona Server 5.7</title>
<ellipse fill="none" stroke="#ffa500" cx="604.7728" cy="-234" rx="100.1823" ry="18"/>
<text text-anchor="middle" x="604.7728" y="-230.3" font-family="Times,serif" font-size="14.00" fill="#000000">Percona Server 5.7</text>
</g>
<!-- MySQL 5.7&#45;&gt;Percona Server 5.7 -->
<g id="edge59" class="edge">
<title>MySQL 5.7&#45;&gt;Percona Server 5.7</title>
<path fill="none" stroke="#000000" d="M491.5936,-290.1993C512.1094,-280.0122 539.0506,-266.6345 561.5008,-255.4868"/>
<polygon fill="#000000" stroke="#000000" points="563.0959,-258.6025 570.4959,-251.0202 559.9827,-252.3329 563.0959,-258.6025"/>
</g>
<!-- MySQL Cluster 7.5 -->
<g id="node25" class="node">
<title>MySQL Cluster 7.5</title>
<ellipse fill="none" stroke="#cd0000" cx="290.7728" cy="-162" rx="100.9827" ry="18"/>
<text text-anchor="middle" x="290.7728" y="-158.3" font-family="Times,serif" font-size="14.00" fill="#000000">MySQL Cluster 7.5</text>
</g>
<!-- MySQL 5.7&#45;&gt;MySQL Cluster 7.5 -->
<g id="edge30" class="edge">
<title>MySQL 5.7&#45;&gt;MySQL Cluster 7.5</title>
<path fill="none" stroke="#000000" d="M447.1355,-288.2613C432.7867,-268.9411 407.9511,-237.8772 381.7728,-216 367.3966,-203.9859 350.0326,-192.974 334.343,-184.0726"/>
<polygon fill="#000000" stroke="#000000" points="335.7777,-180.8663 325.3338,-179.0838 332.3866,-186.9901 335.7777,-180.8663"/>
</g>
<!-- MariaDB 10.2 -->
<g id="node33" class="node">
<title>MariaDB 10.2</title>
<ellipse fill="none" stroke="#0000ff" cx="598.7728" cy="-90" rx="75.2868" ry="18"/>
<text text-anchor="middle" x="598.7728" y="-86.3" font-family="Times,serif" font-size="14.00" fill="#000000">MariaDB 10.2</text>
</g>
<!-- MySQL 5.7&#45;&gt;MariaDB 10.2 -->
<g id="edge50" class="edge">
<title>MySQL 5.7&#45;&gt;MariaDB 10.2</title>
<path fill="none" stroke="#c0c0c0" d="M456.8647,-287.8976C452.7182,-255.6004 448.7982,-187.3725 480.7728,-144 493.8717,-126.2317 514.2298,-114.1542 534.3712,-106.0142"/>
<polygon fill="#c0c0c0" stroke="#c0c0c0" points="535.7646,-109.2296 543.8947,-102.436 533.3026,-102.6768 535.7646,-109.2296"/>
</g>
<!-- MySQL 5.4 -->
<g id="node13" class="node">
<title>MySQL 5.4</title>
<ellipse fill="none" stroke="#ff0000" stroke-dasharray="1,5" cx="368.7728" cy="-522" rx="63.8893" ry="18"/>
<text text-anchor="middle" x="368.7728" y="-518.3" font-family="Times,serif" font-size="14.00" fill="#000000">MySQL 5.4</text>
</g>
<!-- MySQL 5.4&#45;&gt;MySQL 5.5 -->
<g id="edge11" class="edge">
<title>MySQL 5.4&#45;&gt;MySQL 5.5</title>
<path fill="none" stroke="#c0c0c0" d="M390.3385,-504.937C402.1518,-495.5902 416.9743,-483.8625 429.8873,-473.6456"/>
<polygon fill="#c0c0c0" stroke="#c0c0c0" points="432.3759,-476.1397 438.0465,-467.19 428.0325,-470.6501 432.3759,-476.1397"/>
</g>
<!-- MySQL 6.0&#45;&gt;MySQL 5.5 -->
<g id="edge12" class="edge">
<title>MySQL 6.0&#45;&gt;MySQL 5.5</title>
<path fill="none" stroke="#c0c0c0" d="M483.3372,-649.9361C469.4618,-640.8334 454.445,-628.0375 446.7728,-612 435.7908,-589.044 446.7391,-518.0086 454.1653,-478.0456"/>
<polygon fill="#c0c0c0" stroke="#c0c0c0" points="457.6204,-478.6114 456.0536,-468.133 450.7441,-477.3014 457.6204,-478.6114"/>
</g>
<!-- Drizzle 7.0 -->
<g id="node39" class="node">
<title>Drizzle 7.0</title>
<ellipse fill="none" stroke="#00008b" cx="516.7728" cy="-594" rx="61.1893" ry="18"/>
<text text-anchor="middle" x="516.7728" y="-590.3" font-family="Times,serif" font-size="14.00" fill="#000000">Drizzle 7.0</text>
</g>
<!-- MySQL 6.0&#45;&gt;Drizzle 7.0 -->
<g id="edge61" class="edge">
<title>MySQL 6.0&#45;&gt;Drizzle 7.0</title>
<path fill="none" stroke="#000000" d="M514.5298,-647.8314C514.8506,-640.131 515.2322,-630.9743 515.5887,-622.4166"/>
<polygon fill="#000000" stroke="#000000" points="519.0861,-622.5503 516.0055,-612.4133 512.0922,-622.2589 519.0861,-622.5503"/>
</g>
<!-- MySQL 5.2&#45;&gt;MySQL 5.4 -->
<g id="edge15" class="edge">
<title>MySQL 5.2&#45;&gt;MySQL 5.4</title>
<path fill="none" stroke="#000000" stroke-dasharray="5,2" d="M368.7728,-647.7623C368.7728,-623.201 368.7728,-579.2474 368.7728,-550.3541"/>
<polygon fill="#000000" stroke="#000000" points="372.2729,-550.0896 368.7728,-540.0896 365.2729,-550.0897 372.2729,-550.0896"/>
</g>
<!-- Percona Server 5.7&#45;&gt;MySQL 8.0 -->
<g id="edge17" class="edge">
<title>Percona Server 5.7&#45;&gt;MySQL 8.0</title>
<path fill="none" stroke="#c0c0c0" d="M591.9033,-215.8314C585.9998,-207.497 578.8879,-197.4567 572.4134,-188.3162"/>
<polygon fill="#c0c0c0" stroke="#c0c0c0" points="575.0977,-186.0506 566.4614,-179.9134 569.3855,-190.0967 575.0977,-186.0506"/>
</g>
<!-- MySQL Cluster 6.2&#45;&gt;MySQL Cluster 6.3 -->
<g id="edge20" class="edge">
<title>MySQL Cluster 6.2&#45;&gt;MySQL Cluster 6.3</title>
<path fill="none" stroke="#000000" d="M142.9783,-647.8314C140.9239,-640.0463 138.4767,-630.7729 136.1972,-622.1347"/>
<polygon fill="#000000" stroke="#000000" points="139.5676,-621.1892 133.6318,-612.4133 132.7993,-622.9753 139.5676,-621.1892"/>
</g>
<!-- MySQL Cluster 6.3&#45;&gt;MySQL Cluster 7.0 -->
<g id="edge22" class="edge">
<title>MySQL Cluster 6.3&#45;&gt;MySQL Cluster 7.0</title>
<path fill="none" stroke="#000000" d="M128.7728,-575.8314C128.7728,-568.131 128.7728,-558.9743 128.7728,-550.4166"/>
<polygon fill="#000000" stroke="#000000" points="132.2729,-550.4132 128.7728,-540.4133 125.2729,-550.4133 132.2729,-550.4132"/>
</g>
<!-- MySQL Cluster 7.0&#45;&gt;MySQL Cluster 7.1 -->
<g id="edge24" class="edge">
<title>MySQL Cluster 7.0&#45;&gt;MySQL Cluster 7.1</title>
<path fill="none" stroke="#000000" d="M163.8467,-504.937C184.49,-494.8943 210.7833,-482.103 232.8038,-471.3903"/>
<polygon fill="#000000" stroke="#000000" points="234.4894,-474.4626 241.9506,-466.9405 231.4271,-468.1679 234.4894,-474.4626"/>
</g>
<!-- MySQL Cluster 7.1&#45;&gt;MySQL Cluster 7.2 -->
<g id="edge26" class="edge">
<title>MySQL Cluster 7.1&#45;&gt;MySQL Cluster 7.2</title>
<path fill="none" stroke="#000000" d="M277.0251,-431.8314C277.1321,-424.131 277.2592,-414.9743 277.3781,-406.4166"/>
<polygon fill="#000000" stroke="#000000" points="280.8777,-406.4609 277.517,-396.4133 273.8784,-406.3637 280.8777,-406.4609"/>
</g>
<!-- MySQL Cluster 7.2&#45;&gt;MySQL Cluster 7.3 -->
<g id="edge28" class="edge">
<title>MySQL Cluster 7.2&#45;&gt;MySQL Cluster 7.3</title>
<path fill="none" stroke="#000000" d="M277.7728,-359.8314C277.7728,-352.131 277.7728,-342.9743 277.7728,-334.4166"/>
<polygon fill="#000000" stroke="#000000" points="281.2729,-334.4132 277.7728,-324.4133 274.2729,-334.4133 281.2729,-334.4132"/>
</g>
<!-- MySQL Cluster 7.4 -->
<g id="node24" class="node">
<title>MySQL Cluster 7.4</title>
<ellipse fill="none" stroke="#cd0000" cx="271.7728" cy="-234" rx="100.9827" ry="18"/>
<text text-anchor="middle" x="271.7728" y="-230.3" font-family="Times,serif" font-size="14.00" fill="#000000">MySQL Cluster 7.4</text>
</g>
<!-- MySQL Cluster 7.3&#45;&gt;MySQL Cluster 7.4 -->
<g id="edge29" class="edge">
<title>MySQL Cluster 7.3&#45;&gt;MySQL Cluster 7.4</title>
<path fill="none" stroke="#000000" d="M276.2587,-287.8314C275.617,-280.131 274.854,-270.9743 274.1408,-262.4166"/>
<polygon fill="#000000" stroke="#000000" points="277.6257,-262.088 273.3072,-252.4133 270.6498,-262.6694 277.6257,-262.088"/>
</g>
<!-- MySQL Cluster 7.4&#45;&gt;MySQL Cluster 7.5 -->
<g id="edge31" class="edge">
<title>MySQL Cluster 7.4&#45;&gt;MySQL Cluster 7.5</title>
<path fill="none" stroke="#000000" d="M276.5673,-215.8314C278.6216,-208.0463 281.0688,-198.7729 283.3483,-190.1347"/>
<polygon fill="#000000" stroke="#000000" points="286.7462,-190.9753 285.9137,-180.4133 279.9779,-189.1892 286.7462,-190.9753"/>
</g>
<!-- MySQL Cluster 7.6 -->
<g id="node26" class="node">
<title>MySQL Cluster 7.6</title>
<ellipse fill="none" stroke="#cd0000" stroke-dasharray="5,2" cx="290.7728" cy="-90" rx="100.9827" ry="18"/>
<text text-anchor="middle" x="290.7728" y="-86.3" font-family="Times,serif" font-size="14.00" fill="#000000">MySQL Cluster 7.6</text>
</g>
<!-- MySQL Cluster 7.5&#45;&gt;MySQL Cluster 7.6 -->
<g id="edge32" class="edge">
<title>MySQL Cluster 7.5&#45;&gt;MySQL Cluster 7.6</title>
<path fill="none" stroke="#000000" stroke-dasharray="5,2" d="M290.7728,-143.8314C290.7728,-136.131 290.7728,-126.9743 290.7728,-118.4166"/>
<polygon fill="#000000" stroke="#000000" points="294.2729,-118.4132 290.7728,-108.4133 287.2729,-118.4133 294.2729,-118.4132"/>
</g>
<!-- MariaDB 5.1&#45;&gt;MariaDB 5.2 -->
<g id="edge36" class="edge">
<title>MariaDB 5.1&#45;&gt;MariaDB 5.2</title>
<path fill="none" stroke="#000000" d="M709.3243,-575.8314C711.703,-568.0463 714.5366,-558.7729 717.176,-550.1347"/>
<polygon fill="#000000" stroke="#000000" points="720.5715,-550.9996 720.1465,-540.4133 713.877,-548.954 720.5715,-550.9996"/>
</g>
<!-- MariaDB 5.2&#45;&gt;MariaDB 5.3 -->
<g id="edge39" class="edge">
<title>MariaDB 5.2&#45;&gt;MariaDB 5.3</title>
<path fill="none" stroke="#000000" d="M765.1409,-507.0816C794.6925,-495.883 835.3332,-480.4824 866.9537,-468.4999"/>
<polygon fill="#000000" stroke="#000000" points="868.3442,-471.7159 876.4551,-464.8993 865.8637,-465.1701 868.3442,-471.7159"/>
</g>
<!-- MariaDB 5.3&#45;&gt;MariaDB 5.5 -->
<g id="edge42" class="edge">
<title>MariaDB 5.3&#45;&gt;MariaDB 5.5</title>
<path fill="none" stroke="#000000" d="M915.2565,-431.9039C913.9895,-412.8322 909.8672,-382.4967 896.7728,-360 889.9796,-348.3291 879.7687,-337.8525 869.6343,-329.3027"/>
<polygon fill="#000000" stroke="#000000" points="871.5866,-326.3825 861.5898,-322.873 867.2161,-331.8506 871.5866,-326.3825"/>
</g>
<!-- MariaDB 5.3&#45;&gt;Percona Server 5.5 -->
<g id="edge56" class="edge">
<title>MariaDB 5.3&#45;&gt;Percona Server 5.5</title>
<path fill="none" stroke="#c0c0c0" d="M886.407,-433.4817C868.8209,-423.5896 846.2422,-410.8891 827.1261,-400.1362"/>
<polygon fill="#c0c0c0" stroke="#c0c0c0" points="828.7696,-397.045 818.3379,-395.1929 825.3377,-403.1461 828.7696,-397.045"/>
</g>
<!-- MariaDB 10.0 -->
<g id="node31" class="node">
<title>MariaDB 10.0</title>
<ellipse fill="none" stroke="#0000ff" cx="835.7728" cy="-234" rx="75.2868" ry="18"/>
<text text-anchor="middle" x="835.7728" y="-230.3" font-family="Times,serif" font-size="14.00" fill="#000000">MariaDB 10.0</text>
</g>
<!-- MariaDB 5.5&#45;&gt;MariaDB 10.0 -->
<g id="edge44" class="edge">
<title>MariaDB 5.5&#45;&gt;MariaDB 10.0</title>
<path fill="none" stroke="#000000" d="M835.7728,-287.8314C835.7728,-280.131 835.7728,-270.9743 835.7728,-262.4166"/>
<polygon fill="#000000" stroke="#000000" points="839.2729,-262.4132 835.7728,-252.4133 832.2729,-262.4133 839.2729,-262.4132"/>
</g>
<!-- MariaDB 10.1 -->
<g id="node32" class="node">
<title>MariaDB 10.1</title>
<ellipse fill="none" stroke="#0000ff" cx="732.7728" cy="-162" rx="75.2868" ry="18"/>
<text text-anchor="middle" x="732.7728" y="-158.3" font-family="Times,serif" font-size="14.00" fill="#000000">MariaDB 10.1</text>
</g>
<!-- MariaDB 10.0&#45;&gt;MariaDB 10.1 -->
<g id="edge45" class="edge">
<title>MariaDB 10.0&#45;&gt;MariaDB 10.1</title>
<path fill="none" stroke="#000000" d="M811.3632,-216.937C797.7374,-207.4122 780.5746,-195.4149 765.7663,-185.0635"/>
<polygon fill="#000000" stroke="#000000" points="767.5654,-182.0507 757.3641,-179.19 763.5549,-187.788 767.5654,-182.0507"/>
</g>
<!-- MariaDB 10.1&#45;&gt;MariaDB 10.2 -->
<g id="edge47" class="edge">
<title>MariaDB 10.1&#45;&gt;MariaDB 10.2</title>
<path fill="none" stroke="#000000" d="M702.0305,-145.4817C683.2687,-135.4008 659.0789,-122.4033 638.8291,-111.5228"/>
<polygon fill="#000000" stroke="#000000" points="640.3016,-108.3408 629.836,-106.6907 636.9884,-114.5071 640.3016,-108.3408"/>
</g>
<!-- MariaDB 10.3 -->
<g id="node34" class="node">
<title>MariaDB 10.3</title>
<ellipse fill="none" stroke="#0000ff" stroke-dasharray="5,2" cx="598.7728" cy="-18" rx="75.2868" ry="18"/>
<text text-anchor="middle" x="598.7728" y="-14.3" font-family="Times,serif" font-size="14.00" fill="#000000">MariaDB 10.3</text>
</g>
<!-- MariaDB 10.2&#45;&gt;MariaDB 10.3 -->
<g id="edge49" class="edge">
<title>MariaDB 10.2&#45;&gt;MariaDB 10.3</title>
<path fill="none" stroke="#000000" stroke-dasharray="5,2" d="M598.7728,-71.8314C598.7728,-64.131 598.7728,-54.9743 598.7728,-46.4166"/>
<polygon fill="#000000" stroke="#000000" points="602.2729,-46.4132 598.7728,-36.4133 595.2729,-46.4133 602.2729,-46.4132"/>
</g>
<!-- Percona Server 5.1&#45;&gt;MariaDB 5.1 -->
<g id="edge34" class="edge">
<title>Percona Server 5.1&#45;&gt;MariaDB 5.1</title>
<path fill="none" stroke="#c0c0c0" d="M763.9975,-648.2022C753.9446,-639.1546 741.5788,-628.0255 730.6734,-618.2105"/>
<polygon fill="#c0c0c0" stroke="#c0c0c0" points="732.8189,-615.4327 723.0445,-611.3446 728.1361,-620.6358 732.8189,-615.4327"/>
</g>
<!-- Percona Server 5.1&#45;&gt;MariaDB 5.2 -->
<g id="edge37" class="edge">
<title>Percona Server 5.1&#45;&gt;MariaDB 5.2</title>
<path fill="none" stroke="#c0c0c0" d="M787.5652,-647.8912C790.6134,-629.0768 792.9041,-599.1982 782.7728,-576 777.658,-564.2886 768.6452,-553.9129 759.2751,-545.4653"/>
<polygon fill="#c0c0c0" stroke="#c0c0c0" points="761.3028,-542.5972 751.3981,-538.8357 756.7953,-547.9528 761.3028,-542.5972"/>
</g>
<!-- Percona Server 5.1&#45;&gt;MariaDB 5.3 -->
<g id="edge40" class="edge">
<title>Percona Server 5.1&#45;&gt;MariaDB 5.3</title>
<path fill="none" stroke="#c0c0c0" d="M813.0912,-648.7477C826.9785,-639.353 842.8706,-626.6543 853.7728,-612 870.0603,-590.1067 894.358,-518.0265 907.1627,-477.7864"/>
<polygon fill="#c0c0c0" stroke="#c0c0c0" points="910.5617,-478.6454 910.2325,-468.0557 903.886,-476.5394 910.5617,-478.6454"/>
</g>
<!-- Percona Server 5.1&#45;&gt;Percona Server 5.5 -->
<g id="edge55" class="edge">
<title>Percona Server 5.1&#45;&gt;Percona Server 5.5</title>
<path fill="none" stroke="#000000" d="M790.2661,-647.7466C793.6727,-637.3948 797.5829,-624.1239 799.7728,-612 813.0318,-538.5918 801.1377,-450.281 793.3227,-406.0854"/>
<polygon fill="#000000" stroke="#000000" points="796.7354,-405.2908 791.4892,-396.0861 789.8502,-406.5534 796.7354,-405.2908"/>
</g>
<!-- Percona Server 5.5&#45;&gt;MariaDB 5.5 -->
<g id="edge43" class="edge">
<title>Percona Server 5.5&#45;&gt;MariaDB 5.5</title>
<path fill="none" stroke="#c0c0c0" d="M799.8852,-359.8314C805.4415,-351.497 812.135,-341.4567 818.2286,-332.3162"/>
<polygon fill="#c0c0c0" stroke="#c0c0c0" points="821.1956,-334.1754 823.8305,-323.9134 815.3713,-330.2925 821.1956,-334.1754"/>
</g>
<!-- Percona Server 5.5&#45;&gt;Percona Server 5.6 -->
<g id="edge58" class="edge">
<title>Percona Server 5.5&#45;&gt;Percona Server 5.6</title>
<path fill="none" stroke="#000000" d="M754.5947,-360.937C735.2953,-351.0116 710.7754,-338.4014 690.0965,-327.7665"/>
<polygon fill="#000000" stroke="#000000" points="691.6915,-324.6511 681.1978,-323.19 688.49,-330.8761 691.6915,-324.6511"/>
</g>
<!-- Percona Server 5.6&#45;&gt;Percona Server 5.7 -->
<g id="edge60" class="edge">
<title>Percona Server 5.6&#45;&gt;Percona Server 5.7</title>
<path fill="none" stroke="#000000" d="M636.922,-287.8314C631.9959,-279.5829 626.0718,-269.6635 620.6584,-260.5992"/>
<polygon fill="#000000" stroke="#000000" points="623.6034,-258.7042 615.471,-251.9134 617.5936,-262.2935 623.6034,-258.7042"/>
</g>
<!-- Percona Server 5.6&#45;&gt;MariaDB 10.0 -->
<g id="edge46" class="edge">
<title>Percona Server 5.6&#45;&gt;MariaDB 10.0</title>
<path fill="none" stroke="#c0c0c0" d="M690.4329,-289.6621C718.9776,-278.73 756.6337,-264.3086 786.4638,-252.8843"/>
<polygon fill="#c0c0c0" stroke="#c0c0c0" points="787.7657,-256.1337 795.8525,-249.2886 785.2621,-249.5967 787.7657,-256.1337"/>
</g>
<!-- Percona Server 5.6&#45;&gt;MariaDB 10.1 -->
<g id="edge48" class="edge">
<title>Percona Server 5.6&#45;&gt;MariaDB 10.1</title>
<path fill="none" stroke="#c0c0c0" d="M677.0535,-288.6163C690.2101,-279.3493 704.7698,-266.7982 713.7728,-252 725.1352,-233.3236 729.7787,-208.8858 731.64,-190.1888"/>
<polygon fill="#c0c0c0" stroke="#c0c0c0" points="735.1307,-190.443 732.4286,-180.1985 728.1525,-189.8921 735.1307,-190.443"/>
</g>
<!-- Percona Server 5.0&#45;&gt;Percona Server 5.1 -->
<g id="edge53" class="edge">
<title>Percona Server 5.0&#45;&gt;Percona Server 5.1</title>
<path fill="none" stroke="#000000" d="M752.3711,-719.8314C757.1827,-711.5829 762.969,-701.6635 768.2566,-692.5992"/>
<polygon fill="#000000" stroke="#000000" points="771.3077,-694.3148 773.3233,-683.9134 765.2613,-690.7876 771.3077,-694.3148"/>
</g>
<!-- Drizzle 7.1 -->
<g id="node40" class="node">
<title>Drizzle 7.1</title>
<ellipse fill="none" stroke="#00008b" cx="555.7728" cy="-522" rx="61.1893" ry="18"/>
<text text-anchor="middle" x="555.7728" y="-518.3" font-family="Times,serif" font-size="14.00" fill="#000000">Drizzle 7.1</text>
</g>
<!-- Drizzle 7.0&#45;&gt;Drizzle 7.1 -->
<g id="edge62" class="edge">
<title>Drizzle 7.0&#45;&gt;Drizzle 7.1</title>
<path fill="none" stroke="#000000" d="M526.4132,-576.2022C530.9133,-567.8944 536.364,-557.8316 541.3413,-548.6427"/>
<polygon fill="#000000" stroke="#000000" points="544.4227,-550.3025 546.108,-539.8425 538.2676,-546.9685 544.4227,-550.3025"/>
</g>
<!-- Drizzle 7.2 -->
<g id="node41" class="node">
<title>Drizzle 7.2</title>
<ellipse fill="none" stroke="#00008b" stroke-dasharray="5,2" cx="602.7728" cy="-450" rx="61.1893" ry="18"/>
<text text-anchor="middle" x="602.7728" y="-446.3" font-family="Times,serif" font-size="14.00" fill="#000000">Drizzle 7.2</text>
</g>
<!-- Drizzle 7.1&#45;&gt;Drizzle 7.2 -->
<g id="edge63" class="edge">
<title>Drizzle 7.1&#45;&gt;Drizzle 7.2</title>
<path fill="none" stroke="#000000" stroke-dasharray="5,2" d="M567.3907,-504.2022C572.8704,-495.8079 579.5197,-485.6218 585.5682,-476.3558"/>
<polygon fill="#000000" stroke="#000000" points="588.5901,-478.1295 591.1255,-467.8425 582.7284,-474.3032 588.5901,-478.1295"/>
</g>
</g>
</svg>
