<?xml version="1.0" encoding="UTF-8" standalone="no"?>
<!DOCTYPE svg PUBLIC "-//W3C//DTD SVG 1.1//EN"
 "http://www.w3.org/Graphics/SVG/1.1/DTD/svg11.dtd">
<!-- Generated by graphviz version 2.38.0 (20140413.2041)
 -->
<!-- Title: mysql_history_graph Pages: 1 -->
<svg width="871pt" height="908pt"
 viewBox="0.00 0.00 871.24 908.00" xmlns="http://www.w3.org/2000/svg" xmlns:xlink="http://www.w3.org/1999/xlink">
<g id="graph0" class="graph" transform="scale(1 1) rotate(0) translate(4 904)">
<title>mysql_history_graph</title>
<polygon fill="white" stroke="none" points="-4,4 -4,-904 867.236,-904 867.236,4 -4,4"/>
<!-- MySQL 3.23 -->
<g id="node1" class="node"><title>MySQL 3.23</title>
<ellipse fill="none" stroke="red" cx="605.243" cy="-882" rx="57.6901" ry="18"/>
<text text-anchor="middle" x="605.243" y="-878.3" font-family="Times,serif" font-size="14.00">MySQL 3.23</text>
</g>
<!-- MySQL 4.0 -->
<g id="node2" class="node"><title>MySQL 4.0</title>
<ellipse fill="none" stroke="red" cx="605.243" cy="-810" rx="53.8905" ry="18"/>
<text text-anchor="middle" x="605.243" y="-806.3" font-family="Times,serif" font-size="14.00">MySQL 4.0</text>
</g>
<!-- MySQL 3.23&#45;&gt;MySQL 4.0 -->
<g id="edge1" class="edge"><title>MySQL 3.23&#45;&gt;MySQL 4.0</title>
<path fill="none" stroke="black" d="M605.243,-863.697C605.243,-855.983 605.243,-846.712 605.243,-838.112"/>
<polygon fill="black" stroke="black" points="608.743,-838.104 605.243,-828.104 601.743,-838.104 608.743,-838.104"/>
</g>
<!-- MySQL 4.1 -->
<g id="node3" class="node"><title>MySQL 4.1</title>
<ellipse fill="none" stroke="red" cx="605.243" cy="-738" rx="53.8905" ry="18"/>
<text text-anchor="middle" x="605.243" y="-734.3" font-family="Times,serif" font-size="14.00">MySQL 4.1</text>
</g>
<!-- MySQL 4.0&#45;&gt;MySQL 4.1 -->
<g id="edge2" class="edge"><title>MySQL 4.0&#45;&gt;MySQL 4.1</title>
<path fill="none" stroke="black" d="M605.243,-791.697C605.243,-783.983 605.243,-774.712 605.243,-766.112"/>
<polygon fill="black" stroke="black" points="608.743,-766.104 605.243,-756.104 601.743,-766.104 608.743,-766.104"/>
</g>
<!-- MySQL 5.0 -->
<g id="node4" class="node"><title>MySQL 5.0</title>
<ellipse fill="none" stroke="red" cx="605.243" cy="-666" rx="53.8905" ry="18"/>
<text text-anchor="middle" x="605.243" y="-662.3" font-family="Times,serif" font-size="14.00">MySQL 5.0</text>
</g>
<!-- MySQL 4.1&#45;&gt;MySQL 5.0 -->
<g id="edge3" class="edge"><title>MySQL 4.1&#45;&gt;MySQL 5.0</title>
<path fill="none" stroke="black" d="M605.243,-719.697C605.243,-711.983 605.243,-702.712 605.243,-694.112"/>
<polygon fill="black" stroke="black" points="608.743,-694.104 605.243,-684.104 601.743,-694.104 608.743,-694.104"/>
</g>
<!-- MySQL 5.1 -->
<g id="node5" class="node"><title>MySQL 5.1</title>
<ellipse fill="none" stroke="red" cx="496.243" cy="-594" rx="53.8905" ry="18"/>
<text text-anchor="middle" x="496.243" y="-590.3" font-family="Times,serif" font-size="14.00">MySQL 5.1</text>
</g>
<!-- MySQL 5.0&#45;&gt;MySQL 5.1 -->
<g id="edge4" class="edge"><title>MySQL 5.0&#45;&gt;MySQL 5.1</title>
<path fill="none" stroke="black" d="M581.591,-649.811C566.129,-639.881 545.727,-626.779 528.747,-615.874"/>
<polygon fill="black" stroke="black" points="530.53,-612.86 520.224,-610.401 526.747,-618.75 530.53,-612.86"/>
</g>
<!-- Percona Server 5.0 -->
<g id="node27" class="node"><title>Percona Server 5.0</title>
<ellipse fill="none" stroke="orange" cx="715.243" cy="-594" rx="77.9862" ry="18"/>
<text text-anchor="middle" x="715.243" y="-590.3" font-family="Times,serif" font-size="14.00">Percona Server 5.0</text>
</g>
<!-- MySQL 5.0&#45;&gt;Percona Server 5.0 -->
<g id="edge38" class="edge"><title>MySQL 5.0&#45;&gt;Percona Server 5.0</title>
<path fill="none" stroke="black" d="M629.111,-649.811C644.393,-640.086 664.455,-627.32 681.372,-616.554"/>
<polygon fill="black" stroke="black" points="683.332,-619.455 689.89,-611.134 679.574,-613.55 683.332,-619.455"/>
</g>
<!-- MySQL 6.0 -->
<g id="node9" class="node"><title>MySQL 6.0</title>
<ellipse fill="none" stroke="red" stroke-dasharray="1,5" cx="496.243" cy="-522" rx="53.8905" ry="18"/>
<text text-anchor="middle" x="496.243" y="-518.3" font-family="Times,serif" font-size="14.00">MySQL 6.0</text>
</g>
<!-- MySQL 5.1&#45;&gt;MySQL 6.0 -->
<g id="edge9" class="edge"><title>MySQL 5.1&#45;&gt;MySQL 6.0</title>
<path fill="none" stroke="black" stroke-dasharray="5,2" d="M496.243,-575.697C496.243,-567.983 496.243,-558.712 496.243,-550.112"/>
<polygon fill="black" stroke="black" points="499.743,-550.104 496.243,-540.104 492.743,-550.104 499.743,-550.104"/>
</g>
<!-- MySQL 5.2 -->
<g id="node10" class="node"><title>MySQL 5.2</title>
<ellipse fill="none" stroke="red" stroke-dasharray="1,5" cx="363.243" cy="-522" rx="53.8905" ry="18"/>
<text text-anchor="middle" x="363.243" y="-518.3" font-family="Times,serif" font-size="14.00">MySQL 5.2</text>
</g>
<!-- MySQL 5.1&#45;&gt;MySQL 5.2 -->
<g id="edge8" class="edge"><title>MySQL 5.1&#45;&gt;MySQL 5.2</title>
<path fill="none" stroke="black" stroke-dasharray="5,2" d="M468.685,-578.496C448.712,-567.984 421.503,-553.663 399.728,-542.203"/>
<polygon fill="black" stroke="black" points="401.244,-539.046 390.765,-537.485 397.984,-545.24 401.244,-539.046"/>
</g>
<!-- MySQL Cluster 6.2 -->
<g id="node12" class="node"><title>MySQL Cluster 6.2</title>
<ellipse fill="none" stroke="#cd0000" cx="81.2428" cy="-522" rx="81.4863" ry="18"/>
<text text-anchor="middle" x="81.2428" y="-518.3" font-family="Times,serif" font-size="14.00">MySQL Cluster 6.2</text>
</g>
<!-- MySQL 5.1&#45;&gt;MySQL Cluster 6.2 -->
<g id="edge12" class="edge"><title>MySQL 5.1&#45;&gt;MySQL Cluster 6.2</title>
<path fill="none" stroke="black" d="M448.771,-585.334C386.259,-575.195 272.943,-556.659 176.243,-540 168.378,-538.645 160.151,-537.206 151.968,-535.76"/>
<polygon fill="black" stroke="black" points="152.495,-532.299 142.038,-534 151.273,-539.192 152.495,-532.299"/>
</g>
<!-- MySQL Cluster 6.3 -->
<g id="node13" class="node"><title>MySQL Cluster 6.3</title>
<ellipse fill="none" stroke="#cd0000" cx="119.243" cy="-450" rx="81.4863" ry="18"/>
<text text-anchor="middle" x="119.243" y="-446.3" font-family="Times,serif" font-size="14.00">MySQL Cluster 6.3</text>
</g>
<!-- MySQL 5.1&#45;&gt;MySQL Cluster 6.3 -->
<g id="edge13" class="edge"><title>MySQL 5.1&#45;&gt;MySQL Cluster 6.3</title>
<path fill="none" stroke="black" d="M442.466,-591.762C383.51,-588.445 287.552,-577.173 214.243,-540 205.931,-535.785 168.895,-500.057 143.598,-475.173"/>
<polygon fill="black" stroke="black" points="145.746,-472.375 136.168,-467.845 140.83,-477.359 145.746,-472.375"/>
</g>
<!-- MySQL Cluster 7.0 -->
<g id="node14" class="node"><title>MySQL Cluster 7.0</title>
<ellipse fill="none" stroke="#cd0000" cx="153.243" cy="-378" rx="81.4863" ry="18"/>
<text text-anchor="middle" x="153.243" y="-374.3" font-family="Times,serif" font-size="14.00">MySQL Cluster 7.0</text>
</g>
<!-- MySQL 5.1&#45;&gt;MySQL Cluster 7.0 -->
<g id="edge15" class="edge"><title>MySQL 5.1&#45;&gt;MySQL Cluster 7.0</title>
<path fill="none" stroke="black" d="M445.764,-587.641C383.104,-580.057 280.976,-564.344 252.243,-540 212.824,-506.603 238.24,-474.76 209.243,-432 201.906,-421.181 192.017,-410.904 182.592,-402.329"/>
<polygon fill="black" stroke="black" points="184.679,-399.505 174.849,-395.553 180.069,-404.772 184.679,-399.505"/>
</g>
<!-- MySQL Cluster 7.1 -->
<g id="node15" class="node"><title>MySQL Cluster 7.1</title>
<ellipse fill="none" stroke="#cd0000" cx="246.243" cy="-306" rx="81.4863" ry="18"/>
<text text-anchor="middle" x="246.243" y="-302.3" font-family="Times,serif" font-size="14.00">MySQL Cluster 7.1</text>
</g>
<!-- MySQL 5.1&#45;&gt;MySQL Cluster 7.1 -->
<g id="edge17" class="edge"><title>MySQL 5.1&#45;&gt;MySQL Cluster 7.1</title>
<path fill="none" stroke="black" d="M442.137,-592.841C397.928,-589.716 336.945,-578.062 300.243,-540 245.559,-483.291 242.269,-382.666 244.231,-334.363"/>
<polygon fill="black" stroke="black" points="247.742,-334.241 244.763,-324.073 240.751,-333.879 247.742,-334.241"/>
</g>
<!-- MariaDB 5.1 -->
<g id="node19" class="node"><title>MariaDB 5.1</title>
<ellipse fill="none" stroke="blue" cx="706.243" cy="-450" rx="57.6901" ry="18"/>
<text text-anchor="middle" x="706.243" y="-446.3" font-family="Times,serif" font-size="14.00">MariaDB 5.1</text>
</g>
<!-- MySQL 5.1&#45;&gt;MariaDB 5.1 -->
<g id="edge24" class="edge"><title>MySQL 5.1&#45;&gt;MariaDB 5.1</title>
<path fill="none" stroke="black" d="M538.914,-582.874C567.733,-574.601 605.597,-560.827 634.243,-540 657.801,-522.872 677.983,-496.187 690.933,-476.5"/>
<polygon fill="black" stroke="black" points="693.925,-478.318 696.361,-468.007 688.027,-474.549 693.925,-478.318"/>
</g>
<!-- MariaDB 5.2 -->
<g id="node20" class="node"><title>MariaDB 5.2</title>
<ellipse fill="none" stroke="blue" cx="706.243" cy="-378" rx="57.6901" ry="18"/>
<text text-anchor="middle" x="706.243" y="-374.3" font-family="Times,serif" font-size="14.00">MariaDB 5.2</text>
</g>
<!-- MySQL 5.1&#45;&gt;MariaDB 5.2 -->
<g id="edge26" class="edge"><title>MySQL 5.1&#45;&gt;MariaDB 5.2</title>
<path fill="none" stroke="black" d="M533.161,-580.741C554.058,-572.178 579.318,-558.868 596.243,-540 630.742,-501.541 608.38,-473.433 639.243,-432 648.297,-419.845 660.8,-408.948 672.554,-400.242"/>
<polygon fill="black" stroke="black" points="674.793,-402.946 680.922,-394.304 670.741,-397.237 674.793,-402.946"/>
</g>
<!-- MariaDB 5.3 -->
<g id="node21" class="node"><title>MariaDB 5.3</title>
<ellipse fill="none" stroke="blue" cx="706.243" cy="-306" rx="57.6901" ry="18"/>
<text text-anchor="middle" x="706.243" y="-302.3" font-family="Times,serif" font-size="14.00">MariaDB 5.3</text>
</g>
<!-- MySQL 5.1&#45;&gt;MariaDB 5.3 -->
<g id="edge29" class="edge"><title>MySQL 5.1&#45;&gt;MariaDB 5.3</title>
<path fill="none" stroke="black" d="M519.191,-577.691C532.25,-568.079 548.161,-554.736 559.243,-540 611.862,-470.032 585.575,-429.167 639.243,-360 648.534,-348.025 661.085,-337.165 672.811,-328.438"/>
<polygon fill="black" stroke="black" points="675.05,-331.14 681.146,-322.474 670.977,-325.447 675.05,-331.14"/>
</g>
<!-- Percona Server 5.1 -->
<g id="node25" class="node"><title>Percona Server 5.1</title>
<ellipse fill="none" stroke="orange" cx="785.243" cy="-522" rx="77.9862" ry="18"/>
<text text-anchor="middle" x="785.243" y="-518.3" font-family="Times,serif" font-size="14.00">Percona Server 5.1</text>
</g>
<!-- MySQL 5.1&#45;&gt;Percona Server 5.1 -->
<g id="edge39" class="edge"><title>MySQL 5.1&#45;&gt;Percona Server 5.1</title>
<path fill="none" stroke="black" d="M538.575,-582.746C587.383,-570.925 668.03,-551.391 723.754,-537.894"/>
<polygon fill="black" stroke="black" points="724.614,-541.286 733.509,-535.531 722.966,-534.483 724.614,-541.286"/>
</g>
<!-- MySQL 5.5 -->
<g id="node6" class="node"><title>MySQL 5.5</title>
<ellipse fill="none" stroke="red" cx="399.243" cy="-306" rx="53.8905" ry="18"/>
<text text-anchor="middle" x="399.243" y="-302.3" font-family="Times,serif" font-size="14.00">MySQL 5.5</text>
</g>
<!-- MySQL 5.6 -->
<g id="node7" class="node"><title>MySQL 5.6</title>
<ellipse fill="none" stroke="red" cx="399.243" cy="-234" rx="53.8905" ry="18"/>
<text text-anchor="middle" x="399.243" y="-230.3" font-family="Times,serif" font-size="14.00">MySQL 5.6</text>
</g>
<!-- MySQL 5.5&#45;&gt;MySQL 5.6 -->
<g id="edge5" class="edge"><title>MySQL 5.5&#45;&gt;MySQL 5.6</title>
<path fill="none" stroke="black" d="M399.243,-287.697C399.243,-279.983 399.243,-270.712 399.243,-262.112"/>
<polygon fill="black" stroke="black" points="402.743,-262.104 399.243,-252.104 395.743,-262.104 402.743,-262.104"/>
</g>
<!-- MySQL Cluster 7.2 -->
<g id="node16" class="node"><title>MySQL Cluster 7.2</title>
<ellipse fill="none" stroke="#cd0000" cx="246.243" cy="-234" rx="81.4863" ry="18"/>
<text text-anchor="middle" x="246.243" y="-230.3" font-family="Times,serif" font-size="14.00">MySQL Cluster 7.2</text>
</g>
<!-- MySQL 5.5&#45;&gt;MySQL Cluster 7.2 -->
<g id="edge19" class="edge"><title>MySQL 5.5&#45;&gt;MySQL Cluster 7.2</title>
<path fill="none" stroke="black" d="M368.649,-291.003C345.915,-280.601 314.597,-266.273 289.331,-254.714"/>
<polygon fill="black" stroke="black" points="290.524,-251.411 279.975,-250.433 287.612,-257.776 290.524,-251.411"/>
</g>
<!-- MariaDB 5.5 -->
<g id="node22" class="node"><title>MariaDB 5.5</title>
<ellipse fill="none" stroke="blue" cx="741.243" cy="-162" rx="57.6901" ry="18"/>
<text text-anchor="middle" x="741.243" y="-158.3" font-family="Times,serif" font-size="14.00">MariaDB 5.5</text>
</g>
<!-- MySQL 5.5&#45;&gt;MariaDB 5.5 -->
<g id="edge32" class="edge"><title>MySQL 5.5&#45;&gt;MariaDB 5.5</title>
<path fill="none" stroke="black" d="M422.624,-289.659C452.891,-270.336 507.753,-237.115 558.243,-216 599.664,-198.678 648.609,-184.824 685.453,-175.631"/>
<polygon fill="black" stroke="black" points="686.631,-178.946 695.508,-173.163 684.962,-172.148 686.631,-178.946"/>
</g>
<!-- Percona Server 5.5 -->
<g id="node26" class="node"><title>Percona Server 5.5</title>
<ellipse fill="none" stroke="orange" cx="645.243" cy="-234" rx="77.9862" ry="18"/>
<text text-anchor="middle" x="645.243" y="-230.3" font-family="Times,serif" font-size="14.00">Percona Server 5.5</text>
</g>
<!-- MySQL 5.5&#45;&gt;Percona Server 5.5 -->
<g id="edge41" class="edge"><title>MySQL 5.5&#45;&gt;Percona Server 5.5</title>
<path fill="none" stroke="black" d="M439.04,-293.675C479.454,-282.176 542.426,-264.257 588.152,-251.245"/>
<polygon fill="black" stroke="black" points="589.263,-254.568 597.924,-248.465 587.347,-247.835 589.263,-254.568"/>
</g>
<!-- MySQL 5.7 -->
<g id="node11" class="node"><title>MySQL 5.7</title>
<ellipse fill="none" stroke="red" stroke-dasharray="1,5" cx="399.243" cy="-162" rx="53.8905" ry="18"/>
<text text-anchor="middle" x="399.243" y="-158.3" font-family="Times,serif" font-size="14.00">MySQL 5.7</text>
</g>
<!-- MySQL 5.6&#45;&gt;MySQL 5.7 -->
<g id="edge11" class="edge"><title>MySQL 5.6&#45;&gt;MySQL 5.7</title>
<path fill="none" stroke="black" stroke-dasharray="5,2" d="M399.243,-215.697C399.243,-207.983 399.243,-198.712 399.243,-190.112"/>
<polygon fill="black" stroke="black" points="402.743,-190.104 399.243,-180.104 395.743,-190.104 402.743,-190.104"/>
</g>
<!-- MySQL Cluster 7.3 -->
<g id="node17" class="node"><title>MySQL Cluster 7.3</title>
<ellipse fill="none" stroke="#cd0000" cx="246.243" cy="-162" rx="81.4863" ry="18"/>
<text text-anchor="middle" x="246.243" y="-158.3" font-family="Times,serif" font-size="14.00">MySQL Cluster 7.3</text>
</g>
<!-- MySQL 5.6&#45;&gt;MySQL Cluster 7.3 -->
<g id="edge21" class="edge"><title>MySQL 5.6&#45;&gt;MySQL Cluster 7.3</title>
<path fill="none" stroke="black" d="M368.649,-219.003C345.915,-208.601 314.597,-194.273 289.331,-182.714"/>
<polygon fill="black" stroke="black" points="290.524,-179.411 279.975,-178.433 287.612,-185.776 290.524,-179.411"/>
</g>
<!-- Percona Server 5.6 -->
<g id="node28" class="node"><title>Percona Server 5.6</title>
<ellipse fill="none" stroke="orange" cx="549.243" cy="-162" rx="77.9862" ry="18"/>
<text text-anchor="middle" x="549.243" y="-158.3" font-family="Times,serif" font-size="14.00">Percona Server 5.6</text>
</g>
<!-- MySQL 5.6&#45;&gt;Percona Server 5.6 -->
<g id="edge44" class="edge"><title>MySQL 5.6&#45;&gt;Percona Server 5.6</title>
<path fill="none" stroke="black" d="M429.237,-219.003C451.525,-208.601 482.229,-194.273 506.999,-182.714"/>
<polygon fill="black" stroke="black" points="508.591,-185.833 516.172,-178.433 505.63,-179.49 508.591,-185.833"/>
</g>
<!-- MySQL 5.4 -->
<g id="node8" class="node"><title>MySQL 5.4</title>
<ellipse fill="none" stroke="red" stroke-dasharray="1,5" cx="344.243" cy="-378" rx="53.8905" ry="18"/>
<text text-anchor="middle" x="344.243" y="-374.3" font-family="Times,serif" font-size="14.00">MySQL 5.4</text>
</g>
<!-- MySQL 5.4&#45;&gt;MySQL 5.5 -->
<g id="edge6" class="edge"><title>MySQL 5.4&#45;&gt;MySQL 5.5</title>
<path fill="none" stroke="grey" d="M357.277,-360.411C363.96,-351.906 372.236,-341.372 379.668,-331.914"/>
<polygon fill="grey" stroke="grey" points="382.494,-333.982 385.92,-323.956 376.99,-329.657 382.494,-333.982"/>
</g>
<!-- MySQL 6.0&#45;&gt;MySQL 5.5 -->
<g id="edge7" class="edge"><title>MySQL 6.0&#45;&gt;MySQL 5.5</title>
<path fill="none" stroke="grey" d="M476.858,-505.125C466.146,-495.416 453.396,-482.166 445.243,-468 420.382,-424.804 408.189,-367.256 402.846,-333.952"/>
<polygon fill="grey" stroke="grey" points="406.303,-333.403 401.345,-324.04 399.382,-334.452 406.303,-333.403"/>
</g>
<!-- Drizzle 7.0 -->
<g id="node29" class="node"><title>Drizzle 7.0</title>
<ellipse fill="none" stroke="#00008b" cx="504.243" cy="-450" rx="50.0912" ry="18"/>
<text text-anchor="middle" x="504.243" y="-446.3" font-family="Times,serif" font-size="14.00">Drizzle 7.0</text>
</g>
<!-- MySQL 6.0&#45;&gt;Drizzle 7.0 -->
<g id="edge46" class="edge"><title>MySQL 6.0&#45;&gt;Drizzle 7.0</title>
<path fill="none" stroke="black" d="M498.22,-503.697C499.102,-495.983 500.161,-486.712 501.144,-478.112"/>
<polygon fill="black" stroke="black" points="504.63,-478.437 502.288,-468.104 497.675,-477.642 504.63,-478.437"/>
</g>
<!-- MySQL 5.2&#45;&gt;MySQL 5.4 -->
<g id="edge10" class="edge"><title>MySQL 5.2&#45;&gt;MySQL 5.4</title>
<path fill="none" stroke="black" stroke-dasharray="5,2" d="M360.951,-503.871C357.713,-479.67 351.764,-435.211 347.908,-406.393"/>
<polygon fill="black" stroke="black" points="351.338,-405.637 346.543,-396.189 344.4,-406.565 351.338,-405.637"/>
</g>
<!-- MySQL Cluster 6.2&#45;&gt;MySQL Cluster 6.3 -->
<g id="edge14" class="edge"><title>MySQL Cluster 6.2&#45;&gt;MySQL Cluster 6.3</title>
<path fill="none" stroke="black" d="M90.4415,-504.055C94.8106,-496.007 100.132,-486.205 105.006,-477.226"/>
<polygon fill="black" stroke="black" points="108.17,-478.734 109.865,-468.275 102.018,-475.394 108.17,-478.734"/>
</g>
<!-- MySQL Cluster 6.3&#45;&gt;MySQL Cluster 7.0 -->
<g id="edge16" class="edge"><title>MySQL Cluster 6.3&#45;&gt;MySQL Cluster 7.0</title>
<path fill="none" stroke="black" d="M127.473,-432.055C131.341,-424.091 136.043,-414.411 140.367,-405.51"/>
<polygon fill="black" stroke="black" points="143.631,-406.8 144.852,-396.275 137.335,-403.741 143.631,-406.8"/>
</g>
<!-- MySQL Cluster 7.0&#45;&gt;MySQL Cluster 7.1 -->
<g id="edge18" class="edge"><title>MySQL Cluster 7.0&#45;&gt;MySQL Cluster 7.1</title>
<path fill="none" stroke="black" d="M175.282,-360.411C187.559,-351.17 203.016,-339.536 216.368,-329.487"/>
<polygon fill="black" stroke="black" points="218.476,-332.28 224.361,-323.47 214.267,-326.687 218.476,-332.28"/>
</g>
<!-- MySQL Cluster 7.1&#45;&gt;MySQL Cluster 7.2 -->
<g id="edge20" class="edge"><title>MySQL Cluster 7.1&#45;&gt;MySQL Cluster 7.2</title>
<path fill="none" stroke="black" d="M246.243,-287.697C246.243,-279.983 246.243,-270.712 246.243,-262.112"/>
<polygon fill="black" stroke="black" points="249.743,-262.104 246.243,-252.104 242.743,-262.104 249.743,-262.104"/>
</g>
<!-- MySQL Cluster 7.2&#45;&gt;MySQL Cluster 7.3 -->
<g id="edge22" class="edge"><title>MySQL Cluster 7.2&#45;&gt;MySQL Cluster 7.3</title>
<path fill="none" stroke="black" d="M246.243,-215.697C246.243,-207.983 246.243,-198.712 246.243,-190.112"/>
<polygon fill="black" stroke="black" points="249.743,-190.104 246.243,-180.104 242.743,-190.104 249.743,-190.104"/>
</g>
<!-- MySQL Cluster 7.4 -->
<g id="node18" class="node"><title>MySQL Cluster 7.4</title>
<ellipse fill="none" stroke="#cd0000" stroke-dasharray="5,2" cx="246.243" cy="-90" rx="81.4863" ry="18"/>
<text text-anchor="middle" x="246.243" y="-86.3" font-family="Times,serif" font-size="14.00">MySQL Cluster 7.4</text>
</g>
<!-- MySQL Cluster 7.3&#45;&gt;MySQL Cluster 7.4 -->
<g id="edge23" class="edge"><title>MySQL Cluster 7.3&#45;&gt;MySQL Cluster 7.4</title>
<path fill="none" stroke="black" stroke-dasharray="1,5" d="M246.243,-143.697C246.243,-135.983 246.243,-126.712 246.243,-118.112"/>
<polygon fill="black" stroke="black" points="249.743,-118.104 246.243,-108.104 242.743,-118.104 249.743,-118.104"/>
</g>
<!-- MariaDB 5.1&#45;&gt;MariaDB 5.2 -->
<g id="edge27" class="edge"><title>MariaDB 5.1&#45;&gt;MariaDB 5.2</title>
<path fill="none" stroke="black" d="M706.243,-431.697C706.243,-423.983 706.243,-414.712 706.243,-406.112"/>
<polygon fill="black" stroke="black" points="709.743,-406.104 706.243,-396.104 702.743,-406.104 709.743,-406.104"/>
</g>
<!-- MariaDB 5.2&#45;&gt;MariaDB 5.3 -->
<g id="edge30" class="edge"><title>MariaDB 5.2&#45;&gt;MariaDB 5.3</title>
<path fill="none" stroke="black" d="M706.243,-359.697C706.243,-351.983 706.243,-342.712 706.243,-334.112"/>
<polygon fill="black" stroke="black" points="709.743,-334.104 706.243,-324.104 702.743,-334.104 709.743,-334.104"/>
</g>
<!-- MariaDB 5.3&#45;&gt;MariaDB 5.5 -->
<g id="edge33" class="edge"><title>MariaDB 5.3&#45;&gt;MariaDB 5.5</title>
<path fill="none" stroke="black" d="M716.539,-287.96C722.137,-277.863 728.637,-264.613 732.243,-252 738.032,-231.749 740.213,-207.976 740.984,-190.097"/>
<polygon fill="black" stroke="black" points="744.484,-190.171 741.297,-180.067 737.487,-189.952 744.484,-190.171"/>
</g>
<!-- MariaDB 5.3&#45;&gt;Percona Server 5.5 -->
<g id="edge43" class="edge"><title>MariaDB 5.3&#45;&gt;Percona Server 5.5</title>
<path fill="none" stroke="grey" d="M691.787,-288.411C684.3,-279.82 675.01,-269.159 666.704,-259.627"/>
<polygon fill="grey" stroke="grey" points="669.227,-257.196 660.019,-251.956 663.95,-261.795 669.227,-257.196"/>
</g>
<!-- MariaDB 10.0 -->
<g id="node23" class="node"><title>MariaDB 10.0</title>
<ellipse fill="none" stroke="blue" cx="698.243" cy="-90" rx="62.2891" ry="18"/>
<text text-anchor="middle" x="698.243" y="-86.3" font-family="Times,serif" font-size="14.00">MariaDB 10.0</text>
</g>
<!-- MariaDB 5.5&#45;&gt;MariaDB 10.0 -->
<g id="edge35" class="edge"><title>MariaDB 5.5&#45;&gt;MariaDB 10.0</title>
<path fill="none" stroke="black" stroke-dasharray="5,2" d="M730.834,-144.055C725.763,-135.801 719.559,-125.701 713.93,-116.538"/>
<polygon fill="black" stroke="black" points="716.773,-114.478 708.556,-107.789 710.808,-118.142 716.773,-114.478"/>
</g>
<!-- MariaDB 10.1 -->
<g id="node24" class="node"><title>MariaDB 10.1</title>
<ellipse fill="none" stroke="blue" stroke-dasharray="1,5" cx="698.243" cy="-18" rx="62.2891" ry="18"/>
<text text-anchor="middle" x="698.243" y="-14.3" font-family="Times,serif" font-size="14.00">MariaDB 10.1</text>
</g>
<!-- MariaDB 10.0&#45;&gt;MariaDB 10.1 -->
<g id="edge37" class="edge"><title>MariaDB 10.0&#45;&gt;MariaDB 10.1</title>
<path fill="none" stroke="grey" stroke-dasharray="1,5" d="M698.243,-71.6966C698.243,-63.9827 698.243,-54.7125 698.243,-46.1124"/>
<polygon fill="grey" stroke="grey" points="701.743,-46.1043 698.243,-36.1043 694.743,-46.1044 701.743,-46.1043"/>
</g>
<!-- Percona Server 5.1&#45;&gt;MariaDB 5.1 -->
<g id="edge25" class="edge"><title>Percona Server 5.1&#45;&gt;MariaDB 5.1</title>
<path fill="none" stroke="grey" d="M766.521,-504.411C756.314,-495.367 743.519,-484.03 732.346,-474.13"/>
<polygon fill="grey" stroke="grey" points="734.364,-471.241 724.558,-467.228 729.721,-476.48 734.364,-471.241"/>
</g>
<!-- Percona Server 5.1&#45;&gt;MariaDB 5.2 -->
<g id="edge28" class="edge"><title>Percona Server 5.1&#45;&gt;MariaDB 5.2</title>
<path fill="none" stroke="grey" d="M786.599,-503.731C787.28,-484.864 785.976,-454.353 773.243,-432 765.918,-419.141 754.125,-408.254 742.459,-399.756"/>
<polygon fill="grey" stroke="grey" points="744.28,-396.761 734.052,-393.996 740.323,-402.536 744.28,-396.761"/>
</g>
<!-- Percona Server 5.1&#45;&gt;MariaDB 5.3 -->
<g id="edge31" class="edge"><title>Percona Server 5.1&#45;&gt;MariaDB 5.3</title>
<path fill="none" stroke="grey" d="M789.043,-503.758C794.963,-472.268 802.86,-404.596 773.243,-360 764.923,-347.473 752.684,-336.556 740.935,-327.937"/>
<polygon fill="grey" stroke="grey" points="742.735,-324.925 732.53,-322.078 738.732,-330.668 742.735,-324.925"/>
</g>
<!-- Percona Server 5.1&#45;&gt;Percona Server 5.5 -->
<g id="edge42" class="edge"><title>Percona Server 5.1&#45;&gt;Percona Server 5.5</title>
<path fill="none" stroke="black" d="M795.197,-503.978C800.515,-493.888 806.515,-480.638 809.243,-468 826.457,-388.253 828.096,-348.391 773.243,-288 756.758,-269.851 733.106,-257.752 710.609,-249.763"/>
<polygon fill="black" stroke="black" points="711.655,-246.422 701.062,-246.585 709.444,-253.064 711.655,-246.422"/>
</g>
<!-- Percona Server 5.5&#45;&gt;MariaDB 5.5 -->
<g id="edge34" class="edge"><title>Percona Server 5.5&#45;&gt;MariaDB 5.5</title>
<path fill="none" stroke="grey" d="M667.993,-216.411C680.942,-206.969 697.317,-195.029 711.3,-184.834"/>
<polygon fill="grey" stroke="grey" points="713.626,-187.469 719.644,-178.749 709.502,-181.813 713.626,-187.469"/>
</g>
<!-- Percona Server 5.5&#45;&gt;MariaDB 10.0 -->
<g id="edge36" class="edge"><title>Percona Server 5.5&#45;&gt;MariaDB 10.0</title>
<path fill="none" stroke="grey" d="M650.25,-215.741C655.637,-197.665 664.72,-168.544 674.243,-144 677.694,-135.105 681.865,-125.559 685.756,-117.054"/>
<polygon fill="grey" stroke="grey" points="688.931,-118.525 689.976,-107.982 682.584,-115.573 688.931,-118.525"/>
</g>
<!-- Percona Server 5.5&#45;&gt;Percona Server 5.6 -->
<g id="edge45" class="edge"><title>Percona Server 5.5&#45;&gt;Percona Server 5.6</title>
<path fill="none" stroke="black" d="M622.492,-216.411C609.819,-207.17 593.864,-195.536 580.082,-185.487"/>
<polygon fill="black" stroke="black" points="581.972,-182.534 571.83,-179.47 577.848,-188.19 581.972,-182.534"/>
</g>
<!-- Percona Server 5.0&#45;&gt;Percona Server 5.1 -->
<g id="edge40" class="edge"><title>Percona Server 5.0&#45;&gt;Percona Server 5.1</title>
<path fill="none" stroke="black" d="M731.832,-576.411C740.595,-567.648 751.511,-556.732 761.186,-547.057"/>
<polygon fill="black" stroke="black" points="763.69,-549.502 768.287,-539.956 758.741,-544.552 763.69,-549.502"/>
</g>
<!-- Drizzle 7.1 -->
<g id="node30" class="node"><title>Drizzle 7.1</title>
<ellipse fill="none" stroke="#00008b" cx="504.243" cy="-378" rx="50.0912" ry="18"/>
<text text-anchor="middle" x="504.243" y="-374.3" font-family="Times,serif" font-size="14.00">Drizzle 7.1</text>
</g>
<!-- Drizzle 7.0&#45;&gt;Drizzle 7.1 -->
<g id="edge47" class="edge"><title>Drizzle 7.0&#45;&gt;Drizzle 7.1</title>
<path fill="none" stroke="black" d="M504.243,-431.697C504.243,-423.983 504.243,-414.712 504.243,-406.112"/>
<polygon fill="black" stroke="black" points="507.743,-406.104 504.243,-396.104 500.743,-406.104 507.743,-406.104"/>
</g>
<!-- Drizzle 7.2 -->
<g id="node31" class="node"><title>Drizzle 7.2</title>
<ellipse fill="none" stroke="#00008b" stroke-dasharray="5,2" cx="521.243" cy="-306" rx="50.0912" ry="18"/>
<text text-anchor="middle" x="521.243" y="-302.3" font-family="Times,serif" font-size="14.00">Drizzle 7.2</text>
</g>
<!-- Drizzle 7.1&#45;&gt;Drizzle 7.2 -->
<g id="edge48" class="edge"><title>Drizzle 7.1&#45;&gt;Drizzle 7.2</title>
<path fill="none" stroke="black" stroke-dasharray="5,2" d="M508.358,-360.055C510.251,-352.261 512.543,-342.822 514.666,-334.079"/>
<polygon fill="black" stroke="black" points="518.088,-334.819 517.047,-324.275 511.286,-333.167 518.088,-334.819"/>
</g>
</g>
</svg>
