<?xml version="1.0" encoding="UTF-8" standalone="no"?>
<!DOCTYPE svg PUBLIC "-//W3C//DTD SVG 1.1//EN"
 "http://www.w3.org/Graphics/SVG/1.1/DTD/svg11.dtd">
<!-- Generated by graphviz version 5.0.0 (0)
 -->
<!-- Title: mysql_history_graph Pages: 1 -->
<svg width="970pt" height="2060pt"
 viewBox="0.00 0.00 970.24 2060.00" xmlns="http://www.w3.org/2000/svg" xmlns:xlink="http://www.w3.org/1999/xlink">
<g id="graph0" class="graph" transform="scale(1 1) rotate(0) translate(4 2056)">
<title>mysql_history_graph</title>
<polygon fill="white" stroke="transparent" points="-4,4 -4,-2056 966.24,-2056 966.24,4 -4,4"/>
<!-- MySQL 3.19 -->
<g id="node1" class="node">
<title>MySQL 3.19</title>
<ellipse fill="none" stroke="red" cx="569.35" cy="-2034" rx="57.69" ry="18"/>
<text text-anchor="middle" x="569.35" y="-2030.3" font-family="Times,serif" font-size="14.00">MySQL 3.19</text>
</g>
<!-- MySQL 3.20 -->
<g id="node2" class="node">
<title>MySQL 3.20</title>
<ellipse fill="none" stroke="red" cx="569.35" cy="-1962" rx="57.69" ry="18"/>
<text text-anchor="middle" x="569.35" y="-1958.3" font-family="Times,serif" font-size="14.00">MySQL 3.20</text>
</g>
<!-- MySQL 3.19&#45;&gt;MySQL 3.20 -->
<g id="edge1" class="edge">
<title>MySQL 3.19&#45;&gt;MySQL 3.20</title>
<path fill="none" stroke="black" d="M569.35,-2015.7C569.35,-2007.98 569.35,-1998.71 569.35,-1990.11"/>
<polygon fill="black" stroke="black" points="572.85,-1990.1 569.35,-1980.1 565.85,-1990.1 572.85,-1990.1"/>
</g>
<!-- MySQL 3.21 -->
<g id="node3" class="node">
<title>MySQL 3.21</title>
<ellipse fill="none" stroke="red" cx="569.35" cy="-1890" rx="57.69" ry="18"/>
<text text-anchor="middle" x="569.35" y="-1886.3" font-family="Times,serif" font-size="14.00">MySQL 3.21</text>
</g>
<!-- MySQL 3.20&#45;&gt;MySQL 3.21 -->
<g id="edge2" class="edge">
<title>MySQL 3.20&#45;&gt;MySQL 3.21</title>
<path fill="none" stroke="black" d="M569.35,-1943.7C569.35,-1935.98 569.35,-1926.71 569.35,-1918.11"/>
<polygon fill="black" stroke="black" points="572.85,-1918.1 569.35,-1908.1 565.85,-1918.1 572.85,-1918.1"/>
</g>
<!-- MySQL 3.22 -->
<g id="node4" class="node">
<title>MySQL 3.22</title>
<ellipse fill="none" stroke="red" cx="569.35" cy="-1818" rx="57.69" ry="18"/>
<text text-anchor="middle" x="569.35" y="-1814.3" font-family="Times,serif" font-size="14.00">MySQL 3.22</text>
</g>
<!-- MySQL 3.21&#45;&gt;MySQL 3.22 -->
<g id="edge3" class="edge">
<title>MySQL 3.21&#45;&gt;MySQL 3.22</title>
<path fill="none" stroke="black" d="M569.35,-1871.7C569.35,-1863.98 569.35,-1854.71 569.35,-1846.11"/>
<polygon fill="black" stroke="black" points="572.85,-1846.1 569.35,-1836.1 565.85,-1846.1 572.85,-1846.1"/>
</g>
<!-- MySQL 3.23 -->
<g id="node5" class="node">
<title>MySQL 3.23</title>
<ellipse fill="none" stroke="red" cx="569.35" cy="-1746" rx="57.69" ry="18"/>
<text text-anchor="middle" x="569.35" y="-1742.3" font-family="Times,serif" font-size="14.00">MySQL 3.23</text>
</g>
<!-- MySQL 3.22&#45;&gt;MySQL 3.23 -->
<g id="edge4" class="edge">
<title>MySQL 3.22&#45;&gt;MySQL 3.23</title>
<path fill="none" stroke="black" d="M569.35,-1799.7C569.35,-1791.98 569.35,-1782.71 569.35,-1774.11"/>
<polygon fill="black" stroke="black" points="572.85,-1774.1 569.35,-1764.1 565.85,-1774.1 572.85,-1774.1"/>
</g>
<!-- MySQL 4.0 -->
<g id="node6" class="node">
<title>MySQL 4.0</title>
<ellipse fill="none" stroke="red" cx="569.35" cy="-1674" rx="53.09" ry="18"/>
<text text-anchor="middle" x="569.35" y="-1670.3" font-family="Times,serif" font-size="14.00">MySQL 4.0</text>
</g>
<!-- MySQL 3.23&#45;&gt;MySQL 4.0 -->
<g id="edge5" class="edge">
<title>MySQL 3.23&#45;&gt;MySQL 4.0</title>
<path fill="none" stroke="black" d="M569.35,-1727.7C569.35,-1719.98 569.35,-1710.71 569.35,-1702.11"/>
<polygon fill="black" stroke="black" points="572.85,-1702.1 569.35,-1692.1 565.85,-1702.1 572.85,-1702.1"/>
</g>
<!-- MySQL 4.1 -->
<g id="node7" class="node">
<title>MySQL 4.1</title>
<ellipse fill="none" stroke="red" cx="569.35" cy="-1602" rx="53.09" ry="18"/>
<text text-anchor="middle" x="569.35" y="-1598.3" font-family="Times,serif" font-size="14.00">MySQL 4.1</text>
</g>
<!-- MySQL 4.0&#45;&gt;MySQL 4.1 -->
<g id="edge6" class="edge">
<title>MySQL 4.0&#45;&gt;MySQL 4.1</title>
<path fill="none" stroke="black" d="M569.35,-1655.7C569.35,-1647.98 569.35,-1638.71 569.35,-1630.11"/>
<polygon fill="black" stroke="black" points="572.85,-1630.1 569.35,-1620.1 565.85,-1630.1 572.85,-1630.1"/>
</g>
<!-- MySQL 5.0 -->
<g id="node8" class="node">
<title>MySQL 5.0</title>
<ellipse fill="none" stroke="red" cx="569.35" cy="-1530" rx="53.09" ry="18"/>
<text text-anchor="middle" x="569.35" y="-1526.3" font-family="Times,serif" font-size="14.00">MySQL 5.0</text>
</g>
<!-- MySQL 4.1&#45;&gt;MySQL 5.0 -->
<g id="edge7" class="edge">
<title>MySQL 4.1&#45;&gt;MySQL 5.0</title>
<path fill="none" stroke="black" d="M569.35,-1583.7C569.35,-1575.98 569.35,-1566.71 569.35,-1558.11"/>
<polygon fill="black" stroke="black" points="572.85,-1558.1 569.35,-1548.1 565.85,-1558.1 572.85,-1558.1"/>
</g>
<!-- MySQL 5.1 -->
<g id="node9" class="node">
<title>MySQL 5.1</title>
<ellipse fill="none" stroke="red" cx="495.35" cy="-1458" rx="53.09" ry="18"/>
<text text-anchor="middle" x="495.35" y="-1454.3" font-family="Times,serif" font-size="14.00">MySQL 5.1</text>
</g>
<!-- MySQL 5.0&#45;&gt;MySQL 5.1 -->
<g id="edge8" class="edge">
<title>MySQL 5.0&#45;&gt;MySQL 5.1</title>
<path fill="none" stroke="black" d="M552.18,-1512.76C542.56,-1503.66 530.4,-1492.16 519.8,-1482.13"/>
<polygon fill="black" stroke="black" points="522.09,-1479.48 512.42,-1475.15 517.28,-1484.56 522.09,-1479.48"/>
</g>
<!-- Percona Server 5.0 -->
<g id="node58" class="node">
<title>Percona Server 5.0</title>
<ellipse fill="none" stroke="orange" cx="681.35" cy="-1458" rx="77.99" ry="18"/>
<text text-anchor="middle" x="681.35" y="-1454.3" font-family="Times,serif" font-size="14.00">Percona Server 5.0</text>
</g>
<!-- MySQL 5.0&#45;&gt;Percona Server 5.0 -->
<g id="edge76" class="edge">
<title>MySQL 5.0&#45;&gt;Percona Server 5.0</title>
<path fill="none" stroke="black" d="M593.65,-1513.81C609.21,-1504.09 629.64,-1491.32 646.86,-1480.55"/>
<polygon fill="black" stroke="black" points="648.91,-1483.4 655.53,-1475.13 645.2,-1477.47 648.91,-1483.4"/>
</g>
<!-- MySQL 6.0 -->
<g id="node14" class="node">
<title>MySQL 6.0</title>
<ellipse fill="none" stroke="red" stroke-dasharray="1,5" cx="455.35" cy="-1386" rx="53.09" ry="18"/>
<text text-anchor="middle" x="455.35" y="-1382.3" font-family="Times,serif" font-size="14.00">MySQL 6.0</text>
</g>
<!-- MySQL 5.1&#45;&gt;MySQL 6.0 -->
<g id="edge16" class="edge">
<title>MySQL 5.1&#45;&gt;MySQL 6.0</title>
<path fill="none" stroke="black" stroke-dasharray="5,2" d="M485.66,-1440.05C480.95,-1431.8 475.18,-1421.7 469.94,-1412.54"/>
<polygon fill="black" stroke="black" points="472.94,-1410.73 464.94,-1403.79 466.86,-1414.21 472.94,-1410.73"/>
</g>
<!-- MySQL 5.2 -->
<g id="node17" class="node">
<title>MySQL 5.2</title>
<ellipse fill="none" stroke="red" stroke-dasharray="1,5" cx="330.35" cy="-1386" rx="53.09" ry="18"/>
<text text-anchor="middle" x="330.35" y="-1382.3" font-family="Times,serif" font-size="14.00">MySQL 5.2</text>
</g>
<!-- MySQL 5.1&#45;&gt;MySQL 5.2 -->
<g id="edge15" class="edge">
<title>MySQL 5.1&#45;&gt;MySQL 5.2</title>
<path fill="none" stroke="black" stroke-dasharray="5,2" d="M463.53,-1443.5C437.37,-1432.4 400.09,-1416.59 371.63,-1404.51"/>
<polygon fill="black" stroke="black" points="372.92,-1401.26 362.34,-1400.57 370.18,-1407.7 372.92,-1401.26"/>
</g>
<!-- MySQL Cluster 6.2 -->
<g id="node19" class="node">
<title>MySQL Cluster 6.2</title>
<ellipse fill="none" stroke="#cd0000" cx="177.35" cy="-1386" rx="81.49" ry="18"/>
<text text-anchor="middle" x="177.35" y="-1382.3" font-family="Times,serif" font-size="14.00">MySQL Cluster 6.2</text>
</g>
<!-- MySQL 5.1&#45;&gt;MySQL Cluster 6.2 -->
<g id="edge19" class="edge">
<title>MySQL 5.1&#45;&gt;MySQL Cluster 6.2</title>
<path fill="none" stroke="black" d="M451.8,-1447.41C397.79,-1435.52 305.22,-1415.15 242.68,-1401.38"/>
<polygon fill="black" stroke="black" points="243.43,-1397.96 232.92,-1399.23 241.93,-1404.8 243.43,-1397.96"/>
</g>
<!-- MySQL Cluster 6.3 -->
<g id="node20" class="node">
<title>MySQL Cluster 6.3</title>
<ellipse fill="none" stroke="#cd0000" cx="139.35" cy="-1314" rx="81.49" ry="18"/>
<text text-anchor="middle" x="139.35" y="-1310.3" font-family="Times,serif" font-size="14.00">MySQL Cluster 6.3</text>
</g>
<!-- MySQL 5.1&#45;&gt;MySQL Cluster 6.3 -->
<g id="edge20" class="edge">
<title>MySQL 5.1&#45;&gt;MySQL Cluster 6.3</title>
<path fill="none" stroke="black" d="M443.22,-1454.01C338.5,-1447.48 110.51,-1430.36 87.35,-1404 69.86,-1384.09 90,-1357.44 110.09,-1338.5"/>
<polygon fill="black" stroke="black" points="112.61,-1340.94 117.71,-1331.65 107.93,-1335.73 112.61,-1340.94"/>
</g>
<!-- MySQL Cluster 7.0 -->
<g id="node21" class="node">
<title>MySQL Cluster 7.0</title>
<ellipse fill="none" stroke="#cd0000" cx="120.35" cy="-1242" rx="81.49" ry="18"/>
<text text-anchor="middle" x="120.35" y="-1238.3" font-family="Times,serif" font-size="14.00">MySQL Cluster 7.0</text>
</g>
<!-- MySQL 5.1&#45;&gt;MySQL Cluster 7.0 -->
<g id="edge22" class="edge">
<title>MySQL 5.1&#45;&gt;MySQL Cluster 7.0</title>
<path fill="none" stroke="black" d="M441.97,-1456.84C342.31,-1455.51 132.98,-1447.45 77.35,-1404 38.26,-1373.48 27.12,-1340.33 49.35,-1296 55.84,-1283.05 67.16,-1272.46 78.88,-1264.24"/>
<polygon fill="black" stroke="black" points="80.95,-1267.07 87.42,-1258.68 77.13,-1261.21 80.95,-1267.07"/>
</g>
<!-- MySQL Cluster 7.1 -->
<g id="node22" class="node">
<title>MySQL Cluster 7.1</title>
<ellipse fill="none" stroke="#cd0000" cx="120.35" cy="-1170" rx="81.49" ry="18"/>
<text text-anchor="middle" x="120.35" y="-1166.3" font-family="Times,serif" font-size="14.00">MySQL Cluster 7.1</text>
</g>
<!-- MySQL 5.1&#45;&gt;MySQL Cluster 7.1 -->
<g id="edge24" class="edge">
<title>MySQL 5.1&#45;&gt;MySQL Cluster 7.1</title>
<path fill="none" stroke="black" d="M442.96,-1454.49C329.75,-1448.55 70.19,-1432.01 42.35,-1404 -14.18,-1347.14 -9.44,-1293.61 30.35,-1224 38.77,-1209.27 53.06,-1198.22 67.8,-1190.14"/>
<polygon fill="black" stroke="black" points="69.65,-1193.13 76.99,-1185.48 66.49,-1186.88 69.65,-1193.13"/>
</g>
<!-- MariaDB 5.1 -->
<g id="node27" class="node">
<title>MariaDB 5.1</title>
<ellipse fill="none" stroke="blue" cx="660.35" cy="-1314" rx="57.69" ry="18"/>
<text text-anchor="middle" x="660.35" y="-1310.3" font-family="Times,serif" font-size="14.00">MariaDB 5.1</text>
</g>
<!-- MySQL 5.1&#45;&gt;MariaDB 5.1 -->
<g id="edge34" class="edge">
<title>MySQL 5.1&#45;&gt;MariaDB 5.1</title>
<path fill="none" stroke="black" d="M526.08,-1443.14C545.14,-1433.68 569.51,-1420 588.35,-1404 610.18,-1385.45 630.26,-1359.57 643.63,-1340.49"/>
<polygon fill="black" stroke="black" points="646.69,-1342.22 649.46,-1332 640.92,-1338.26 646.69,-1342.22"/>
</g>
<!-- MariaDB 5.2 -->
<g id="node28" class="node">
<title>MariaDB 5.2</title>
<ellipse fill="none" stroke="blue" cx="660.35" cy="-1242" rx="57.69" ry="18"/>
<text text-anchor="middle" x="660.35" y="-1238.3" font-family="Times,serif" font-size="14.00">MariaDB 5.2</text>
</g>
<!-- MySQL 5.1&#45;&gt;MariaDB 5.2 -->
<g id="edge36" class="edge">
<title>MySQL 5.1&#45;&gt;MariaDB 5.2</title>
<path fill="none" stroke="black" d="M515.48,-1441.3C526.92,-1431.55 540.81,-1418.2 550.35,-1404 579.15,-1361.11 562.48,-1337.43 593.35,-1296 602.4,-1283.84 614.9,-1272.95 626.66,-1264.24"/>
<polygon fill="black" stroke="black" points="628.9,-1266.95 635.03,-1258.3 624.84,-1261.24 628.9,-1266.95"/>
</g>
<!-- MariaDB 5.3 -->
<g id="node29" class="node">
<title>MariaDB 5.3</title>
<ellipse fill="none" stroke="blue" cx="660.35" cy="-1170" rx="57.69" ry="18"/>
<text text-anchor="middle" x="660.35" y="-1166.3" font-family="Times,serif" font-size="14.00">MariaDB 5.3</text>
</g>
<!-- MySQL 5.1&#45;&gt;MariaDB 5.3 -->
<g id="edge39" class="edge">
<title>MySQL 5.1&#45;&gt;MariaDB 5.3</title>
<path fill="none" stroke="black" d="M502.41,-1440.06C524.6,-1386.83 591.57,-1226.33 593.35,-1224 602.52,-1211.93 615.04,-1201.05 626.78,-1192.34"/>
<polygon fill="black" stroke="black" points="629.02,-1195.04 635.14,-1186.39 624.96,-1189.34 629.02,-1195.04"/>
</g>
<!-- Percona Server 5.1 -->
<g id="node44" class="node">
<title>Percona Server 5.1</title>
<ellipse fill="none" stroke="orange" cx="739.35" cy="-1386" rx="77.99" ry="18"/>
<text text-anchor="middle" x="739.35" y="-1382.3" font-family="Times,serif" font-size="14.00">Percona Server 5.1</text>
</g>
<!-- MySQL 5.1&#45;&gt;Percona Server 5.1 -->
<g id="edge77" class="edge">
<title>MySQL 5.1&#45;&gt;Percona Server 5.1</title>
<path fill="none" stroke="black" d="M534.55,-1445.75C574.59,-1434.27 637.14,-1416.32 682.59,-1403.28"/>
<polygon fill="black" stroke="black" points="683.66,-1406.62 692.3,-1400.5 681.73,-1399.89 683.66,-1406.62"/>
</g>
<!-- InfiniDB 1.5 -->
<g id="node47" class="node">
<title>InfiniDB 1.5</title>
<ellipse fill="none" stroke="steelblue" cx="898.35" cy="-1386" rx="55.79" ry="18"/>
<text text-anchor="middle" x="898.35" y="-1382.3" font-family="Times,serif" font-size="14.00">InfiniDB 1.5</text>
</g>
<!-- MySQL 5.1&#45;&gt;InfiniDB 1.5 -->
<g id="edge61" class="edge">
<title>MySQL 5.1&#45;&gt;InfiniDB 1.5</title>
<path fill="none" stroke="black" d="M541.66,-1448.89C558.26,-1446.02 577.14,-1442.81 594.35,-1440 697.33,-1423.17 723.94,-1424 826.35,-1404 832.55,-1402.79 839.03,-1401.41 845.45,-1399.98"/>
<polygon fill="black" stroke="black" points="846.47,-1403.34 855.44,-1397.71 844.92,-1396.52 846.47,-1403.34"/>
</g>
<!-- MySQL 5.5 -->
<g id="node10" class="node">
<title>MySQL 5.5</title>
<ellipse fill="none" stroke="red" cx="374.35" cy="-1170" rx="53.09" ry="18"/>
<text text-anchor="middle" x="374.35" y="-1166.3" font-family="Times,serif" font-size="14.00">MySQL 5.5</text>
</g>
<!-- MySQL 5.6 -->
<g id="node11" class="node">
<title>MySQL 5.6</title>
<ellipse fill="none" stroke="red" cx="374.35" cy="-1098" rx="53.09" ry="18"/>
<text text-anchor="middle" x="374.35" y="-1094.3" font-family="Times,serif" font-size="14.00">MySQL 5.6</text>
</g>
<!-- MySQL 5.5&#45;&gt;MySQL 5.6 -->
<g id="edge11" class="edge">
<title>MySQL 5.5&#45;&gt;MySQL 5.6</title>
<path fill="none" stroke="black" d="M374.35,-1151.7C374.35,-1143.98 374.35,-1134.71 374.35,-1126.11"/>
<polygon fill="black" stroke="black" points="377.85,-1126.1 374.35,-1116.1 370.85,-1126.1 377.85,-1126.1"/>
</g>
<!-- MySQL Cluster 7.2 -->
<g id="node23" class="node">
<title>MySQL Cluster 7.2</title>
<ellipse fill="none" stroke="#cd0000" cx="221.35" cy="-1098" rx="81.49" ry="18"/>
<text text-anchor="middle" x="221.35" y="-1094.3" font-family="Times,serif" font-size="14.00">MySQL Cluster 7.2</text>
</g>
<!-- MySQL 5.5&#45;&gt;MySQL Cluster 7.2 -->
<g id="edge26" class="edge">
<title>MySQL 5.5&#45;&gt;MySQL Cluster 7.2</title>
<path fill="none" stroke="black" d="M344.12,-1155.17C321.42,-1144.78 290,-1130.41 264.64,-1118.81"/>
<polygon fill="black" stroke="black" points="265.79,-1115.48 255.24,-1114.51 262.88,-1121.85 265.79,-1115.48"/>
</g>
<!-- MariaDB 5.5 -->
<g id="node30" class="node">
<title>MariaDB 5.5</title>
<ellipse fill="none" stroke="blue" cx="634.35" cy="-1026" rx="57.69" ry="18"/>
<text text-anchor="middle" x="634.35" y="-1022.3" font-family="Times,serif" font-size="14.00">MariaDB 5.5</text>
</g>
<!-- MySQL 5.5&#45;&gt;MariaDB 5.5 -->
<g id="edge42" class="edge">
<title>MySQL 5.5&#45;&gt;MariaDB 5.5</title>
<path fill="none" stroke="black" d="M393.56,-1153.01C405.92,-1142.62 422.24,-1128.69 436.35,-1116 453.64,-1100.44 454.38,-1091.94 474.35,-1080 492.92,-1068.89 543.48,-1052.91 582.83,-1041.41"/>
<polygon fill="black" stroke="black" points="583.94,-1044.74 592.57,-1038.59 581.99,-1038.01 583.94,-1044.74"/>
</g>
<!-- Percona Server 5.5 -->
<g id="node45" class="node">
<title>Percona Server 5.5</title>
<ellipse fill="none" stroke="orange" cx="561.35" cy="-1098" rx="77.99" ry="18"/>
<text text-anchor="middle" x="561.35" y="-1094.3" font-family="Times,serif" font-size="14.00">Percona Server 5.5</text>
</g>
<!-- MySQL 5.5&#45;&gt;Percona Server 5.5 -->
<g id="edge79" class="edge">
<title>MySQL 5.5&#45;&gt;Percona Server 5.5</title>
<path fill="none" stroke="black" d="M408.65,-1156.16C437.82,-1145.24 480.06,-1129.43 512.72,-1117.2"/>
<polygon fill="black" stroke="black" points="513.95,-1120.48 522.09,-1113.7 511.5,-1113.92 513.95,-1120.48"/>
</g>
<!-- MySQL 5.7 -->
<g id="node12" class="node">
<title>MySQL 5.7</title>
<ellipse fill="none" stroke="red" cx="377.35" cy="-954" rx="53.09" ry="18"/>
<text text-anchor="middle" x="377.35" y="-950.3" font-family="Times,serif" font-size="14.00">MySQL 5.7</text>
</g>
<!-- MySQL 5.6&#45;&gt;MySQL 5.7 -->
<g id="edge12" class="edge">
<title>MySQL 5.6&#45;&gt;MySQL 5.7</title>
<path fill="none" stroke="black" d="M374.71,-1079.87C375.22,-1055.67 376.16,-1011.21 376.77,-982.39"/>
<polygon fill="black" stroke="black" points="380.27,-982.26 376.98,-972.19 373.27,-982.11 380.27,-982.26"/>
</g>
<!-- MySQL Cluster 7.3 -->
<g id="node24" class="node">
<title>MySQL Cluster 7.3</title>
<ellipse fill="none" stroke="#cd0000" cx="224.35" cy="-1026" rx="81.49" ry="18"/>
<text text-anchor="middle" x="224.35" y="-1022.3" font-family="Times,serif" font-size="14.00">MySQL Cluster 7.3</text>
</g>
<!-- MySQL 5.6&#45;&gt;MySQL Cluster 7.3 -->
<g id="edge28" class="edge">
<title>MySQL 5.6&#45;&gt;MySQL Cluster 7.3</title>
<path fill="none" stroke="black" d="M344.35,-1083C322.14,-1072.64 291.57,-1058.37 266.84,-1046.83"/>
<polygon fill="black" stroke="black" points="268.22,-1043.61 257.68,-1042.56 265.26,-1049.96 268.22,-1043.61"/>
</g>
<!-- Percona Server 5.6 -->
<g id="node46" class="node">
<title>Percona Server 5.6</title>
<ellipse fill="none" stroke="orange" cx="480.35" cy="-1026" rx="77.99" ry="18"/>
<text text-anchor="middle" x="480.35" y="-1022.3" font-family="Times,serif" font-size="14.00">Percona Server 5.6</text>
</g>
<!-- MySQL 5.6&#45;&gt;Percona Server 5.6 -->
<g id="edge82" class="edge">
<title>MySQL 5.6&#45;&gt;Percona Server 5.6</title>
<path fill="none" stroke="black" d="M397.61,-1081.64C412.11,-1072.06 431,-1059.59 447.07,-1048.97"/>
<polygon fill="black" stroke="black" points="449.25,-1051.73 455.66,-1043.3 445.39,-1045.89 449.25,-1051.73"/>
</g>
<!-- MySQL 8.0 -->
<g id="node13" class="node">
<title>MySQL 8.0</title>
<ellipse fill="none" stroke="red" cx="347.35" cy="-738" rx="53.09" ry="18"/>
<text text-anchor="middle" x="347.35" y="-734.3" font-family="Times,serif" font-size="14.00">MySQL 8.0</text>
</g>
<!-- MySQL 5.7&#45;&gt;MySQL 8.0 -->
<g id="edge13" class="edge">
<title>MySQL 5.7&#45;&gt;MySQL 8.0</title>
<path fill="none" stroke="black" d="M374.79,-935.62C371.26,-911.48 364.7,-866.44 359.35,-828 356.46,-807.28 353.3,-783.84 350.95,-766.21"/>
<polygon fill="black" stroke="black" points="354.39,-765.52 349.6,-756.07 347.45,-766.44 354.39,-765.52"/>
</g>
<!-- Percona Server 5.7 -->
<g id="node18" class="node">
<title>Percona Server 5.7</title>
<ellipse fill="none" stroke="orange" cx="446.35" cy="-810" rx="77.99" ry="18"/>
<text text-anchor="middle" x="446.35" y="-806.3" font-family="Times,serif" font-size="14.00">Percona Server 5.7</text>
</g>
<!-- MySQL 5.7&#45;&gt;Percona Server 5.7 -->
<g id="edge84" class="edge">
<title>MySQL 5.7&#45;&gt;Percona Server 5.7</title>
<path fill="none" stroke="black" d="M385.53,-936.15C397.4,-911.73 419.49,-866.26 433.53,-837.38"/>
<polygon fill="black" stroke="black" points="436.73,-838.79 437.96,-828.27 430.44,-835.73 436.73,-838.79"/>
</g>
<!-- MySQL Cluster 7.5 -->
<g id="node26" class="node">
<title>MySQL Cluster 7.5</title>
<ellipse fill="none" stroke="#cd0000" cx="231.35" cy="-882" rx="81.49" ry="18"/>
<text text-anchor="middle" x="231.35" y="-878.3" font-family="Times,serif" font-size="14.00">MySQL Cluster 7.5</text>
</g>
<!-- MySQL 5.7&#45;&gt;MySQL Cluster 7.5 -->
<g id="edge31" class="edge">
<title>MySQL 5.7&#45;&gt;MySQL Cluster 7.5</title>
<path fill="none" stroke="black" d="M347.8,-938.83C326.32,-928.54 296.95,-914.45 273.08,-903.01"/>
<polygon fill="black" stroke="black" points="274.43,-899.77 263.9,-898.61 271.4,-906.09 274.43,-899.77"/>
</g>
<!-- MariaDB 10.2 -->
<g id="node33" class="node">
<title>MariaDB 10.2</title>
<ellipse fill="none" stroke="blue" cx="604.35" cy="-810" rx="62.29" ry="18"/>
<text text-anchor="middle" x="604.35" y="-806.3" font-family="Times,serif" font-size="14.00">MariaDB 10.2</text>
</g>
<!-- MySQL 5.7&#45;&gt;MariaDB 10.2 -->
<g id="edge51" class="edge">
<title>MySQL 5.7&#45;&gt;MariaDB 10.2</title>
<path fill="none" stroke="grey" d="M401.64,-937.8C442.39,-912.31 524.57,-860.91 570.8,-831.99"/>
<polygon fill="grey" stroke="grey" points="572.92,-834.79 579.54,-826.52 569.21,-828.85 572.92,-834.79"/>
</g>
<!-- Percona Server 8.0 -->
<g id="node59" class="node">
<title>Percona Server 8.0</title>
<ellipse fill="none" stroke="orange" cx="391.35" cy="-666" rx="77.99" ry="18"/>
<text text-anchor="middle" x="391.35" y="-662.3" font-family="Times,serif" font-size="14.00">Percona Server 8.0</text>
</g>
<!-- MySQL 8.0&#45;&gt;Percona Server 8.0 -->
<g id="edge87" class="edge">
<title>MySQL 8.0&#45;&gt;Percona Server 8.0</title>
<path fill="none" stroke="black" d="M358,-720.05C363.11,-711.92 369.35,-702 375.04,-692.94"/>
<polygon fill="black" stroke="black" points="378.13,-694.6 380.49,-684.28 372.2,-690.88 378.13,-694.6"/>
</g>
<!-- MySQL 6.0&#45;&gt;MySQL 5.5 -->
<g id="edge9" class="edge">
<title>MySQL 6.0&#45;&gt;MySQL 5.5</title>
<path fill="none" stroke="grey" d="M432.76,-1369.43C420.88,-1360.01 407.19,-1346.93 399.35,-1332 376.9,-1289.25 373.27,-1231.93 373.35,-1198.47"/>
<polygon fill="grey" stroke="grey" points="376.85,-1198.15 373.49,-1188.1 369.85,-1198.05 376.85,-1198.15"/>
</g>
<!-- Drizzle 7.0 -->
<g id="node60" class="node">
<title>Drizzle 7.0</title>
<ellipse fill="none" stroke="#00008b" cx="458.35" cy="-1314" rx="50.09" ry="18"/>
<text text-anchor="middle" x="458.35" y="-1310.3" font-family="Times,serif" font-size="14.00">Drizzle 7.0</text>
</g>
<!-- MySQL 6.0&#45;&gt;Drizzle 7.0 -->
<g id="edge88" class="edge">
<title>MySQL 6.0&#45;&gt;Drizzle 7.0</title>
<path fill="none" stroke="black" d="M456.09,-1367.7C456.42,-1359.98 456.82,-1350.71 457.18,-1342.11"/>
<polygon fill="black" stroke="black" points="460.68,-1342.25 457.61,-1332.1 453.69,-1341.95 460.68,-1342.25"/>
</g>
<!-- MySQL 5.4 -->
<g id="node15" class="node">
<title>MySQL 5.4</title>
<ellipse fill="none" stroke="red" stroke-dasharray="1,5" cx="299.35" cy="-1314" rx="53.09" ry="18"/>
<text text-anchor="middle" x="299.35" y="-1310.3" font-family="Times,serif" font-size="14.00">MySQL 5.4</text>
</g>
<!-- MySQL 5.4&#45;&gt;MySQL 5.5 -->
<g id="edge10" class="edge">
<title>MySQL 5.4&#45;&gt;MySQL 5.5</title>
<path fill="none" stroke="grey" d="M308.24,-1296.15C321.21,-1271.6 345.42,-1225.77 360.66,-1196.91"/>
<polygon fill="grey" stroke="grey" points="363.88,-1198.3 365.46,-1187.82 357.69,-1195.03 363.88,-1198.3"/>
</g>
<!-- MySQL Cluster 7.6 -->
<g id="node16" class="node">
<title>MySQL Cluster 7.6</title>
<ellipse fill="none" stroke="#cd0000" cx="231.35" cy="-810" rx="81.49" ry="18"/>
<text text-anchor="middle" x="231.35" y="-806.3" font-family="Times,serif" font-size="14.00">MySQL Cluster 7.6</text>
</g>
<!-- MySQL Cluster 7.6&#45;&gt;MySQL 8.0 -->
<g id="edge14" class="edge">
<title>MySQL Cluster 7.6&#45;&gt;MySQL 8.0</title>
<path fill="none" stroke="black" d="M257.96,-792.94C274.48,-782.97 295.86,-770.07 313.56,-759.39"/>
<polygon fill="black" stroke="black" points="315.69,-762.19 322.44,-754.03 312.07,-756.2 315.69,-762.19"/>
</g>
<!-- MySQL 5.2&#45;&gt;MySQL 5.4 -->
<g id="edge17" class="edge">
<title>MySQL 5.2&#45;&gt;MySQL 5.4</title>
<path fill="none" stroke="black" stroke-dasharray="5,2" d="M322.84,-1368.05C319.32,-1360.09 315.03,-1350.41 311.09,-1341.51"/>
<polygon fill="black" stroke="black" points="314.25,-1340 307,-1332.28 307.85,-1342.84 314.25,-1340"/>
</g>
<!-- Percona Server 5.7&#45;&gt;MySQL 8.0 -->
<g id="edge18" class="edge">
<title>Percona Server 5.7&#45;&gt;MySQL 8.0</title>
<path fill="none" stroke="grey" d="M423.38,-792.76C409.73,-783.11 392.25,-770.75 377.49,-760.31"/>
<polygon fill="grey" stroke="grey" points="379.35,-757.34 369.16,-754.43 375.31,-763.06 379.35,-757.34"/>
</g>
<!-- Percona Server 5.7&#45;&gt;Percona Server 8.0 -->
<g id="edge86" class="edge">
<title>Percona Server 5.7&#45;&gt;Percona Server 8.0</title>
<path fill="none" stroke="black" d="M439.71,-791.87C430.26,-767.46 412.81,-722.43 401.66,-693.64"/>
<polygon fill="black" stroke="black" points="404.88,-692.25 398,-684.19 398.35,-694.78 404.88,-692.25"/>
</g>
<!-- MySQL Cluster 6.2&#45;&gt;MySQL Cluster 6.3 -->
<g id="edge21" class="edge">
<title>MySQL Cluster 6.2&#45;&gt;MySQL Cluster 6.3</title>
<path fill="none" stroke="black" d="M168.15,-1368.05C163.78,-1360.01 158.46,-1350.2 153.58,-1341.23"/>
<polygon fill="black" stroke="black" points="156.57,-1339.39 148.72,-1332.28 150.42,-1342.73 156.57,-1339.39"/>
</g>
<!-- MySQL Cluster 6.3&#45;&gt;MySQL Cluster 7.0 -->
<g id="edge23" class="edge">
<title>MySQL Cluster 6.3&#45;&gt;MySQL Cluster 7.0</title>
<path fill="none" stroke="black" d="M134.65,-1295.7C132.53,-1287.9 129.98,-1278.51 127.63,-1269.83"/>
<polygon fill="black" stroke="black" points="130.99,-1268.84 124.99,-1260.1 124.23,-1270.67 130.99,-1268.84"/>
</g>
<!-- MySQL Cluster 7.0&#45;&gt;MySQL Cluster 7.1 -->
<g id="edge25" class="edge">
<title>MySQL Cluster 7.0&#45;&gt;MySQL Cluster 7.1</title>
<path fill="none" stroke="black" d="M120.35,-1223.7C120.35,-1215.98 120.35,-1206.71 120.35,-1198.11"/>
<polygon fill="black" stroke="black" points="123.85,-1198.1 120.35,-1188.1 116.85,-1198.1 123.85,-1198.1"/>
</g>
<!-- MySQL Cluster 7.1&#45;&gt;MySQL Cluster 7.2 -->
<g id="edge27" class="edge">
<title>MySQL Cluster 7.1&#45;&gt;MySQL Cluster 7.2</title>
<path fill="none" stroke="black" d="M144.03,-1152.59C157.58,-1143.2 174.75,-1131.29 189.48,-1121.09"/>
<polygon fill="black" stroke="black" points="191.59,-1123.88 197.81,-1115.31 187.6,-1118.13 191.59,-1123.88"/>
</g>
<!-- MySQL Cluster 7.2&#45;&gt;MySQL Cluster 7.3 -->
<g id="edge29" class="edge">
<title>MySQL Cluster 7.2&#45;&gt;MySQL Cluster 7.3</title>
<path fill="none" stroke="black" d="M222.09,-1079.7C222.42,-1071.98 222.82,-1062.71 223.18,-1054.11"/>
<polygon fill="black" stroke="black" points="226.68,-1054.25 223.61,-1044.1 219.69,-1053.95 226.68,-1054.25"/>
</g>
<!-- MySQL Cluster 7.4 -->
<g id="node25" class="node">
<title>MySQL Cluster 7.4</title>
<ellipse fill="none" stroke="#cd0000" cx="224.35" cy="-954" rx="81.49" ry="18"/>
<text text-anchor="middle" x="224.35" y="-950.3" font-family="Times,serif" font-size="14.00">MySQL Cluster 7.4</text>
</g>
<!-- MySQL Cluster 7.3&#45;&gt;MySQL Cluster 7.4 -->
<g id="edge30" class="edge">
<title>MySQL Cluster 7.3&#45;&gt;MySQL Cluster 7.4</title>
<path fill="none" stroke="black" d="M224.35,-1007.7C224.35,-999.98 224.35,-990.71 224.35,-982.11"/>
<polygon fill="black" stroke="black" points="227.85,-982.1 224.35,-972.1 220.85,-982.1 227.85,-982.1"/>
</g>
<!-- MySQL Cluster 7.4&#45;&gt;MySQL Cluster 7.5 -->
<g id="edge32" class="edge">
<title>MySQL Cluster 7.4&#45;&gt;MySQL Cluster 7.5</title>
<path fill="none" stroke="black" d="M226.08,-935.7C226.85,-927.98 227.78,-918.71 228.64,-910.11"/>
<polygon fill="black" stroke="black" points="232.12,-910.4 229.64,-900.1 225.16,-909.71 232.12,-910.4"/>
</g>
<!-- MySQL Cluster 7.5&#45;&gt;MySQL Cluster 7.6 -->
<g id="edge33" class="edge">
<title>MySQL Cluster 7.5&#45;&gt;MySQL Cluster 7.6</title>
<path fill="none" stroke="black" d="M231.35,-863.7C231.35,-855.98 231.35,-846.71 231.35,-838.11"/>
<polygon fill="black" stroke="black" points="234.85,-838.1 231.35,-828.1 227.85,-838.1 234.85,-838.1"/>
</g>
<!-- MariaDB 5.1&#45;&gt;MariaDB 5.2 -->
<g id="edge37" class="edge">
<title>MariaDB 5.1&#45;&gt;MariaDB 5.2</title>
<path fill="none" stroke="black" d="M660.35,-1295.7C660.35,-1287.98 660.35,-1278.71 660.35,-1270.11"/>
<polygon fill="black" stroke="black" points="663.85,-1270.1 660.35,-1260.1 656.85,-1270.1 663.85,-1270.1"/>
</g>
<!-- MariaDB 5.2&#45;&gt;MariaDB 5.3 -->
<g id="edge40" class="edge">
<title>MariaDB 5.2&#45;&gt;MariaDB 5.3</title>
<path fill="none" stroke="black" d="M660.35,-1223.7C660.35,-1215.98 660.35,-1206.71 660.35,-1198.11"/>
<polygon fill="black" stroke="black" points="663.85,-1198.1 660.35,-1188.1 656.85,-1198.1 663.85,-1198.1"/>
</g>
<!-- MariaDB 5.3&#45;&gt;MariaDB 5.5 -->
<g id="edge43" class="edge">
<title>MariaDB 5.3&#45;&gt;MariaDB 5.5</title>
<path fill="none" stroke="black" d="M658.67,-1151.83C656.77,-1133.83 653.27,-1104.77 648.35,-1080 646.65,-1071.47 644.38,-1062.27 642.16,-1053.97"/>
<polygon fill="black" stroke="black" points="645.46,-1052.77 639.43,-1044.06 638.71,-1054.63 645.46,-1052.77"/>
</g>
<!-- MariaDB 5.3&#45;&gt;Percona Server 5.5 -->
<g id="edge81" class="edge">
<title>MariaDB 5.3&#45;&gt;Percona Server 5.5</title>
<path fill="none" stroke="grey" d="M637.88,-1153.12C624.53,-1143.67 607.39,-1131.56 592.72,-1121.18"/>
<polygon fill="grey" stroke="grey" points="594.59,-1118.22 584.41,-1115.31 590.55,-1123.94 594.59,-1118.22"/>
</g>
<!-- MariaDB 10.0 -->
<g id="node31" class="node">
<title>MariaDB 10.0</title>
<ellipse fill="none" stroke="blue" cx="604.35" cy="-954" rx="62.29" ry="18"/>
<text text-anchor="middle" x="604.35" y="-950.3" font-family="Times,serif" font-size="14.00">MariaDB 10.0</text>
</g>
<!-- MariaDB 5.5&#45;&gt;MariaDB 10.0 -->
<g id="edge45" class="edge">
<title>MariaDB 5.5&#45;&gt;MariaDB 10.0</title>
<path fill="none" stroke="black" d="M627.08,-1008.05C623.67,-1000.09 619.52,-990.41 615.71,-981.51"/>
<polygon fill="black" stroke="black" points="618.91,-980.09 611.75,-972.28 612.47,-982.85 618.91,-980.09"/>
</g>
<!-- MariaDB 10.1 -->
<g id="node32" class="node">
<title>MariaDB 10.1</title>
<ellipse fill="none" stroke="blue" cx="604.35" cy="-882" rx="62.29" ry="18"/>
<text text-anchor="middle" x="604.35" y="-878.3" font-family="Times,serif" font-size="14.00">MariaDB 10.1</text>
</g>
<!-- MariaDB 10.0&#45;&gt;MariaDB 10.1 -->
<g id="edge46" class="edge">
<title>MariaDB 10.0&#45;&gt;MariaDB 10.1</title>
<path fill="none" stroke="black" d="M604.35,-935.7C604.35,-927.98 604.35,-918.71 604.35,-910.11"/>
<polygon fill="black" stroke="black" points="607.85,-910.1 604.35,-900.1 600.85,-910.1 607.85,-910.1"/>
</g>
<!-- MariaDB 10.1&#45;&gt;MariaDB 10.2 -->
<g id="edge48" class="edge">
<title>MariaDB 10.1&#45;&gt;MariaDB 10.2</title>
<path fill="none" stroke="black" d="M604.35,-863.7C604.35,-855.98 604.35,-846.71 604.35,-838.11"/>
<polygon fill="black" stroke="black" points="607.85,-838.1 604.35,-828.1 600.85,-838.1 607.85,-838.1"/>
</g>
<!-- MariaDB ColumnStore 1.0 -->
<g id="node54" class="node">
<title>MariaDB ColumnStore 1.0</title>
<ellipse fill="none" stroke="dodgerblue" cx="792.35" cy="-810" rx="107.78" ry="18"/>
<text text-anchor="middle" x="792.35" y="-806.3" font-family="Times,serif" font-size="14.00">MariaDB ColumnStore 1.0</text>
</g>
<!-- MariaDB 10.1&#45;&gt;MariaDB ColumnStore 1.0 -->
<g id="edge69" class="edge">
<title>MariaDB 10.1&#45;&gt;MariaDB ColumnStore 1.0</title>
<path fill="none" stroke="black" d="M641.04,-867.34C669.42,-856.77 709.05,-842.01 740.64,-830.25"/>
<polygon fill="black" stroke="black" points="742.02,-833.48 750.17,-826.71 739.57,-826.92 742.02,-833.48"/>
</g>
<!-- MariaDB 10.3 -->
<g id="node34" class="node">
<title>MariaDB 10.3</title>
<ellipse fill="none" stroke="blue" cx="604.35" cy="-738" rx="62.29" ry="18"/>
<text text-anchor="middle" x="604.35" y="-734.3" font-family="Times,serif" font-size="14.00">MariaDB 10.3</text>
</g>
<!-- MariaDB 10.2&#45;&gt;MariaDB 10.3 -->
<g id="edge50" class="edge">
<title>MariaDB 10.2&#45;&gt;MariaDB 10.3</title>
<path fill="none" stroke="black" d="M604.35,-791.7C604.35,-783.98 604.35,-774.71 604.35,-766.11"/>
<polygon fill="black" stroke="black" points="607.85,-766.1 604.35,-756.1 600.85,-766.1 607.85,-766.1"/>
</g>
<!-- MariaDB ColumnStore 1.1 -->
<g id="node55" class="node">
<title>MariaDB ColumnStore 1.1</title>
<ellipse fill="none" stroke="dodgerblue" cx="792.35" cy="-738" rx="107.78" ry="18"/>
<text text-anchor="middle" x="792.35" y="-734.3" font-family="Times,serif" font-size="14.00">MariaDB ColumnStore 1.1</text>
</g>
<!-- MariaDB 10.2&#45;&gt;MariaDB ColumnStore 1.1 -->
<g id="edge71" class="edge">
<title>MariaDB 10.2&#45;&gt;MariaDB ColumnStore 1.1</title>
<path fill="none" stroke="black" d="M641.04,-795.34C669.42,-784.77 709.05,-770.01 740.64,-758.25"/>
<polygon fill="black" stroke="black" points="742.02,-761.48 750.17,-754.71 739.57,-754.92 742.02,-761.48"/>
</g>
<!-- MariaDB 10.4 -->
<g id="node35" class="node">
<title>MariaDB 10.4</title>
<ellipse fill="none" stroke="blue" cx="604.35" cy="-594" rx="62.29" ry="18"/>
<text text-anchor="middle" x="604.35" y="-590.3" font-family="Times,serif" font-size="14.00">MariaDB 10.4</text>
</g>
<!-- MariaDB 10.3&#45;&gt;MariaDB 10.4 -->
<g id="edge52" class="edge">
<title>MariaDB 10.3&#45;&gt;MariaDB 10.4</title>
<path fill="none" stroke="black" d="M604.35,-719.87C604.35,-695.67 604.35,-651.21 604.35,-622.39"/>
<polygon fill="black" stroke="black" points="607.85,-622.19 604.35,-612.19 600.85,-622.19 607.85,-622.19"/>
</g>
<!-- MariaDB ColumnStore 1.2 -->
<g id="node56" class="node">
<title>MariaDB ColumnStore 1.2</title>
<ellipse fill="none" stroke="dodgerblue" cx="792.35" cy="-666" rx="107.78" ry="18"/>
<text text-anchor="middle" x="792.35" y="-662.3" font-family="Times,serif" font-size="14.00">MariaDB ColumnStore 1.2</text>
</g>
<!-- MariaDB 10.3&#45;&gt;MariaDB ColumnStore 1.2 -->
<g id="edge73" class="edge">
<title>MariaDB 10.3&#45;&gt;MariaDB ColumnStore 1.2</title>
<path fill="none" stroke="black" d="M641.04,-723.34C669.42,-712.77 709.05,-698.01 740.64,-686.25"/>
<polygon fill="black" stroke="black" points="742.02,-689.48 750.17,-682.71 739.57,-682.92 742.02,-689.48"/>
</g>
<!-- MariaDB 10.5 -->
<g id="node36" class="node">
<title>MariaDB 10.5</title>
<ellipse fill="none" stroke="blue" cx="698.35" cy="-522" rx="62.29" ry="18"/>
<text text-anchor="middle" x="698.35" y="-518.3" font-family="Times,serif" font-size="14.00">MariaDB 10.5</text>
</g>
<!-- MariaDB 10.4&#45;&gt;MariaDB 10.5 -->
<g id="edge53" class="edge">
<title>MariaDB 10.4&#45;&gt;MariaDB 10.5</title>
<path fill="none" stroke="black" d="M626.15,-576.76C638.72,-567.4 654.72,-555.49 668.45,-545.26"/>
<polygon fill="black" stroke="black" points="670.73,-547.93 676.66,-539.15 666.55,-542.31 670.73,-547.93"/>
</g>
<!-- MariaDB 10.6 -->
<g id="node37" class="node">
<title>MariaDB 10.6</title>
<ellipse fill="none" stroke="blue" cx="698.35" cy="-450" rx="62.29" ry="18"/>
<text text-anchor="middle" x="698.35" y="-446.3" font-family="Times,serif" font-size="14.00">MariaDB 10.6</text>
</g>
<!-- MariaDB 10.5&#45;&gt;MariaDB 10.6 -->
<g id="edge54" class="edge">
<title>MariaDB 10.5&#45;&gt;MariaDB 10.6</title>
<path fill="none" stroke="black" d="M698.35,-503.7C698.35,-495.98 698.35,-486.71 698.35,-478.11"/>
<polygon fill="black" stroke="black" points="701.85,-478.1 698.35,-468.1 694.85,-478.1 701.85,-478.1"/>
</g>
<!-- MariaDB 10.7 -->
<g id="node38" class="node">
<title>MariaDB 10.7</title>
<ellipse fill="none" stroke="blue" cx="698.35" cy="-378" rx="62.29" ry="18"/>
<text text-anchor="middle" x="698.35" y="-374.3" font-family="Times,serif" font-size="14.00">MariaDB 10.7</text>
</g>
<!-- MariaDB 10.6&#45;&gt;MariaDB 10.7 -->
<g id="edge55" class="edge">
<title>MariaDB 10.6&#45;&gt;MariaDB 10.7</title>
<path fill="none" stroke="black" d="M698.35,-431.7C698.35,-423.98 698.35,-414.71 698.35,-406.11"/>
<polygon fill="black" stroke="black" points="701.85,-406.1 698.35,-396.1 694.85,-406.1 701.85,-406.1"/>
</g>
<!-- MariaDB 10.8 -->
<g id="node39" class="node">
<title>MariaDB 10.8</title>
<ellipse fill="none" stroke="blue" cx="698.35" cy="-306" rx="62.29" ry="18"/>
<text text-anchor="middle" x="698.35" y="-302.3" font-family="Times,serif" font-size="14.00">MariaDB 10.8</text>
</g>
<!-- MariaDB 10.7&#45;&gt;MariaDB 10.8 -->
<g id="edge56" class="edge">
<title>MariaDB 10.7&#45;&gt;MariaDB 10.8</title>
<path fill="none" stroke="black" d="M698.35,-359.7C698.35,-351.98 698.35,-342.71 698.35,-334.11"/>
<polygon fill="black" stroke="black" points="701.85,-334.1 698.35,-324.1 694.85,-334.1 701.85,-334.1"/>
</g>
<!-- MariaDB 10.9 -->
<g id="node40" class="node">
<title>MariaDB 10.9</title>
<ellipse fill="none" stroke="blue" cx="698.35" cy="-234" rx="62.29" ry="18"/>
<text text-anchor="middle" x="698.35" y="-230.3" font-family="Times,serif" font-size="14.00">MariaDB 10.9</text>
</g>
<!-- MariaDB 10.8&#45;&gt;MariaDB 10.9 -->
<g id="edge57" class="edge">
<title>MariaDB 10.8&#45;&gt;MariaDB 10.9</title>
<path fill="none" stroke="black" d="M698.35,-287.7C698.35,-279.98 698.35,-270.71 698.35,-262.11"/>
<polygon fill="black" stroke="black" points="701.85,-262.1 698.35,-252.1 694.85,-262.1 701.85,-262.1"/>
</g>
<!-- MariaDB 10.10 -->
<g id="node41" class="node">
<title>MariaDB 10.10</title>
<ellipse fill="none" stroke="blue" cx="698.35" cy="-162" rx="66.89" ry="18"/>
<text text-anchor="middle" x="698.35" y="-158.3" font-family="Times,serif" font-size="14.00">MariaDB 10.10</text>
</g>
<!-- MariaDB 10.9&#45;&gt;MariaDB 10.10 -->
<g id="edge58" class="edge">
<title>MariaDB 10.9&#45;&gt;MariaDB 10.10</title>
<path fill="none" stroke="black" d="M698.35,-215.7C698.35,-207.98 698.35,-198.71 698.35,-190.11"/>
<polygon fill="black" stroke="black" points="701.85,-190.1 698.35,-180.1 694.85,-190.1 701.85,-190.1"/>
</g>
<!-- MariaDB 10.11 -->
<g id="node42" class="node">
<title>MariaDB 10.11</title>
<ellipse fill="none" stroke="blue" stroke-dasharray="5,2" cx="698.35" cy="-90" rx="66.89" ry="18"/>
<text text-anchor="middle" x="698.35" y="-86.3" font-family="Times,serif" font-size="14.00">MariaDB 10.11</text>
</g>
<!-- MariaDB 10.10&#45;&gt;MariaDB 10.11 -->
<g id="edge59" class="edge">
<title>MariaDB 10.10&#45;&gt;MariaDB 10.11</title>
<path fill="none" stroke="black" stroke-dasharray="5,2" d="M698.35,-143.7C698.35,-135.98 698.35,-126.71 698.35,-118.11"/>
<polygon fill="black" stroke="black" points="701.85,-118.1 698.35,-108.1 694.85,-118.1 701.85,-118.1"/>
</g>
<!-- MariaDB 11.0 -->
<g id="node43" class="node">
<title>MariaDB 11.0</title>
<ellipse fill="none" stroke="blue" stroke-dasharray="5,2" cx="698.35" cy="-18" rx="62.29" ry="18"/>
<text text-anchor="middle" x="698.35" y="-14.3" font-family="Times,serif" font-size="14.00">MariaDB 11.0</text>
</g>
<!-- MariaDB 10.11&#45;&gt;MariaDB 11.0 -->
<g id="edge60" class="edge">
<title>MariaDB 10.11&#45;&gt;MariaDB 11.0</title>
<path fill="none" stroke="black" stroke-dasharray="5,2" d="M698.35,-71.7C698.35,-63.98 698.35,-54.71 698.35,-46.11"/>
<polygon fill="black" stroke="black" points="701.85,-46.1 698.35,-36.1 694.85,-46.1 701.85,-46.1"/>
</g>
<!-- Percona Server 5.1&#45;&gt;MariaDB 5.1 -->
<g id="edge35" class="edge">
<title>Percona Server 5.1&#45;&gt;MariaDB 5.1</title>
<path fill="none" stroke="grey" d="M720.62,-1368.41C710.42,-1359.37 697.62,-1348.03 686.45,-1338.13"/>
<polygon fill="grey" stroke="grey" points="688.47,-1335.24 678.66,-1331.23 683.82,-1340.48 688.47,-1335.24"/>
</g>
<!-- Percona Server 5.1&#45;&gt;MariaDB 5.2 -->
<g id="edge38" class="edge">
<title>Percona Server 5.1&#45;&gt;MariaDB 5.2</title>
<path fill="none" stroke="grey" d="M740.7,-1367.73C741.38,-1348.86 740.08,-1318.35 727.35,-1296 720.02,-1283.14 708.23,-1272.25 696.56,-1263.76"/>
<polygon fill="grey" stroke="grey" points="698.38,-1260.76 688.16,-1258 694.43,-1266.54 698.38,-1260.76"/>
</g>
<!-- Percona Server 5.1&#45;&gt;MariaDB 5.3 -->
<g id="edge41" class="edge">
<title>Percona Server 5.1&#45;&gt;MariaDB 5.3</title>
<path fill="none" stroke="grey" d="M743.09,-1367.79C748.92,-1336.36 756.67,-1268.79 727.35,-1224 719.11,-1211.42 706.89,-1200.49 695.13,-1191.88"/>
<polygon fill="grey" stroke="grey" points="696.92,-1188.86 686.71,-1186.03 692.92,-1194.61 696.92,-1188.86"/>
</g>
<!-- Percona Server 5.1&#45;&gt;Percona Server 5.5 -->
<g id="edge80" class="edge">
<title>Percona Server 5.1&#45;&gt;Percona Server 5.5</title>
<path fill="none" stroke="black" d="M748.48,-1367.88C753.35,-1357.76 758.85,-1344.51 761.35,-1332 777.26,-1252.16 784.18,-1210.29 727.35,-1152 704.67,-1128.74 671.81,-1115.67 641.3,-1108.33"/>
<polygon fill="black" stroke="black" points="642.01,-1104.9 631.49,-1106.14 640.49,-1111.74 642.01,-1104.9"/>
</g>
<!-- Percona Server 5.5&#45;&gt;MariaDB 5.5 -->
<g id="edge44" class="edge">
<title>Percona Server 5.5&#45;&gt;MariaDB 5.5</title>
<path fill="none" stroke="grey" d="M578.65,-1080.41C587.99,-1071.45 599.67,-1060.25 609.92,-1050.42"/>
<polygon fill="grey" stroke="grey" points="612.63,-1052.68 617.42,-1043.23 607.78,-1047.62 612.63,-1052.68"/>
</g>
<!-- Percona Server 5.5&#45;&gt;Percona Server 5.6 -->
<g id="edge83" class="edge">
<title>Percona Server 5.5&#45;&gt;Percona Server 5.6</title>
<path fill="none" stroke="black" d="M542.15,-1080.41C531.66,-1071.34 518.5,-1059.97 507.03,-1050.06"/>
<polygon fill="black" stroke="black" points="509.26,-1047.36 499.4,-1043.47 504.68,-1052.66 509.26,-1047.36"/>
</g>
<!-- Percona Server 5.6&#45;&gt;Percona Server 5.7 -->
<g id="edge85" class="edge">
<title>Percona Server 5.6&#45;&gt;Percona Server 5.7</title>
<path fill="none" stroke="black" d="M477.62,-1007.85C471.74,-970.83 457.81,-883.18 450.7,-838.39"/>
<polygon fill="black" stroke="black" points="454.11,-837.56 449.08,-828.23 447.2,-838.66 454.11,-837.56"/>
</g>
<!-- Percona Server 5.6&#45;&gt;MariaDB 10.0 -->
<g id="edge47" class="edge">
<title>Percona Server 5.6&#45;&gt;MariaDB 10.0</title>
<path fill="none" stroke="grey" d="M508.48,-1009.12C526.25,-999.09 549.37,-986.04 568.45,-975.27"/>
<polygon fill="grey" stroke="grey" points="570.18,-978.3 577.17,-970.34 566.74,-972.21 570.18,-978.3"/>
</g>
<!-- Percona Server 5.6&#45;&gt;MariaDB 10.1 -->
<g id="edge49" class="edge">
<title>Percona Server 5.6&#45;&gt;MariaDB 10.1</title>
<path fill="none" stroke="grey" d="M487.98,-1007.96C497.01,-989.02 513.36,-958.18 533.35,-936 544.05,-924.11 557.78,-913.14 570.3,-904.3"/>
<polygon fill="grey" stroke="grey" points="572.45,-907.07 578.73,-898.53 568.5,-901.29 572.45,-907.07"/>
</g>
<!-- InfiniDB 2.0 -->
<g id="node48" class="node">
<title>InfiniDB 2.0</title>
<ellipse fill="none" stroke="steelblue" cx="906.35" cy="-1314" rx="55.79" ry="18"/>
<text text-anchor="middle" x="906.35" y="-1310.3" font-family="Times,serif" font-size="14.00">InfiniDB 2.0</text>
</g>
<!-- InfiniDB 1.5&#45;&gt;InfiniDB 2.0 -->
<g id="edge62" class="edge">
<title>InfiniDB 1.5&#45;&gt;InfiniDB 2.0</title>
<path fill="none" stroke="black" d="M900.32,-1367.7C901.21,-1359.98 902.26,-1350.71 903.25,-1342.11"/>
<polygon fill="black" stroke="black" points="906.73,-1342.44 904.39,-1332.1 899.78,-1341.64 906.73,-1342.44"/>
</g>
<!-- InfiniDB 2.2 -->
<g id="node49" class="node">
<title>InfiniDB 2.2</title>
<ellipse fill="none" stroke="steelblue" cx="906.35" cy="-1242" rx="55.79" ry="18"/>
<text text-anchor="middle" x="906.35" y="-1238.3" font-family="Times,serif" font-size="14.00">InfiniDB 2.2</text>
</g>
<!-- InfiniDB 2.0&#45;&gt;InfiniDB 2.2 -->
<g id="edge63" class="edge">
<title>InfiniDB 2.0&#45;&gt;InfiniDB 2.2</title>
<path fill="none" stroke="black" d="M906.35,-1295.7C906.35,-1287.98 906.35,-1278.71 906.35,-1270.11"/>
<polygon fill="black" stroke="black" points="909.85,-1270.1 906.35,-1260.1 902.85,-1270.1 909.85,-1270.1"/>
</g>
<!-- InfiniDB 3.5 -->
<g id="node50" class="node">
<title>InfiniDB 3.5</title>
<ellipse fill="none" stroke="steelblue" cx="906.35" cy="-1170" rx="55.79" ry="18"/>
<text text-anchor="middle" x="906.35" y="-1166.3" font-family="Times,serif" font-size="14.00">InfiniDB 3.5</text>
</g>
<!-- InfiniDB 2.2&#45;&gt;InfiniDB 3.5 -->
<g id="edge64" class="edge">
<title>InfiniDB 2.2&#45;&gt;InfiniDB 3.5</title>
<path fill="none" stroke="black" d="M906.35,-1223.7C906.35,-1215.98 906.35,-1206.71 906.35,-1198.11"/>
<polygon fill="black" stroke="black" points="909.85,-1198.1 906.35,-1188.1 902.85,-1198.1 909.85,-1198.1"/>
</g>
<!-- InfiniDB 3.6 -->
<g id="node51" class="node">
<title>InfiniDB 3.6</title>
<ellipse fill="none" stroke="steelblue" cx="893.35" cy="-1098" rx="55.79" ry="18"/>
<text text-anchor="middle" x="893.35" y="-1094.3" font-family="Times,serif" font-size="14.00">InfiniDB 3.6</text>
</g>
<!-- InfiniDB 3.5&#45;&gt;InfiniDB 3.6 -->
<g id="edge65" class="edge">
<title>InfiniDB 3.5&#45;&gt;InfiniDB 3.6</title>
<path fill="none" stroke="black" d="M903.13,-1151.7C901.7,-1143.98 899.98,-1134.71 898.38,-1126.11"/>
<polygon fill="black" stroke="black" points="901.79,-1125.3 896.52,-1116.1 894.91,-1126.58 901.79,-1125.3"/>
</g>
<!-- InfiniDB 4.0 -->
<g id="node52" class="node">
<title>InfiniDB 4.0</title>
<ellipse fill="none" stroke="steelblue" cx="880.35" cy="-1026" rx="55.79" ry="18"/>
<text text-anchor="middle" x="880.35" y="-1022.3" font-family="Times,serif" font-size="14.00">InfiniDB 4.0</text>
</g>
<!-- InfiniDB 3.6&#45;&gt;InfiniDB 4.0 -->
<g id="edge66" class="edge">
<title>InfiniDB 3.6&#45;&gt;InfiniDB 4.0</title>
<path fill="none" stroke="black" d="M890.13,-1079.7C888.7,-1071.98 886.98,-1062.71 885.38,-1054.11"/>
<polygon fill="black" stroke="black" points="888.79,-1053.3 883.52,-1044.1 881.91,-1054.58 888.79,-1053.3"/>
</g>
<!-- InfiniDB 4.5 -->
<g id="node53" class="node">
<title>InfiniDB 4.5</title>
<ellipse fill="none" stroke="steelblue" cx="799.35" cy="-882" rx="55.79" ry="18"/>
<text text-anchor="middle" x="799.35" y="-878.3" font-family="Times,serif" font-size="14.00">InfiniDB 4.5</text>
</g>
<!-- InfiniDB 4.0&#45;&gt;InfiniDB 4.5 -->
<g id="edge67" class="edge">
<title>InfiniDB 4.0&#45;&gt;InfiniDB 4.5</title>
<path fill="none" stroke="black" d="M870.74,-1008.15C856.67,-983.49 830.36,-937.37 813.91,-908.53"/>
<polygon fill="black" stroke="black" points="816.94,-906.78 808.94,-899.82 810.86,-910.25 816.94,-906.78"/>
</g>
<!-- InfiniDB 4.5&#45;&gt;MariaDB ColumnStore 1.0 -->
<g id="edge68" class="edge">
<title>InfiniDB 4.5&#45;&gt;MariaDB ColumnStore 1.0</title>
<path fill="none" stroke="black" d="M797.62,-863.7C796.84,-855.98 795.92,-846.71 795.06,-838.11"/>
<polygon fill="black" stroke="black" points="798.53,-837.71 794.06,-828.1 791.57,-838.4 798.53,-837.71"/>
</g>
<!-- MariaDB ColumnStore 1.0&#45;&gt;MariaDB ColumnStore 1.1 -->
<g id="edge70" class="edge">
<title>MariaDB ColumnStore 1.0&#45;&gt;MariaDB ColumnStore 1.1</title>
<path fill="none" stroke="black" d="M792.35,-791.7C792.35,-783.98 792.35,-774.71 792.35,-766.11"/>
<polygon fill="black" stroke="black" points="795.85,-766.1 792.35,-756.1 788.85,-766.1 795.85,-766.1"/>
</g>
<!-- MariaDB ColumnStore 1.1&#45;&gt;MariaDB ColumnStore 1.2 -->
<g id="edge72" class="edge">
<title>MariaDB ColumnStore 1.1&#45;&gt;MariaDB ColumnStore 1.2</title>
<path fill="none" stroke="black" d="M792.35,-719.7C792.35,-711.98 792.35,-702.71 792.35,-694.11"/>
<polygon fill="black" stroke="black" points="795.85,-694.1 792.35,-684.1 788.85,-694.1 795.85,-694.1"/>
</g>
<!-- MariaDB ColumnStore 1.4 -->
<g id="node57" class="node">
<title>MariaDB ColumnStore 1.4</title>
<ellipse fill="none" stroke="dodgerblue" stroke-dasharray="1,5" cx="792.35" cy="-594" rx="107.78" ry="18"/>
<text text-anchor="middle" x="792.35" y="-590.3" font-family="Times,serif" font-size="14.00">MariaDB ColumnStore 1.4</text>
</g>
<!-- MariaDB ColumnStore 1.2&#45;&gt;MariaDB ColumnStore 1.4 -->
<g id="edge74" class="edge">
<title>MariaDB ColumnStore 1.2&#45;&gt;MariaDB ColumnStore 1.4</title>
<path fill="none" stroke="black" d="M792.35,-647.7C792.35,-639.98 792.35,-630.71 792.35,-622.11"/>
<polygon fill="black" stroke="black" points="795.85,-622.1 792.35,-612.1 788.85,-622.1 795.85,-622.1"/>
</g>
<!-- MariaDB ColumnStore 1.4&#45;&gt;MariaDB 10.5 -->
<g id="edge75" class="edge">
<title>MariaDB ColumnStore 1.4&#45;&gt;MariaDB 10.5</title>
<path fill="none" stroke="black" stroke-dasharray="5,2" d="M769.59,-576.05C757.08,-566.74 741.42,-555.07 727.97,-545.06"/>
<polygon fill="black" stroke="black" points="730.03,-542.23 719.92,-539.07 725.85,-547.85 730.03,-542.23"/>
</g>
<!-- Percona Server 5.0&#45;&gt;Percona Server 5.1 -->
<g id="edge78" class="edge">
<title>Percona Server 5.0&#45;&gt;Percona Server 5.1</title>
<path fill="none" stroke="black" d="M695.39,-1440.05C702.44,-1431.54 711.12,-1421.07 718.9,-1411.68"/>
<polygon fill="black" stroke="black" points="721.75,-1413.72 725.44,-1403.79 716.36,-1409.26 721.75,-1413.72"/>
</g>
<!-- Drizzle 7.1 -->
<g id="node61" class="node">
<title>Drizzle 7.1</title>
<ellipse fill="none" stroke="#00008b" cx="458.35" cy="-1242" rx="50.09" ry="18"/>
<text text-anchor="middle" x="458.35" y="-1238.3" font-family="Times,serif" font-size="14.00">Drizzle 7.1</text>
</g>
<!-- Drizzle 7.0&#45;&gt;Drizzle 7.1 -->
<g id="edge89" class="edge">
<title>Drizzle 7.0&#45;&gt;Drizzle 7.1</title>
<path fill="none" stroke="black" d="M458.35,-1295.7C458.35,-1287.98 458.35,-1278.71 458.35,-1270.11"/>
<polygon fill="black" stroke="black" points="461.85,-1270.1 458.35,-1260.1 454.85,-1270.1 461.85,-1270.1"/>
</g>
<!-- Drizzle 7.2 -->
<g id="node62" class="node">
<title>Drizzle 7.2</title>
<ellipse fill="none" stroke="#00008b" stroke-dasharray="5,2" cx="495.35" cy="-1170" rx="50.09" ry="18"/>
<text text-anchor="middle" x="495.35" y="-1166.3" font-family="Times,serif" font-size="14.00">Drizzle 7.2</text>
</g>
<!-- Drizzle 7.1&#45;&gt;Drizzle 7.2 -->
<g id="edge90" class="edge">
<title>Drizzle 7.1&#45;&gt;Drizzle 7.2</title>
<path fill="none" stroke="black" stroke-dasharray="5,2" d="M467.3,-1224.05C471.62,-1215.89 476.89,-1205.91 481.7,-1196.82"/>
<polygon fill="black" stroke="black" points="484.89,-1198.27 486.47,-1187.79 478.7,-1194.99 484.89,-1198.27"/>
</g>
</g>
</svg>
