<?xml version="1.0" encoding="UTF-8" standalone="no"?>
<!DOCTYPE svg PUBLIC "-//W3C//DTD SVG 1.1//EN"
 "http://www.w3.org/Graphics/SVG/1.1/DTD/svg11.dtd">
<!-- Generated by graphviz version 2.26.3 (20100126.1600)
 -->
<!-- Title: mysql_bug_graph Pages: 1 -->
<svg width="1098pt" height="857pt"
 viewBox="0.00 0.00 1098.00 856.80" xmlns="http://www.w3.org/2000/svg" xmlns:xlink="http://www.w3.org/1999/xlink">
<g id="graph1" class="graph" transform="scale(1 1) rotate(0) translate(4 852.797)">
<title>mysql_bug_graph</title>
<polygon fill="white" stroke="white" points="-4,5 -4,-852.797 1095,-852.797 1095,5 -4,5"/>
<!-- Open -->
<g id="node1" class="node"><title>Open</title>
<ellipse fill="none" stroke="black" cx="38" cy="-387" rx="36.977" ry="18.3848"/>
<text text-anchor="middle" x="38" y="-383.4" font-family="Times Roman,serif" font-size="14.00">Open</text>
</g>
<!-- Duplicate -->
<g id="node3" class="node"><title>Duplicate</title>
<ellipse fill="none" stroke="black" cx="1001" cy="-770" rx="57.9828" ry="18.3848"/>
<text text-anchor="middle" x="1001" y="-766.4" font-family="Times Roman,serif" font-size="14.00">Duplicate</text>
</g>
<!-- Open&#45;&gt;Duplicate -->
<g id="edge4" class="edge"><title>Open&#45;&gt;Duplicate</title>
<path fill="none" stroke="black" d="M39.9518,-404.993C50.2369,-489.856 105.916,-846 316,-846 316,-846 316,-846 547,-846 693.579,-846 733.464,-857.188 876,-823 906.151,-815.768 938.319,-801.975 962.471,-790.273"/>
<polygon fill="black" stroke="black" points="964.226,-793.31 971.642,-785.744 961.126,-787.034 964.226,-793.31"/>
</g>
<!-- Analyzing -->
<g id="node4" class="node"><title>Analyzing</title>
<ellipse fill="none" stroke="grey" cx="172" cy="-387" rx="60.1041" ry="18.3848"/>
<text text-anchor="middle" x="172" y="-383.4" font-family="Times Roman,serif" font-size="14.00">Analyzing</text>
</g>
<!-- Open&#45;&gt;Analyzing -->
<g id="edge2" class="edge"><title>Open&#45;&gt;Analyzing</title>
<path fill="none" stroke="black" d="M73.5577,-380.96C83.5307,-380.474 94.7058,-380.238 105.849,-380.25"/>
<polygon fill="black" stroke="black" points="106.012,-383.752 116.039,-380.332 106.068,-376.752 106.012,-383.752"/>
</g>
<!-- Verified -->
<g id="node5" class="node"><title>Verified</title>
<ellipse fill="none" stroke="grey" cx="316" cy="-518" rx="48.0833" ry="18.3848"/>
<text text-anchor="middle" x="316" y="-514.4" font-family="Times Roman,serif" font-size="14.00">Verified</text>
</g>
<!-- Open&#45;&gt;Verified -->
<g id="edge6" class="edge"><title>Open&#45;&gt;Verified</title>
<path fill="none" stroke="black" d="M54.344,-403.444C68.5439,-416.961 90.2036,-435.809 112,-448 160.86,-475.329 222.232,-494.612 264.835,-505.926"/>
<polygon fill="black" stroke="black" points="264.145,-509.363 274.704,-508.494 265.907,-502.589 264.145,-509.363"/>
</g>
<!-- To be fixed later -->
<g id="node6" class="node"><title>To be fixed later</title>
<ellipse fill="none" stroke="black" cx="1001" cy="-472" rx="89.0955" ry="18.3848"/>
<text text-anchor="middle" x="1001" y="-468.4" font-family="Times Roman,serif" font-size="14.00">To be fixed later</text>
</g>
<!-- Open&#45;&gt;To be fixed later -->
<g id="edge8" class="edge"><title>Open&#45;&gt;To be fixed later</title>
<path fill="none" stroke="black" d="M42.7702,-405.063C62.7149,-476.049 146.388,-732 316,-732 316,-732 316,-732 547,-732 694.194,-732 753.403,-775.463 876,-694 945.673,-647.704 980.623,-548.651 994.13,-500.057"/>
<polygon fill="black" stroke="black" points="997.559,-500.781 996.761,-490.216 990.797,-498.972 997.559,-500.781"/>
</g>
<!-- Can&#39;t repeat -->
<g id="node8" class="node"><title>Can&#39;t repeat</title>
<ellipse fill="none" stroke="grey" cx="1001" cy="-350" rx="72.1249" ry="18.3848"/>
<text text-anchor="middle" x="1001" y="-346.4" font-family="Times Roman,serif" font-size="14.00">Can&#39;t repeat</text>
</g>
<!-- Open&#45;&gt;Can&#39;t repeat -->
<g id="edge10" class="edge"><title>Open&#45;&gt;Can&#39;t repeat</title>
<path fill="none" stroke="black" d="M63.6503,-373.595C105.206,-352.714 190.433,-313.332 268,-299 380.613,-278.192 305.053,-214.582 876,-310 902.154,-314.371 930.361,-323.034 953.349,-331.184"/>
<polygon fill="black" stroke="black" points="952.266,-334.514 962.861,-334.631 954.652,-327.933 952.266,-334.514"/>
</g>
<!-- Need Feedback -->
<g id="node10" class="node"><title>Need Feedback</title>
<ellipse fill="none" stroke="grey" cx="547" cy="-388" rx="84.8528" ry="18.3848"/>
<text text-anchor="middle" x="547" y="-384.4" font-family="Times Roman,serif" font-size="14.00">Need Feedback</text>
</g>
<!-- Open&#45;&gt;Need Feedback -->
<g id="edge12" class="edge"><title>Open&#45;&gt;Need Feedback</title>
<path fill="none" stroke="black" d="M65.127,-399.488C78.8576,-405.134 95.9743,-411.168 112,-414 222.305,-433.495 252.301,-418.39 364,-410 397.4,-407.491 434.081,-403.356 465.776,-399.344"/>
<polygon fill="black" stroke="black" points="466.408,-402.792 475.881,-398.048 465.517,-395.849 466.408,-402.792"/>
</g>
<!-- Not a Bug -->
<g id="node11" class="node"><title>Not a Bug</title>
<ellipse fill="none" stroke="black" cx="1001" cy="-190" rx="60.8112" ry="18.3848"/>
<text text-anchor="middle" x="1001" y="-186.4" font-family="Times Roman,serif" font-size="14.00">Not a Bug</text>
</g>
<!-- Open&#45;&gt;Not a Bug -->
<g id="edge14" class="edge"><title>Open&#45;&gt;Not a Bug</title>
<path fill="none" stroke="black" d="M48.5604,-369.72C61.232,-350.48 84.2756,-319.876 112,-303 173.047,-265.841 197.597,-276.288 268,-264 509.06,-221.926 799.205,-201.409 930.433,-193.727"/>
<polygon fill="black" stroke="black" points="930.959,-197.203 940.74,-193.131 930.555,-190.214 930.959,-197.203"/>
</g>
<!-- Unsupported -->
<g id="node12" class="node"><title>Unsupported</title>
<ellipse fill="none" stroke="black" cx="1001" cy="-87" rx="74.2462" ry="18.3848"/>
<text text-anchor="middle" x="1001" y="-83.4" font-family="Times Roman,serif" font-size="14.00">Unsupported</text>
</g>
<!-- Open&#45;&gt;Unsupported -->
<g id="edge16" class="edge"><title>Open&#45;&gt;Unsupported</title>
<path fill="none" stroke="black" d="M41.5798,-368.853C57.824,-292.342 131.935,-0 316,-0 316,-0 316,-0 547,-0 693.481,-0 861.873,-44.2258 946.469,-69.613"/>
<polygon fill="black" stroke="black" points="945.532,-72.9861 956.117,-72.5361 947.562,-66.2868 945.532,-72.9861"/>
</g>
<!-- Closed -->
<g id="node2" class="node"><title>Closed</title>
<ellipse fill="none" stroke="black" cx="803" cy="-667" rx="43.8406" ry="18.3848"/>
<text text-anchor="middle" x="803" y="-663.4" font-family="Times Roman,serif" font-size="14.00">Closed</text>
</g>
<!-- Analyzing&#45;&gt;Open -->
<g id="edge18" class="edge"><title>Analyzing&#45;&gt;Open</title>
<path fill="none" stroke="black" d="M116.039,-393.668C105.255,-393.83 94.0784,-393.752 83.6688,-393.436"/>
<polygon fill="black" stroke="black" points="83.687,-389.934 73.5577,-393.04 83.4131,-396.929 83.687,-389.934"/>
</g>
<!-- Analyzing&#45;&gt;Duplicate -->
<g id="edge20" class="edge"><title>Analyzing&#45;&gt;Duplicate</title>
<path fill="none" stroke="black" d="M177.029,-405.139C195.096,-466.473 263.03,-666.966 400,-751 575.162,-858.465 836.312,-811.892 947.632,-784.635"/>
<polygon fill="black" stroke="black" points="948.758,-787.961 957.613,-782.144 947.063,-781.17 948.758,-787.961"/>
</g>
<!-- Analyzing&#45;&gt;Verified -->
<g id="edge22" class="edge"><title>Analyzing&#45;&gt;Verified</title>
<path fill="none" stroke="black" d="M186.953,-404.559C205.03,-425.257 236.908,-460.108 268,-486 272.329,-489.605 277.073,-493.171 281.841,-496.541"/>
<polygon fill="black" stroke="black" points="280.132,-499.612 290.364,-502.36 284.079,-493.831 280.132,-499.612"/>
</g>
<!-- Analyzing&#45;&gt;To be fixed later -->
<g id="edge24" class="edge"><title>Analyzing&#45;&gt;To be fixed later</title>
<path fill="none" stroke="black" d="M216.65,-399.176C232.73,-403.168 251.08,-407.273 268,-410 493.563,-446.347 761.831,-462.172 902.963,-468.407"/>
<polygon fill="black" stroke="black" points="903.175,-471.919 913.317,-468.857 903.479,-464.926 903.175,-471.919"/>
</g>
<!-- Analyzing&#45;&gt;Can&#39;t repeat -->
<g id="edge26" class="edge"><title>Analyzing&#45;&gt;Can&#39;t repeat</title>
<path fill="none" stroke="black" d="M213.218,-373.762C230.052,-368.788 249.808,-363.497 268,-360 325.935,-348.863 341.231,-351.163 400,-346 610.99,-327.465 665.395,-300.514 876,-323 897.723,-325.319 921.214,-329.845 941.905,-334.538"/>
<polygon fill="black" stroke="black" points="941.284,-337.986 951.817,-336.846 942.871,-331.169 941.284,-337.986"/>
</g>
<!-- Analyzing&#45;&gt;Need Feedback -->
<g id="edge28" class="edge"><title>Analyzing&#45;&gt;Need Feedback</title>
<path fill="none" stroke="black" d="M229.772,-382.118C290.182,-380.321 385.832,-380.296 456.322,-381.882"/>
<polygon fill="black" stroke="black" points="456.451,-385.386 466.532,-382.128 456.62,-378.388 456.451,-385.386"/>
</g>
<!-- Analyzing&#45;&gt;Not a Bug -->
<g id="edge30" class="edge"><title>Analyzing&#45;&gt;Not a Bug</title>
<path fill="none" stroke="black" d="M203.687,-371.625C287.252,-332.052 521.538,-227.387 730,-193 797.96,-181.79 876.811,-182.419 931.875,-185.013"/>
<polygon fill="black" stroke="black" points="931.708,-188.509 941.872,-185.518 932.061,-181.518 931.708,-188.509"/>
</g>
<!-- Analyzing&#45;&gt;Unsupported -->
<g id="edge32" class="edge"><title>Analyzing&#45;&gt;Unsupported</title>
<path fill="none" stroke="black" d="M186.716,-369.528C220.154,-331.155 306.253,-239.627 400,-198 573.38,-121.013 797.726,-97.4201 917.282,-90.1914"/>
<polygon fill="black" stroke="black" points="917.684,-93.6741 927.464,-89.6002 917.278,-86.6858 917.684,-93.6741"/>
</g>
<!-- Verified&#45;&gt;Closed -->
<g id="edge34" class="edge"><title>Verified&#45;&gt;Closed</title>
<path fill="none" stroke="black" d="M319.4,-536.007C326.954,-570.292 348.687,-644.258 400,-675 514.184,-743.408 681.169,-705.744 759.456,-681.867"/>
<polygon fill="black" stroke="black" points="760.949,-685.068 769.451,-678.746 758.862,-678.386 760.949,-685.068"/>
</g>
<!-- Verified&#45;&gt;Duplicate -->
<g id="edge40" class="edge"><title>Verified&#45;&gt;Duplicate</title>
<path fill="none" stroke="black" d="M318.046,-536.078C323.485,-574.854 342.096,-665.9 400,-708 483.493,-768.705 793.865,-772.714 932.891,-771.324"/>
<polygon fill="black" stroke="black" points="933.04,-774.823 943,-771.21 932.962,-767.823 933.04,-774.823"/>
</g>
<!-- Verified&#45;&gt;To be fixed later -->
<g id="edge42" class="edge"><title>Verified&#45;&gt;To be fixed later</title>
<path fill="none" stroke="black" d="M360.864,-524.688C456.633,-537.616 687.693,-561.606 876,-524 905.606,-518.087 936.972,-505.017 960.878,-493.46"/>
<polygon fill="black" stroke="black" points="962.57,-496.528 969.982,-488.958 959.467,-490.253 962.57,-496.528"/>
</g>
<!-- Won&#39;t fix -->
<g id="node7" class="node"><title>Won&#39;t fix</title>
<ellipse fill="none" stroke="black" cx="547" cy="-594" rx="55.1543" ry="18.3848"/>
<text text-anchor="middle" x="547" y="-590.4" font-family="Times Roman,serif" font-size="14.00">Won&#39;t fix</text>
</g>
<!-- Verified&#45;&gt;Won&#39;t fix -->
<g id="edge44" class="edge"><title>Verified&#45;&gt;Won&#39;t fix</title>
<path fill="none" stroke="black" d="M341.288,-533.534C357.551,-542.94 379.42,-554.524 400,-562 427.754,-572.082 459.665,-579.5 486.647,-584.641"/>
<polygon fill="black" stroke="black" points="486.259,-588.128 496.728,-586.5 487.529,-581.244 486.259,-588.128"/>
</g>
<!-- Verified&#45;&gt;Can&#39;t repeat -->
<g id="edge38" class="edge"><title>Verified&#45;&gt;Can&#39;t repeat</title>
<path fill="none" stroke="black" d="M363.525,-515.311C435.837,-510.417 577.405,-497.676 694,-468 791.235,-443.251 899.627,-396.883 958.048,-370.234"/>
<polygon fill="black" stroke="black" points="959.701,-373.326 967.33,-365.974 956.781,-366.965 959.701,-373.326"/>
</g>
<!-- Verified&#45;&gt;Need Feedback -->
<g id="edge36" class="edge"><title>Verified&#45;&gt;Need Feedback</title>
<path fill="none" stroke="black" d="M322.975,-500.066C335.482,-475.325 363.829,-432.597 400,-411 415.705,-401.623 433.818,-394.982 451.847,-390.466"/>
<polygon fill="black" stroke="black" points="452.875,-393.821 461.838,-388.171 451.308,-386.998 452.875,-393.821"/>
</g>
<!-- Verified&#45;&gt;Not a Bug -->
<g id="edge46" class="edge"><title>Verified&#45;&gt;Not a Bug</title>
<path fill="none" stroke="black" d="M320.903,-499.954C330.608,-467.553 355.293,-399.331 400,-361 555.2,-227.933 807.586,-198.112 929.969,-191.64"/>
<polygon fill="black" stroke="black" points="930.162,-195.135 939.977,-191.148 929.818,-188.143 930.162,-195.135"/>
</g>
<!-- Oracle Internal Bug System -->
<g id="node13" class="node"><title>Oracle Internal Bug System</title>
<ellipse fill="none" stroke="red" cx="547" cy="-648" rx="145.872" ry="18.3848"/>
<text text-anchor="middle" x="547" y="-644.4" font-family="Times Roman,serif" font-size="14.00">Oracle Internal Bug System</text>
</g>
<!-- Verified&#45;&gt;Oracle Internal Bug System -->
<g id="edge48" class="edge"><title>Verified&#45;&gt;Oracle Internal Bug System</title>
<path fill="none" stroke="black" stroke-dasharray="1,5" d="M325.242,-535.832C338.451,-559.394 365.046,-600.324 400,-621 408.122,-625.804 416.903,-629.788 425.992,-633.088"/>
<polygon fill="black" stroke="black" points="424.966,-636.436 435.56,-636.286 427.185,-629.797 424.966,-636.436"/>
</g>
<!-- No Feedback -->
<g id="node9" class="node"><title>No Feedback</title>
<ellipse fill="none" stroke="grey" cx="803" cy="-350" rx="72.832" ry="18.3848"/>
<text text-anchor="middle" x="803" y="-346.4" font-family="Times Roman,serif" font-size="14.00">No Feedback</text>
</g>
<!-- No Feedback&#45;&gt;Duplicate -->
<g id="edge70" class="edge"><title>No Feedback&#45;&gt;Duplicate</title>
<path fill="none" stroke="black" d="M811.508,-368.047C842.67,-434.148 950.702,-663.307 988.122,-742.682"/>
<polygon fill="black" stroke="black" points="985.094,-744.468 992.524,-752.02 991.425,-741.483 985.094,-744.468"/>
</g>
<!-- No Feedback&#45;&gt;Analyzing -->
<g id="edge68" class="edge"><title>No Feedback&#45;&gt;Analyzing</title>
<path fill="none" stroke="black" d="M729.737,-350.104C648.908,-350.66 515.025,-352.887 400,-361 344.764,-364.896 282.3,-372.225 236.737,-378.112"/>
<polygon fill="black" stroke="black" points="236.163,-374.657 226.7,-379.42 237.068,-381.598 236.163,-374.657"/>
</g>
<!-- No Feedback&#45;&gt;Verified -->
<g id="edge72" class="edge"><title>No Feedback&#45;&gt;Verified</title>
<path fill="none" stroke="black" d="M778.484,-367.267C757.04,-381.711 724.619,-401.987 694,-415 678.624,-421.535 464.141,-478.724 365.273,-504.954"/>
<polygon fill="black" stroke="black" points="364.277,-501.597 355.508,-507.544 366.071,-508.363 364.277,-501.597"/>
</g>
<!-- No Feedback&#45;&gt;To be fixed later -->
<g id="edge74" class="edge"><title>No Feedback&#45;&gt;To be fixed later</title>
<path fill="none" stroke="black" d="M830.531,-366.964C865.355,-388.421 925.442,-425.444 964.183,-449.315"/>
<polygon fill="black" stroke="black" points="962.715,-452.521 973.064,-454.787 966.387,-446.562 962.715,-452.521"/>
</g>
<!-- No Feedback&#45;&gt;Can&#39;t repeat -->
<g id="edge76" class="edge"><title>No Feedback&#45;&gt;Can&#39;t repeat</title>
<path fill="none" stroke="black" d="M876.165,-350C889.994,-350 904.546,-350 918.635,-350"/>
<polygon fill="black" stroke="black" points="918.795,-353.5 928.795,-350 918.795,-346.5 918.795,-353.5"/>
</g>
<!-- No Feedback&#45;&gt;Not a Bug -->
<g id="edge78" class="edge"><title>No Feedback&#45;&gt;Not a Bug</title>
<path fill="none" stroke="black" d="M824.566,-332.573C860.386,-303.627 932.162,-245.627 972.246,-213.235"/>
<polygon fill="black" stroke="black" points="974.48,-215.93 980.058,-206.923 970.08,-210.486 974.48,-215.93"/>
</g>
<!-- No Feedback&#45;&gt;Unsupported -->
<g id="edge80" class="edge"><title>No Feedback&#45;&gt;Unsupported</title>
<path fill="none" stroke="black" d="M816.356,-332.245C831.778,-311.312 857.406,-275.164 876,-242 894.869,-208.344 888.778,-193.815 912,-163 927.376,-142.596 949.12,-123.901 967.265,-110.158"/>
<polygon fill="black" stroke="black" points="969.356,-112.965 975.314,-104.204 965.193,-107.337 969.356,-112.965"/>
</g>
<!-- Need Feedback&#45;&gt;Duplicate -->
<g id="edge56" class="edge"><title>Need Feedback&#45;&gt;Duplicate</title>
<path fill="none" stroke="black" d="M572.363,-405.43C628.956,-444.74 768.975,-544.353 876,-640 914.247,-674.181 954.734,-717.854 978.93,-744.871"/>
<polygon fill="black" stroke="black" points="976.336,-747.221 985.602,-752.36 981.563,-742.565 976.336,-747.221"/>
</g>
<!-- Need Feedback&#45;&gt;Analyzing -->
<g id="edge54" class="edge"><title>Need Feedback&#45;&gt;Analyzing</title>
<path fill="none" stroke="black" d="M465.839,-393.457C398.417,-394.815 303.591,-394.452 240.078,-392.526"/>
<polygon fill="black" stroke="black" points="239.881,-389.018 229.772,-392.19 239.652,-396.014 239.881,-389.018"/>
</g>
<!-- Need Feedback&#45;&gt;Verified -->
<g id="edge58" class="edge"><title>Need Feedback&#45;&gt;Verified</title>
<path fill="none" stroke="black" d="M485.812,-400.6C458.073,-405.581 425.789,-413.602 400,-429 373.401,-444.882 351.033,-472.191 336.083,-492.536"/>
<polygon fill="black" stroke="black" points="333.152,-490.617 330.14,-500.775 338.829,-494.712 333.152,-490.617"/>
</g>
<!-- Need Feedback&#45;&gt;To be fixed later -->
<g id="edge60" class="edge"><title>Need Feedback&#45;&gt;To be fixed later</title>
<path fill="none" stroke="black" d="M611.084,-399.857C693.694,-415.142 837.143,-441.683 925.115,-457.96"/>
<polygon fill="black" stroke="black" points="924.562,-461.417 935.032,-459.794 925.836,-454.533 924.562,-461.417"/>
</g>
<!-- Need Feedback&#45;&gt;Can&#39;t repeat -->
<g id="edge62" class="edge"><title>Need Feedback&#45;&gt;Can&#39;t repeat</title>
<path fill="none" stroke="black" d="M631.849,-389.327C698.481,-389.366 793.476,-387.208 876,-377 897.397,-374.353 920.548,-369.829 941.042,-365.233"/>
<polygon fill="black" stroke="black" points="941.906,-368.626 950.871,-362.979 940.341,-361.803 941.906,-368.626"/>
</g>
<!-- Need Feedback&#45;&gt;No Feedback -->
<g id="edge52" class="edge"><title>Need Feedback&#45;&gt;No Feedback</title>
<path fill="none" stroke="black" d="M616.615,-377.667C651.787,-372.446 694.444,-366.114 730.069,-360.826"/>
<polygon fill="black" stroke="black" points="731.021,-364.223 740.399,-359.292 729.993,-357.299 731.021,-364.223"/>
</g>
<!-- Need Feedback&#45;&gt;Not a Bug -->
<g id="edge64" class="edge"><title>Need Feedback&#45;&gt;Not a Bug</title>
<path fill="none" stroke="black" d="M584.153,-371.797C667.417,-335.483 868.615,-247.736 957.519,-208.963"/>
<polygon fill="black" stroke="black" points="959.012,-212.13 966.779,-204.925 956.213,-205.714 959.012,-212.13"/>
</g>
<!-- Need Feedback&#45;&gt;Unsupported -->
<g id="edge66" class="edge"><title>Need Feedback&#45;&gt;Unsupported</title>
<path fill="none" stroke="black" d="M567.71,-370.305C600.915,-342.285 668.584,-286.619 730,-245 809.058,-191.426 906.963,-137.112 960.801,-108.21"/>
<polygon fill="black" stroke="black" points="962.524,-111.258 969.69,-103.454 959.221,-105.085 962.524,-111.258"/>
</g>
<!-- Oracle Internal Bug System&#45;&gt;Closed -->
<g id="edge50" class="edge"><title>Oracle Internal Bug System&#45;&gt;Closed</title>
<path fill="none" stroke="black" stroke-dasharray="1,5" d="M672.75,-657.333C699.835,-659.343 727.053,-661.363 749.554,-663.033"/>
<polygon fill="black" stroke="black" points="749.311,-666.525 759.543,-663.775 749.829,-659.544 749.311,-666.525"/>
</g>
</g>
</svg>
