<?xml version="1.0" encoding="UTF-8" standalone="no"?>
<!DOCTYPE svg PUBLIC "-//W3C//DTD SVG 1.1//EN"
 "http://www.w3.org/Graphics/SVG/1.1/DTD/svg11.dtd">
<!-- Generated by graphviz version 2.26.3 (20100126.1600)
 -->
<!-- Title: mysql_history_graph Pages: 1 -->
<svg width="1162pt" height="564pt"
 viewBox="0.00 0.00 1162.00 564.00" xmlns="http://www.w3.org/2000/svg" xmlns:xlink="http://www.w3.org/1999/xlink">
<g id="graph1" class="graph" transform="scale(1 1) rotate(0) translate(4 560)">
<title>mysql_history_graph</title>
<polygon fill="white" stroke="white" points="-4,5 -4,-560 1159,-560 1159,5 -4,5"/>
<!-- MySQL 3.23 -->
<g id="node1" class="node"><title>MySQL 3.23</title>
<ellipse fill="none" stroke="black" cx="701" cy="-537" rx="70.9184" ry="18.3848"/>
<text text-anchor="middle" x="701" y="-533.4" font-family="Times Roman,serif" font-size="14.00">MySQL 3.23</text>
</g>
<!-- MySQL 4.0 -->
<g id="node3" class="node"><title>MySQL 4.0</title>
<ellipse fill="none" stroke="black" cx="701" cy="-463" rx="65.0538" ry="18.3848"/>
<text text-anchor="middle" x="701" y="-459.4" font-family="Times Roman,serif" font-size="14.00">MySQL 4.0</text>
</g>
<!-- MySQL 3.23&#45;&gt;MySQL 4.0 -->
<g id="edge2" class="edge"><title>MySQL 3.23&#45;&gt;MySQL 4.0</title>
<path fill="none" stroke="black" d="M701,-518.327C701,-510.264 701,-500.648 701,-491.711"/>
<polygon fill="black" stroke="black" points="704.5,-491.667 701,-481.667 697.5,-491.667 704.5,-491.667"/>
</g>
<!-- MySQL 4.1 -->
<g id="node5" class="node"><title>MySQL 4.1</title>
<ellipse fill="none" stroke="black" cx="701" cy="-389" rx="65.0538" ry="18.3848"/>
<text text-anchor="middle" x="701" y="-385.4" font-family="Times Roman,serif" font-size="14.00">MySQL 4.1</text>
</g>
<!-- MySQL 4.0&#45;&gt;MySQL 4.1 -->
<g id="edge4" class="edge"><title>MySQL 4.0&#45;&gt;MySQL 4.1</title>
<path fill="none" stroke="black" d="M701,-444.327C701,-436.264 701,-426.648 701,-417.711"/>
<polygon fill="black" stroke="black" points="704.5,-417.667 701,-407.667 697.5,-417.667 704.5,-417.667"/>
</g>
<!-- MySQL 5.0 -->
<g id="node7" class="node"><title>MySQL 5.0</title>
<ellipse fill="none" stroke="black" cx="701" cy="-315" rx="65.0538" ry="18.3848"/>
<text text-anchor="middle" x="701" y="-311.4" font-family="Times Roman,serif" font-size="14.00">MySQL 5.0</text>
</g>
<!-- MySQL 4.1&#45;&gt;MySQL 5.0 -->
<g id="edge6" class="edge"><title>MySQL 4.1&#45;&gt;MySQL 5.0</title>
<path fill="none" stroke="black" d="M701,-370.327C701,-362.264 701,-352.648 701,-343.711"/>
<polygon fill="black" stroke="black" points="704.5,-343.667 701,-333.667 697.5,-343.667 704.5,-343.667"/>
</g>
<!-- MySQL 5.1 -->
<g id="node9" class="node"><title>MySQL 5.1</title>
<ellipse fill="none" stroke="black" cx="607" cy="-241" rx="65.0538" ry="18.3848"/>
<text text-anchor="middle" x="607" y="-237.4" font-family="Times Roman,serif" font-size="14.00">MySQL 5.1</text>
</g>
<!-- MySQL 5.0&#45;&gt;MySQL 5.1 -->
<g id="edge8" class="edge"><title>MySQL 5.0&#45;&gt;MySQL 5.1</title>
<path fill="none" stroke="black" d="M678.723,-297.463C666.314,-287.694 650.691,-275.395 637.196,-264.772"/>
<polygon fill="black" stroke="black" points="639.139,-261.847 629.117,-258.411 634.809,-267.347 639.139,-261.847"/>
</g>
<!-- Percona Server 5.0 -->
<g id="node27" class="node"><title>Percona Server 5.0</title>
<ellipse fill="none" stroke="black" cx="795" cy="-241" rx="104.86" ry="18.3848"/>
<text text-anchor="middle" x="795" y="-237.4" font-family="Times Roman,serif" font-size="14.00">Percona Server 5.0</text>
</g>
<!-- MySQL 5.0&#45;&gt;Percona Server 5.0 -->
<g id="edge26" class="edge"><title>MySQL 5.0&#45;&gt;Percona Server 5.0</title>
<path fill="none" stroke="black" d="M723.277,-297.463C735.416,-287.907 750.631,-275.929 763.921,-265.467"/>
<polygon fill="black" stroke="black" points="766.209,-268.12 771.902,-259.184 761.879,-262.619 766.209,-268.12"/>
</g>
<!-- MySQL 5.5 -->
<g id="node11" class="node"><title>MySQL 5.5</title>
<ellipse fill="none" stroke="black" cx="221" cy="-167" rx="65.0538" ry="18.3848"/>
<text text-anchor="middle" x="221" y="-163.4" font-family="Times Roman,serif" font-size="14.00">MySQL 5.5</text>
</g>
<!-- MySQL 5.1&#45;&gt;MySQL 5.5 -->
<g id="edge10" class="edge"><title>MySQL 5.1&#45;&gt;MySQL 5.5</title>
<path fill="none" stroke="black" d="M549.524,-232.226C486.729,-222.324 383.301,-205.089 295,-186 289.571,-184.826 283.938,-183.528 278.314,-182.178"/>
<polygon fill="black" stroke="black" points="278.79,-178.691 268.243,-179.706 277.121,-185.489 278.79,-178.691"/>
</g>
<!-- MySQL 6.0 -->
<g id="node15" class="node"><title>MySQL 6.0</title>
<ellipse fill="none" stroke="grey" stroke-dasharray="5,2" cx="369" cy="-167" rx="65.0538" ry="18.3848"/>
<text text-anchor="middle" x="369" y="-163.4" font-family="Times Roman,serif" font-size="14.00">MySQL 6.0</text>
</g>
<!-- MySQL 5.1&#45;&gt;MySQL 6.0 -->
<g id="edge14" class="edge"><title>MySQL 5.1&#45;&gt;MySQL 6.0</title>
<path fill="none" stroke="black" stroke-dasharray="5,2" d="M563.07,-227.341C523.445,-215.021 465.05,-196.864 422.672,-183.688"/>
<polygon fill="black" stroke="black" points="423.665,-180.331 413.077,-180.705 421.587,-187.016 423.665,-180.331"/>
</g>
<!-- MariaDB 5.1 -->
<g id="node17" class="node"><title>MariaDB 5.1</title>
<ellipse fill="none" stroke="black" cx="525" cy="-167" rx="72.832" ry="18.3848"/>
<text text-anchor="middle" x="525" y="-163.4" font-family="Times Roman,serif" font-size="14.00">MariaDB 5.1</text>
</g>
<!-- MySQL 5.1&#45;&gt;MariaDB 5.1 -->
<g id="edge16" class="edge"><title>MySQL 5.1&#45;&gt;MariaDB 5.1</title>
<path fill="none" stroke="black" d="M587.15,-223.087C576.752,-213.703 563.855,-202.064 552.509,-191.825"/>
<polygon fill="black" stroke="black" points="554.72,-189.106 544.951,-185.005 550.03,-194.303 554.72,-189.106"/>
</g>
<!-- MariaDB 5.2 -->
<g id="node19" class="node"><title>MariaDB 5.2</title>
<ellipse fill="none" stroke="black" cx="689" cy="-167" rx="72.832" ry="18.3848"/>
<text text-anchor="middle" x="689" y="-163.4" font-family="Times Roman,serif" font-size="14.00">MariaDB 5.2</text>
</g>
<!-- MySQL 5.1&#45;&gt;MariaDB 5.2 -->
<g id="edge18" class="edge"><title>MySQL 5.1&#45;&gt;MariaDB 5.2</title>
<path fill="none" stroke="black" d="M626.85,-223.087C637.248,-213.703 650.145,-202.064 661.491,-191.825"/>
<polygon fill="black" stroke="black" points="663.97,-194.303 669.049,-185.005 659.28,-189.106 663.97,-194.303"/>
</g>
<!-- MariaDB 5.3 -->
<g id="node21" class="node"><title>MariaDB 5.3</title>
<ellipse fill="none" stroke="black" cx="853" cy="-167" rx="72.832" ry="18.3848"/>
<text text-anchor="middle" x="853" y="-163.4" font-family="Times Roman,serif" font-size="14.00">MariaDB 5.3</text>
</g>
<!-- MySQL 5.1&#45;&gt;MariaDB 5.3 -->
<g id="edge20" class="edge"><title>MySQL 5.1&#45;&gt;MariaDB 5.3</title>
<path fill="none" stroke="black" d="M651.834,-227.513C692.419,-215.305 752.389,-197.265 796.291,-184.059"/>
<polygon fill="black" stroke="black" points="797.394,-187.382 805.961,-181.15 795.377,-180.679 797.394,-187.382"/>
</g>
<!-- Percona Server 5.1 -->
<g id="node29" class="node"><title>Percona Server 5.1</title>
<ellipse fill="none" stroke="black" cx="1049" cy="-167" rx="104.86" ry="18.3848"/>
<text text-anchor="middle" x="1049" y="-163.4" font-family="Times Roman,serif" font-size="14.00">Percona Server 5.1</text>
</g>
<!-- MySQL 5.1&#45;&gt;Percona Server 5.1 -->
<g id="edge28" class="edge"><title>MySQL 5.1&#45;&gt;Percona Server 5.1</title>
<path fill="none" stroke="black" d="M653.797,-228.152C662.785,-225.921 672.153,-223.757 681,-222 792.833,-199.789 822.314,-203.373 935,-186 944.199,-184.582 953.807,-183.054 963.374,-181.502"/>
<polygon fill="black" stroke="black" points="964.004,-184.946 973.31,-179.88 962.877,-178.037 964.004,-184.946"/>
</g>
<!-- MySQL 5.6 -->
<g id="node13" class="node"><title>MySQL 5.6</title>
<ellipse fill="none" stroke="black" cx="65" cy="-93" rx="65.0538" ry="18.3848"/>
<text text-anchor="middle" x="65" y="-89.4" font-family="Times Roman,serif" font-size="14.00">MySQL 5.6</text>
</g>
<!-- MySQL 5.5&#45;&gt;MySQL 5.6 -->
<g id="edge12" class="edge"><title>MySQL 5.5&#45;&gt;MySQL 5.6</title>
<path fill="none" stroke="black" d="M187.534,-151.125C164.274,-140.092 133.068,-125.289 107.97,-113.383"/>
<polygon fill="black" stroke="black" points="109.214,-110.1 98.6794,-108.976 106.214,-116.424 109.214,-110.1"/>
</g>
<!-- MariaDB 5.5 -->
<g id="node23" class="node"><title>MariaDB 5.5</title>
<ellipse fill="none" stroke="black" cx="221" cy="-93" rx="72.832" ry="18.3848"/>
<text text-anchor="middle" x="221" y="-89.4" font-family="Times Roman,serif" font-size="14.00">MariaDB 5.5</text>
</g>
<!-- MySQL 5.5&#45;&gt;MariaDB 5.5 -->
<g id="edge22" class="edge"><title>MySQL 5.5&#45;&gt;MariaDB 5.5</title>
<path fill="none" stroke="black" d="M221,-148.327C221,-140.264 221,-130.648 221,-121.711"/>
<polygon fill="black" stroke="black" points="224.5,-121.667 221,-111.667 217.5,-121.667 224.5,-121.667"/>
</g>
<!-- Percona Server 5.5 -->
<g id="node31" class="node"><title>Percona Server 5.5</title>
<ellipse fill="none" stroke="black" cx="417" cy="-93" rx="104.86" ry="18.3848"/>
<text text-anchor="middle" x="417" y="-89.4" font-family="Times Roman,serif" font-size="14.00">Percona Server 5.5</text>
</g>
<!-- MySQL 5.5&#45;&gt;Percona Server 5.5 -->
<g id="edge30" class="edge"><title>MySQL 5.5&#45;&gt;Percona Server 5.5</title>
<path fill="none" stroke="black" d="M260.192,-152.203C289.679,-141.07 330.437,-125.682 363.009,-113.385"/>
<polygon fill="black" stroke="black" points="364.277,-116.647 372.396,-109.84 361.805,-110.098 364.277,-116.647"/>
</g>
<!-- MariaDB 10.0 -->
<g id="node25" class="node"><title>MariaDB 10.0</title>
<ellipse fill="none" stroke="black" cx="221" cy="-19" rx="79.196" ry="18.3848"/>
<text text-anchor="middle" x="221" y="-15.4" font-family="Times Roman,serif" font-size="14.00">MariaDB 10.0</text>
</g>
<!-- MariaDB 5.5&#45;&gt;MariaDB 10.0 -->
<g id="edge24" class="edge"><title>MariaDB 5.5&#45;&gt;MariaDB 10.0</title>
<path fill="none" stroke="black" d="M221,-74.3267C221,-66.2639 221,-56.6477 221,-47.7115"/>
<polygon fill="black" stroke="black" points="224.5,-47.6673 221,-37.6674 217.5,-47.6674 224.5,-47.6673"/>
</g>
</g>
</svg>
