<?xml version="1.0" encoding="UTF-8" standalone="no"?>
<!DOCTYPE svg PUBLIC "-//W3C//DTD SVG 1.1//EN"
 "http://www.w3.org/Graphics/SVG/1.1/DTD/svg11.dtd">
<!-- Generated by graphviz version 2.26.3 (20100126.1600)
 -->
<!-- Title: mysql_history_graph Pages: 1 -->
<svg width="1261pt" height="786pt"
 viewBox="0.00 0.00 1261.00 786.00" xmlns="http://www.w3.org/2000/svg" xmlns:xlink="http://www.w3.org/1999/xlink">
<g id="graph1" class="graph" transform="scale(1 1) rotate(0) translate(4 782)">
<title>mysql_history_graph</title>
<polygon fill="white" stroke="white" points="-4,5 -4,-782 1258,-782 1258,5 -4,5"/>
<!-- MySQL 3.23 -->
<g id="node1" class="node"><title>MySQL 3.23</title>
<ellipse fill="none" stroke="red" cx="805" cy="-759" rx="70.9184" ry="18.3848"/>
<text text-anchor="middle" x="805" y="-755.4" font-family="Times Roman,serif" font-size="14.00">MySQL 3.23</text>
</g>
<!-- MySQL 4.0 -->
<g id="node2" class="node"><title>MySQL 4.0</title>
<ellipse fill="none" stroke="red" cx="805" cy="-685" rx="65.0538" ry="18.3848"/>
<text text-anchor="middle" x="805" y="-681.4" font-family="Times Roman,serif" font-size="14.00">MySQL 4.0</text>
</g>
<!-- MySQL 3.23&#45;&gt;MySQL 4.0 -->
<g id="edge2" class="edge"><title>MySQL 3.23&#45;&gt;MySQL 4.0</title>
<path fill="none" stroke="black" d="M805,-740.327C805,-732.264 805,-722.648 805,-713.711"/>
<polygon fill="black" stroke="black" points="808.5,-713.667 805,-703.667 801.5,-713.667 808.5,-713.667"/>
</g>
<!-- MySQL 4.1 -->
<g id="node3" class="node"><title>MySQL 4.1</title>
<ellipse fill="none" stroke="red" cx="805" cy="-611" rx="65.0538" ry="18.3848"/>
<text text-anchor="middle" x="805" y="-607.4" font-family="Times Roman,serif" font-size="14.00">MySQL 4.1</text>
</g>
<!-- MySQL 4.0&#45;&gt;MySQL 4.1 -->
<g id="edge4" class="edge"><title>MySQL 4.0&#45;&gt;MySQL 4.1</title>
<path fill="none" stroke="black" d="M805,-666.327C805,-658.264 805,-648.648 805,-639.711"/>
<polygon fill="black" stroke="black" points="808.5,-639.667 805,-629.667 801.5,-639.667 808.5,-639.667"/>
</g>
<!-- MySQL 5.0 -->
<g id="node4" class="node"><title>MySQL 5.0</title>
<ellipse fill="none" stroke="red" cx="805" cy="-537" rx="65.0538" ry="18.3848"/>
<text text-anchor="middle" x="805" y="-533.4" font-family="Times Roman,serif" font-size="14.00">MySQL 5.0</text>
</g>
<!-- MySQL 4.1&#45;&gt;MySQL 5.0 -->
<g id="edge6" class="edge"><title>MySQL 4.1&#45;&gt;MySQL 5.0</title>
<path fill="none" stroke="black" d="M805,-592.327C805,-584.264 805,-574.648 805,-565.711"/>
<polygon fill="black" stroke="black" points="808.5,-565.667 805,-555.667 801.5,-565.667 808.5,-565.667"/>
</g>
<!-- MySQL 5.1 -->
<g id="node5" class="node"><title>MySQL 5.1</title>
<ellipse fill="none" stroke="red" cx="656" cy="-463" rx="65.0538" ry="18.3848"/>
<text text-anchor="middle" x="656" y="-459.4" font-family="Times Roman,serif" font-size="14.00">MySQL 5.1</text>
</g>
<!-- MySQL 5.0&#45;&gt;MySQL 5.1 -->
<g id="edge8" class="edge"><title>MySQL 5.0&#45;&gt;MySQL 5.1</title>
<path fill="none" stroke="black" d="M772.669,-520.943C750.681,-510.023 721.386,-495.474 697.652,-483.686"/>
<polygon fill="black" stroke="black" points="699.038,-480.467 688.525,-479.153 695.924,-486.736 699.038,-480.467"/>
</g>
<!-- Percona Server 5.0 -->
<g id="node48" class="node"><title>Percona Server 5.0</title>
<ellipse fill="none" stroke="orange" cx="955" cy="-463" rx="104.86" ry="18.3848"/>
<text text-anchor="middle" x="955" y="-459.4" font-family="Times Roman,serif" font-size="14.00">Percona Server 5.0</text>
</g>
<!-- MySQL 5.0&#45;&gt;Percona Server 5.0 -->
<g id="edge56" class="edge"><title>MySQL 5.0&#45;&gt;Percona Server 5.0</title>
<path fill="none" stroke="black" d="M837.548,-520.943C858.923,-510.398 887.157,-496.469 910.586,-484.911"/>
<polygon fill="black" stroke="black" points="912.215,-488.01 919.635,-480.447 909.118,-481.732 912.215,-488.01"/>
</g>
<!-- MySQL 5.5 -->
<g id="node6" class="node"><title>MySQL 5.5</title>
<ellipse fill="none" stroke="red" cx="884" cy="-241" rx="65.0538" ry="18.3848"/>
<text text-anchor="middle" x="884" y="-237.4" font-family="Times Roman,serif" font-size="14.00">MySQL 5.5</text>
</g>
<!-- MySQL 5.1&#45;&gt;MySQL 5.5 -->
<g id="edge10" class="edge"><title>MySQL 5.1&#45;&gt;MySQL 5.5</title>
<path fill="none" stroke="black" d="M708.292,-451.894C752.651,-441.506 811.752,-425.071 829,-408 866.815,-370.574 878.633,-306.699 882.324,-269.738"/>
<polygon fill="black" stroke="black" points="885.824,-269.895 883.197,-259.631 878.85,-269.292 885.824,-269.895"/>
</g>
<!-- MySQL 5.4 -->
<g id="node12" class="node"><title>MySQL 5.4</title>
<ellipse fill="none" stroke="red" stroke-dasharray="1,5" cx="65" cy="-389" rx="65.0538" ry="18.3848"/>
<text text-anchor="middle" x="65" y="-385.4" font-family="Times Roman,serif" font-size="14.00">MySQL 5.4</text>
</g>
<!-- MySQL 5.1&#45;&gt;MySQL 5.4 -->
<g id="edge12" class="edge"><title>MySQL 5.1&#45;&gt;MySQL 5.4</title>
<path fill="none" stroke="black" stroke-dasharray="5,2" d="M592.306,-459.215C494.301,-452.719 300.887,-437.234 139,-408 133.23,-406.958 127.247,-405.71 121.295,-404.357"/>
<polygon fill="black" stroke="black" points="121.891,-400.901 111.353,-402 120.276,-407.712 121.891,-400.901"/>
</g>
<!-- MySQL 6.0 -->
<g id="node14" class="node"><title>MySQL 6.0</title>
<ellipse fill="none" stroke="red" stroke-dasharray="1,5" cx="213" cy="-389" rx="65.0538" ry="18.3848"/>
<text text-anchor="middle" x="213" y="-385.4" font-family="Times Roman,serif" font-size="14.00">MySQL 6.0</text>
</g>
<!-- MySQL 5.1&#45;&gt;MySQL 6.0 -->
<g id="edge16" class="edge"><title>MySQL 5.1&#45;&gt;MySQL 6.0</title>
<path fill="none" stroke="black" stroke-dasharray="5,2" d="M595.588,-455.943C522.232,-446.926 394.922,-429.837 287,-408 281.556,-406.898 275.913,-405.649 270.282,-404.329"/>
<polygon fill="black" stroke="black" points="270.746,-400.841 260.204,-401.895 269.103,-407.645 270.746,-400.841"/>
</g>
<!-- MySQL Cluster 6.2 -->
<g id="node18" class="node"><title>MySQL Cluster 6.2</title>
<ellipse fill="none" stroke="#cd0000" cx="399" cy="-389" rx="103.238" ry="18.3848"/>
<text text-anchor="middle" x="399" y="-385.4" font-family="Times Roman,serif" font-size="14.00">MySQL Cluster 6.2</text>
</g>
<!-- MySQL 5.1&#45;&gt;MySQL Cluster 6.2 -->
<g id="edge18" class="edge"><title>MySQL 5.1&#45;&gt;MySQL Cluster 6.2</title>
<path fill="none" stroke="black" d="M610.054,-449.77C569.297,-438.035 509.326,-420.767 463.718,-407.635"/>
<polygon fill="black" stroke="black" points="464.502,-404.218 453.924,-404.815 462.565,-410.945 464.502,-404.218"/>
</g>
<!-- MySQL Cluster 6.3 -->
<g id="node19" class="node"><title>MySQL Cluster 6.3</title>
<ellipse fill="none" stroke="#cd0000" cx="437" cy="-315" rx="103.238" ry="18.3848"/>
<text text-anchor="middle" x="437" y="-311.4" font-family="Times Roman,serif" font-size="14.00">MySQL Cluster 6.3</text>
</g>
<!-- MySQL 5.1&#45;&gt;MySQL Cluster 6.3 -->
<g id="edge20" class="edge"><title>MySQL 5.1&#45;&gt;MySQL Cluster 6.3</title>
<path fill="none" stroke="black" d="M621.784,-447.02C601.418,-436.914 575.45,-422.964 554,-408 533.083,-393.407 530.808,-386.066 511,-370 498.048,-359.495 483.383,-348.432 470.544,-339.004"/>
<polygon fill="black" stroke="black" points="472.548,-336.134 462.406,-333.067 468.422,-341.789 472.548,-336.134"/>
</g>
<!-- MySQL Cluster 7.0 -->
<g id="node20" class="node"><title>MySQL Cluster 7.0</title>
<ellipse fill="none" stroke="#cd0000" cx="475" cy="-241" rx="103.238" ry="18.3848"/>
<text text-anchor="middle" x="475" y="-237.4" font-family="Times Roman,serif" font-size="14.00">MySQL Cluster 7.0</text>
</g>
<!-- MySQL 5.1&#45;&gt;MySQL Cluster 7.0 -->
<g id="edge24" class="edge"><title>MySQL 5.1&#45;&gt;MySQL Cluster 7.0</title>
<path fill="none" stroke="black" d="M630.529,-445.818C617.558,-436.004 602.378,-422.731 592,-408 561.292,-364.41 581.231,-338.476 549,-296 539.802,-283.878 527.231,-273.175 515.061,-264.508"/>
<polygon fill="black" stroke="black" points="516.98,-261.58 506.745,-258.841 513.038,-267.365 516.98,-261.58"/>
</g>
<!-- MySQL Cluster 7.1 -->
<g id="node21" class="node"><title>MySQL Cluster 7.1</title>
<ellipse fill="none" stroke="#cd0000" cx="534" cy="-167" rx="103.238" ry="18.3848"/>
<text text-anchor="middle" x="534" y="-163.4" font-family="Times Roman,serif" font-size="14.00">MySQL Cluster 7.1</text>
</g>
<!-- MySQL 5.1&#45;&gt;MySQL Cluster 7.1 -->
<g id="edge28" class="edge"><title>MySQL 5.1&#45;&gt;MySQL Cluster 7.1</title>
<path fill="none" stroke="black" d="M643.566,-444.367C637.177,-434.035 629.755,-420.733 625,-408 595.483,-328.957 626.277,-296.675 587,-222 581.271,-211.107 572.729,-200.884 564.168,-192.276"/>
<polygon fill="black" stroke="black" points="566.358,-189.527 556.709,-185.151 561.523,-194.589 566.358,-189.527"/>
</g>
<!-- MariaDB 5.1 -->
<g id="node35" class="node"><title>MariaDB 5.1</title>
<ellipse fill="none" stroke="blue" cx="707" cy="-389" rx="72.832" ry="18.3848"/>
<text text-anchor="middle" x="707" y="-385.4" font-family="Times Roman,serif" font-size="14.00">MariaDB 5.1</text>
</g>
<!-- MySQL 5.1&#45;&gt;MariaDB 5.1 -->
<g id="edge40" class="edge"><title>MySQL 5.1&#45;&gt;MariaDB 5.1</title>
<path fill="none" stroke="black" d="M668.607,-444.708C674.614,-435.991 681.917,-425.395 688.534,-415.794"/>
<polygon fill="black" stroke="black" points="691.569,-417.558 694.362,-407.338 685.805,-413.586 691.569,-417.558"/>
</g>
<!-- MariaDB 5.2 -->
<g id="node36" class="node"><title>MariaDB 5.2</title>
<ellipse fill="none" stroke="blue" cx="728" cy="-315" rx="72.832" ry="18.3848"/>
<text text-anchor="middle" x="728" y="-311.4" font-family="Times Roman,serif" font-size="14.00">MariaDB 5.2</text>
</g>
<!-- MySQL 5.1&#45;&gt;MariaDB 5.2 -->
<g id="edge42" class="edge"><title>MySQL 5.1&#45;&gt;MariaDB 5.2</title>
<path fill="none" stroke="black" d="M713.588,-454.306C741.311,-446.908 772.126,-433.238 789,-408 798.387,-393.96 795.864,-385.431 789,-370 783.604,-357.869 774.064,-347.287 764.108,-338.731"/>
<polygon fill="black" stroke="black" points="766.096,-335.84 756.105,-332.314 761.717,-341.301 766.096,-335.84"/>
</g>
<!-- MariaDB 5.3 -->
<g id="node37" class="node"><title>MariaDB 5.3</title>
<ellipse fill="none" stroke="blue" cx="728" cy="-241" rx="72.832" ry="18.3848"/>
<text text-anchor="middle" x="728" y="-237.4" font-family="Times Roman,serif" font-size="14.00">MariaDB 5.3</text>
</g>
<!-- MySQL 5.1&#45;&gt;MariaDB 5.3 -->
<g id="edge46" class="edge"><title>MySQL 5.1&#45;&gt;MariaDB 5.3</title>
<path fill="none" stroke="black" d="M705.881,-451.019C744.588,-440.628 793.673,-424.671 806,-408 835.613,-367.949 833.441,-339.949 810,-296 802.39,-281.732 789.253,-270.511 775.697,-262.028"/>
<polygon fill="black" stroke="black" points="777.186,-258.846 766.781,-256.845 773.668,-264.897 777.186,-258.846"/>
</g>
<!-- Percona Server 5.1 -->
<g id="node49" class="node"><title>Percona Server 5.1</title>
<ellipse fill="none" stroke="orange" cx="1017" cy="-389" rx="104.86" ry="18.3848"/>
<text text-anchor="middle" x="1017" y="-385.4" font-family="Times Roman,serif" font-size="14.00">Percona Server 5.1</text>
</g>
<!-- MySQL 5.1&#45;&gt;Percona Server 5.1 -->
<g id="edge58" class="edge"><title>MySQL 5.1&#45;&gt;Percona Server 5.1</title>
<path fill="none" stroke="black" d="M708.879,-452.161C769.358,-439.763 868.972,-419.344 938.511,-405.089"/>
<polygon fill="black" stroke="black" points="939.451,-408.469 948.545,-403.032 938.046,-401.612 939.451,-408.469"/>
</g>
<!-- MySQL 5.6 -->
<g id="node13" class="node"><title>MySQL 5.6</title>
<ellipse fill="none" stroke="red" stroke-dasharray="5,2" cx="960" cy="-167" rx="65.0538" ry="18.3848"/>
<text text-anchor="middle" x="960" y="-163.4" font-family="Times Roman,serif" font-size="14.00">MySQL 5.6</text>
</g>
<!-- MySQL 5.5&#45;&gt;MySQL 5.6 -->
<g id="edge14" class="edge"><title>MySQL 5.5&#45;&gt;MySQL 5.6</title>
<path fill="none" stroke="black" stroke-dasharray="5,2" d="M902.397,-223.087C911.942,-213.793 923.759,-202.288 934.2,-192.121"/>
<polygon fill="black" stroke="black" points="936.785,-194.489 941.509,-185.005 931.902,-189.473 936.785,-194.489"/>
</g>
<!-- MySQL Cluster 7.2 -->
<g id="node22" class="node"><title>MySQL Cluster 7.2</title>
<ellipse fill="none" stroke="#cd0000" cx="547" cy="-93" rx="103.238" ry="18.3848"/>
<text text-anchor="middle" x="547" y="-89.4" font-family="Times Roman,serif" font-size="14.00">MySQL Cluster 7.2</text>
</g>
<!-- MySQL 5.5&#45;&gt;MySQL Cluster 7.2 -->
<g id="edge32" class="edge"><title>MySQL 5.5&#45;&gt;MySQL Cluster 7.2</title>
<path fill="none" stroke="black" d="M874.454,-222.418C862.425,-200.967 839.684,-166.298 810,-148 794.664,-138.546 702.064,-120.474 631.036,-107.627"/>
<polygon fill="black" stroke="black" points="631.628,-104.178 621.167,-105.851 630.388,-111.067 631.628,-104.178"/>
</g>
<!-- MySQL Cluster 7.3 -->
<g id="node23" class="node"><title>MySQL Cluster 7.3</title>
<ellipse fill="none" stroke="#cd0000" stroke-dasharray="5,2" cx="713" cy="-19" rx="103.238" ry="18.3848"/>
<text text-anchor="middle" x="713" y="-15.4" font-family="Times Roman,serif" font-size="14.00">MySQL Cluster 7.3</text>
</g>
<!-- MySQL 5.5&#45;&gt;MySQL Cluster 7.3 -->
<g id="edge36" class="edge"><title>MySQL 5.5&#45;&gt;MySQL Cluster 7.3</title>
<path fill="none" stroke="black" stroke-dasharray="5,2" d="M883.441,-222.323C881.474,-188.691 872.795,-117.413 835,-74 820.972,-57.887 801.281,-46.2532 781.806,-37.9598"/>
<polygon fill="black" stroke="black" points="782.872,-34.617 772.288,-34.1519 780.272,-41.1161 782.872,-34.617"/>
</g>
<!-- MariaDB 5.5 -->
<g id="node38" class="node"><title>MariaDB 5.5</title>
<ellipse fill="none" stroke="blue" cx="728" cy="-167" rx="72.832" ry="18.3848"/>
<text text-anchor="middle" x="728" y="-163.4" font-family="Times Roman,serif" font-size="14.00">MariaDB 5.5</text>
</g>
<!-- MySQL 5.5&#45;&gt;MariaDB 5.5 -->
<g id="edge50" class="edge"><title>MySQL 5.5&#45;&gt;MariaDB 5.5</title>
<path fill="none" stroke="black" d="M850.534,-225.125C827.512,-214.205 796.707,-199.592 771.743,-187.75"/>
<polygon fill="black" stroke="black" points="773.025,-184.484 762.49,-183.361 770.025,-190.809 773.025,-184.484"/>
</g>
<!-- Percona Server 5.5 -->
<g id="node50" class="node"><title>Percona Server 5.5</title>
<ellipse fill="none" stroke="orange" cx="1148" cy="-167" rx="104.86" ry="18.3848"/>
<text text-anchor="middle" x="1148" y="-163.4" font-family="Times Roman,serif" font-size="14.00">Percona Server 5.5</text>
</g>
<!-- MySQL 5.5&#45;&gt;Percona Server 5.5 -->
<g id="edge62" class="edge"><title>MySQL 5.5&#45;&gt;Percona Server 5.5</title>
<path fill="none" stroke="black" d="M930.59,-227.941C972.602,-216.165 1034.84,-198.719 1081.97,-185.507"/>
<polygon fill="black" stroke="black" points="1083.11,-188.825 1091.79,-182.756 1081.22,-182.085 1083.11,-188.825"/>
</g>
<!-- Drizzle 7.0 -->
<g id="node56" class="node"><title>Drizzle 7.0</title>
<ellipse fill="none" stroke="#00008b" cx="213" cy="-315" rx="65.7609" ry="18.3848"/>
<text text-anchor="middle" x="213" y="-311.4" font-family="Times Roman,serif" font-size="14.00">Drizzle 7.0</text>
</g>
<!-- MySQL 6.0&#45;&gt;Drizzle 7.0 -->
<g id="edge66" class="edge"><title>MySQL 6.0&#45;&gt;Drizzle 7.0</title>
<path fill="none" stroke="black" d="M213,-370.327C213,-362.264 213,-352.648 213,-343.711"/>
<polygon fill="black" stroke="black" points="216.5,-343.667 213,-333.667 209.5,-343.667 216.5,-343.667"/>
</g>
<!-- MySQL Cluster 6.2&#45;&gt;MySQL Cluster 6.3 -->
<g id="edge22" class="edge"><title>MySQL Cluster 6.2&#45;&gt;MySQL Cluster 6.3</title>
<path fill="none" stroke="black" d="M408.589,-370.327C412.864,-362.001 417.99,-352.019 422.704,-342.84"/>
<polygon fill="black" stroke="black" points="425.959,-344.162 427.414,-333.667 419.732,-340.964 425.959,-344.162"/>
</g>
<!-- MySQL Cluster 6.3&#45;&gt;MySQL Cluster 7.0 -->
<g id="edge26" class="edge"><title>MySQL Cluster 6.3&#45;&gt;MySQL Cluster 7.0</title>
<path fill="none" stroke="black" d="M446.589,-296.327C450.864,-288.001 455.99,-278.019 460.704,-268.84"/>
<polygon fill="black" stroke="black" points="463.959,-270.162 465.414,-259.667 457.732,-266.964 463.959,-270.162"/>
</g>
<!-- MySQL Cluster 7.0&#45;&gt;MySQL Cluster 7.1 -->
<g id="edge30" class="edge"><title>MySQL Cluster 7.0&#45;&gt;MySQL Cluster 7.1</title>
<path fill="none" stroke="black" d="M489.888,-222.327C496.859,-213.584 505.285,-203.015 512.898,-193.467"/>
<polygon fill="black" stroke="black" points="515.824,-195.412 519.321,-185.411 510.35,-191.048 515.824,-195.412"/>
</g>
<!-- MySQL Cluster 7.1&#45;&gt;MySQL Cluster 7.2 -->
<g id="edge34" class="edge"><title>MySQL Cluster 7.1&#45;&gt;MySQL Cluster 7.2</title>
<path fill="none" stroke="black" d="M537.28,-148.327C538.697,-140.264 540.386,-130.648 541.956,-121.711"/>
<polygon fill="black" stroke="black" points="545.437,-122.122 543.721,-111.667 538.543,-120.911 545.437,-122.122"/>
</g>
<!-- MySQL Cluster 7.2&#45;&gt;MySQL Cluster 7.3 -->
<g id="edge38" class="edge"><title>MySQL Cluster 7.2&#45;&gt;MySQL Cluster 7.3</title>
<path fill="none" stroke="black" stroke-dasharray="5,2" d="M585.501,-75.8369C609.196,-65.2742 639.76,-51.6491 665.023,-40.3872"/>
<polygon fill="black" stroke="black" points="666.712,-43.4664 674.421,-36.198 663.862,-37.0729 666.712,-43.4664"/>
</g>
<!-- MariaDB 5.1&#45;&gt;MariaDB 5.2 -->
<g id="edge44" class="edge"><title>MariaDB 5.1&#45;&gt;MariaDB 5.2</title>
<path fill="none" stroke="black" d="M712.299,-370.327C714.612,-362.176 717.376,-352.438 719.935,-343.42"/>
<polygon fill="black" stroke="black" points="723.339,-344.243 722.703,-333.667 716.605,-342.332 723.339,-344.243"/>
</g>
<!-- MariaDB 5.2&#45;&gt;MariaDB 5.3 -->
<g id="edge48" class="edge"><title>MariaDB 5.2&#45;&gt;MariaDB 5.3</title>
<path fill="none" stroke="black" d="M728,-296.327C728,-288.264 728,-278.648 728,-269.711"/>
<polygon fill="black" stroke="black" points="731.5,-269.667 728,-259.667 724.5,-269.667 731.5,-269.667"/>
</g>
<!-- MariaDB 5.3&#45;&gt;MariaDB 5.5 -->
<g id="edge52" class="edge"><title>MariaDB 5.3&#45;&gt;MariaDB 5.5</title>
<path fill="none" stroke="black" d="M728,-222.327C728,-214.264 728,-204.648 728,-195.711"/>
<polygon fill="black" stroke="black" points="731.5,-195.667 728,-185.667 724.5,-195.667 731.5,-195.667"/>
</g>
<!-- MariaDB 10.0 -->
<g id="node39" class="node"><title>MariaDB 10.0</title>
<ellipse fill="none" stroke="blue" stroke-dasharray="5,2" cx="747" cy="-93" rx="79.196" ry="18.3848"/>
<text text-anchor="middle" x="747" y="-89.4" font-family="Times Roman,serif" font-size="14.00">MariaDB 10.0</text>
</g>
<!-- MariaDB 5.5&#45;&gt;MariaDB 10.0 -->
<g id="edge54" class="edge"><title>MariaDB 5.5&#45;&gt;MariaDB 10.0</title>
<path fill="none" stroke="black" stroke-dasharray="5,2" d="M732.795,-148.327C734.887,-140.176 737.387,-130.438 739.703,-121.42"/>
<polygon fill="black" stroke="black" points="743.11,-122.224 742.207,-111.667 736.33,-120.483 743.11,-122.224"/>
</g>
<!-- Percona Server 5.0&#45;&gt;Percona Server 5.1 -->
<g id="edge60" class="edge"><title>Percona Server 5.0&#45;&gt;Percona Server 5.1</title>
<path fill="none" stroke="black" d="M970.645,-444.327C978.044,-435.496 987.004,-424.802 995.067,-415.178"/>
<polygon fill="black" stroke="black" points="997.835,-417.324 1001.57,-407.411 992.469,-412.828 997.835,-417.324"/>
</g>
<!-- Percona Server 5.1&#45;&gt;Percona Server 5.5 -->
<g id="edge64" class="edge"><title>Percona Server 5.1&#45;&gt;Percona Server 5.5</title>
<path fill="none" stroke="black" d="M1027.94,-370.454C1051.01,-331.359 1104.73,-240.325 1131.8,-194.455"/>
<polygon fill="black" stroke="black" points="1134.93,-196.04 1137,-185.649 1128.9,-192.483 1134.93,-196.04"/>
</g>
<!-- Drizzle 7.1 -->
<g id="node57" class="node"><title>Drizzle 7.1</title>
<ellipse fill="none" stroke="#00008b" cx="213" cy="-241" rx="65.7609" ry="18.3848"/>
<text text-anchor="middle" x="213" y="-237.4" font-family="Times Roman,serif" font-size="14.00">Drizzle 7.1</text>
</g>
<!-- Drizzle 7.0&#45;&gt;Drizzle 7.1 -->
<g id="edge68" class="edge"><title>Drizzle 7.0&#45;&gt;Drizzle 7.1</title>
<path fill="none" stroke="black" d="M213,-296.327C213,-288.264 213,-278.648 213,-269.711"/>
<polygon fill="black" stroke="black" points="216.5,-269.667 213,-259.667 209.5,-269.667 216.5,-269.667"/>
</g>
<!-- Drizzle 7.2 -->
<g id="node58" class="node"><title>Drizzle 7.2</title>
<ellipse fill="none" stroke="#00008b" cx="213" cy="-167" rx="65.7609" ry="18.3848"/>
<text text-anchor="middle" x="213" y="-163.4" font-family="Times Roman,serif" font-size="14.00">Drizzle 7.2</text>
</g>
<!-- Drizzle 7.1&#45;&gt;Drizzle 7.2 -->
<g id="edge70" class="edge"><title>Drizzle 7.1&#45;&gt;Drizzle 7.2</title>
<path fill="none" stroke="black" d="M213,-222.327C213,-214.264 213,-204.648 213,-195.711"/>
<polygon fill="black" stroke="black" points="216.5,-195.667 213,-185.667 209.5,-195.667 216.5,-195.667"/>
</g>
</g>
</svg>
