<?xml version="1.0" encoding="UTF-8" standalone="no"?>
<!DOCTYPE svg PUBLIC "-//W3C//DTD SVG 1.1//EN"
 "http://www.w3.org/Graphics/SVG/1.1/DTD/svg11.dtd">
<!-- Generated by graphviz version 2.26.3 (20100126.1600)
 -->
<!-- Title: mysql_history_graph Pages: 1 -->
<svg width="1028pt" height="860pt"
 viewBox="0.00 0.00 1028.00 860.00" xmlns="http://www.w3.org/2000/svg" xmlns:xlink="http://www.w3.org/1999/xlink">
<g id="graph1" class="graph" transform="scale(1 1) rotate(0) translate(4 856)">
<title>mysql_history_graph</title>
<polygon fill="white" stroke="white" points="-4,5 -4,-856 1025,-856 1025,5 -4,5"/>
<!-- MySQL 3.23 -->
<g id="node1" class="node"><title>MySQL 3.23</title>
<ellipse fill="none" stroke="red" cx="750" cy="-833" rx="70.9184" ry="18.3848"/>
<text text-anchor="middle" x="750" y="-829.4" font-family="Times Roman,serif" font-size="14.00">MySQL 3.23</text>
</g>
<!-- MySQL 4.0 -->
<g id="node2" class="node"><title>MySQL 4.0</title>
<ellipse fill="none" stroke="red" cx="750" cy="-759" rx="65.0538" ry="18.3848"/>
<text text-anchor="middle" x="750" y="-755.4" font-family="Times Roman,serif" font-size="14.00">MySQL 4.0</text>
</g>
<!-- MySQL 3.23&#45;&gt;MySQL 4.0 -->
<g id="edge2" class="edge"><title>MySQL 3.23&#45;&gt;MySQL 4.0</title>
<path fill="none" stroke="black" d="M750,-814.327C750,-806.264 750,-796.648 750,-787.711"/>
<polygon fill="black" stroke="black" points="753.5,-787.667 750,-777.667 746.5,-787.667 753.5,-787.667"/>
</g>
<!-- MySQL 4.1 -->
<g id="node3" class="node"><title>MySQL 4.1</title>
<ellipse fill="none" stroke="red" cx="750" cy="-685" rx="65.0538" ry="18.3848"/>
<text text-anchor="middle" x="750" y="-681.4" font-family="Times Roman,serif" font-size="14.00">MySQL 4.1</text>
</g>
<!-- MySQL 4.0&#45;&gt;MySQL 4.1 -->
<g id="edge4" class="edge"><title>MySQL 4.0&#45;&gt;MySQL 4.1</title>
<path fill="none" stroke="black" d="M750,-740.327C750,-732.264 750,-722.648 750,-713.711"/>
<polygon fill="black" stroke="black" points="753.5,-713.667 750,-703.667 746.5,-713.667 753.5,-713.667"/>
</g>
<!-- MySQL 5.0 -->
<g id="node4" class="node"><title>MySQL 5.0</title>
<ellipse fill="none" stroke="red" cx="750" cy="-611" rx="65.0538" ry="18.3848"/>
<text text-anchor="middle" x="750" y="-607.4" font-family="Times Roman,serif" font-size="14.00">MySQL 5.0</text>
</g>
<!-- MySQL 4.1&#45;&gt;MySQL 5.0 -->
<g id="edge6" class="edge"><title>MySQL 4.1&#45;&gt;MySQL 5.0</title>
<path fill="none" stroke="black" d="M750,-666.327C750,-658.264 750,-648.648 750,-639.711"/>
<polygon fill="black" stroke="black" points="753.5,-639.667 750,-629.667 746.5,-639.667 753.5,-639.667"/>
</g>
<!-- MySQL 5.1 -->
<g id="node5" class="node"><title>MySQL 5.1</title>
<ellipse fill="none" stroke="red" cx="626" cy="-537" rx="65.0538" ry="18.3848"/>
<text text-anchor="middle" x="626" y="-533.4" font-family="Times Roman,serif" font-size="14.00">MySQL 5.1</text>
</g>
<!-- MySQL 5.0&#45;&gt;MySQL 5.1 -->
<g id="edge8" class="edge"><title>MySQL 5.0&#45;&gt;MySQL 5.1</title>
<path fill="none" stroke="black" d="M721.862,-594.208C704.344,-583.753 681.621,-570.193 662.696,-558.899"/>
<polygon fill="black" stroke="black" points="664.407,-555.844 654.026,-553.725 660.82,-561.855 664.407,-555.844"/>
</g>
<!-- Percona Server 5.0 -->
<g id="node57" class="node"><title>Percona Server 5.0</title>
<ellipse fill="none" stroke="orange" cx="874" cy="-537" rx="104.86" ry="18.3848"/>
<text text-anchor="middle" x="874" y="-533.4" font-family="Times Roman,serif" font-size="14.00">Percona Server 5.0</text>
</g>
<!-- MySQL 5.0&#45;&gt;Percona Server 5.0 -->
<g id="edge70" class="edge"><title>MySQL 5.0&#45;&gt;Percona Server 5.0</title>
<path fill="none" stroke="black" d="M778.138,-594.208C795.086,-584.094 816.904,-571.073 835.443,-560.01"/>
<polygon fill="black" stroke="black" points="837.451,-562.887 844.245,-554.757 833.864,-556.876 837.451,-562.887"/>
</g>
<!-- MySQL 5.5 -->
<g id="node6" class="node"><title>MySQL 5.5</title>
<ellipse fill="none" stroke="red" cx="262" cy="-241" rx="65.0538" ry="18.3848"/>
<text text-anchor="middle" x="262" y="-237.4" font-family="Times Roman,serif" font-size="14.00">MySQL 5.5</text>
</g>
<!-- MySQL 5.1&#45;&gt;MySQL 5.5 -->
<g id="edge10" class="edge"><title>MySQL 5.1&#45;&gt;MySQL 5.5</title>
<path fill="none" stroke="black" d="M561.594,-533.74C443.711,-527.111 202.989,-510.244 178,-482 121.658,-418.318 196.984,-314.689 238.24,-266.786"/>
<polygon fill="black" stroke="black" points="241.062,-268.875 245.026,-259.05 235.8,-264.259 241.062,-268.875"/>
</g>
<!-- MySQL 5.4 -->
<g id="node12" class="node"><title>MySQL 5.4</title>
<ellipse fill="none" stroke="red" stroke-dasharray="1,5" cx="252" cy="-463" rx="65.0538" ry="18.3848"/>
<text text-anchor="middle" x="252" y="-459.4" font-family="Times Roman,serif" font-size="14.00">MySQL 5.4</text>
</g>
<!-- MySQL 5.1&#45;&gt;MySQL 5.4 -->
<g id="edge16" class="edge"><title>MySQL 5.1&#45;&gt;MySQL 5.4</title>
<path fill="none" stroke="black" stroke-dasharray="5,2" d="M570.098,-527.465C510.641,-517.116 413.923,-499.69 331,-482 324.512,-480.616 317.741,-479.099 311.011,-477.545"/>
<polygon fill="black" stroke="black" points="311.751,-474.124 301.216,-475.253 310.156,-480.94 311.751,-474.124"/>
</g>
<!-- MySQL 6.0 -->
<g id="node14" class="node"><title>MySQL 6.0</title>
<ellipse fill="none" stroke="red" stroke-dasharray="1,5" cx="66" cy="-315" rx="65.0538" ry="18.3848"/>
<text text-anchor="middle" x="66" y="-311.4" font-family="Times Roman,serif" font-size="14.00">MySQL 6.0</text>
</g>
<!-- MySQL 5.1&#45;&gt;MySQL 6.0 -->
<g id="edge20" class="edge"><title>MySQL 5.1&#45;&gt;MySQL 6.0</title>
<path fill="none" stroke="black" stroke-dasharray="5,2" d="M562.286,-533.153C439.29,-525.23 178.273,-505.824 145,-482 98.8758,-448.974 78.7759,-381.867 70.757,-343.537"/>
<polygon fill="black" stroke="black" points="74.1567,-342.684 68.804,-333.541 67.2866,-344.027 74.1567,-342.684"/>
</g>
<!-- MySQL Cluster 6.2 -->
<g id="node20" class="node"><title>MySQL Cluster 6.2</title>
<ellipse fill="none" stroke="#cd0000" cx="476" cy="-463" rx="103.238" ry="18.3848"/>
<text text-anchor="middle" x="476" y="-459.4" font-family="Times Roman,serif" font-size="14.00">MySQL Cluster 6.2</text>
</g>
<!-- MySQL 5.1&#45;&gt;MySQL Cluster 6.2 -->
<g id="edge22" class="edge"><title>MySQL 5.1&#45;&gt;MySQL Cluster 6.2</title>
<path fill="none" stroke="black" d="M593.452,-520.943C572.077,-510.398 543.843,-496.469 520.414,-484.911"/>
<polygon fill="black" stroke="black" points="521.882,-481.732 511.365,-480.447 518.785,-488.01 521.882,-481.732"/>
</g>
<!-- MySQL Cluster 6.3 -->
<g id="node21" class="node"><title>MySQL Cluster 6.3</title>
<ellipse fill="none" stroke="#cd0000" cx="476" cy="-389" rx="103.238" ry="18.3848"/>
<text text-anchor="middle" x="476" y="-385.4" font-family="Times Roman,serif" font-size="14.00">MySQL Cluster 6.3</text>
</g>
<!-- MySQL 5.1&#45;&gt;MySQL Cluster 6.3 -->
<g id="edge24" class="edge"><title>MySQL 5.1&#45;&gt;MySQL Cluster 6.3</title>
<path fill="none" stroke="black" d="M562.51,-532.66C493.127,-526.44 388.534,-512.219 364,-482 353.355,-468.888 355.07,-458.335 364,-444 373.955,-428.021 390.058,-416.553 406.988,-408.374"/>
<polygon fill="black" stroke="black" points="408.735,-411.427 416.445,-404.161 405.886,-405.033 408.735,-411.427"/>
</g>
<!-- MySQL Cluster 7.0 -->
<g id="node22" class="node"><title>MySQL Cluster 7.0</title>
<ellipse fill="none" stroke="#cd0000" cx="504" cy="-315" rx="103.238" ry="18.3848"/>
<text text-anchor="middle" x="504" y="-311.4" font-family="Times Roman,serif" font-size="14.00">MySQL Cluster 7.0</text>
</g>
<!-- MySQL 5.1&#45;&gt;MySQL Cluster 7.0 -->
<g id="edge28" class="edge"><title>MySQL 5.1&#45;&gt;MySQL Cluster 7.0</title>
<path fill="none" stroke="black" d="M626.15,-518.414C625.53,-485.545 620.159,-416.268 588,-370 578.778,-356.732 565.221,-345.862 551.678,-337.392"/>
<polygon fill="black" stroke="black" points="553.217,-334.236 542.826,-332.172 549.661,-340.266 553.217,-334.236"/>
</g>
<!-- MySQL Cluster 7.1 -->
<g id="node23" class="node"><title>MySQL Cluster 7.1</title>
<ellipse fill="none" stroke="#cd0000" cx="504" cy="-241" rx="103.238" ry="18.3848"/>
<text text-anchor="middle" x="504" y="-237.4" font-family="Times Roman,serif" font-size="14.00">MySQL Cluster 7.1</text>
</g>
<!-- MySQL 5.1&#45;&gt;MySQL Cluster 7.1 -->
<g id="edge32" class="edge"><title>MySQL 5.1&#45;&gt;MySQL Cluster 7.1</title>
<path fill="none" stroke="black" d="M631.384,-518.302C642.708,-474.806 664.177,-365.275 616,-296 605.095,-280.319 588.415,-268.915 571.233,-260.703"/>
<polygon fill="black" stroke="black" points="572.229,-257.316 561.669,-256.462 569.392,-263.715 572.229,-257.316"/>
</g>
<!-- MariaDB 5.1 -->
<g id="node37" class="node"><title>MariaDB 5.1</title>
<ellipse fill="none" stroke="blue" cx="822" cy="-389" rx="72.832" ry="18.3848"/>
<text text-anchor="middle" x="822" y="-385.4" font-family="Times Roman,serif" font-size="14.00">MariaDB 5.1</text>
</g>
<!-- MySQL 5.1&#45;&gt;MariaDB 5.1 -->
<g id="edge44" class="edge"><title>MySQL 5.1&#45;&gt;MariaDB 5.1</title>
<path fill="none" stroke="black" d="M663.705,-521.927C685.611,-512.233 713.118,-498.395 735,-482 760.815,-462.658 785.463,-435.156 801.89,-415.077"/>
<polygon fill="black" stroke="black" points="804.652,-417.227 808.193,-407.241 799.198,-412.84 804.652,-417.227"/>
</g>
<!-- MariaDB 5.2 -->
<g id="node38" class="node"><title>MariaDB 5.2</title>
<ellipse fill="none" stroke="blue" cx="803" cy="-315" rx="72.832" ry="18.3848"/>
<text text-anchor="middle" x="803" y="-311.4" font-family="Times Roman,serif" font-size="14.00">MariaDB 5.2</text>
</g>
<!-- MySQL 5.1&#45;&gt;MariaDB 5.2 -->
<g id="edge48" class="edge"><title>MySQL 5.1&#45;&gt;MariaDB 5.2</title>
<path fill="none" stroke="black" d="M654.667,-520.117C668.996,-510.474 685.653,-497.268 697,-482 728.806,-439.205 709.462,-413.709 740,-370 748.084,-358.429 759.114,-347.715 769.686,-338.875"/>
<polygon fill="black" stroke="black" points="772.021,-341.488 777.626,-332.497 767.637,-336.031 772.021,-341.488"/>
</g>
<!-- MariaDB 5.3 -->
<g id="node39" class="node"><title>MariaDB 5.3</title>
<ellipse fill="none" stroke="blue" cx="776" cy="-241" rx="72.832" ry="18.3848"/>
<text text-anchor="middle" x="776" y="-237.4" font-family="Times Roman,serif" font-size="14.00">MariaDB 5.3</text>
</g>
<!-- MySQL 5.1&#45;&gt;MariaDB 5.3 -->
<g id="edge54" class="edge"><title>MySQL 5.1&#45;&gt;MariaDB 5.3</title>
<path fill="none" stroke="black" d="M636.616,-518.493C642.429,-507.975 649.54,-494.457 655,-482 690.214,-401.662 674.169,-370.169 721,-296 727.928,-285.028 737.404,-274.543 746.54,-265.726"/>
<polygon fill="black" stroke="black" points="749.121,-268.106 754.07,-258.738 744.359,-262.975 749.121,-268.106"/>
</g>
<!-- Percona Server 5.1 -->
<g id="node43" class="node"><title>Percona Server 5.1</title>
<ellipse fill="none" stroke="orange" cx="915" cy="-463" rx="104.86" ry="18.3848"/>
<text text-anchor="middle" x="915" y="-459.4" font-family="Times Roman,serif" font-size="14.00">Percona Server 5.1</text>
</g>
<!-- MySQL 5.1&#45;&gt;Percona Server 5.1 -->
<g id="edge72" class="edge"><title>MySQL 5.1&#45;&gt;Percona Server 5.1</title>
<path fill="none" stroke="black" d="M674.372,-524.614C721.169,-512.632 792.582,-494.346 845.468,-480.804"/>
<polygon fill="black" stroke="black" points="846.631,-484.119 855.45,-478.248 844.895,-477.338 846.631,-484.119"/>
</g>
<!-- MySQL 5.6 -->
<g id="node16" class="node"><title>MySQL 5.6</title>
<ellipse fill="none" stroke="red" stroke-dasharray="5,2" cx="262" cy="-167" rx="65.0538" ry="18.3848"/>
<text text-anchor="middle" x="262" y="-163.4" font-family="Times Roman,serif" font-size="14.00">MySQL 5.6</text>
</g>
<!-- MySQL 5.5&#45;&gt;MySQL 5.6 -->
<g id="edge18" class="edge"><title>MySQL 5.5&#45;&gt;MySQL 5.6</title>
<path fill="none" stroke="black" stroke-dasharray="5,2" d="M262,-222.327C262,-214.264 262,-204.648 262,-195.711"/>
<polygon fill="black" stroke="black" points="265.5,-195.667 262,-185.667 258.5,-195.667 265.5,-195.667"/>
</g>
<!-- MySQL Cluster 7.2 -->
<g id="node24" class="node"><title>MySQL Cluster 7.2</title>
<ellipse fill="none" stroke="#cd0000" cx="486" cy="-167" rx="103.238" ry="18.3848"/>
<text text-anchor="middle" x="486" y="-163.4" font-family="Times Roman,serif" font-size="14.00">MySQL Cluster 7.2</text>
</g>
<!-- MySQL 5.5&#45;&gt;MySQL Cluster 7.2 -->
<g id="edge36" class="edge"><title>MySQL 5.5&#45;&gt;MySQL Cluster 7.2</title>
<path fill="none" stroke="black" d="M304.66,-226.907C339.298,-215.464 388.523,-199.202 426.949,-186.508"/>
<polygon fill="black" stroke="black" points="428.072,-189.823 436.47,-183.363 425.876,-183.176 428.072,-189.823"/>
</g>
<!-- MySQL Cluster 7.3 -->
<g id="node25" class="node"><title>MySQL Cluster 7.3</title>
<ellipse fill="none" stroke="#cd0000" stroke-dasharray="5,2" cx="359" cy="-93" rx="103.238" ry="18.3848"/>
<text text-anchor="middle" x="359" y="-89.4" font-family="Times Roman,serif" font-size="14.00">MySQL Cluster 7.3</text>
</g>
<!-- MySQL 5.5&#45;&gt;MySQL Cluster 7.3 -->
<g id="edge40" class="edge"><title>MySQL 5.5&#45;&gt;MySQL Cluster 7.3</title>
<path fill="none" stroke="black" stroke-dasharray="5,2" d="M228.069,-224.996C212.869,-215.88 196.484,-202.876 188,-186 180.414,-170.911 178.053,-161.649 188,-148 199.472,-132.259 240.462,-118.785 279.432,-109.113"/>
<polygon fill="black" stroke="black" points="280.378,-112.485 289.277,-106.737 278.735,-105.681 280.378,-112.485"/>
</g>
<!-- MariaDB 5.5 -->
<g id="node40" class="node"><title>MariaDB 5.5</title>
<ellipse fill="none" stroke="blue" cx="651" cy="-93" rx="72.832" ry="18.3848"/>
<text text-anchor="middle" x="651" y="-89.4" font-family="Times Roman,serif" font-size="14.00">MariaDB 5.5</text>
</g>
<!-- MySQL 5.5&#45;&gt;MariaDB 5.5 -->
<g id="edge60" class="edge"><title>MySQL 5.5&#45;&gt;MariaDB 5.5</title>
<path fill="none" stroke="black" d="M287.027,-223.786C301.703,-213.356 320.371,-199.495 336,-186 354.078,-170.39 352.934,-159.255 374,-148 408.261,-129.694 506.235,-112.978 575.923,-102.897"/>
<polygon fill="black" stroke="black" points="576.584,-106.338 585.988,-101.458 575.594,-99.4086 576.584,-106.338"/>
</g>
<!-- Percona Server 5.5 -->
<g id="node53" class="node"><title>Percona Server 5.5</title>
<ellipse fill="none" stroke="orange" cx="776" cy="-167" rx="104.86" ry="18.3848"/>
<text text-anchor="middle" x="776" y="-163.4" font-family="Times Roman,serif" font-size="14.00">Percona Server 5.5</text>
</g>
<!-- MySQL 5.5&#45;&gt;Percona Server 5.5 -->
<g id="edge76" class="edge"><title>MySQL 5.5&#45;&gt;Percona Server 5.5</title>
<path fill="none" stroke="black" d="M319.914,-232.499C342.417,-229.206 368.41,-225.413 392,-222 491.67,-207.579 605.922,-191.239 683.713,-180.143"/>
<polygon fill="black" stroke="black" points="684.561,-183.557 693.966,-178.68 683.572,-176.627 684.561,-183.557"/>
</g>
<!-- MySQL 5.4&#45;&gt;MySQL 5.5 -->
<g id="edge12" class="edge"><title>MySQL 5.4&#45;&gt;MySQL 5.5</title>
<path fill="none" stroke="grey" d="M252.835,-444.454C254.578,-405.768 258.612,-316.22 260.698,-269.906"/>
<polygon fill="grey" stroke="grey" points="264.206,-269.796 261.16,-259.649 257.213,-269.481 264.206,-269.796"/>
</g>
<!-- MySQL 6.0&#45;&gt;MySQL 5.5 -->
<g id="edge14" class="edge"><title>MySQL 6.0&#45;&gt;MySQL 5.5</title>
<path fill="none" stroke="grey" d="M105.192,-300.203C136.204,-288.494 179.683,-272.079 212.994,-259.502"/>
<polygon fill="grey" stroke="grey" points="214.421,-262.705 222.54,-255.898 211.948,-256.156 214.421,-262.705"/>
</g>
<!-- Drizzle 7.0 -->
<g id="node64" class="node"><title>Drizzle 7.0</title>
<ellipse fill="none" stroke="#00008b" cx="66" cy="-241" rx="65.7609" ry="18.3848"/>
<text text-anchor="middle" x="66" y="-237.4" font-family="Times Roman,serif" font-size="14.00">Drizzle 7.0</text>
</g>
<!-- MySQL 6.0&#45;&gt;Drizzle 7.0 -->
<g id="edge82" class="edge"><title>MySQL 6.0&#45;&gt;Drizzle 7.0</title>
<path fill="none" stroke="black" d="M66,-296.327C66,-288.264 66,-278.648 66,-269.711"/>
<polygon fill="black" stroke="black" points="69.5001,-269.667 66,-259.667 62.5001,-269.667 69.5001,-269.667"/>
</g>
<!-- MySQL Cluster 6.2&#45;&gt;MySQL Cluster 6.3 -->
<g id="edge26" class="edge"><title>MySQL Cluster 6.2&#45;&gt;MySQL Cluster 6.3</title>
<path fill="none" stroke="black" d="M476,-444.327C476,-436.264 476,-426.648 476,-417.711"/>
<polygon fill="black" stroke="black" points="479.5,-417.667 476,-407.667 472.5,-417.667 479.5,-417.667"/>
</g>
<!-- MySQL Cluster 6.3&#45;&gt;MySQL Cluster 7.0 -->
<g id="edge30" class="edge"><title>MySQL Cluster 6.3&#45;&gt;MySQL Cluster 7.0</title>
<path fill="none" stroke="black" d="M483.066,-370.327C486.183,-362.089 489.913,-352.229 493.356,-343.13"/>
<polygon fill="black" stroke="black" points="496.671,-344.259 496.937,-333.667 490.124,-341.782 496.671,-344.259"/>
</g>
<!-- MySQL Cluster 7.0&#45;&gt;MySQL Cluster 7.1 -->
<g id="edge34" class="edge"><title>MySQL Cluster 7.0&#45;&gt;MySQL Cluster 7.1</title>
<path fill="none" stroke="black" d="M504,-296.327C504,-288.264 504,-278.648 504,-269.711"/>
<polygon fill="black" stroke="black" points="507.5,-269.667 504,-259.667 500.5,-269.667 507.5,-269.667"/>
</g>
<!-- MySQL Cluster 7.1&#45;&gt;MySQL Cluster 7.2 -->
<g id="edge38" class="edge"><title>MySQL Cluster 7.1&#45;&gt;MySQL Cluster 7.2</title>
<path fill="none" stroke="black" d="M499.458,-222.327C497.475,-214.176 495.107,-204.438 492.913,-195.42"/>
<polygon fill="black" stroke="black" points="496.305,-194.557 490.541,-185.667 489.503,-196.211 496.305,-194.557"/>
</g>
<!-- MySQL Cluster 7.2&#45;&gt;MySQL Cluster 7.3 -->
<g id="edge42" class="edge"><title>MySQL Cluster 7.2&#45;&gt;MySQL Cluster 7.3</title>
<path fill="none" stroke="black" stroke-dasharray="5,2" d="M455.58,-149.275C438.427,-139.28 416.806,-126.682 398.372,-115.941"/>
<polygon fill="black" stroke="black" points="400.014,-112.847 389.612,-110.837 396.49,-118.895 400.014,-112.847"/>
</g>
<!-- MariaDB 5.1&#45;&gt;MariaDB 5.2 -->
<g id="edge50" class="edge"><title>MariaDB 5.1&#45;&gt;MariaDB 5.2</title>
<path fill="none" stroke="black" d="M817.205,-370.327C815.113,-362.176 812.613,-352.438 810.297,-343.42"/>
<polygon fill="black" stroke="black" points="813.67,-342.483 807.793,-333.667 806.89,-344.224 813.67,-342.483"/>
</g>
<!-- MariaDB 5.2&#45;&gt;MariaDB 5.3 -->
<g id="edge56" class="edge"><title>MariaDB 5.2&#45;&gt;MariaDB 5.3</title>
<path fill="none" stroke="black" d="M796.187,-296.327C793.181,-288.089 789.583,-278.229 786.264,-269.13"/>
<polygon fill="black" stroke="black" points="789.527,-267.862 782.811,-259.667 782.951,-270.261 789.527,-267.862"/>
</g>
<!-- MariaDB 5.3&#45;&gt;MariaDB 5.5 -->
<g id="edge62" class="edge"><title>MariaDB 5.3&#45;&gt;MariaDB 5.5</title>
<path fill="none" stroke="black" d="M723.7,-228.05C701.168,-219.763 676.673,-206.575 662,-186 648.797,-167.486 646.737,-141.443 647.586,-121.623"/>
<polygon fill="black" stroke="black" points="651.079,-121.838 648.277,-111.62 644.096,-121.355 651.079,-121.838"/>
</g>
<!-- MariaDB 5.3&#45;&gt;Percona Server 5.5 -->
<g id="edge80" class="edge"><title>MariaDB 5.3&#45;&gt;Percona Server 5.5</title>
<path fill="none" stroke="grey" d="M776,-222.327C776,-214.264 776,-204.648 776,-195.711"/>
<polygon fill="grey" stroke="grey" points="779.5,-195.667 776,-185.667 772.5,-195.667 779.5,-195.667"/>
</g>
<!-- MariaDB 10.0 -->
<g id="node41" class="node"><title>MariaDB 10.0</title>
<ellipse fill="none" stroke="blue" stroke-dasharray="5,2" cx="709" cy="-19" rx="79.196" ry="18.3848"/>
<text text-anchor="middle" x="709" y="-15.4" font-family="Times Roman,serif" font-size="14.00">MariaDB 10.0</text>
</g>
<!-- MariaDB 5.5&#45;&gt;MariaDB 10.0 -->
<g id="edge66" class="edge"><title>MariaDB 5.5&#45;&gt;MariaDB 10.0</title>
<path fill="none" stroke="black" stroke-dasharray="5,2" d="M665.337,-74.7079C672.239,-65.9025 680.644,-55.1787 688.23,-45.5001"/>
<polygon fill="black" stroke="black" points="691.213,-47.3679 694.627,-37.3382 685.703,-43.0497 691.213,-47.3679"/>
</g>
<!-- Percona Server 5.1&#45;&gt;MariaDB 5.1 -->
<g id="edge46" class="edge"><title>Percona Server 5.1&#45;&gt;MariaDB 5.1</title>
<path fill="none" stroke="grey" d="M892.011,-444.708C880.098,-435.228 865.39,-423.526 852.535,-413.297"/>
<polygon fill="grey" stroke="grey" points="854.408,-410.314 844.403,-406.826 850.049,-415.792 854.408,-410.314"/>
</g>
<!-- Percona Server 5.1&#45;&gt;MariaDB 5.2 -->
<g id="edge52" class="edge"><title>Percona Server 5.1&#45;&gt;MariaDB 5.2</title>
<path fill="none" stroke="grey" d="M917.549,-444.156C919.255,-424.039 918.944,-392.082 904,-370 893.142,-353.955 876.005,-342.172 858.909,-333.725"/>
<polygon fill="grey" stroke="grey" points="860.002,-330.375 849.455,-329.369 857.073,-336.733 860.002,-330.375"/>
</g>
<!-- Percona Server 5.1&#45;&gt;MariaDB 5.3 -->
<g id="edge58" class="edge"><title>Percona Server 5.1&#45;&gt;MariaDB 5.3</title>
<path fill="none" stroke="grey" d="M918.794,-444.508C920.782,-433.879 923.005,-420.248 924,-408 928.27,-355.464 922.6,-332.939 885,-296 869.342,-280.617 848.516,-268.68 829.266,-259.918"/>
<polygon fill="grey" stroke="grey" points="830.537,-256.654 819.971,-255.87 827.742,-263.072 830.537,-256.654"/>
</g>
<!-- Percona Server 5.1&#45;&gt;Percona Server 5.5 -->
<g id="edge78" class="edge"><title>Percona Server 5.1&#45;&gt;Percona Server 5.5</title>
<path fill="none" stroke="black" d="M925.025,-444.248C930,-433.88 935.475,-420.583 938,-408 948.035,-357.994 936.664,-341.181 913,-296 893.987,-259.7 887.668,-250.267 858,-222 845.564,-210.151 830.301,-199.152 816.328,-190.152"/>
<polygon fill="black" stroke="black" points="818.162,-187.171 807.832,-184.817 814.439,-193.099 818.162,-187.171"/>
</g>
<!-- Percona Server 5.5&#45;&gt;MariaDB 5.5 -->
<g id="edge64" class="edge"><title>Percona Server 5.5&#45;&gt;MariaDB 5.5</title>
<path fill="none" stroke="grey" d="M745.741,-149.087C728.603,-138.941 707.012,-126.159 688.771,-115.36"/>
<polygon fill="grey" stroke="grey" points="690.508,-112.321 680.12,-110.239 686.942,-118.345 690.508,-112.321"/>
</g>
<!-- Percona Server 5.5&#45;&gt;MariaDB 10.0 -->
<g id="edge68" class="edge"><title>Percona Server 5.5&#45;&gt;MariaDB 10.0</title>
<path fill="none" stroke="grey" d="M767.65,-148.555C756.115,-123.075 735.205,-76.8852 721.72,-47.0971"/>
<polygon fill="grey" stroke="grey" points="724.768,-45.344 717.455,-37.6775 718.391,-48.231 724.768,-45.344"/>
</g>
<!-- Percona Server 5.0&#45;&gt;Percona Server 5.1 -->
<g id="edge74" class="edge"><title>Percona Server 5.0&#45;&gt;Percona Server 5.1</title>
<path fill="none" stroke="black" d="M884.346,-518.327C889.007,-509.913 894.606,-499.809 899.736,-490.55"/>
<polygon fill="black" stroke="black" points="902.872,-492.111 904.657,-481.667 896.749,-488.718 902.872,-492.111"/>
</g>
<!-- Drizzle 7.1 -->
<g id="node65" class="node"><title>Drizzle 7.1</title>
<ellipse fill="none" stroke="#00008b" cx="66" cy="-167" rx="65.7609" ry="18.3848"/>
<text text-anchor="middle" x="66" y="-163.4" font-family="Times Roman,serif" font-size="14.00">Drizzle 7.1</text>
</g>
<!-- Drizzle 7.0&#45;&gt;Drizzle 7.1 -->
<g id="edge84" class="edge"><title>Drizzle 7.0&#45;&gt;Drizzle 7.1</title>
<path fill="none" stroke="black" d="M66,-222.327C66,-214.264 66,-204.648 66,-195.711"/>
<polygon fill="black" stroke="black" points="69.5001,-195.667 66,-185.667 62.5001,-195.667 69.5001,-195.667"/>
</g>
<!-- Drizzle 7.2 -->
<g id="node66" class="node"><title>Drizzle 7.2</title>
<ellipse fill="none" stroke="#00008b" cx="66" cy="-93" rx="65.7609" ry="18.3848"/>
<text text-anchor="middle" x="66" y="-89.4" font-family="Times Roman,serif" font-size="14.00">Drizzle 7.2</text>
</g>
<!-- Drizzle 7.1&#45;&gt;Drizzle 7.2 -->
<g id="edge86" class="edge"><title>Drizzle 7.1&#45;&gt;Drizzle 7.2</title>
<path fill="none" stroke="black" d="M66,-148.327C66,-140.264 66,-130.648 66,-121.711"/>
<polygon fill="black" stroke="black" points="69.5001,-121.667 66,-111.667 62.5001,-121.667 69.5001,-121.667"/>
</g>
</g>
</svg>
