<?xml version="1.0" encoding="UTF-8" standalone="no"?>
<!DOCTYPE svg PUBLIC "-//W3C//DTD SVG 1.1//EN"
 "http://www.w3.org/Graphics/SVG/1.1/DTD/svg11.dtd">
<!-- Generated by graphviz version 2.38.0 (20140413.2041)
 -->
<!-- Title: mysql_history_graph Pages: 1 -->
<svg width="871pt" height="1268pt"
 viewBox="0.00 0.00 871.24 1268.00" xmlns="http://www.w3.org/2000/svg" xmlns:xlink="http://www.w3.org/1999/xlink">
<g id="graph0" class="graph" transform="scale(1 1) rotate(0) translate(4 1264)">
<title>mysql_history_graph</title>
<polygon fill="white" stroke="none" points="-4,4 -4,-1264 867.236,-1264 867.236,4 -4,4"/>
<!-- MySQL 3.19 -->
<g id="node1" class="node"><title>MySQL 3.19</title>
<ellipse fill="none" stroke="red" cx="605.243" cy="-1242" rx="57.6901" ry="18"/>
<text text-anchor="middle" x="605.243" y="-1238.3" font-family="Times,serif" font-size="14.00">MySQL 3.19</text>
</g>
<!-- MySQL 3.20 -->
<g id="node2" class="node"><title>MySQL 3.20</title>
<ellipse fill="none" stroke="red" cx="605.243" cy="-1170" rx="57.6901" ry="18"/>
<text text-anchor="middle" x="605.243" y="-1166.3" font-family="Times,serif" font-size="14.00">MySQL 3.20</text>
</g>
<!-- MySQL 3.19&#45;&gt;MySQL 3.20 -->
<g id="edge1" class="edge"><title>MySQL 3.19&#45;&gt;MySQL 3.20</title>
<path fill="none" stroke="black" d="M605.243,-1223.7C605.243,-1215.98 605.243,-1206.71 605.243,-1198.11"/>
<polygon fill="black" stroke="black" points="608.743,-1198.1 605.243,-1188.1 601.743,-1198.1 608.743,-1198.1"/>
</g>
<!-- MySQL 3.21 -->
<g id="node3" class="node"><title>MySQL 3.21</title>
<ellipse fill="none" stroke="red" cx="605.243" cy="-1098" rx="57.6901" ry="18"/>
<text text-anchor="middle" x="605.243" y="-1094.3" font-family="Times,serif" font-size="14.00">MySQL 3.21</text>
</g>
<!-- MySQL 3.20&#45;&gt;MySQL 3.21 -->
<g id="edge2" class="edge"><title>MySQL 3.20&#45;&gt;MySQL 3.21</title>
<path fill="none" stroke="black" d="M605.243,-1151.7C605.243,-1143.98 605.243,-1134.71 605.243,-1126.11"/>
<polygon fill="black" stroke="black" points="608.743,-1126.1 605.243,-1116.1 601.743,-1126.1 608.743,-1126.1"/>
</g>
<!-- MySQL 3.22 -->
<g id="node4" class="node"><title>MySQL 3.22</title>
<ellipse fill="none" stroke="red" cx="605.243" cy="-1026" rx="57.6901" ry="18"/>
<text text-anchor="middle" x="605.243" y="-1022.3" font-family="Times,serif" font-size="14.00">MySQL 3.22</text>
</g>
<!-- MySQL 3.21&#45;&gt;MySQL 3.22 -->
<g id="edge3" class="edge"><title>MySQL 3.21&#45;&gt;MySQL 3.22</title>
<path fill="none" stroke="black" d="M605.243,-1079.7C605.243,-1071.98 605.243,-1062.71 605.243,-1054.11"/>
<polygon fill="black" stroke="black" points="608.743,-1054.1 605.243,-1044.1 601.743,-1054.1 608.743,-1054.1"/>
</g>
<!-- MySQL 3.23 -->
<g id="node5" class="node"><title>MySQL 3.23</title>
<ellipse fill="none" stroke="red" cx="605.243" cy="-954" rx="57.6901" ry="18"/>
<text text-anchor="middle" x="605.243" y="-950.3" font-family="Times,serif" font-size="14.00">MySQL 3.23</text>
</g>
<!-- MySQL 3.22&#45;&gt;MySQL 3.23 -->
<g id="edge4" class="edge"><title>MySQL 3.22&#45;&gt;MySQL 3.23</title>
<path fill="none" stroke="black" d="M605.243,-1007.7C605.243,-999.983 605.243,-990.712 605.243,-982.112"/>
<polygon fill="black" stroke="black" points="608.743,-982.104 605.243,-972.104 601.743,-982.104 608.743,-982.104"/>
</g>
<!-- MySQL 4.0 -->
<g id="node6" class="node"><title>MySQL 4.0</title>
<ellipse fill="none" stroke="red" cx="605.243" cy="-882" rx="53.8905" ry="18"/>
<text text-anchor="middle" x="605.243" y="-878.3" font-family="Times,serif" font-size="14.00">MySQL 4.0</text>
</g>
<!-- MySQL 3.23&#45;&gt;MySQL 4.0 -->
<g id="edge5" class="edge"><title>MySQL 3.23&#45;&gt;MySQL 4.0</title>
<path fill="none" stroke="black" d="M605.243,-935.697C605.243,-927.983 605.243,-918.712 605.243,-910.112"/>
<polygon fill="black" stroke="black" points="608.743,-910.104 605.243,-900.104 601.743,-910.104 608.743,-910.104"/>
</g>
<!-- MySQL 4.1 -->
<g id="node7" class="node"><title>MySQL 4.1</title>
<ellipse fill="none" stroke="red" cx="605.243" cy="-810" rx="53.8905" ry="18"/>
<text text-anchor="middle" x="605.243" y="-806.3" font-family="Times,serif" font-size="14.00">MySQL 4.1</text>
</g>
<!-- MySQL 4.0&#45;&gt;MySQL 4.1 -->
<g id="edge6" class="edge"><title>MySQL 4.0&#45;&gt;MySQL 4.1</title>
<path fill="none" stroke="black" d="M605.243,-863.697C605.243,-855.983 605.243,-846.712 605.243,-838.112"/>
<polygon fill="black" stroke="black" points="608.743,-838.104 605.243,-828.104 601.743,-838.104 608.743,-838.104"/>
</g>
<!-- MySQL 5.0 -->
<g id="node8" class="node"><title>MySQL 5.0</title>
<ellipse fill="none" stroke="red" cx="605.243" cy="-738" rx="53.8905" ry="18"/>
<text text-anchor="middle" x="605.243" y="-734.3" font-family="Times,serif" font-size="14.00">MySQL 5.0</text>
</g>
<!-- MySQL 4.1&#45;&gt;MySQL 5.0 -->
<g id="edge7" class="edge"><title>MySQL 4.1&#45;&gt;MySQL 5.0</title>
<path fill="none" stroke="black" d="M605.243,-791.697C605.243,-783.983 605.243,-774.712 605.243,-766.112"/>
<polygon fill="black" stroke="black" points="608.743,-766.104 605.243,-756.104 601.743,-766.104 608.743,-766.104"/>
</g>
<!-- MySQL 5.1 -->
<g id="node9" class="node"><title>MySQL 5.1</title>
<ellipse fill="none" stroke="red" cx="496.243" cy="-666" rx="53.8905" ry="18"/>
<text text-anchor="middle" x="496.243" y="-662.3" font-family="Times,serif" font-size="14.00">MySQL 5.1</text>
</g>
<!-- MySQL 5.0&#45;&gt;MySQL 5.1 -->
<g id="edge8" class="edge"><title>MySQL 5.0&#45;&gt;MySQL 5.1</title>
<path fill="none" stroke="black" d="M581.591,-721.811C566.129,-711.881 545.727,-698.779 528.747,-687.874"/>
<polygon fill="black" stroke="black" points="530.53,-684.86 520.224,-682.401 526.747,-690.75 530.53,-684.86"/>
</g>
<!-- Percona Server 5.0 -->
<g id="node34" class="node"><title>Percona Server 5.0</title>
<ellipse fill="none" stroke="orange" cx="715.243" cy="-666" rx="77.9862" ry="18"/>
<text text-anchor="middle" x="715.243" y="-662.3" font-family="Times,serif" font-size="14.00">Percona Server 5.0</text>
</g>
<!-- MySQL 5.0&#45;&gt;Percona Server 5.0 -->
<g id="edge46" class="edge"><title>MySQL 5.0&#45;&gt;Percona Server 5.0</title>
<path fill="none" stroke="black" d="M629.111,-721.811C644.393,-712.086 664.455,-699.32 681.372,-688.554"/>
<polygon fill="black" stroke="black" points="683.332,-691.455 689.89,-683.134 679.574,-685.55 683.332,-691.455"/>
</g>
<!-- MySQL 6.0 -->
<g id="node14" class="node"><title>MySQL 6.0</title>
<ellipse fill="none" stroke="red" stroke-dasharray="1,5" cx="496.243" cy="-594" rx="53.8905" ry="18"/>
<text text-anchor="middle" x="496.243" y="-590.3" font-family="Times,serif" font-size="14.00">MySQL 6.0</text>
</g>
<!-- MySQL 5.1&#45;&gt;MySQL 6.0 -->
<g id="edge14" class="edge"><title>MySQL 5.1&#45;&gt;MySQL 6.0</title>
<path fill="none" stroke="black" stroke-dasharray="5,2" d="M496.243,-647.697C496.243,-639.983 496.243,-630.712 496.243,-622.112"/>
<polygon fill="black" stroke="black" points="499.743,-622.104 496.243,-612.104 492.743,-622.104 499.743,-622.104"/>
</g>
<!-- MySQL 5.2 -->
<g id="node15" class="node"><title>MySQL 5.2</title>
<ellipse fill="none" stroke="red" stroke-dasharray="1,5" cx="363.243" cy="-594" rx="53.8905" ry="18"/>
<text text-anchor="middle" x="363.243" y="-590.3" font-family="Times,serif" font-size="14.00">MySQL 5.2</text>
</g>
<!-- MySQL 5.1&#45;&gt;MySQL 5.2 -->
<g id="edge13" class="edge"><title>MySQL 5.1&#45;&gt;MySQL 5.2</title>
<path fill="none" stroke="black" stroke-dasharray="5,2" d="M468.685,-650.496C448.712,-639.984 421.503,-625.663 399.728,-614.203"/>
<polygon fill="black" stroke="black" points="401.244,-611.046 390.765,-609.485 397.984,-617.24 401.244,-611.046"/>
</g>
<!-- MySQL Cluster 6.2 -->
<g id="node17" class="node"><title>MySQL Cluster 6.2</title>
<ellipse fill="none" stroke="#cd0000" cx="81.2428" cy="-594" rx="81.4863" ry="18"/>
<text text-anchor="middle" x="81.2428" y="-590.3" font-family="Times,serif" font-size="14.00">MySQL Cluster 6.2</text>
</g>
<!-- MySQL 5.1&#45;&gt;MySQL Cluster 6.2 -->
<g id="edge17" class="edge"><title>MySQL 5.1&#45;&gt;MySQL Cluster 6.2</title>
<path fill="none" stroke="black" d="M448.771,-657.334C386.259,-647.195 272.943,-628.659 176.243,-612 168.378,-610.645 160.151,-609.206 151.968,-607.76"/>
<polygon fill="black" stroke="black" points="152.495,-604.299 142.038,-606 151.273,-611.192 152.495,-604.299"/>
</g>
<!-- MySQL Cluster 6.3 -->
<g id="node18" class="node"><title>MySQL Cluster 6.3</title>
<ellipse fill="none" stroke="#cd0000" cx="119.243" cy="-522" rx="81.4863" ry="18"/>
<text text-anchor="middle" x="119.243" y="-518.3" font-family="Times,serif" font-size="14.00">MySQL Cluster 6.3</text>
</g>
<!-- MySQL 5.1&#45;&gt;MySQL Cluster 6.3 -->
<g id="edge18" class="edge"><title>MySQL 5.1&#45;&gt;MySQL Cluster 6.3</title>
<path fill="none" stroke="black" d="M442.466,-663.762C383.51,-660.445 287.552,-649.173 214.243,-612 205.931,-607.785 168.895,-572.057 143.598,-547.173"/>
<polygon fill="black" stroke="black" points="145.746,-544.375 136.168,-539.845 140.83,-549.359 145.746,-544.375"/>
</g>
<!-- MySQL Cluster 7.0 -->
<g id="node19" class="node"><title>MySQL Cluster 7.0</title>
<ellipse fill="none" stroke="#cd0000" cx="153.243" cy="-450" rx="81.4863" ry="18"/>
<text text-anchor="middle" x="153.243" y="-446.3" font-family="Times,serif" font-size="14.00">MySQL Cluster 7.0</text>
</g>
<!-- MySQL 5.1&#45;&gt;MySQL Cluster 7.0 -->
<g id="edge20" class="edge"><title>MySQL 5.1&#45;&gt;MySQL Cluster 7.0</title>
<path fill="none" stroke="black" d="M445.764,-659.641C383.104,-652.057 280.976,-636.344 252.243,-612 212.824,-578.603 238.24,-546.76 209.243,-504 201.906,-493.181 192.017,-482.904 182.592,-474.329"/>
<polygon fill="black" stroke="black" points="184.679,-471.505 174.849,-467.553 180.069,-476.772 184.679,-471.505"/>
</g>
<!-- MySQL Cluster 7.1 -->
<g id="node20" class="node"><title>MySQL Cluster 7.1</title>
<ellipse fill="none" stroke="#cd0000" cx="246.243" cy="-378" rx="81.4863" ry="18"/>
<text text-anchor="middle" x="246.243" y="-374.3" font-family="Times,serif" font-size="14.00">MySQL Cluster 7.1</text>
</g>
<!-- MySQL 5.1&#45;&gt;MySQL Cluster 7.1 -->
<g id="edge22" class="edge"><title>MySQL 5.1&#45;&gt;MySQL Cluster 7.1</title>
<path fill="none" stroke="black" d="M442.137,-664.841C397.928,-661.716 336.945,-650.062 300.243,-612 245.559,-555.291 242.269,-454.666 244.231,-406.363"/>
<polygon fill="black" stroke="black" points="247.742,-406.241 244.763,-396.073 240.751,-405.879 247.742,-406.241"/>
</g>
<!-- MariaDB 5.1 -->
<g id="node25" class="node"><title>MariaDB 5.1</title>
<ellipse fill="none" stroke="blue" cx="706.243" cy="-522" rx="57.6901" ry="18"/>
<text text-anchor="middle" x="706.243" y="-518.3" font-family="Times,serif" font-size="14.00">MariaDB 5.1</text>
</g>
<!-- MySQL 5.1&#45;&gt;MariaDB 5.1 -->
<g id="edge31" class="edge"><title>MySQL 5.1&#45;&gt;MariaDB 5.1</title>
<path fill="none" stroke="black" d="M538.914,-654.874C567.733,-646.601 605.597,-632.827 634.243,-612 657.801,-594.872 677.983,-568.187 690.933,-548.5"/>
<polygon fill="black" stroke="black" points="693.925,-550.318 696.361,-540.007 688.027,-546.549 693.925,-550.318"/>
</g>
<!-- MariaDB 5.2 -->
<g id="node26" class="node"><title>MariaDB 5.2</title>
<ellipse fill="none" stroke="blue" cx="706.243" cy="-450" rx="57.6901" ry="18"/>
<text text-anchor="middle" x="706.243" y="-446.3" font-family="Times,serif" font-size="14.00">MariaDB 5.2</text>
</g>
<!-- MySQL 5.1&#45;&gt;MariaDB 5.2 -->
<g id="edge33" class="edge"><title>MySQL 5.1&#45;&gt;MariaDB 5.2</title>
<path fill="none" stroke="black" d="M533.161,-652.741C554.058,-644.178 579.318,-630.868 596.243,-612 630.742,-573.541 608.38,-545.433 639.243,-504 648.297,-491.845 660.8,-480.948 672.554,-472.242"/>
<polygon fill="black" stroke="black" points="674.793,-474.946 680.922,-466.304 670.741,-469.237 674.793,-474.946"/>
</g>
<!-- MariaDB 5.3 -->
<g id="node27" class="node"><title>MariaDB 5.3</title>
<ellipse fill="none" stroke="blue" cx="706.243" cy="-378" rx="57.6901" ry="18"/>
<text text-anchor="middle" x="706.243" y="-374.3" font-family="Times,serif" font-size="14.00">MariaDB 5.3</text>
</g>
<!-- MySQL 5.1&#45;&gt;MariaDB 5.3 -->
<g id="edge36" class="edge"><title>MySQL 5.1&#45;&gt;MariaDB 5.3</title>
<path fill="none" stroke="black" d="M519.191,-649.691C532.25,-640.079 548.161,-626.736 559.243,-612 611.862,-542.032 585.575,-501.167 639.243,-432 648.534,-420.025 661.085,-409.165 672.811,-400.438"/>
<polygon fill="black" stroke="black" points="675.05,-403.14 681.146,-394.474 670.977,-397.447 675.05,-403.14"/>
</g>
<!-- Percona Server 5.1 -->
<g id="node32" class="node"><title>Percona Server 5.1</title>
<ellipse fill="none" stroke="orange" cx="785.243" cy="-594" rx="77.9862" ry="18"/>
<text text-anchor="middle" x="785.243" y="-590.3" font-family="Times,serif" font-size="14.00">Percona Server 5.1</text>
</g>
<!-- MySQL 5.1&#45;&gt;Percona Server 5.1 -->
<g id="edge47" class="edge"><title>MySQL 5.1&#45;&gt;Percona Server 5.1</title>
<path fill="none" stroke="black" d="M538.575,-654.746C587.383,-642.925 668.03,-623.391 723.754,-609.894"/>
<polygon fill="black" stroke="black" points="724.614,-613.286 733.509,-607.531 722.966,-606.483 724.614,-613.286"/>
</g>
<!-- MySQL 5.5 -->
<g id="node10" class="node"><title>MySQL 5.5</title>
<ellipse fill="none" stroke="red" cx="399.243" cy="-378" rx="53.8905" ry="18"/>
<text text-anchor="middle" x="399.243" y="-374.3" font-family="Times,serif" font-size="14.00">MySQL 5.5</text>
</g>
<!-- MySQL 5.6 -->
<g id="node11" class="node"><title>MySQL 5.6</title>
<ellipse fill="none" stroke="red" cx="399.243" cy="-306" rx="53.8905" ry="18"/>
<text text-anchor="middle" x="399.243" y="-302.3" font-family="Times,serif" font-size="14.00">MySQL 5.6</text>
</g>
<!-- MySQL 5.5&#45;&gt;MySQL 5.6 -->
<g id="edge9" class="edge"><title>MySQL 5.5&#45;&gt;MySQL 5.6</title>
<path fill="none" stroke="black" d="M399.243,-359.697C399.243,-351.983 399.243,-342.712 399.243,-334.112"/>
<polygon fill="black" stroke="black" points="402.743,-334.104 399.243,-324.104 395.743,-334.104 402.743,-334.104"/>
</g>
<!-- MySQL Cluster 7.2 -->
<g id="node21" class="node"><title>MySQL Cluster 7.2</title>
<ellipse fill="none" stroke="#cd0000" cx="246.243" cy="-306" rx="81.4863" ry="18"/>
<text text-anchor="middle" x="246.243" y="-302.3" font-family="Times,serif" font-size="14.00">MySQL Cluster 7.2</text>
</g>
<!-- MySQL 5.5&#45;&gt;MySQL Cluster 7.2 -->
<g id="edge24" class="edge"><title>MySQL 5.5&#45;&gt;MySQL Cluster 7.2</title>
<path fill="none" stroke="black" d="M368.649,-363.003C345.915,-352.601 314.597,-338.273 289.331,-326.714"/>
<polygon fill="black" stroke="black" points="290.524,-323.411 279.975,-322.433 287.612,-329.776 290.524,-323.411"/>
</g>
<!-- MariaDB 5.5 -->
<g id="node28" class="node"><title>MariaDB 5.5</title>
<ellipse fill="none" stroke="blue" cx="741.243" cy="-234" rx="57.6901" ry="18"/>
<text text-anchor="middle" x="741.243" y="-230.3" font-family="Times,serif" font-size="14.00">MariaDB 5.5</text>
</g>
<!-- MySQL 5.5&#45;&gt;MariaDB 5.5 -->
<g id="edge39" class="edge"><title>MySQL 5.5&#45;&gt;MariaDB 5.5</title>
<path fill="none" stroke="black" d="M422.624,-361.659C452.891,-342.336 507.753,-309.115 558.243,-288 599.664,-270.678 648.609,-256.824 685.453,-247.631"/>
<polygon fill="black" stroke="black" points="686.631,-250.946 695.508,-245.163 684.962,-244.148 686.631,-250.946"/>
</g>
<!-- Percona Server 5.5 -->
<g id="node33" class="node"><title>Percona Server 5.5</title>
<ellipse fill="none" stroke="orange" cx="645.243" cy="-306" rx="77.9862" ry="18"/>
<text text-anchor="middle" x="645.243" y="-302.3" font-family="Times,serif" font-size="14.00">Percona Server 5.5</text>
</g>
<!-- MySQL 5.5&#45;&gt;Percona Server 5.5 -->
<g id="edge49" class="edge"><title>MySQL 5.5&#45;&gt;Percona Server 5.5</title>
<path fill="none" stroke="black" d="M439.04,-365.675C479.454,-354.176 542.426,-336.257 588.152,-323.245"/>
<polygon fill="black" stroke="black" points="589.263,-326.568 597.924,-320.465 587.347,-319.835 589.263,-326.568"/>
</g>
<!-- MySQL 5.7 -->
<g id="node12" class="node"><title>MySQL 5.7</title>
<ellipse fill="none" stroke="red" cx="399.243" cy="-234" rx="53.8905" ry="18"/>
<text text-anchor="middle" x="399.243" y="-230.3" font-family="Times,serif" font-size="14.00">MySQL 5.7</text>
</g>
<!-- MySQL 5.6&#45;&gt;MySQL 5.7 -->
<g id="edge10" class="edge"><title>MySQL 5.6&#45;&gt;MySQL 5.7</title>
<path fill="none" stroke="black" d="M399.243,-287.697C399.243,-279.983 399.243,-270.712 399.243,-262.112"/>
<polygon fill="black" stroke="black" points="402.743,-262.104 399.243,-252.104 395.743,-262.104 402.743,-262.104"/>
</g>
<!-- MySQL Cluster 7.3 -->
<g id="node22" class="node"><title>MySQL Cluster 7.3</title>
<ellipse fill="none" stroke="#cd0000" cx="246.243" cy="-234" rx="81.4863" ry="18"/>
<text text-anchor="middle" x="246.243" y="-230.3" font-family="Times,serif" font-size="14.00">MySQL Cluster 7.3</text>
</g>
<!-- MySQL 5.6&#45;&gt;MySQL Cluster 7.3 -->
<g id="edge26" class="edge"><title>MySQL 5.6&#45;&gt;MySQL Cluster 7.3</title>
<path fill="none" stroke="black" d="M368.649,-291.003C345.915,-280.601 314.597,-266.273 289.331,-254.714"/>
<polygon fill="black" stroke="black" points="290.524,-251.411 279.975,-250.433 287.612,-257.776 290.524,-251.411"/>
</g>
<!-- Percona Server 5.6 -->
<g id="node35" class="node"><title>Percona Server 5.6</title>
<ellipse fill="none" stroke="orange" cx="549.243" cy="-234" rx="77.9862" ry="18"/>
<text text-anchor="middle" x="549.243" y="-230.3" font-family="Times,serif" font-size="14.00">Percona Server 5.6</text>
</g>
<!-- MySQL 5.6&#45;&gt;Percona Server 5.6 -->
<g id="edge52" class="edge"><title>MySQL 5.6&#45;&gt;Percona Server 5.6</title>
<path fill="none" stroke="black" d="M429.237,-291.003C451.525,-280.601 482.229,-266.273 506.999,-254.714"/>
<polygon fill="black" stroke="black" points="508.591,-257.833 516.172,-250.433 505.63,-251.49 508.591,-257.833"/>
</g>
<!-- MySQL 8.0 -->
<g id="node16" class="node"><title>MySQL 8.0</title>
<ellipse fill="none" stroke="red" stroke-dasharray="5,2" cx="399.243" cy="-162" rx="53.8905" ry="18"/>
<text text-anchor="middle" x="399.243" y="-158.3" font-family="Times,serif" font-size="14.00">MySQL 8.0</text>
</g>
<!-- MySQL 5.7&#45;&gt;MySQL 8.0 -->
<g id="edge16" class="edge"><title>MySQL 5.7&#45;&gt;MySQL 8.0</title>
<path fill="none" stroke="black" stroke-dasharray="5,2" d="M399.243,-215.697C399.243,-207.983 399.243,-198.712 399.243,-190.112"/>
<polygon fill="black" stroke="black" points="402.743,-190.104 399.243,-180.104 395.743,-190.104 402.743,-190.104"/>
</g>
<!-- MySQL Cluster 7.5 -->
<g id="node24" class="node"><title>MySQL Cluster 7.5</title>
<ellipse fill="none" stroke="#cd0000" stroke-dasharray="5,2" cx="263.243" cy="-90" rx="81.4863" ry="18"/>
<text text-anchor="middle" x="263.243" y="-86.3" font-family="Times,serif" font-size="14.00">MySQL Cluster 7.5</text>
</g>
<!-- MySQL 5.7&#45;&gt;MySQL Cluster 7.5 -->
<g id="edge29" class="edge"><title>MySQL 5.7&#45;&gt;MySQL Cluster 7.5</title>
<path fill="none" stroke="black" d="M378.55,-217.19C365.836,-207.095 349.5,-193.424 336.243,-180 316.24,-159.747 295.897,-134.478 281.784,-116.045"/>
<polygon fill="black" stroke="black" points="284.403,-113.706 275.574,-107.849 278.824,-117.933 284.403,-113.706"/>
</g>
<!-- Percona Server 5.7 -->
<g id="node36" class="node"><title>Percona Server 5.7</title>
<ellipse fill="none" stroke="orange" cx="549.243" cy="-162" rx="77.9862" ry="18"/>
<text text-anchor="middle" x="549.243" y="-158.3" font-family="Times,serif" font-size="14.00">Percona Server 5.7</text>
</g>
<!-- MySQL 5.7&#45;&gt;Percona Server 5.7 -->
<g id="edge54" class="edge"><title>MySQL 5.7&#45;&gt;Percona Server 5.7</title>
<path fill="none" stroke="black" d="M429.237,-219.003C451.525,-208.601 482.229,-194.273 506.999,-182.714"/>
<polygon fill="black" stroke="black" points="508.591,-185.833 516.172,-178.433 505.63,-179.49 508.591,-185.833"/>
</g>
<!-- MySQL 5.4 -->
<g id="node13" class="node"><title>MySQL 5.4</title>
<ellipse fill="none" stroke="red" stroke-dasharray="1,5" cx="344.243" cy="-450" rx="53.8905" ry="18"/>
<text text-anchor="middle" x="344.243" y="-446.3" font-family="Times,serif" font-size="14.00">MySQL 5.4</text>
</g>
<!-- MySQL 5.4&#45;&gt;MySQL 5.5 -->
<g id="edge11" class="edge"><title>MySQL 5.4&#45;&gt;MySQL 5.5</title>
<path fill="none" stroke="grey" d="M357.277,-432.411C363.96,-423.906 372.236,-413.372 379.668,-403.914"/>
<polygon fill="grey" stroke="grey" points="382.494,-405.982 385.92,-395.956 376.99,-401.657 382.494,-405.982"/>
</g>
<!-- MySQL 6.0&#45;&gt;MySQL 5.5 -->
<g id="edge12" class="edge"><title>MySQL 6.0&#45;&gt;MySQL 5.5</title>
<path fill="none" stroke="grey" d="M476.858,-577.125C466.146,-567.416 453.396,-554.166 445.243,-540 420.382,-496.804 408.189,-439.256 402.846,-405.952"/>
<polygon fill="grey" stroke="grey" points="406.303,-405.403 401.345,-396.04 399.382,-406.452 406.303,-405.403"/>
</g>
<!-- Drizzle 7.0 -->
<g id="node37" class="node"><title>Drizzle 7.0</title>
<ellipse fill="none" stroke="#00008b" cx="504.243" cy="-522" rx="50.0912" ry="18"/>
<text text-anchor="middle" x="504.243" y="-518.3" font-family="Times,serif" font-size="14.00">Drizzle 7.0</text>
</g>
<!-- MySQL 6.0&#45;&gt;Drizzle 7.0 -->
<g id="edge56" class="edge"><title>MySQL 6.0&#45;&gt;Drizzle 7.0</title>
<path fill="none" stroke="black" d="M498.22,-575.697C499.102,-567.983 500.161,-558.712 501.144,-550.112"/>
<polygon fill="black" stroke="black" points="504.63,-550.437 502.288,-540.104 497.675,-549.642 504.63,-550.437"/>
</g>
<!-- MySQL 5.2&#45;&gt;MySQL 5.4 -->
<g id="edge15" class="edge"><title>MySQL 5.2&#45;&gt;MySQL 5.4</title>
<path fill="none" stroke="black" stroke-dasharray="5,2" d="M360.951,-575.871C357.713,-551.67 351.764,-507.211 347.908,-478.393"/>
<polygon fill="black" stroke="black" points="351.338,-477.637 346.543,-468.189 344.4,-478.565 351.338,-477.637"/>
</g>
<!-- MySQL Cluster 6.2&#45;&gt;MySQL Cluster 6.3 -->
<g id="edge19" class="edge"><title>MySQL Cluster 6.2&#45;&gt;MySQL Cluster 6.3</title>
<path fill="none" stroke="black" d="M90.4415,-576.055C94.8106,-568.007 100.132,-558.205 105.006,-549.226"/>
<polygon fill="black" stroke="black" points="108.17,-550.734 109.865,-540.275 102.018,-547.394 108.17,-550.734"/>
</g>
<!-- MySQL Cluster 6.3&#45;&gt;MySQL Cluster 7.0 -->
<g id="edge21" class="edge"><title>MySQL Cluster 6.3&#45;&gt;MySQL Cluster 7.0</title>
<path fill="none" stroke="black" d="M127.473,-504.055C131.341,-496.091 136.043,-486.411 140.367,-477.51"/>
<polygon fill="black" stroke="black" points="143.631,-478.8 144.852,-468.275 137.335,-475.741 143.631,-478.8"/>
</g>
<!-- MySQL Cluster 7.0&#45;&gt;MySQL Cluster 7.1 -->
<g id="edge23" class="edge"><title>MySQL Cluster 7.0&#45;&gt;MySQL Cluster 7.1</title>
<path fill="none" stroke="black" d="M175.282,-432.411C187.559,-423.17 203.016,-411.536 216.368,-401.487"/>
<polygon fill="black" stroke="black" points="218.476,-404.28 224.361,-395.47 214.267,-398.687 218.476,-404.28"/>
</g>
<!-- MySQL Cluster 7.1&#45;&gt;MySQL Cluster 7.2 -->
<g id="edge25" class="edge"><title>MySQL Cluster 7.1&#45;&gt;MySQL Cluster 7.2</title>
<path fill="none" stroke="black" d="M246.243,-359.697C246.243,-351.983 246.243,-342.712 246.243,-334.112"/>
<polygon fill="black" stroke="black" points="249.743,-334.104 246.243,-324.104 242.743,-334.104 249.743,-334.104"/>
</g>
<!-- MySQL Cluster 7.2&#45;&gt;MySQL Cluster 7.3 -->
<g id="edge27" class="edge"><title>MySQL Cluster 7.2&#45;&gt;MySQL Cluster 7.3</title>
<path fill="none" stroke="black" d="M246.243,-287.697C246.243,-279.983 246.243,-270.712 246.243,-262.112"/>
<polygon fill="black" stroke="black" points="249.743,-262.104 246.243,-252.104 242.743,-262.104 249.743,-262.104"/>
</g>
<!-- MySQL Cluster 7.4 -->
<g id="node23" class="node"><title>MySQL Cluster 7.4</title>
<ellipse fill="none" stroke="#cd0000" cx="208.243" cy="-162" rx="81.4863" ry="18"/>
<text text-anchor="middle" x="208.243" y="-158.3" font-family="Times,serif" font-size="14.00">MySQL Cluster 7.4</text>
</g>
<!-- MySQL Cluster 7.3&#45;&gt;MySQL Cluster 7.4 -->
<g id="edge28" class="edge"><title>MySQL Cluster 7.3&#45;&gt;MySQL Cluster 7.4</title>
<path fill="none" stroke="black" d="M237.044,-216.055C232.675,-208.007 227.354,-198.205 222.48,-189.226"/>
<polygon fill="black" stroke="black" points="225.468,-187.394 217.621,-180.275 219.316,-190.734 225.468,-187.394"/>
</g>
<!-- MySQL Cluster 7.4&#45;&gt;MySQL Cluster 7.5 -->
<g id="edge30" class="edge"><title>MySQL Cluster 7.4&#45;&gt;MySQL Cluster 7.5</title>
<path fill="none" stroke="black" stroke-dasharray="5,2" d="M221.557,-144.055C228.245,-135.543 236.475,-125.068 243.85,-115.681"/>
<polygon fill="black" stroke="black" points="246.625,-117.815 250.051,-107.789 241.121,-113.49 246.625,-117.815"/>
</g>
<!-- MariaDB 5.1&#45;&gt;MariaDB 5.2 -->
<g id="edge34" class="edge"><title>MariaDB 5.1&#45;&gt;MariaDB 5.2</title>
<path fill="none" stroke="black" d="M706.243,-503.697C706.243,-495.983 706.243,-486.712 706.243,-478.112"/>
<polygon fill="black" stroke="black" points="709.743,-478.104 706.243,-468.104 702.743,-478.104 709.743,-478.104"/>
</g>
<!-- MariaDB 5.2&#45;&gt;MariaDB 5.3 -->
<g id="edge37" class="edge"><title>MariaDB 5.2&#45;&gt;MariaDB 5.3</title>
<path fill="none" stroke="black" d="M706.243,-431.697C706.243,-423.983 706.243,-414.712 706.243,-406.112"/>
<polygon fill="black" stroke="black" points="709.743,-406.104 706.243,-396.104 702.743,-406.104 709.743,-406.104"/>
</g>
<!-- MariaDB 5.3&#45;&gt;MariaDB 5.5 -->
<g id="edge40" class="edge"><title>MariaDB 5.3&#45;&gt;MariaDB 5.5</title>
<path fill="none" stroke="black" d="M716.539,-359.96C722.137,-349.863 728.637,-336.613 732.243,-324 738.032,-303.749 740.213,-279.976 740.984,-262.097"/>
<polygon fill="black" stroke="black" points="744.484,-262.171 741.297,-252.067 737.487,-261.952 744.484,-262.171"/>
</g>
<!-- MariaDB 5.3&#45;&gt;Percona Server 5.5 -->
<g id="edge51" class="edge"><title>MariaDB 5.3&#45;&gt;Percona Server 5.5</title>
<path fill="none" stroke="grey" d="M691.787,-360.411C684.3,-351.82 675.01,-341.159 666.704,-331.627"/>
<polygon fill="grey" stroke="grey" points="669.227,-329.196 660.019,-323.956 663.95,-333.795 669.227,-329.196"/>
</g>
<!-- MariaDB 10.0 -->
<g id="node29" class="node"><title>MariaDB 10.0</title>
<ellipse fill="none" stroke="blue" cx="724.243" cy="-162" rx="62.2891" ry="18"/>
<text text-anchor="middle" x="724.243" y="-158.3" font-family="Times,serif" font-size="14.00">MariaDB 10.0</text>
</g>
<!-- MariaDB 5.5&#45;&gt;MariaDB 10.0 -->
<g id="edge42" class="edge"><title>MariaDB 5.5&#45;&gt;MariaDB 10.0</title>
<path fill="none" stroke="black" d="M737.041,-215.697C735.147,-207.898 732.866,-198.509 730.758,-189.829"/>
<polygon fill="black" stroke="black" points="734.158,-188.996 728.397,-180.104 727.356,-190.648 734.158,-188.996"/>
</g>
<!-- MariaDB 10.1 -->
<g id="node30" class="node"><title>MariaDB 10.1</title>
<ellipse fill="none" stroke="blue" cx="724.243" cy="-90" rx="62.2891" ry="18"/>
<text text-anchor="middle" x="724.243" y="-86.3" font-family="Times,serif" font-size="14.00">MariaDB 10.1</text>
</g>
<!-- MariaDB 10.0&#45;&gt;MariaDB 10.1 -->
<g id="edge44" class="edge"><title>MariaDB 10.0&#45;&gt;MariaDB 10.1</title>
<path fill="none" stroke="black" d="M724.243,-143.697C724.243,-135.983 724.243,-126.712 724.243,-118.112"/>
<polygon fill="black" stroke="black" points="727.743,-118.104 724.243,-108.104 720.743,-118.104 727.743,-118.104"/>
</g>
<!-- MariaDB 10.2 -->
<g id="node31" class="node"><title>MariaDB 10.2</title>
<ellipse fill="none" stroke="blue" stroke-dasharray="5,2" cx="724.243" cy="-18" rx="62.2891" ry="18"/>
<text text-anchor="middle" x="724.243" y="-14.3" font-family="Times,serif" font-size="14.00">MariaDB 10.2</text>
</g>
<!-- MariaDB 10.1&#45;&gt;MariaDB 10.2 -->
<g id="edge45" class="edge"><title>MariaDB 10.1&#45;&gt;MariaDB 10.2</title>
<path fill="none" stroke="black" stroke-dasharray="5,2" d="M724.243,-71.6966C724.243,-63.9827 724.243,-54.7125 724.243,-46.1124"/>
<polygon fill="black" stroke="black" points="727.743,-46.1043 724.243,-36.1043 720.743,-46.1044 727.743,-46.1043"/>
</g>
<!-- Percona Server 5.1&#45;&gt;MariaDB 5.1 -->
<g id="edge32" class="edge"><title>Percona Server 5.1&#45;&gt;MariaDB 5.1</title>
<path fill="none" stroke="grey" d="M766.521,-576.411C756.314,-567.367 743.519,-556.03 732.346,-546.13"/>
<polygon fill="grey" stroke="grey" points="734.364,-543.241 724.558,-539.228 729.721,-548.48 734.364,-543.241"/>
</g>
<!-- Percona Server 5.1&#45;&gt;MariaDB 5.2 -->
<g id="edge35" class="edge"><title>Percona Server 5.1&#45;&gt;MariaDB 5.2</title>
<path fill="none" stroke="grey" d="M786.599,-575.731C787.28,-556.864 785.976,-526.353 773.243,-504 765.918,-491.141 754.125,-480.254 742.459,-471.756"/>
<polygon fill="grey" stroke="grey" points="744.28,-468.761 734.052,-465.996 740.323,-474.536 744.28,-468.761"/>
</g>
<!-- Percona Server 5.1&#45;&gt;MariaDB 5.3 -->
<g id="edge38" class="edge"><title>Percona Server 5.1&#45;&gt;MariaDB 5.3</title>
<path fill="none" stroke="grey" d="M789.043,-575.758C794.963,-544.268 802.86,-476.596 773.243,-432 764.923,-419.473 752.684,-408.556 740.935,-399.937"/>
<polygon fill="grey" stroke="grey" points="742.735,-396.925 732.53,-394.078 738.732,-402.668 742.735,-396.925"/>
</g>
<!-- Percona Server 5.1&#45;&gt;Percona Server 5.5 -->
<g id="edge50" class="edge"><title>Percona Server 5.1&#45;&gt;Percona Server 5.5</title>
<path fill="none" stroke="black" d="M795.197,-575.978C800.515,-565.888 806.515,-552.638 809.243,-540 826.457,-460.253 828.096,-420.391 773.243,-360 756.758,-341.851 733.106,-329.752 710.609,-321.763"/>
<polygon fill="black" stroke="black" points="711.655,-318.422 701.062,-318.585 709.444,-325.064 711.655,-318.422"/>
</g>
<!-- Percona Server 5.5&#45;&gt;MariaDB 5.5 -->
<g id="edge41" class="edge"><title>Percona Server 5.5&#45;&gt;MariaDB 5.5</title>
<path fill="none" stroke="grey" d="M667.993,-288.411C680.942,-278.969 697.317,-267.029 711.3,-256.834"/>
<polygon fill="grey" stroke="grey" points="713.626,-259.469 719.644,-250.749 709.502,-253.813 713.626,-259.469"/>
</g>
<!-- Percona Server 5.5&#45;&gt;MariaDB 10.0 -->
<g id="edge43" class="edge"><title>Percona Server 5.5&#45;&gt;MariaDB 10.0</title>
<path fill="none" stroke="grey" d="M648.443,-287.998C652.466,-269.366 660.557,-239.059 674.243,-216 680.535,-205.399 689.282,-195.189 697.703,-186.608"/>
<polygon fill="grey" stroke="grey" points="700.25,-189.013 704.95,-179.517 695.355,-184.009 700.25,-189.013"/>
</g>
<!-- Percona Server 5.5&#45;&gt;Percona Server 5.6 -->
<g id="edge53" class="edge"><title>Percona Server 5.5&#45;&gt;Percona Server 5.6</title>
<path fill="none" stroke="black" d="M622.492,-288.411C609.819,-279.17 593.864,-267.536 580.082,-257.487"/>
<polygon fill="black" stroke="black" points="581.972,-254.534 571.83,-251.47 577.848,-260.19 581.972,-254.534"/>
</g>
<!-- Percona Server 5.0&#45;&gt;Percona Server 5.1 -->
<g id="edge48" class="edge"><title>Percona Server 5.0&#45;&gt;Percona Server 5.1</title>
<path fill="none" stroke="black" d="M731.832,-648.411C740.595,-639.648 751.511,-628.732 761.186,-619.057"/>
<polygon fill="black" stroke="black" points="763.69,-621.502 768.287,-611.956 758.741,-616.552 763.69,-621.502"/>
</g>
<!-- Percona Server 5.6&#45;&gt;Percona Server 5.7 -->
<g id="edge55" class="edge"><title>Percona Server 5.6&#45;&gt;Percona Server 5.7</title>
<path fill="none" stroke="black" d="M549.243,-215.697C549.243,-207.983 549.243,-198.712 549.243,-190.112"/>
<polygon fill="black" stroke="black" points="552.743,-190.104 549.243,-180.104 545.743,-190.104 552.743,-190.104"/>
</g>
<!-- Drizzle 7.1 -->
<g id="node38" class="node"><title>Drizzle 7.1</title>
<ellipse fill="none" stroke="#00008b" cx="504.243" cy="-450" rx="50.0912" ry="18"/>
<text text-anchor="middle" x="504.243" y="-446.3" font-family="Times,serif" font-size="14.00">Drizzle 7.1</text>
</g>
<!-- Drizzle 7.0&#45;&gt;Drizzle 7.1 -->
<g id="edge57" class="edge"><title>Drizzle 7.0&#45;&gt;Drizzle 7.1</title>
<path fill="none" stroke="black" d="M504.243,-503.697C504.243,-495.983 504.243,-486.712 504.243,-478.112"/>
<polygon fill="black" stroke="black" points="507.743,-478.104 504.243,-468.104 500.743,-478.104 507.743,-478.104"/>
</g>
<!-- Drizzle 7.2 -->
<g id="node39" class="node"><title>Drizzle 7.2</title>
<ellipse fill="none" stroke="#00008b" stroke-dasharray="5,2" cx="521.243" cy="-378" rx="50.0912" ry="18"/>
<text text-anchor="middle" x="521.243" y="-374.3" font-family="Times,serif" font-size="14.00">Drizzle 7.2</text>
</g>
<!-- Drizzle 7.1&#45;&gt;Drizzle 7.2 -->
<g id="edge58" class="edge"><title>Drizzle 7.1&#45;&gt;Drizzle 7.2</title>
<path fill="none" stroke="black" stroke-dasharray="5,2" d="M508.358,-432.055C510.251,-424.261 512.543,-414.822 514.666,-406.079"/>
<polygon fill="black" stroke="black" points="518.088,-406.819 517.047,-396.275 511.286,-405.167 518.088,-406.819"/>
</g>
</g>
</svg>
