<?xml version="1.0" encoding="UTF-8" standalone="no"?>
<!DOCTYPE svg PUBLIC "-//W3C//DTD SVG 1.1//EN"
 "http://www.w3.org/Graphics/SVG/1.1/DTD/svg11.dtd">
<!-- Generated by graphviz version 12.1.0 (20240811.2233)
 -->
<!-- Title: mysql_only_history_graph Pages: 1 -->
<svg width="612pt" height="1502pt"
 viewBox="0.00 0.00 612.50 1502.00" xmlns="http://www.w3.org/2000/svg" xmlns:xlink="http://www.w3.org/1999/xlink">
<g id="graph0" class="graph" transform="scale(1 1) rotate(0) translate(4 1498)">
<title>mysql_only_history_graph</title>
<polygon fill="white" stroke="none" points="-4,4 -4,-1498 608.5,-1498 608.5,4 -4,4"/>
<!-- MySQL 3.19 -->
<g id="node1" class="node">
<title>MySQL 3.19</title>
<ellipse fill="none" stroke="red" cx="448.45" cy="-1368" rx="60.05" ry="18"/>
<text text-anchor="middle" x="448.45" y="-1362.95" font-family="Times,serif" font-size="14.00">MySQL 3.19</text>
</g>
<!-- MySQL 3.20 -->
<g id="node2" class="node">
<title>MySQL 3.20</title>
<ellipse fill="none" stroke="red" cx="448.45" cy="-1314" rx="60.05" ry="18"/>
<text text-anchor="middle" x="448.45" y="-1308.95" font-family="Times,serif" font-size="14.00">MySQL 3.20</text>
</g>
<!-- MySQL 3.19&#45;&gt;MySQL 3.20 -->
<g id="edge1" class="edge">
<title>MySQL 3.19&#45;&gt;MySQL 3.20</title>
<path fill="none" stroke="black" d="M448.45,-1349.68C448.45,-1347.78 448.45,-1345.8 448.45,-1343.79"/>
<polygon fill="black" stroke="black" points="451.95,-1343.93 448.45,-1333.93 444.95,-1343.93 451.95,-1343.93"/>
</g>
<!-- MySQL 3.21 -->
<g id="node3" class="node">
<title>MySQL 3.21</title>
<ellipse fill="none" stroke="red" cx="448.45" cy="-1260" rx="60.05" ry="18"/>
<text text-anchor="middle" x="448.45" y="-1254.95" font-family="Times,serif" font-size="14.00">MySQL 3.21</text>
</g>
<!-- MySQL 3.20&#45;&gt;MySQL 3.21 -->
<g id="edge2" class="edge">
<title>MySQL 3.20&#45;&gt;MySQL 3.21</title>
<path fill="none" stroke="black" d="M448.45,-1295.68C448.45,-1293.78 448.45,-1291.8 448.45,-1289.79"/>
<polygon fill="black" stroke="black" points="451.95,-1289.93 448.45,-1279.93 444.95,-1289.93 451.95,-1289.93"/>
</g>
<!-- MySQL 3.22 -->
<g id="node4" class="node">
<title>MySQL 3.22</title>
<ellipse fill="none" stroke="red" cx="448.45" cy="-1206" rx="60.05" ry="18"/>
<text text-anchor="middle" x="448.45" y="-1200.95" font-family="Times,serif" font-size="14.00">MySQL 3.22</text>
</g>
<!-- MySQL 3.21&#45;&gt;MySQL 3.22 -->
<g id="edge3" class="edge">
<title>MySQL 3.21&#45;&gt;MySQL 3.22</title>
<path fill="none" stroke="black" d="M448.45,-1241.68C448.45,-1239.78 448.45,-1237.8 448.45,-1235.79"/>
<polygon fill="black" stroke="black" points="451.95,-1235.93 448.45,-1225.93 444.95,-1235.93 451.95,-1235.93"/>
</g>
<!-- MySQL 3.23 -->
<g id="node5" class="node">
<title>MySQL 3.23</title>
<ellipse fill="none" stroke="red" cx="448.45" cy="-1152" rx="60.05" ry="18"/>
<text text-anchor="middle" x="448.45" y="-1146.95" font-family="Times,serif" font-size="14.00">MySQL 3.23</text>
</g>
<!-- MySQL 3.22&#45;&gt;MySQL 3.23 -->
<g id="edge4" class="edge">
<title>MySQL 3.22&#45;&gt;MySQL 3.23</title>
<path fill="none" stroke="black" d="M448.45,-1187.68C448.45,-1185.78 448.45,-1183.8 448.45,-1181.79"/>
<polygon fill="black" stroke="black" points="451.95,-1181.93 448.45,-1171.93 444.95,-1181.93 451.95,-1181.93"/>
</g>
<!-- MySQL 4.0 -->
<g id="node6" class="node">
<title>MySQL 4.0</title>
<ellipse fill="none" stroke="red" cx="448.45" cy="-1098" rx="55.45" ry="18"/>
<text text-anchor="middle" x="448.45" y="-1092.95" font-family="Times,serif" font-size="14.00">MySQL 4.0</text>
</g>
<!-- MySQL 3.23&#45;&gt;MySQL 4.0 -->
<g id="edge5" class="edge">
<title>MySQL 3.23&#45;&gt;MySQL 4.0</title>
<path fill="none" stroke="black" d="M448.45,-1133.68C448.45,-1131.78 448.45,-1129.8 448.45,-1127.79"/>
<polygon fill="black" stroke="black" points="451.95,-1127.93 448.45,-1117.93 444.95,-1127.93 451.95,-1127.93"/>
</g>
<!-- MySQL 4.1 -->
<g id="node7" class="node">
<title>MySQL 4.1</title>
<ellipse fill="none" stroke="red" cx="448.45" cy="-1044" rx="55.45" ry="18"/>
<text text-anchor="middle" x="448.45" y="-1038.95" font-family="Times,serif" font-size="14.00">MySQL 4.1</text>
</g>
<!-- MySQL 4.0&#45;&gt;MySQL 4.1 -->
<g id="edge6" class="edge">
<title>MySQL 4.0&#45;&gt;MySQL 4.1</title>
<path fill="none" stroke="black" d="M448.45,-1079.68C448.45,-1077.78 448.45,-1075.8 448.45,-1073.79"/>
<polygon fill="black" stroke="black" points="451.95,-1073.93 448.45,-1063.93 444.95,-1073.93 451.95,-1073.93"/>
</g>
<!-- MySQL 5.0 -->
<g id="node8" class="node">
<title>MySQL 5.0</title>
<ellipse fill="none" stroke="red" cx="448.45" cy="-990" rx="55.45" ry="18"/>
<text text-anchor="middle" x="448.45" y="-984.95" font-family="Times,serif" font-size="14.00">MySQL 5.0</text>
</g>
<!-- MySQL 4.1&#45;&gt;MySQL 5.0 -->
<g id="edge7" class="edge">
<title>MySQL 4.1&#45;&gt;MySQL 5.0</title>
<path fill="none" stroke="black" d="M448.45,-1025.68C448.45,-1023.78 448.45,-1021.8 448.45,-1019.79"/>
<polygon fill="black" stroke="black" points="451.95,-1019.93 448.45,-1009.93 444.95,-1019.93 451.95,-1019.93"/>
</g>
<!-- MySQL 5.1 -->
<g id="node9" class="node">
<title>MySQL 5.1</title>
<ellipse fill="none" stroke="red" cx="448.45" cy="-936" rx="55.45" ry="18"/>
<text text-anchor="middle" x="448.45" y="-930.95" font-family="Times,serif" font-size="14.00">MySQL 5.1</text>
</g>
<!-- MySQL 5.0&#45;&gt;MySQL 5.1 -->
<g id="edge8" class="edge">
<title>MySQL 5.0&#45;&gt;MySQL 5.1</title>
<path fill="none" stroke="black" d="M448.45,-971.68C448.45,-969.78 448.45,-967.8 448.45,-965.79"/>
<polygon fill="black" stroke="black" points="451.95,-965.93 448.45,-955.93 444.95,-965.93 451.95,-965.93"/>
</g>
<!-- MySQL 6.0 -->
<g id="node21" class="node">
<title>MySQL 6.0</title>
<ellipse fill="none" stroke="red" stroke-dasharray="1,5" cx="55.45" cy="-882" rx="55.45" ry="18"/>
<text text-anchor="middle" x="55.45" y="-876.95" font-family="Times,serif" font-size="14.00">MySQL 6.0</text>
</g>
<!-- MySQL 5.1&#45;&gt;MySQL 6.0 -->
<g id="edge25" class="edge">
<title>MySQL 5.1&#45;&gt;MySQL 6.0</title>
<path fill="none" stroke="black" stroke-dasharray="5,2" d="M394.84,-931.04C331.25,-925.9 222.15,-915.68 129.45,-900 122.95,-898.9 116.17,-897.58 109.47,-896.18"/>
<polygon fill="black" stroke="black" points="110.31,-892.78 99.8,-894.06 108.82,-899.62 110.31,-892.78"/>
</g>
<!-- MySQL 5.2 -->
<g id="node26" class="node">
<title>MySQL 5.2</title>
<ellipse fill="none" stroke="red" stroke-dasharray="1,5" cx="202.45" cy="-882" rx="55.45" ry="18"/>
<text text-anchor="middle" x="202.45" y="-876.95" font-family="Times,serif" font-size="14.00">MySQL 5.2</text>
</g>
<!-- MySQL 5.1&#45;&gt;MySQL 5.2 -->
<g id="edge24" class="edge">
<title>MySQL 5.1&#45;&gt;MySQL 5.2</title>
<path fill="none" stroke="black" stroke-dasharray="5,2" d="M401.74,-925.93C366.88,-919.08 318.11,-909.28 275.45,-900 269.49,-898.7 263.26,-897.31 257.07,-895.9"/>
<polygon fill="black" stroke="black" points="258.02,-892.53 247.49,-893.71 256.46,-899.35 258.02,-892.53"/>
</g>
<!-- MySQL Cluster 6.2 -->
<g id="node27" class="node">
<title>MySQL Cluster 6.2</title>
<ellipse fill="none" stroke="#cd0000" cx="378.45" cy="-882" rx="84.62" ry="18"/>
<text text-anchor="middle" x="378.45" y="-876.95" font-family="Times,serif" font-size="14.00">MySQL Cluster 6.2</text>
</g>
<!-- MySQL 5.1&#45;&gt;MySQL Cluster 6.2 -->
<g id="edge27" class="edge">
<title>MySQL 5.1&#45;&gt;MySQL Cluster 6.2</title>
<path fill="none" stroke="black" d="M427.06,-919.12C421.58,-915.04 415.56,-910.57 409.68,-906.2"/>
<polygon fill="black" stroke="black" points="412,-903.56 401.88,-900.41 407.82,-909.18 412,-903.56"/>
</g>
<!-- MySQL Cluster 6.3 -->
<g id="node28" class="node">
<title>MySQL Cluster 6.3</title>
<ellipse fill="none" stroke="#cd0000" cx="452.45" cy="-828" rx="84.62" ry="18"/>
<text text-anchor="middle" x="452.45" y="-822.95" font-family="Times,serif" font-size="14.00">MySQL Cluster 6.3</text>
</g>
<!-- MySQL 5.1&#45;&gt;MySQL Cluster 6.3 -->
<g id="edge28" class="edge">
<title>MySQL 5.1&#45;&gt;MySQL Cluster 6.3</title>
<path fill="none" stroke="black" d="M468.58,-918.75C473.77,-913.39 478.67,-906.99 481.45,-900 487.35,-885.13 486.87,-879.05 481.45,-864 480.34,-860.94 478.84,-857.95 477.1,-855.1"/>
<polygon fill="black" stroke="black" points="480.08,-853.25 471.37,-847.22 474.42,-857.37 480.08,-853.25"/>
</g>
<!-- MySQL Cluster 7.0 -->
<g id="node29" class="node">
<title>MySQL Cluster 7.0</title>
<ellipse fill="none" stroke="#cd0000" cx="489.45" cy="-774" rx="84.62" ry="18"/>
<text text-anchor="middle" x="489.45" y="-768.95" font-family="Times,serif" font-size="14.00">MySQL Cluster 7.0</text>
</g>
<!-- MySQL 5.1&#45;&gt;MySQL Cluster 7.0 -->
<g id="edge30" class="edge">
<title>MySQL 5.1&#45;&gt;MySQL Cluster 7.0</title>
<path fill="none" stroke="black" d="M479.67,-920.71C506.55,-906.31 542.93,-881.17 555.45,-846 560.81,-830.93 563.69,-823.71 555.45,-810 552.19,-804.58 547.77,-799.96 542.77,-796.02"/>
<polygon fill="black" stroke="black" points="544.75,-793.14 534.49,-790.5 540.87,-798.96 544.75,-793.14"/>
</g>
<!-- MySQL Cluster 7.1 -->
<g id="node30" class="node">
<title>MySQL Cluster 7.1</title>
<ellipse fill="none" stroke="#cd0000" cx="489.45" cy="-720" rx="84.62" ry="18"/>
<text text-anchor="middle" x="489.45" y="-714.95" font-family="Times,serif" font-size="14.00">MySQL Cluster 7.1</text>
</g>
<!-- MySQL 5.1&#45;&gt;MySQL Cluster 7.1 -->
<g id="edge32" class="edge">
<title>MySQL 5.1&#45;&gt;MySQL Cluster 7.1</title>
<path fill="none" stroke="black" d="M497.97,-927.48C518.16,-922.42 540.64,-913.99 557.45,-900 578.38,-882.57 578.35,-872.01 586.45,-846 598.36,-807.72 615.79,-788.59 592.45,-756 586.12,-747.17 577.44,-740.54 567.77,-735.57"/>
<polygon fill="black" stroke="black" points="569.35,-732.44 558.79,-731.58 566.51,-738.84 569.35,-732.44"/>
</g>
<!-- MySQL 5.5 -->
<g id="node10" class="node">
<title>MySQL 5.5</title>
<ellipse fill="none" stroke="red" cx="202.45" cy="-774" rx="55.45" ry="18"/>
<text text-anchor="middle" x="202.45" y="-768.95" font-family="Times,serif" font-size="14.00">MySQL 5.5</text>
</g>
<!-- MySQL 5.6 -->
<g id="node11" class="node">
<title>MySQL 5.6</title>
<ellipse fill="none" stroke="red" cx="202.45" cy="-666" rx="55.45" ry="18"/>
<text text-anchor="middle" x="202.45" y="-660.95" font-family="Times,serif" font-size="14.00">MySQL 5.6</text>
</g>
<!-- MySQL 5.5&#45;&gt;MySQL 5.6 -->
<g id="edge11" class="edge">
<title>MySQL 5.5&#45;&gt;MySQL 5.6</title>
<path fill="none" stroke="black" d="M202.45,-755.97C202.45,-739.76 202.45,-715.06 202.45,-695.79"/>
<polygon fill="black" stroke="black" points="205.95,-695.85 202.45,-685.85 198.95,-695.85 205.95,-695.85"/>
</g>
<!-- MySQL Cluster 7.2 -->
<g id="node31" class="node">
<title>MySQL Cluster 7.2</title>
<ellipse fill="none" stroke="#cd0000" cx="378.45" cy="-666" rx="84.62" ry="18"/>
<text text-anchor="middle" x="378.45" y="-660.95" font-family="Times,serif" font-size="14.00">MySQL Cluster 7.2</text>
</g>
<!-- MySQL 5.5&#45;&gt;MySQL Cluster 7.2 -->
<g id="edge34" class="edge">
<title>MySQL 5.5&#45;&gt;MySQL Cluster 7.2</title>
<path fill="none" stroke="black" d="M228.04,-757.59C257.89,-739.61 307.47,-709.74 341.5,-689.25"/>
<polygon fill="black" stroke="black" points="343.03,-692.42 349.79,-684.26 339.42,-686.42 343.03,-692.42"/>
</g>
<!-- MySQL 5.7 -->
<g id="node12" class="node">
<title>MySQL 5.7</title>
<ellipse fill="none" stroke="red" cx="202.45" cy="-558" rx="55.45" ry="18"/>
<text text-anchor="middle" x="202.45" y="-552.95" font-family="Times,serif" font-size="14.00">MySQL 5.7</text>
</g>
<!-- MySQL 5.6&#45;&gt;MySQL 5.7 -->
<g id="edge12" class="edge">
<title>MySQL 5.6&#45;&gt;MySQL 5.7</title>
<path fill="none" stroke="black" d="M202.45,-647.97C202.45,-631.76 202.45,-607.06 202.45,-587.79"/>
<polygon fill="black" stroke="black" points="205.95,-587.85 202.45,-577.85 198.95,-587.85 205.95,-587.85"/>
</g>
<!-- MySQL Cluster 7.3 -->
<g id="node32" class="node">
<title>MySQL Cluster 7.3</title>
<ellipse fill="none" stroke="#cd0000" cx="378.45" cy="-612" rx="84.62" ry="18"/>
<text text-anchor="middle" x="378.45" y="-606.95" font-family="Times,serif" font-size="14.00">MySQL Cluster 7.3</text>
</g>
<!-- MySQL 5.6&#45;&gt;MySQL Cluster 7.3 -->
<g id="edge36" class="edge">
<title>MySQL 5.6&#45;&gt;MySQL Cluster 7.3</title>
<path fill="none" stroke="black" d="M242.38,-653.2C265.18,-646.47 294.18,-637.9 319.54,-630.4"/>
<polygon fill="black" stroke="black" points="320.48,-633.78 329.08,-627.59 318.5,-627.06 320.48,-633.78"/>
</g>
<!-- MySQL 8.0 -->
<g id="node13" class="node">
<title>MySQL 8.0</title>
<ellipse fill="none" stroke="red" cx="272.45" cy="-396" rx="55.45" ry="18"/>
<text text-anchor="middle" x="272.45" y="-390.95" font-family="Times,serif" font-size="14.00">MySQL 8.0</text>
</g>
<!-- MySQL 5.7&#45;&gt;MySQL 8.0 -->
<g id="edge13" class="edge">
<title>MySQL 5.7&#45;&gt;MySQL 8.0</title>
<path fill="none" stroke="black" d="M204.92,-539.83C209.1,-514.77 219.14,-467.31 239.45,-432 241.52,-428.38 244.05,-424.85 246.76,-421.5"/>
<polygon fill="black" stroke="black" points="249.17,-424.05 253.22,-414.26 243.95,-419.39 249.17,-424.05"/>
</g>
<!-- MySQL Cluster 7.5 -->
<g id="node34" class="node">
<title>MySQL Cluster 7.5</title>
<ellipse fill="none" stroke="#cd0000" cx="342.45" cy="-504" rx="84.62" ry="18"/>
<text text-anchor="middle" x="342.45" y="-498.95" font-family="Times,serif" font-size="14.00">MySQL Cluster 7.5</text>
</g>
<!-- MySQL 5.7&#45;&gt;MySQL Cluster 7.5 -->
<g id="edge39" class="edge">
<title>MySQL 5.7&#45;&gt;MySQL Cluster 7.5</title>
<path fill="none" stroke="black" d="M237.77,-543.88C253.87,-537.9 273.25,-530.7 290.93,-524.14"/>
<polygon fill="black" stroke="black" points="292.1,-527.44 300.25,-520.67 289.66,-520.87 292.1,-527.44"/>
</g>
<!-- MySQL 8.1 -->
<g id="node14" class="node">
<title>MySQL 8.1</title>
<ellipse fill="none" stroke="pink" cx="272.45" cy="-342" rx="55.45" ry="18"/>
<text text-anchor="middle" x="272.45" y="-336.95" font-family="Times,serif" font-size="14.00">MySQL 8.1</text>
</g>
<!-- MySQL 8.0&#45;&gt;MySQL 8.1 -->
<g id="edge15" class="edge">
<title>MySQL 8.0&#45;&gt;MySQL 8.1</title>
<path fill="none" stroke="black" d="M272.45,-377.68C272.45,-375.78 272.45,-373.8 272.45,-371.79"/>
<polygon fill="black" stroke="black" points="275.95,-371.93 272.45,-361.93 268.95,-371.93 275.95,-371.93"/>
</g>
<!-- MySQL 8.2 -->
<g id="node15" class="node">
<title>MySQL 8.2</title>
<ellipse fill="none" stroke="pink" cx="272.45" cy="-288" rx="55.45" ry="18"/>
<text text-anchor="middle" x="272.45" y="-282.95" font-family="Times,serif" font-size="14.00">MySQL 8.2</text>
</g>
<!-- MySQL 8.1&#45;&gt;MySQL 8.2 -->
<g id="edge16" class="edge">
<title>MySQL 8.1&#45;&gt;MySQL 8.2</title>
<path fill="none" stroke="black" d="M272.45,-323.68C272.45,-321.78 272.45,-319.8 272.45,-317.79"/>
<polygon fill="black" stroke="black" points="275.95,-317.93 272.45,-307.93 268.95,-317.93 275.95,-317.93"/>
</g>
<!-- MySQL 8.3 -->
<g id="node16" class="node">
<title>MySQL 8.3</title>
<ellipse fill="none" stroke="pink" cx="272.45" cy="-234" rx="55.45" ry="18"/>
<text text-anchor="middle" x="272.45" y="-228.95" font-family="Times,serif" font-size="14.00">MySQL 8.3</text>
</g>
<!-- MySQL 8.2&#45;&gt;MySQL 8.3 -->
<g id="edge17" class="edge">
<title>MySQL 8.2&#45;&gt;MySQL 8.3</title>
<path fill="none" stroke="black" d="M272.45,-269.68C272.45,-267.78 272.45,-265.8 272.45,-263.79"/>
<polygon fill="black" stroke="black" points="275.95,-263.93 272.45,-253.93 268.95,-263.93 275.95,-263.93"/>
</g>
<!-- MySQL 8.4 -->
<g id="node17" class="node">
<title>MySQL 8.4</title>
<ellipse fill="none" stroke="red" cx="272.45" cy="-180" rx="55.45" ry="18"/>
<text text-anchor="middle" x="272.45" y="-174.95" font-family="Times,serif" font-size="14.00">MySQL 8.4</text>
</g>
<!-- MySQL 8.3&#45;&gt;MySQL 8.4 -->
<g id="edge18" class="edge">
<title>MySQL 8.3&#45;&gt;MySQL 8.4</title>
<path fill="none" stroke="black" d="M272.45,-215.68C272.45,-213.78 272.45,-211.8 272.45,-209.79"/>
<polygon fill="black" stroke="black" points="275.95,-209.93 272.45,-199.93 268.95,-209.93 275.95,-209.93"/>
</g>
<!-- MySQL 9.0 -->
<g id="node18" class="node">
<title>MySQL 9.0</title>
<ellipse fill="none" stroke="pink" cx="272.45" cy="-126" rx="55.45" ry="18"/>
<text text-anchor="middle" x="272.45" y="-120.95" font-family="Times,serif" font-size="14.00">MySQL 9.0</text>
</g>
<!-- MySQL 8.4&#45;&gt;MySQL 9.0 -->
<g id="edge19" class="edge">
<title>MySQL 8.4&#45;&gt;MySQL 9.0</title>
<path fill="none" stroke="black" d="M272.45,-161.68C272.45,-159.78 272.45,-157.8 272.45,-155.79"/>
<polygon fill="black" stroke="black" points="275.95,-155.93 272.45,-145.93 268.95,-155.93 275.95,-155.93"/>
</g>
<!-- MySQL 9.1 -->
<g id="node19" class="node">
<title>MySQL 9.1</title>
<ellipse fill="none" stroke="pink" cx="272.45" cy="-72" rx="55.45" ry="18"/>
<text text-anchor="middle" x="272.45" y="-66.95" font-family="Times,serif" font-size="14.00">MySQL 9.1</text>
</g>
<!-- MySQL 9.0&#45;&gt;MySQL 9.1 -->
<g id="edge20" class="edge">
<title>MySQL 9.0&#45;&gt;MySQL 9.1</title>
<path fill="none" stroke="black" d="M272.45,-107.68C272.45,-105.78 272.45,-103.8 272.45,-101.79"/>
<polygon fill="black" stroke="black" points="275.95,-101.93 272.45,-91.93 268.95,-101.93 275.95,-101.93"/>
</g>
<!-- MySQL 9.2 -->
<g id="node20" class="node">
<title>MySQL 9.2</title>
<ellipse fill="none" stroke="pink" cx="272.45" cy="-18" rx="55.45" ry="18"/>
<text text-anchor="middle" x="272.45" y="-12.95" font-family="Times,serif" font-size="14.00">MySQL 9.2</text>
</g>
<!-- MySQL 9.1&#45;&gt;MySQL 9.2 -->
<g id="edge21" class="edge">
<title>MySQL 9.1&#45;&gt;MySQL 9.2</title>
<path fill="none" stroke="black" d="M272.45,-53.68C272.45,-51.78 272.45,-49.8 272.45,-47.79"/>
<polygon fill="black" stroke="black" points="275.95,-47.93 272.45,-37.93 268.95,-47.93 275.95,-47.93"/>
</g>
<!-- MySQL 6.0&#45;&gt;MySQL 5.5 -->
<g id="edge9" class="edge">
<title>MySQL 6.0&#45;&gt;MySQL 5.5</title>
<path fill="none" stroke="grey" d="M70.05,-864.2C84.13,-848.72 106.62,-825.82 129.45,-810 138.36,-803.82 148.54,-798.19 158.41,-793.33"/>
<polygon fill="grey" stroke="grey" points="159.59,-796.64 167.14,-789.21 156.6,-790.31 159.59,-796.64"/>
</g>
<!-- MySQL 5.4 -->
<g id="node22" class="node">
<title>MySQL 5.4</title>
<ellipse fill="none" stroke="red" stroke-dasharray="1,5" cx="202.45" cy="-828" rx="55.45" ry="18"/>
<text text-anchor="middle" x="202.45" y="-822.95" font-family="Times,serif" font-size="14.00">MySQL 5.4</text>
</g>
<!-- MySQL 5.4&#45;&gt;MySQL 5.5 -->
<g id="edge10" class="edge">
<title>MySQL 5.4&#45;&gt;MySQL 5.5</title>
<path fill="none" stroke="grey" d="M202.45,-809.68C202.45,-807.78 202.45,-805.8 202.45,-803.79"/>
<polygon fill="grey" stroke="grey" points="205.95,-803.93 202.45,-793.93 198.95,-803.93 205.95,-803.93"/>
</g>
<!-- MySQL Cluster 7.6 -->
<g id="node23" class="node">
<title>MySQL Cluster 7.6</title>
<ellipse fill="none" stroke="#cd0000" cx="342.45" cy="-450" rx="84.62" ry="18"/>
<text text-anchor="middle" x="342.45" y="-444.95" font-family="Times,serif" font-size="14.00">MySQL Cluster 7.6</text>
</g>
<!-- MySQL Cluster 7.6&#45;&gt;MySQL 8.0 -->
<g id="edge14" class="edge">
<title>MySQL Cluster 7.6&#45;&gt;MySQL 8.0</title>
<path fill="none" stroke="black" d="M319.91,-432.26C314.59,-428.3 308.82,-424.02 303.2,-419.84"/>
<polygon fill="black" stroke="black" points="305.31,-417.06 295.2,-413.9 301.14,-422.67 305.31,-417.06"/>
</g>
<!-- MySQL 1.0 -->
<g id="node24" class="node">
<title>MySQL 1.0</title>
<ellipse fill="none" stroke="red" stroke-dasharray="1,5" cx="448.45" cy="-1476" rx="55.45" ry="18"/>
<text text-anchor="middle" x="448.45" y="-1470.95" font-family="Times,serif" font-size="14.00">MySQL 1.0</text>
</g>
<!-- MySQL 3.11.1 -->
<g id="node25" class="node">
<title>MySQL 3.11.1</title>
<ellipse fill="none" stroke="red" stroke-dasharray="1,5" cx="448.45" cy="-1422" rx="67.22" ry="18"/>
<text text-anchor="middle" x="448.45" y="-1416.95" font-family="Times,serif" font-size="14.00">MySQL 3.11.1</text>
</g>
<!-- MySQL 1.0&#45;&gt;MySQL 3.11.1 -->
<g id="edge22" class="edge">
<title>MySQL 1.0&#45;&gt;MySQL 3.11.1</title>
<path fill="none" stroke="black" stroke-dasharray="5,2" d="M448.45,-1457.68C448.45,-1455.78 448.45,-1453.8 448.45,-1451.79"/>
<polygon fill="black" stroke="black" points="451.95,-1451.93 448.45,-1441.93 444.95,-1451.93 451.95,-1451.93"/>
</g>
<!-- MySQL 3.11.1&#45;&gt;MySQL 3.19 -->
<g id="edge23" class="edge">
<title>MySQL 3.11.1&#45;&gt;MySQL 3.19</title>
<path fill="none" stroke="black" stroke-dasharray="5,2" d="M448.45,-1403.68C448.45,-1401.78 448.45,-1399.8 448.45,-1397.79"/>
<polygon fill="black" stroke="black" points="451.95,-1397.93 448.45,-1387.93 444.95,-1397.93 451.95,-1397.93"/>
</g>
<!-- MySQL 5.2&#45;&gt;MySQL 5.4 -->
<g id="edge26" class="edge">
<title>MySQL 5.2&#45;&gt;MySQL 5.4</title>
<path fill="none" stroke="black" stroke-dasharray="5,2" d="M202.45,-863.68C202.45,-861.78 202.45,-859.8 202.45,-857.79"/>
<polygon fill="black" stroke="black" points="205.95,-857.93 202.45,-847.93 198.95,-857.93 205.95,-857.93"/>
</g>
<!-- MySQL Cluster 6.2&#45;&gt;MySQL Cluster 6.3 -->
<g id="edge29" class="edge">
<title>MySQL Cluster 6.2&#45;&gt;MySQL Cluster 6.3</title>
<path fill="none" stroke="black" d="M402.27,-864.26C407.68,-860.46 413.53,-856.35 419.25,-852.33"/>
<polygon fill="black" stroke="black" points="421.26,-855.19 427.43,-846.58 417.24,-849.46 421.26,-855.19"/>
</g>
<!-- MySQL Cluster 6.3&#45;&gt;MySQL Cluster 7.0 -->
<g id="edge31" class="edge">
<title>MySQL Cluster 6.3&#45;&gt;MySQL Cluster 7.0</title>
<path fill="none" stroke="black" d="M464.56,-809.97C466.52,-807.22 468.59,-804.31 470.66,-801.4"/>
<polygon fill="black" stroke="black" points="473.35,-803.65 476.3,-793.48 467.65,-799.6 473.35,-803.65"/>
</g>
<!-- MySQL Cluster 7.0&#45;&gt;MySQL Cluster 7.1 -->
<g id="edge33" class="edge">
<title>MySQL Cluster 7.0&#45;&gt;MySQL Cluster 7.1</title>
<path fill="none" stroke="black" d="M489.45,-755.68C489.45,-753.78 489.45,-751.8 489.45,-749.79"/>
<polygon fill="black" stroke="black" points="492.95,-749.93 489.45,-739.93 485.95,-749.93 492.95,-749.93"/>
</g>
<!-- MySQL Cluster 7.1&#45;&gt;MySQL Cluster 7.2 -->
<g id="edge35" class="edge">
<title>MySQL Cluster 7.1&#45;&gt;MySQL Cluster 7.2</title>
<path fill="none" stroke="black" d="M455.54,-703.12C445.1,-698.23 433.46,-692.77 422.45,-687.61"/>
<polygon fill="black" stroke="black" points="424.06,-684.5 413.52,-683.43 421.09,-690.84 424.06,-684.5"/>
</g>
<!-- MySQL Cluster 7.2&#45;&gt;MySQL Cluster 7.3 -->
<g id="edge37" class="edge">
<title>MySQL Cluster 7.2&#45;&gt;MySQL Cluster 7.3</title>
<path fill="none" stroke="black" d="M378.45,-647.68C378.45,-645.78 378.45,-643.8 378.45,-641.79"/>
<polygon fill="black" stroke="black" points="381.95,-641.93 378.45,-631.93 374.95,-641.93 381.95,-641.93"/>
</g>
<!-- MySQL Cluster 7.4 -->
<g id="node33" class="node">
<title>MySQL Cluster 7.4</title>
<ellipse fill="none" stroke="#cd0000" cx="378.45" cy="-558" rx="84.62" ry="18"/>
<text text-anchor="middle" x="378.45" y="-552.95" font-family="Times,serif" font-size="14.00">MySQL Cluster 7.4</text>
</g>
<!-- MySQL Cluster 7.3&#45;&gt;MySQL Cluster 7.4 -->
<g id="edge38" class="edge">
<title>MySQL Cluster 7.3&#45;&gt;MySQL Cluster 7.4</title>
<path fill="none" stroke="black" d="M378.45,-593.68C378.45,-591.78 378.45,-589.8 378.45,-587.79"/>
<polygon fill="black" stroke="black" points="381.95,-587.93 378.45,-577.93 374.95,-587.93 381.95,-587.93"/>
</g>
<!-- MySQL Cluster 7.4&#45;&gt;MySQL Cluster 7.5 -->
<g id="edge40" class="edge">
<title>MySQL Cluster 7.4&#45;&gt;MySQL Cluster 7.5</title>
<path fill="none" stroke="black" d="M366.46,-539.68C364.62,-537.03 362.68,-534.23 360.74,-531.43"/>
<polygon fill="black" stroke="black" points="363.69,-529.54 355.12,-523.31 357.93,-533.52 363.69,-529.54"/>
</g>
<!-- MySQL Cluster 7.5&#45;&gt;MySQL Cluster 7.6 -->
<g id="edge41" class="edge">
<title>MySQL Cluster 7.5&#45;&gt;MySQL Cluster 7.6</title>
<path fill="none" stroke="black" d="M342.45,-485.68C342.45,-483.78 342.45,-481.8 342.45,-479.79"/>
<polygon fill="black" stroke="black" points="345.95,-479.93 342.45,-469.93 338.95,-479.93 345.95,-479.93"/>
</g>
</g>
</svg>
