<?xml version="1.0" encoding="UTF-8" standalone="no"?>
<!DOCTYPE svg PUBLIC "-//W3C//DTD SVG 1.1//EN"
 "http://www.w3.org/Graphics/SVG/1.1/DTD/svg11.dtd">
<!-- Generated by graphviz version 2.26.3 (20100126.1600)
 -->
<!-- Title: mysql_history_graph Pages: 1 -->
<svg width="1009pt" height="860pt"
 viewBox="0.00 0.00 1009.00 860.00" xmlns="http://www.w3.org/2000/svg" xmlns:xlink="http://www.w3.org/1999/xlink">
<g id="graph1" class="graph" transform="scale(1 1) rotate(0) translate(4 856)">
<title>mysql_history_graph</title>
<polygon fill="white" stroke="white" points="-4,5 -4,-856 1006,-856 1006,5 -4,5"/>
<!-- MySQL 3.23 -->
<g id="node1" class="node"><title>MySQL 3.23</title>
<ellipse fill="none" stroke="red" cx="696" cy="-833" rx="70.9184" ry="18.3848"/>
<text text-anchor="middle" x="696" y="-829.4" font-family="Times Roman,serif" font-size="14.00">MySQL 3.23</text>
</g>
<!-- MySQL 4.0 -->
<g id="node2" class="node"><title>MySQL 4.0</title>
<ellipse fill="none" stroke="red" cx="696" cy="-759" rx="65.0538" ry="18.3848"/>
<text text-anchor="middle" x="696" y="-755.4" font-family="Times Roman,serif" font-size="14.00">MySQL 4.0</text>
</g>
<!-- MySQL 3.23&#45;&gt;MySQL 4.0 -->
<g id="edge2" class="edge"><title>MySQL 3.23&#45;&gt;MySQL 4.0</title>
<path fill="none" stroke="black" d="M696,-814.327C696,-806.264 696,-796.648 696,-787.711"/>
<polygon fill="black" stroke="black" points="699.5,-787.667 696,-777.667 692.5,-787.667 699.5,-787.667"/>
</g>
<!-- MySQL 4.1 -->
<g id="node3" class="node"><title>MySQL 4.1</title>
<ellipse fill="none" stroke="red" cx="696" cy="-685" rx="65.0538" ry="18.3848"/>
<text text-anchor="middle" x="696" y="-681.4" font-family="Times Roman,serif" font-size="14.00">MySQL 4.1</text>
</g>
<!-- MySQL 4.0&#45;&gt;MySQL 4.1 -->
<g id="edge4" class="edge"><title>MySQL 4.0&#45;&gt;MySQL 4.1</title>
<path fill="none" stroke="black" d="M696,-740.327C696,-732.264 696,-722.648 696,-713.711"/>
<polygon fill="black" stroke="black" points="699.5,-713.667 696,-703.667 692.5,-713.667 699.5,-713.667"/>
</g>
<!-- MySQL 5.0 -->
<g id="node4" class="node"><title>MySQL 5.0</title>
<ellipse fill="none" stroke="red" cx="696" cy="-611" rx="65.0538" ry="18.3848"/>
<text text-anchor="middle" x="696" y="-607.4" font-family="Times Roman,serif" font-size="14.00">MySQL 5.0</text>
</g>
<!-- MySQL 4.1&#45;&gt;MySQL 5.0 -->
<g id="edge6" class="edge"><title>MySQL 4.1&#45;&gt;MySQL 5.0</title>
<path fill="none" stroke="black" d="M696,-666.327C696,-658.264 696,-648.648 696,-639.711"/>
<polygon fill="black" stroke="black" points="699.5,-639.667 696,-629.667 692.5,-639.667 699.5,-639.667"/>
</g>
<!-- MySQL 5.1 -->
<g id="node5" class="node"><title>MySQL 5.1</title>
<ellipse fill="none" stroke="red" cx="566" cy="-537" rx="65.0538" ry="18.3848"/>
<text text-anchor="middle" x="566" y="-533.4" font-family="Times Roman,serif" font-size="14.00">MySQL 5.1</text>
</g>
<!-- MySQL 5.0&#45;&gt;MySQL 5.1 -->
<g id="edge8" class="edge"><title>MySQL 5.0&#45;&gt;MySQL 5.1</title>
<path fill="none" stroke="black" d="M666.825,-594.393C648.259,-583.824 624.021,-570.028 603.963,-558.61"/>
<polygon fill="black" stroke="black" points="605.499,-555.457 595.077,-553.552 602.036,-561.54 605.499,-555.457"/>
</g>
<!-- Percona Server 5.0 -->
<g id="node62" class="node"><title>Percona Server 5.0</title>
<ellipse fill="none" stroke="orange" cx="826" cy="-537" rx="104.151" ry="18.3848"/>
<text text-anchor="middle" x="826" y="-533.4" font-family="Times Roman,serif" font-size="14.00">Percona Server 5.0</text>
</g>
<!-- MySQL 5.0&#45;&gt;Percona Server 5.0 -->
<g id="edge74" class="edge"><title>MySQL 5.0&#45;&gt;Percona Server 5.0</title>
<path fill="none" stroke="black" d="M725.175,-594.393C743.092,-584.194 766.291,-570.988 785.918,-559.816"/>
<polygon fill="black" stroke="black" points="787.693,-562.833 794.652,-554.844 784.23,-556.749 787.693,-562.833"/>
</g>
<!-- MySQL 6.0 -->
<g id="node15" class="node"><title>MySQL 6.0</title>
<ellipse fill="none" stroke="red" stroke-dasharray="1,5" cx="566" cy="-463" rx="65.0538" ry="18.3848"/>
<text text-anchor="middle" x="566" y="-459.4" font-family="Times Roman,serif" font-size="14.00">MySQL 6.0</text>
</g>
<!-- MySQL 5.1&#45;&gt;MySQL 6.0 -->
<g id="edge18" class="edge"><title>MySQL 5.1&#45;&gt;MySQL 6.0</title>
<path fill="none" stroke="black" stroke-dasharray="5,2" d="M566,-518.327C566,-510.264 566,-500.648 566,-491.711"/>
<polygon fill="black" stroke="black" points="569.5,-491.667 566,-481.667 562.5,-491.667 569.5,-491.667"/>
</g>
<!-- MySQL 5.2 -->
<g id="node17" class="node"><title>MySQL 5.2</title>
<ellipse fill="none" stroke="red" stroke-dasharray="1,5" cx="408" cy="-463" rx="65.0538" ry="18.3848"/>
<text text-anchor="middle" x="408" y="-459.4" font-family="Times Roman,serif" font-size="14.00">MySQL 5.2</text>
</g>
<!-- MySQL 5.1&#45;&gt;MySQL 5.2 -->
<g id="edge16" class="edge"><title>MySQL 5.1&#45;&gt;MySQL 5.2</title>
<path fill="none" stroke="black" stroke-dasharray="5,2" d="M532.105,-521.125C508.362,-510.005 476.445,-495.057 450.925,-483.104"/>
<polygon fill="black" stroke="black" points="452.379,-479.92 441.839,-478.849 449.41,-486.26 452.379,-479.92"/>
</g>
<!-- MySQL Cluster 6.2 -->
<g id="node23" class="node"><title>MySQL Cluster 6.2</title>
<ellipse fill="none" stroke="#cd0000" cx="103" cy="-463" rx="103.238" ry="18.3848"/>
<text text-anchor="middle" x="103" y="-459.4" font-family="Times Roman,serif" font-size="14.00">MySQL Cluster 6.2</text>
</g>
<!-- MySQL 5.1&#45;&gt;MySQL Cluster 6.2 -->
<g id="edge24" class="edge"><title>MySQL 5.1&#45;&gt;MySQL Cluster 6.2</title>
<path fill="none" stroke="black" d="M509.051,-528.007C440.471,-517.164 321.79,-498.355 220,-482 210.171,-480.421 199.879,-478.76 189.65,-477.105"/>
<polygon fill="black" stroke="black" points="189.892,-473.598 179.461,-475.455 188.773,-480.508 189.892,-473.598"/>
</g>
<!-- MySQL Cluster 6.3 -->
<g id="node24" class="node"><title>MySQL Cluster 6.3</title>
<ellipse fill="none" stroke="#cd0000" cx="141" cy="-389" rx="103.238" ry="18.3848"/>
<text text-anchor="middle" x="141" y="-385.4" font-family="Times Roman,serif" font-size="14.00">MySQL Cluster 6.3</text>
</g>
<!-- MySQL 5.1&#45;&gt;MySQL Cluster 6.3 -->
<g id="edge26" class="edge"><title>MySQL 5.1&#45;&gt;MySQL Cluster 6.3</title>
<path fill="none" stroke="black" d="M505.531,-530.137C428.642,-520.738 300.731,-502.653 258,-482 235.037,-470.901 234.808,-460.066 215,-444 202.048,-433.495 187.383,-422.432 174.544,-413.004"/>
<polygon fill="black" stroke="black" points="176.548,-410.134 166.406,-407.067 172.422,-415.789 176.548,-410.134"/>
</g>
<!-- MySQL Cluster 7.0 -->
<g id="node25" class="node"><title>MySQL Cluster 7.0</title>
<ellipse fill="none" stroke="#cd0000" cx="160" cy="-315" rx="103.238" ry="18.3848"/>
<text text-anchor="middle" x="160" y="-311.4" font-family="Times Roman,serif" font-size="14.00">MySQL Cluster 7.0</text>
</g>
<!-- MySQL 5.1&#45;&gt;MySQL Cluster 7.0 -->
<g id="edge30" class="edge"><title>MySQL 5.1&#45;&gt;MySQL Cluster 7.0</title>
<path fill="none" stroke="black" d="M504.024,-531.278C434.317,-523.677 326.804,-508.082 296,-482 255.307,-447.545 287.417,-410.725 253,-370 245.617,-361.264 224.163,-348.37 203.72,-337.262"/>
<polygon fill="black" stroke="black" points="205.228,-334.099 194.759,-332.467 201.925,-340.271 205.228,-334.099"/>
</g>
<!-- MySQL Cluster 7.1 -->
<g id="node26" class="node"><title>MySQL Cluster 7.1</title>
<ellipse fill="none" stroke="#cd0000" cx="264" cy="-241" rx="103.238" ry="18.3848"/>
<text text-anchor="middle" x="264" y="-237.4" font-family="Times Roman,serif" font-size="14.00">MySQL Cluster 7.1</text>
</g>
<!-- MySQL 5.1&#45;&gt;MySQL Cluster 7.1 -->
<g id="edge34" class="edge"><title>MySQL 5.1&#45;&gt;MySQL Cluster 7.1</title>
<path fill="none" stroke="black" d="M506.07,-529.704C445.815,-521.192 358.443,-505.252 334,-482 303.084,-452.589 278.497,-327.094 268.654,-269.769"/>
<polygon fill="black" stroke="black" points="272.05,-268.858 266.937,-259.579 265.147,-270.021 272.05,-268.858"/>
</g>
<!-- MariaDB 5.1 -->
<g id="node42" class="node"><title>MariaDB 5.1</title>
<ellipse fill="none" stroke="blue" cx="804" cy="-389" rx="72.832" ry="18.3848"/>
<text text-anchor="middle" x="804" y="-385.4" font-family="Times Roman,serif" font-size="14.00">MariaDB 5.1</text>
</g>
<!-- MySQL 5.1&#45;&gt;MariaDB 5.1 -->
<g id="edge48" class="edge"><title>MySQL 5.1&#45;&gt;MariaDB 5.1</title>
<path fill="none" stroke="black" d="M616.337,-525.081C647.09,-516.294 686.276,-502.306 717,-482 744.073,-464.107 768.701,-436.16 784.788,-415.57"/>
<polygon fill="black" stroke="black" points="787.645,-417.595 790.935,-407.524 782.083,-413.346 787.645,-417.595"/>
</g>
<!-- MariaDB 5.2 -->
<g id="node43" class="node"><title>MariaDB 5.2</title>
<ellipse fill="none" stroke="blue" cx="804" cy="-315" rx="72.832" ry="18.3848"/>
<text text-anchor="middle" x="804" y="-311.4" font-family="Times Roman,serif" font-size="14.00">MariaDB 5.2</text>
</g>
<!-- MySQL 5.1&#45;&gt;MariaDB 5.2 -->
<g id="edge52" class="edge"><title>MySQL 5.1&#45;&gt;MariaDB 5.2</title>
<path fill="none" stroke="black" d="M611.681,-523.693C634.501,-515.028 661.008,-501.617 679,-482 715.04,-442.704 688.752,-411.685 722,-370 732.622,-356.683 747.354,-345.417 761.404,-336.616"/>
<polygon fill="black" stroke="black" points="763.238,-339.598 770.021,-331.459 759.643,-333.591 763.238,-339.598"/>
</g>
<!-- MariaDB 5.3 -->
<g id="node44" class="node"><title>MariaDB 5.3</title>
<ellipse fill="none" stroke="blue" cx="804" cy="-241" rx="72.832" ry="18.3848"/>
<text text-anchor="middle" x="804" y="-237.4" font-family="Times Roman,serif" font-size="14.00">MariaDB 5.3</text>
</g>
<!-- MySQL 5.1&#45;&gt;MariaDB 5.3 -->
<g id="edge58" class="edge"><title>MySQL 5.1&#45;&gt;MariaDB 5.3</title>
<path fill="none" stroke="black" d="M595.224,-520.352C610.158,-510.688 627.721,-497.39 640,-482 696.345,-411.38 663.965,-365.238 722,-296 733.034,-282.836 747.993,-271.551 762.114,-262.691"/>
<polygon fill="black" stroke="black" points="763.991,-265.646 770.756,-257.492 760.383,-259.648 763.991,-265.646"/>
</g>
<!-- Percona Server 5.1 -->
<g id="node48" class="node"><title>Percona Server 5.1</title>
<ellipse fill="none" stroke="orange" cx="897" cy="-463" rx="104.151" ry="18.3848"/>
<text text-anchor="middle" x="897" y="-459.4" font-family="Times Roman,serif" font-size="14.00">Percona Server 5.1</text>
</g>
<!-- MySQL 5.1&#45;&gt;Percona Server 5.1 -->
<g id="edge76" class="edge"><title>MySQL 5.1&#45;&gt;Percona Server 5.1</title>
<path fill="none" stroke="black" d="M617.356,-525.519C672.254,-513.245 759.822,-493.668 822.337,-479.692"/>
<polygon fill="black" stroke="black" points="823.151,-483.096 832.147,-477.499 821.624,-476.265 823.151,-483.096"/>
</g>
<!-- MySQL 5.5 -->
<g id="node6" class="node"><title>MySQL 5.5</title>
<ellipse fill="none" stroke="red" cx="450" cy="-241" rx="65.0538" ry="18.3848"/>
<text text-anchor="middle" x="450" y="-237.4" font-family="Times Roman,serif" font-size="14.00">MySQL 5.5</text>
</g>
<!-- MySQL 5.6 -->
<g id="node7" class="node"><title>MySQL 5.6</title>
<ellipse fill="none" stroke="red" cx="450" cy="-167" rx="65.0538" ry="18.3848"/>
<text text-anchor="middle" x="450" y="-163.4" font-family="Times Roman,serif" font-size="14.00">MySQL 5.6</text>
</g>
<!-- MySQL 5.5&#45;&gt;MySQL 5.6 -->
<g id="edge10" class="edge"><title>MySQL 5.5&#45;&gt;MySQL 5.6</title>
<path fill="none" stroke="black" d="M450,-222.327C450,-214.264 450,-204.648 450,-195.711"/>
<polygon fill="black" stroke="black" points="453.5,-195.667 450,-185.667 446.5,-195.667 453.5,-195.667"/>
</g>
<!-- MySQL Cluster 7.2 -->
<g id="node27" class="node"><title>MySQL Cluster 7.2</title>
<ellipse fill="none" stroke="#cd0000" cx="264" cy="-167" rx="103.238" ry="18.3848"/>
<text text-anchor="middle" x="264" y="-163.4" font-family="Times Roman,serif" font-size="14.00">MySQL Cluster 7.2</text>
</g>
<!-- MySQL 5.5&#45;&gt;MySQL Cluster 7.2 -->
<g id="edge38" class="edge"><title>MySQL 5.5&#45;&gt;MySQL Cluster 7.2</title>
<path fill="none" stroke="black" d="M411.911,-225.846C384.291,-214.858 346.603,-199.864 316.184,-187.761"/>
<polygon fill="black" stroke="black" points="317.17,-184.387 306.585,-183.942 314.582,-190.891 317.17,-184.387"/>
</g>
<!-- MariaDB 5.5 -->
<g id="node45" class="node"><title>MariaDB 5.5</title>
<ellipse fill="none" stroke="blue" cx="870" cy="-93" rx="72.832" ry="18.3848"/>
<text text-anchor="middle" x="870" y="-89.4" font-family="Times Roman,serif" font-size="14.00">MariaDB 5.5</text>
</g>
<!-- MySQL 5.5&#45;&gt;MariaDB 5.5 -->
<g id="edge64" class="edge"><title>MySQL 5.5&#45;&gt;MariaDB 5.5</title>
<path fill="none" stroke="black" d="M479.063,-224.253C515.599,-203.798 580.726,-169.299 640,-148 692.375,-129.18 753.771,-114.87 799.95,-105.571"/>
<polygon fill="black" stroke="black" points="800.732,-108.984 809.86,-103.605 799.37,-102.118 800.732,-108.984"/>
</g>
<!-- Percona Server 5.5 -->
<g id="node58" class="node"><title>Percona Server 5.5</title>
<ellipse fill="none" stroke="orange" cx="753" cy="-167" rx="104.151" ry="18.3848"/>
<text text-anchor="middle" x="753" y="-163.4" font-family="Times Roman,serif" font-size="14.00">Percona Server 5.5</text>
</g>
<!-- MySQL 5.5&#45;&gt;Percona Server 5.5 -->
<g id="edge80" class="edge"><title>MySQL 5.5&#45;&gt;Percona Server 5.5</title>
<path fill="none" stroke="black" d="M498.138,-228.524C506.744,-226.327 515.633,-224.079 524,-222 576.201,-209.031 635.223,-194.867 680.272,-184.161"/>
<polygon fill="black" stroke="black" points="681.323,-187.509 690.244,-181.794 679.706,-180.698 681.323,-187.509"/>
</g>
<!-- MySQL 5.7 -->
<g id="node18" class="node"><title>MySQL 5.7</title>
<ellipse fill="none" stroke="red" stroke-dasharray="1,5" cx="450" cy="-93" rx="65.0538" ry="18.3848"/>
<text text-anchor="middle" x="450" y="-89.4" font-family="Times Roman,serif" font-size="14.00">MySQL 5.7</text>
</g>
<!-- MySQL 5.6&#45;&gt;MySQL 5.7 -->
<g id="edge22" class="edge"><title>MySQL 5.6&#45;&gt;MySQL 5.7</title>
<path fill="none" stroke="black" stroke-dasharray="5,2" d="M450,-148.327C450,-140.264 450,-130.648 450,-121.711"/>
<polygon fill="black" stroke="black" points="453.5,-121.667 450,-111.667 446.5,-121.667 453.5,-121.667"/>
</g>
<!-- MySQL Cluster 7.3 -->
<g id="node28" class="node"><title>MySQL Cluster 7.3</title>
<ellipse fill="none" stroke="#cd0000" cx="264" cy="-93" rx="103.238" ry="18.3848"/>
<text text-anchor="middle" x="264" y="-89.4" font-family="Times Roman,serif" font-size="14.00">MySQL Cluster 7.3</text>
</g>
<!-- MySQL 5.6&#45;&gt;MySQL Cluster 7.3 -->
<g id="edge42" class="edge"><title>MySQL 5.6&#45;&gt;MySQL Cluster 7.3</title>
<path fill="none" stroke="black" d="M411.911,-151.846C384.291,-140.858 346.603,-125.864 316.184,-113.761"/>
<polygon fill="black" stroke="black" points="317.17,-110.387 306.585,-109.942 314.582,-116.891 317.17,-110.387"/>
</g>
<!-- Percona Server 5.6 -->
<g id="node63" class="node"><title>Percona Server 5.6</title>
<ellipse fill="none" stroke="orange" cx="637" cy="-93" rx="104.151" ry="18.3848"/>
<text text-anchor="middle" x="637" y="-89.4" font-family="Times Roman,serif" font-size="14.00">Percona Server 5.6</text>
</g>
<!-- MySQL 5.6&#45;&gt;Percona Server 5.6 -->
<g id="edge86" class="edge"><title>MySQL 5.6&#45;&gt;Percona Server 5.6</title>
<path fill="none" stroke="black" d="M488.293,-151.846C516.062,-140.858 553.952,-125.864 584.536,-113.761"/>
<polygon fill="black" stroke="black" points="586.176,-116.876 594.186,-109.942 583.6,-110.367 586.176,-116.876"/>
</g>
<!-- MySQL 5.4 -->
<g id="node13" class="node"><title>MySQL 5.4</title>
<ellipse fill="none" stroke="red" stroke-dasharray="1,5" cx="384" cy="-315" rx="65.0538" ry="18.3848"/>
<text text-anchor="middle" x="384" y="-311.4" font-family="Times Roman,serif" font-size="14.00">MySQL 5.4</text>
</g>
<!-- MySQL 5.4&#45;&gt;MySQL 5.5 -->
<g id="edge12" class="edge"><title>MySQL 5.4&#45;&gt;MySQL 5.5</title>
<path fill="none" stroke="grey" d="M400.315,-296.708C408.387,-287.657 418.267,-276.579 427.084,-266.693"/>
<polygon fill="grey" stroke="grey" points="429.829,-268.874 433.873,-259.082 424.605,-264.215 429.829,-268.874"/>
</g>
<!-- MySQL 6.0&#45;&gt;MySQL 5.5 -->
<g id="edge14" class="edge"><title>MySQL 6.0&#45;&gt;MySQL 5.5</title>
<path fill="none" stroke="grey" d="M536.77,-446.238C522.559,-436.711 506.355,-423.572 496,-408 480.912,-385.309 464.134,-311.055 455.619,-269.613"/>
<polygon fill="grey" stroke="grey" points="459.005,-268.698 453.59,-259.592 452.144,-270.088 459.005,-268.698"/>
</g>
<!-- Drizzle 7.0 -->
<g id="node72" class="node"><title>Drizzle 7.0</title>
<ellipse fill="none" stroke="#00008b" cx="571" cy="-389" rx="65.7609" ry="18.3848"/>
<text text-anchor="middle" x="571" y="-385.4" font-family="Times Roman,serif" font-size="14.00">Drizzle 7.0</text>
</g>
<!-- MySQL 6.0&#45;&gt;Drizzle 7.0 -->
<g id="edge90" class="edge"><title>MySQL 6.0&#45;&gt;Drizzle 7.0</title>
<path fill="none" stroke="black" d="M567.262,-444.327C567.806,-436.264 568.456,-426.648 569.06,-417.711"/>
<polygon fill="black" stroke="black" points="572.556,-417.881 569.739,-407.667 565.572,-417.409 572.556,-417.881"/>
</g>
<!-- MySQL 5.2&#45;&gt;MySQL 5.4 -->
<g id="edge20" class="edge"><title>MySQL 5.2&#45;&gt;MySQL 5.4</title>
<path fill="none" stroke="black" stroke-dasharray="5,2" d="M404.96,-444.256C400.849,-418.901 393.477,-373.439 388.662,-343.75"/>
<polygon fill="black" stroke="black" points="392.071,-342.903 387.015,-333.592 385.161,-344.023 392.071,-342.903"/>
</g>
<!-- MySQL Cluster 6.2&#45;&gt;MySQL Cluster 6.3 -->
<g id="edge28" class="edge"><title>MySQL Cluster 6.2&#45;&gt;MySQL Cluster 6.3</title>
<path fill="none" stroke="black" d="M112.589,-444.327C116.864,-436.001 121.99,-426.019 126.704,-416.84"/>
<polygon fill="black" stroke="black" points="129.959,-418.162 131.414,-407.667 123.732,-414.964 129.959,-418.162"/>
</g>
<!-- MySQL Cluster 6.3&#45;&gt;MySQL Cluster 7.0 -->
<g id="edge32" class="edge"><title>MySQL Cluster 6.3&#45;&gt;MySQL Cluster 7.0</title>
<path fill="none" stroke="black" d="M145.795,-370.327C147.887,-362.176 150.387,-352.438 152.703,-343.42"/>
<polygon fill="black" stroke="black" points="156.11,-344.224 155.207,-333.667 149.33,-342.483 156.11,-344.224"/>
</g>
<!-- MySQL Cluster 7.0&#45;&gt;MySQL Cluster 7.1 -->
<g id="edge36" class="edge"><title>MySQL Cluster 7.0&#45;&gt;MySQL Cluster 7.1</title>
<path fill="none" stroke="black" d="M185.441,-296.898C198.913,-287.312 215.637,-275.412 230.186,-265.06"/>
<polygon fill="black" stroke="black" points="232.342,-267.821 238.461,-259.172 228.284,-262.118 232.342,-267.821"/>
</g>
<!-- MySQL Cluster 7.1&#45;&gt;MySQL Cluster 7.2 -->
<g id="edge40" class="edge"><title>MySQL Cluster 7.1&#45;&gt;MySQL Cluster 7.2</title>
<path fill="none" stroke="black" d="M264,-222.327C264,-214.264 264,-204.648 264,-195.711"/>
<polygon fill="black" stroke="black" points="267.5,-195.667 264,-185.667 260.5,-195.667 267.5,-195.667"/>
</g>
<!-- MySQL Cluster 7.2&#45;&gt;MySQL Cluster 7.3 -->
<g id="edge44" class="edge"><title>MySQL Cluster 7.2&#45;&gt;MySQL Cluster 7.3</title>
<path fill="none" stroke="black" d="M264,-148.327C264,-140.264 264,-130.648 264,-121.711"/>
<polygon fill="black" stroke="black" points="267.5,-121.667 264,-111.667 260.5,-121.667 267.5,-121.667"/>
</g>
<!-- MySQL Cluster 7.4 -->
<g id="node29" class="node"><title>MySQL Cluster 7.4</title>
<ellipse fill="none" stroke="#cd0000" cx="264" cy="-19" rx="103.238" ry="18.3848"/>
<text text-anchor="middle" x="264" y="-15.4" font-family="Times Roman,serif" font-size="14.00">MySQL Cluster 7.4</text>
</g>
<!-- MySQL Cluster 7.3&#45;&gt;MySQL Cluster 7.4 -->
<g id="edge46" class="edge"><title>MySQL Cluster 7.3&#45;&gt;MySQL Cluster 7.4</title>
<path fill="none" stroke="black" stroke-dasharray="5,2" d="M264,-74.3267C264,-66.2639 264,-56.6477 264,-47.7115"/>
<polygon fill="black" stroke="black" points="267.5,-47.6673 264,-37.6674 260.5,-47.6674 267.5,-47.6673"/>
</g>
<!-- MariaDB 5.1&#45;&gt;MariaDB 5.2 -->
<g id="edge54" class="edge"><title>MariaDB 5.1&#45;&gt;MariaDB 5.2</title>
<path fill="none" stroke="black" d="M804,-370.327C804,-362.264 804,-352.648 804,-343.711"/>
<polygon fill="black" stroke="black" points="807.5,-343.667 804,-333.667 800.5,-343.667 807.5,-343.667"/>
</g>
<!-- MariaDB 5.2&#45;&gt;MariaDB 5.3 -->
<g id="edge60" class="edge"><title>MariaDB 5.2&#45;&gt;MariaDB 5.3</title>
<path fill="none" stroke="black" d="M804,-296.327C804,-288.264 804,-278.648 804,-269.711"/>
<polygon fill="black" stroke="black" points="807.5,-269.667 804,-259.667 800.5,-269.667 807.5,-269.667"/>
</g>
<!-- MariaDB 5.3&#45;&gt;MariaDB 5.5 -->
<g id="edge66" class="edge"><title>MariaDB 5.3&#45;&gt;MariaDB 5.5</title>
<path fill="none" stroke="black" d="M831.944,-223.889C844.73,-214.433 858.644,-201.462 866,-186 875.505,-166.023 875.988,-140.817 874.38,-121.688"/>
<polygon fill="black" stroke="black" points="877.832,-121.053 873.281,-111.485 870.872,-121.803 877.832,-121.053"/>
</g>
<!-- MariaDB 5.3&#45;&gt;Percona Server 5.5 -->
<g id="edge84" class="edge"><title>MariaDB 5.3&#45;&gt;Percona Server 5.5</title>
<path fill="none" stroke="grey" d="M791.393,-222.708C785.431,-214.057 778.193,-203.554 771.615,-194.01"/>
<polygon fill="grey" stroke="grey" points="774.373,-191.843 765.816,-185.596 768.609,-195.816 774.373,-191.843"/>
</g>
<!-- MariaDB 10.0 -->
<g id="node46" class="node"><title>MariaDB 10.0</title>
<ellipse fill="none" stroke="blue" cx="819" cy="-19" rx="79.196" ry="18.3848"/>
<text text-anchor="middle" x="819" y="-15.4" font-family="Times Roman,serif" font-size="14.00">MariaDB 10.0</text>
</g>
<!-- MariaDB 5.5&#45;&gt;MariaDB 10.0 -->
<g id="edge70" class="edge"><title>MariaDB 5.5&#45;&gt;MariaDB 10.0</title>
<path fill="none" stroke="black" stroke-dasharray="5,2" d="M857.393,-74.7079C851.386,-65.9914 844.083,-55.3952 837.466,-45.7937"/>
<polygon fill="black" stroke="black" points="840.195,-43.5859 831.638,-37.3382 834.431,-47.5583 840.195,-43.5859"/>
</g>
<!-- Percona Server 5.1&#45;&gt;MariaDB 5.1 -->
<g id="edge50" class="edge"><title>Percona Server 5.1&#45;&gt;MariaDB 5.1</title>
<path fill="none" stroke="grey" d="M874.011,-444.708C862.098,-435.228 847.39,-423.526 834.535,-413.297"/>
<polygon fill="grey" stroke="grey" points="836.408,-410.314 826.403,-406.826 832.049,-415.792 836.408,-410.314"/>
</g>
<!-- Percona Server 5.1&#45;&gt;MariaDB 5.2 -->
<g id="edge56" class="edge"><title>Percona Server 5.1&#45;&gt;MariaDB 5.2</title>
<path fill="none" stroke="grey" d="M899.149,-444.413C900.513,-424.517 899.911,-392.747 886,-370 877.49,-356.084 863.977,-344.915 850.356,-336.372"/>
<polygon fill="grey" stroke="grey" points="851.836,-333.183 841.441,-331.136 848.291,-339.218 851.836,-333.183"/>
</g>
<!-- Percona Server 5.1&#45;&gt;MariaDB 5.3 -->
<g id="edge62" class="edge"><title>Percona Server 5.1&#45;&gt;MariaDB 5.3</title>
<path fill="none" stroke="grey" d="M901.541,-444.41C908.498,-411.23 917.881,-341.07 886,-296 876.418,-282.454 862.358,-271.288 848.578,-262.64"/>
<polygon fill="grey" stroke="grey" points="849.998,-259.413 839.612,-257.32 846.426,-265.433 849.998,-259.413"/>
</g>
<!-- Percona Server 5.1&#45;&gt;Percona Server 5.5 -->
<g id="edge82" class="edge"><title>Percona Server 5.1&#45;&gt;Percona Server 5.5</title>
<path fill="none" stroke="black" d="M907.457,-444.298C912.648,-433.945 918.361,-420.646 921,-408 938.184,-325.656 942.335,-284.467 886,-222 870.69,-205.024 849.337,-193.157 828.215,-184.916"/>
<polygon fill="black" stroke="black" points="829.142,-181.528 818.549,-181.379 826.737,-188.102 829.142,-181.528"/>
</g>
<!-- Percona Server 5.5&#45;&gt;MariaDB 5.5 -->
<g id="edge68" class="edge"><title>Percona Server 5.5&#45;&gt;MariaDB 5.5</title>
<path fill="none" stroke="grey" d="M781.322,-149.087C797.218,-139.033 817.206,-126.391 834.18,-115.655"/>
<polygon fill="grey" stroke="grey" points="836.163,-118.542 842.744,-110.239 832.422,-112.626 836.163,-118.542"/>
</g>
<!-- Percona Server 5.5&#45;&gt;MariaDB 10.0 -->
<g id="edge72" class="edge"><title>Percona Server 5.5&#45;&gt;MariaDB 10.0</title>
<path fill="none" stroke="grey" d="M759.03,-148.482C765.44,-129.464 776.255,-99.1693 788,-74 792.334,-64.7114 797.639,-54.8697 802.626,-46.1185"/>
<polygon fill="grey" stroke="grey" points="805.658,-47.8674 807.655,-37.4625 799.605,-44.3511 805.658,-47.8674"/>
</g>
<!-- Percona Server 5.5&#45;&gt;Percona Server 5.6 -->
<g id="edge88" class="edge"><title>Percona Server 5.5&#45;&gt;Percona Server 5.6</title>
<path fill="none" stroke="black" d="M724.92,-149.087C709.644,-139.342 690.556,-127.165 674.073,-116.65"/>
<polygon fill="black" stroke="black" points="675.537,-113.432 665.224,-111.005 671.772,-119.334 675.537,-113.432"/>
</g>
<!-- Percona Server 5.0&#45;&gt;Percona Server 5.1 -->
<g id="edge78" class="edge"><title>Percona Server 5.0&#45;&gt;Percona Server 5.1</title>
<path fill="none" stroke="black" d="M843.551,-518.708C852.255,-509.636 862.913,-498.527 872.416,-488.623"/>
<polygon fill="black" stroke="black" points="875.007,-490.977 879.405,-481.338 869.956,-486.131 875.007,-490.977"/>
</g>
<!-- Drizzle 7.1 -->
<g id="node73" class="node"><title>Drizzle 7.1</title>
<ellipse fill="none" stroke="#00008b" cx="571" cy="-315" rx="65.7609" ry="18.3848"/>
<text text-anchor="middle" x="571" y="-311.4" font-family="Times Roman,serif" font-size="14.00">Drizzle 7.1</text>
</g>
<!-- Drizzle 7.0&#45;&gt;Drizzle 7.1 -->
<g id="edge92" class="edge"><title>Drizzle 7.0&#45;&gt;Drizzle 7.1</title>
<path fill="none" stroke="black" d="M571,-370.327C571,-362.264 571,-352.648 571,-343.711"/>
<polygon fill="black" stroke="black" points="574.5,-343.667 571,-333.667 567.5,-343.667 574.5,-343.667"/>
</g>
<!-- Drizzle 7.2 -->
<g id="node74" class="node"><title>Drizzle 7.2</title>
<ellipse fill="none" stroke="#00008b" stroke-dasharray="5,2" cx="599" cy="-241" rx="65.7609" ry="18.3848"/>
<text text-anchor="middle" x="599" y="-237.4" font-family="Times Roman,serif" font-size="14.00">Drizzle 7.2</text>
</g>
<!-- Drizzle 7.1&#45;&gt;Drizzle 7.2 -->
<g id="edge94" class="edge"><title>Drizzle 7.1&#45;&gt;Drizzle 7.2</title>
<path fill="none" stroke="black" stroke-dasharray="5,2" d="M578.066,-296.327C581.206,-288.026 584.97,-278.078 588.435,-268.921"/>
<polygon fill="black" stroke="black" points="591.768,-270.003 592.034,-259.411 585.221,-267.525 591.768,-270.003"/>
</g>
</g>
</svg>
