<?xml version="1.0" encoding="UTF-8" standalone="no"?>
<!DOCTYPE svg PUBLIC "-//W3C//DTD SVG 1.1//EN"
 "http://www.w3.org/Graphics/SVG/1.1/DTD/svg11.dtd">
<!-- Generated by graphviz version 2.26.3 (20100126.1600)
 -->
<!-- Title: mysql_bug_graph Pages: 1 -->
<svg width="1100pt" height="857pt"
 viewBox="0.00 0.00 1100.00 856.53" xmlns="http://www.w3.org/2000/svg" xmlns:xlink="http://www.w3.org/1999/xlink">
<g id="graph1" class="graph" transform="scale(1 1) rotate(0) translate(4 852.525)">
<title>mysql_bug_graph</title>
<polygon fill="white" stroke="white" points="-4,5 -4,-852.525 1097,-852.525 1097,5 -4,5"/>
<!-- Open -->
<g id="node1" class="node"><title>Open</title>
<ellipse fill="none" stroke="black" cx="38" cy="-387" rx="36.977" ry="18.3848"/>
<text text-anchor="middle" x="38" y="-383.4" font-family="Times Roman,serif" font-size="14.00">Open</text>
</g>
<!-- Duplicate -->
<g id="node3" class="node"><title>Duplicate</title>
<ellipse fill="none" stroke="black" cx="1003" cy="-770" rx="57.9828" ry="18.3848"/>
<text text-anchor="middle" x="1003" y="-766.4" font-family="Times Roman,serif" font-size="14.00">Duplicate</text>
</g>
<!-- Open&#45;&gt;Duplicate -->
<g id="edge4" class="edge"><title>Open&#45;&gt;Duplicate</title>
<path fill="none" stroke="black" d="M39.9518,-404.993C50.2369,-489.856 105.916,-846 316,-846 316,-846 316,-846 547,-846 694.497,-846 734.499,-856.1 878,-822 907.878,-814.9 939.818,-801.502 963.933,-790.085"/>
<polygon fill="black" stroke="black" points="965.614,-793.16 973.1,-785.662 962.572,-786.855 965.614,-793.16"/>
</g>
<!-- Analyzing -->
<g id="node4" class="node"><title>Analyzing</title>
<ellipse fill="none" stroke="grey" cx="172" cy="-387" rx="60.1041" ry="18.3848"/>
<text text-anchor="middle" x="172" y="-383.4" font-family="Times Roman,serif" font-size="14.00">Analyzing</text>
</g>
<!-- Open&#45;&gt;Analyzing -->
<g id="edge2" class="edge"><title>Open&#45;&gt;Analyzing</title>
<path fill="none" stroke="black" d="M73.5577,-380.96C83.5307,-380.474 94.7058,-380.238 105.849,-380.25"/>
<polygon fill="black" stroke="black" points="106.012,-383.752 116.039,-380.332 106.068,-376.752 106.012,-383.752"/>
</g>
<!-- Verified -->
<g id="node5" class="node"><title>Verified</title>
<ellipse fill="none" stroke="grey" cx="316" cy="-518" rx="48.0833" ry="18.3848"/>
<text text-anchor="middle" x="316" y="-514.4" font-family="Times Roman,serif" font-size="14.00">Verified</text>
</g>
<!-- Open&#45;&gt;Verified -->
<g id="edge6" class="edge"><title>Open&#45;&gt;Verified</title>
<path fill="none" stroke="black" d="M54.344,-403.444C68.5439,-416.961 90.2036,-435.809 112,-448 160.86,-475.329 222.232,-494.612 264.835,-505.926"/>
<polygon fill="black" stroke="black" points="264.145,-509.363 274.704,-508.494 265.907,-502.589 264.145,-509.363"/>
</g>
<!-- To be fixed later -->
<g id="node6" class="node"><title>To be fixed later</title>
<ellipse fill="none" stroke="black" cx="1003" cy="-472" rx="89.0955" ry="18.3848"/>
<text text-anchor="middle" x="1003" y="-468.4" font-family="Times Roman,serif" font-size="14.00">To be fixed later</text>
</g>
<!-- Open&#45;&gt;To be fixed later -->
<g id="edge8" class="edge"><title>Open&#45;&gt;To be fixed later</title>
<path fill="none" stroke="black" d="M42.7702,-405.063C62.7149,-476.049 146.388,-732 316,-732 316,-732 316,-732 547,-732 695.077,-732 754.639,-775.909 878,-694 947.689,-647.728 982.632,-548.663 996.133,-500.062"/>
<polygon fill="black" stroke="black" points="999.563,-500.784 998.764,-490.22 992.8,-498.977 999.563,-500.784"/>
</g>
<!-- Can&#39;t repeat -->
<g id="node8" class="node"><title>Can&#39;t repeat</title>
<ellipse fill="none" stroke="grey" cx="1003" cy="-350" rx="72.1249" ry="18.3848"/>
<text text-anchor="middle" x="1003" y="-346.4" font-family="Times Roman,serif" font-size="14.00">Can&#39;t repeat</text>
</g>
<!-- Open&#45;&gt;Can&#39;t repeat -->
<g id="edge10" class="edge"><title>Open&#45;&gt;Can&#39;t repeat</title>
<path fill="none" stroke="black" d="M63.6503,-373.595C105.206,-352.714 190.433,-313.332 268,-299 381.003,-278.12 301.984,-213.76 878,-310 904.154,-314.37 932.361,-323.033 955.349,-331.183"/>
<polygon fill="black" stroke="black" points="954.267,-334.513 964.861,-334.63 956.652,-327.932 954.267,-334.513"/>
</g>
<!-- Need Feedback -->
<g id="node10" class="node"><title>Need Feedback</title>
<ellipse fill="none" stroke="grey" cx="547" cy="-388" rx="84.8528" ry="18.3848"/>
<text text-anchor="middle" x="547" y="-384.4" font-family="Times Roman,serif" font-size="14.00">Need Feedback</text>
</g>
<!-- Open&#45;&gt;Need Feedback -->
<g id="edge12" class="edge"><title>Open&#45;&gt;Need Feedback</title>
<path fill="none" stroke="black" d="M65.127,-399.488C78.8576,-405.134 95.9743,-411.168 112,-414 222.305,-433.495 252.301,-418.39 364,-410 397.4,-407.491 434.081,-403.356 465.776,-399.344"/>
<polygon fill="black" stroke="black" points="466.408,-402.792 475.881,-398.048 465.517,-395.849 466.408,-402.792"/>
</g>
<!-- Not a Bug -->
<g id="node11" class="node"><title>Not a Bug</title>
<ellipse fill="none" stroke="black" cx="1003" cy="-190" rx="60.8112" ry="18.3848"/>
<text text-anchor="middle" x="1003" y="-186.4" font-family="Times Roman,serif" font-size="14.00">Not a Bug</text>
</g>
<!-- Open&#45;&gt;Not a Bug -->
<g id="edge14" class="edge"><title>Open&#45;&gt;Not a Bug</title>
<path fill="none" stroke="black" d="M48.8079,-369.404C61.5438,-350.173 84.4923,-319.858 112,-303 173.028,-265.6 197.517,-275.462 268,-263 509.585,-220.286 800.587,-200.644 932.215,-193.445"/>
<polygon fill="black" stroke="black" points="932.757,-196.921 942.554,-192.888 932.38,-189.931 932.757,-196.921"/>
</g>
<!-- Unsupported -->
<g id="node12" class="node"><title>Unsupported</title>
<ellipse fill="none" stroke="black" cx="1003" cy="-87" rx="74.2462" ry="18.3848"/>
<text text-anchor="middle" x="1003" y="-83.4" font-family="Times Roman,serif" font-size="14.00">Unsupported</text>
</g>
<!-- Open&#45;&gt;Unsupported -->
<g id="edge16" class="edge"><title>Open&#45;&gt;Unsupported</title>
<path fill="none" stroke="black" d="M41.5798,-368.853C57.824,-292.342 131.935,-0 316,-0 316,-0 316,-0 547,-0 694.298,-0 863.693,-44.3424 948.559,-69.7133"/>
<polygon fill="black" stroke="black" points="947.65,-73.095 958.235,-72.6337 949.673,-66.3935 947.65,-73.095"/>
</g>
<!-- Closed -->
<g id="node2" class="node"><title>Closed</title>
<ellipse fill="none" stroke="black" cx="804" cy="-667" rx="43.8406" ry="18.3848"/>
<text text-anchor="middle" x="804" y="-663.4" font-family="Times Roman,serif" font-size="14.00">Closed</text>
</g>
<!-- Analyzing&#45;&gt;Open -->
<g id="edge18" class="edge"><title>Analyzing&#45;&gt;Open</title>
<path fill="none" stroke="black" d="M116.039,-393.668C105.255,-393.83 94.0784,-393.752 83.6688,-393.436"/>
<polygon fill="black" stroke="black" points="83.687,-389.934 73.5577,-393.04 83.4131,-396.929 83.687,-389.934"/>
</g>
<!-- Analyzing&#45;&gt;Duplicate -->
<g id="edge20" class="edge"><title>Analyzing&#45;&gt;Duplicate</title>
<path fill="none" stroke="black" d="M177.043,-405.095C195.152,-466.282 263.207,-666.283 400,-750 575.873,-857.634 837.823,-811.561 949.475,-784.527"/>
<polygon fill="black" stroke="black" points="950.616,-787.85 959.485,-782.056 948.938,-781.054 950.616,-787.85"/>
</g>
<!-- Analyzing&#45;&gt;Verified -->
<g id="edge22" class="edge"><title>Analyzing&#45;&gt;Verified</title>
<path fill="none" stroke="black" d="M186.953,-404.559C205.03,-425.257 236.908,-460.108 268,-486 272.329,-489.605 277.073,-493.171 281.841,-496.541"/>
<polygon fill="black" stroke="black" points="280.132,-499.612 290.364,-502.36 284.079,-493.831 280.132,-499.612"/>
</g>
<!-- Analyzing&#45;&gt;To be fixed later -->
<g id="edge24" class="edge"><title>Analyzing&#45;&gt;To be fixed later</title>
<path fill="none" stroke="black" d="M216.649,-399.178C232.73,-403.17 251.08,-407.275 268,-410 494.179,-446.42 763.178,-462.216 904.696,-468.427"/>
<polygon fill="black" stroke="black" points="904.936,-471.94 915.078,-468.875 905.239,-464.947 904.936,-471.94"/>
</g>
<!-- Analyzing&#45;&gt;Can&#39;t repeat -->
<g id="edge26" class="edge"><title>Analyzing&#45;&gt;Can&#39;t repeat</title>
<path fill="none" stroke="black" d="M213.218,-373.762C230.052,-368.788 249.808,-363.497 268,-360 325.935,-348.863 341.231,-351.163 400,-346 611.874,-327.387 666.512,-300.42 878,-323 899.723,-325.319 923.214,-329.845 943.905,-334.538"/>
<polygon fill="black" stroke="black" points="943.284,-337.986 953.817,-336.846 944.871,-331.169 943.284,-337.986"/>
</g>
<!-- Analyzing&#45;&gt;Need Feedback -->
<g id="edge28" class="edge"><title>Analyzing&#45;&gt;Need Feedback</title>
<path fill="none" stroke="black" d="M229.772,-382.118C290.182,-380.321 385.832,-380.296 456.322,-381.882"/>
<polygon fill="black" stroke="black" points="456.451,-385.386 466.532,-382.128 456.62,-378.388 456.451,-385.386"/>
</g>
<!-- Analyzing&#45;&gt;Not a Bug -->
<g id="edge30" class="edge"><title>Analyzing&#45;&gt;Not a Bug</title>
<path fill="none" stroke="black" d="M203.686,-371.624C287.252,-332.048 521.536,-227.378 730,-193 798.572,-181.692 878.15,-182.353 933.633,-184.982"/>
<polygon fill="black" stroke="black" points="933.539,-188.482 943.704,-185.494 933.894,-181.491 933.539,-188.482"/>
</g>
<!-- Analyzing&#45;&gt;Unsupported -->
<g id="edge32" class="edge"><title>Analyzing&#45;&gt;Unsupported</title>
<path fill="none" stroke="black" d="M186.714,-369.524C220.149,-331.142 306.241,-239.599 400,-198 574.197,-120.712 799.663,-97.2379 919.492,-90.1088"/>
<polygon fill="black" stroke="black" points="919.913,-93.5906 929.697,-89.5262 919.513,-86.602 919.913,-93.5906"/>
</g>
<!-- Verified&#45;&gt;Closed -->
<g id="edge34" class="edge"><title>Verified&#45;&gt;Closed</title>
<path fill="none" stroke="black" d="M319.4,-536.007C326.954,-570.292 348.687,-644.258 400,-675 514.467,-743.577 681.867,-705.831 760.348,-681.901"/>
<polygon fill="black" stroke="black" points="761.866,-685.094 770.368,-678.772 759.779,-678.412 761.866,-685.094"/>
</g>
<!-- Verified&#45;&gt;Duplicate -->
<g id="edge40" class="edge"><title>Verified&#45;&gt;Duplicate</title>
<path fill="none" stroke="black" d="M318.045,-536.08C323.482,-574.858 342.089,-665.91 400,-708 483.778,-768.891 795.179,-772.8 934.666,-771.354"/>
<polygon fill="black" stroke="black" points="934.85,-774.852 944.808,-771.236 934.768,-767.852 934.85,-774.852"/>
</g>
<!-- Verified&#45;&gt;To be fixed later -->
<g id="edge42" class="edge"><title>Verified&#45;&gt;To be fixed later</title>
<path fill="none" stroke="black" d="M360.66,-524.66C456.548,-537.616 688.782,-561.788 878,-524 907.606,-518.087 938.972,-505.017 962.878,-493.46"/>
<polygon fill="black" stroke="black" points="964.57,-496.528 971.982,-488.958 961.467,-490.253 964.57,-496.528"/>
</g>
<!-- Won&#39;t fix -->
<g id="node7" class="node"><title>Won&#39;t fix</title>
<ellipse fill="none" stroke="black" cx="547" cy="-594" rx="55.1543" ry="18.3848"/>
<text text-anchor="middle" x="547" y="-590.4" font-family="Times Roman,serif" font-size="14.00">Won&#39;t fix</text>
</g>
<!-- Verified&#45;&gt;Won&#39;t fix -->
<g id="edge44" class="edge"><title>Verified&#45;&gt;Won&#39;t fix</title>
<path fill="none" stroke="black" d="M341.288,-533.534C357.551,-542.94 379.42,-554.524 400,-562 427.754,-572.082 459.665,-579.5 486.647,-584.641"/>
<polygon fill="black" stroke="black" points="486.259,-588.128 496.728,-586.5 487.529,-581.244 486.259,-588.128"/>
</g>
<!-- Verified&#45;&gt;Can&#39;t repeat -->
<g id="edge38" class="edge"><title>Verified&#45;&gt;Can&#39;t repeat</title>
<path fill="none" stroke="black" d="M363.517,-515.279C435.818,-510.343 577.373,-497.55 694,-468 791.814,-443.217 900.932,-396.861 959.752,-370.224"/>
<polygon fill="black" stroke="black" points="961.449,-373.297 969.097,-365.966 958.546,-366.927 961.449,-373.297"/>
</g>
<!-- Verified&#45;&gt;Need Feedback -->
<g id="edge36" class="edge"><title>Verified&#45;&gt;Need Feedback</title>
<path fill="none" stroke="black" d="M322.975,-500.066C335.482,-475.325 363.829,-432.597 400,-411 415.705,-401.623 433.818,-394.982 451.847,-390.466"/>
<polygon fill="black" stroke="black" points="452.875,-393.821 461.838,-388.171 451.308,-386.998 452.875,-393.821"/>
</g>
<!-- Verified&#45;&gt;Not a Bug -->
<g id="edge46" class="edge"><title>Verified&#45;&gt;Not a Bug</title>
<path fill="none" stroke="black" d="M320.903,-499.954C330.608,-467.553 355.293,-399.331 400,-361 555.678,-227.523 808.922,-197.896 931.725,-191.555"/>
<polygon fill="black" stroke="black" points="931.946,-195.048 941.767,-191.073 931.611,-188.056 931.946,-195.048"/>
</g>
<!-- Oracle Internal Bug System -->
<g id="node13" class="node"><title>Oracle Internal Bug System</title>
<ellipse fill="none" stroke="red" cx="547" cy="-648" rx="145.872" ry="18.3848"/>
<text text-anchor="middle" x="547" y="-644.4" font-family="Times Roman,serif" font-size="14.00">Oracle Internal Bug System</text>
</g>
<!-- Verified&#45;&gt;Oracle Internal Bug System -->
<g id="edge48" class="edge"><title>Verified&#45;&gt;Oracle Internal Bug System</title>
<path fill="none" stroke="black" stroke-dasharray="1,5" d="M325.242,-535.832C338.451,-559.394 365.046,-600.324 400,-621 408.122,-625.804 416.903,-629.788 425.992,-633.088"/>
<polygon fill="black" stroke="black" points="424.966,-636.436 435.56,-636.286 427.185,-629.797 424.966,-636.436"/>
</g>
<!-- No Feedback -->
<g id="node9" class="node"><title>No Feedback</title>
<ellipse fill="none" stroke="grey" cx="804" cy="-350" rx="73.0388" ry="18.3848"/>
<text text-anchor="middle" x="804" y="-346.4" font-family="Times Roman,serif" font-size="14.00">No Feedback</text>
</g>
<!-- No Feedback&#45;&gt;Duplicate -->
<g id="edge70" class="edge"><title>No Feedback&#45;&gt;Duplicate</title>
<path fill="none" stroke="black" d="M812.551,-368.047C843.87,-434.148 952.448,-663.307 990.057,-742.682"/>
<polygon fill="black" stroke="black" points="987.036,-744.482 994.481,-752.02 993.362,-741.485 987.036,-744.482"/>
</g>
<!-- No Feedback&#45;&gt;Analyzing -->
<g id="edge68" class="edge"><title>No Feedback&#45;&gt;Analyzing</title>
<path fill="none" stroke="black" d="M730.186,-350.1C649.118,-350.656 515.135,-352.883 400,-361 344.764,-364.894 282.3,-372.224 236.737,-378.111"/>
<polygon fill="black" stroke="black" points="236.163,-374.656 226.7,-379.419 237.068,-381.597 236.163,-374.656"/>
</g>
<!-- No Feedback&#45;&gt;Verified -->
<g id="edge72" class="edge"><title>No Feedback&#45;&gt;Verified</title>
<path fill="none" stroke="black" d="M779.236,-367.254C757.58,-381.689 724.853,-401.96 694,-415 678.611,-421.504 464.135,-478.709 365.271,-504.949"/>
<polygon fill="black" stroke="black" points="364.274,-501.592 355.506,-507.539 366.07,-508.358 364.274,-501.592"/>
</g>
<!-- No Feedback&#45;&gt;To be fixed later -->
<g id="edge74" class="edge"><title>No Feedback&#45;&gt;To be fixed later</title>
<path fill="none" stroke="black" d="M831.67,-366.964C866.67,-388.421 927.06,-425.444 965.997,-449.315"/>
<polygon fill="black" stroke="black" points="964.569,-452.544 974.923,-454.787 968.227,-446.577 964.569,-452.544"/>
</g>
<!-- No Feedback&#45;&gt;Can&#39;t repeat -->
<g id="edge76" class="edge"><title>No Feedback&#45;&gt;Can&#39;t repeat</title>
<path fill="none" stroke="black" d="M877.535,-350C891.523,-350 906.246,-350 920.491,-350"/>
<polygon fill="black" stroke="black" points="920.762,-353.5 930.762,-350 920.762,-346.5 920.762,-353.5"/>
</g>
<!-- No Feedback&#45;&gt;Not a Bug -->
<g id="edge78" class="edge"><title>No Feedback&#45;&gt;Not a Bug</title>
<path fill="none" stroke="black" d="M825.675,-332.573C861.676,-303.627 933.814,-245.627 974.101,-213.235"/>
<polygon fill="black" stroke="black" points="976.352,-215.917 981.952,-206.923 971.966,-210.461 976.352,-215.917"/>
</g>
<!-- No Feedback&#45;&gt;Unsupported -->
<g id="edge80" class="edge"><title>No Feedback&#45;&gt;Unsupported</title>
<path fill="none" stroke="black" d="M817.564,-332.275C833.22,-311.37 859.221,-275.248 878,-242 896.976,-208.404 890.778,-193.815 914,-163 929.376,-142.596 951.12,-123.901 969.265,-110.158"/>
<polygon fill="black" stroke="black" points="971.356,-112.965 977.314,-104.204 967.193,-107.337 971.356,-112.965"/>
</g>
<!-- Need Feedback&#45;&gt;Duplicate -->
<g id="edge56" class="edge"><title>Need Feedback&#45;&gt;Duplicate</title>
<path fill="none" stroke="black" d="M572.532,-405.399C629.498,-444.648 770.424,-544.143 878,-640 916.297,-674.125 956.77,-717.814 980.95,-744.849"/>
<polygon fill="black" stroke="black" points="978.355,-747.198 987.616,-752.344 983.585,-742.546 978.355,-747.198"/>
</g>
<!-- Need Feedback&#45;&gt;Analyzing -->
<g id="edge54" class="edge"><title>Need Feedback&#45;&gt;Analyzing</title>
<path fill="none" stroke="black" d="M465.839,-393.457C398.417,-394.815 303.591,-394.452 240.078,-392.526"/>
<polygon fill="black" stroke="black" points="239.881,-389.018 229.772,-392.19 239.652,-396.014 239.881,-389.018"/>
</g>
<!-- Need Feedback&#45;&gt;Verified -->
<g id="edge58" class="edge"><title>Need Feedback&#45;&gt;Verified</title>
<path fill="none" stroke="black" d="M485.812,-400.6C458.073,-405.581 425.789,-413.602 400,-429 373.401,-444.882 351.033,-472.191 336.083,-492.536"/>
<polygon fill="black" stroke="black" points="333.152,-490.617 330.14,-500.775 338.829,-494.712 333.152,-490.617"/>
</g>
<!-- Need Feedback&#45;&gt;To be fixed later -->
<g id="edge60" class="edge"><title>Need Feedback&#45;&gt;To be fixed later</title>
<path fill="none" stroke="black" d="M611.367,-399.857C694.458,-415.163 838.832,-441.759 927.158,-458.029"/>
<polygon fill="black" stroke="black" points="926.645,-461.493 937.113,-459.863 927.913,-454.609 926.645,-461.493"/>
</g>
<!-- Need Feedback&#45;&gt;Can&#39;t repeat -->
<g id="edge62" class="edge"><title>Need Feedback&#45;&gt;Can&#39;t repeat</title>
<path fill="none" stroke="black" d="M632.019,-389.356C699.073,-389.42 794.831,-387.28 878,-377 899.397,-374.355 922.548,-369.832 943.043,-365.236"/>
<polygon fill="black" stroke="black" points="943.907,-368.628 952.871,-362.981 942.342,-361.806 943.907,-368.628"/>
</g>
<!-- Need Feedback&#45;&gt;No Feedback -->
<g id="edge52" class="edge"><title>Need Feedback&#45;&gt;No Feedback</title>
<path fill="none" stroke="black" d="M616.887,-377.667C652.061,-372.466 694.691,-366.162 730.372,-360.887"/>
<polygon fill="black" stroke="black" points="731.341,-364.281 740.722,-359.356 730.317,-357.357 731.341,-364.281"/>
</g>
<!-- Need Feedback&#45;&gt;Not a Bug -->
<g id="edge64" class="edge"><title>Need Feedback&#45;&gt;Not a Bug</title>
<path fill="none" stroke="black" d="M584.316,-371.797C667.947,-335.483 870.032,-247.736 959.327,-208.963"/>
<polygon fill="black" stroke="black" points="960.849,-212.118 968.628,-204.925 958.061,-205.697 960.849,-212.118"/>
</g>
<!-- Need Feedback&#45;&gt;Unsupported -->
<g id="edge66" class="edge"><title>Need Feedback&#45;&gt;Unsupported</title>
<path fill="none" stroke="black" d="M567.424,-370.509C600.51,-342.533 668.351,-286.634 730,-245 809.579,-191.257 908.23,-137.006 962.486,-108.16"/>
<polygon fill="black" stroke="black" points="964.246,-111.188 971.444,-103.413 960.969,-105.002 964.246,-111.188"/>
</g>
<!-- Oracle Internal Bug System&#45;&gt;Closed -->
<g id="edge50" class="edge"><title>Oracle Internal Bug System&#45;&gt;Closed</title>
<path fill="none" stroke="black" stroke-dasharray="1,5" d="M672.865,-657.305C700.217,-659.327 727.728,-661.361 750.438,-663.04"/>
<polygon fill="black" stroke="black" points="750.286,-666.538 760.517,-663.785 750.802,-659.557 750.286,-666.538"/>
</g>
</g>
</svg>
