<?xml version="1.0" encoding="UTF-8" standalone="no"?>
<!DOCTYPE svg PUBLIC "-//W3C//DTD SVG 1.1//EN"
 "http://www.w3.org/Graphics/SVG/1.1/DTD/svg11.dtd">
<!-- Generated by graphviz version 2.40.1 (20161225.0304)
 -->
<!-- Title: mysql_history_graph Pages: 1 -->
<svg width="805pt" height="1340pt"
 viewBox="0.00 0.00 804.77 1340.00" xmlns="http://www.w3.org/2000/svg" xmlns:xlink="http://www.w3.org/1999/xlink">
<g id="graph0" class="graph" transform="scale(1 1) rotate(0) translate(4 1336)">
<title>mysql_history_graph</title>
<polygon fill="#ffffff" stroke="transparent" points="-4,4 -4,-1336 800.7734,-1336 800.7734,4 -4,4"/>
<!-- MySQL 3.19 -->
<g id="node1" class="node">
<title>MySQL 3.19</title>
<ellipse fill="none" stroke="#ff0000" cx="511.6281" cy="-1314" rx="56.4232" ry="18"/>
<text text-anchor="middle" x="511.6281" y="-1309.8" font-family="Times,serif" font-size="14.00" fill="#000000">MySQL 3.19</text>
</g>
<!-- MySQL 3.20 -->
<g id="node2" class="node">
<title>MySQL 3.20</title>
<ellipse fill="none" stroke="#ff0000" cx="511.6281" cy="-1242" rx="56.4232" ry="18"/>
<text text-anchor="middle" x="511.6281" y="-1237.8" font-family="Times,serif" font-size="14.00" fill="#000000">MySQL 3.20</text>
</g>
<!-- MySQL 3.19&#45;&gt;MySQL 3.20 -->
<g id="edge1" class="edge">
<title>MySQL 3.19&#45;&gt;MySQL 3.20</title>
<path fill="none" stroke="#000000" d="M511.6281,-1295.8314C511.6281,-1288.131 511.6281,-1278.9743 511.6281,-1270.4166"/>
<polygon fill="#000000" stroke="#000000" points="515.1282,-1270.4132 511.6281,-1260.4133 508.1282,-1270.4133 515.1282,-1270.4132"/>
</g>
<!-- MySQL 3.21 -->
<g id="node3" class="node">
<title>MySQL 3.21</title>
<ellipse fill="none" stroke="#ff0000" cx="511.6281" cy="-1170" rx="56.4232" ry="18"/>
<text text-anchor="middle" x="511.6281" y="-1165.8" font-family="Times,serif" font-size="14.00" fill="#000000">MySQL 3.21</text>
</g>
<!-- MySQL 3.20&#45;&gt;MySQL 3.21 -->
<g id="edge2" class="edge">
<title>MySQL 3.20&#45;&gt;MySQL 3.21</title>
<path fill="none" stroke="#000000" d="M511.6281,-1223.8314C511.6281,-1216.131 511.6281,-1206.9743 511.6281,-1198.4166"/>
<polygon fill="#000000" stroke="#000000" points="515.1282,-1198.4132 511.6281,-1188.4133 508.1282,-1198.4133 515.1282,-1198.4132"/>
</g>
<!-- MySQL 3.22 -->
<g id="node4" class="node">
<title>MySQL 3.22</title>
<ellipse fill="none" stroke="#ff0000" cx="511.6281" cy="-1098" rx="56.4232" ry="18"/>
<text text-anchor="middle" x="511.6281" y="-1093.8" font-family="Times,serif" font-size="14.00" fill="#000000">MySQL 3.22</text>
</g>
<!-- MySQL 3.21&#45;&gt;MySQL 3.22 -->
<g id="edge3" class="edge">
<title>MySQL 3.21&#45;&gt;MySQL 3.22</title>
<path fill="none" stroke="#000000" d="M511.6281,-1151.8314C511.6281,-1144.131 511.6281,-1134.9743 511.6281,-1126.4166"/>
<polygon fill="#000000" stroke="#000000" points="515.1282,-1126.4132 511.6281,-1116.4133 508.1282,-1126.4133 515.1282,-1126.4132"/>
</g>
<!-- MySQL 3.23 -->
<g id="node5" class="node">
<title>MySQL 3.23</title>
<ellipse fill="none" stroke="#ff0000" cx="511.6281" cy="-1026" rx="56.4232" ry="18"/>
<text text-anchor="middle" x="511.6281" y="-1021.8" font-family="Times,serif" font-size="14.00" fill="#000000">MySQL 3.23</text>
</g>
<!-- MySQL 3.22&#45;&gt;MySQL 3.23 -->
<g id="edge4" class="edge">
<title>MySQL 3.22&#45;&gt;MySQL 3.23</title>
<path fill="none" stroke="#000000" d="M511.6281,-1079.8314C511.6281,-1072.131 511.6281,-1062.9743 511.6281,-1054.4166"/>
<polygon fill="#000000" stroke="#000000" points="515.1282,-1054.4132 511.6281,-1044.4133 508.1282,-1054.4133 515.1282,-1054.4132"/>
</g>
<!-- MySQL 4.0 -->
<g id="node6" class="node">
<title>MySQL 4.0</title>
<ellipse fill="none" stroke="#ff0000" cx="511.6281" cy="-954" rx="52.0798" ry="18"/>
<text text-anchor="middle" x="511.6281" y="-949.8" font-family="Times,serif" font-size="14.00" fill="#000000">MySQL 4.0</text>
</g>
<!-- MySQL 3.23&#45;&gt;MySQL 4.0 -->
<g id="edge5" class="edge">
<title>MySQL 3.23&#45;&gt;MySQL 4.0</title>
<path fill="none" stroke="#000000" d="M511.6281,-1007.8314C511.6281,-1000.131 511.6281,-990.9743 511.6281,-982.4166"/>
<polygon fill="#000000" stroke="#000000" points="515.1282,-982.4132 511.6281,-972.4133 508.1282,-982.4133 515.1282,-982.4132"/>
</g>
<!-- MySQL 4.1 -->
<g id="node7" class="node">
<title>MySQL 4.1</title>
<ellipse fill="none" stroke="#ff0000" cx="511.6281" cy="-882" rx="52.0798" ry="18"/>
<text text-anchor="middle" x="511.6281" y="-877.8" font-family="Times,serif" font-size="14.00" fill="#000000">MySQL 4.1</text>
</g>
<!-- MySQL 4.0&#45;&gt;MySQL 4.1 -->
<g id="edge6" class="edge">
<title>MySQL 4.0&#45;&gt;MySQL 4.1</title>
<path fill="none" stroke="#000000" d="M511.6281,-935.8314C511.6281,-928.131 511.6281,-918.9743 511.6281,-910.4166"/>
<polygon fill="#000000" stroke="#000000" points="515.1282,-910.4132 511.6281,-900.4133 508.1282,-910.4133 515.1282,-910.4132"/>
</g>
<!-- MySQL 5.0 -->
<g id="node8" class="node">
<title>MySQL 5.0</title>
<ellipse fill="none" stroke="#ff0000" cx="511.6281" cy="-810" rx="52.0798" ry="18"/>
<text text-anchor="middle" x="511.6281" y="-805.8" font-family="Times,serif" font-size="14.00" fill="#000000">MySQL 5.0</text>
</g>
<!-- MySQL 4.1&#45;&gt;MySQL 5.0 -->
<g id="edge7" class="edge">
<title>MySQL 4.1&#45;&gt;MySQL 5.0</title>
<path fill="none" stroke="#000000" d="M511.6281,-863.8314C511.6281,-856.131 511.6281,-846.9743 511.6281,-838.4166"/>
<polygon fill="#000000" stroke="#000000" points="515.1282,-838.4132 511.6281,-828.4133 508.1282,-838.4133 515.1282,-838.4132"/>
</g>
<!-- MySQL 5.1 -->
<g id="node9" class="node">
<title>MySQL 5.1</title>
<ellipse fill="none" stroke="#ff0000" cx="438.6281" cy="-738" rx="52.0798" ry="18"/>
<text text-anchor="middle" x="438.6281" y="-733.8" font-family="Times,serif" font-size="14.00" fill="#000000">MySQL 5.1</text>
</g>
<!-- MySQL 5.0&#45;&gt;MySQL 5.1 -->
<g id="edge8" class="edge">
<title>MySQL 5.0&#45;&gt;MySQL 5.1</title>
<path fill="none" stroke="#000000" d="M494.3282,-792.937C485.032,-783.7682 473.4131,-772.3084 463.1957,-762.2311"/>
<polygon fill="#000000" stroke="#000000" points="465.6344,-759.7203 456.0569,-755.19 460.7189,-764.7041 465.6344,-759.7203"/>
</g>
<!-- Percona Server 5.0 -->
<g id="node36" class="node">
<title>Percona Server 5.0</title>
<ellipse fill="none" stroke="#ffa500" cx="655.6281" cy="-738" rx="77.2909" ry="18"/>
<text text-anchor="middle" x="655.6281" y="-733.8" font-family="Times,serif" font-size="14.00" fill="#000000">Percona Server 5.0</text>
</g>
<!-- MySQL 5.0&#45;&gt;Percona Server 5.0 -->
<g id="edge49" class="edge">
<title>MySQL 5.0&#45;&gt;Percona Server 5.0</title>
<path fill="none" stroke="#000000" d="M541.465,-795.0816C562.3174,-784.6554 590.4549,-770.5866 613.5776,-759.0253"/>
<polygon fill="#000000" stroke="#000000" points="615.4382,-762.0082 622.8172,-754.4055 612.3077,-755.7472 615.4382,-762.0082"/>
</g>
<!-- MySQL 6.0 -->
<g id="node14" class="node">
<title>MySQL 6.0</title>
<ellipse fill="none" stroke="#ff0000" stroke-dasharray="1,5" cx="316.6281" cy="-666" rx="52.0798" ry="18"/>
<text text-anchor="middle" x="316.6281" y="-661.8" font-family="Times,serif" font-size="14.00" fill="#000000">MySQL 6.0</text>
</g>
<!-- MySQL 5.1&#45;&gt;MySQL 6.0 -->
<g id="edge14" class="edge">
<title>MySQL 5.1&#45;&gt;MySQL 6.0</title>
<path fill="none" stroke="#000000" stroke-dasharray="5,2" d="M412.156,-722.3771C394.4902,-711.9514 371.0638,-698.1259 351.8312,-686.7756"/>
<polygon fill="#000000" stroke="#000000" points="353.4397,-683.6608 343.0487,-681.5924 349.8818,-689.6893 353.4397,-683.6608"/>
</g>
<!-- MySQL 5.2 -->
<g id="node15" class="node">
<title>MySQL 5.2</title>
<ellipse fill="none" stroke="#ff0000" stroke-dasharray="1,5" cx="438.6281" cy="-666" rx="52.0798" ry="18"/>
<text text-anchor="middle" x="438.6281" y="-661.8" font-family="Times,serif" font-size="14.00" fill="#000000">MySQL 5.2</text>
</g>
<!-- MySQL 5.1&#45;&gt;MySQL 5.2 -->
<g id="edge13" class="edge">
<title>MySQL 5.1&#45;&gt;MySQL 5.2</title>
<path fill="none" stroke="#000000" stroke-dasharray="5,2" d="M438.6281,-719.8314C438.6281,-712.131 438.6281,-702.9743 438.6281,-694.4166"/>
<polygon fill="#000000" stroke="#000000" points="442.1282,-694.4132 438.6281,-684.4133 435.1282,-694.4133 442.1282,-694.4132"/>
</g>
<!-- MySQL Cluster 6.2 -->
<g id="node17" class="node">
<title>MySQL Cluster 6.2</title>
<ellipse fill="none" stroke="#cd0000" cx="128.6281" cy="-666" rx="79.5937" ry="18"/>
<text text-anchor="middle" x="128.6281" y="-661.8" font-family="Times,serif" font-size="14.00" fill="#000000">MySQL Cluster 6.2</text>
</g>
<!-- MySQL 5.1&#45;&gt;MySQL Cluster 6.2 -->
<g id="edge17" class="edge">
<title>MySQL 5.1&#45;&gt;MySQL Cluster 6.2</title>
<path fill="none" stroke="#000000" d="M395.1976,-727.9129C342.9505,-715.7781 254.7248,-695.287 194.1804,-681.2251"/>
<polygon fill="#000000" stroke="#000000" points="194.8698,-677.7921 184.3373,-678.9389 193.2861,-684.6106 194.8698,-677.7921"/>
</g>
<!-- MySQL Cluster 6.3 -->
<g id="node18" class="node">
<title>MySQL Cluster 6.3</title>
<ellipse fill="none" stroke="#cd0000" cx="120.6281" cy="-594" rx="79.5937" ry="18"/>
<text text-anchor="middle" x="120.6281" y="-589.8" font-family="Times,serif" font-size="14.00" fill="#000000">MySQL Cluster 6.3</text>
</g>
<!-- MySQL 5.1&#45;&gt;MySQL Cluster 6.3 -->
<g id="edge18" class="edge">
<title>MySQL 5.1&#45;&gt;MySQL Cluster 6.3</title>
<path fill="none" stroke="#000000" d="M387.2557,-734.7688C284.6454,-727.7901 62.1942,-709.8259 39.6281,-684 29.1004,-671.9515 32.0784,-662.1068 39.6281,-648 47.0205,-634.1873 59.6793,-623.2976 72.8216,-615.025"/>
<polygon fill="#000000" stroke="#000000" points="74.6124,-618.0323 81.4772,-609.9623 71.0782,-611.99 74.6124,-618.0323"/>
</g>
<!-- MySQL Cluster 7.0 -->
<g id="node19" class="node">
<title>MySQL Cluster 7.0</title>
<ellipse fill="none" stroke="#cd0000" cx="139.6281" cy="-522" rx="79.5937" ry="18"/>
<text text-anchor="middle" x="139.6281" y="-517.8" font-family="Times,serif" font-size="14.00" fill="#000000">MySQL Cluster 7.0</text>
</g>
<!-- MySQL 5.1&#45;&gt;MySQL Cluster 7.0 -->
<g id="edge20" class="edge">
<title>MySQL 5.1&#45;&gt;MySQL Cluster 7.0</title>
<path fill="none" stroke="#000000" d="M393.0031,-729.18C345.7352,-719.2493 275.9754,-702.1192 255.6281,-684 216.665,-649.3034 241.5413,-617.2738 209.6281,-576 200.4868,-564.1773 188.173,-553.5364 176.4223,-544.8885"/>
<polygon fill="#000000" stroke="#000000" points="178.2067,-541.8639 168.0189,-538.9553 174.1693,-547.5822 178.2067,-541.8639"/>
</g>
<!-- MySQL Cluster 7.1 -->
<g id="node20" class="node">
<title>MySQL Cluster 7.1</title>
<ellipse fill="none" stroke="#cd0000" cx="139.6281" cy="-450" rx="79.5937" ry="18"/>
<text text-anchor="middle" x="139.6281" y="-445.8" font-family="Times,serif" font-size="14.00" fill="#000000">MySQL Cluster 7.1</text>
</g>
<!-- MySQL 5.1&#45;&gt;MySQL Cluster 7.1 -->
<g id="edge22" class="edge">
<title>MySQL 5.1&#45;&gt;MySQL Cluster 7.1</title>
<path fill="none" stroke="#000000" d="M387.1739,-734.944C282.5473,-728.204 52.8813,-710.525 29.6281,-684 -23.4661,-623.435 2.4174,-568.52 50.6281,-504 61.0203,-490.0923 76.1452,-479.0185 90.9876,-470.6102"/>
<polygon fill="#000000" stroke="#000000" points="92.976,-473.5162 100.1478,-465.7177 89.6782,-467.3417 92.976,-473.5162"/>
</g>
<!-- MariaDB 5.1 -->
<g id="node25" class="node">
<title>MariaDB 5.1</title>
<ellipse fill="none" stroke="#0000ff" cx="641.6281" cy="-594" rx="56.5459" ry="18"/>
<text text-anchor="middle" x="641.6281" y="-589.8" font-family="Times,serif" font-size="14.00" fill="#000000">MariaDB 5.1</text>
</g>
<!-- MySQL 5.1&#45;&gt;MariaDB 5.1 -->
<g id="edge31" class="edge">
<title>MySQL 5.1&#45;&gt;MariaDB 5.1</title>
<path fill="none" stroke="#000000" d="M480.115,-727.0732C507.635,-718.4397 543.5337,-704.4096 570.6281,-684 593.6494,-666.6587 613.3457,-640.1356 626.1117,-620.3686"/>
<polygon fill="#000000" stroke="#000000" points="629.1259,-622.15 631.4765,-611.8192 623.1965,-618.4293 629.1259,-622.15"/>
</g>
<!-- MariaDB 5.2 -->
<g id="node26" class="node">
<title>MariaDB 5.2</title>
<ellipse fill="none" stroke="#0000ff" cx="641.6281" cy="-522" rx="56.5459" ry="18"/>
<text text-anchor="middle" x="641.6281" y="-517.8" font-family="Times,serif" font-size="14.00" fill="#000000">MariaDB 5.2</text>
</g>
<!-- MySQL 5.1&#45;&gt;MariaDB 5.2 -->
<g id="edge33" class="edge">
<title>MySQL 5.1&#45;&gt;MariaDB 5.2</title>
<path fill="none" stroke="#000000" d="M473.7944,-724.6531C493.3498,-715.7041 516.8498,-702.2041 532.6281,-684 566.4666,-644.9591 545.1073,-617.6859 575.6281,-576 584.4254,-563.9846 596.4986,-553.0747 607.9154,-544.2564"/>
<polygon fill="#000000" stroke="#000000" points="610.1089,-546.9872 616.0564,-538.2192 605.9392,-541.3646 610.1089,-546.9872"/>
</g>
<!-- MariaDB 5.3 -->
<g id="node27" class="node">
<title>MariaDB 5.3</title>
<ellipse fill="none" stroke="#0000ff" cx="641.6281" cy="-450" rx="56.5459" ry="18"/>
<text text-anchor="middle" x="641.6281" y="-445.8" font-family="Times,serif" font-size="14.00" fill="#000000">MariaDB 5.3</text>
</g>
<!-- MySQL 5.1&#45;&gt;MariaDB 5.3 -->
<g id="edge36" class="edge">
<title>MySQL 5.1&#45;&gt;MariaDB 5.3</title>
<path fill="none" stroke="#000000" d="M461.5034,-721.7973C474.0551,-711.9933 489.1496,-698.5895 499.6281,-684 550.2859,-613.4682 523.6091,-573.5339 575.6281,-504 584.5487,-492.0759 596.6484,-481.1855 608.0518,-472.3574"/>
<polygon fill="#000000" stroke="#000000" points="610.2458,-475.0875 616.1768,-466.3083 606.0655,-469.4727 610.2458,-475.0875"/>
</g>
<!-- Percona Server 5.1 -->
<g id="node33" class="node">
<title>Percona Server 5.1</title>
<ellipse fill="none" stroke="#ffa500" cx="719.6281" cy="-666" rx="77.2909" ry="18"/>
<text text-anchor="middle" x="719.6281" y="-661.8" font-family="Times,serif" font-size="14.00" fill="#000000">Percona Server 5.1</text>
</g>
<!-- MySQL 5.1&#45;&gt;Percona Server 5.1 -->
<g id="edge50" class="edge">
<title>MySQL 5.1&#45;&gt;Percona Server 5.1</title>
<path fill="none" stroke="#000000" d="M480.6967,-727.2209C527.5401,-715.2183 603.7196,-695.699 657.4468,-681.9326"/>
<polygon fill="#000000" stroke="#000000" points="658.3871,-685.3048 667.2054,-679.4322 656.6496,-678.5239 658.3871,-685.3048"/>
</g>
<!-- MySQL 5.5 -->
<g id="node10" class="node">
<title>MySQL 5.5</title>
<ellipse fill="none" stroke="#ff0000" cx="443.6281" cy="-450" rx="52.0798" ry="18"/>
<text text-anchor="middle" x="443.6281" y="-445.8" font-family="Times,serif" font-size="14.00" fill="#000000">MySQL 5.5</text>
</g>
<!-- MySQL 5.6 -->
<g id="node11" class="node">
<title>MySQL 5.6</title>
<ellipse fill="none" stroke="#ff0000" cx="402.6281" cy="-378" rx="52.0798" ry="18"/>
<text text-anchor="middle" x="402.6281" y="-373.8" font-family="Times,serif" font-size="14.00" fill="#000000">MySQL 5.6</text>
</g>
<!-- MySQL 5.5&#45;&gt;MySQL 5.6 -->
<g id="edge9" class="edge">
<title>MySQL 5.5&#45;&gt;MySQL 5.6</title>
<path fill="none" stroke="#000000" d="M433.4933,-432.2022C428.7625,-423.8944 423.0322,-413.8316 417.7997,-404.6427"/>
<polygon fill="#000000" stroke="#000000" points="420.7784,-402.8005 412.7885,-395.8425 414.6955,-406.2644 420.7784,-402.8005"/>
</g>
<!-- MySQL Cluster 7.2 -->
<g id="node21" class="node">
<title>MySQL Cluster 7.2</title>
<ellipse fill="none" stroke="#cd0000" cx="152.6281" cy="-378" rx="79.5937" ry="18"/>
<text text-anchor="middle" x="152.6281" y="-373.8" font-family="Times,serif" font-size="14.00" fill="#000000">MySQL Cluster 7.2</text>
</g>
<!-- MySQL 5.5&#45;&gt;MySQL Cluster 7.2 -->
<g id="edge24" class="edge">
<title>MySQL 5.5&#45;&gt;MySQL Cluster 7.2</title>
<path fill="none" stroke="#000000" d="M401.0026,-439.4535C352.3784,-427.4227 272.3714,-407.6272 216.3366,-393.7629"/>
<polygon fill="#000000" stroke="#000000" points="217.0626,-390.3371 206.5146,-391.3327 215.3813,-397.1322 217.0626,-390.3371"/>
</g>
<!-- MariaDB 5.5 -->
<g id="node28" class="node">
<title>MariaDB 5.5</title>
<ellipse fill="none" stroke="#0000ff" cx="697.6281" cy="-306" rx="56.5459" ry="18"/>
<text text-anchor="middle" x="697.6281" y="-301.8" font-family="Times,serif" font-size="14.00" fill="#000000">MariaDB 5.5</text>
</g>
<!-- MySQL 5.5&#45;&gt;MariaDB 5.5 -->
<g id="edge39" class="edge">
<title>MySQL 5.5&#45;&gt;MariaDB 5.5</title>
<path fill="none" stroke="#000000" d="M451.5841,-431.9866C461.5393,-411.5199 480.5088,-378.5603 506.6281,-360 509.543,-357.9287 589.0172,-335.8301 644.518,-320.5533"/>
<polygon fill="#000000" stroke="#000000" points="645.5202,-323.9077 654.2341,-317.8812 643.6639,-317.1583 645.5202,-323.9077"/>
</g>
<!-- Percona Server 5.5 -->
<g id="node34" class="node">
<title>Percona Server 5.5</title>
<ellipse fill="none" stroke="#ffa500" cx="592.6281" cy="-378" rx="77.2909" ry="18"/>
<text text-anchor="middle" x="592.6281" y="-373.8" font-family="Times,serif" font-size="14.00" fill="#000000">Percona Server 5.5</text>
</g>
<!-- MySQL 5.5&#45;&gt;Percona Server 5.5 -->
<g id="edge52" class="edge">
<title>MySQL 5.5&#45;&gt;Percona Server 5.5</title>
<path fill="none" stroke="#000000" d="M474.1401,-435.256C495.9373,-424.7231 525.5617,-410.408 549.7355,-398.7266"/>
<polygon fill="#000000" stroke="#000000" points="551.562,-401.7313 559.0431,-394.229 548.5163,-395.4286 551.562,-401.7313"/>
</g>
<!-- MySQL 5.7 -->
<g id="node12" class="node">
<title>MySQL 5.7</title>
<ellipse fill="none" stroke="#ff0000" cx="398.6281" cy="-306" rx="52.0798" ry="18"/>
<text text-anchor="middle" x="398.6281" y="-301.8" font-family="Times,serif" font-size="14.00" fill="#000000">MySQL 5.7</text>
</g>
<!-- MySQL 5.6&#45;&gt;MySQL 5.7 -->
<g id="edge10" class="edge">
<title>MySQL 5.6&#45;&gt;MySQL 5.7</title>
<path fill="none" stroke="#000000" d="M401.6188,-359.8314C401.191,-352.131 400.6823,-342.9743 400.2068,-334.4166"/>
<polygon fill="#000000" stroke="#000000" points="403.7005,-334.2037 399.6511,-324.4133 396.7113,-334.592 403.7005,-334.2037"/>
</g>
<!-- MySQL Cluster 7.3 -->
<g id="node22" class="node">
<title>MySQL Cluster 7.3</title>
<ellipse fill="none" stroke="#cd0000" cx="152.6281" cy="-306" rx="79.5937" ry="18"/>
<text text-anchor="middle" x="152.6281" y="-301.8" font-family="Times,serif" font-size="14.00" fill="#000000">MySQL Cluster 7.3</text>
</g>
<!-- MySQL 5.6&#45;&gt;MySQL Cluster 7.3 -->
<g id="edge26" class="edge">
<title>MySQL 5.6&#45;&gt;MySQL Cluster 7.3</title>
<path fill="none" stroke="#000000" d="M362.4613,-366.432C321.7416,-354.7047 258.2809,-336.428 211.8054,-323.043"/>
<polygon fill="#000000" stroke="#000000" points="212.7382,-319.6695 202.1601,-320.2652 210.8009,-326.3961 212.7382,-319.6695"/>
</g>
<!-- Percona Server 5.6 -->
<g id="node35" class="node">
<title>Percona Server 5.6</title>
<ellipse fill="none" stroke="#ffa500" cx="545.6281" cy="-306" rx="77.2909" ry="18"/>
<text text-anchor="middle" x="545.6281" y="-301.8" font-family="Times,serif" font-size="14.00" fill="#000000">Percona Server 5.6</text>
</g>
<!-- MySQL 5.6&#45;&gt;Percona Server 5.6 -->
<g id="edge55" class="edge">
<title>MySQL 5.6&#45;&gt;Percona Server 5.6</title>
<path fill="none" stroke="#000000" d="M432.2578,-363.0816C452.9654,-352.6554 480.9075,-338.5866 503.8696,-327.0253"/>
<polygon fill="#000000" stroke="#000000" points="505.6873,-330.0287 513.0451,-322.4055 502.5393,-323.7765 505.6873,-330.0287"/>
</g>
<!-- MySQL 8.0 -->
<g id="node16" class="node">
<title>MySQL 8.0</title>
<ellipse fill="none" stroke="#ff0000" stroke-dasharray="5,2" cx="318.6281" cy="-234" rx="52.0798" ry="18"/>
<text text-anchor="middle" x="318.6281" y="-229.8" font-family="Times,serif" font-size="14.00" fill="#000000">MySQL 8.0</text>
</g>
<!-- MySQL 5.7&#45;&gt;MySQL 8.0 -->
<g id="edge16" class="edge">
<title>MySQL 5.7&#45;&gt;MySQL 8.0</title>
<path fill="none" stroke="#000000" stroke-dasharray="5,2" d="M379.6693,-288.937C369.3077,-279.6116 356.3129,-267.9163 344.9792,-257.716"/>
<polygon fill="#000000" stroke="#000000" points="347.2253,-255.0287 337.4509,-250.9405 342.5425,-260.2317 347.2253,-255.0287"/>
</g>
<!-- MySQL Cluster 7.5 -->
<g id="node24" class="node">
<title>MySQL Cluster 7.5</title>
<ellipse fill="none" stroke="#cd0000" cx="184.6281" cy="-162" rx="79.5937" ry="18"/>
<text text-anchor="middle" x="184.6281" y="-157.8" font-family="Times,serif" font-size="14.00" fill="#000000">MySQL Cluster 7.5</text>
</g>
<!-- MySQL 5.7&#45;&gt;MySQL Cluster 7.5 -->
<g id="edge29" class="edge">
<title>MySQL 5.7&#45;&gt;MySQL Cluster 7.5</title>
<path fill="none" stroke="#000000" d="M355.3568,-295.7868C325.8759,-287.3735 287.0163,-273.3164 257.6281,-252 234.0432,-234.8929 213.7809,-208.339 200.6297,-188.5011"/>
<polygon fill="#000000" stroke="#000000" points="203.4584,-186.4292 195.1012,-179.9171 197.5733,-190.2195 203.4584,-186.4292"/>
</g>
<!-- MariaDB 10.2 -->
<g id="node31" class="node">
<title>MariaDB 10.2</title>
<ellipse fill="none" stroke="#0000ff" cx="503.6281" cy="-90" rx="61.3891" ry="18"/>
<text text-anchor="middle" x="503.6281" y="-85.8" font-family="Times,serif" font-size="14.00" fill="#000000">MariaDB 10.2</text>
</g>
<!-- MySQL 5.7&#45;&gt;MariaDB 10.2 -->
<g id="edge48" class="edge">
<title>MySQL 5.7&#45;&gt;MariaDB 10.2</title>
<path fill="none" stroke="#c0c0c0" d="M400.3653,-287.7857C402.6211,-269.1469 407.5335,-239.6461 417.6281,-216 433.8133,-178.0873 462.1085,-139.6986 481.8048,-115.4278"/>
<polygon fill="#c0c0c0" stroke="#c0c0c0" points="484.7171,-117.3975 488.3791,-107.4557 479.3166,-112.9439 484.7171,-117.3975"/>
</g>
<!-- Percona Server 5.7 -->
<g id="node37" class="node">
<title>Percona Server 5.7</title>
<ellipse fill="none" stroke="#ffa500" cx="503.6281" cy="-234" rx="77.2909" ry="18"/>
<text text-anchor="middle" x="503.6281" y="-229.8" font-family="Times,serif" font-size="14.00" fill="#000000">Percona Server 5.7</text>
</g>
<!-- MySQL 5.7&#45;&gt;Percona Server 5.7 -->
<g id="edge57" class="edge">
<title>MySQL 5.7&#45;&gt;Percona Server 5.7</title>
<path fill="none" stroke="#000000" d="M422.1922,-289.8418C436.3747,-280.1166 454.6544,-267.582 470.3005,-256.8532"/>
<polygon fill="#000000" stroke="#000000" points="472.4111,-259.6498 478.6791,-251.1079 468.4524,-253.8767 472.4111,-259.6498"/>
</g>
<!-- MySQL 5.4 -->
<g id="node13" class="node">
<title>MySQL 5.4</title>
<ellipse fill="none" stroke="#ff0000" stroke-dasharray="1,5" cx="462.6281" cy="-522" rx="52.0798" ry="18"/>
<text text-anchor="middle" x="462.6281" y="-517.8" font-family="Times,serif" font-size="14.00" fill="#000000">MySQL 5.4</text>
</g>
<!-- MySQL 5.4&#45;&gt;MySQL 5.5 -->
<g id="edge11" class="edge">
<title>MySQL 5.4&#45;&gt;MySQL 5.5</title>
<path fill="none" stroke="#c0c0c0" d="M457.8336,-503.8314C455.7793,-496.0463 453.3321,-486.7729 451.0526,-478.1347"/>
<polygon fill="#c0c0c0" stroke="#c0c0c0" points="454.423,-477.1892 448.4872,-468.4133 447.6547,-478.9753 454.423,-477.1892"/>
</g>
<!-- MySQL 6.0&#45;&gt;MySQL 5.5 -->
<g id="edge12" class="edge">
<title>MySQL 6.0&#45;&gt;MySQL 5.5</title>
<path fill="none" stroke="#c0c0c0" d="M334.583,-648.8369C344.2396,-638.8262 355.7484,-625.5333 363.6281,-612 389.2317,-568.0262 377.2469,-548.6631 401.6281,-504 407.0619,-494.046 414.2852,-484.0051 421.2072,-475.3267"/>
<polygon fill="#c0c0c0" stroke="#c0c0c0" points="424.0228,-477.4136 427.6831,-467.4712 418.6215,-472.9609 424.0228,-477.4136"/>
</g>
<!-- Drizzle 7.0 -->
<g id="node38" class="node">
<title>Drizzle 7.0</title>
<ellipse fill="none" stroke="#00008b" cx="305.6281" cy="-594" rx="49.286" ry="18"/>
<text text-anchor="middle" x="305.6281" y="-589.8" font-family="Times,serif" font-size="14.00" fill="#000000">Drizzle 7.0</text>
</g>
<!-- MySQL 6.0&#45;&gt;Drizzle 7.0 -->
<g id="edge59" class="edge">
<title>MySQL 6.0&#45;&gt;Drizzle 7.0</title>
<path fill="none" stroke="#000000" d="M313.8524,-647.8314C312.6759,-640.131 311.277,-630.9743 309.9696,-622.4166"/>
<polygon fill="#000000" stroke="#000000" points="313.4115,-621.7699 308.4413,-612.4133 306.4918,-622.8272 313.4115,-621.7699"/>
</g>
<!-- MySQL 5.2&#45;&gt;MySQL 5.4 -->
<g id="edge15" class="edge">
<title>MySQL 5.2&#45;&gt;MySQL 5.4</title>
<path fill="none" stroke="#000000" stroke-dasharray="5,2" d="M441.6678,-647.7623C445.7793,-623.0928 453.1515,-578.8598 457.966,-549.9731"/>
<polygon fill="#000000" stroke="#000000" points="461.4215,-550.529 459.6132,-540.0896 454.5168,-549.3781 461.4215,-550.529"/>
</g>
<!-- MySQL Cluster 6.2&#45;&gt;MySQL Cluster 6.3 -->
<g id="edge19" class="edge">
<title>MySQL Cluster 6.2&#45;&gt;MySQL Cluster 6.3</title>
<path fill="none" stroke="#000000" d="M126.6094,-647.8314C125.7538,-640.131 124.7364,-630.9743 123.7855,-622.4166"/>
<polygon fill="#000000" stroke="#000000" points="127.2571,-621.9656 122.6741,-612.4133 120.2999,-622.7386 127.2571,-621.9656"/>
</g>
<!-- MySQL Cluster 6.3&#45;&gt;MySQL Cluster 7.0 -->
<g id="edge21" class="edge">
<title>MySQL Cluster 6.3&#45;&gt;MySQL Cluster 7.0</title>
<path fill="none" stroke="#000000" d="M125.4226,-575.8314C127.477,-568.0463 129.9242,-558.7729 132.2037,-550.1347"/>
<polygon fill="#000000" stroke="#000000" points="135.6016,-550.9753 134.7691,-540.4133 128.8333,-549.1892 135.6016,-550.9753"/>
</g>
<!-- MySQL Cluster 7.0&#45;&gt;MySQL Cluster 7.1 -->
<g id="edge23" class="edge">
<title>MySQL Cluster 7.0&#45;&gt;MySQL Cluster 7.1</title>
<path fill="none" stroke="#000000" d="M139.6281,-503.8314C139.6281,-496.131 139.6281,-486.9743 139.6281,-478.4166"/>
<polygon fill="#000000" stroke="#000000" points="143.1282,-478.4132 139.6281,-468.4133 136.1282,-478.4133 143.1282,-478.4132"/>
</g>
<!-- MySQL Cluster 7.1&#45;&gt;MySQL Cluster 7.2 -->
<g id="edge25" class="edge">
<title>MySQL Cluster 7.1&#45;&gt;MySQL Cluster 7.2</title>
<path fill="none" stroke="#000000" d="M142.9086,-431.8314C144.2989,-424.131 145.9522,-414.9743 147.4974,-406.4166"/>
<polygon fill="#000000" stroke="#000000" points="150.9709,-406.8761 149.3035,-396.4133 144.0823,-405.6322 150.9709,-406.8761"/>
</g>
<!-- MySQL Cluster 7.2&#45;&gt;MySQL Cluster 7.3 -->
<g id="edge27" class="edge">
<title>MySQL Cluster 7.2&#45;&gt;MySQL Cluster 7.3</title>
<path fill="none" stroke="#000000" d="M152.6281,-359.8314C152.6281,-352.131 152.6281,-342.9743 152.6281,-334.4166"/>
<polygon fill="#000000" stroke="#000000" points="156.1282,-334.4132 152.6281,-324.4133 149.1282,-334.4133 156.1282,-334.4132"/>
</g>
<!-- MySQL Cluster 7.4 -->
<g id="node23" class="node">
<title>MySQL Cluster 7.4</title>
<ellipse fill="none" stroke="#cd0000" cx="130.6281" cy="-234" rx="79.5937" ry="18"/>
<text text-anchor="middle" x="130.6281" y="-229.8" font-family="Times,serif" font-size="14.00" fill="#000000">MySQL Cluster 7.4</text>
</g>
<!-- MySQL Cluster 7.3&#45;&gt;MySQL Cluster 7.4 -->
<g id="edge28" class="edge">
<title>MySQL Cluster 7.3&#45;&gt;MySQL Cluster 7.4</title>
<path fill="none" stroke="#000000" d="M147.0766,-287.8314C144.6979,-280.0463 141.8643,-270.7729 139.2249,-262.1347"/>
<polygon fill="#000000" stroke="#000000" points="142.5239,-260.954 136.2544,-252.4133 135.8294,-262.9996 142.5239,-260.954"/>
</g>
<!-- MySQL Cluster 7.4&#45;&gt;MySQL Cluster 7.5 -->
<g id="edge30" class="edge">
<title>MySQL Cluster 7.4&#45;&gt;MySQL Cluster 7.5</title>
<path fill="none" stroke="#000000" d="M143.9765,-216.2022C150.3371,-207.7214 158.0695,-197.4115 165.076,-188.0696"/>
<polygon fill="#000000" stroke="#000000" points="168.0462,-189.9426 171.2462,-179.8425 162.4462,-185.7426 168.0462,-189.9426"/>
</g>
<!-- MariaDB 5.1&#45;&gt;MariaDB 5.2 -->
<g id="edge34" class="edge">
<title>MariaDB 5.1&#45;&gt;MariaDB 5.2</title>
<path fill="none" stroke="#000000" d="M641.6281,-575.8314C641.6281,-568.131 641.6281,-558.9743 641.6281,-550.4166"/>
<polygon fill="#000000" stroke="#000000" points="645.1282,-550.4132 641.6281,-540.4133 638.1282,-550.4133 645.1282,-550.4132"/>
</g>
<!-- MariaDB 5.2&#45;&gt;MariaDB 5.3 -->
<g id="edge37" class="edge">
<title>MariaDB 5.2&#45;&gt;MariaDB 5.3</title>
<path fill="none" stroke="#000000" d="M641.6281,-503.8314C641.6281,-496.131 641.6281,-486.9743 641.6281,-478.4166"/>
<polygon fill="#000000" stroke="#000000" points="645.1282,-478.4132 641.6281,-468.4133 638.1282,-478.4133 645.1282,-478.4132"/>
</g>
<!-- MariaDB 5.3&#45;&gt;MariaDB 5.5 -->
<g id="edge40" class="edge">
<title>MariaDB 5.3&#45;&gt;MariaDB 5.5</title>
<path fill="none" stroke="#000000" d="M656.2031,-432.5515C663.9429,-422.4515 672.9941,-409.1644 678.6281,-396 687.0845,-376.2409 691.9007,-352.3827 694.5671,-334.1965"/>
<polygon fill="#000000" stroke="#000000" points="698.0451,-334.5934 695.8998,-324.218 691.1067,-333.6666 698.0451,-334.5934"/>
</g>
<!-- MariaDB 5.3&#45;&gt;Percona Server 5.5 -->
<g id="edge54" class="edge">
<title>MariaDB 5.3&#45;&gt;Percona Server 5.5</title>
<path fill="none" stroke="#c0c0c0" d="M629.5158,-432.2022C623.803,-423.8079 616.8707,-413.6218 610.5648,-404.3558"/>
<polygon fill="#c0c0c0" stroke="#c0c0c0" points="613.2908,-402.1405 604.771,-395.8425 607.5038,-406.0789 613.2908,-402.1405"/>
</g>
<!-- MariaDB 10.0 -->
<g id="node29" class="node">
<title>MariaDB 10.0</title>
<ellipse fill="none" stroke="#0000ff" cx="697.6281" cy="-234" rx="61.3891" ry="18"/>
<text text-anchor="middle" x="697.6281" y="-229.8" font-family="Times,serif" font-size="14.00" fill="#000000">MariaDB 10.0</text>
</g>
<!-- MariaDB 5.5&#45;&gt;MariaDB 10.0 -->
<g id="edge42" class="edge">
<title>MariaDB 5.5&#45;&gt;MariaDB 10.0</title>
<path fill="none" stroke="#000000" d="M697.6281,-287.8314C697.6281,-280.131 697.6281,-270.9743 697.6281,-262.4166"/>
<polygon fill="#000000" stroke="#000000" points="701.1282,-262.4132 697.6281,-252.4133 694.1282,-262.4133 701.1282,-262.4132"/>
</g>
<!-- MariaDB 10.1 -->
<g id="node30" class="node">
<title>MariaDB 10.1</title>
<ellipse fill="none" stroke="#0000ff" cx="608.6281" cy="-162" rx="61.3891" ry="18"/>
<text text-anchor="middle" x="608.6281" y="-157.8" font-family="Times,serif" font-size="14.00" fill="#000000">MariaDB 10.1</text>
</g>
<!-- MariaDB 10.0&#45;&gt;MariaDB 10.1 -->
<g id="edge43" class="edge">
<title>MariaDB 10.0&#45;&gt;MariaDB 10.1</title>
<path fill="none" stroke="#000000" d="M676.5364,-216.937C664.8983,-207.522 650.2742,-195.6912 637.5805,-185.4221"/>
<polygon fill="#000000" stroke="#000000" points="639.5443,-182.5089 629.5685,-178.9405 635.1417,-187.9511 639.5443,-182.5089"/>
</g>
<!-- MariaDB 10.1&#45;&gt;MariaDB 10.2 -->
<g id="edge45" class="edge">
<title>MariaDB 10.1&#45;&gt;MariaDB 10.2</title>
<path fill="none" stroke="#000000" d="M584.2751,-145.3008C569.9626,-135.4865 551.6875,-122.955 536.1541,-112.3035"/>
<polygon fill="#000000" stroke="#000000" points="538.0758,-109.3774 527.8491,-106.6087 534.117,-115.1505 538.0758,-109.3774"/>
</g>
<!-- MariaDB 10.3 -->
<g id="node32" class="node">
<title>MariaDB 10.3</title>
<ellipse fill="none" stroke="#0000ff" stroke-dasharray="5,2" cx="503.6281" cy="-18" rx="61.3891" ry="18"/>
<text text-anchor="middle" x="503.6281" y="-13.8" font-family="Times,serif" font-size="14.00" fill="#000000">MariaDB 10.3</text>
</g>
<!-- MariaDB 10.2&#45;&gt;MariaDB 10.3 -->
<g id="edge47" class="edge">
<title>MariaDB 10.2&#45;&gt;MariaDB 10.3</title>
<path fill="none" stroke="#000000" stroke-dasharray="5,2" d="M503.6281,-71.8314C503.6281,-64.131 503.6281,-54.9743 503.6281,-46.4166"/>
<polygon fill="#000000" stroke="#000000" points="507.1282,-46.4132 503.6281,-36.4133 500.1282,-46.4133 507.1282,-46.4132"/>
</g>
<!-- Percona Server 5.1&#45;&gt;MariaDB 5.1 -->
<g id="edge32" class="edge">
<title>Percona Server 5.1&#45;&gt;MariaDB 5.1</title>
<path fill="none" stroke="#c0c0c0" d="M700.3472,-648.2022C690.4731,-639.0876 678.3103,-627.8605 667.6202,-617.9926"/>
<polygon fill="#c0c0c0" stroke="#c0c0c0" points="669.8722,-615.3082 660.1501,-611.0972 665.1242,-620.4519 669.8722,-615.3082"/>
</g>
<!-- Percona Server 5.1&#45;&gt;MariaDB 5.2 -->
<g id="edge35" class="edge">
<title>Percona Server 5.1&#45;&gt;MariaDB 5.2</title>
<path fill="none" stroke="#c0c0c0" d="M720.9833,-647.8812C721.5872,-628.7906 720.1447,-598.4393 707.6281,-576 700.4899,-563.2029 689.0057,-552.2292 677.603,-543.582"/>
<polygon fill="#c0c0c0" stroke="#c0c0c0" points="679.5487,-540.6706 669.3778,-537.7038 675.4786,-546.3658 679.5487,-540.6706"/>
</g>
<!-- Percona Server 5.1&#45;&gt;MariaDB 5.3 -->
<g id="edge38" class="edge">
<title>Percona Server 5.1&#45;&gt;MariaDB 5.3</title>
<path fill="none" stroke="#c0c0c0" d="M723.4717,-647.9841C729.2224,-616.1199 736.5368,-548.9492 707.6281,-504 699.6373,-491.5753 687.8489,-480.6324 676.4372,-471.9038"/>
<polygon fill="#c0c0c0" stroke="#c0c0c0" points="678.3994,-469.0031 668.254,-465.9498 674.281,-474.6634 678.3994,-469.0031"/>
</g>
<!-- Percona Server 5.1&#45;&gt;Percona Server 5.5 -->
<g id="edge53" class="edge">
<title>Percona Server 5.1&#45;&gt;Percona Server 5.5</title>
<path fill="none" stroke="#000000" d="M728.989,-648.0509C733.8084,-637.7943 739.1762,-624.5173 741.6281,-612 757.2788,-532.1038 760.5606,-493.8587 707.6281,-432 693.4558,-415.4377 673.0871,-403.6152 653.4183,-395.3414"/>
<polygon fill="#000000" stroke="#000000" points="654.4357,-391.9801 643.8492,-391.5596 651.8628,-398.4902 654.4357,-391.9801"/>
</g>
<!-- Percona Server 5.5&#45;&gt;MariaDB 5.5 -->
<g id="edge41" class="edge">
<title>Percona Server 5.5&#45;&gt;MariaDB 5.5</title>
<path fill="none" stroke="#c0c0c0" d="M617.5117,-360.937C631.7063,-351.2036 649.6661,-338.8883 664.9821,-328.3859"/>
<polygon fill="#c0c0c0" stroke="#c0c0c0" points="667.378,-330.9868 673.646,-322.4449 663.4193,-325.2137 667.378,-330.9868"/>
</g>
<!-- Percona Server 5.5&#45;&gt;Percona Server 5.6 -->
<g id="edge56" class="edge">
<title>Percona Server 5.5&#45;&gt;Percona Server 5.6</title>
<path fill="none" stroke="#000000" d="M581.0102,-360.2022C575.5305,-351.8079 568.8812,-341.6218 562.8327,-332.3558"/>
<polygon fill="#000000" stroke="#000000" points="565.6725,-330.3032 557.2754,-323.8425 559.8108,-334.1295 565.6725,-330.3032"/>
</g>
<!-- Percona Server 5.6&#45;&gt;MariaDB 10.0 -->
<g id="edge44" class="edge">
<title>Percona Server 5.6&#45;&gt;MariaDB 10.0</title>
<path fill="none" stroke="#c0c0c0" d="M579.7399,-289.8418C602.3031,-279.1539 632.0298,-265.0729 655.987,-253.7248"/>
<polygon fill="#c0c0c0" stroke="#c0c0c0" points="657.6531,-256.8084 665.1922,-249.3644 654.6565,-250.4822 657.6531,-256.8084"/>
</g>
<!-- Percona Server 5.6&#45;&gt;MariaDB 10.1 -->
<g id="edge46" class="edge">
<title>Percona Server 5.6&#45;&gt;MariaDB 10.1</title>
<path fill="none" stroke="#c0c0c0" d="M563.9441,-288.0442C572.9744,-278.1991 583.2656,-265.3111 589.6281,-252 598.9545,-232.4883 603.7305,-208.4348 606.1606,-190.1046"/>
<polygon fill="#c0c0c0" stroke="#c0c0c0" points="609.651,-190.39 607.3369,-180.051 602.6984,-189.5765 609.651,-190.39"/>
</g>
<!-- Percona Server 5.6&#45;&gt;Percona Server 5.7 -->
<g id="edge58" class="edge">
<title>Percona Server 5.6&#45;&gt;Percona Server 5.7</title>
<path fill="none" stroke="#000000" d="M535.0298,-287.8314C530.2182,-279.5829 524.4319,-269.6635 519.1443,-260.5992"/>
<polygon fill="#000000" stroke="#000000" points="522.1396,-258.7876 514.0776,-251.9134 516.0932,-262.3148 522.1396,-258.7876"/>
</g>
<!-- Percona Server 5.0&#45;&gt;Percona Server 5.1 -->
<g id="edge51" class="edge">
<title>Percona Server 5.0&#45;&gt;Percona Server 5.1</title>
<path fill="none" stroke="#000000" d="M671.4484,-720.2022C679.1408,-711.5483 688.5259,-700.99 696.9625,-691.4988"/>
<polygon fill="#000000" stroke="#000000" points="699.7404,-693.6419 703.7681,-683.8425 694.5085,-688.9914 699.7404,-693.6419"/>
</g>
<!-- Drizzle 7.1 -->
<g id="node39" class="node">
<title>Drizzle 7.1</title>
<ellipse fill="none" stroke="#00008b" cx="305.6281" cy="-522" rx="49.286" ry="18"/>
<text text-anchor="middle" x="305.6281" y="-517.8" font-family="Times,serif" font-size="14.00" fill="#000000">Drizzle 7.1</text>
</g>
<!-- Drizzle 7.0&#45;&gt;Drizzle 7.1 -->
<g id="edge60" class="edge">
<title>Drizzle 7.0&#45;&gt;Drizzle 7.1</title>
<path fill="none" stroke="#000000" d="M305.6281,-575.8314C305.6281,-568.131 305.6281,-558.9743 305.6281,-550.4166"/>
<polygon fill="#000000" stroke="#000000" points="309.1282,-550.4132 305.6281,-540.4133 302.1282,-550.4133 309.1282,-550.4132"/>
</g>
<!-- Drizzle 7.2 -->
<g id="node40" class="node">
<title>Drizzle 7.2</title>
<ellipse fill="none" stroke="#00008b" stroke-dasharray="5,2" cx="305.6281" cy="-450" rx="49.286" ry="18"/>
<text text-anchor="middle" x="305.6281" y="-445.8" font-family="Times,serif" font-size="14.00" fill="#000000">Drizzle 7.2</text>
</g>
<!-- Drizzle 7.1&#45;&gt;Drizzle 7.2 -->
<g id="edge61" class="edge">
<title>Drizzle 7.1&#45;&gt;Drizzle 7.2</title>
<path fill="none" stroke="#000000" stroke-dasharray="5,2" d="M305.6281,-503.8314C305.6281,-496.131 305.6281,-486.9743 305.6281,-478.4166"/>
<polygon fill="#000000" stroke="#000000" points="309.1282,-478.4132 305.6281,-468.4133 302.1282,-478.4133 309.1282,-478.4132"/>
</g>
</g>
</svg>
