<?xml version="1.0" encoding="UTF-8" standalone="no"?>
<!DOCTYPE svg PUBLIC "-//W3C//DTD SVG 1.1//EN"
 "http://www.w3.org/Graphics/SVG/1.1/DTD/svg11.dtd">
<!-- Generated by graphviz version 2.43.0 (0)
 -->
<!-- Title: mysql_only_history_graph Pages: 1 -->
<svg width="669pt" height="1718pt"
 viewBox="0.00 0.00 669.44 1718.00" xmlns="http://www.w3.org/2000/svg" xmlns:xlink="http://www.w3.org/1999/xlink">
<g id="graph0" class="graph" transform="scale(1 1) rotate(0) translate(4 1714)">
<title>mysql_only_history_graph</title>
<polygon fill="white" stroke="transparent" points="-4,4 -4,-1714 665.44,-1714 665.44,4 -4,4"/>
<!-- MySQL 3.19 -->
<g id="node1" class="node">
<title>MySQL 3.19</title>
<ellipse fill="none" stroke="red" cx="498.39" cy="-1584" rx="68.49" ry="18"/>
<text text-anchor="middle" x="498.39" y="-1580.3" font-family="Times,serif" font-size="14.00">MySQL 3.19</text>
</g>
<!-- MySQL 3.20 -->
<g id="node2" class="node">
<title>MySQL 3.20</title>
<ellipse fill="none" stroke="red" cx="498.39" cy="-1530" rx="68.49" ry="18"/>
<text text-anchor="middle" x="498.39" y="-1526.3" font-family="Times,serif" font-size="14.00">MySQL 3.20</text>
</g>
<!-- MySQL 3.19&#45;&gt;MySQL 3.20 -->
<g id="edge1" class="edge">
<title>MySQL 3.19&#45;&gt;MySQL 3.20</title>
<path fill="none" stroke="black" d="M498.39,-1565.97C498.39,-1563.57 498.39,-1561.06 498.39,-1558.52"/>
<polygon fill="black" stroke="black" points="501.89,-1558.24 498.39,-1548.24 494.89,-1558.24 501.89,-1558.24"/>
</g>
<!-- MySQL 3.21 -->
<g id="node3" class="node">
<title>MySQL 3.21</title>
<ellipse fill="none" stroke="red" cx="498.39" cy="-1476" rx="68.49" ry="18"/>
<text text-anchor="middle" x="498.39" y="-1472.3" font-family="Times,serif" font-size="14.00">MySQL 3.21</text>
</g>
<!-- MySQL 3.20&#45;&gt;MySQL 3.21 -->
<g id="edge2" class="edge">
<title>MySQL 3.20&#45;&gt;MySQL 3.21</title>
<path fill="none" stroke="black" d="M498.39,-1511.97C498.39,-1509.57 498.39,-1507.06 498.39,-1504.52"/>
<polygon fill="black" stroke="black" points="501.89,-1504.24 498.39,-1494.24 494.89,-1504.24 501.89,-1504.24"/>
</g>
<!-- MySQL 3.22 -->
<g id="node4" class="node">
<title>MySQL 3.22</title>
<ellipse fill="none" stroke="red" cx="498.39" cy="-1422" rx="68.49" ry="18"/>
<text text-anchor="middle" x="498.39" y="-1418.3" font-family="Times,serif" font-size="14.00">MySQL 3.22</text>
</g>
<!-- MySQL 3.21&#45;&gt;MySQL 3.22 -->
<g id="edge3" class="edge">
<title>MySQL 3.21&#45;&gt;MySQL 3.22</title>
<path fill="none" stroke="black" d="M498.39,-1457.97C498.39,-1455.57 498.39,-1453.06 498.39,-1450.52"/>
<polygon fill="black" stroke="black" points="501.89,-1450.24 498.39,-1440.24 494.89,-1450.24 501.89,-1450.24"/>
</g>
<!-- MySQL 3.23 -->
<g id="node5" class="node">
<title>MySQL 3.23</title>
<ellipse fill="none" stroke="red" cx="498.39" cy="-1368" rx="68.49" ry="18"/>
<text text-anchor="middle" x="498.39" y="-1364.3" font-family="Times,serif" font-size="14.00">MySQL 3.23</text>
</g>
<!-- MySQL 3.22&#45;&gt;MySQL 3.23 -->
<g id="edge4" class="edge">
<title>MySQL 3.22&#45;&gt;MySQL 3.23</title>
<path fill="none" stroke="black" d="M498.39,-1403.97C498.39,-1401.57 498.39,-1399.06 498.39,-1396.52"/>
<polygon fill="black" stroke="black" points="501.89,-1396.24 498.39,-1386.24 494.89,-1396.24 501.89,-1396.24"/>
</g>
<!-- MySQL 4.0 -->
<g id="node6" class="node">
<title>MySQL 4.0</title>
<ellipse fill="none" stroke="red" cx="498.39" cy="-1314" rx="62.29" ry="18"/>
<text text-anchor="middle" x="498.39" y="-1310.3" font-family="Times,serif" font-size="14.00">MySQL 4.0</text>
</g>
<!-- MySQL 3.23&#45;&gt;MySQL 4.0 -->
<g id="edge5" class="edge">
<title>MySQL 3.23&#45;&gt;MySQL 4.0</title>
<path fill="none" stroke="black" d="M498.39,-1349.97C498.39,-1347.57 498.39,-1345.06 498.39,-1342.52"/>
<polygon fill="black" stroke="black" points="501.89,-1342.24 498.39,-1332.24 494.89,-1342.24 501.89,-1342.24"/>
</g>
<!-- MySQL 4.1 -->
<g id="node7" class="node">
<title>MySQL 4.1</title>
<ellipse fill="none" stroke="red" cx="498.39" cy="-1260" rx="62.29" ry="18"/>
<text text-anchor="middle" x="498.39" y="-1256.3" font-family="Times,serif" font-size="14.00">MySQL 4.1</text>
</g>
<!-- MySQL 4.0&#45;&gt;MySQL 4.1 -->
<g id="edge6" class="edge">
<title>MySQL 4.0&#45;&gt;MySQL 4.1</title>
<path fill="none" stroke="black" d="M498.39,-1295.97C498.39,-1293.57 498.39,-1291.06 498.39,-1288.52"/>
<polygon fill="black" stroke="black" points="501.89,-1288.24 498.39,-1278.24 494.89,-1288.24 501.89,-1288.24"/>
</g>
<!-- MySQL 5.0 -->
<g id="node8" class="node">
<title>MySQL 5.0</title>
<ellipse fill="none" stroke="red" cx="498.39" cy="-1206" rx="62.29" ry="18"/>
<text text-anchor="middle" x="498.39" y="-1202.3" font-family="Times,serif" font-size="14.00">MySQL 5.0</text>
</g>
<!-- MySQL 4.1&#45;&gt;MySQL 5.0 -->
<g id="edge7" class="edge">
<title>MySQL 4.1&#45;&gt;MySQL 5.0</title>
<path fill="none" stroke="black" d="M498.39,-1241.97C498.39,-1239.57 498.39,-1237.06 498.39,-1234.52"/>
<polygon fill="black" stroke="black" points="501.89,-1234.24 498.39,-1224.24 494.89,-1234.24 501.89,-1234.24"/>
</g>
<!-- MySQL 5.1 -->
<g id="node9" class="node">
<title>MySQL 5.1</title>
<ellipse fill="none" stroke="red" cx="498.39" cy="-1152" rx="62.29" ry="18"/>
<text text-anchor="middle" x="498.39" y="-1148.3" font-family="Times,serif" font-size="14.00">MySQL 5.1</text>
</g>
<!-- MySQL 5.0&#45;&gt;MySQL 5.1 -->
<g id="edge8" class="edge">
<title>MySQL 5.0&#45;&gt;MySQL 5.1</title>
<path fill="none" stroke="black" d="M498.39,-1187.97C498.39,-1185.57 498.39,-1183.06 498.39,-1180.52"/>
<polygon fill="black" stroke="black" points="501.89,-1180.24 498.39,-1170.24 494.89,-1180.24 501.89,-1180.24"/>
</g>
<!-- MySQL 6.0 -->
<g id="node24" class="node">
<title>MySQL 6.0</title>
<ellipse fill="none" stroke="red" stroke-dasharray="1,5" cx="62.39" cy="-1098" rx="62.29" ry="18"/>
<text text-anchor="middle" x="62.39" y="-1094.3" font-family="Times,serif" font-size="14.00">MySQL 6.0</text>
</g>
<!-- MySQL 5.1&#45;&gt;MySQL 6.0 -->
<g id="edge28" class="edge">
<title>MySQL 5.1&#45;&gt;MySQL 6.0</title>
<path fill="none" stroke="black" stroke-dasharray="5,2" d="M438.16,-1147.06C367.34,-1141.97 246.38,-1131.84 143.39,-1116 135.71,-1114.82 127.65,-1113.38 119.72,-1111.84"/>
<polygon fill="black" stroke="black" points="120.27,-1108.38 109.78,-1109.84 118.9,-1115.24 120.27,-1108.38"/>
</g>
<!-- MySQL 5.2 -->
<g id="node29" class="node">
<title>MySQL 5.2</title>
<ellipse fill="none" stroke="red" stroke-dasharray="1,5" cx="223.39" cy="-1098" rx="62.29" ry="18"/>
<text text-anchor="middle" x="223.39" y="-1094.3" font-family="Times,serif" font-size="14.00">MySQL 5.2</text>
</g>
<!-- MySQL 5.1&#45;&gt;MySQL 5.2 -->
<g id="edge27" class="edge">
<title>MySQL 5.1&#45;&gt;MySQL 5.2</title>
<path fill="none" stroke="black" stroke-dasharray="5,2" d="M446.03,-1141.97C406.95,-1135.13 352.26,-1125.34 304.39,-1116 297.04,-1114.57 289.32,-1113.01 281.69,-1111.44"/>
<polygon fill="black" stroke="black" points="282.25,-1107.98 271.75,-1109.38 280.83,-1114.84 282.25,-1107.98"/>
</g>
<!-- MySQL Cluster 6.2 -->
<g id="node30" class="node">
<title>MySQL Cluster 6.2</title>
<ellipse fill="none" stroke="#cd0000" cx="421.39" cy="-1098" rx="99.38" ry="18"/>
<text text-anchor="middle" x="421.39" y="-1094.3" font-family="Times,serif" font-size="14.00">MySQL Cluster 6.2</text>
</g>
<!-- MySQL 5.1&#45;&gt;MySQL Cluster 6.2 -->
<g id="edge30" class="edge">
<title>MySQL 5.1&#45;&gt;MySQL Cluster 6.2</title>
<path fill="none" stroke="black" d="M474.87,-1135.12C468.41,-1130.75 461.27,-1125.93 454.37,-1121.27"/>
<polygon fill="black" stroke="black" points="456.08,-1118.2 445.84,-1115.51 452.17,-1124 456.08,-1118.2"/>
</g>
<!-- MySQL Cluster 6.3 -->
<g id="node31" class="node">
<title>MySQL Cluster 6.3</title>
<ellipse fill="none" stroke="#cd0000" cx="495.39" cy="-1044" rx="99.38" ry="18"/>
<text text-anchor="middle" x="495.39" y="-1040.3" font-family="Times,serif" font-size="14.00">MySQL Cluster 6.3</text>
</g>
<!-- MySQL 5.1&#45;&gt;MySQL Cluster 6.3 -->
<g id="edge31" class="edge">
<title>MySQL 5.1&#45;&gt;MySQL Cluster 6.3</title>
<path fill="none" stroke="black" d="M523.13,-1135.12C529.26,-1129.84 535.04,-1123.39 538.39,-1116 545.01,-1101.43 545.26,-1094.45 538.39,-1080 536.44,-1075.88 533.73,-1072.08 530.61,-1068.64"/>
<polygon fill="black" stroke="black" points="532.94,-1066.02 523.29,-1061.65 528.11,-1071.08 532.94,-1066.02"/>
</g>
<!-- MySQL Cluster 7.0 -->
<g id="node32" class="node">
<title>MySQL Cluster 7.0</title>
<ellipse fill="none" stroke="#cd0000" cx="532.39" cy="-990" rx="99.38" ry="18"/>
<text text-anchor="middle" x="532.39" y="-986.3" font-family="Times,serif" font-size="14.00">MySQL Cluster 7.0</text>
</g>
<!-- MySQL 5.1&#45;&gt;MySQL Cluster 7.0 -->
<g id="edge33" class="edge">
<title>MySQL 5.1&#45;&gt;MySQL Cluster 7.0</title>
<path fill="none" stroke="black" d="M534.16,-1137.12C546.04,-1131.56 558.91,-1124.45 569.39,-1116 593.29,-1096.75 602.27,-1090.96 612.39,-1062 617.67,-1046.9 621.15,-1039.39 612.39,-1026 608.29,-1019.72 602.78,-1014.56 596.56,-1010.32"/>
<polygon fill="black" stroke="black" points="598.1,-1007.17 587.71,-1005.09 594.54,-1013.19 598.1,-1007.17"/>
</g>
<!-- MySQL Cluster 7.1 -->
<g id="node33" class="node">
<title>MySQL Cluster 7.1</title>
<ellipse fill="none" stroke="#cd0000" cx="532.39" cy="-936" rx="99.38" ry="18"/>
<text text-anchor="middle" x="532.39" y="-932.3" font-family="Times,serif" font-size="14.00">MySQL Cluster 7.1</text>
</g>
<!-- MySQL 5.1&#45;&gt;MySQL Cluster 7.1 -->
<g id="edge35" class="edge">
<title>MySQL 5.1&#45;&gt;MySQL Cluster 7.1</title>
<path fill="none" stroke="black" d="M554.41,-1143.85C575.39,-1138.87 598.27,-1130.39 615.39,-1116 635.94,-1098.74 634.56,-1087.66 642.39,-1062 654.11,-1023.63 673.36,-1004.18 649.39,-972 642.44,-962.66 633.09,-955.72 622.68,-950.57"/>
<polygon fill="black" stroke="black" points="623.87,-947.27 613.3,-946.5 621.08,-953.69 623.87,-947.27"/>
</g>
<!-- MySQL 5.5 -->
<g id="node10" class="node">
<title>MySQL 5.5</title>
<ellipse fill="none" stroke="red" cx="223.39" cy="-990" rx="62.29" ry="18"/>
<text text-anchor="middle" x="223.39" y="-986.3" font-family="Times,serif" font-size="14.00">MySQL 5.5</text>
</g>
<!-- MySQL 5.6 -->
<g id="node11" class="node">
<title>MySQL 5.6</title>
<ellipse fill="none" stroke="red" cx="223.39" cy="-882" rx="62.29" ry="18"/>
<text text-anchor="middle" x="223.39" y="-878.3" font-family="Times,serif" font-size="14.00">MySQL 5.6</text>
</g>
<!-- MySQL 5.5&#45;&gt;MySQL 5.6 -->
<g id="edge11" class="edge">
<title>MySQL 5.5&#45;&gt;MySQL 5.6</title>
<path fill="none" stroke="black" d="M223.39,-971.97C223.39,-955.38 223.39,-929.88 223.39,-910.43"/>
<polygon fill="black" stroke="black" points="226.89,-910.34 223.39,-900.34 219.89,-910.34 226.89,-910.34"/>
</g>
<!-- MySQL Cluster 7.2 -->
<g id="node34" class="node">
<title>MySQL Cluster 7.2</title>
<ellipse fill="none" stroke="#cd0000" cx="421.39" cy="-882" rx="99.38" ry="18"/>
<text text-anchor="middle" x="421.39" y="-878.3" font-family="Times,serif" font-size="14.00">MySQL Cluster 7.2</text>
</g>
<!-- MySQL 5.5&#45;&gt;MySQL Cluster 7.2 -->
<g id="edge37" class="edge">
<title>MySQL 5.5&#45;&gt;MySQL Cluster 7.2</title>
<path fill="none" stroke="black" d="M251.76,-973.81C286.02,-955.48 343.8,-924.54 382.27,-903.94"/>
<polygon fill="black" stroke="black" points="383.97,-907.01 391.13,-899.2 380.66,-900.84 383.97,-907.01"/>
</g>
<!-- MySQL 5.7 -->
<g id="node12" class="node">
<title>MySQL 5.7</title>
<ellipse fill="none" stroke="red" cx="223.39" cy="-774" rx="62.29" ry="18"/>
<text text-anchor="middle" x="223.39" y="-770.3" font-family="Times,serif" font-size="14.00">MySQL 5.7</text>
</g>
<!-- MySQL 5.6&#45;&gt;MySQL 5.7 -->
<g id="edge12" class="edge">
<title>MySQL 5.6&#45;&gt;MySQL 5.7</title>
<path fill="none" stroke="black" d="M223.39,-863.97C223.39,-847.38 223.39,-821.88 223.39,-802.43"/>
<polygon fill="black" stroke="black" points="226.89,-802.34 223.39,-792.34 219.89,-802.34 226.89,-802.34"/>
</g>
<!-- MySQL Cluster 7.3 -->
<g id="node35" class="node">
<title>MySQL Cluster 7.3</title>
<ellipse fill="none" stroke="#cd0000" cx="421.39" cy="-828" rx="99.38" ry="18"/>
<text text-anchor="middle" x="421.39" y="-824.3" font-family="Times,serif" font-size="14.00">MySQL Cluster 7.3</text>
</g>
<!-- MySQL 5.6&#45;&gt;MySQL Cluster 7.3 -->
<g id="edge39" class="edge">
<title>MySQL 5.6&#45;&gt;MySQL Cluster 7.3</title>
<path fill="none" stroke="black" d="M267.83,-869.33C294.26,-862.39 328.23,-853.47 357.5,-845.78"/>
<polygon fill="black" stroke="black" points="358.45,-849.15 367.23,-843.22 356.67,-842.38 358.45,-849.15"/>
</g>
<!-- MySQL 8.0 -->
<g id="node13" class="node">
<title>MySQL 8.0</title>
<ellipse fill="none" stroke="red" cx="300.39" cy="-612" rx="62.29" ry="18"/>
<text text-anchor="middle" x="300.39" y="-608.3" font-family="Times,serif" font-size="14.00">MySQL 8.0</text>
</g>
<!-- MySQL 5.7&#45;&gt;MySQL 8.0 -->
<g id="edge13" class="edge">
<title>MySQL 5.7&#45;&gt;MySQL 8.0</title>
<path fill="none" stroke="black" d="M225.37,-755.98C228.95,-730.7 238.29,-682.49 260.39,-648 263.19,-643.64 266.67,-639.52 270.42,-635.73"/>
<polygon fill="black" stroke="black" points="272.85,-638.25 277.82,-628.89 268.1,-633.1 272.85,-638.25"/>
</g>
<!-- MySQL Cluster 7.5 -->
<g id="node37" class="node">
<title>MySQL Cluster 7.5</title>
<ellipse fill="none" stroke="#cd0000" cx="377.39" cy="-720" rx="99.38" ry="18"/>
<text text-anchor="middle" x="377.39" y="-716.3" font-family="Times,serif" font-size="14.00">MySQL Cluster 7.5</text>
</g>
<!-- MySQL 5.7&#45;&gt;MySQL Cluster 7.5 -->
<g id="edge42" class="edge">
<title>MySQL 5.7&#45;&gt;MySQL Cluster 7.5</title>
<path fill="none" stroke="black" d="M262.26,-759.88C280.63,-753.67 302.89,-746.16 322.92,-739.4"/>
<polygon fill="black" stroke="black" points="324.19,-742.66 332.54,-736.15 321.95,-736.03 324.19,-742.66"/>
</g>
<!-- MySQL 8.1 -->
<g id="node14" class="node">
<title>MySQL 8.1</title>
<ellipse fill="none" stroke="pink" cx="201.39" cy="-558" rx="62.29" ry="18"/>
<text text-anchor="middle" x="201.39" y="-554.3" font-family="Times,serif" font-size="14.00">MySQL 8.1</text>
</g>
<!-- MySQL 8.0&#45;&gt;MySQL 8.1 -->
<g id="edge15" class="edge">
<title>MySQL 8.0&#45;&gt;MySQL 8.1</title>
<path fill="none" stroke="black" d="M271.76,-595.96C261.5,-590.57 249.77,-584.41 238.87,-578.69"/>
<polygon fill="black" stroke="black" points="240.45,-575.56 229.97,-574.01 237.19,-581.76 240.45,-575.56"/>
</g>
<!-- MySQL Cluster 8.0 -->
<g id="node38" class="node">
<title>MySQL Cluster 8.0</title>
<ellipse fill="none" stroke="#cd0000" cx="399.39" cy="-558" rx="99.38" ry="18"/>
<text text-anchor="middle" x="399.39" y="-554.3" font-family="Times,serif" font-size="14.00">MySQL Cluster 8.0</text>
</g>
<!-- MySQL 8.0&#45;&gt;MySQL Cluster 8.0 -->
<g id="edge45" class="edge">
<title>MySQL 8.0&#45;&gt;MySQL Cluster 8.0</title>
<path fill="none" stroke="black" d="M329.03,-595.96C338.47,-591 349.16,-585.39 359.3,-580.06"/>
<polygon fill="black" stroke="black" points="361.18,-583.03 368.4,-575.28 357.92,-576.83 361.18,-583.03"/>
</g>
<!-- MySQL 8.2 -->
<g id="node15" class="node">
<title>MySQL 8.2</title>
<ellipse fill="none" stroke="pink" cx="201.39" cy="-504" rx="62.29" ry="18"/>
<text text-anchor="middle" x="201.39" y="-500.3" font-family="Times,serif" font-size="14.00">MySQL 8.2</text>
</g>
<!-- MySQL 8.1&#45;&gt;MySQL 8.2 -->
<g id="edge16" class="edge">
<title>MySQL 8.1&#45;&gt;MySQL 8.2</title>
<path fill="none" stroke="black" d="M201.39,-539.97C201.39,-537.57 201.39,-535.06 201.39,-532.52"/>
<polygon fill="black" stroke="black" points="204.89,-532.24 201.39,-522.24 197.89,-532.24 204.89,-532.24"/>
</g>
<!-- MySQL Cluster 8.1 -->
<g id="node39" class="node">
<title>MySQL Cluster 8.1</title>
<ellipse fill="none" stroke="pink" cx="399.39" cy="-504" rx="99.38" ry="18"/>
<text text-anchor="middle" x="399.39" y="-500.3" font-family="Times,serif" font-size="14.00">MySQL Cluster 8.1</text>
</g>
<!-- MySQL 8.1&#45;&gt;MySQL Cluster 8.1 -->
<g id="edge47" class="edge">
<title>MySQL 8.1&#45;&gt;MySQL Cluster 8.1</title>
<path fill="none" stroke="black" d="M245.83,-545.33C272.26,-538.39 306.23,-529.47 335.5,-521.78"/>
<polygon fill="black" stroke="black" points="336.45,-525.15 345.23,-519.22 334.67,-518.38 336.45,-525.15"/>
</g>
<!-- MySQL 8.3 -->
<g id="node16" class="node">
<title>MySQL 8.3</title>
<ellipse fill="none" stroke="pink" cx="201.39" cy="-450" rx="62.29" ry="18"/>
<text text-anchor="middle" x="201.39" y="-446.3" font-family="Times,serif" font-size="14.00">MySQL 8.3</text>
</g>
<!-- MySQL 8.2&#45;&gt;MySQL 8.3 -->
<g id="edge17" class="edge">
<title>MySQL 8.2&#45;&gt;MySQL 8.3</title>
<path fill="none" stroke="black" d="M201.39,-485.97C201.39,-483.57 201.39,-481.06 201.39,-478.52"/>
<polygon fill="black" stroke="black" points="204.89,-478.24 201.39,-468.24 197.89,-478.24 204.89,-478.24"/>
</g>
<!-- MySQL Cluster 8.2 -->
<g id="node40" class="node">
<title>MySQL Cluster 8.2</title>
<ellipse fill="none" stroke="pink" cx="399.39" cy="-450" rx="99.38" ry="18"/>
<text text-anchor="middle" x="399.39" y="-446.3" font-family="Times,serif" font-size="14.00">MySQL Cluster 8.2</text>
</g>
<!-- MySQL 8.2&#45;&gt;MySQL Cluster 8.2 -->
<g id="edge49" class="edge">
<title>MySQL 8.2&#45;&gt;MySQL Cluster 8.2</title>
<path fill="none" stroke="black" d="M245.83,-491.33C272.26,-484.39 306.23,-475.47 335.5,-467.78"/>
<polygon fill="black" stroke="black" points="336.45,-471.15 345.23,-465.22 334.67,-464.38 336.45,-471.15"/>
</g>
<!-- MySQL 8.4 -->
<g id="node17" class="node">
<title>MySQL 8.4</title>
<ellipse fill="none" stroke="red" cx="201.39" cy="-396" rx="62.29" ry="18"/>
<text text-anchor="middle" x="201.39" y="-392.3" font-family="Times,serif" font-size="14.00">MySQL 8.4</text>
</g>
<!-- MySQL 8.3&#45;&gt;MySQL 8.4 -->
<g id="edge18" class="edge">
<title>MySQL 8.3&#45;&gt;MySQL 8.4</title>
<path fill="none" stroke="black" d="M201.39,-431.97C201.39,-429.57 201.39,-427.06 201.39,-424.52"/>
<polygon fill="black" stroke="black" points="204.89,-424.24 201.39,-414.24 197.89,-424.24 204.89,-424.24"/>
</g>
<!-- MySQL Cluster 8.3 -->
<g id="node41" class="node">
<title>MySQL Cluster 8.3</title>
<ellipse fill="none" stroke="pink" cx="399.39" cy="-396" rx="99.38" ry="18"/>
<text text-anchor="middle" x="399.39" y="-392.3" font-family="Times,serif" font-size="14.00">MySQL Cluster 8.3</text>
</g>
<!-- MySQL 8.3&#45;&gt;MySQL Cluster 8.3 -->
<g id="edge51" class="edge">
<title>MySQL 8.3&#45;&gt;MySQL Cluster 8.3</title>
<path fill="none" stroke="black" d="M245.83,-437.33C272.26,-430.39 306.23,-421.47 335.5,-413.78"/>
<polygon fill="black" stroke="black" points="336.45,-417.15 345.23,-411.22 334.67,-410.38 336.45,-417.15"/>
</g>
<!-- MySQL 9.0 -->
<g id="node18" class="node">
<title>MySQL 9.0</title>
<ellipse fill="none" stroke="pink" cx="201.39" cy="-342" rx="62.29" ry="18"/>
<text text-anchor="middle" x="201.39" y="-338.3" font-family="Times,serif" font-size="14.00">MySQL 9.0</text>
</g>
<!-- MySQL 8.4&#45;&gt;MySQL 9.0 -->
<g id="edge19" class="edge">
<title>MySQL 8.4&#45;&gt;MySQL 9.0</title>
<path fill="none" stroke="black" d="M201.39,-377.97C201.39,-375.57 201.39,-373.06 201.39,-370.52"/>
<polygon fill="black" stroke="black" points="204.89,-370.24 201.39,-360.24 197.89,-370.24 204.89,-370.24"/>
</g>
<!-- MySQL Cluster 8.4 -->
<g id="node42" class="node">
<title>MySQL Cluster 8.4</title>
<ellipse fill="none" stroke="#cd0000" cx="399.39" cy="-342" rx="99.38" ry="18"/>
<text text-anchor="middle" x="399.39" y="-338.3" font-family="Times,serif" font-size="14.00">MySQL Cluster 8.4</text>
</g>
<!-- MySQL 8.4&#45;&gt;MySQL Cluster 8.4 -->
<g id="edge53" class="edge">
<title>MySQL 8.4&#45;&gt;MySQL Cluster 8.4</title>
<path fill="none" stroke="black" d="M245.83,-383.33C272.26,-376.39 306.23,-367.47 335.5,-359.78"/>
<polygon fill="black" stroke="black" points="336.45,-363.15 345.23,-357.22 334.67,-356.38 336.45,-363.15"/>
</g>
<!-- MySQL 9.1 -->
<g id="node19" class="node">
<title>MySQL 9.1</title>
<ellipse fill="none" stroke="pink" cx="201.39" cy="-288" rx="62.29" ry="18"/>
<text text-anchor="middle" x="201.39" y="-284.3" font-family="Times,serif" font-size="14.00">MySQL 9.1</text>
</g>
<!-- MySQL 9.0&#45;&gt;MySQL 9.1 -->
<g id="edge20" class="edge">
<title>MySQL 9.0&#45;&gt;MySQL 9.1</title>
<path fill="none" stroke="black" d="M201.39,-323.97C201.39,-321.57 201.39,-319.06 201.39,-316.52"/>
<polygon fill="black" stroke="black" points="204.89,-316.24 201.39,-306.24 197.89,-316.24 204.89,-316.24"/>
</g>
<!-- MySQL Cluster 9.0 -->
<g id="node43" class="node">
<title>MySQL Cluster 9.0</title>
<ellipse fill="none" stroke="pink" cx="399.39" cy="-288" rx="99.38" ry="18"/>
<text text-anchor="middle" x="399.39" y="-284.3" font-family="Times,serif" font-size="14.00">MySQL Cluster 9.0</text>
</g>
<!-- MySQL 9.0&#45;&gt;MySQL Cluster 9.0 -->
<g id="edge55" class="edge">
<title>MySQL 9.0&#45;&gt;MySQL Cluster 9.0</title>
<path fill="none" stroke="black" d="M245.83,-329.33C272.26,-322.39 306.23,-313.47 335.5,-305.78"/>
<polygon fill="black" stroke="black" points="336.45,-309.15 345.23,-303.22 334.67,-302.38 336.45,-309.15"/>
</g>
<!-- MySQL 9.2 -->
<g id="node20" class="node">
<title>MySQL 9.2</title>
<ellipse fill="none" stroke="pink" cx="201.39" cy="-234" rx="62.29" ry="18"/>
<text text-anchor="middle" x="201.39" y="-230.3" font-family="Times,serif" font-size="14.00">MySQL 9.2</text>
</g>
<!-- MySQL 9.1&#45;&gt;MySQL 9.2 -->
<g id="edge21" class="edge">
<title>MySQL 9.1&#45;&gt;MySQL 9.2</title>
<path fill="none" stroke="black" d="M201.39,-269.97C201.39,-267.57 201.39,-265.06 201.39,-262.52"/>
<polygon fill="black" stroke="black" points="204.89,-262.24 201.39,-252.24 197.89,-262.24 204.89,-262.24"/>
</g>
<!-- MySQL Cluster 9.1 -->
<g id="node44" class="node">
<title>MySQL Cluster 9.1</title>
<ellipse fill="none" stroke="pink" cx="399.39" cy="-234" rx="99.38" ry="18"/>
<text text-anchor="middle" x="399.39" y="-230.3" font-family="Times,serif" font-size="14.00">MySQL Cluster 9.1</text>
</g>
<!-- MySQL 9.1&#45;&gt;MySQL Cluster 9.1 -->
<g id="edge57" class="edge">
<title>MySQL 9.1&#45;&gt;MySQL Cluster 9.1</title>
<path fill="none" stroke="black" d="M245.83,-275.33C272.26,-268.39 306.23,-259.47 335.5,-251.78"/>
<polygon fill="black" stroke="black" points="336.45,-255.15 345.23,-249.22 334.67,-248.38 336.45,-255.15"/>
</g>
<!-- MySQL 9.3 -->
<g id="node21" class="node">
<title>MySQL 9.3</title>
<ellipse fill="none" stroke="pink" cx="201.39" cy="-180" rx="62.29" ry="18"/>
<text text-anchor="middle" x="201.39" y="-176.3" font-family="Times,serif" font-size="14.00">MySQL 9.3</text>
</g>
<!-- MySQL 9.2&#45;&gt;MySQL 9.3 -->
<g id="edge22" class="edge">
<title>MySQL 9.2&#45;&gt;MySQL 9.3</title>
<path fill="none" stroke="black" d="M201.39,-215.97C201.39,-213.57 201.39,-211.06 201.39,-208.52"/>
<polygon fill="black" stroke="black" points="204.89,-208.24 201.39,-198.24 197.89,-208.24 204.89,-208.24"/>
</g>
<!-- MySQL Cluster 9.2 -->
<g id="node45" class="node">
<title>MySQL Cluster 9.2</title>
<ellipse fill="none" stroke="pink" cx="399.39" cy="-180" rx="99.38" ry="18"/>
<text text-anchor="middle" x="399.39" y="-176.3" font-family="Times,serif" font-size="14.00">MySQL Cluster 9.2</text>
</g>
<!-- MySQL 9.2&#45;&gt;MySQL Cluster 9.2 -->
<g id="edge59" class="edge">
<title>MySQL 9.2&#45;&gt;MySQL Cluster 9.2</title>
<path fill="none" stroke="black" d="M245.83,-221.33C272.26,-214.39 306.23,-205.47 335.5,-197.78"/>
<polygon fill="black" stroke="black" points="336.45,-201.15 345.23,-195.22 334.67,-194.38 336.45,-201.15"/>
</g>
<!-- MySQL 9.4 -->
<g id="node22" class="node">
<title>MySQL 9.4</title>
<ellipse fill="none" stroke="pink" cx="201.39" cy="-126" rx="62.29" ry="18"/>
<text text-anchor="middle" x="201.39" y="-122.3" font-family="Times,serif" font-size="14.00">MySQL 9.4</text>
</g>
<!-- MySQL 9.3&#45;&gt;MySQL 9.4 -->
<g id="edge23" class="edge">
<title>MySQL 9.3&#45;&gt;MySQL 9.4</title>
<path fill="none" stroke="black" d="M201.39,-161.97C201.39,-159.57 201.39,-157.06 201.39,-154.52"/>
<polygon fill="black" stroke="black" points="204.89,-154.24 201.39,-144.24 197.89,-154.24 204.89,-154.24"/>
</g>
<!-- MySQL Cluster 9.3 -->
<g id="node46" class="node">
<title>MySQL Cluster 9.3</title>
<ellipse fill="none" stroke="pink" cx="399.39" cy="-126" rx="99.38" ry="18"/>
<text text-anchor="middle" x="399.39" y="-122.3" font-family="Times,serif" font-size="14.00">MySQL Cluster 9.3</text>
</g>
<!-- MySQL 9.3&#45;&gt;MySQL Cluster 9.3 -->
<g id="edge61" class="edge">
<title>MySQL 9.3&#45;&gt;MySQL Cluster 9.3</title>
<path fill="none" stroke="black" d="M245.83,-167.33C272.26,-160.39 306.23,-151.47 335.5,-143.78"/>
<polygon fill="black" stroke="black" points="336.45,-147.15 345.23,-141.22 334.67,-140.38 336.45,-147.15"/>
</g>
<!-- MySQL 9.5 -->
<g id="node23" class="node">
<title>MySQL 9.5</title>
<ellipse fill="none" stroke="pink" cx="201.39" cy="-72" rx="62.29" ry="18"/>
<text text-anchor="middle" x="201.39" y="-68.3" font-family="Times,serif" font-size="14.00">MySQL 9.5</text>
</g>
<!-- MySQL 9.4&#45;&gt;MySQL 9.5 -->
<g id="edge24" class="edge">
<title>MySQL 9.4&#45;&gt;MySQL 9.5</title>
<path fill="none" stroke="black" d="M201.39,-107.97C201.39,-105.57 201.39,-103.06 201.39,-100.52"/>
<polygon fill="black" stroke="black" points="204.89,-100.24 201.39,-90.24 197.89,-100.24 204.89,-100.24"/>
</g>
<!-- MySQL Cluster 9.4 -->
<g id="node47" class="node">
<title>MySQL Cluster 9.4</title>
<ellipse fill="none" stroke="pink" cx="399.39" cy="-72" rx="99.38" ry="18"/>
<text text-anchor="middle" x="399.39" y="-68.3" font-family="Times,serif" font-size="14.00">MySQL Cluster 9.4</text>
</g>
<!-- MySQL 9.4&#45;&gt;MySQL Cluster 9.4 -->
<g id="edge63" class="edge">
<title>MySQL 9.4&#45;&gt;MySQL Cluster 9.4</title>
<path fill="none" stroke="black" d="M245.83,-113.33C272.26,-106.39 306.23,-97.47 335.5,-89.78"/>
<polygon fill="black" stroke="black" points="336.45,-93.15 345.23,-87.22 334.67,-86.38 336.45,-93.15"/>
</g>
<!-- MySQL Cluster 9.5 -->
<g id="node48" class="node">
<title>MySQL Cluster 9.5</title>
<ellipse fill="none" stroke="pink" cx="300.39" cy="-18" rx="99.38" ry="18"/>
<text text-anchor="middle" x="300.39" y="-14.3" font-family="Times,serif" font-size="14.00">MySQL Cluster 9.5</text>
</g>
<!-- MySQL 9.5&#45;&gt;MySQL Cluster 9.5 -->
<g id="edge65" class="edge">
<title>MySQL 9.5&#45;&gt;MySQL Cluster 9.5</title>
<path fill="none" stroke="black" d="M230.03,-55.96C239.47,-51 250.16,-45.39 260.3,-40.06"/>
<polygon fill="black" stroke="black" points="262.18,-43.03 269.4,-35.28 258.92,-36.83 262.18,-43.03"/>
</g>
<!-- MySQL 6.0&#45;&gt;MySQL 5.5 -->
<g id="edge9" class="edge">
<title>MySQL 6.0&#45;&gt;MySQL 5.5</title>
<path fill="none" stroke="grey" d="M78.25,-1080.42C93.76,-1064.88 118.61,-1041.75 143.39,-1026 153.69,-1019.46 165.42,-1013.57 176.66,-1008.57"/>
<polygon fill="grey" stroke="grey" points="178.14,-1011.75 185.95,-1004.59 175.38,-1005.31 178.14,-1011.75"/>
</g>
<!-- MySQL 5.4 -->
<g id="node25" class="node">
<title>MySQL 5.4</title>
<ellipse fill="none" stroke="red" stroke-dasharray="1,5" cx="223.39" cy="-1044" rx="62.29" ry="18"/>
<text text-anchor="middle" x="223.39" y="-1040.3" font-family="Times,serif" font-size="14.00">MySQL 5.4</text>
</g>
<!-- MySQL 5.4&#45;&gt;MySQL 5.5 -->
<g id="edge10" class="edge">
<title>MySQL 5.4&#45;&gt;MySQL 5.5</title>
<path fill="none" stroke="grey" d="M223.39,-1025.97C223.39,-1023.57 223.39,-1021.06 223.39,-1018.52"/>
<polygon fill="grey" stroke="grey" points="226.89,-1018.24 223.39,-1008.24 219.89,-1018.24 226.89,-1018.24"/>
</g>
<!-- MySQL Cluster 7.6 -->
<g id="node26" class="node">
<title>MySQL Cluster 7.6</title>
<ellipse fill="none" stroke="#cd0000" cx="377.39" cy="-666" rx="99.38" ry="18"/>
<text text-anchor="middle" x="377.39" y="-662.3" font-family="Times,serif" font-size="14.00">MySQL Cluster 7.6</text>
</g>
<!-- MySQL Cluster 7.6&#45;&gt;MySQL 8.0 -->
<g id="edge14" class="edge">
<title>MySQL Cluster 7.6&#45;&gt;MySQL 8.0</title>
<path fill="none" stroke="black" d="M353.03,-648.55C346.46,-644.11 339.26,-639.25 332.34,-634.58"/>
<polygon fill="black" stroke="black" points="334.06,-631.51 323.81,-628.81 330.14,-637.31 334.06,-631.51"/>
</g>
<!-- MySQL 1.0 -->
<g id="node27" class="node">
<title>MySQL 1.0</title>
<ellipse fill="none" stroke="red" stroke-dasharray="1,5" cx="498.39" cy="-1692" rx="62.29" ry="18"/>
<text text-anchor="middle" x="498.39" y="-1688.3" font-family="Times,serif" font-size="14.00">MySQL 1.0</text>
</g>
<!-- MySQL 3.11.1 -->
<g id="node28" class="node">
<title>MySQL 3.11.1</title>
<ellipse fill="none" stroke="red" stroke-dasharray="1,5" cx="498.39" cy="-1638" rx="77.19" ry="18"/>
<text text-anchor="middle" x="498.39" y="-1634.3" font-family="Times,serif" font-size="14.00">MySQL 3.11.1</text>
</g>
<!-- MySQL 1.0&#45;&gt;MySQL 3.11.1 -->
<g id="edge25" class="edge">
<title>MySQL 1.0&#45;&gt;MySQL 3.11.1</title>
<path fill="none" stroke="black" stroke-dasharray="5,2" d="M498.39,-1673.97C498.39,-1671.57 498.39,-1669.06 498.39,-1666.52"/>
<polygon fill="black" stroke="black" points="501.89,-1666.24 498.39,-1656.24 494.89,-1666.24 501.89,-1666.24"/>
</g>
<!-- MySQL 3.11.1&#45;&gt;MySQL 3.19 -->
<g id="edge26" class="edge">
<title>MySQL 3.11.1&#45;&gt;MySQL 3.19</title>
<path fill="none" stroke="black" stroke-dasharray="5,2" d="M498.39,-1619.97C498.39,-1617.57 498.39,-1615.06 498.39,-1612.52"/>
<polygon fill="black" stroke="black" points="501.89,-1612.24 498.39,-1602.24 494.89,-1612.24 501.89,-1612.24"/>
</g>
<!-- MySQL 5.2&#45;&gt;MySQL 5.4 -->
<g id="edge29" class="edge">
<title>MySQL 5.2&#45;&gt;MySQL 5.4</title>
<path fill="none" stroke="black" stroke-dasharray="5,2" d="M223.39,-1079.97C223.39,-1077.57 223.39,-1075.06 223.39,-1072.52"/>
<polygon fill="black" stroke="black" points="226.89,-1072.24 223.39,-1062.24 219.89,-1072.24 226.89,-1072.24"/>
</g>
<!-- MySQL Cluster 6.2&#45;&gt;MySQL Cluster 6.3 -->
<g id="edge32" class="edge">
<title>MySQL Cluster 6.2&#45;&gt;MySQL Cluster 6.3</title>
<path fill="none" stroke="black" d="M445.22,-1080.26C451.08,-1076.14 457.46,-1071.66 463.64,-1067.32"/>
<polygon fill="black" stroke="black" points="465.7,-1070.14 471.87,-1061.53 461.68,-1064.42 465.7,-1070.14"/>
</g>
<!-- MySQL Cluster 6.3&#45;&gt;MySQL Cluster 7.0 -->
<g id="edge34" class="edge">
<title>MySQL Cluster 6.3&#45;&gt;MySQL Cluster 7.0</title>
<path fill="none" stroke="black" d="M507.51,-1025.97C509.77,-1022.8 512.17,-1019.42 514.56,-1016.06"/>
<polygon fill="black" stroke="black" points="517.43,-1018.06 520.38,-1007.89 511.73,-1014.01 517.43,-1018.06"/>
</g>
<!-- MySQL Cluster 7.0&#45;&gt;MySQL Cluster 7.1 -->
<g id="edge36" class="edge">
<title>MySQL Cluster 7.0&#45;&gt;MySQL Cluster 7.1</title>
<path fill="none" stroke="black" d="M532.39,-971.97C532.39,-969.57 532.39,-967.06 532.39,-964.52"/>
<polygon fill="black" stroke="black" points="535.89,-964.24 532.39,-954.24 528.89,-964.24 535.89,-964.24"/>
</g>
<!-- MySQL Cluster 7.1&#45;&gt;MySQL Cluster 7.2 -->
<g id="edge38" class="edge">
<title>MySQL Cluster 7.1&#45;&gt;MySQL Cluster 7.2</title>
<path fill="none" stroke="black" d="M498.19,-918.97C487.63,-914.03 475.87,-908.52 464.79,-903.33"/>
<polygon fill="black" stroke="black" points="466.22,-900.14 455.68,-899.06 463.25,-906.47 466.22,-900.14"/>
</g>
<!-- MySQL Cluster 7.2&#45;&gt;MySQL Cluster 7.3 -->
<g id="edge40" class="edge">
<title>MySQL Cluster 7.2&#45;&gt;MySQL Cluster 7.3</title>
<path fill="none" stroke="black" d="M421.39,-863.97C421.39,-861.57 421.39,-859.06 421.39,-856.52"/>
<polygon fill="black" stroke="black" points="424.89,-856.24 421.39,-846.24 417.89,-856.24 424.89,-856.24"/>
</g>
<!-- MySQL Cluster 7.4 -->
<g id="node36" class="node">
<title>MySQL Cluster 7.4</title>
<ellipse fill="none" stroke="#cd0000" cx="421.39" cy="-774" rx="99.38" ry="18"/>
<text text-anchor="middle" x="421.39" y="-770.3" font-family="Times,serif" font-size="14.00">MySQL Cluster 7.4</text>
</g>
<!-- MySQL Cluster 7.3&#45;&gt;MySQL Cluster 7.4 -->
<g id="edge41" class="edge">
<title>MySQL Cluster 7.3&#45;&gt;MySQL Cluster 7.4</title>
<path fill="none" stroke="black" d="M421.39,-809.97C421.39,-807.57 421.39,-805.06 421.39,-802.52"/>
<polygon fill="black" stroke="black" points="424.89,-802.24 421.39,-792.24 417.89,-802.24 424.89,-802.24"/>
</g>
<!-- MySQL Cluster 7.4&#45;&gt;MySQL Cluster 7.5 -->
<g id="edge43" class="edge">
<title>MySQL Cluster 7.4&#45;&gt;MySQL Cluster 7.5</title>
<path fill="none" stroke="black" d="M406.99,-755.97C404.22,-752.71 401.28,-749.23 398.36,-745.77"/>
<polygon fill="black" stroke="black" points="400.82,-743.26 391.68,-737.89 395.47,-747.78 400.82,-743.26"/>
</g>
<!-- MySQL Cluster 7.5&#45;&gt;MySQL Cluster 7.6 -->
<g id="edge44" class="edge">
<title>MySQL Cluster 7.5&#45;&gt;MySQL Cluster 7.6</title>
<path fill="none" stroke="black" d="M377.39,-701.97C377.39,-699.57 377.39,-697.06 377.39,-694.52"/>
<polygon fill="black" stroke="black" points="380.89,-694.24 377.39,-684.24 373.89,-694.24 380.89,-694.24"/>
</g>
<!-- MySQL Cluster 8.0&#45;&gt;MySQL Cluster 8.1 -->
<g id="edge46" class="edge">
<title>MySQL Cluster 8.0&#45;&gt;MySQL Cluster 8.1</title>
<path fill="none" stroke="black" d="M399.39,-539.97C399.39,-537.57 399.39,-535.06 399.39,-532.52"/>
<polygon fill="black" stroke="black" points="402.89,-532.24 399.39,-522.24 395.89,-532.24 402.89,-532.24"/>
</g>
<!-- MySQL Cluster 8.1&#45;&gt;MySQL Cluster 8.2 -->
<g id="edge48" class="edge">
<title>MySQL Cluster 8.1&#45;&gt;MySQL Cluster 8.2</title>
<path fill="none" stroke="black" d="M399.39,-485.97C399.39,-483.57 399.39,-481.06 399.39,-478.52"/>
<polygon fill="black" stroke="black" points="402.89,-478.24 399.39,-468.24 395.89,-478.24 402.89,-478.24"/>
</g>
<!-- MySQL Cluster 8.2&#45;&gt;MySQL Cluster 8.3 -->
<g id="edge50" class="edge">
<title>MySQL Cluster 8.2&#45;&gt;MySQL Cluster 8.3</title>
<path fill="none" stroke="black" d="M399.39,-431.97C399.39,-429.57 399.39,-427.06 399.39,-424.52"/>
<polygon fill="black" stroke="black" points="402.89,-424.24 399.39,-414.24 395.89,-424.24 402.89,-424.24"/>
</g>
<!-- MySQL Cluster 8.3&#45;&gt;MySQL Cluster 8.4 -->
<g id="edge52" class="edge">
<title>MySQL Cluster 8.3&#45;&gt;MySQL Cluster 8.4</title>
<path fill="none" stroke="black" d="M399.39,-377.97C399.39,-375.57 399.39,-373.06 399.39,-370.52"/>
<polygon fill="black" stroke="black" points="402.89,-370.24 399.39,-360.24 395.89,-370.24 402.89,-370.24"/>
</g>
<!-- MySQL Cluster 8.4&#45;&gt;MySQL Cluster 9.0 -->
<g id="edge54" class="edge">
<title>MySQL Cluster 8.4&#45;&gt;MySQL Cluster 9.0</title>
<path fill="none" stroke="black" d="M399.39,-323.97C399.39,-321.57 399.39,-319.06 399.39,-316.52"/>
<polygon fill="black" stroke="black" points="402.89,-316.24 399.39,-306.24 395.89,-316.24 402.89,-316.24"/>
</g>
<!-- MySQL Cluster 9.0&#45;&gt;MySQL Cluster 9.1 -->
<g id="edge56" class="edge">
<title>MySQL Cluster 9.0&#45;&gt;MySQL Cluster 9.1</title>
<path fill="none" stroke="black" d="M399.39,-269.97C399.39,-267.57 399.39,-265.06 399.39,-262.52"/>
<polygon fill="black" stroke="black" points="402.89,-262.24 399.39,-252.24 395.89,-262.24 402.89,-262.24"/>
</g>
<!-- MySQL Cluster 9.1&#45;&gt;MySQL Cluster 9.2 -->
<g id="edge58" class="edge">
<title>MySQL Cluster 9.1&#45;&gt;MySQL Cluster 9.2</title>
<path fill="none" stroke="black" d="M399.39,-215.97C399.39,-213.57 399.39,-211.06 399.39,-208.52"/>
<polygon fill="black" stroke="black" points="402.89,-208.24 399.39,-198.24 395.89,-208.24 402.89,-208.24"/>
</g>
<!-- MySQL Cluster 9.2&#45;&gt;MySQL Cluster 9.3 -->
<g id="edge60" class="edge">
<title>MySQL Cluster 9.2&#45;&gt;MySQL Cluster 9.3</title>
<path fill="none" stroke="black" d="M399.39,-161.97C399.39,-159.57 399.39,-157.06 399.39,-154.52"/>
<polygon fill="black" stroke="black" points="402.89,-154.24 399.39,-144.24 395.89,-154.24 402.89,-154.24"/>
</g>
<!-- MySQL Cluster 9.3&#45;&gt;MySQL Cluster 9.4 -->
<g id="edge62" class="edge">
<title>MySQL Cluster 9.3&#45;&gt;MySQL Cluster 9.4</title>
<path fill="none" stroke="black" d="M399.39,-107.97C399.39,-105.57 399.39,-103.06 399.39,-100.52"/>
<polygon fill="black" stroke="black" points="402.89,-100.24 399.39,-90.24 395.89,-100.24 402.89,-100.24"/>
</g>
<!-- MySQL Cluster 9.4&#45;&gt;MySQL Cluster 9.5 -->
<g id="edge64" class="edge">
<title>MySQL Cluster 9.4&#45;&gt;MySQL Cluster 9.5</title>
<path fill="none" stroke="black" d="M368.61,-54.83C359.58,-50.09 349.57,-44.83 340.07,-39.84"/>
<polygon fill="black" stroke="black" points="341.64,-36.71 331.16,-35.16 338.38,-42.91 341.64,-36.71"/>
</g>
</g>
</svg>
