<?xml version="1.0" encoding="UTF-8" standalone="no"?>
<!DOCTYPE svg PUBLIC "-//W3C//DTD SVG 1.1//EN"
 "http://www.w3.org/Graphics/SVG/1.1/DTD/svg11.dtd">
<!-- Generated by graphviz version 2.42.4 (0)
 -->
<!-- Title: mysql_history_graph Pages: 1 -->
<svg width="972pt" height="1484pt"
 viewBox="0.00 0.00 971.79 1484.00" xmlns="http://www.w3.org/2000/svg" xmlns:xlink="http://www.w3.org/1999/xlink">
<g id="graph0" class="graph" transform="scale(1 1) rotate(0) translate(4 1480)">
<title>mysql_history_graph</title>
<polygon fill="white" stroke="transparent" points="-4,4 -4,-1480 967.79,-1480 967.79,4 -4,4"/>
<!-- MySQL 3.19 -->
<g id="node1" class="node">
<title>MySQL 3.19</title>
<ellipse fill="none" stroke="red" cx="638.35" cy="-1458" rx="68.49" ry="18"/>
<text text-anchor="middle" x="638.35" y="-1454.3" font-family="Times,serif" font-size="14.00">MySQL 3.19</text>
</g>
<!-- MySQL 3.20 -->
<g id="node2" class="node">
<title>MySQL 3.20</title>
<ellipse fill="none" stroke="red" cx="638.35" cy="-1386" rx="68.49" ry="18"/>
<text text-anchor="middle" x="638.35" y="-1382.3" font-family="Times,serif" font-size="14.00">MySQL 3.20</text>
</g>
<!-- MySQL 3.19&#45;&gt;MySQL 3.20 -->
<g id="edge1" class="edge">
<title>MySQL 3.19&#45;&gt;MySQL 3.20</title>
<path fill="none" stroke="black" d="M638.35,-1439.7C638.35,-1431.98 638.35,-1422.71 638.35,-1414.11"/>
<polygon fill="black" stroke="black" points="641.85,-1414.1 638.35,-1404.1 634.85,-1414.1 641.85,-1414.1"/>
</g>
<!-- MySQL 3.21 -->
<g id="node3" class="node">
<title>MySQL 3.21</title>
<ellipse fill="none" stroke="red" cx="638.35" cy="-1314" rx="68.49" ry="18"/>
<text text-anchor="middle" x="638.35" y="-1310.3" font-family="Times,serif" font-size="14.00">MySQL 3.21</text>
</g>
<!-- MySQL 3.20&#45;&gt;MySQL 3.21 -->
<g id="edge2" class="edge">
<title>MySQL 3.20&#45;&gt;MySQL 3.21</title>
<path fill="none" stroke="black" d="M638.35,-1367.7C638.35,-1359.98 638.35,-1350.71 638.35,-1342.11"/>
<polygon fill="black" stroke="black" points="641.85,-1342.1 638.35,-1332.1 634.85,-1342.1 641.85,-1342.1"/>
</g>
<!-- MySQL 3.22 -->
<g id="node4" class="node">
<title>MySQL 3.22</title>
<ellipse fill="none" stroke="red" cx="638.35" cy="-1242" rx="68.49" ry="18"/>
<text text-anchor="middle" x="638.35" y="-1238.3" font-family="Times,serif" font-size="14.00">MySQL 3.22</text>
</g>
<!-- MySQL 3.21&#45;&gt;MySQL 3.22 -->
<g id="edge3" class="edge">
<title>MySQL 3.21&#45;&gt;MySQL 3.22</title>
<path fill="none" stroke="black" d="M638.35,-1295.7C638.35,-1287.98 638.35,-1278.71 638.35,-1270.11"/>
<polygon fill="black" stroke="black" points="641.85,-1270.1 638.35,-1260.1 634.85,-1270.1 641.85,-1270.1"/>
</g>
<!-- MySQL 3.23 -->
<g id="node5" class="node">
<title>MySQL 3.23</title>
<ellipse fill="none" stroke="red" cx="638.35" cy="-1170" rx="68.49" ry="18"/>
<text text-anchor="middle" x="638.35" y="-1166.3" font-family="Times,serif" font-size="14.00">MySQL 3.23</text>
</g>
<!-- MySQL 3.22&#45;&gt;MySQL 3.23 -->
<g id="edge4" class="edge">
<title>MySQL 3.22&#45;&gt;MySQL 3.23</title>
<path fill="none" stroke="black" d="M638.35,-1223.7C638.35,-1215.98 638.35,-1206.71 638.35,-1198.11"/>
<polygon fill="black" stroke="black" points="641.85,-1198.1 638.35,-1188.1 634.85,-1198.1 641.85,-1198.1"/>
</g>
<!-- MySQL 4.0 -->
<g id="node6" class="node">
<title>MySQL 4.0</title>
<ellipse fill="none" stroke="red" cx="638.35" cy="-1098" rx="62.29" ry="18"/>
<text text-anchor="middle" x="638.35" y="-1094.3" font-family="Times,serif" font-size="14.00">MySQL 4.0</text>
</g>
<!-- MySQL 3.23&#45;&gt;MySQL 4.0 -->
<g id="edge5" class="edge">
<title>MySQL 3.23&#45;&gt;MySQL 4.0</title>
<path fill="none" stroke="black" d="M638.35,-1151.7C638.35,-1143.98 638.35,-1134.71 638.35,-1126.11"/>
<polygon fill="black" stroke="black" points="641.85,-1126.1 638.35,-1116.1 634.85,-1126.1 641.85,-1126.1"/>
</g>
<!-- MySQL 4.1 -->
<g id="node7" class="node">
<title>MySQL 4.1</title>
<ellipse fill="none" stroke="red" cx="638.35" cy="-1026" rx="62.29" ry="18"/>
<text text-anchor="middle" x="638.35" y="-1022.3" font-family="Times,serif" font-size="14.00">MySQL 4.1</text>
</g>
<!-- MySQL 4.0&#45;&gt;MySQL 4.1 -->
<g id="edge6" class="edge">
<title>MySQL 4.0&#45;&gt;MySQL 4.1</title>
<path fill="none" stroke="black" d="M638.35,-1079.7C638.35,-1071.98 638.35,-1062.71 638.35,-1054.11"/>
<polygon fill="black" stroke="black" points="641.85,-1054.1 638.35,-1044.1 634.85,-1054.1 641.85,-1054.1"/>
</g>
<!-- MySQL 5.0 -->
<g id="node8" class="node">
<title>MySQL 5.0</title>
<ellipse fill="none" stroke="red" cx="638.35" cy="-954" rx="62.29" ry="18"/>
<text text-anchor="middle" x="638.35" y="-950.3" font-family="Times,serif" font-size="14.00">MySQL 5.0</text>
</g>
<!-- MySQL 4.1&#45;&gt;MySQL 5.0 -->
<g id="edge7" class="edge">
<title>MySQL 4.1&#45;&gt;MySQL 5.0</title>
<path fill="none" stroke="black" d="M638.35,-1007.7C638.35,-999.98 638.35,-990.71 638.35,-982.11"/>
<polygon fill="black" stroke="black" points="641.85,-982.1 638.35,-972.1 634.85,-982.1 641.85,-982.1"/>
</g>
<!-- MySQL 5.1 -->
<g id="node9" class="node">
<title>MySQL 5.1</title>
<ellipse fill="none" stroke="red" cx="548.35" cy="-882" rx="62.29" ry="18"/>
<text text-anchor="middle" x="548.35" y="-878.3" font-family="Times,serif" font-size="14.00">MySQL 5.1</text>
</g>
<!-- MySQL 5.0&#45;&gt;MySQL 5.1 -->
<g id="edge8" class="edge">
<title>MySQL 5.0&#45;&gt;MySQL 5.1</title>
<path fill="none" stroke="black" d="M617.47,-936.76C605.55,-927.49 590.41,-915.71 577.34,-905.55"/>
<polygon fill="black" stroke="black" points="579.15,-902.52 569.11,-899.15 574.85,-908.05 579.15,-902.52"/>
</g>
<!-- Percona Server 5.0 -->
<g id="node40" class="node">
<title>Percona Server 5.0</title>
<ellipse fill="none" stroke="orange" cx="800.35" cy="-882" rx="99.38" ry="18"/>
<text text-anchor="middle" x="800.35" y="-878.3" font-family="Times,serif" font-size="14.00">Percona Server 5.0</text>
</g>
<!-- MySQL 5.0&#45;&gt;Percona Server 5.0 -->
<g id="edge54" class="edge">
<title>MySQL 5.0&#45;&gt;Percona Server 5.0</title>
<path fill="none" stroke="black" d="M671.52,-938.67C695.43,-928.33 728,-914.26 754.41,-902.85"/>
<polygon fill="black" stroke="black" points="756.04,-905.96 763.83,-898.78 753.26,-899.53 756.04,-905.96"/>
</g>
<!-- MySQL 6.0 -->
<g id="node14" class="node">
<title>MySQL 6.0</title>
<ellipse fill="none" stroke="red" stroke-dasharray="1,5" cx="405.35" cy="-810" rx="62.29" ry="18"/>
<text text-anchor="middle" x="405.35" y="-806.3" font-family="Times,serif" font-size="14.00">MySQL 6.0</text>
</g>
<!-- MySQL 5.1&#45;&gt;MySQL 6.0 -->
<g id="edge16" class="edge">
<title>MySQL 5.1&#45;&gt;MySQL 6.0</title>
<path fill="none" stroke="black" stroke-dasharray="5,2" d="M518.02,-866.15C496.69,-855.71 467.95,-841.64 444.83,-830.33"/>
<polygon fill="black" stroke="black" points="446.15,-827.08 435.63,-825.82 443.07,-833.36 446.15,-827.08"/>
</g>
<!-- MySQL 5.2 -->
<g id="node17" class="node">
<title>MySQL 5.2</title>
<ellipse fill="none" stroke="red" stroke-dasharray="1,5" cx="548.35" cy="-810" rx="62.29" ry="18"/>
<text text-anchor="middle" x="548.35" y="-806.3" font-family="Times,serif" font-size="14.00">MySQL 5.2</text>
</g>
<!-- MySQL 5.1&#45;&gt;MySQL 5.2 -->
<g id="edge15" class="edge">
<title>MySQL 5.1&#45;&gt;MySQL 5.2</title>
<path fill="none" stroke="black" stroke-dasharray="5,2" d="M548.35,-863.7C548.35,-855.98 548.35,-846.71 548.35,-838.11"/>
<polygon fill="black" stroke="black" points="551.85,-838.1 548.35,-828.1 544.85,-838.1 551.85,-838.1"/>
</g>
<!-- MySQL Cluster 6.2 -->
<g id="node19" class="node">
<title>MySQL Cluster 6.2</title>
<ellipse fill="none" stroke="#cd0000" cx="115.35" cy="-810" rx="99.38" ry="18"/>
<text text-anchor="middle" x="115.35" y="-806.3" font-family="Times,serif" font-size="14.00">MySQL Cluster 6.2</text>
</g>
<!-- MySQL 5.1&#45;&gt;MySQL Cluster 6.2 -->
<g id="edge19" class="edge">
<title>MySQL 5.1&#45;&gt;MySQL Cluster 6.2</title>
<path fill="none" stroke="black" d="M495.25,-872.42C420.67,-860.36 284.23,-838.3 196.77,-824.16"/>
<polygon fill="black" stroke="black" points="197.31,-820.7 186.88,-822.56 196.19,-827.62 197.31,-820.7"/>
</g>
<!-- MySQL Cluster 6.3 -->
<g id="node20" class="node">
<title>MySQL Cluster 6.3</title>
<ellipse fill="none" stroke="#cd0000" cx="115.35" cy="-738" rx="99.38" ry="18"/>
<text text-anchor="middle" x="115.35" y="-734.3" font-family="Times,serif" font-size="14.00">MySQL Cluster 6.3</text>
</g>
<!-- MySQL 5.1&#45;&gt;MySQL Cluster 6.3 -->
<g id="edge20" class="edge">
<title>MySQL 5.1&#45;&gt;MySQL Cluster 6.3</title>
<path fill="none" stroke="black" d="M486.31,-879.51C351.02,-875.63 39.02,-862.93 7.35,-828 -3.4,-816.15 -1.12,-805.58 7.35,-792 17.23,-776.15 33.38,-764.9 50.23,-756.98"/>
<polygon fill="black" stroke="black" points="51.84,-760.1 59.62,-752.91 49.05,-753.67 51.84,-760.1"/>
</g>
<!-- MySQL Cluster 7.0 -->
<g id="node21" class="node">
<title>MySQL Cluster 7.0</title>
<ellipse fill="none" stroke="#cd0000" cx="153.35" cy="-666" rx="99.38" ry="18"/>
<text text-anchor="middle" x="153.35" y="-662.3" font-family="Times,serif" font-size="14.00">MySQL Cluster 7.0</text>
</g>
<!-- MySQL 5.1&#45;&gt;MySQL Cluster 7.0 -->
<g id="edge22" class="edge">
<title>MySQL 5.1&#45;&gt;MySQL Cluster 7.0</title>
<path fill="none" stroke="black" d="M488.81,-876.51C416.36,-869.92 299.56,-855.35 266.35,-828 226.46,-795.16 254.65,-761.1 223.35,-720 214.35,-708.19 202.08,-697.7 190.31,-689.23"/>
<polygon fill="black" stroke="black" points="192.11,-686.22 181.89,-683.43 188.14,-691.98 192.11,-686.22"/>
</g>
<!-- MySQL Cluster 7.1 -->
<g id="node22" class="node">
<title>MySQL Cluster 7.1</title>
<ellipse fill="none" stroke="#cd0000" cx="209.35" cy="-594" rx="99.38" ry="18"/>
<text text-anchor="middle" x="209.35" y="-590.3" font-family="Times,serif" font-size="14.00">MySQL Cluster 7.1</text>
</g>
<!-- MySQL 5.1&#45;&gt;MySQL Cluster 7.1 -->
<g id="edge24" class="edge">
<title>MySQL 5.1&#45;&gt;MySQL Cluster 7.1</title>
<path fill="none" stroke="black" d="M486.39,-879.4C439.97,-875.2 377.33,-862.8 334.35,-828 267.25,-773.68 306.99,-721.28 261.35,-648 254.76,-637.42 245.73,-627.27 237.04,-618.74"/>
<polygon fill="black" stroke="black" points="239.24,-616.01 229.57,-611.69 234.44,-621.1 239.24,-616.01"/>
</g>
<!-- MariaDB 5.1 -->
<g id="node27" class="node">
<title>MariaDB 5.1</title>
<ellipse fill="none" stroke="blue" cx="774.35" cy="-738" rx="69.59" ry="18"/>
<text text-anchor="middle" x="774.35" y="-734.3" font-family="Times,serif" font-size="14.00">MariaDB 5.1</text>
</g>
<!-- MySQL 5.1&#45;&gt;MariaDB 5.1 -->
<g id="edge34" class="edge">
<title>MySQL 5.1&#45;&gt;MariaDB 5.1</title>
<path fill="none" stroke="black" d="M594.34,-869.64C623.44,-861.1 660.96,-847.49 690.35,-828 716.53,-810.63 740.49,-783.63 756.06,-763.92"/>
<polygon fill="black" stroke="black" points="758.86,-766.03 762.2,-755.97 753.32,-761.75 758.86,-766.03"/>
</g>
<!-- MariaDB 5.2 -->
<g id="node28" class="node">
<title>MariaDB 5.2</title>
<ellipse fill="none" stroke="blue" cx="774.35" cy="-666" rx="69.59" ry="18"/>
<text text-anchor="middle" x="774.35" y="-662.3" font-family="Times,serif" font-size="14.00">MariaDB 5.2</text>
</g>
<!-- MySQL 5.1&#45;&gt;MariaDB 5.2 -->
<g id="edge36" class="edge">
<title>MySQL 5.1&#45;&gt;MariaDB 5.2</title>
<path fill="none" stroke="black" d="M588.77,-868.27C610.09,-859.79 635.28,-846.72 652.35,-828 687.15,-789.82 662.88,-760.19 695.35,-720 705.82,-707.04 720.31,-696.06 734.02,-687.51"/>
<polygon fill="black" stroke="black" points="736.06,-690.37 742.87,-682.26 732.48,-684.36 736.06,-690.37"/>
</g>
<!-- MariaDB 5.3 -->
<g id="node29" class="node">
<title>MariaDB 5.3</title>
<ellipse fill="none" stroke="blue" cx="774.35" cy="-594" rx="69.59" ry="18"/>
<text text-anchor="middle" x="774.35" y="-590.3" font-family="Times,serif" font-size="14.00">MariaDB 5.3</text>
</g>
<!-- MySQL 5.1&#45;&gt;MariaDB 5.3 -->
<g id="edge39" class="edge">
<title>MySQL 5.1&#45;&gt;MariaDB 5.3</title>
<path fill="none" stroke="black" d="M575.43,-865.68C590.01,-856.33 607.39,-843.26 619.35,-828 672.9,-759.64 640.09,-714.99 695.35,-648 706.04,-635.04 720.7,-624.01 734.5,-615.43"/>
<polygon fill="black" stroke="black" points="736.58,-618.26 743.39,-610.14 733.01,-612.24 736.58,-618.26"/>
</g>
<!-- Percona Server 5.1 -->
<g id="node37" class="node">
<title>Percona Server 5.1</title>
<ellipse fill="none" stroke="orange" cx="864.35" cy="-810" rx="99.38" ry="18"/>
<text text-anchor="middle" x="864.35" y="-806.3" font-family="Times,serif" font-size="14.00">Percona Server 5.1</text>
</g>
<!-- MySQL 5.1&#45;&gt;Percona Server 5.1 -->
<g id="edge55" class="edge">
<title>MySQL 5.1&#45;&gt;Percona Server 5.1</title>
<path fill="none" stroke="black" d="M596.34,-870.37C649,-858.7 734.04,-839.87 794.18,-826.54"/>
<polygon fill="black" stroke="black" points="794.98,-829.95 803.99,-824.37 793.46,-823.12 794.98,-829.95"/>
</g>
<!-- MySQL 5.5 -->
<g id="node10" class="node">
<title>MySQL 5.5</title>
<ellipse fill="none" stroke="red" cx="534.35" cy="-594" rx="62.29" ry="18"/>
<text text-anchor="middle" x="534.35" y="-590.3" font-family="Times,serif" font-size="14.00">MySQL 5.5</text>
</g>
<!-- MySQL 5.6 -->
<g id="node11" class="node">
<title>MySQL 5.6</title>
<ellipse fill="none" stroke="red" cx="489.35" cy="-522" rx="62.29" ry="18"/>
<text text-anchor="middle" x="489.35" y="-518.3" font-family="Times,serif" font-size="14.00">MySQL 5.6</text>
</g>
<!-- MySQL 5.5&#45;&gt;MySQL 5.6 -->
<g id="edge11" class="edge">
<title>MySQL 5.5&#45;&gt;MySQL 5.6</title>
<path fill="none" stroke="black" d="M523.45,-576.05C518.09,-567.71 511.52,-557.49 505.58,-548.25"/>
<polygon fill="black" stroke="black" points="508.49,-546.31 500.14,-539.79 502.6,-550.09 508.49,-546.31"/>
</g>
<!-- MySQL Cluster 7.2 -->
<g id="node23" class="node">
<title>MySQL Cluster 7.2</title>
<ellipse fill="none" stroke="#cd0000" cx="309.35" cy="-522" rx="99.38" ry="18"/>
<text text-anchor="middle" x="309.35" y="-518.3" font-family="Times,serif" font-size="14.00">MySQL Cluster 7.2</text>
</g>
<!-- MySQL 5.5&#45;&gt;MySQL Cluster 7.2 -->
<g id="edge26" class="edge">
<title>MySQL 5.5&#45;&gt;MySQL Cluster 7.2</title>
<path fill="none" stroke="black" d="M493.6,-580.32C458.23,-569.32 406.61,-553.26 367,-540.94"/>
<polygon fill="black" stroke="black" points="367.79,-537.52 357.21,-537.89 365.72,-544.2 367.79,-537.52"/>
</g>
<!-- MariaDB 5.5 -->
<g id="node30" class="node">
<title>MariaDB 5.5</title>
<ellipse fill="none" stroke="blue" cx="803.35" cy="-450" rx="69.59" ry="18"/>
<text text-anchor="middle" x="803.35" y="-446.3" font-family="Times,serif" font-size="14.00">MariaDB 5.5</text>
</g>
<!-- MySQL 5.5&#45;&gt;MariaDB 5.5 -->
<g id="edge42" class="edge">
<title>MySQL 5.5&#45;&gt;MariaDB 5.5</title>
<path fill="none" stroke="black" d="M542.12,-575.8C552.19,-555.52 571.65,-522.27 598.35,-504 610.4,-495.75 686.52,-477.31 742.5,-464.52"/>
<polygon fill="black" stroke="black" points="743.37,-467.91 752.35,-462.28 741.82,-461.08 743.37,-467.91"/>
</g>
<!-- Percona Server 5.5 -->
<g id="node38" class="node">
<title>Percona Server 5.5</title>
<ellipse fill="none" stroke="orange" cx="706.35" cy="-522" rx="99.38" ry="18"/>
<text text-anchor="middle" x="706.35" y="-518.3" font-family="Times,serif" font-size="14.00">Percona Server 5.5</text>
</g>
<!-- MySQL 5.5&#45;&gt;Percona Server 5.5 -->
<g id="edge57" class="edge">
<title>MySQL 5.5&#45;&gt;Percona Server 5.5</title>
<path fill="none" stroke="black" d="M569.15,-578.83C594.82,-568.39 630.04,-554.05 658.38,-542.52"/>
<polygon fill="black" stroke="black" points="659.75,-545.74 667.7,-538.73 657.11,-539.26 659.75,-545.74"/>
</g>
<!-- MySQL 5.7 -->
<g id="node12" class="node">
<title>MySQL 5.7</title>
<ellipse fill="none" stroke="red" cx="489.35" cy="-378" rx="62.29" ry="18"/>
<text text-anchor="middle" x="489.35" y="-374.3" font-family="Times,serif" font-size="14.00">MySQL 5.7</text>
</g>
<!-- MySQL 5.6&#45;&gt;MySQL 5.7 -->
<g id="edge12" class="edge">
<title>MySQL 5.6&#45;&gt;MySQL 5.7</title>
<path fill="none" stroke="black" d="M489.35,-503.87C489.35,-479.67 489.35,-435.21 489.35,-406.39"/>
<polygon fill="black" stroke="black" points="492.85,-406.19 489.35,-396.19 485.85,-406.19 492.85,-406.19"/>
</g>
<!-- MySQL Cluster 7.3 -->
<g id="node24" class="node">
<title>MySQL Cluster 7.3</title>
<ellipse fill="none" stroke="#cd0000" cx="309.35" cy="-450" rx="99.38" ry="18"/>
<text text-anchor="middle" x="309.35" y="-446.3" font-family="Times,serif" font-size="14.00">MySQL Cluster 7.3</text>
</g>
<!-- MySQL 5.6&#45;&gt;MySQL Cluster 7.3 -->
<g id="edge28" class="edge">
<title>MySQL 5.6&#45;&gt;MySQL Cluster 7.3</title>
<path fill="none" stroke="black" d="M453.78,-507.17C426.6,-496.6 388.81,-481.9 358.7,-470.19"/>
<polygon fill="black" stroke="black" points="359.81,-466.87 349.22,-466.51 357.27,-473.39 359.81,-466.87"/>
</g>
<!-- Percona Server 5.6 -->
<g id="node39" class="node">
<title>Percona Server 5.6</title>
<ellipse fill="none" stroke="orange" cx="616.35" cy="-450" rx="99.38" ry="18"/>
<text text-anchor="middle" x="616.35" y="-446.3" font-family="Times,serif" font-size="14.00">Percona Server 5.6</text>
</g>
<!-- MySQL 5.6&#45;&gt;Percona Server 5.6 -->
<g id="edge60" class="edge">
<title>MySQL 5.6&#45;&gt;Percona Server 5.6</title>
<path fill="none" stroke="black" d="M516.9,-505.81C534.66,-496.02 558.02,-483.15 577.63,-472.34"/>
<polygon fill="black" stroke="black" points="579.56,-475.27 586.63,-467.38 576.18,-469.14 579.56,-475.27"/>
</g>
<!-- MySQL 8.0 -->
<g id="node13" class="node">
<title>MySQL 8.0</title>
<ellipse fill="none" stroke="red" cx="455.35" cy="-162" rx="62.29" ry="18"/>
<text text-anchor="middle" x="455.35" y="-158.3" font-family="Times,serif" font-size="14.00">MySQL 8.0</text>
</g>
<!-- MySQL 5.7&#45;&gt;MySQL 8.0 -->
<g id="edge13" class="edge">
<title>MySQL 5.7&#45;&gt;MySQL 8.0</title>
<path fill="none" stroke="black" d="M483.14,-359.91C474.85,-336.11 460.62,-291.46 455.35,-252 452.6,-231.45 452.73,-208 453.48,-190.33"/>
<polygon fill="black" stroke="black" points="456.99,-190.32 454.01,-180.15 450,-189.96 456.99,-190.32"/>
</g>
<!-- Percona Server 5.7 -->
<g id="node18" class="node">
<title>Percona Server 5.7</title>
<ellipse fill="none" stroke="orange" cx="563.35" cy="-234" rx="99.38" ry="18"/>
<text text-anchor="middle" x="563.35" y="-230.3" font-family="Times,serif" font-size="14.00">Percona Server 5.7</text>
</g>
<!-- MySQL 5.7&#45;&gt;Percona Server 5.7 -->
<g id="edge62" class="edge">
<title>MySQL 5.7&#45;&gt;Percona Server 5.7</title>
<path fill="none" stroke="black" d="M498.13,-360.15C510.85,-335.73 534.55,-290.26 549.6,-261.38"/>
<polygon fill="black" stroke="black" points="552.83,-262.75 554.35,-252.27 546.62,-259.52 552.83,-262.75"/>
</g>
<!-- MySQL Cluster 7.5 -->
<g id="node26" class="node">
<title>MySQL Cluster 7.5</title>
<ellipse fill="none" stroke="#cd0000" cx="309.35" cy="-306" rx="99.38" ry="18"/>
<text text-anchor="middle" x="309.35" y="-302.3" font-family="Times,serif" font-size="14.00">MySQL Cluster 7.5</text>
</g>
<!-- MySQL 5.7&#45;&gt;MySQL Cluster 7.5 -->
<g id="edge31" class="edge">
<title>MySQL 5.7&#45;&gt;MySQL Cluster 7.5</title>
<path fill="none" stroke="black" d="M453.78,-363.17C426.6,-352.6 388.81,-337.9 358.7,-326.19"/>
<polygon fill="black" stroke="black" points="359.81,-322.87 349.22,-322.51 357.27,-329.39 359.81,-322.87"/>
</g>
<!-- MariaDB 10.2 -->
<g id="node33" class="node">
<title>MariaDB 10.2</title>
<ellipse fill="none" stroke="blue" cx="756.35" cy="-234" rx="75.29" ry="18"/>
<text text-anchor="middle" x="756.35" y="-230.3" font-family="Times,serif" font-size="14.00">MariaDB 10.2</text>
</g>
<!-- MySQL 5.7&#45;&gt;MariaDB 10.2 -->
<g id="edge51" class="edge">
<title>MySQL 5.7&#45;&gt;MariaDB 10.2</title>
<path fill="none" stroke="grey" d="M517.67,-361.94C565.75,-336.37 663.41,-284.43 717.72,-255.54"/>
<polygon fill="grey" stroke="grey" points="719.51,-258.56 726.69,-250.77 716.22,-252.38 719.51,-258.56"/>
</g>
<!-- Percona Server 8.0 -->
<g id="node41" class="node">
<title>Percona Server 8.0</title>
<ellipse fill="none" stroke="orange" cx="518.35" cy="-90" rx="99.38" ry="18"/>
<text text-anchor="middle" x="518.35" y="-86.3" font-family="Times,serif" font-size="14.00">Percona Server 8.0</text>
</g>
<!-- MySQL 8.0&#45;&gt;Percona Server 8.0 -->
<g id="edge65" class="edge">
<title>MySQL 8.0&#45;&gt;Percona Server 8.0</title>
<path fill="none" stroke="black" d="M470.28,-144.41C478.01,-135.82 487.6,-125.16 496.18,-115.63"/>
<polygon fill="black" stroke="black" points="499,-117.73 503.09,-107.96 493.79,-113.05 499,-117.73"/>
</g>
<!-- MySQL 6.0&#45;&gt;MySQL 5.5 -->
<g id="edge9" class="edge">
<title>MySQL 6.0&#45;&gt;MySQL 5.5</title>
<path fill="none" stroke="grey" d="M416.53,-791.92C423.25,-781.58 431.9,-768.1 439.35,-756 468.45,-708.71 501.09,-652.71 519.54,-620.77"/>
<polygon fill="grey" stroke="grey" points="522.61,-622.46 524.57,-612.05 516.54,-618.96 522.61,-622.46"/>
</g>
<!-- Drizzle 7.0 -->
<g id="node42" class="node">
<title>Drizzle 7.0</title>
<ellipse fill="none" stroke="#00008b" cx="369.35" cy="-738" rx="61.19" ry="18"/>
<text text-anchor="middle" x="369.35" y="-734.3" font-family="Times,serif" font-size="14.00">Drizzle 7.0</text>
</g>
<!-- MySQL 6.0&#45;&gt;Drizzle 7.0 -->
<g id="edge66" class="edge">
<title>MySQL 6.0&#45;&gt;Drizzle 7.0</title>
<path fill="none" stroke="black" d="M396.63,-792.05C392.49,-784.01 387.45,-774.2 382.83,-765.23"/>
<polygon fill="black" stroke="black" points="385.92,-763.57 378.23,-756.28 379.69,-766.77 385.92,-763.57"/>
</g>
<!-- MySQL 5.4 -->
<g id="node15" class="node">
<title>MySQL 5.4</title>
<ellipse fill="none" stroke="red" stroke-dasharray="1,5" cx="548.35" cy="-738" rx="62.29" ry="18"/>
<text text-anchor="middle" x="548.35" y="-734.3" font-family="Times,serif" font-size="14.00">MySQL 5.4</text>
</g>
<!-- MySQL 5.4&#45;&gt;MySQL 5.5 -->
<g id="edge10" class="edge">
<title>MySQL 5.4&#45;&gt;MySQL 5.5</title>
<path fill="none" stroke="grey" d="M546.66,-719.87C544.27,-695.67 539.89,-651.21 537.05,-622.39"/>
<polygon fill="grey" stroke="grey" points="540.51,-621.8 536.04,-612.19 533.54,-622.48 540.51,-621.8"/>
</g>
<!-- MySQL Cluster 7.6 -->
<g id="node16" class="node">
<title>MySQL Cluster 7.6</title>
<ellipse fill="none" stroke="#cd0000" cx="309.35" cy="-234" rx="99.38" ry="18"/>
<text text-anchor="middle" x="309.35" y="-230.3" font-family="Times,serif" font-size="14.00">MySQL Cluster 7.6</text>
</g>
<!-- MySQL Cluster 7.6&#45;&gt;MySQL 8.0 -->
<g id="edge14" class="edge">
<title>MySQL Cluster 7.6&#45;&gt;MySQL 8.0</title>
<path fill="none" stroke="black" d="M342.84,-216.94C364.45,-206.58 392.66,-193.05 415.43,-182.14"/>
<polygon fill="black" stroke="black" points="416.99,-185.27 424.5,-177.79 413.97,-178.96 416.99,-185.27"/>
</g>
<!-- MySQL 5.2&#45;&gt;MySQL 5.4 -->
<g id="edge17" class="edge">
<title>MySQL 5.2&#45;&gt;MySQL 5.4</title>
<path fill="none" stroke="black" stroke-dasharray="5,2" d="M548.35,-791.7C548.35,-783.98 548.35,-774.71 548.35,-766.11"/>
<polygon fill="black" stroke="black" points="551.85,-766.1 548.35,-756.1 544.85,-766.1 551.85,-766.1"/>
</g>
<!-- Percona Server 5.7&#45;&gt;MySQL 8.0 -->
<g id="edge18" class="edge">
<title>Percona Server 5.7&#45;&gt;MySQL 8.0</title>
<path fill="none" stroke="grey" d="M538.03,-216.59C523.19,-206.97 504.29,-194.72 488.3,-184.36"/>
<polygon fill="grey" stroke="grey" points="490.06,-181.33 479.77,-178.83 486.25,-187.2 490.06,-181.33"/>
</g>
<!-- Percona Server 5.7&#45;&gt;Percona Server 8.0 -->
<g id="edge64" class="edge">
<title>Percona Server 5.7&#45;&gt;Percona Server 8.0</title>
<path fill="none" stroke="black" d="M557.92,-215.87C550.22,-191.56 536.04,-146.82 526.91,-118.01"/>
<polygon fill="black" stroke="black" points="530.15,-116.66 523.79,-108.19 523.48,-118.78 530.15,-116.66"/>
</g>
<!-- MySQL Cluster 6.2&#45;&gt;MySQL Cluster 6.3 -->
<g id="edge21" class="edge">
<title>MySQL Cluster 6.2&#45;&gt;MySQL Cluster 6.3</title>
<path fill="none" stroke="black" d="M115.35,-791.7C115.35,-783.98 115.35,-774.71 115.35,-766.11"/>
<polygon fill="black" stroke="black" points="118.85,-766.1 115.35,-756.1 111.85,-766.1 118.85,-766.1"/>
</g>
<!-- MySQL Cluster 6.3&#45;&gt;MySQL Cluster 7.0 -->
<g id="edge23" class="edge">
<title>MySQL Cluster 6.3&#45;&gt;MySQL Cluster 7.0</title>
<path fill="none" stroke="black" d="M124.55,-720.05C128.91,-712.01 134.24,-702.2 139.11,-693.23"/>
<polygon fill="black" stroke="black" points="142.27,-694.73 143.97,-684.28 136.12,-691.39 142.27,-694.73"/>
</g>
<!-- MySQL Cluster 7.0&#45;&gt;MySQL Cluster 7.1 -->
<g id="edge25" class="edge">
<title>MySQL Cluster 7.0&#45;&gt;MySQL Cluster 7.1</title>
<path fill="none" stroke="black" d="M166.9,-648.05C173.61,-639.67 181.85,-629.38 189.27,-620.1"/>
<polygon fill="black" stroke="black" points="192.01,-622.27 195.53,-612.28 186.55,-617.9 192.01,-622.27"/>
</g>
<!-- MySQL Cluster 7.1&#45;&gt;MySQL Cluster 7.2 -->
<g id="edge27" class="edge">
<title>MySQL Cluster 7.1&#45;&gt;MySQL Cluster 7.2</title>
<path fill="none" stroke="black" d="M233.05,-576.41C246.15,-567.24 262.63,-555.7 276.91,-545.71"/>
<polygon fill="black" stroke="black" points="279.29,-548.31 285.47,-539.71 275.27,-542.58 279.29,-548.31"/>
</g>
<!-- MySQL Cluster 7.2&#45;&gt;MySQL Cluster 7.3 -->
<g id="edge29" class="edge">
<title>MySQL Cluster 7.2&#45;&gt;MySQL Cluster 7.3</title>
<path fill="none" stroke="black" d="M309.35,-503.7C309.35,-495.98 309.35,-486.71 309.35,-478.11"/>
<polygon fill="black" stroke="black" points="312.85,-478.1 309.35,-468.1 305.85,-478.1 312.85,-478.1"/>
</g>
<!-- MySQL Cluster 7.4 -->
<g id="node25" class="node">
<title>MySQL Cluster 7.4</title>
<ellipse fill="none" stroke="#cd0000" cx="309.35" cy="-378" rx="99.38" ry="18"/>
<text text-anchor="middle" x="309.35" y="-374.3" font-family="Times,serif" font-size="14.00">MySQL Cluster 7.4</text>
</g>
<!-- MySQL Cluster 7.3&#45;&gt;MySQL Cluster 7.4 -->
<g id="edge30" class="edge">
<title>MySQL Cluster 7.3&#45;&gt;MySQL Cluster 7.4</title>
<path fill="none" stroke="black" d="M309.35,-431.7C309.35,-423.98 309.35,-414.71 309.35,-406.11"/>
<polygon fill="black" stroke="black" points="312.85,-406.1 309.35,-396.1 305.85,-406.1 312.85,-406.1"/>
</g>
<!-- MySQL Cluster 7.4&#45;&gt;MySQL Cluster 7.5 -->
<g id="edge32" class="edge">
<title>MySQL Cluster 7.4&#45;&gt;MySQL Cluster 7.5</title>
<path fill="none" stroke="black" d="M309.35,-359.7C309.35,-351.98 309.35,-342.71 309.35,-334.11"/>
<polygon fill="black" stroke="black" points="312.85,-334.1 309.35,-324.1 305.85,-334.1 312.85,-334.1"/>
</g>
<!-- MySQL Cluster 7.5&#45;&gt;MySQL Cluster 7.6 -->
<g id="edge33" class="edge">
<title>MySQL Cluster 7.5&#45;&gt;MySQL Cluster 7.6</title>
<path fill="none" stroke="black" d="M309.35,-287.7C309.35,-279.98 309.35,-270.71 309.35,-262.11"/>
<polygon fill="black" stroke="black" points="312.85,-262.1 309.35,-252.1 305.85,-262.1 312.85,-262.1"/>
</g>
<!-- MariaDB 5.1&#45;&gt;MariaDB 5.2 -->
<g id="edge37" class="edge">
<title>MariaDB 5.1&#45;&gt;MariaDB 5.2</title>
<path fill="none" stroke="black" d="M774.35,-719.7C774.35,-711.98 774.35,-702.71 774.35,-694.11"/>
<polygon fill="black" stroke="black" points="777.85,-694.1 774.35,-684.1 770.85,-694.1 777.85,-694.1"/>
</g>
<!-- MariaDB 5.2&#45;&gt;MariaDB 5.3 -->
<g id="edge40" class="edge">
<title>MariaDB 5.2&#45;&gt;MariaDB 5.3</title>
<path fill="none" stroke="black" d="M774.35,-647.7C774.35,-639.98 774.35,-630.71 774.35,-622.11"/>
<polygon fill="black" stroke="black" points="777.85,-622.1 774.35,-612.1 770.85,-622.1 777.85,-622.1"/>
</g>
<!-- MariaDB 5.3&#45;&gt;MariaDB 5.5 -->
<g id="edge43" class="edge">
<title>MariaDB 5.3&#45;&gt;MariaDB 5.5</title>
<path fill="none" stroke="black" d="M791.25,-576.53C799.97,-566.83 809.73,-553.77 814.35,-540 821.09,-519.88 817.53,-495.97 812.74,-478"/>
<polygon fill="black" stroke="black" points="816.03,-476.78 809.84,-468.18 809.31,-478.76 816.03,-476.78"/>
</g>
<!-- MariaDB 5.3&#45;&gt;Percona Server 5.5 -->
<g id="edge59" class="edge">
<title>MariaDB 5.3&#45;&gt;Percona Server 5.5</title>
<path fill="none" stroke="grey" d="M758.23,-576.41C749.8,-567.73 739.32,-556.95 729.99,-547.34"/>
<polygon fill="grey" stroke="grey" points="732.3,-544.69 722.82,-539.96 727.28,-549.57 732.3,-544.69"/>
</g>
<!-- MariaDB 10.0 -->
<g id="node31" class="node">
<title>MariaDB 10.0</title>
<ellipse fill="none" stroke="blue" cx="751.35" cy="-378" rx="75.29" ry="18"/>
<text text-anchor="middle" x="751.35" y="-374.3" font-family="Times,serif" font-size="14.00">MariaDB 10.0</text>
</g>
<!-- MariaDB 5.5&#45;&gt;MariaDB 10.0 -->
<g id="edge45" class="edge">
<title>MariaDB 5.5&#45;&gt;MariaDB 10.0</title>
<path fill="none" stroke="black" d="M790.76,-432.05C784.5,-423.63 776.81,-413.28 769.89,-403.97"/>
<polygon fill="black" stroke="black" points="772.59,-401.73 763.82,-395.79 766.97,-405.9 772.59,-401.73"/>
</g>
<!-- MariaDB 10.1 -->
<g id="node32" class="node">
<title>MariaDB 10.1</title>
<ellipse fill="none" stroke="blue" cx="751.35" cy="-306" rx="75.29" ry="18"/>
<text text-anchor="middle" x="751.35" y="-302.3" font-family="Times,serif" font-size="14.00">MariaDB 10.1</text>
</g>
<!-- MariaDB 10.0&#45;&gt;MariaDB 10.1 -->
<g id="edge46" class="edge">
<title>MariaDB 10.0&#45;&gt;MariaDB 10.1</title>
<path fill="none" stroke="black" d="M751.35,-359.7C751.35,-351.98 751.35,-342.71 751.35,-334.11"/>
<polygon fill="black" stroke="black" points="754.85,-334.1 751.35,-324.1 747.85,-334.1 754.85,-334.1"/>
</g>
<!-- MariaDB 10.1&#45;&gt;MariaDB 10.2 -->
<g id="edge48" class="edge">
<title>MariaDB 10.1&#45;&gt;MariaDB 10.2</title>
<path fill="none" stroke="black" d="M752.58,-287.7C753.13,-279.98 753.8,-270.71 754.41,-262.11"/>
<polygon fill="black" stroke="black" points="757.9,-262.33 755.12,-252.1 750.92,-261.83 757.9,-262.33"/>
</g>
<!-- MariaDB 10.3 -->
<g id="node34" class="node">
<title>MariaDB 10.3</title>
<ellipse fill="none" stroke="blue" cx="756.35" cy="-162" rx="75.29" ry="18"/>
<text text-anchor="middle" x="756.35" y="-158.3" font-family="Times,serif" font-size="14.00">MariaDB 10.3</text>
</g>
<!-- MariaDB 10.2&#45;&gt;MariaDB 10.3 -->
<g id="edge50" class="edge">
<title>MariaDB 10.2&#45;&gt;MariaDB 10.3</title>
<path fill="none" stroke="black" d="M756.35,-215.7C756.35,-207.98 756.35,-198.71 756.35,-190.11"/>
<polygon fill="black" stroke="black" points="759.85,-190.1 756.35,-180.1 752.85,-190.1 759.85,-190.1"/>
</g>
<!-- MariaDB 10.4 -->
<g id="node35" class="node">
<title>MariaDB 10.4</title>
<ellipse fill="none" stroke="blue" cx="756.35" cy="-90" rx="75.29" ry="18"/>
<text text-anchor="middle" x="756.35" y="-86.3" font-family="Times,serif" font-size="14.00">MariaDB 10.4</text>
</g>
<!-- MariaDB 10.3&#45;&gt;MariaDB 10.4 -->
<g id="edge52" class="edge">
<title>MariaDB 10.3&#45;&gt;MariaDB 10.4</title>
<path fill="none" stroke="black" d="M756.35,-143.7C756.35,-135.98 756.35,-126.71 756.35,-118.11"/>
<polygon fill="black" stroke="black" points="759.85,-118.1 756.35,-108.1 752.85,-118.1 759.85,-118.1"/>
</g>
<!-- MariaDB 10.5 -->
<g id="node36" class="node">
<title>MariaDB 10.5</title>
<ellipse fill="none" stroke="blue" stroke-dasharray="5,2" cx="756.35" cy="-18" rx="75.29" ry="18"/>
<text text-anchor="middle" x="756.35" y="-14.3" font-family="Times,serif" font-size="14.00">MariaDB 10.5</text>
</g>
<!-- MariaDB 10.4&#45;&gt;MariaDB 10.5 -->
<g id="edge53" class="edge">
<title>MariaDB 10.4&#45;&gt;MariaDB 10.5</title>
<path fill="none" stroke="black" stroke-dasharray="5,2" d="M756.35,-71.7C756.35,-63.98 756.35,-54.71 756.35,-46.11"/>
<polygon fill="black" stroke="black" points="759.85,-46.1 756.35,-36.1 752.85,-46.1 759.85,-46.1"/>
</g>
<!-- Percona Server 5.1&#45;&gt;MariaDB 5.1 -->
<g id="edge35" class="edge">
<title>Percona Server 5.1&#45;&gt;MariaDB 5.1</title>
<path fill="none" stroke="grey" d="M843.02,-792.41C831.16,-783.19 816.25,-771.59 803.35,-761.55"/>
<polygon fill="grey" stroke="grey" points="805.25,-758.61 795.21,-755.23 800.96,-764.13 805.25,-758.61"/>
</g>
<!-- Percona Server 5.1&#45;&gt;MariaDB 5.2 -->
<g id="edge38" class="edge">
<title>Percona Server 5.1&#45;&gt;MariaDB 5.2</title>
<path fill="none" stroke="grey" d="M866.24,-791.9C867.49,-772.9 866.89,-742.01 853.35,-720 844.83,-706.15 831.18,-695.12 817.61,-686.78"/>
<polygon fill="grey" stroke="grey" points="819.17,-683.64 808.75,-681.69 815.68,-689.71 819.17,-683.64"/>
</g>
<!-- Percona Server 5.1&#45;&gt;MariaDB 5.3 -->
<g id="edge41" class="edge">
<title>Percona Server 5.1&#45;&gt;MariaDB 5.3</title>
<path fill="none" stroke="grey" d="M868.53,-791.81C875.19,-760.11 884.47,-691.7 853.35,-648 843.84,-634.65 829.82,-623.68 816.23,-615.26"/>
<polygon fill="grey" stroke="grey" points="817.81,-612.13 807.41,-610.09 814.27,-618.17 817.81,-612.13"/>
</g>
<!-- Percona Server 5.1&#45;&gt;Percona Server 5.5 -->
<g id="edge58" class="edge">
<title>Percona Server 5.1&#45;&gt;Percona Server 5.5</title>
<path fill="none" stroke="black" d="M874.3,-791.98C879.62,-781.89 885.62,-768.64 888.35,-756 905.54,-676.34 909.15,-635.39 853.35,-576 835.96,-557.49 811.63,-545.44 787.77,-537.58"/>
<polygon fill="black" stroke="black" points="788.54,-534.16 777.95,-534.57 786.48,-540.85 788.54,-534.16"/>
</g>
<!-- Percona Server 5.5&#45;&gt;MariaDB 5.5 -->
<g id="edge44" class="edge">
<title>Percona Server 5.5&#45;&gt;MariaDB 5.5</title>
<path fill="none" stroke="grey" d="M729.33,-504.41C742.23,-495.1 758.49,-483.37 772.49,-473.27"/>
<polygon fill="grey" stroke="grey" points="774.8,-475.92 780.86,-467.23 770.7,-470.24 774.8,-475.92"/>
</g>
<!-- Percona Server 5.5&#45;&gt;Percona Server 5.6 -->
<g id="edge61" class="edge">
<title>Percona Server 5.5&#45;&gt;Percona Server 5.6</title>
<path fill="none" stroke="black" d="M685.02,-504.41C673.33,-495.32 658.67,-483.92 645.9,-473.99"/>
<polygon fill="black" stroke="black" points="647.88,-471.09 637.83,-467.71 643.58,-476.61 647.88,-471.09"/>
</g>
<!-- Percona Server 5.6&#45;&gt;Percona Server 5.7 -->
<g id="edge63" class="edge">
<title>Percona Server 5.6&#45;&gt;Percona Server 5.7</title>
<path fill="none" stroke="black" d="M612.1,-431.85C602.91,-394.75 581.13,-306.81 570.06,-262.1"/>
<polygon fill="black" stroke="black" points="573.42,-261.1 567.61,-252.23 566.62,-262.78 573.42,-261.1"/>
</g>
<!-- Percona Server 5.6&#45;&gt;MariaDB 10.0 -->
<g id="edge47" class="edge">
<title>Percona Server 5.6&#45;&gt;MariaDB 10.0</title>
<path fill="none" stroke="grey" d="M647.66,-432.76C666.84,-422.82 691.56,-410 712.05,-399.38"/>
<polygon fill="grey" stroke="grey" points="713.87,-402.38 721.13,-394.67 710.65,-396.16 713.87,-402.38"/>
</g>
<!-- Percona Server 5.6&#45;&gt;MariaDB 10.1 -->
<g id="edge49" class="edge">
<title>Percona Server 5.6&#45;&gt;MariaDB 10.1</title>
<path fill="none" stroke="grey" d="M623.09,-431.99C631.34,-412.8 646.77,-381.47 667.35,-360 679.6,-347.22 695.54,-336.16 710.23,-327.5"/>
<polygon fill="grey" stroke="grey" points="712.21,-330.41 719.18,-322.43 708.75,-324.32 712.21,-330.41"/>
</g>
<!-- Percona Server 5.0&#45;&gt;Percona Server 5.1 -->
<g id="edge56" class="edge">
<title>Percona Server 5.0&#45;&gt;Percona Server 5.1</title>
<path fill="none" stroke="black" d="M815.84,-864.05C823.7,-855.46 833.39,-844.86 842.04,-835.4"/>
<polygon fill="black" stroke="black" points="844.83,-837.53 849,-827.79 839.67,-832.81 844.83,-837.53"/>
</g>
<!-- Drizzle 7.1 -->
<g id="node43" class="node">
<title>Drizzle 7.1</title>
<ellipse fill="none" stroke="#00008b" cx="369.35" cy="-666" rx="61.19" ry="18"/>
<text text-anchor="middle" x="369.35" y="-662.3" font-family="Times,serif" font-size="14.00">Drizzle 7.1</text>
</g>
<!-- Drizzle 7.0&#45;&gt;Drizzle 7.1 -->
<g id="edge67" class="edge">
<title>Drizzle 7.0&#45;&gt;Drizzle 7.1</title>
<path fill="none" stroke="black" d="M369.35,-719.7C369.35,-711.98 369.35,-702.71 369.35,-694.11"/>
<polygon fill="black" stroke="black" points="372.85,-694.1 369.35,-684.1 365.85,-694.1 372.85,-694.1"/>
</g>
<!-- Drizzle 7.2 -->
<g id="node44" class="node">
<title>Drizzle 7.2</title>
<ellipse fill="none" stroke="#00008b" stroke-dasharray="5,2" cx="388.35" cy="-594" rx="61.19" ry="18"/>
<text text-anchor="middle" x="388.35" y="-590.3" font-family="Times,serif" font-size="14.00">Drizzle 7.2</text>
</g>
<!-- Drizzle 7.1&#45;&gt;Drizzle 7.2 -->
<g id="edge68" class="edge">
<title>Drizzle 7.1&#45;&gt;Drizzle 7.2</title>
<path fill="none" stroke="black" stroke-dasharray="5,2" d="M374.04,-647.7C376.16,-639.9 378.71,-630.51 381.06,-621.83"/>
<polygon fill="black" stroke="black" points="384.46,-622.67 383.7,-612.1 377.71,-620.84 384.46,-622.67"/>
</g>
</g>
</svg>
