<?xml version="1.0" encoding="UTF-8" standalone="no"?>
<!DOCTYPE svg PUBLIC "-//W3C//DTD SVG 1.1//EN"
 "http://www.w3.org/Graphics/SVG/1.1/DTD/svg11.dtd">
<!-- Generated by graphviz version 2.26.3 (20100126.1600)
 -->
<!-- Title: mysql_history_graph Pages: 1 -->
<svg width="916pt" height="860pt"
 viewBox="0.00 0.00 916.00 860.00" xmlns="http://www.w3.org/2000/svg" xmlns:xlink="http://www.w3.org/1999/xlink">
<g id="graph1" class="graph" transform="scale(1 1) rotate(0) translate(4 856)">
<title>mysql_history_graph</title>
<polygon fill="white" stroke="white" points="-4,5 -4,-856 913,-856 913,5 -4,5"/>
<!-- MySQL 3.23 -->
<g id="node1" class="node"><title>MySQL 3.23</title>
<ellipse fill="none" stroke="red" cx="622" cy="-833" rx="70.9184" ry="18.3848"/>
<text text-anchor="middle" x="622" y="-829.4" font-family="Times Roman,serif" font-size="14.00">MySQL 3.23</text>
</g>
<!-- MySQL 4.0 -->
<g id="node2" class="node"><title>MySQL 4.0</title>
<ellipse fill="none" stroke="red" cx="622" cy="-759" rx="65.0538" ry="18.3848"/>
<text text-anchor="middle" x="622" y="-755.4" font-family="Times Roman,serif" font-size="14.00">MySQL 4.0</text>
</g>
<!-- MySQL 3.23&#45;&gt;MySQL 4.0 -->
<g id="edge2" class="edge"><title>MySQL 3.23&#45;&gt;MySQL 4.0</title>
<path fill="none" stroke="black" d="M622,-814.327C622,-806.264 622,-796.648 622,-787.711"/>
<polygon fill="black" stroke="black" points="625.5,-787.667 622,-777.667 618.5,-787.667 625.5,-787.667"/>
</g>
<!-- MySQL 4.1 -->
<g id="node3" class="node"><title>MySQL 4.1</title>
<ellipse fill="none" stroke="red" cx="622" cy="-685" rx="65.0538" ry="18.3848"/>
<text text-anchor="middle" x="622" y="-681.4" font-family="Times Roman,serif" font-size="14.00">MySQL 4.1</text>
</g>
<!-- MySQL 4.0&#45;&gt;MySQL 4.1 -->
<g id="edge4" class="edge"><title>MySQL 4.0&#45;&gt;MySQL 4.1</title>
<path fill="none" stroke="black" d="M622,-740.327C622,-732.264 622,-722.648 622,-713.711"/>
<polygon fill="black" stroke="black" points="625.5,-713.667 622,-703.667 618.5,-713.667 625.5,-713.667"/>
</g>
<!-- MySQL 5.0 -->
<g id="node4" class="node"><title>MySQL 5.0</title>
<ellipse fill="none" stroke="red" cx="622" cy="-611" rx="65.0538" ry="18.3848"/>
<text text-anchor="middle" x="622" y="-607.4" font-family="Times Roman,serif" font-size="14.00">MySQL 5.0</text>
</g>
<!-- MySQL 4.1&#45;&gt;MySQL 5.0 -->
<g id="edge6" class="edge"><title>MySQL 4.1&#45;&gt;MySQL 5.0</title>
<path fill="none" stroke="black" d="M622,-666.327C622,-658.264 622,-648.648 622,-639.711"/>
<polygon fill="black" stroke="black" points="625.5,-639.667 622,-629.667 618.5,-639.667 625.5,-639.667"/>
</g>
<!-- MySQL 5.1 -->
<g id="node5" class="node"><title>MySQL 5.1</title>
<ellipse fill="none" stroke="red" cx="485" cy="-537" rx="65.0538" ry="18.3848"/>
<text text-anchor="middle" x="485" y="-533.4" font-family="Times Roman,serif" font-size="14.00">MySQL 5.1</text>
</g>
<!-- MySQL 5.0&#45;&gt;MySQL 5.1 -->
<g id="edge8" class="edge"><title>MySQL 5.0&#45;&gt;MySQL 5.1</title>
<path fill="none" stroke="black" d="M591.595,-594.577C571.73,-583.847 545.597,-569.731 524.178,-558.162"/>
<polygon fill="black" stroke="black" points="525.782,-555.05 515.32,-553.377 522.455,-561.209 525.782,-555.05"/>
</g>
<!-- Percona Server 5.0 -->
<g id="node59" class="node"><title>Percona Server 5.0</title>
<ellipse fill="none" stroke="orange" cx="760" cy="-537" rx="104.151" ry="18.3848"/>
<text text-anchor="middle" x="760" y="-533.4" font-family="Times Roman,serif" font-size="14.00">Percona Server 5.0</text>
</g>
<!-- MySQL 5.0&#45;&gt;Percona Server 5.0 -->
<g id="edge72" class="edge"><title>MySQL 5.0&#45;&gt;Percona Server 5.0</title>
<path fill="none" stroke="black" d="M652.627,-594.577C671.856,-584.266 696.915,-570.828 717.988,-559.528"/>
<polygon fill="black" stroke="black" points="719.891,-562.479 727.05,-554.669 716.583,-556.31 719.891,-562.479"/>
</g>
<!-- MySQL 5.5 -->
<g id="node6" class="node"><title>MySQL 5.5</title>
<ellipse fill="none" stroke="red" cx="534" cy="-241" rx="65.0538" ry="18.3848"/>
<text text-anchor="middle" x="534" y="-237.4" font-family="Times Roman,serif" font-size="14.00">MySQL 5.5</text>
</g>
<!-- MySQL 5.1&#45;&gt;MySQL 5.5 -->
<g id="edge10" class="edge"><title>MySQL 5.1&#45;&gt;MySQL 5.5</title>
<path fill="none" stroke="black" d="M497.637,-518.523C503.997,-508.236 511.156,-494.928 515,-482 537.037,-407.885 537.196,-315.631 535.553,-269.729"/>
<polygon fill="black" stroke="black" points="539.045,-269.463 535.134,-259.616 532.051,-269.753 539.045,-269.463"/>
</g>
<!-- MySQL 5.4 -->
<g id="node14" class="node"><title>MySQL 5.4</title>
<ellipse fill="none" stroke="red" stroke-dasharray="1,5" cx="441" cy="-463" rx="65.0538" ry="18.3848"/>
<text text-anchor="middle" x="441" y="-459.4" font-family="Times Roman,serif" font-size="14.00">MySQL 5.4</text>
</g>
<!-- MySQL 5.1&#45;&gt;MySQL 5.4 -->
<g id="edge18" class="edge"><title>MySQL 5.1&#45;&gt;MySQL 5.4</title>
<path fill="none" stroke="black" stroke-dasharray="5,2" d="M474.124,-518.708C468.994,-510.08 462.769,-499.611 457.106,-490.088"/>
<polygon fill="black" stroke="black" points="460.023,-488.145 451.904,-481.338 454.006,-491.722 460.023,-488.145"/>
</g>
<!-- MySQL 6.0 -->
<g id="node16" class="node"><title>MySQL 6.0</title>
<ellipse fill="none" stroke="red" stroke-dasharray="1,5" cx="403" cy="-315" rx="65.0538" ry="18.3848"/>
<text text-anchor="middle" x="403" y="-311.4" font-family="Times Roman,serif" font-size="14.00">MySQL 6.0</text>
</g>
<!-- MySQL 5.1&#45;&gt;MySQL 6.0 -->
<g id="edge20" class="edge"><title>MySQL 5.1&#45;&gt;MySQL 6.0</title>
<path fill="none" stroke="black" stroke-dasharray="5,2" d="M432.206,-526.093C407.967,-518.162 381.453,-504.683 367,-482 339.275,-438.489 365.852,-377 385.734,-342.057"/>
<polygon fill="black" stroke="black" points="388.799,-343.749 390.86,-333.357 382.768,-340.196 388.799,-343.749"/>
</g>
<!-- MySQL Cluster 6.2 -->
<g id="node22" class="node"><title>MySQL Cluster 6.2</title>
<ellipse fill="none" stroke="#cd0000" cx="103" cy="-463" rx="103.238" ry="18.3848"/>
<text text-anchor="middle" x="103" y="-459.4" font-family="Times Roman,serif" font-size="14.00">MySQL Cluster 6.2</text>
</g>
<!-- MySQL 5.1&#45;&gt;MySQL Cluster 6.2 -->
<g id="edge24" class="edge"><title>MySQL 5.1&#45;&gt;MySQL Cluster 6.2</title>
<path fill="none" stroke="black" d="M431.079,-526.555C366.554,-514.055 257.915,-493.01 183.455,-478.586"/>
<polygon fill="black" stroke="black" points="183.667,-475.062 173.184,-476.596 182.336,-481.934 183.667,-475.062"/>
</g>
<!-- MySQL Cluster 6.3 -->
<g id="node23" class="node"><title>MySQL Cluster 6.3</title>
<ellipse fill="none" stroke="#cd0000" cx="141" cy="-389" rx="103.238" ry="18.3848"/>
<text text-anchor="middle" x="141" y="-385.4" font-family="Times Roman,serif" font-size="14.00">MySQL Cluster 6.3</text>
</g>
<!-- MySQL 5.1&#45;&gt;MySQL Cluster 6.3 -->
<g id="edge26" class="edge"><title>MySQL 5.1&#45;&gt;MySQL Cluster 6.3</title>
<path fill="none" stroke="black" d="M423.871,-530.354C376.489,-523.32 310.313,-509.283 258,-482 235.386,-470.206 234.808,-460.066 215,-444 202.048,-433.495 187.383,-422.432 174.544,-413.004"/>
<polygon fill="black" stroke="black" points="176.548,-410.134 166.406,-407.067 172.422,-415.789 176.548,-410.134"/>
</g>
<!-- MySQL Cluster 7.0 -->
<g id="node24" class="node"><title>MySQL Cluster 7.0</title>
<ellipse fill="none" stroke="#cd0000" cx="179" cy="-315" rx="103.238" ry="18.3848"/>
<text text-anchor="middle" x="179" y="-311.4" font-family="Times Roman,serif" font-size="14.00">MySQL Cluster 7.0</text>
</g>
<!-- MySQL 5.1&#45;&gt;MySQL Cluster 7.0 -->
<g id="edge30" class="edge"><title>MySQL 5.1&#45;&gt;MySQL Cluster 7.0</title>
<path fill="none" stroke="black" d="M430.459,-526.737C381.932,-516.628 315.68,-500.104 296,-482 256.758,-445.901 285.231,-412.476 253,-370 243.802,-357.878 231.231,-347.175 219.061,-338.508"/>
<polygon fill="black" stroke="black" points="220.98,-335.58 210.745,-332.841 217.038,-341.365 220.98,-335.58"/>
</g>
<!-- MySQL Cluster 7.1 -->
<g id="node25" class="node"><title>MySQL Cluster 7.1</title>
<ellipse fill="none" stroke="#cd0000" cx="198" cy="-241" rx="103.238" ry="18.3848"/>
<text text-anchor="middle" x="198" y="-237.4" font-family="Times Roman,serif" font-size="14.00">MySQL Cluster 7.1</text>
</g>
<!-- MySQL 5.1&#45;&gt;MySQL Cluster 7.1 -->
<g id="edge34" class="edge"><title>MySQL 5.1&#45;&gt;MySQL Cluster 7.1</title>
<path fill="none" stroke="black" d="M431.859,-526.233C404.675,-518.221 372.984,-504.625 352,-482 292.839,-418.213 345.488,-363.822 291,-296 280.103,-282.437 264.895,-271.482 249.929,-263.026"/>
<polygon fill="black" stroke="black" points="251.152,-259.711 240.683,-258.083 247.852,-265.884 251.152,-259.711"/>
</g>
<!-- MariaDB 5.1 -->
<g id="node39" class="node"><title>MariaDB 5.1</title>
<ellipse fill="none" stroke="blue" cx="711" cy="-389" rx="72.832" ry="18.3848"/>
<text text-anchor="middle" x="711" y="-385.4" font-family="Times Roman,serif" font-size="14.00">MariaDB 5.1</text>
</g>
<!-- MySQL 5.1&#45;&gt;MariaDB 5.1 -->
<g id="edge46" class="edge"><title>MySQL 5.1&#45;&gt;MariaDB 5.1</title>
<path fill="none" stroke="black" d="M531.957,-524.152C560.158,-515.087 595.897,-501.133 624,-482 650.825,-463.737 675.489,-435.844 691.652,-415.368"/>
<polygon fill="black" stroke="black" points="694.486,-417.424 697.832,-407.371 688.948,-413.143 694.486,-417.424"/>
</g>
<!-- MariaDB 5.2 -->
<g id="node40" class="node"><title>MariaDB 5.2</title>
<ellipse fill="none" stroke="blue" cx="711" cy="-315" rx="72.832" ry="18.3848"/>
<text text-anchor="middle" x="711" y="-311.4" font-family="Times Roman,serif" font-size="14.00">MariaDB 5.2</text>
</g>
<!-- MySQL 5.1&#45;&gt;MariaDB 5.2 -->
<g id="edge50" class="edge"><title>MySQL 5.1&#45;&gt;MariaDB 5.2</title>
<path fill="none" stroke="black" d="M526.107,-522.518C546.453,-513.564 570.016,-500.248 586,-482 621.133,-441.891 595.752,-411.685 629,-370 639.622,-356.683 654.354,-345.417 668.404,-336.616"/>
<polygon fill="black" stroke="black" points="670.238,-339.598 677.021,-331.459 666.643,-333.591 670.238,-339.598"/>
</g>
<!-- MariaDB 5.3 -->
<g id="node41" class="node"><title>MariaDB 5.3</title>
<ellipse fill="none" stroke="blue" cx="711" cy="-241" rx="72.832" ry="18.3848"/>
<text text-anchor="middle" x="711" y="-237.4" font-family="Times Roman,serif" font-size="14.00">MariaDB 5.3</text>
</g>
<!-- MySQL 5.1&#45;&gt;MariaDB 5.3 -->
<g id="edge56" class="edge"><title>MySQL 5.1&#45;&gt;MariaDB 5.3</title>
<path fill="none" stroke="black" d="M503.036,-519.144C512.889,-508.831 524.902,-495.299 534,-482 586.412,-405.388 567.368,-365.412 629,-296 640.499,-283.05 655.693,-271.755 669.875,-262.826"/>
<polygon fill="black" stroke="black" points="671.795,-265.755 678.533,-257.578 668.167,-259.769 671.795,-265.755"/>
</g>
<!-- Percona Server 5.1 -->
<g id="node45" class="node"><title>Percona Server 5.1</title>
<ellipse fill="none" stroke="orange" cx="804" cy="-463" rx="104.151" ry="18.3848"/>
<text text-anchor="middle" x="804" y="-459.4" font-family="Times Roman,serif" font-size="14.00">Percona Server 5.1</text>
</g>
<!-- MySQL 5.1&#45;&gt;Percona Server 5.1 -->
<g id="edge74" class="edge"><title>MySQL 5.1&#45;&gt;Percona Server 5.1</title>
<path fill="none" stroke="black" d="M535.546,-525.274C588.135,-513.075 670.991,-493.855 730.749,-479.992"/>
<polygon fill="black" stroke="black" points="731.555,-483.399 740.505,-477.729 729.973,-476.58 731.555,-483.399"/>
</g>
<!-- MySQL 5.6 -->
<g id="node7" class="node"><title>MySQL 5.6</title>
<ellipse fill="none" stroke="red" cx="534" cy="-167" rx="65.0538" ry="18.3848"/>
<text text-anchor="middle" x="534" y="-163.4" font-family="Times Roman,serif" font-size="14.00">MySQL 5.6</text>
</g>
<!-- MySQL 5.5&#45;&gt;MySQL 5.6 -->
<g id="edge12" class="edge"><title>MySQL 5.5&#45;&gt;MySQL 5.6</title>
<path fill="none" stroke="black" d="M534,-222.327C534,-214.264 534,-204.648 534,-195.711"/>
<polygon fill="black" stroke="black" points="537.5,-195.667 534,-185.667 530.5,-195.667 537.5,-195.667"/>
</g>
<!-- MySQL Cluster 7.2 -->
<g id="node26" class="node"><title>MySQL Cluster 7.2</title>
<ellipse fill="none" stroke="#cd0000" cx="348" cy="-167" rx="103.238" ry="18.3848"/>
<text text-anchor="middle" x="348" y="-163.4" font-family="Times Roman,serif" font-size="14.00">MySQL Cluster 7.2</text>
</g>
<!-- MySQL 5.5&#45;&gt;MySQL Cluster 7.2 -->
<g id="edge38" class="edge"><title>MySQL 5.5&#45;&gt;MySQL Cluster 7.2</title>
<path fill="none" stroke="black" d="M495.911,-225.846C468.291,-214.858 430.603,-199.864 400.184,-187.761"/>
<polygon fill="black" stroke="black" points="401.17,-184.387 390.585,-183.942 398.582,-190.891 401.17,-184.387"/>
</g>
<!-- MariaDB 5.5 -->
<g id="node42" class="node"><title>MariaDB 5.5</title>
<ellipse fill="none" stroke="blue" cx="693" cy="-93" rx="72.832" ry="18.3848"/>
<text text-anchor="middle" x="693" y="-89.4" font-family="Times Roman,serif" font-size="14.00">MariaDB 5.5</text>
</g>
<!-- MySQL 5.5&#45;&gt;MariaDB 5.5 -->
<g id="edge62" class="edge"><title>MySQL 5.5&#45;&gt;MariaDB 5.5</title>
<path fill="none" stroke="black" d="M559.598,-223.802C574.297,-213.486 592.797,-199.736 608,-186 631.149,-165.086 654.887,-138.609 671.373,-119.259"/>
<polygon fill="black" stroke="black" points="674.197,-121.339 677.971,-111.44 668.847,-116.825 674.197,-121.339"/>
</g>
<!-- Percona Server 5.5 -->
<g id="node55" class="node"><title>Percona Server 5.5</title>
<ellipse fill="none" stroke="orange" cx="797" cy="-167" rx="104.151" ry="18.3848"/>
<text text-anchor="middle" x="797" y="-163.4" font-family="Times Roman,serif" font-size="14.00">Percona Server 5.5</text>
</g>
<!-- MySQL 5.5&#45;&gt;Percona Server 5.5 -->
<g id="edge78" class="edge"><title>MySQL 5.5&#45;&gt;Percona Server 5.5</title>
<path fill="none" stroke="black" d="M580.414,-227.941C622.266,-216.165 684.27,-198.719 731.225,-185.507"/>
<polygon fill="black" stroke="black" points="732.325,-188.834 741.003,-182.756 730.429,-182.095 732.325,-188.834"/>
</g>
<!-- MySQL 5.7 -->
<g id="node18" class="node"><title>MySQL 5.7</title>
<ellipse fill="none" stroke="red" stroke-dasharray="1,5" cx="534" cy="-93" rx="65.0538" ry="18.3848"/>
<text text-anchor="middle" x="534" y="-89.4" font-family="Times Roman,serif" font-size="14.00">MySQL 5.7</text>
</g>
<!-- MySQL 5.6&#45;&gt;MySQL 5.7 -->
<g id="edge22" class="edge"><title>MySQL 5.6&#45;&gt;MySQL 5.7</title>
<path fill="none" stroke="black" stroke-dasharray="5,2" d="M534,-148.327C534,-140.264 534,-130.648 534,-121.711"/>
<polygon fill="black" stroke="black" points="537.5,-121.667 534,-111.667 530.5,-121.667 537.5,-121.667"/>
</g>
<!-- MySQL Cluster 7.3 -->
<g id="node27" class="node"><title>MySQL Cluster 7.3</title>
<ellipse fill="none" stroke="#cd0000" cx="348" cy="-93" rx="103.238" ry="18.3848"/>
<text text-anchor="middle" x="348" y="-89.4" font-family="Times Roman,serif" font-size="14.00">MySQL Cluster 7.3</text>
</g>
<!-- MySQL 5.6&#45;&gt;MySQL Cluster 7.3 -->
<g id="edge42" class="edge"><title>MySQL 5.6&#45;&gt;MySQL Cluster 7.3</title>
<path fill="none" stroke="black" d="M495.911,-151.846C468.291,-140.858 430.603,-125.864 400.184,-113.761"/>
<polygon fill="black" stroke="black" points="401.17,-110.387 390.585,-109.942 398.582,-116.891 401.17,-110.387"/>
</g>
<!-- MySQL 5.4&#45;&gt;MySQL 5.5 -->
<g id="edge14" class="edge"><title>MySQL 5.4&#45;&gt;MySQL 5.5</title>
<path fill="none" stroke="grey" d="M448.769,-444.454C465.078,-405.523 502.965,-315.084 522.257,-269.032"/>
<polygon fill="grey" stroke="grey" points="525.552,-270.225 526.188,-259.649 519.095,-267.52 525.552,-270.225"/>
</g>
<!-- MySQL 6.0&#45;&gt;MySQL 5.5 -->
<g id="edge16" class="edge"><title>MySQL 6.0&#45;&gt;MySQL 5.5</title>
<path fill="none" stroke="grey" d="M432.399,-298.393C451.108,-287.824 475.532,-274.028 495.745,-262.61"/>
<polygon fill="grey" stroke="grey" points="497.714,-265.517 504.699,-257.552 494.271,-259.423 497.714,-265.517"/>
</g>
<!-- Drizzle 7.0 -->
<g id="node66" class="node"><title>Drizzle 7.0</title>
<ellipse fill="none" stroke="#00008b" cx="385" cy="-241" rx="65.7609" ry="18.3848"/>
<text text-anchor="middle" x="385" y="-237.4" font-family="Times Roman,serif" font-size="14.00">Drizzle 7.0</text>
</g>
<!-- MySQL 6.0&#45;&gt;Drizzle 7.0 -->
<g id="edge84" class="edge"><title>MySQL 6.0&#45;&gt;Drizzle 7.0</title>
<path fill="none" stroke="black" d="M398.458,-296.327C396.475,-288.176 394.107,-278.438 391.913,-269.42"/>
<polygon fill="black" stroke="black" points="395.305,-268.557 389.541,-259.667 388.503,-270.211 395.305,-268.557"/>
</g>
<!-- MySQL Cluster 6.2&#45;&gt;MySQL Cluster 6.3 -->
<g id="edge28" class="edge"><title>MySQL Cluster 6.2&#45;&gt;MySQL Cluster 6.3</title>
<path fill="none" stroke="black" d="M112.589,-444.327C116.864,-436.001 121.99,-426.019 126.704,-416.84"/>
<polygon fill="black" stroke="black" points="129.959,-418.162 131.414,-407.667 123.732,-414.964 129.959,-418.162"/>
</g>
<!-- MySQL Cluster 6.3&#45;&gt;MySQL Cluster 7.0 -->
<g id="edge32" class="edge"><title>MySQL Cluster 6.3&#45;&gt;MySQL Cluster 7.0</title>
<path fill="none" stroke="black" d="M150.589,-370.327C154.864,-362.001 159.99,-352.019 164.704,-342.84"/>
<polygon fill="black" stroke="black" points="167.959,-344.162 169.414,-333.667 161.732,-340.964 167.959,-344.162"/>
</g>
<!-- MySQL Cluster 7.0&#45;&gt;MySQL Cluster 7.1 -->
<g id="edge36" class="edge"><title>MySQL Cluster 7.0&#45;&gt;MySQL Cluster 7.1</title>
<path fill="none" stroke="black" d="M183.795,-296.327C185.887,-288.176 188.387,-278.438 190.703,-269.42"/>
<polygon fill="black" stroke="black" points="194.11,-270.224 193.207,-259.667 187.33,-268.483 194.11,-270.224"/>
</g>
<!-- MySQL Cluster 7.1&#45;&gt;MySQL Cluster 7.2 -->
<g id="edge40" class="edge"><title>MySQL Cluster 7.1&#45;&gt;MySQL Cluster 7.2</title>
<path fill="none" stroke="black" d="M233.548,-223.463C254.564,-213.095 281.357,-199.877 303.735,-188.837"/>
<polygon fill="black" stroke="black" points="305.288,-191.974 312.707,-184.411 302.191,-185.697 305.288,-191.974"/>
</g>
<!-- MySQL Cluster 7.2&#45;&gt;MySQL Cluster 7.3 -->
<g id="edge44" class="edge"><title>MySQL Cluster 7.2&#45;&gt;MySQL Cluster 7.3</title>
<path fill="none" stroke="black" d="M348,-148.327C348,-140.264 348,-130.648 348,-121.711"/>
<polygon fill="black" stroke="black" points="351.5,-121.667 348,-111.667 344.5,-121.667 351.5,-121.667"/>
</g>
<!-- MariaDB 5.1&#45;&gt;MariaDB 5.2 -->
<g id="edge52" class="edge"><title>MariaDB 5.1&#45;&gt;MariaDB 5.2</title>
<path fill="none" stroke="black" d="M711,-370.327C711,-362.264 711,-352.648 711,-343.711"/>
<polygon fill="black" stroke="black" points="714.5,-343.667 711,-333.667 707.5,-343.667 714.5,-343.667"/>
</g>
<!-- MariaDB 5.2&#45;&gt;MariaDB 5.3 -->
<g id="edge58" class="edge"><title>MariaDB 5.2&#45;&gt;MariaDB 5.3</title>
<path fill="none" stroke="black" d="M711,-296.327C711,-288.264 711,-278.648 711,-269.711"/>
<polygon fill="black" stroke="black" points="714.5,-269.667 711,-259.667 707.5,-269.667 714.5,-269.667"/>
</g>
<!-- MariaDB 5.3&#45;&gt;MariaDB 5.5 -->
<g id="edge64" class="edge"><title>MariaDB 5.3&#45;&gt;MariaDB 5.5</title>
<path fill="none" stroke="black" d="M699.247,-222.459C693.412,-212.154 686.984,-198.848 684,-186 679.069,-164.768 681.795,-140.202 685.497,-121.651"/>
<polygon fill="black" stroke="black" points="688.943,-122.279 687.676,-111.76 682.107,-120.773 688.943,-122.279"/>
</g>
<!-- MariaDB 5.3&#45;&gt;Percona Server 5.5 -->
<g id="edge82" class="edge"><title>MariaDB 5.3&#45;&gt;Percona Server 5.5</title>
<path fill="none" stroke="grey" d="M731.818,-223.087C742.643,-213.773 756.05,-202.236 767.885,-192.053"/>
<polygon fill="grey" stroke="grey" points="770.479,-194.438 775.776,-185.262 765.913,-189.132 770.479,-194.438"/>
</g>
<!-- MariaDB 10.0 -->
<g id="node43" class="node"><title>MariaDB 10.0</title>
<ellipse fill="none" stroke="blue" stroke-dasharray="5,2" cx="744" cy="-19" rx="79.196" ry="18.3848"/>
<text text-anchor="middle" x="744" y="-15.4" font-family="Times Roman,serif" font-size="14.00">MariaDB 10.0</text>
</g>
<!-- MariaDB 5.5&#45;&gt;MariaDB 10.0 -->
<g id="edge68" class="edge"><title>MariaDB 5.5&#45;&gt;MariaDB 10.0</title>
<path fill="none" stroke="black" stroke-dasharray="5,2" d="M705.607,-74.7079C711.614,-65.9914 718.917,-55.3952 725.534,-45.7937"/>
<polygon fill="black" stroke="black" points="728.569,-47.5583 731.362,-37.3382 722.805,-43.5859 728.569,-47.5583"/>
</g>
<!-- Percona Server 5.1&#45;&gt;MariaDB 5.1 -->
<g id="edge48" class="edge"><title>Percona Server 5.1&#45;&gt;MariaDB 5.1</title>
<path fill="none" stroke="grey" d="M781.011,-444.708C769.098,-435.228 754.39,-423.526 741.535,-413.297"/>
<polygon fill="grey" stroke="grey" points="743.408,-410.314 733.403,-406.826 739.049,-415.792 743.408,-410.314"/>
</g>
<!-- Percona Server 5.1&#45;&gt;MariaDB 5.2 -->
<g id="edge54" class="edge"><title>Percona Server 5.1&#45;&gt;MariaDB 5.2</title>
<path fill="none" stroke="grey" d="M806.149,-444.413C807.513,-424.517 806.911,-392.747 793,-370 784.49,-356.084 770.977,-344.915 757.356,-336.372"/>
<polygon fill="grey" stroke="grey" points="758.836,-333.183 748.441,-331.136 755.291,-339.218 758.836,-333.183"/>
</g>
<!-- Percona Server 5.1&#45;&gt;MariaDB 5.3 -->
<g id="edge60" class="edge"><title>Percona Server 5.1&#45;&gt;MariaDB 5.3</title>
<path fill="none" stroke="grey" d="M808.541,-444.41C815.498,-411.23 824.881,-341.07 793,-296 783.418,-282.454 769.358,-271.288 755.578,-262.64"/>
<polygon fill="grey" stroke="grey" points="756.998,-259.413 746.612,-257.32 753.426,-265.433 756.998,-259.413"/>
</g>
<!-- Percona Server 5.1&#45;&gt;Percona Server 5.5 -->
<g id="edge80" class="edge"><title>Percona Server 5.1&#45;&gt;Percona Server 5.5</title>
<path fill="none" stroke="black" d="M814.457,-444.298C819.648,-433.945 825.361,-420.646 828,-408 843.87,-331.952 820.866,-240.604 806.704,-195.321"/>
<polygon fill="black" stroke="black" points="809.973,-194.054 803.578,-185.607 803.31,-196.198 809.973,-194.054"/>
</g>
<!-- Percona Server 5.5&#45;&gt;MariaDB 5.5 -->
<g id="edge66" class="edge"><title>Percona Server 5.5&#45;&gt;MariaDB 5.5</title>
<path fill="none" stroke="grey" d="M771.559,-148.898C757.886,-139.169 740.864,-127.057 726.164,-116.597"/>
<polygon fill="grey" stroke="grey" points="727.997,-113.606 717.82,-110.66 723.938,-119.31 727.997,-113.606"/>
</g>
<!-- Percona Server 5.5&#45;&gt;MariaDB 10.0 -->
<g id="edge70" class="edge"><title>Percona Server 5.5&#45;&gt;MariaDB 10.0</title>
<path fill="none" stroke="grey" d="M794.179,-148.362C790.922,-129.248 784.729,-98.8777 775,-74 771.365,-64.7042 766.393,-55.0625 761.496,-46.4971"/>
<polygon fill="grey" stroke="grey" points="764.388,-44.5107 756.278,-37.6925 758.366,-48.0796 764.388,-44.5107"/>
</g>
<!-- Percona Server 5.0&#45;&gt;Percona Server 5.1 -->
<g id="edge76" class="edge"><title>Percona Server 5.0&#45;&gt;Percona Server 5.1</title>
<path fill="none" stroke="black" d="M771.103,-518.327C776.196,-509.761 782.332,-499.442 787.918,-490.047"/>
<polygon fill="black" stroke="black" points="790.95,-491.795 793.053,-481.411 784.934,-488.218 790.95,-491.795"/>
</g>
<!-- Drizzle 7.1 -->
<g id="node67" class="node"><title>Drizzle 7.1</title>
<ellipse fill="none" stroke="#00008b" cx="161" cy="-167" rx="65.7609" ry="18.3848"/>
<text text-anchor="middle" x="161" y="-163.4" font-family="Times Roman,serif" font-size="14.00">Drizzle 7.1</text>
</g>
<!-- Drizzle 7.0&#45;&gt;Drizzle 7.1 -->
<g id="edge86" class="edge"><title>Drizzle 7.0&#45;&gt;Drizzle 7.1</title>
<path fill="none" stroke="black" d="M342.076,-226.82C305.42,-214.71 252.569,-197.25 213.419,-184.317"/>
<polygon fill="black" stroke="black" points="214.372,-180.946 203.779,-181.132 212.177,-187.593 214.372,-180.946"/>
</g>
<!-- Drizzle 7.2 -->
<g id="node68" class="node"><title>Drizzle 7.2</title>
<ellipse fill="none" stroke="#00008b" cx="161" cy="-93" rx="65.7609" ry="18.3848"/>
<text text-anchor="middle" x="161" y="-89.4" font-family="Times Roman,serif" font-size="14.00">Drizzle 7.2</text>
</g>
<!-- Drizzle 7.1&#45;&gt;Drizzle 7.2 -->
<g id="edge88" class="edge"><title>Drizzle 7.1&#45;&gt;Drizzle 7.2</title>
<path fill="none" stroke="black" d="M161,-148.327C161,-140.264 161,-130.648 161,-121.711"/>
<polygon fill="black" stroke="black" points="164.5,-121.667 161,-111.667 157.5,-121.667 164.5,-121.667"/>
</g>
</g>
</svg>
