<?xml version="1.0" encoding="UTF-8" standalone="no"?>
<!DOCTYPE svg PUBLIC "-//W3C//DTD SVG 1.1//EN"
 "http://www.w3.org/Graphics/SVG/1.1/DTD/svg11.dtd">
<!-- Generated by graphviz version 2.44.0 (20200408.0750)
 -->
<!-- Title: mysql_history_graph Pages: 1 -->
<svg width="970pt" height="1556pt"
 viewBox="0.00 0.00 970.24 1556.00" xmlns="http://www.w3.org/2000/svg" xmlns:xlink="http://www.w3.org/1999/xlink">
<g id="graph0" class="graph" transform="scale(1 1) rotate(0) translate(4 1552)">
<title>mysql_history_graph</title>
<polygon fill="white" stroke="transparent" points="-4,4 -4,-1552 966.24,-1552 966.24,4 -4,4"/>
<!-- MySQL 3.19 -->
<g id="node1" class="node">
<title>MySQL 3.19</title>
<ellipse fill="none" stroke="red" cx="569.35" cy="-1530" rx="57.69" ry="18"/>
<text text-anchor="middle" x="569.35" y="-1526.3" font-family="Times,serif" font-size="14.00">MySQL 3.19</text>
</g>
<!-- MySQL 3.20 -->
<g id="node2" class="node">
<title>MySQL 3.20</title>
<ellipse fill="none" stroke="red" cx="569.35" cy="-1458" rx="57.69" ry="18"/>
<text text-anchor="middle" x="569.35" y="-1454.3" font-family="Times,serif" font-size="14.00">MySQL 3.20</text>
</g>
<!-- MySQL 3.19&#45;&gt;MySQL 3.20 -->
<g id="edge1" class="edge">
<title>MySQL 3.19&#45;&gt;MySQL 3.20</title>
<path fill="none" stroke="black" d="M569.35,-1511.7C569.35,-1503.98 569.35,-1494.71 569.35,-1486.11"/>
<polygon fill="black" stroke="black" points="572.85,-1486.1 569.35,-1476.1 565.85,-1486.1 572.85,-1486.1"/>
</g>
<!-- MySQL 3.21 -->
<g id="node3" class="node">
<title>MySQL 3.21</title>
<ellipse fill="none" stroke="red" cx="569.35" cy="-1386" rx="57.69" ry="18"/>
<text text-anchor="middle" x="569.35" y="-1382.3" font-family="Times,serif" font-size="14.00">MySQL 3.21</text>
</g>
<!-- MySQL 3.20&#45;&gt;MySQL 3.21 -->
<g id="edge2" class="edge">
<title>MySQL 3.20&#45;&gt;MySQL 3.21</title>
<path fill="none" stroke="black" d="M569.35,-1439.7C569.35,-1431.98 569.35,-1422.71 569.35,-1414.11"/>
<polygon fill="black" stroke="black" points="572.85,-1414.1 569.35,-1404.1 565.85,-1414.1 572.85,-1414.1"/>
</g>
<!-- MySQL 3.22 -->
<g id="node4" class="node">
<title>MySQL 3.22</title>
<ellipse fill="none" stroke="red" cx="569.35" cy="-1314" rx="57.69" ry="18"/>
<text text-anchor="middle" x="569.35" y="-1310.3" font-family="Times,serif" font-size="14.00">MySQL 3.22</text>
</g>
<!-- MySQL 3.21&#45;&gt;MySQL 3.22 -->
<g id="edge3" class="edge">
<title>MySQL 3.21&#45;&gt;MySQL 3.22</title>
<path fill="none" stroke="black" d="M569.35,-1367.7C569.35,-1359.98 569.35,-1350.71 569.35,-1342.11"/>
<polygon fill="black" stroke="black" points="572.85,-1342.1 569.35,-1332.1 565.85,-1342.1 572.85,-1342.1"/>
</g>
<!-- MySQL 3.23 -->
<g id="node5" class="node">
<title>MySQL 3.23</title>
<ellipse fill="none" stroke="red" cx="569.35" cy="-1242" rx="57.69" ry="18"/>
<text text-anchor="middle" x="569.35" y="-1238.3" font-family="Times,serif" font-size="14.00">MySQL 3.23</text>
</g>
<!-- MySQL 3.22&#45;&gt;MySQL 3.23 -->
<g id="edge4" class="edge">
<title>MySQL 3.22&#45;&gt;MySQL 3.23</title>
<path fill="none" stroke="black" d="M569.35,-1295.7C569.35,-1287.98 569.35,-1278.71 569.35,-1270.11"/>
<polygon fill="black" stroke="black" points="572.85,-1270.1 569.35,-1260.1 565.85,-1270.1 572.85,-1270.1"/>
</g>
<!-- MySQL 4.0 -->
<g id="node6" class="node">
<title>MySQL 4.0</title>
<ellipse fill="none" stroke="red" cx="569.35" cy="-1170" rx="53.09" ry="18"/>
<text text-anchor="middle" x="569.35" y="-1166.3" font-family="Times,serif" font-size="14.00">MySQL 4.0</text>
</g>
<!-- MySQL 3.23&#45;&gt;MySQL 4.0 -->
<g id="edge5" class="edge">
<title>MySQL 3.23&#45;&gt;MySQL 4.0</title>
<path fill="none" stroke="black" d="M569.35,-1223.7C569.35,-1215.98 569.35,-1206.71 569.35,-1198.11"/>
<polygon fill="black" stroke="black" points="572.85,-1198.1 569.35,-1188.1 565.85,-1198.1 572.85,-1198.1"/>
</g>
<!-- MySQL 4.1 -->
<g id="node7" class="node">
<title>MySQL 4.1</title>
<ellipse fill="none" stroke="red" cx="569.35" cy="-1098" rx="53.09" ry="18"/>
<text text-anchor="middle" x="569.35" y="-1094.3" font-family="Times,serif" font-size="14.00">MySQL 4.1</text>
</g>
<!-- MySQL 4.0&#45;&gt;MySQL 4.1 -->
<g id="edge6" class="edge">
<title>MySQL 4.0&#45;&gt;MySQL 4.1</title>
<path fill="none" stroke="black" d="M569.35,-1151.7C569.35,-1143.98 569.35,-1134.71 569.35,-1126.11"/>
<polygon fill="black" stroke="black" points="572.85,-1126.1 569.35,-1116.1 565.85,-1126.1 572.85,-1126.1"/>
</g>
<!-- MySQL 5.0 -->
<g id="node8" class="node">
<title>MySQL 5.0</title>
<ellipse fill="none" stroke="red" cx="569.35" cy="-1026" rx="53.09" ry="18"/>
<text text-anchor="middle" x="569.35" y="-1022.3" font-family="Times,serif" font-size="14.00">MySQL 5.0</text>
</g>
<!-- MySQL 4.1&#45;&gt;MySQL 5.0 -->
<g id="edge7" class="edge">
<title>MySQL 4.1&#45;&gt;MySQL 5.0</title>
<path fill="none" stroke="black" d="M569.35,-1079.7C569.35,-1071.98 569.35,-1062.71 569.35,-1054.11"/>
<polygon fill="black" stroke="black" points="572.85,-1054.1 569.35,-1044.1 565.85,-1054.1 572.85,-1054.1"/>
</g>
<!-- MySQL 5.1 -->
<g id="node9" class="node">
<title>MySQL 5.1</title>
<ellipse fill="none" stroke="red" cx="495.35" cy="-954" rx="53.09" ry="18"/>
<text text-anchor="middle" x="495.35" y="-950.3" font-family="Times,serif" font-size="14.00">MySQL 5.1</text>
</g>
<!-- MySQL 5.0&#45;&gt;MySQL 5.1 -->
<g id="edge8" class="edge">
<title>MySQL 5.0&#45;&gt;MySQL 5.1</title>
<path fill="none" stroke="black" d="M552.18,-1008.76C542.56,-999.66 530.4,-988.16 519.8,-978.13"/>
<polygon fill="black" stroke="black" points="522.09,-975.48 512.42,-971.15 517.28,-980.56 522.09,-975.48"/>
</g>
<!-- Percona Server 5.0 -->
<g id="node51" class="node">
<title>Percona Server 5.0</title>
<ellipse fill="none" stroke="orange" cx="681.35" cy="-954" rx="77.99" ry="18"/>
<text text-anchor="middle" x="681.35" y="-950.3" font-family="Times,serif" font-size="14.00">Percona Server 5.0</text>
</g>
<!-- MySQL 5.0&#45;&gt;Percona Server 5.0 -->
<g id="edge69" class="edge">
<title>MySQL 5.0&#45;&gt;Percona Server 5.0</title>
<path fill="none" stroke="black" d="M593.65,-1009.81C609.21,-1000.09 629.64,-987.32 646.86,-976.55"/>
<polygon fill="black" stroke="black" points="648.91,-979.4 655.53,-971.13 645.2,-973.47 648.91,-979.4"/>
</g>
<!-- MySQL 6.0 -->
<g id="node14" class="node">
<title>MySQL 6.0</title>
<ellipse fill="none" stroke="red" stroke-dasharray="1,5" cx="455.35" cy="-882" rx="53.09" ry="18"/>
<text text-anchor="middle" x="455.35" y="-878.3" font-family="Times,serif" font-size="14.00">MySQL 6.0</text>
</g>
<!-- MySQL 5.1&#45;&gt;MySQL 6.0 -->
<g id="edge16" class="edge">
<title>MySQL 5.1&#45;&gt;MySQL 6.0</title>
<path fill="none" stroke="black" stroke-dasharray="5,2" d="M485.66,-936.05C480.95,-927.8 475.18,-917.7 469.94,-908.54"/>
<polygon fill="black" stroke="black" points="472.94,-906.73 464.94,-899.79 466.86,-910.21 472.94,-906.73"/>
</g>
<!-- MySQL 5.2 -->
<g id="node17" class="node">
<title>MySQL 5.2</title>
<ellipse fill="none" stroke="red" stroke-dasharray="1,5" cx="330.35" cy="-882" rx="53.09" ry="18"/>
<text text-anchor="middle" x="330.35" y="-878.3" font-family="Times,serif" font-size="14.00">MySQL 5.2</text>
</g>
<!-- MySQL 5.1&#45;&gt;MySQL 5.2 -->
<g id="edge15" class="edge">
<title>MySQL 5.1&#45;&gt;MySQL 5.2</title>
<path fill="none" stroke="black" stroke-dasharray="5,2" d="M463.53,-939.5C437.37,-928.4 400.09,-912.59 371.63,-900.51"/>
<polygon fill="black" stroke="black" points="372.92,-897.26 362.34,-896.57 370.18,-903.7 372.92,-897.26"/>
</g>
<!-- MySQL Cluster 6.2 -->
<g id="node19" class="node">
<title>MySQL Cluster 6.2</title>
<ellipse fill="none" stroke="#cd0000" cx="177.35" cy="-882" rx="81.49" ry="18"/>
<text text-anchor="middle" x="177.35" y="-878.3" font-family="Times,serif" font-size="14.00">MySQL Cluster 6.2</text>
</g>
<!-- MySQL 5.1&#45;&gt;MySQL Cluster 6.2 -->
<g id="edge19" class="edge">
<title>MySQL 5.1&#45;&gt;MySQL Cluster 6.2</title>
<path fill="none" stroke="black" d="M451.8,-943.41C397.79,-931.52 305.22,-911.15 242.68,-897.38"/>
<polygon fill="black" stroke="black" points="243.43,-893.96 232.92,-895.23 241.93,-900.8 243.43,-893.96"/>
</g>
<!-- MySQL Cluster 6.3 -->
<g id="node20" class="node">
<title>MySQL Cluster 6.3</title>
<ellipse fill="none" stroke="#cd0000" cx="139.35" cy="-810" rx="81.49" ry="18"/>
<text text-anchor="middle" x="139.35" y="-806.3" font-family="Times,serif" font-size="14.00">MySQL Cluster 6.3</text>
</g>
<!-- MySQL 5.1&#45;&gt;MySQL Cluster 6.3 -->
<g id="edge20" class="edge">
<title>MySQL 5.1&#45;&gt;MySQL Cluster 6.3</title>
<path fill="none" stroke="black" d="M443.22,-950.01C338.5,-943.48 110.51,-926.36 87.35,-900 69.86,-880.09 90,-853.44 110.09,-834.5"/>
<polygon fill="black" stroke="black" points="112.61,-836.94 117.71,-827.65 107.93,-831.73 112.61,-836.94"/>
</g>
<!-- MySQL Cluster 7.0 -->
<g id="node21" class="node">
<title>MySQL Cluster 7.0</title>
<ellipse fill="none" stroke="#cd0000" cx="120.35" cy="-738" rx="81.49" ry="18"/>
<text text-anchor="middle" x="120.35" y="-734.3" font-family="Times,serif" font-size="14.00">MySQL Cluster 7.0</text>
</g>
<!-- MySQL 5.1&#45;&gt;MySQL Cluster 7.0 -->
<g id="edge22" class="edge">
<title>MySQL 5.1&#45;&gt;MySQL Cluster 7.0</title>
<path fill="none" stroke="black" d="M441.97,-952.84C342.31,-951.51 132.98,-943.45 77.35,-900 38.26,-869.48 27.12,-836.33 49.35,-792 55.84,-779.05 67.16,-768.46 78.88,-760.24"/>
<polygon fill="black" stroke="black" points="80.95,-763.07 87.42,-754.68 77.13,-757.21 80.95,-763.07"/>
</g>
<!-- MySQL Cluster 7.1 -->
<g id="node22" class="node">
<title>MySQL Cluster 7.1</title>
<ellipse fill="none" stroke="#cd0000" cx="120.35" cy="-666" rx="81.49" ry="18"/>
<text text-anchor="middle" x="120.35" y="-662.3" font-family="Times,serif" font-size="14.00">MySQL Cluster 7.1</text>
</g>
<!-- MySQL 5.1&#45;&gt;MySQL Cluster 7.1 -->
<g id="edge24" class="edge">
<title>MySQL 5.1&#45;&gt;MySQL Cluster 7.1</title>
<path fill="none" stroke="black" d="M442.96,-950.49C329.75,-944.55 70.19,-928.01 42.35,-900 -14.18,-843.14 -9.44,-789.61 30.35,-720 38.77,-705.27 53.06,-694.22 67.8,-686.14"/>
<polygon fill="black" stroke="black" points="69.65,-689.13 76.99,-681.48 66.49,-682.88 69.65,-689.13"/>
</g>
<!-- MariaDB 5.1 -->
<g id="node27" class="node">
<title>MariaDB 5.1</title>
<ellipse fill="none" stroke="blue" cx="660.35" cy="-810" rx="57.69" ry="18"/>
<text text-anchor="middle" x="660.35" y="-806.3" font-family="Times,serif" font-size="14.00">MariaDB 5.1</text>
</g>
<!-- MySQL 5.1&#45;&gt;MariaDB 5.1 -->
<g id="edge34" class="edge">
<title>MySQL 5.1&#45;&gt;MariaDB 5.1</title>
<path fill="none" stroke="black" d="M526.08,-939.14C545.14,-929.68 569.51,-916 588.35,-900 610.18,-881.45 630.26,-855.57 643.63,-836.49"/>
<polygon fill="black" stroke="black" points="646.69,-838.22 649.46,-828 640.92,-834.26 646.69,-838.22"/>
</g>
<!-- MariaDB 5.2 -->
<g id="node28" class="node">
<title>MariaDB 5.2</title>
<ellipse fill="none" stroke="blue" cx="660.35" cy="-738" rx="57.69" ry="18"/>
<text text-anchor="middle" x="660.35" y="-734.3" font-family="Times,serif" font-size="14.00">MariaDB 5.2</text>
</g>
<!-- MySQL 5.1&#45;&gt;MariaDB 5.2 -->
<g id="edge36" class="edge">
<title>MySQL 5.1&#45;&gt;MariaDB 5.2</title>
<path fill="none" stroke="black" d="M515.48,-937.3C526.92,-927.55 540.81,-914.2 550.35,-900 579.15,-857.11 562.48,-833.43 593.35,-792 602.4,-779.84 614.9,-768.95 626.66,-760.24"/>
<polygon fill="black" stroke="black" points="628.9,-762.95 635.03,-754.3 624.84,-757.24 628.9,-762.95"/>
</g>
<!-- MariaDB 5.3 -->
<g id="node29" class="node">
<title>MariaDB 5.3</title>
<ellipse fill="none" stroke="blue" cx="660.35" cy="-666" rx="57.69" ry="18"/>
<text text-anchor="middle" x="660.35" y="-662.3" font-family="Times,serif" font-size="14.00">MariaDB 5.3</text>
</g>
<!-- MySQL 5.1&#45;&gt;MariaDB 5.3 -->
<g id="edge39" class="edge">
<title>MySQL 5.1&#45;&gt;MariaDB 5.3</title>
<path fill="none" stroke="black" d="M502.41,-936.06C524.6,-882.83 591.57,-722.33 593.35,-720 602.52,-707.93 615.04,-697.05 626.78,-688.34"/>
<polygon fill="black" stroke="black" points="629.02,-691.04 635.14,-682.39 624.96,-685.34 629.02,-691.04"/>
</g>
<!-- Percona Server 5.1 -->
<g id="node37" class="node">
<title>Percona Server 5.1</title>
<ellipse fill="none" stroke="orange" cx="739.35" cy="-882" rx="77.99" ry="18"/>
<text text-anchor="middle" x="739.35" y="-878.3" font-family="Times,serif" font-size="14.00">Percona Server 5.1</text>
</g>
<!-- MySQL 5.1&#45;&gt;Percona Server 5.1 -->
<g id="edge70" class="edge">
<title>MySQL 5.1&#45;&gt;Percona Server 5.1</title>
<path fill="none" stroke="black" d="M534.55,-941.75C574.59,-930.27 637.14,-912.32 682.59,-899.28"/>
<polygon fill="black" stroke="black" points="683.66,-902.62 692.3,-896.5 681.73,-895.89 683.66,-902.62"/>
</g>
<!-- InfiniDB 1.5 -->
<g id="node40" class="node">
<title>InfiniDB 1.5</title>
<ellipse fill="none" stroke="steelblue" cx="898.35" cy="-882" rx="55.79" ry="18"/>
<text text-anchor="middle" x="898.35" y="-878.3" font-family="Times,serif" font-size="14.00">InfiniDB 1.5</text>
</g>
<!-- MySQL 5.1&#45;&gt;InfiniDB 1.5 -->
<g id="edge54" class="edge">
<title>MySQL 5.1&#45;&gt;InfiniDB 1.5</title>
<path fill="none" stroke="black" d="M541.66,-944.89C558.26,-942.02 577.14,-938.81 594.35,-936 697.33,-919.17 723.94,-920 826.35,-900 832.55,-898.79 839.03,-897.41 845.45,-895.98"/>
<polygon fill="black" stroke="black" points="846.47,-899.34 855.44,-893.71 844.92,-892.52 846.47,-899.34"/>
</g>
<!-- MySQL 5.5 -->
<g id="node10" class="node">
<title>MySQL 5.5</title>
<ellipse fill="none" stroke="red" cx="374.35" cy="-666" rx="53.09" ry="18"/>
<text text-anchor="middle" x="374.35" y="-662.3" font-family="Times,serif" font-size="14.00">MySQL 5.5</text>
</g>
<!-- MySQL 5.6 -->
<g id="node11" class="node">
<title>MySQL 5.6</title>
<ellipse fill="none" stroke="red" cx="374.35" cy="-594" rx="53.09" ry="18"/>
<text text-anchor="middle" x="374.35" y="-590.3" font-family="Times,serif" font-size="14.00">MySQL 5.6</text>
</g>
<!-- MySQL 5.5&#45;&gt;MySQL 5.6 -->
<g id="edge11" class="edge">
<title>MySQL 5.5&#45;&gt;MySQL 5.6</title>
<path fill="none" stroke="black" d="M374.35,-647.7C374.35,-639.98 374.35,-630.71 374.35,-622.11"/>
<polygon fill="black" stroke="black" points="377.85,-622.1 374.35,-612.1 370.85,-622.1 377.85,-622.1"/>
</g>
<!-- MySQL Cluster 7.2 -->
<g id="node23" class="node">
<title>MySQL Cluster 7.2</title>
<ellipse fill="none" stroke="#cd0000" cx="221.35" cy="-594" rx="81.49" ry="18"/>
<text text-anchor="middle" x="221.35" y="-590.3" font-family="Times,serif" font-size="14.00">MySQL Cluster 7.2</text>
</g>
<!-- MySQL 5.5&#45;&gt;MySQL Cluster 7.2 -->
<g id="edge26" class="edge">
<title>MySQL 5.5&#45;&gt;MySQL Cluster 7.2</title>
<path fill="none" stroke="black" d="M344.12,-651.17C321.42,-640.78 290,-626.41 264.64,-614.81"/>
<polygon fill="black" stroke="black" points="265.79,-611.48 255.24,-610.51 262.88,-617.85 265.79,-611.48"/>
</g>
<!-- MariaDB 5.5 -->
<g id="node30" class="node">
<title>MariaDB 5.5</title>
<ellipse fill="none" stroke="blue" cx="634.35" cy="-522" rx="57.69" ry="18"/>
<text text-anchor="middle" x="634.35" y="-518.3" font-family="Times,serif" font-size="14.00">MariaDB 5.5</text>
</g>
<!-- MySQL 5.5&#45;&gt;MariaDB 5.5 -->
<g id="edge42" class="edge">
<title>MySQL 5.5&#45;&gt;MariaDB 5.5</title>
<path fill="none" stroke="black" d="M393.56,-649.01C405.92,-638.62 422.24,-624.69 436.35,-612 453.64,-596.44 454.38,-587.94 474.35,-576 492.92,-564.89 543.48,-548.91 582.83,-537.41"/>
<polygon fill="black" stroke="black" points="583.94,-540.74 592.57,-534.59 581.99,-534.01 583.94,-540.74"/>
</g>
<!-- Percona Server 5.5 -->
<g id="node38" class="node">
<title>Percona Server 5.5</title>
<ellipse fill="none" stroke="orange" cx="561.35" cy="-594" rx="77.99" ry="18"/>
<text text-anchor="middle" x="561.35" y="-590.3" font-family="Times,serif" font-size="14.00">Percona Server 5.5</text>
</g>
<!-- MySQL 5.5&#45;&gt;Percona Server 5.5 -->
<g id="edge72" class="edge">
<title>MySQL 5.5&#45;&gt;Percona Server 5.5</title>
<path fill="none" stroke="black" d="M408.65,-652.16C437.82,-641.24 480.06,-625.43 512.72,-613.2"/>
<polygon fill="black" stroke="black" points="513.95,-616.48 522.09,-609.7 511.5,-609.92 513.95,-616.48"/>
</g>
<!-- MySQL 5.7 -->
<g id="node12" class="node">
<title>MySQL 5.7</title>
<ellipse fill="none" stroke="red" cx="377.35" cy="-450" rx="53.09" ry="18"/>
<text text-anchor="middle" x="377.35" y="-446.3" font-family="Times,serif" font-size="14.00">MySQL 5.7</text>
</g>
<!-- MySQL 5.6&#45;&gt;MySQL 5.7 -->
<g id="edge12" class="edge">
<title>MySQL 5.6&#45;&gt;MySQL 5.7</title>
<path fill="none" stroke="black" d="M374.71,-575.87C375.22,-551.67 376.16,-507.21 376.77,-478.39"/>
<polygon fill="black" stroke="black" points="380.27,-478.26 376.98,-468.19 373.27,-478.11 380.27,-478.26"/>
</g>
<!-- MySQL Cluster 7.3 -->
<g id="node24" class="node">
<title>MySQL Cluster 7.3</title>
<ellipse fill="none" stroke="#cd0000" cx="224.35" cy="-522" rx="81.49" ry="18"/>
<text text-anchor="middle" x="224.35" y="-518.3" font-family="Times,serif" font-size="14.00">MySQL Cluster 7.3</text>
</g>
<!-- MySQL 5.6&#45;&gt;MySQL Cluster 7.3 -->
<g id="edge28" class="edge">
<title>MySQL 5.6&#45;&gt;MySQL Cluster 7.3</title>
<path fill="none" stroke="black" d="M344.35,-579C322.14,-568.64 291.57,-554.37 266.84,-542.83"/>
<polygon fill="black" stroke="black" points="268.22,-539.61 257.68,-538.56 265.26,-545.96 268.22,-539.61"/>
</g>
<!-- Percona Server 5.6 -->
<g id="node39" class="node">
<title>Percona Server 5.6</title>
<ellipse fill="none" stroke="orange" cx="480.35" cy="-522" rx="77.99" ry="18"/>
<text text-anchor="middle" x="480.35" y="-518.3" font-family="Times,serif" font-size="14.00">Percona Server 5.6</text>
</g>
<!-- MySQL 5.6&#45;&gt;Percona Server 5.6 -->
<g id="edge75" class="edge">
<title>MySQL 5.6&#45;&gt;Percona Server 5.6</title>
<path fill="none" stroke="black" d="M397.61,-577.64C412.11,-568.06 431,-555.59 447.07,-544.97"/>
<polygon fill="black" stroke="black" points="449.25,-547.73 455.66,-539.3 445.39,-541.89 449.25,-547.73"/>
</g>
<!-- MySQL 8.0 -->
<g id="node13" class="node">
<title>MySQL 8.0</title>
<ellipse fill="none" stroke="red" cx="347.35" cy="-234" rx="53.09" ry="18"/>
<text text-anchor="middle" x="347.35" y="-230.3" font-family="Times,serif" font-size="14.00">MySQL 8.0</text>
</g>
<!-- MySQL 5.7&#45;&gt;MySQL 8.0 -->
<g id="edge13" class="edge">
<title>MySQL 5.7&#45;&gt;MySQL 8.0</title>
<path fill="none" stroke="black" d="M374.79,-431.62C371.26,-407.48 364.7,-362.44 359.35,-324 356.46,-303.28 353.3,-279.84 350.95,-262.21"/>
<polygon fill="black" stroke="black" points="354.39,-261.52 349.6,-252.07 347.45,-262.44 354.39,-261.52"/>
</g>
<!-- Percona Server 5.7 -->
<g id="node18" class="node">
<title>Percona Server 5.7</title>
<ellipse fill="none" stroke="orange" cx="446.35" cy="-306" rx="77.99" ry="18"/>
<text text-anchor="middle" x="446.35" y="-302.3" font-family="Times,serif" font-size="14.00">Percona Server 5.7</text>
</g>
<!-- MySQL 5.7&#45;&gt;Percona Server 5.7 -->
<g id="edge77" class="edge">
<title>MySQL 5.7&#45;&gt;Percona Server 5.7</title>
<path fill="none" stroke="black" d="M385.53,-432.15C397.4,-407.73 419.49,-362.26 433.53,-333.38"/>
<polygon fill="black" stroke="black" points="436.73,-334.79 437.96,-324.27 430.44,-331.73 436.73,-334.79"/>
</g>
<!-- MySQL Cluster 7.5 -->
<g id="node26" class="node">
<title>MySQL Cluster 7.5</title>
<ellipse fill="none" stroke="#cd0000" cx="231.35" cy="-378" rx="81.49" ry="18"/>
<text text-anchor="middle" x="231.35" y="-374.3" font-family="Times,serif" font-size="14.00">MySQL Cluster 7.5</text>
</g>
<!-- MySQL 5.7&#45;&gt;MySQL Cluster 7.5 -->
<g id="edge31" class="edge">
<title>MySQL 5.7&#45;&gt;MySQL Cluster 7.5</title>
<path fill="none" stroke="black" d="M347.8,-434.83C326.32,-424.54 296.95,-410.45 273.08,-399.01"/>
<polygon fill="black" stroke="black" points="274.43,-395.77 263.9,-394.61 271.4,-402.09 274.43,-395.77"/>
</g>
<!-- MariaDB 10.2 -->
<g id="node33" class="node">
<title>MariaDB 10.2</title>
<ellipse fill="none" stroke="blue" cx="604.35" cy="-306" rx="62.29" ry="18"/>
<text text-anchor="middle" x="604.35" y="-302.3" font-family="Times,serif" font-size="14.00">MariaDB 10.2</text>
</g>
<!-- MySQL 5.7&#45;&gt;MariaDB 10.2 -->
<g id="edge51" class="edge">
<title>MySQL 5.7&#45;&gt;MariaDB 10.2</title>
<path fill="none" stroke="grey" d="M401.64,-433.8C442.39,-408.31 524.57,-356.91 570.8,-327.99"/>
<polygon fill="grey" stroke="grey" points="572.92,-330.79 579.54,-322.52 569.21,-324.85 572.92,-330.79"/>
</g>
<!-- Percona Server 8.0 -->
<g id="node52" class="node">
<title>Percona Server 8.0</title>
<ellipse fill="none" stroke="orange" cx="391.35" cy="-162" rx="77.99" ry="18"/>
<text text-anchor="middle" x="391.35" y="-158.3" font-family="Times,serif" font-size="14.00">Percona Server 8.0</text>
</g>
<!-- MySQL 8.0&#45;&gt;Percona Server 8.0 -->
<g id="edge80" class="edge">
<title>MySQL 8.0&#45;&gt;Percona Server 8.0</title>
<path fill="none" stroke="black" d="M358,-216.05C363.11,-207.92 369.35,-198 375.04,-188.94"/>
<polygon fill="black" stroke="black" points="378.13,-190.6 380.49,-180.28 372.2,-186.88 378.13,-190.6"/>
</g>
<!-- MySQL 6.0&#45;&gt;MySQL 5.5 -->
<g id="edge9" class="edge">
<title>MySQL 6.0&#45;&gt;MySQL 5.5</title>
<path fill="none" stroke="grey" d="M432.76,-865.43C420.88,-856.01 407.19,-842.93 399.35,-828 376.9,-785.25 373.27,-727.93 373.35,-694.47"/>
<polygon fill="grey" stroke="grey" points="376.85,-694.15 373.49,-684.1 369.85,-694.05 376.85,-694.15"/>
</g>
<!-- Drizzle 7.0 -->
<g id="node53" class="node">
<title>Drizzle 7.0</title>
<ellipse fill="none" stroke="#00008b" cx="458.35" cy="-810" rx="50.09" ry="18"/>
<text text-anchor="middle" x="458.35" y="-806.3" font-family="Times,serif" font-size="14.00">Drizzle 7.0</text>
</g>
<!-- MySQL 6.0&#45;&gt;Drizzle 7.0 -->
<g id="edge81" class="edge">
<title>MySQL 6.0&#45;&gt;Drizzle 7.0</title>
<path fill="none" stroke="black" d="M456.09,-863.7C456.42,-855.98 456.82,-846.71 457.18,-838.11"/>
<polygon fill="black" stroke="black" points="460.68,-838.25 457.61,-828.1 453.69,-837.95 460.68,-838.25"/>
</g>
<!-- MySQL 5.4 -->
<g id="node15" class="node">
<title>MySQL 5.4</title>
<ellipse fill="none" stroke="red" stroke-dasharray="1,5" cx="299.35" cy="-810" rx="53.09" ry="18"/>
<text text-anchor="middle" x="299.35" y="-806.3" font-family="Times,serif" font-size="14.00">MySQL 5.4</text>
</g>
<!-- MySQL 5.4&#45;&gt;MySQL 5.5 -->
<g id="edge10" class="edge">
<title>MySQL 5.4&#45;&gt;MySQL 5.5</title>
<path fill="none" stroke="grey" d="M308.24,-792.15C321.21,-767.6 345.42,-721.77 360.66,-692.91"/>
<polygon fill="grey" stroke="grey" points="363.88,-694.3 365.46,-683.82 357.69,-691.03 363.88,-694.3"/>
</g>
<!-- MySQL Cluster 7.6 -->
<g id="node16" class="node">
<title>MySQL Cluster 7.6</title>
<ellipse fill="none" stroke="#cd0000" cx="231.35" cy="-306" rx="81.49" ry="18"/>
<text text-anchor="middle" x="231.35" y="-302.3" font-family="Times,serif" font-size="14.00">MySQL Cluster 7.6</text>
</g>
<!-- MySQL Cluster 7.6&#45;&gt;MySQL 8.0 -->
<g id="edge14" class="edge">
<title>MySQL Cluster 7.6&#45;&gt;MySQL 8.0</title>
<path fill="none" stroke="black" d="M257.96,-288.94C274.48,-278.97 295.86,-266.07 313.56,-255.39"/>
<polygon fill="black" stroke="black" points="315.69,-258.19 322.44,-250.03 312.07,-252.2 315.69,-258.19"/>
</g>
<!-- MySQL 5.2&#45;&gt;MySQL 5.4 -->
<g id="edge17" class="edge">
<title>MySQL 5.2&#45;&gt;MySQL 5.4</title>
<path fill="none" stroke="black" stroke-dasharray="5,2" d="M322.84,-864.05C319.32,-856.09 315.03,-846.41 311.09,-837.51"/>
<polygon fill="black" stroke="black" points="314.25,-836 307,-828.28 307.85,-838.84 314.25,-836"/>
</g>
<!-- Percona Server 5.7&#45;&gt;MySQL 8.0 -->
<g id="edge18" class="edge">
<title>Percona Server 5.7&#45;&gt;MySQL 8.0</title>
<path fill="none" stroke="grey" d="M423.38,-288.76C409.73,-279.11 392.25,-266.75 377.49,-256.31"/>
<polygon fill="grey" stroke="grey" points="379.35,-253.34 369.16,-250.43 375.31,-259.06 379.35,-253.34"/>
</g>
<!-- Percona Server 5.7&#45;&gt;Percona Server 8.0 -->
<g id="edge79" class="edge">
<title>Percona Server 5.7&#45;&gt;Percona Server 8.0</title>
<path fill="none" stroke="black" d="M439.71,-287.87C430.26,-263.46 412.81,-218.43 401.66,-189.64"/>
<polygon fill="black" stroke="black" points="404.88,-188.25 398,-180.19 398.35,-190.78 404.88,-188.25"/>
</g>
<!-- MySQL Cluster 6.2&#45;&gt;MySQL Cluster 6.3 -->
<g id="edge21" class="edge">
<title>MySQL Cluster 6.2&#45;&gt;MySQL Cluster 6.3</title>
<path fill="none" stroke="black" d="M168.15,-864.05C163.78,-856.01 158.46,-846.2 153.58,-837.23"/>
<polygon fill="black" stroke="black" points="156.57,-835.39 148.72,-828.28 150.42,-838.73 156.57,-835.39"/>
</g>
<!-- MySQL Cluster 6.3&#45;&gt;MySQL Cluster 7.0 -->
<g id="edge23" class="edge">
<title>MySQL Cluster 6.3&#45;&gt;MySQL Cluster 7.0</title>
<path fill="none" stroke="black" d="M134.65,-791.7C132.53,-783.9 129.98,-774.51 127.63,-765.83"/>
<polygon fill="black" stroke="black" points="130.99,-764.84 124.99,-756.1 124.23,-766.67 130.99,-764.84"/>
</g>
<!-- MySQL Cluster 7.0&#45;&gt;MySQL Cluster 7.1 -->
<g id="edge25" class="edge">
<title>MySQL Cluster 7.0&#45;&gt;MySQL Cluster 7.1</title>
<path fill="none" stroke="black" d="M120.35,-719.7C120.35,-711.98 120.35,-702.71 120.35,-694.11"/>
<polygon fill="black" stroke="black" points="123.85,-694.1 120.35,-684.1 116.85,-694.1 123.85,-694.1"/>
</g>
<!-- MySQL Cluster 7.1&#45;&gt;MySQL Cluster 7.2 -->
<g id="edge27" class="edge">
<title>MySQL Cluster 7.1&#45;&gt;MySQL Cluster 7.2</title>
<path fill="none" stroke="black" d="M144.03,-648.59C157.58,-639.2 174.75,-627.29 189.48,-617.09"/>
<polygon fill="black" stroke="black" points="191.59,-619.88 197.81,-611.31 187.6,-614.13 191.59,-619.88"/>
</g>
<!-- MySQL Cluster 7.2&#45;&gt;MySQL Cluster 7.3 -->
<g id="edge29" class="edge">
<title>MySQL Cluster 7.2&#45;&gt;MySQL Cluster 7.3</title>
<path fill="none" stroke="black" d="M222.09,-575.7C222.42,-567.98 222.82,-558.71 223.18,-550.11"/>
<polygon fill="black" stroke="black" points="226.68,-550.25 223.61,-540.1 219.69,-549.95 226.68,-550.25"/>
</g>
<!-- MySQL Cluster 7.4 -->
<g id="node25" class="node">
<title>MySQL Cluster 7.4</title>
<ellipse fill="none" stroke="#cd0000" cx="224.35" cy="-450" rx="81.49" ry="18"/>
<text text-anchor="middle" x="224.35" y="-446.3" font-family="Times,serif" font-size="14.00">MySQL Cluster 7.4</text>
</g>
<!-- MySQL Cluster 7.3&#45;&gt;MySQL Cluster 7.4 -->
<g id="edge30" class="edge">
<title>MySQL Cluster 7.3&#45;&gt;MySQL Cluster 7.4</title>
<path fill="none" stroke="black" d="M224.35,-503.7C224.35,-495.98 224.35,-486.71 224.35,-478.11"/>
<polygon fill="black" stroke="black" points="227.85,-478.1 224.35,-468.1 220.85,-478.1 227.85,-478.1"/>
</g>
<!-- MySQL Cluster 7.4&#45;&gt;MySQL Cluster 7.5 -->
<g id="edge32" class="edge">
<title>MySQL Cluster 7.4&#45;&gt;MySQL Cluster 7.5</title>
<path fill="none" stroke="black" d="M226.08,-431.7C226.85,-423.98 227.78,-414.71 228.64,-406.11"/>
<polygon fill="black" stroke="black" points="232.12,-406.4 229.64,-396.1 225.16,-405.71 232.12,-406.4"/>
</g>
<!-- MySQL Cluster 7.5&#45;&gt;MySQL Cluster 7.6 -->
<g id="edge33" class="edge">
<title>MySQL Cluster 7.5&#45;&gt;MySQL Cluster 7.6</title>
<path fill="none" stroke="black" d="M231.35,-359.7C231.35,-351.98 231.35,-342.71 231.35,-334.11"/>
<polygon fill="black" stroke="black" points="234.85,-334.1 231.35,-324.1 227.85,-334.1 234.85,-334.1"/>
</g>
<!-- MariaDB 5.1&#45;&gt;MariaDB 5.2 -->
<g id="edge37" class="edge">
<title>MariaDB 5.1&#45;&gt;MariaDB 5.2</title>
<path fill="none" stroke="black" d="M660.35,-791.7C660.35,-783.98 660.35,-774.71 660.35,-766.11"/>
<polygon fill="black" stroke="black" points="663.85,-766.1 660.35,-756.1 656.85,-766.1 663.85,-766.1"/>
</g>
<!-- MariaDB 5.2&#45;&gt;MariaDB 5.3 -->
<g id="edge40" class="edge">
<title>MariaDB 5.2&#45;&gt;MariaDB 5.3</title>
<path fill="none" stroke="black" d="M660.35,-719.7C660.35,-711.98 660.35,-702.71 660.35,-694.11"/>
<polygon fill="black" stroke="black" points="663.85,-694.1 660.35,-684.1 656.85,-694.1 663.85,-694.1"/>
</g>
<!-- MariaDB 5.3&#45;&gt;MariaDB 5.5 -->
<g id="edge43" class="edge">
<title>MariaDB 5.3&#45;&gt;MariaDB 5.5</title>
<path fill="none" stroke="black" d="M658.67,-647.83C656.77,-629.83 653.27,-600.77 648.35,-576 646.65,-567.47 644.38,-558.27 642.16,-549.97"/>
<polygon fill="black" stroke="black" points="645.46,-548.77 639.43,-540.06 638.71,-550.63 645.46,-548.77"/>
</g>
<!-- MariaDB 5.3&#45;&gt;Percona Server 5.5 -->
<g id="edge74" class="edge">
<title>MariaDB 5.3&#45;&gt;Percona Server 5.5</title>
<path fill="none" stroke="grey" d="M637.88,-649.12C624.53,-639.67 607.39,-627.56 592.72,-617.18"/>
<polygon fill="grey" stroke="grey" points="594.59,-614.22 584.41,-611.31 590.55,-619.94 594.59,-614.22"/>
</g>
<!-- MariaDB 10.0 -->
<g id="node31" class="node">
<title>MariaDB 10.0</title>
<ellipse fill="none" stroke="blue" cx="604.35" cy="-450" rx="62.29" ry="18"/>
<text text-anchor="middle" x="604.35" y="-446.3" font-family="Times,serif" font-size="14.00">MariaDB 10.0</text>
</g>
<!-- MariaDB 5.5&#45;&gt;MariaDB 10.0 -->
<g id="edge45" class="edge">
<title>MariaDB 5.5&#45;&gt;MariaDB 10.0</title>
<path fill="none" stroke="black" d="M627.08,-504.05C623.67,-496.09 619.52,-486.41 615.71,-477.51"/>
<polygon fill="black" stroke="black" points="618.91,-476.09 611.75,-468.28 612.47,-478.85 618.91,-476.09"/>
</g>
<!-- MariaDB 10.1 -->
<g id="node32" class="node">
<title>MariaDB 10.1</title>
<ellipse fill="none" stroke="blue" cx="604.35" cy="-378" rx="62.29" ry="18"/>
<text text-anchor="middle" x="604.35" y="-374.3" font-family="Times,serif" font-size="14.00">MariaDB 10.1</text>
</g>
<!-- MariaDB 10.0&#45;&gt;MariaDB 10.1 -->
<g id="edge46" class="edge">
<title>MariaDB 10.0&#45;&gt;MariaDB 10.1</title>
<path fill="none" stroke="black" d="M604.35,-431.7C604.35,-423.98 604.35,-414.71 604.35,-406.11"/>
<polygon fill="black" stroke="black" points="607.85,-406.1 604.35,-396.1 600.85,-406.1 607.85,-406.1"/>
</g>
<!-- MariaDB 10.1&#45;&gt;MariaDB 10.2 -->
<g id="edge48" class="edge">
<title>MariaDB 10.1&#45;&gt;MariaDB 10.2</title>
<path fill="none" stroke="black" d="M604.35,-359.7C604.35,-351.98 604.35,-342.71 604.35,-334.11"/>
<polygon fill="black" stroke="black" points="607.85,-334.1 604.35,-324.1 600.85,-334.1 607.85,-334.1"/>
</g>
<!-- MariaDB ColumnStore 1.0 -->
<g id="node47" class="node">
<title>MariaDB ColumnStore 1.0</title>
<ellipse fill="none" stroke="dodgerblue" cx="792.35" cy="-306" rx="107.78" ry="18"/>
<text text-anchor="middle" x="792.35" y="-302.3" font-family="Times,serif" font-size="14.00">MariaDB ColumnStore 1.0</text>
</g>
<!-- MariaDB 10.1&#45;&gt;MariaDB ColumnStore 1.0 -->
<g id="edge62" class="edge">
<title>MariaDB 10.1&#45;&gt;MariaDB ColumnStore 1.0</title>
<path fill="none" stroke="black" d="M641.04,-363.34C669.42,-352.77 709.05,-338.01 740.64,-326.25"/>
<polygon fill="black" stroke="black" points="742.02,-329.48 750.17,-322.71 739.57,-322.92 742.02,-329.48"/>
</g>
<!-- MariaDB 10.3 -->
<g id="node34" class="node">
<title>MariaDB 10.3</title>
<ellipse fill="none" stroke="blue" cx="604.35" cy="-234" rx="62.29" ry="18"/>
<text text-anchor="middle" x="604.35" y="-230.3" font-family="Times,serif" font-size="14.00">MariaDB 10.3</text>
</g>
<!-- MariaDB 10.2&#45;&gt;MariaDB 10.3 -->
<g id="edge50" class="edge">
<title>MariaDB 10.2&#45;&gt;MariaDB 10.3</title>
<path fill="none" stroke="black" d="M604.35,-287.7C604.35,-279.98 604.35,-270.71 604.35,-262.11"/>
<polygon fill="black" stroke="black" points="607.85,-262.1 604.35,-252.1 600.85,-262.1 607.85,-262.1"/>
</g>
<!-- MariaDB ColumnStore 1.1 -->
<g id="node48" class="node">
<title>MariaDB ColumnStore 1.1</title>
<ellipse fill="none" stroke="dodgerblue" cx="792.35" cy="-234" rx="107.78" ry="18"/>
<text text-anchor="middle" x="792.35" y="-230.3" font-family="Times,serif" font-size="14.00">MariaDB ColumnStore 1.1</text>
</g>
<!-- MariaDB 10.2&#45;&gt;MariaDB ColumnStore 1.1 -->
<g id="edge64" class="edge">
<title>MariaDB 10.2&#45;&gt;MariaDB ColumnStore 1.1</title>
<path fill="none" stroke="black" d="M641.04,-291.34C669.42,-280.77 709.05,-266.01 740.64,-254.25"/>
<polygon fill="black" stroke="black" points="742.02,-257.48 750.17,-250.71 739.57,-250.92 742.02,-257.48"/>
</g>
<!-- MariaDB 10.4 -->
<g id="node35" class="node">
<title>MariaDB 10.4</title>
<ellipse fill="none" stroke="blue" cx="604.35" cy="-90" rx="62.29" ry="18"/>
<text text-anchor="middle" x="604.35" y="-86.3" font-family="Times,serif" font-size="14.00">MariaDB 10.4</text>
</g>
<!-- MariaDB 10.3&#45;&gt;MariaDB 10.4 -->
<g id="edge52" class="edge">
<title>MariaDB 10.3&#45;&gt;MariaDB 10.4</title>
<path fill="none" stroke="black" d="M604.35,-215.87C604.35,-191.67 604.35,-147.21 604.35,-118.39"/>
<polygon fill="black" stroke="black" points="607.85,-118.19 604.35,-108.19 600.85,-118.19 607.85,-118.19"/>
</g>
<!-- MariaDB ColumnStore 1.2 -->
<g id="node49" class="node">
<title>MariaDB ColumnStore 1.2</title>
<ellipse fill="none" stroke="dodgerblue" cx="792.35" cy="-162" rx="107.78" ry="18"/>
<text text-anchor="middle" x="792.35" y="-158.3" font-family="Times,serif" font-size="14.00">MariaDB ColumnStore 1.2</text>
</g>
<!-- MariaDB 10.3&#45;&gt;MariaDB ColumnStore 1.2 -->
<g id="edge66" class="edge">
<title>MariaDB 10.3&#45;&gt;MariaDB ColumnStore 1.2</title>
<path fill="none" stroke="black" d="M641.04,-219.34C669.42,-208.77 709.05,-194.01 740.64,-182.25"/>
<polygon fill="black" stroke="black" points="742.02,-185.48 750.17,-178.71 739.57,-178.92 742.02,-185.48"/>
</g>
<!-- MariaDB 10.5 -->
<g id="node36" class="node">
<title>MariaDB 10.5</title>
<ellipse fill="none" stroke="blue" stroke-dasharray="5,2" cx="698.35" cy="-18" rx="62.29" ry="18"/>
<text text-anchor="middle" x="698.35" y="-14.3" font-family="Times,serif" font-size="14.00">MariaDB 10.5</text>
</g>
<!-- MariaDB 10.4&#45;&gt;MariaDB 10.5 -->
<g id="edge53" class="edge">
<title>MariaDB 10.4&#45;&gt;MariaDB 10.5</title>
<path fill="none" stroke="black" stroke-dasharray="5,2" d="M626.15,-72.76C638.72,-63.4 654.72,-51.49 668.45,-41.26"/>
<polygon fill="black" stroke="black" points="670.73,-43.93 676.66,-35.15 666.55,-38.31 670.73,-43.93"/>
</g>
<!-- Percona Server 5.1&#45;&gt;MariaDB 5.1 -->
<g id="edge35" class="edge">
<title>Percona Server 5.1&#45;&gt;MariaDB 5.1</title>
<path fill="none" stroke="grey" d="M720.62,-864.41C710.42,-855.37 697.62,-844.03 686.45,-834.13"/>
<polygon fill="grey" stroke="grey" points="688.47,-831.24 678.66,-827.23 683.82,-836.48 688.47,-831.24"/>
</g>
<!-- Percona Server 5.1&#45;&gt;MariaDB 5.2 -->
<g id="edge38" class="edge">
<title>Percona Server 5.1&#45;&gt;MariaDB 5.2</title>
<path fill="none" stroke="grey" d="M740.7,-863.73C741.38,-844.86 740.08,-814.35 727.35,-792 720.02,-779.14 708.23,-768.25 696.56,-759.76"/>
<polygon fill="grey" stroke="grey" points="698.38,-756.76 688.16,-754 694.43,-762.54 698.38,-756.76"/>
</g>
<!-- Percona Server 5.1&#45;&gt;MariaDB 5.3 -->
<g id="edge41" class="edge">
<title>Percona Server 5.1&#45;&gt;MariaDB 5.3</title>
<path fill="none" stroke="grey" d="M743.09,-863.79C748.92,-832.36 756.67,-764.79 727.35,-720 719.11,-707.42 706.89,-696.49 695.13,-687.88"/>
<polygon fill="grey" stroke="grey" points="696.92,-684.86 686.71,-682.03 692.92,-690.61 696.92,-684.86"/>
</g>
<!-- Percona Server 5.1&#45;&gt;Percona Server 5.5 -->
<g id="edge73" class="edge">
<title>Percona Server 5.1&#45;&gt;Percona Server 5.5</title>
<path fill="none" stroke="black" d="M748.48,-863.88C753.35,-853.76 758.85,-840.51 761.35,-828 777.26,-748.16 784.18,-706.29 727.35,-648 704.67,-624.74 671.81,-611.67 641.3,-604.33"/>
<polygon fill="black" stroke="black" points="642.01,-600.9 631.49,-602.14 640.49,-607.74 642.01,-600.9"/>
</g>
<!-- Percona Server 5.5&#45;&gt;MariaDB 5.5 -->
<g id="edge44" class="edge">
<title>Percona Server 5.5&#45;&gt;MariaDB 5.5</title>
<path fill="none" stroke="grey" d="M578.65,-576.41C587.99,-567.45 599.67,-556.25 609.92,-546.42"/>
<polygon fill="grey" stroke="grey" points="612.63,-548.68 617.42,-539.23 607.78,-543.62 612.63,-548.68"/>
</g>
<!-- Percona Server 5.5&#45;&gt;Percona Server 5.6 -->
<g id="edge76" class="edge">
<title>Percona Server 5.5&#45;&gt;Percona Server 5.6</title>
<path fill="none" stroke="black" d="M542.15,-576.41C531.66,-567.34 518.5,-555.97 507.03,-546.06"/>
<polygon fill="black" stroke="black" points="509.26,-543.36 499.4,-539.47 504.68,-548.66 509.26,-543.36"/>
</g>
<!-- Percona Server 5.6&#45;&gt;Percona Server 5.7 -->
<g id="edge78" class="edge">
<title>Percona Server 5.6&#45;&gt;Percona Server 5.7</title>
<path fill="none" stroke="black" d="M477.62,-503.85C471.74,-466.83 457.81,-379.18 450.7,-334.39"/>
<polygon fill="black" stroke="black" points="454.11,-333.56 449.08,-324.23 447.2,-334.66 454.11,-333.56"/>
</g>
<!-- Percona Server 5.6&#45;&gt;MariaDB 10.0 -->
<g id="edge47" class="edge">
<title>Percona Server 5.6&#45;&gt;MariaDB 10.0</title>
<path fill="none" stroke="grey" d="M508.48,-505.12C526.25,-495.09 549.37,-482.04 568.45,-471.27"/>
<polygon fill="grey" stroke="grey" points="570.18,-474.3 577.17,-466.34 566.74,-468.21 570.18,-474.3"/>
</g>
<!-- Percona Server 5.6&#45;&gt;MariaDB 10.1 -->
<g id="edge49" class="edge">
<title>Percona Server 5.6&#45;&gt;MariaDB 10.1</title>
<path fill="none" stroke="grey" d="M487.98,-503.96C497.01,-485.02 513.36,-454.18 533.35,-432 544.05,-420.11 557.78,-409.14 570.3,-400.3"/>
<polygon fill="grey" stroke="grey" points="572.45,-403.07 578.73,-394.53 568.5,-397.29 572.45,-403.07"/>
</g>
<!-- InfiniDB 2.0 -->
<g id="node41" class="node">
<title>InfiniDB 2.0</title>
<ellipse fill="none" stroke="steelblue" cx="906.35" cy="-810" rx="55.79" ry="18"/>
<text text-anchor="middle" x="906.35" y="-806.3" font-family="Times,serif" font-size="14.00">InfiniDB 2.0</text>
</g>
<!-- InfiniDB 1.5&#45;&gt;InfiniDB 2.0 -->
<g id="edge55" class="edge">
<title>InfiniDB 1.5&#45;&gt;InfiniDB 2.0</title>
<path fill="none" stroke="black" d="M900.32,-863.7C901.21,-855.98 902.26,-846.71 903.25,-838.11"/>
<polygon fill="black" stroke="black" points="906.73,-838.44 904.39,-828.1 899.78,-837.64 906.73,-838.44"/>
</g>
<!-- InfiniDB 2.2 -->
<g id="node42" class="node">
<title>InfiniDB 2.2</title>
<ellipse fill="none" stroke="steelblue" cx="906.35" cy="-738" rx="55.79" ry="18"/>
<text text-anchor="middle" x="906.35" y="-734.3" font-family="Times,serif" font-size="14.00">InfiniDB 2.2</text>
</g>
<!-- InfiniDB 2.0&#45;&gt;InfiniDB 2.2 -->
<g id="edge56" class="edge">
<title>InfiniDB 2.0&#45;&gt;InfiniDB 2.2</title>
<path fill="none" stroke="black" d="M906.35,-791.7C906.35,-783.98 906.35,-774.71 906.35,-766.11"/>
<polygon fill="black" stroke="black" points="909.85,-766.1 906.35,-756.1 902.85,-766.1 909.85,-766.1"/>
</g>
<!-- InfiniDB 3.5 -->
<g id="node43" class="node">
<title>InfiniDB 3.5</title>
<ellipse fill="none" stroke="steelblue" cx="906.35" cy="-666" rx="55.79" ry="18"/>
<text text-anchor="middle" x="906.35" y="-662.3" font-family="Times,serif" font-size="14.00">InfiniDB 3.5</text>
</g>
<!-- InfiniDB 2.2&#45;&gt;InfiniDB 3.5 -->
<g id="edge57" class="edge">
<title>InfiniDB 2.2&#45;&gt;InfiniDB 3.5</title>
<path fill="none" stroke="black" d="M906.35,-719.7C906.35,-711.98 906.35,-702.71 906.35,-694.11"/>
<polygon fill="black" stroke="black" points="909.85,-694.1 906.35,-684.1 902.85,-694.1 909.85,-694.1"/>
</g>
<!-- InfiniDB 3.6 -->
<g id="node44" class="node">
<title>InfiniDB 3.6</title>
<ellipse fill="none" stroke="steelblue" cx="893.35" cy="-594" rx="55.79" ry="18"/>
<text text-anchor="middle" x="893.35" y="-590.3" font-family="Times,serif" font-size="14.00">InfiniDB 3.6</text>
</g>
<!-- InfiniDB 3.5&#45;&gt;InfiniDB 3.6 -->
<g id="edge58" class="edge">
<title>InfiniDB 3.5&#45;&gt;InfiniDB 3.6</title>
<path fill="none" stroke="black" d="M903.13,-647.7C901.7,-639.98 899.98,-630.71 898.38,-622.11"/>
<polygon fill="black" stroke="black" points="901.79,-621.3 896.52,-612.1 894.91,-622.58 901.79,-621.3"/>
</g>
<!-- InfiniDB 4.0 -->
<g id="node45" class="node">
<title>InfiniDB 4.0</title>
<ellipse fill="none" stroke="steelblue" cx="880.35" cy="-522" rx="55.79" ry="18"/>
<text text-anchor="middle" x="880.35" y="-518.3" font-family="Times,serif" font-size="14.00">InfiniDB 4.0</text>
</g>
<!-- InfiniDB 3.6&#45;&gt;InfiniDB 4.0 -->
<g id="edge59" class="edge">
<title>InfiniDB 3.6&#45;&gt;InfiniDB 4.0</title>
<path fill="none" stroke="black" d="M890.13,-575.7C888.7,-567.98 886.98,-558.71 885.38,-550.11"/>
<polygon fill="black" stroke="black" points="888.79,-549.3 883.52,-540.1 881.91,-550.58 888.79,-549.3"/>
</g>
<!-- InfiniDB 4.5 -->
<g id="node46" class="node">
<title>InfiniDB 4.5</title>
<ellipse fill="none" stroke="steelblue" cx="799.35" cy="-378" rx="55.79" ry="18"/>
<text text-anchor="middle" x="799.35" y="-374.3" font-family="Times,serif" font-size="14.00">InfiniDB 4.5</text>
</g>
<!-- InfiniDB 4.0&#45;&gt;InfiniDB 4.5 -->
<g id="edge60" class="edge">
<title>InfiniDB 4.0&#45;&gt;InfiniDB 4.5</title>
<path fill="none" stroke="black" d="M870.74,-504.15C856.67,-479.49 830.36,-433.37 813.91,-404.53"/>
<polygon fill="black" stroke="black" points="816.94,-402.78 808.94,-395.82 810.86,-406.25 816.94,-402.78"/>
</g>
<!-- InfiniDB 4.5&#45;&gt;MariaDB ColumnStore 1.0 -->
<g id="edge61" class="edge">
<title>InfiniDB 4.5&#45;&gt;MariaDB ColumnStore 1.0</title>
<path fill="none" stroke="black" d="M797.62,-359.7C796.84,-351.98 795.92,-342.71 795.06,-334.11"/>
<polygon fill="black" stroke="black" points="798.53,-333.71 794.06,-324.1 791.57,-334.4 798.53,-333.71"/>
</g>
<!-- MariaDB ColumnStore 1.0&#45;&gt;MariaDB ColumnStore 1.1 -->
<g id="edge63" class="edge">
<title>MariaDB ColumnStore 1.0&#45;&gt;MariaDB ColumnStore 1.1</title>
<path fill="none" stroke="black" d="M792.35,-287.7C792.35,-279.98 792.35,-270.71 792.35,-262.11"/>
<polygon fill="black" stroke="black" points="795.85,-262.1 792.35,-252.1 788.85,-262.1 795.85,-262.1"/>
</g>
<!-- MariaDB ColumnStore 1.1&#45;&gt;MariaDB ColumnStore 1.2 -->
<g id="edge65" class="edge">
<title>MariaDB ColumnStore 1.1&#45;&gt;MariaDB ColumnStore 1.2</title>
<path fill="none" stroke="black" d="M792.35,-215.7C792.35,-207.98 792.35,-198.71 792.35,-190.11"/>
<polygon fill="black" stroke="black" points="795.85,-190.1 792.35,-180.1 788.85,-190.1 795.85,-190.1"/>
</g>
<!-- MariaDB ColumnStore 1.4 -->
<g id="node50" class="node">
<title>MariaDB ColumnStore 1.4</title>
<ellipse fill="none" stroke="dodgerblue" stroke-dasharray="1,5" cx="792.35" cy="-90" rx="107.78" ry="18"/>
<text text-anchor="middle" x="792.35" y="-86.3" font-family="Times,serif" font-size="14.00">MariaDB ColumnStore 1.4</text>
</g>
<!-- MariaDB ColumnStore 1.2&#45;&gt;MariaDB ColumnStore 1.4 -->
<g id="edge67" class="edge">
<title>MariaDB ColumnStore 1.2&#45;&gt;MariaDB ColumnStore 1.4</title>
<path fill="none" stroke="black" d="M792.35,-143.7C792.35,-135.98 792.35,-126.71 792.35,-118.11"/>
<polygon fill="black" stroke="black" points="795.85,-118.1 792.35,-108.1 788.85,-118.1 795.85,-118.1"/>
</g>
<!-- MariaDB ColumnStore 1.4&#45;&gt;MariaDB 10.5 -->
<g id="edge68" class="edge">
<title>MariaDB ColumnStore 1.4&#45;&gt;MariaDB 10.5</title>
<path fill="none" stroke="black" stroke-dasharray="5,2" d="M769.59,-72.05C757.08,-62.74 741.42,-51.07 727.97,-41.06"/>
<polygon fill="black" stroke="black" points="730.03,-38.23 719.92,-35.07 725.85,-43.85 730.03,-38.23"/>
</g>
<!-- Percona Server 5.0&#45;&gt;Percona Server 5.1 -->
<g id="edge71" class="edge">
<title>Percona Server 5.0&#45;&gt;Percona Server 5.1</title>
<path fill="none" stroke="black" d="M695.39,-936.05C702.44,-927.54 711.12,-917.07 718.9,-907.68"/>
<polygon fill="black" stroke="black" points="721.75,-909.72 725.44,-899.79 716.36,-905.26 721.75,-909.72"/>
</g>
<!-- Drizzle 7.1 -->
<g id="node54" class="node">
<title>Drizzle 7.1</title>
<ellipse fill="none" stroke="#00008b" cx="458.35" cy="-738" rx="50.09" ry="18"/>
<text text-anchor="middle" x="458.35" y="-734.3" font-family="Times,serif" font-size="14.00">Drizzle 7.1</text>
</g>
<!-- Drizzle 7.0&#45;&gt;Drizzle 7.1 -->
<g id="edge82" class="edge">
<title>Drizzle 7.0&#45;&gt;Drizzle 7.1</title>
<path fill="none" stroke="black" d="M458.35,-791.7C458.35,-783.98 458.35,-774.71 458.35,-766.11"/>
<polygon fill="black" stroke="black" points="461.85,-766.1 458.35,-756.1 454.85,-766.1 461.85,-766.1"/>
</g>
<!-- Drizzle 7.2 -->
<g id="node55" class="node">
<title>Drizzle 7.2</title>
<ellipse fill="none" stroke="#00008b" stroke-dasharray="5,2" cx="495.35" cy="-666" rx="50.09" ry="18"/>
<text text-anchor="middle" x="495.35" y="-662.3" font-family="Times,serif" font-size="14.00">Drizzle 7.2</text>
</g>
<!-- Drizzle 7.1&#45;&gt;Drizzle 7.2 -->
<g id="edge83" class="edge">
<title>Drizzle 7.1&#45;&gt;Drizzle 7.2</title>
<path fill="none" stroke="black" stroke-dasharray="5,2" d="M467.3,-720.05C471.62,-711.89 476.89,-701.91 481.7,-692.82"/>
<polygon fill="black" stroke="black" points="484.89,-694.27 486.47,-683.79 478.7,-690.99 484.89,-694.27"/>
</g>
</g>
</svg>
