<?xml version="1.0" encoding="UTF-8" standalone="no"?>
<!DOCTYPE svg PUBLIC "-//W3C//DTD SVG 1.1//EN"
 "http://www.w3.org/Graphics/SVG/1.1/DTD/svg11.dtd">
<!-- Generated by graphviz version 2.26.3 (20100126.1600)
 -->
<!-- Title: mysql_history_graph Pages: 1 -->
<svg width="1114pt" height="955pt"
 viewBox="0.00 0.00 1114.00 955.00" xmlns="http://www.w3.org/2000/svg" xmlns:xlink="http://www.w3.org/1999/xlink">
<g id="graph1" class="graph" transform="scale(1 1) rotate(0) translate(4 951)">
<title>mysql_history_graph</title>
<polygon fill="white" stroke="white" points="-4,5 -4,-951 1111,-951 1111,5 -4,5"/>
<g id="graph2" class="cluster"><title>cluster_0</title>
<polygon fill="none" stroke="black" points="48,-677 48,-939 676,-939 676,-677 48,-677"/>
<text text-anchor="middle" x="362" y="-922.4" font-family="Times Roman,serif" font-size="14.00">Legend</text>
</g>
<!-- Non&#45;GA -->
<g id="node2" class="node"><title>Non&#45;GA</title>
<ellipse fill="none" stroke="black" stroke-dasharray="1,5" cx="614" cy="-887" rx="54" ry="18"/>
<text text-anchor="middle" x="614" y="-883.7" font-family="Times Roman,serif" font-size="12.00">Non&#45;GA</text>
</g>
<!-- Abbandoned -->
<g id="node3" class="node"><title>Abbandoned</title>
<ellipse fill="none" stroke="black" stroke-dasharray="1,5" cx="614" cy="-795" rx="54" ry="18"/>
<text text-anchor="middle" x="614" y="-791.7" font-family="Times Roman,serif" font-size="12.00">Abbandoned</text>
</g>
<!-- Non&#45;GA&#45;&gt;Abbandoned -->
<g id="edge3" class="edge"><title>Non&#45;GA&#45;&gt;Abbandoned</title>
</g>
<!-- Oracle MySQL -->
<g id="node4" class="node"><title>Oracle MySQL</title>
<ellipse fill="none" stroke="red" cx="488" cy="-887" rx="54" ry="18"/>
<text text-anchor="middle" x="488" y="-883.7" font-family="Times Roman,serif" font-size="12.00">Oracle MySQL</text>
</g>
<!-- MySQL Cluster -->
<g id="node5" class="node"><title>MySQL Cluster</title>
<ellipse fill="none" stroke="#cd0000" cx="488" cy="-795" rx="54" ry="18"/>
<text text-anchor="middle" x="488" y="-791.7" font-family="Times Roman,serif" font-size="12.00">MySQL Cluster</text>
</g>
<!-- Oracle MySQL&#45;&gt;MySQL Cluster -->
<g id="edge5" class="edge"><title>Oracle MySQL&#45;&gt;MySQL Cluster</title>
</g>
<!-- MariaDB -->
<g id="node6" class="node"><title>MariaDB</title>
<ellipse fill="none" stroke="blue" cx="488" cy="-703" rx="54" ry="18"/>
<text text-anchor="middle" x="488" y="-699.7" font-family="Times Roman,serif" font-size="12.00">MariaDB</text>
</g>
<!-- MySQL Cluster&#45;&gt;MariaDB -->
<g id="edge7" class="edge"><title>MySQL Cluster&#45;&gt;MariaDB</title>
</g>
<!-- Drizzle -->
<g id="node7" class="node"><title>Drizzle</title>
<ellipse fill="none" stroke="#00008b" cx="362" cy="-887" rx="54" ry="18"/>
<text text-anchor="middle" x="362" y="-883.7" font-family="Times Roman,serif" font-size="12.00">Drizzle</text>
</g>
<!-- Percona Server -->
<g id="node8" class="node"><title>Percona Server</title>
<ellipse fill="none" stroke="orange" cx="362" cy="-795" rx="54" ry="18"/>
<text text-anchor="middle" x="362" y="-791.7" font-family="Times Roman,serif" font-size="12.00">Percona Server</text>
</g>
<!-- Drizzle&#45;&gt;Percona Server -->
<g id="edge9" class="edge"><title>Drizzle&#45;&gt;Percona Server</title>
</g>
<!-- a -->
<g id="node13" class="node"><title>a</title>
</g>
<!-- b -->
<g id="node14" class="node"><title>b</title>
</g>
<!-- a&#45;&gt;b -->
<g id="edge11" class="edge"><title>a&#45;&gt;b</title>
<path fill="none" stroke="black" d="M236,-868.824C236,-855.845 236,-838.133 236,-823.311"/>
<polygon fill="black" stroke="black" points="239.5,-823.138 236,-813.138 232.5,-823.139 239.5,-823.138"/>
<text text-anchor="middle" x="284.5" y="-837.4" font-family="Times Roman,serif" font-size="14.00">direct relation</text>
</g>
<!-- c -->
<g id="node15" class="node"><title>c</title>
</g>
<!-- b&#45;&gt;c -->
<g id="edge13" class="edge"><title>b&#45;&gt;c</title>
<path fill="none" stroke="grey" d="M236,-776.824C236,-763.845 236,-746.133 236,-731.311"/>
<polygon fill="grey" stroke="grey" points="239.5,-731.138 236,-721.138 232.5,-731.139 239.5,-731.138"/>
<text text-anchor="middle" x="276" y="-745.4" font-family="Times Roman,serif" font-size="14.00">code merge</text>
</g>
<!-- d -->
<g id="node16" class="node"><title>d</title>
</g>
<!-- MySQL 3.23 -->
<g id="node19" class="node"><title>MySQL 3.23</title>
<ellipse fill="none" stroke="red" cx="757" cy="-887" rx="70.9184" ry="18.3848"/>
<text text-anchor="middle" x="757" y="-883.4" font-family="Times Roman,serif" font-size="14.00">MySQL 3.23</text>
</g>
<!-- MySQL 4.0 -->
<g id="node20" class="node"><title>MySQL 4.0</title>
<ellipse fill="none" stroke="red" cx="757" cy="-795" rx="65.0538" ry="18.3848"/>
<text text-anchor="middle" x="757" y="-791.4" font-family="Times Roman,serif" font-size="14.00">MySQL 4.0</text>
</g>
<!-- MySQL 3.23&#45;&gt;MySQL 4.0 -->
<g id="edge15" class="edge"><title>MySQL 3.23&#45;&gt;MySQL 4.0</title>
<path fill="none" stroke="black" d="M757,-868.382C757,-855.538 757,-838.216 757,-823.627"/>
<polygon fill="black" stroke="black" points="760.5,-823.59 757,-813.59 753.5,-823.59 760.5,-823.59"/>
</g>
<!-- MySQL 4.1 -->
<g id="node21" class="node"><title>MySQL 4.1</title>
<ellipse fill="none" stroke="red" cx="757" cy="-703" rx="65.0538" ry="18.3848"/>
<text text-anchor="middle" x="757" y="-699.4" font-family="Times Roman,serif" font-size="14.00">MySQL 4.1</text>
</g>
<!-- MySQL 4.0&#45;&gt;MySQL 4.1 -->
<g id="edge17" class="edge"><title>MySQL 4.0&#45;&gt;MySQL 4.1</title>
<path fill="none" stroke="black" d="M757,-776.382C757,-763.538 757,-746.216 757,-731.627"/>
<polygon fill="black" stroke="black" points="760.5,-731.59 757,-721.59 753.5,-731.59 760.5,-731.59"/>
</g>
<!-- MySQL 5.0 -->
<g id="node22" class="node"><title>MySQL 5.0</title>
<ellipse fill="none" stroke="red" cx="757" cy="-627" rx="65.0538" ry="18.3848"/>
<text text-anchor="middle" x="757" y="-623.4" font-family="Times Roman,serif" font-size="14.00">MySQL 5.0</text>
</g>
<!-- MySQL 4.1&#45;&gt;MySQL 5.0 -->
<g id="edge19" class="edge"><title>MySQL 4.1&#45;&gt;MySQL 5.0</title>
<path fill="none" stroke="black" d="M757,-684.213C757,-675.654 757,-665.33 757,-655.822"/>
<polygon fill="black" stroke="black" points="760.5,-655.57 757,-645.57 753.5,-655.57 760.5,-655.57"/>
</g>
<!-- MySQL 5.1 -->
<g id="node23" class="node"><title>MySQL 5.1</title>
<ellipse fill="none" stroke="red" cx="705" cy="-551" rx="65.0538" ry="18.3848"/>
<text text-anchor="middle" x="705" y="-547.4" font-family="Times Roman,serif" font-size="14.00">MySQL 5.1</text>
</g>
<!-- MySQL 5.0&#45;&gt;MySQL 5.1 -->
<g id="edge21" class="edge"><title>MySQL 5.0&#45;&gt;MySQL 5.1</title>
<path fill="none" stroke="black" d="M744.412,-608.603C738.025,-599.267 730.151,-587.759 723.124,-577.489"/>
<polygon fill="black" stroke="black" points="726.007,-575.505 717.472,-569.228 720.23,-579.458 726.007,-575.505"/>
</g>
<!-- Percona Server 5.0 -->
<g id="node77" class="node"><title>Percona Server 5.0</title>
<ellipse fill="none" stroke="orange" cx="1000" cy="-551" rx="104.151" ry="18.3848"/>
<text text-anchor="middle" x="1000" y="-547.4" font-family="Times Roman,serif" font-size="14.00">Percona Server 5.0</text>
</g>
<!-- MySQL 5.0&#45;&gt;Percona Server 5.0 -->
<g id="edge85" class="edge"><title>MySQL 5.0&#45;&gt;Percona Server 5.0</title>
<path fill="none" stroke="black" d="M801.005,-613.237C839.452,-601.213 895.666,-583.631 938.548,-570.22"/>
<polygon fill="black" stroke="black" points="939.812,-573.491 948.311,-567.166 937.723,-566.811 939.812,-573.491"/>
</g>
<!-- MySQL 5.5 -->
<g id="node24" class="node"><title>MySQL 5.5</title>
<ellipse fill="none" stroke="red" cx="643" cy="-247" rx="65.0538" ry="18.3848"/>
<text text-anchor="middle" x="643" y="-243.4" font-family="Times Roman,serif" font-size="14.00">MySQL 5.5</text>
</g>
<!-- MySQL 5.1&#45;&gt;MySQL 5.5 -->
<g id="edge23" class="edge"><title>MySQL 5.1&#45;&gt;MySQL 5.5</title>
<path fill="none" stroke="black" d="M711.699,-532.418C725.971,-489.539 755.095,-381.43 717,-304 709.894,-289.557 697.174,-277.745 684.261,-268.695"/>
<polygon fill="black" stroke="black" points="686.086,-265.706 675.805,-263.147 682.246,-271.559 686.086,-265.706"/>
</g>
<!-- MySQL 5.4 -->
<g id="node32" class="node"><title>MySQL 5.4</title>
<ellipse fill="none" stroke="red" stroke-dasharray="1,5" cx="643" cy="-323" rx="65.0538" ry="18.3848"/>
<text text-anchor="middle" x="643" y="-319.4" font-family="Times Roman,serif" font-size="14.00">MySQL 5.4</text>
</g>
<!-- MySQL 5.1&#45;&gt;MySQL 5.4 -->
<g id="edge31" class="edge"><title>MySQL 5.1&#45;&gt;MySQL 5.4</title>
<path fill="none" stroke="black" stroke-dasharray="5,2" d="M702.413,-532.389C697.244,-497.713 684.192,-421.19 662,-360 660.867,-356.877 659.529,-353.682 658.094,-350.542"/>
<polygon fill="black" stroke="black" points="661.16,-348.846 653.613,-341.41 654.876,-351.929 661.16,-348.846"/>
</g>
<!-- MySQL 6.0 -->
<g id="node34" class="node"><title>MySQL 6.0</title>
<ellipse fill="none" stroke="red" stroke-dasharray="1,5" cx="495" cy="-323" rx="65.0538" ry="18.3848"/>
<text text-anchor="middle" x="495" y="-319.4" font-family="Times Roman,serif" font-size="14.00">MySQL 6.0</text>
</g>
<!-- MySQL 5.1&#45;&gt;MySQL 6.0 -->
<g id="edge33" class="edge"><title>MySQL 5.1&#45;&gt;MySQL 6.0</title>
<path fill="none" stroke="black" stroke-dasharray="5,2" d="M698.159,-532.402C681.236,-486.793 637.789,-372.205 624,-360 621.062,-357.4 585.5,-347.292 552.459,-338.297"/>
<polygon fill="black" stroke="black" points="553.35,-334.912 542.782,-335.674 551.519,-341.668 553.35,-334.912"/>
</g>
<!-- MySQL Cluster 6.2 -->
<g id="node40" class="node"><title>MySQL Cluster 6.2</title>
<ellipse fill="none" stroke="#cd0000" cx="479" cy="-475" rx="103.238" ry="18.3848"/>
<text text-anchor="middle" x="479" y="-471.4" font-family="Times Roman,serif" font-size="14.00">MySQL Cluster 6.2</text>
</g>
<!-- MySQL 5.1&#45;&gt;MySQL Cluster 6.2 -->
<g id="edge37" class="edge"><title>MySQL 5.1&#45;&gt;MySQL Cluster 6.2</title>
<path fill="none" stroke="black" d="M662.756,-536.794C627.423,-524.912 576.646,-507.837 537.418,-494.645"/>
<polygon fill="black" stroke="black" points="538.304,-491.251 527.71,-491.381 536.073,-497.885 538.304,-491.251"/>
</g>
<!-- MySQL Cluster 6.3 -->
<g id="node41" class="node"><title>MySQL Cluster 6.3</title>
<ellipse fill="none" stroke="#cd0000" cx="348" cy="-399" rx="103.238" ry="18.3848"/>
<text text-anchor="middle" x="348" y="-395.4" font-family="Times Roman,serif" font-size="14.00">MySQL Cluster 6.3</text>
</g>
<!-- MySQL 5.1&#45;&gt;MySQL Cluster 6.3 -->
<g id="edge39" class="edge"><title>MySQL 5.1&#45;&gt;MySQL Cluster 6.3</title>
<path fill="none" stroke="black" d="M640.207,-548.601C553.157,-543.993 404.961,-530.827 367,-494 349.547,-477.068 345.747,-448.962 345.746,-427.702"/>
<polygon fill="black" stroke="black" points="349.247,-427.693 346.023,-417.6 342.25,-427.501 349.247,-427.693"/>
</g>
<!-- MySQL Cluster 7.0 -->
<g id="node42" class="node"><title>MySQL Cluster 7.0</title>
<ellipse fill="none" stroke="#cd0000" cx="309" cy="-323" rx="103.238" ry="18.3848"/>
<text text-anchor="middle" x="309" y="-319.4" font-family="Times Roman,serif" font-size="14.00">MySQL Cluster 7.0</text>
</g>
<!-- MySQL 5.1&#45;&gt;MySQL Cluster 7.0 -->
<g id="edge43" class="edge"><title>MySQL 5.1&#45;&gt;MySQL Cluster 7.0</title>
<path fill="none" stroke="black" d="M685.633,-533.118C663.577,-513.176 626.048,-480.507 591,-456 535.837,-417.428 520.804,-408.873 460,-380 430.452,-365.969 396.453,-352.882 368.207,-342.795"/>
<polygon fill="black" stroke="black" points="369.067,-339.387 358.472,-339.356 366.735,-345.988 369.067,-339.387"/>
</g>
<!-- MySQL Cluster 7.1 -->
<g id="node43" class="node"><title>MySQL Cluster 7.1</title>
<ellipse fill="none" stroke="#cd0000" cx="258" cy="-247" rx="103.238" ry="18.3848"/>
<text text-anchor="middle" x="258" y="-243.4" font-family="Times Roman,serif" font-size="14.00">MySQL Cluster 7.1</text>
</g>
<!-- MySQL 5.1&#45;&gt;MySQL Cluster 7.1 -->
<g id="edge47" class="edge"><title>MySQL 5.1&#45;&gt;MySQL Cluster 7.1</title>
<path fill="none" stroke="black" d="M640.643,-548.329C500.057,-541.633 178,-521.249 178,-475 178,-475 178,-475 178,-323 178,-300.573 194.73,-282.764 212.889,-270.04"/>
<polygon fill="black" stroke="black" points="214.825,-272.956 221.278,-264.553 210.993,-267.098 214.825,-272.956"/>
</g>
<!-- MariaDB 5.1 -->
<g id="node57" class="node"><title>MariaDB 5.1</title>
<ellipse fill="none" stroke="blue" cx="1033" cy="-399" rx="72.832" ry="18.3848"/>
<text text-anchor="middle" x="1033" y="-395.4" font-family="Times Roman,serif" font-size="14.00">MariaDB 5.1</text>
</g>
<!-- MySQL 5.1&#45;&gt;MariaDB 5.1 -->
<g id="edge59" class="edge"><title>MySQL 5.1&#45;&gt;MariaDB 5.1</title>
<path fill="none" stroke="black" d="M766.714,-544.957C859.807,-535.213 1027.24,-514.987 1045,-494 1060.58,-475.596 1054.65,-447.554 1046.59,-426.701"/>
<polygon fill="black" stroke="black" points="1049.78,-425.261 1042.67,-417.402 1043.33,-427.977 1049.78,-425.261"/>
</g>
<!-- MariaDB 5.2 -->
<g id="node58" class="node"><title>MariaDB 5.2</title>
<ellipse fill="none" stroke="blue" cx="951" cy="-323" rx="72.832" ry="18.3848"/>
<text text-anchor="middle" x="951" y="-319.4" font-family="Times Roman,serif" font-size="14.00">MariaDB 5.2</text>
</g>
<!-- MySQL 5.1&#45;&gt;MariaDB 5.2 -->
<g id="edge63" class="edge"><title>MySQL 5.1&#45;&gt;MariaDB 5.2</title>
<path fill="none" stroke="black" d="M742.008,-535.677C753.59,-529.879 765.957,-522.573 776,-514 800.406,-493.165 798.088,-480.34 819,-456 853.106,-416.303 896.474,-373.976 923.995,-348.001"/>
<polygon fill="black" stroke="black" points="926.424,-350.521 931.316,-341.124 921.631,-345.419 926.424,-350.521"/>
</g>
<!-- MariaDB 5.3 -->
<g id="node59" class="node"><title>MariaDB 5.3</title>
<ellipse fill="none" stroke="blue" cx="875" cy="-247" rx="72.832" ry="18.3848"/>
<text text-anchor="middle" x="875" y="-243.4" font-family="Times Roman,serif" font-size="14.00">MariaDB 5.3</text>
</g>
<!-- MySQL 5.1&#45;&gt;MariaDB 5.3 -->
<g id="edge69" class="edge"><title>MySQL 5.1&#45;&gt;MariaDB 5.3</title>
<path fill="none" stroke="black" d="M718.974,-532.906C723.326,-526.999 728.023,-520.329 732,-514 784.985,-429.686 837.832,-324.005 861.751,-274.708"/>
<polygon fill="black" stroke="black" points="864.941,-276.15 866.14,-265.623 858.638,-273.105 864.941,-276.15"/>
</g>
<!-- Percona Server 5.1 -->
<g id="node63" class="node"><title>Percona Server 5.1</title>
<ellipse fill="none" stroke="orange" cx="932" cy="-475" rx="104.151" ry="18.3848"/>
<text text-anchor="middle" x="932" y="-471.4" font-family="Times Roman,serif" font-size="14.00">Percona Server 5.1</text>
</g>
<!-- MySQL 5.1&#45;&gt;Percona Server 5.1 -->
<g id="edge87" class="edge"><title>MySQL 5.1&#45;&gt;Percona Server 5.1</title>
<path fill="none" stroke="black" d="M747.165,-536.883C782.625,-525.011 833.707,-507.909 873.187,-494.691"/>
<polygon fill="black" stroke="black" points="874.587,-497.913 882.958,-491.419 872.365,-491.275 874.587,-497.913"/>
</g>
<!-- MySQL 5.6 -->
<g id="node25" class="node"><title>MySQL 5.6</title>
<ellipse fill="none" stroke="red" cx="484" cy="-171" rx="65.0538" ry="18.3848"/>
<text text-anchor="middle" x="484" y="-167.4" font-family="Times Roman,serif" font-size="14.00">MySQL 5.6</text>
</g>
<!-- MySQL 5.5&#45;&gt;MySQL 5.6 -->
<g id="edge25" class="edge"><title>MySQL 5.5&#45;&gt;MySQL 5.6</title>
<path fill="none" stroke="black" d="M609.668,-231.068C585.5,-219.516 552.62,-203.799 526.554,-191.34"/>
<polygon fill="black" stroke="black" points="527.819,-188.066 517.288,-186.911 524.801,-194.382 527.819,-188.066"/>
</g>
<!-- MySQL Cluster 7.2 -->
<g id="node44" class="node"><title>MySQL Cluster 7.2</title>
<ellipse fill="none" stroke="#cd0000" cx="258" cy="-171" rx="103.238" ry="18.3848"/>
<text text-anchor="middle" x="258" y="-167.4" font-family="Times Roman,serif" font-size="14.00">MySQL Cluster 7.2</text>
</g>
<!-- MySQL 5.5&#45;&gt;MySQL Cluster 7.2 -->
<g id="edge51" class="edge"><title>MySQL 5.5&#45;&gt;MySQL Cluster 7.2</title>
<path fill="none" stroke="black" d="M589.467,-236.433C524.016,-223.512 412.67,-201.532 337.275,-186.649"/>
<polygon fill="black" stroke="black" points="337.833,-183.192 327.345,-184.689 336.477,-190.059 337.833,-183.192"/>
</g>
<!-- MariaDB 5.5 -->
<g id="node60" class="node"><title>MariaDB 5.5</title>
<ellipse fill="none" stroke="blue" cx="821" cy="-95" rx="72.832" ry="18.3848"/>
<text text-anchor="middle" x="821" y="-91.4" font-family="Times Roman,serif" font-size="14.00">MariaDB 5.5</text>
</g>
<!-- MySQL 5.5&#45;&gt;MariaDB 5.5 -->
<g id="edge75" class="edge"><title>MySQL 5.5&#45;&gt;MariaDB 5.5</title>
<path fill="none" stroke="black" d="M649.134,-228.276C656.858,-207.268 671.97,-173.343 695,-152 714.114,-134.286 739.672,-121.346 762.772,-112.316"/>
<polygon fill="black" stroke="black" points="764.018,-115.587 772.157,-108.804 761.565,-109.031 764.018,-115.587"/>
</g>
<!-- Percona Server 5.5 -->
<g id="node73" class="node"><title>Percona Server 5.5</title>
<ellipse fill="none" stroke="orange" cx="808" cy="-171" rx="104.151" ry="18.3848"/>
<text text-anchor="middle" x="808" y="-167.4" font-family="Times Roman,serif" font-size="14.00">Percona Server 5.5</text>
</g>
<!-- MySQL 5.5&#45;&gt;Percona Server 5.5 -->
<g id="edge91" class="edge"><title>MySQL 5.5&#45;&gt;Percona Server 5.5</title>
<path fill="none" stroke="black" d="M677.188,-231.253C701.506,-220.052 734.471,-204.868 761.225,-192.545"/>
<polygon fill="black" stroke="black" points="762.786,-195.68 770.404,-188.317 759.857,-189.322 762.786,-195.68"/>
</g>
<!-- MySQL 5.7 -->
<g id="node36" class="node"><title>MySQL 5.7</title>
<ellipse fill="none" stroke="red" stroke-dasharray="1,5" cx="439" cy="-95" rx="65.0538" ry="18.3848"/>
<text text-anchor="middle" x="439" y="-91.4" font-family="Times Roman,serif" font-size="14.00">MySQL 5.7</text>
</g>
<!-- MySQL 5.6&#45;&gt;MySQL 5.7 -->
<g id="edge35" class="edge"><title>MySQL 5.6&#45;&gt;MySQL 5.7</title>
<path fill="none" stroke="black" stroke-dasharray="5,2" d="M473.107,-152.603C467.73,-143.521 461.135,-132.383 455.182,-122.329"/>
<polygon fill="black" stroke="black" points="458.056,-120.313 449.949,-113.491 452.032,-123.879 458.056,-120.313"/>
</g>
<!-- MySQL Cluster 7.3 -->
<g id="node45" class="node"><title>MySQL Cluster 7.3</title>
<ellipse fill="none" stroke="#cd0000" cx="253" cy="-95" rx="103.238" ry="18.3848"/>
<text text-anchor="middle" x="253" y="-91.4" font-family="Times Roman,serif" font-size="14.00">MySQL Cluster 7.3</text>
</g>
<!-- MySQL 5.6&#45;&gt;MySQL Cluster 7.3 -->
<g id="edge55" class="edge"><title>MySQL 5.6&#45;&gt;MySQL Cluster 7.3</title>
<path fill="none" stroke="black" d="M441.362,-156.972C405.111,-145.045 352.676,-127.794 312.329,-114.519"/>
<polygon fill="black" stroke="black" points="313.204,-111.123 302.611,-111.322 311.016,-117.772 313.204,-111.123"/>
</g>
<!-- Percona Server 5.6 -->
<g id="node78" class="node"><title>Percona Server 5.6</title>
<ellipse fill="none" stroke="orange" stroke-dasharray="5,2" cx="626" cy="-95" rx="104.151" ry="18.3848"/>
<text text-anchor="middle" x="626" y="-91.4" font-family="Times Roman,serif" font-size="14.00">Percona Server 5.6</text>
</g>
<!-- MySQL 5.6&#45;&gt;Percona Server 5.6 -->
<g id="edge97" class="edge"><title>MySQL 5.6&#45;&gt;Percona Server 5.6</title>
<path fill="none" stroke="black" stroke-dasharray="5,2" d="M514.812,-154.509C535.101,-143.65 561.917,-129.298 584.132,-117.408"/>
<polygon fill="black" stroke="black" points="585.857,-120.455 593.022,-112.65 582.554,-114.283 585.857,-120.455"/>
</g>
<!-- MySQL 5.4&#45;&gt;MySQL 5.5 -->
<g id="edge27" class="edge"><title>MySQL 5.4&#45;&gt;MySQL 5.5</title>
<path fill="none" stroke="grey" d="M643,-304.213C643,-295.654 643,-285.33 643,-275.822"/>
<polygon fill="grey" stroke="grey" points="646.5,-275.57 643,-265.57 639.5,-275.57 646.5,-275.57"/>
</g>
<!-- MySQL 6.0&#45;&gt;MySQL 5.5 -->
<g id="edge29" class="edge"><title>MySQL 6.0&#45;&gt;MySQL 5.5</title>
<path fill="none" stroke="grey" d="M526.75,-306.696C548.795,-295.376 578.363,-280.192 602.161,-267.971"/>
<polygon fill="grey" stroke="grey" points="604.006,-270.959 611.303,-263.277 600.808,-264.732 604.006,-270.959"/>
</g>
<!-- Drizzle 7.0 -->
<g id="node87" class="node"><title>Drizzle 7.0</title>
<ellipse fill="none" stroke="#00008b" cx="447" cy="-247" rx="65.7609" ry="18.3848"/>
<text text-anchor="middle" x="447" y="-243.4" font-family="Times Roman,serif" font-size="14.00">Drizzle 7.0</text>
</g>
<!-- MySQL 6.0&#45;&gt;Drizzle 7.0 -->
<g id="edge101" class="edge"><title>MySQL 6.0&#45;&gt;Drizzle 7.0</title>
<path fill="none" stroke="black" d="M483.381,-304.603C477.544,-295.361 470.361,-283.989 463.924,-273.797"/>
<polygon fill="black" stroke="black" points="466.812,-271.814 458.512,-265.228 460.893,-275.552 466.812,-271.814"/>
</g>
<!-- MySQL Cluster 6.2&#45;&gt;MySQL Cluster 6.3 -->
<g id="edge41" class="edge"><title>MySQL Cluster 6.2&#45;&gt;MySQL Cluster 6.3</title>
<path fill="none" stroke="black" d="M448.286,-457.181C430.055,-446.604 406.758,-433.089 387.208,-421.747"/>
<polygon fill="black" stroke="black" points="388.927,-418.698 378.521,-416.707 385.415,-424.753 388.927,-418.698"/>
</g>
<!-- MySQL Cluster 6.3&#45;&gt;MySQL Cluster 7.0 -->
<g id="edge45" class="edge"><title>MySQL Cluster 6.3&#45;&gt;MySQL Cluster 7.0</title>
<path fill="none" stroke="black" d="M338.36,-380.213C333.778,-371.286 328.212,-360.439 323.163,-350.6"/>
<polygon fill="black" stroke="black" points="326.209,-348.869 318.53,-341.57 319.981,-352.065 326.209,-348.869"/>
</g>
<!-- MySQL Cluster 7.0&#45;&gt;MySQL Cluster 7.1 -->
<g id="edge49" class="edge"><title>MySQL Cluster 7.0&#45;&gt;MySQL Cluster 7.1</title>
<path fill="none" stroke="black" d="M296.654,-304.603C290.498,-295.429 282.933,-284.156 276.133,-274.022"/>
<polygon fill="black" stroke="black" points="278.887,-271.845 270.409,-265.491 273.075,-275.745 278.887,-271.845"/>
</g>
<!-- MySQL Cluster 7.1&#45;&gt;MySQL Cluster 7.2 -->
<g id="edge53" class="edge"><title>MySQL Cluster 7.1&#45;&gt;MySQL Cluster 7.2</title>
<path fill="none" stroke="black" d="M258,-228.213C258,-219.654 258,-209.33 258,-199.822"/>
<polygon fill="black" stroke="black" points="261.5,-199.57 258,-189.57 254.5,-199.57 261.5,-199.57"/>
</g>
<!-- MySQL Cluster 7.2&#45;&gt;MySQL Cluster 7.3 -->
<g id="edge57" class="edge"><title>MySQL Cluster 7.2&#45;&gt;MySQL Cluster 7.3</title>
<path fill="none" stroke="black" d="M256.764,-152.213C256.201,-143.654 255.522,-133.33 254.896,-123.822"/>
<polygon fill="black" stroke="black" points="258.371,-123.319 254.222,-113.57 251.386,-123.779 258.371,-123.319"/>
</g>
<!-- MariaDB 5.1&#45;&gt;MariaDB 5.2 -->
<g id="edge65" class="edge"><title>MariaDB 5.1&#45;&gt;MariaDB 5.2</title>
<path fill="none" stroke="black" d="M1013.57,-380.989C1002.84,-371.051 989.37,-358.563 977.675,-347.723"/>
<polygon fill="black" stroke="black" points="980.007,-345.112 970.293,-340.882 975.249,-350.246 980.007,-345.112"/>
</g>
<!-- MariaDB 5.2&#45;&gt;MariaDB 5.3 -->
<g id="edge71" class="edge"><title>MariaDB 5.2&#45;&gt;MariaDB 5.3</title>
<path fill="none" stroke="black" d="M932.989,-304.989C923.217,-295.217 910.979,-282.979 900.268,-272.268"/>
<polygon fill="black" stroke="black" points="902.691,-269.741 893.145,-265.145 897.741,-274.691 902.691,-269.741"/>
</g>
<!-- MariaDB 5.3&#45;&gt;MariaDB 5.5 -->
<g id="edge77" class="edge"><title>MariaDB 5.3&#45;&gt;MariaDB 5.5</title>
<path fill="none" stroke="black" d="M894.403,-229.079C912.973,-209.665 936.098,-177.985 921,-152 911.04,-134.859 893.782,-122.443 876.378,-113.664"/>
<polygon fill="black" stroke="black" points="877.84,-110.484 867.301,-109.399 874.863,-116.819 877.84,-110.484"/>
</g>
<!-- MariaDB 5.3&#45;&gt;Percona Server 5.5 -->
<g id="edge95" class="edge"><title>MariaDB 5.3&#45;&gt;Percona Server 5.5</title>
<path fill="none" stroke="grey" d="M858.781,-228.603C850.449,-219.151 840.152,-207.471 831.013,-197.104"/>
<polygon fill="grey" stroke="grey" points="833.54,-194.678 824.302,-189.491 828.289,-199.307 833.54,-194.678"/>
</g>
<!-- MariaDB 10.0 -->
<g id="node61" class="node"><title>MariaDB 10.0</title>
<ellipse fill="none" stroke="blue" stroke-dasharray="5,2" cx="890" cy="-19" rx="79.196" ry="18.3848"/>
<text text-anchor="middle" x="890" y="-15.4" font-family="Times Roman,serif" font-size="14.00">MariaDB 10.0</text>
</g>
<!-- MariaDB 5.5&#45;&gt;MariaDB 10.0 -->
<g id="edge81" class="edge"><title>MariaDB 5.5&#45;&gt;MariaDB 10.0</title>
<path fill="none" stroke="black" stroke-dasharray="5,2" d="M837.703,-76.6025C846.348,-67.0806 857.046,-55.2974 866.509,-44.8739"/>
<polygon fill="black" stroke="black" points="869.32,-46.9846 873.451,-37.2281 864.138,-42.2792 869.32,-46.9846"/>
</g>
<!-- Percona Server 5.1&#45;&gt;MariaDB 5.1 -->
<g id="edge61" class="edge"><title>Percona Server 5.1&#45;&gt;MariaDB 5.1</title>
<path fill="none" stroke="grey" d="M955.936,-456.989C969.492,-446.788 986.618,-433.901 1001.28,-422.867"/>
<polygon fill="grey" stroke="grey" points="1003.7,-425.429 1009.58,-416.619 999.49,-419.835 1003.7,-425.429"/>
</g>
<!-- Percona Server 5.1&#45;&gt;MariaDB 5.2 -->
<g id="edge67" class="edge"><title>Percona Server 5.1&#45;&gt;MariaDB 5.2</title>
<path fill="none" stroke="grey" d="M934.33,-456.362C937.592,-430.266 943.55,-382.598 947.389,-351.884"/>
<polygon fill="grey" stroke="grey" points="950.884,-352.148 948.651,-341.791 943.938,-351.279 950.884,-352.148"/>
</g>
<!-- Percona Server 5.1&#45;&gt;MariaDB 5.3 -->
<g id="edge73" class="edge"><title>Percona Server 5.1&#45;&gt;MariaDB 5.3</title>
<path fill="none" stroke="grey" d="M920.016,-456.582C904.647,-431.756 878.809,-385.623 869,-342 864.098,-320.199 866.048,-294.925 868.979,-275.929"/>
<polygon fill="grey" stroke="grey" points="872.473,-276.263 870.723,-265.814 865.575,-275.074 872.473,-276.263"/>
</g>
<!-- Percona Server 5.1&#45;&gt;Percona Server 5.5 -->
<g id="edge93" class="edge"><title>Percona Server 5.1&#45;&gt;Percona Server 5.5</title>
<path fill="none" stroke="black" d="M912.497,-456.79C901.627,-446.083 888.257,-431.946 878,-418 832.142,-355.647 812.52,-340.899 793,-266 787.253,-243.949 791.897,-218.411 797.485,-199.369"/>
<polygon fill="black" stroke="black" points="800.836,-200.381 800.535,-189.791 794.166,-198.257 800.836,-200.381"/>
</g>
<!-- Percona Server 5.5&#45;&gt;MariaDB 5.5 -->
<g id="edge79" class="edge"><title>Percona Server 5.5&#45;&gt;MariaDB 5.5</title>
<path fill="none" stroke="grey" d="M811.213,-152.213C812.693,-143.562 814.482,-133.108 816.122,-123.515"/>
<polygon fill="grey" stroke="grey" points="819.587,-124.017 817.823,-113.57 812.687,-122.837 819.587,-124.017"/>
</g>
<!-- Percona Server 5.5&#45;&gt;MariaDB 10.0 -->
<g id="edge83" class="edge"><title>Percona Server 5.5&#45;&gt;MariaDB 10.0</title>
<path fill="none" stroke="grey" d="M855.282,-154.493C873.57,-145.524 892.576,-132.411 903,-114 914.577,-93.5527 909.435,-66.7722 902.492,-46.8587"/>
<polygon fill="grey" stroke="grey" points="905.725,-45.5131 898.89,-37.4173 899.184,-48.0081 905.725,-45.5131"/>
</g>
<!-- Percona Server 5.5&#45;&gt;Percona Server 5.6 -->
<g id="edge99" class="edge"><title>Percona Server 5.5&#45;&gt;Percona Server 5.6</title>
<path fill="none" stroke="black" stroke-dasharray="5,2" d="M767.156,-153.944C740.32,-142.738 705.022,-127.998 676.437,-116.062"/>
<polygon fill="black" stroke="black" points="677.599,-112.754 667.022,-112.13 674.902,-119.213 677.599,-112.754"/>
</g>
<!-- Percona Server 5.0&#45;&gt;Percona Server 5.1 -->
<g id="edge89" class="edge"><title>Percona Server 5.0&#45;&gt;Percona Server 5.1</title>
<path fill="none" stroke="black" d="M983.539,-532.603C975.082,-523.151 964.632,-511.471 955.356,-501.104"/>
<polygon fill="black" stroke="black" points="957.821,-498.61 948.545,-493.491 952.605,-503.278 957.821,-498.61"/>
</g>
<!-- Drizzle 7.1 -->
<g id="node88" class="node"><title>Drizzle 7.1</title>
<ellipse fill="none" stroke="#00008b" cx="66" cy="-171" rx="65.7609" ry="18.3848"/>
<text text-anchor="middle" x="66" y="-167.4" font-family="Times Roman,serif" font-size="14.00">Drizzle 7.1</text>
</g>
<!-- Drizzle 7.0&#45;&gt;Drizzle 7.1 -->
<g id="edge103" class="edge"><title>Drizzle 7.0&#45;&gt;Drizzle 7.1</title>
<path fill="none" stroke="black" d="M398.244,-234.393C388.897,-232.14 379.167,-229.906 370,-228 271.136,-207.446 244.953,-210.122 146,-190 139.421,-188.662 132.559,-187.175 125.74,-185.637"/>
<polygon fill="black" stroke="black" points="126.348,-182.186 115.819,-183.362 124.783,-189.009 126.348,-182.186"/>
</g>
<!-- Drizzle 7.2 -->
<g id="node89" class="node"><title>Drizzle 7.2</title>
<ellipse fill="none" stroke="#00008b" stroke-dasharray="5,2" cx="66" cy="-95" rx="65.7609" ry="18.3848"/>
<text text-anchor="middle" x="66" y="-91.4" font-family="Times Roman,serif" font-size="14.00">Drizzle 7.2</text>
</g>
<!-- Drizzle 7.1&#45;&gt;Drizzle 7.2 -->
<g id="edge105" class="edge"><title>Drizzle 7.1&#45;&gt;Drizzle 7.2</title>
<path fill="none" stroke="black" stroke-dasharray="5,2" d="M66,-152.213C66,-143.654 66,-133.33 66,-123.822"/>
<polygon fill="black" stroke="black" points="69.5001,-123.57 66,-113.57 62.5001,-123.57 69.5001,-123.57"/>
</g>
</g>
</svg>
