<?xml version="1.0" encoding="UTF-8" standalone="no"?>
<!DOCTYPE svg PUBLIC "-//W3C//DTD SVG 1.1//EN"
 "http://www.w3.org/Graphics/SVG/1.1/DTD/svg11.dtd">
<!-- Generated by graphviz version 2.40.1 (20161225.0304)
 -->
<!-- Title: mysql_history_graph Pages: 1 -->
<svg width="1004pt" height="1340pt"
 viewBox="0.00 0.00 1003.72 1340.00" xmlns="http://www.w3.org/2000/svg" xmlns:xlink="http://www.w3.org/1999/xlink">
<g id="graph0" class="graph" transform="scale(1 1) rotate(0) translate(4 1336)">
<title>mysql_history_graph</title>
<polygon fill="#ffffff" stroke="transparent" points="-4,4 -4,-1336 999.7215,-1336 999.7215,4 -4,4"/>
<!-- MySQL 3.19 -->
<g id="node1" class="node">
<title>MySQL 3.19</title>
<ellipse fill="none" stroke="#ff0000" cx="612.3282" cy="-1314" rx="69.5877" ry="18"/>
<text text-anchor="middle" x="612.3282" y="-1310.3" font-family="Times,serif" font-size="14.00" fill="#000000">MySQL 3.19</text>
</g>
<!-- MySQL 3.20 -->
<g id="node2" class="node">
<title>MySQL 3.20</title>
<ellipse fill="none" stroke="#ff0000" cx="612.3282" cy="-1242" rx="69.5877" ry="18"/>
<text text-anchor="middle" x="612.3282" y="-1238.3" font-family="Times,serif" font-size="14.00" fill="#000000">MySQL 3.20</text>
</g>
<!-- MySQL 3.19&#45;&gt;MySQL 3.20 -->
<g id="edge1" class="edge">
<title>MySQL 3.19&#45;&gt;MySQL 3.20</title>
<path fill="none" stroke="#000000" d="M612.3282,-1295.8314C612.3282,-1288.131 612.3282,-1278.9743 612.3282,-1270.4166"/>
<polygon fill="#000000" stroke="#000000" points="615.8283,-1270.4132 612.3282,-1260.4133 608.8283,-1270.4133 615.8283,-1270.4132"/>
</g>
<!-- MySQL 3.21 -->
<g id="node3" class="node">
<title>MySQL 3.21</title>
<ellipse fill="none" stroke="#ff0000" cx="612.3282" cy="-1170" rx="69.5877" ry="18"/>
<text text-anchor="middle" x="612.3282" y="-1166.3" font-family="Times,serif" font-size="14.00" fill="#000000">MySQL 3.21</text>
</g>
<!-- MySQL 3.20&#45;&gt;MySQL 3.21 -->
<g id="edge2" class="edge">
<title>MySQL 3.20&#45;&gt;MySQL 3.21</title>
<path fill="none" stroke="#000000" d="M612.3282,-1223.8314C612.3282,-1216.131 612.3282,-1206.9743 612.3282,-1198.4166"/>
<polygon fill="#000000" stroke="#000000" points="615.8283,-1198.4132 612.3282,-1188.4133 608.8283,-1198.4133 615.8283,-1198.4132"/>
</g>
<!-- MySQL 3.22 -->
<g id="node4" class="node">
<title>MySQL 3.22</title>
<ellipse fill="none" stroke="#ff0000" cx="612.3282" cy="-1098" rx="69.5877" ry="18"/>
<text text-anchor="middle" x="612.3282" y="-1094.3" font-family="Times,serif" font-size="14.00" fill="#000000">MySQL 3.22</text>
</g>
<!-- MySQL 3.21&#45;&gt;MySQL 3.22 -->
<g id="edge3" class="edge">
<title>MySQL 3.21&#45;&gt;MySQL 3.22</title>
<path fill="none" stroke="#000000" d="M612.3282,-1151.8314C612.3282,-1144.131 612.3282,-1134.9743 612.3282,-1126.4166"/>
<polygon fill="#000000" stroke="#000000" points="615.8283,-1126.4132 612.3282,-1116.4133 608.8283,-1126.4133 615.8283,-1126.4132"/>
</g>
<!-- MySQL 3.23 -->
<g id="node5" class="node">
<title>MySQL 3.23</title>
<ellipse fill="none" stroke="#ff0000" cx="612.3282" cy="-1026" rx="69.5877" ry="18"/>
<text text-anchor="middle" x="612.3282" y="-1022.3" font-family="Times,serif" font-size="14.00" fill="#000000">MySQL 3.23</text>
</g>
<!-- MySQL 3.22&#45;&gt;MySQL 3.23 -->
<g id="edge4" class="edge">
<title>MySQL 3.22&#45;&gt;MySQL 3.23</title>
<path fill="none" stroke="#000000" d="M612.3282,-1079.8314C612.3282,-1072.131 612.3282,-1062.9743 612.3282,-1054.4166"/>
<polygon fill="#000000" stroke="#000000" points="615.8283,-1054.4132 612.3282,-1044.4133 608.8283,-1054.4133 615.8283,-1054.4132"/>
</g>
<!-- MySQL 4.0 -->
<g id="node6" class="node">
<title>MySQL 4.0</title>
<ellipse fill="none" stroke="#ff0000" cx="612.3282" cy="-954" rx="63.8893" ry="18"/>
<text text-anchor="middle" x="612.3282" y="-950.3" font-family="Times,serif" font-size="14.00" fill="#000000">MySQL 4.0</text>
</g>
<!-- MySQL 3.23&#45;&gt;MySQL 4.0 -->
<g id="edge5" class="edge">
<title>MySQL 3.23&#45;&gt;MySQL 4.0</title>
<path fill="none" stroke="#000000" d="M612.3282,-1007.8314C612.3282,-1000.131 612.3282,-990.9743 612.3282,-982.4166"/>
<polygon fill="#000000" stroke="#000000" points="615.8283,-982.4132 612.3282,-972.4133 608.8283,-982.4133 615.8283,-982.4132"/>
</g>
<!-- MySQL 4.1 -->
<g id="node7" class="node">
<title>MySQL 4.1</title>
<ellipse fill="none" stroke="#ff0000" cx="612.3282" cy="-882" rx="63.8893" ry="18"/>
<text text-anchor="middle" x="612.3282" y="-878.3" font-family="Times,serif" font-size="14.00" fill="#000000">MySQL 4.1</text>
</g>
<!-- MySQL 4.0&#45;&gt;MySQL 4.1 -->
<g id="edge6" class="edge">
<title>MySQL 4.0&#45;&gt;MySQL 4.1</title>
<path fill="none" stroke="#000000" d="M612.3282,-935.8314C612.3282,-928.131 612.3282,-918.9743 612.3282,-910.4166"/>
<polygon fill="#000000" stroke="#000000" points="615.8283,-910.4132 612.3282,-900.4133 608.8283,-910.4133 615.8283,-910.4132"/>
</g>
<!-- MySQL 5.0 -->
<g id="node8" class="node">
<title>MySQL 5.0</title>
<ellipse fill="none" stroke="#ff0000" cx="612.3282" cy="-810" rx="63.8893" ry="18"/>
<text text-anchor="middle" x="612.3282" y="-806.3" font-family="Times,serif" font-size="14.00" fill="#000000">MySQL 5.0</text>
</g>
<!-- MySQL 4.1&#45;&gt;MySQL 5.0 -->
<g id="edge7" class="edge">
<title>MySQL 4.1&#45;&gt;MySQL 5.0</title>
<path fill="none" stroke="#000000" d="M612.3282,-863.8314C612.3282,-856.131 612.3282,-846.9743 612.3282,-838.4166"/>
<polygon fill="#000000" stroke="#000000" points="615.8283,-838.4132 612.3282,-828.4133 608.8283,-838.4133 615.8283,-838.4132"/>
</g>
<!-- MySQL 5.1 -->
<g id="node9" class="node">
<title>MySQL 5.1</title>
<ellipse fill="none" stroke="#ff0000" cx="521.3282" cy="-738" rx="63.8893" ry="18"/>
<text text-anchor="middle" x="521.3282" y="-734.3" font-family="Times,serif" font-size="14.00" fill="#000000">MySQL 5.1</text>
</g>
<!-- MySQL 5.0&#45;&gt;MySQL 5.1 -->
<g id="edge8" class="edge">
<title>MySQL 5.0&#45;&gt;MySQL 5.1</title>
<path fill="none" stroke="#000000" d="M590.7625,-792.937C578.9491,-783.5902 564.1266,-771.8625 551.2136,-761.6456"/>
<polygon fill="#000000" stroke="#000000" points="553.0684,-758.6501 543.0545,-755.19 548.725,-764.1397 553.0684,-758.6501"/>
</g>
<!-- Percona Server 5.0 -->
<g id="node38" class="node">
<title>Percona Server 5.0</title>
<ellipse fill="none" stroke="#ffa500" cx="741.3282" cy="-738" rx="100.1823" ry="18"/>
<text text-anchor="middle" x="741.3282" y="-734.3" font-family="Times,serif" font-size="14.00" fill="#000000">Percona Server 5.0</text>
</g>
<!-- MySQL 5.0&#45;&gt;Percona Server 5.0 -->
<g id="edge51" class="edge">
<title>MySQL 5.0&#45;&gt;Percona Server 5.0</title>
<path fill="none" stroke="#000000" d="M641.2783,-793.8418C658.9777,-783.9631 681.8708,-771.1855 701.2908,-760.3465"/>
<polygon fill="#000000" stroke="#000000" points="703.1955,-763.2917 710.2217,-755.3618 699.7839,-757.1793 703.1955,-763.2917"/>
</g>
<!-- MySQL 6.0 -->
<g id="node15" class="node">
<title>MySQL 6.0</title>
<ellipse fill="none" stroke="#ff0000" stroke-dasharray="1,5" cx="376.3282" cy="-666" rx="63.8893" ry="18"/>
<text text-anchor="middle" x="376.3282" y="-662.3" font-family="Times,serif" font-size="14.00" fill="#000000">MySQL 6.0</text>
</g>
<!-- MySQL 5.1&#45;&gt;MySQL 6.0 -->
<g id="edge15" class="edge">
<title>MySQL 5.1&#45;&gt;MySQL 6.0</title>
<path fill="none" stroke="#000000" stroke-dasharray="5,2" d="M489.5073,-722.1993C468.2589,-711.6484 440.1178,-697.6748 417.2125,-686.3012"/>
<polygon fill="#000000" stroke="#000000" points="418.588,-683.0765 408.0748,-681.7638 415.4748,-689.3461 418.588,-683.0765"/>
</g>
<!-- MySQL 5.2 -->
<g id="node16" class="node">
<title>MySQL 5.2</title>
<ellipse fill="none" stroke="#ff0000" stroke-dasharray="1,5" cx="521.3282" cy="-666" rx="63.8893" ry="18"/>
<text text-anchor="middle" x="521.3282" y="-662.3" font-family="Times,serif" font-size="14.00" fill="#000000">MySQL 5.2</text>
</g>
<!-- MySQL 5.1&#45;&gt;MySQL 5.2 -->
<g id="edge14" class="edge">
<title>MySQL 5.1&#45;&gt;MySQL 5.2</title>
<path fill="none" stroke="#000000" stroke-dasharray="5,2" d="M521.3282,-719.8314C521.3282,-712.131 521.3282,-702.9743 521.3282,-694.4166"/>
<polygon fill="#000000" stroke="#000000" points="524.8283,-694.4132 521.3282,-684.4133 517.8283,-694.4133 524.8283,-694.4132"/>
</g>
<!-- MySQL Cluster 6.2 -->
<g id="node18" class="node">
<title>MySQL Cluster 6.2</title>
<ellipse fill="none" stroke="#cd0000" cx="117.3282" cy="-666" rx="100.9827" ry="18"/>
<text text-anchor="middle" x="117.3282" y="-662.3" font-family="Times,serif" font-size="14.00" fill="#000000">MySQL Cluster 6.2</text>
</g>
<!-- MySQL 5.1&#45;&gt;MySQL Cluster 6.2 -->
<g id="edge18" class="edge">
<title>MySQL 5.1&#45;&gt;MySQL Cluster 6.2</title>
<path fill="none" stroke="#000000" d="M467.2622,-728.3645C398.3935,-716.0909 278.7416,-694.7667 198.7975,-680.5193"/>
<polygon fill="#000000" stroke="#000000" points="199.2239,-677.0402 188.7649,-678.7313 197.9957,-683.9316 199.2239,-677.0402"/>
</g>
<!-- MySQL Cluster 6.3 -->
<g id="node19" class="node">
<title>MySQL Cluster 6.3</title>
<ellipse fill="none" stroke="#cd0000" cx="117.3282" cy="-594" rx="100.9827" ry="18"/>
<text text-anchor="middle" x="117.3282" y="-590.3" font-family="Times,serif" font-size="14.00" fill="#000000">MySQL Cluster 6.3</text>
</g>
<!-- MySQL 5.1&#45;&gt;MySQL Cluster 6.3 -->
<g id="edge19" class="edge">
<title>MySQL 5.1&#45;&gt;MySQL Cluster 6.3</title>
<path fill="none" stroke="#000000" d="M457.7171,-735.9868C326.8036,-731.1869 36.9733,-716.9227 7.3282,-684 -3.3782,-672.1099 -1.1331,-661.5796 7.3282,-648 17.1531,-632.232 33.0752,-620.9379 49.7915,-612.9003"/>
<polygon fill="#000000" stroke="#000000" points="51.4027,-616.0146 59.1264,-608.7623 48.5659,-609.6152 51.4027,-616.0146"/>
</g>
<!-- MySQL Cluster 7.0 -->
<g id="node20" class="node">
<title>MySQL Cluster 7.0</title>
<ellipse fill="none" stroke="#cd0000" cx="155.3282" cy="-522" rx="100.9827" ry="18"/>
<text text-anchor="middle" x="155.3282" y="-518.3" font-family="Times,serif" font-size="14.00" fill="#000000">MySQL Cluster 7.0</text>
</g>
<!-- MySQL 5.1&#45;&gt;MySQL Cluster 7.0 -->
<g id="edge21" class="edge">
<title>MySQL 5.1&#45;&gt;MySQL Cluster 7.0</title>
<path fill="none" stroke="#000000" d="M461.4247,-731.6356C396.6096,-723.642 298.7066,-707.9951 270.3282,-684 230.8762,-650.6418 258.7224,-617.0322 227.3282,-576 218.3128,-564.2169 206.0798,-553.7457 194.2565,-545.2343"/>
<polygon fill="#000000" stroke="#000000" points="195.9928,-542.1805 185.7714,-539.3923 192.0232,-547.946 195.9928,-542.1805"/>
</g>
<!-- MySQL Cluster 7.1 -->
<g id="node21" class="node">
<title>MySQL Cluster 7.1</title>
<ellipse fill="none" stroke="#cd0000" cx="211.3282" cy="-450" rx="100.9827" ry="18"/>
<text text-anchor="middle" x="211.3282" y="-446.3" font-family="Times,serif" font-size="14.00" fill="#000000">MySQL Cluster 7.1</text>
</g>
<!-- MySQL 5.1&#45;&gt;MySQL Cluster 7.1 -->
<g id="edge23" class="edge">
<title>MySQL 5.1&#45;&gt;MySQL Cluster 7.1</title>
<path fill="none" stroke="#000000" d="M463.0838,-730.6156C406.2371,-722.211 325.2013,-706.647 303.3282,-684 246.5264,-625.1885 304.2925,-575.8819 265.3282,-504 259.4641,-493.1818 250.7542,-483.11 242.0327,-474.6654"/>
<polygon fill="#000000" stroke="#000000" points="244.1682,-471.8744 234.4367,-467.6853 239.4319,-477.0287 244.1682,-471.8744"/>
</g>
<!-- MariaDB 5.1 -->
<g id="node27" class="node">
<title>MariaDB 5.1</title>
<ellipse fill="none" stroke="#0000ff" cx="681.3282" cy="-594" rx="69.5877" ry="18"/>
<text text-anchor="middle" x="681.3282" y="-590.3" font-family="Times,serif" font-size="14.00" fill="#000000">MariaDB 5.1</text>
</g>
<!-- MySQL 5.1&#45;&gt;MariaDB 5.1 -->
<g id="edge33" class="edge">
<title>MySQL 5.1&#45;&gt;MariaDB 5.1</title>
<path fill="none" stroke="#000000" d="M561.3627,-723.8864C582.7374,-714.8994 608.4522,-701.6121 627.3282,-684 646.134,-666.4535 660.6185,-640.895 669.8298,-621.4942"/>
<polygon fill="#000000" stroke="#000000" points="673.0776,-622.8074 674.0424,-612.2565 666.7086,-619.9029 673.0776,-622.8074"/>
</g>
<!-- MariaDB 5.2 -->
<g id="node28" class="node">
<title>MariaDB 5.2</title>
<ellipse fill="none" stroke="#0000ff" cx="712.3282" cy="-522" rx="69.5877" ry="18"/>
<text text-anchor="middle" x="712.3282" y="-518.3" font-family="Times,serif" font-size="14.00" fill="#000000">MariaDB 5.2</text>
</g>
<!-- MySQL 5.1&#45;&gt;MariaDB 5.2 -->
<g id="edge35" class="edge">
<title>MySQL 5.1&#45;&gt;MariaDB 5.2</title>
<path fill="none" stroke="#000000" d="M553.8888,-722.2712C568.8592,-713.2509 585.27,-700.4276 594.3282,-684 617.5691,-641.8514 575.3822,-615.8818 602.3282,-576 614.2012,-558.4272 633.5073,-546.3519 652.6572,-538.1573"/>
<polygon fill="#000000" stroke="#000000" points="654.0121,-541.3852 662.0123,-534.4392 651.4266,-534.8802 654.0121,-541.3852"/>
</g>
<!-- MariaDB 5.3 -->
<g id="node29" class="node">
<title>MariaDB 5.3</title>
<ellipse fill="none" stroke="#0000ff" cx="910.3282" cy="-450" rx="69.5877" ry="18"/>
<text text-anchor="middle" x="910.3282" y="-446.3" font-family="Times,serif" font-size="14.00" fill="#000000">MariaDB 5.3</text>
</g>
<!-- MySQL 5.1&#45;&gt;MariaDB 5.3 -->
<g id="edge38" class="edge">
<title>MySQL 5.1&#45;&gt;MariaDB 5.3</title>
<path fill="none" stroke="#000000" d="M576.3399,-728.8443C594.1878,-725.9367 614.0872,-722.7613 632.3282,-720 689.1297,-711.4016 848.6502,-725.5452 888.3282,-684 941.6272,-628.1929 928.1826,-527.1321 917.5207,-478.1389"/>
<polygon fill="#000000" stroke="#000000" points="920.8955,-477.1966 915.2461,-468.2336 914.073,-478.7633 920.8955,-477.1966"/>
</g>
<!-- Percona Server 5.1 -->
<g id="node35" class="node">
<title>Percona Server 5.1</title>
<ellipse fill="none" stroke="#ffa500" cx="779.3282" cy="-666" rx="100.1823" ry="18"/>
<text text-anchor="middle" x="779.3282" y="-662.3" font-family="Times,serif" font-size="14.00" fill="#000000">Percona Server 5.1</text>
</g>
<!-- MySQL 5.1&#45;&gt;Percona Server 5.1 -->
<g id="edge52" class="edge">
<title>MySQL 5.1&#45;&gt;Percona Server 5.1</title>
<path fill="none" stroke="#000000" d="M566.8595,-725.2936C607.9651,-713.8222 668.8863,-696.821 714.9678,-683.961"/>
<polygon fill="#000000" stroke="#000000" points="716.167,-687.2602 724.8581,-681.2009 714.2854,-680.5178 716.167,-687.2602"/>
</g>
<!-- MySQL 5.5 -->
<g id="node10" class="node">
<title>MySQL 5.5</title>
<ellipse fill="none" stroke="#ff0000" cx="553.3282" cy="-450" rx="63.8893" ry="18"/>
<text text-anchor="middle" x="553.3282" y="-446.3" font-family="Times,serif" font-size="14.00" fill="#000000">MySQL 5.5</text>
</g>
<!-- MySQL 5.6 -->
<g id="node11" class="node">
<title>MySQL 5.6</title>
<ellipse fill="none" stroke="#ff0000" cx="551.3282" cy="-378" rx="63.8893" ry="18"/>
<text text-anchor="middle" x="551.3282" y="-374.3" font-family="Times,serif" font-size="14.00" fill="#000000">MySQL 5.6</text>
</g>
<!-- MySQL 5.5&#45;&gt;MySQL 5.6 -->
<g id="edge9" class="edge">
<title>MySQL 5.5&#45;&gt;MySQL 5.6</title>
<path fill="none" stroke="#000000" d="M552.8235,-431.8314C552.6096,-424.131 552.3553,-414.9743 552.1175,-406.4166"/>
<polygon fill="#000000" stroke="#000000" points="555.6161,-406.3122 551.8397,-396.4133 548.6188,-406.5066 555.6161,-406.3122"/>
</g>
<!-- MySQL Cluster 7.2 -->
<g id="node22" class="node">
<title>MySQL Cluster 7.2</title>
<ellipse fill="none" stroke="#cd0000" cx="362.3282" cy="-378" rx="100.9827" ry="18"/>
<text text-anchor="middle" x="362.3282" y="-374.3" font-family="Times,serif" font-size="14.00" fill="#000000">MySQL Cluster 7.2</text>
</g>
<!-- MySQL 5.5&#45;&gt;MySQL Cluster 7.2 -->
<g id="edge25" class="edge">
<title>MySQL 5.5&#45;&gt;MySQL Cluster 7.2</title>
<path fill="none" stroke="#000000" d="M514.6765,-435.4297C486.0285,-424.6305 446.6497,-409.7861 415.1048,-397.8948"/>
<polygon fill="#000000" stroke="#000000" points="416.1788,-394.5593 405.587,-394.307 413.7096,-401.1094 416.1788,-394.5593"/>
</g>
<!-- MariaDB 5.5 -->
<g id="node30" class="node">
<title>MariaDB 5.5</title>
<ellipse fill="none" stroke="#0000ff" cx="920.3282" cy="-306" rx="69.5877" ry="18"/>
<text text-anchor="middle" x="920.3282" y="-302.3" font-family="Times,serif" font-size="14.00" fill="#000000">MariaDB 5.5</text>
</g>
<!-- MySQL 5.5&#45;&gt;MariaDB 5.5 -->
<g id="edge41" class="edge">
<title>MySQL 5.5&#45;&gt;MariaDB 5.5</title>
<path fill="none" stroke="#000000" d="M575.6925,-432.9637C606.5491,-409.734 660.9062,-369.8731 683.3282,-360 683.3282,-360 787.7106,-336.2167 857.9285,-320.2177"/>
<polygon fill="#000000" stroke="#000000" points="859.0516,-323.5515 868.0241,-317.9174 857.4965,-316.7265 859.0516,-323.5515"/>
</g>
<!-- Percona Server 5.5 -->
<g id="node36" class="node">
<title>Percona Server 5.5</title>
<ellipse fill="none" stroke="#ffa500" cx="792.3282" cy="-378" rx="100.1823" ry="18"/>
<text text-anchor="middle" x="792.3282" y="-374.3" font-family="Times,serif" font-size="14.00" fill="#000000">Percona Server 5.5</text>
</g>
<!-- MySQL 5.5&#45;&gt;Percona Server 5.5 -->
<g id="edge54" class="edge">
<title>MySQL 5.5&#45;&gt;Percona Server 5.5</title>
<path fill="none" stroke="#000000" d="M597.1645,-436.7941C634.7168,-425.4813 689.2036,-409.0668 731.0678,-396.455"/>
<polygon fill="#000000" stroke="#000000" points="732.3124,-399.7355 740.8778,-393.4997 730.2932,-393.033 732.3124,-399.7355"/>
</g>
<!-- MySQL 5.7 -->
<g id="node12" class="node">
<title>MySQL 5.7</title>
<ellipse fill="none" stroke="#ff0000" cx="550.3282" cy="-306" rx="63.8893" ry="18"/>
<text text-anchor="middle" x="550.3282" y="-302.3" font-family="Times,serif" font-size="14.00" fill="#000000">MySQL 5.7</text>
</g>
<!-- MySQL 5.6&#45;&gt;MySQL 5.7 -->
<g id="edge10" class="edge">
<title>MySQL 5.6&#45;&gt;MySQL 5.7</title>
<path fill="none" stroke="#000000" d="M551.0759,-359.8314C550.9689,-352.131 550.8417,-342.9743 550.7229,-334.4166"/>
<polygon fill="#000000" stroke="#000000" points="554.2226,-334.3637 550.5839,-324.4133 547.2232,-334.4609 554.2226,-334.3637"/>
</g>
<!-- MySQL Cluster 7.3 -->
<g id="node23" class="node">
<title>MySQL Cluster 7.3</title>
<ellipse fill="none" stroke="#cd0000" cx="362.3282" cy="-306" rx="100.9827" ry="18"/>
<text text-anchor="middle" x="362.3282" y="-302.3" font-family="Times,serif" font-size="14.00" fill="#000000">MySQL Cluster 7.3</text>
</g>
<!-- MySQL 5.6&#45;&gt;MySQL Cluster 7.3 -->
<g id="edge27" class="edge">
<title>MySQL 5.6&#45;&gt;MySQL Cluster 7.3</title>
<path fill="none" stroke="#000000" d="M513.0812,-363.4297C484.7332,-352.6305 445.7668,-337.7861 414.5521,-325.8948"/>
<polygon fill="#000000" stroke="#000000" points="415.7249,-322.5963 405.134,-322.307 413.2329,-329.1377 415.7249,-322.5963"/>
</g>
<!-- Percona Server 5.6 -->
<g id="node37" class="node">
<title>Percona Server 5.6</title>
<ellipse fill="none" stroke="#ffa500" cx="732.3282" cy="-306" rx="100.1823" ry="18"/>
<text text-anchor="middle" x="732.3282" y="-302.3" font-family="Times,serif" font-size="14.00" fill="#000000">Percona Server 5.6</text>
</g>
<!-- MySQL 5.6&#45;&gt;Percona Server 5.6 -->
<g id="edge57" class="edge">
<title>MySQL 5.6&#45;&gt;Percona Server 5.6</title>
<path fill="none" stroke="#000000" d="M588.393,-363.256C615.2708,-352.5643 651.9453,-337.9755 681.5472,-326.2002"/>
<polygon fill="#000000" stroke="#000000" points="682.8901,-329.4328 690.8883,-322.4844 680.3027,-322.9285 682.8901,-329.4328"/>
</g>
<!-- MySQL 8.0 -->
<g id="node13" class="node">
<title>MySQL 8.0</title>
<ellipse fill="none" stroke="#ff0000" cx="559.3282" cy="-162" rx="63.8893" ry="18"/>
<text text-anchor="middle" x="559.3282" y="-158.3" font-family="Times,serif" font-size="14.00" fill="#000000">MySQL 8.0</text>
</g>
<!-- MySQL 5.7&#45;&gt;MySQL 8.0 -->
<g id="edge11" class="edge">
<title>MySQL 5.7&#45;&gt;MySQL 8.0</title>
<path fill="none" stroke="#000000" d="M546.1885,-287.989C542.5937,-269.7617 538.5156,-240.8073 542.3282,-216 543.6656,-207.2979 546.1486,-198.074 548.8116,-189.759"/>
<polygon fill="#000000" stroke="#000000" points="552.1688,-190.7579 552.0843,-180.1634 545.5436,-188.4982 552.1688,-190.7579"/>
</g>
<!-- Percona Server 5.7 -->
<g id="node17" class="node">
<title>Percona Server 5.7</title>
<ellipse fill="none" stroke="#ffa500" cx="651.3282" cy="-234" rx="100.1823" ry="18"/>
<text text-anchor="middle" x="651.3282" y="-230.3" font-family="Times,serif" font-size="14.00" fill="#000000">Percona Server 5.7</text>
</g>
<!-- MySQL 5.7&#45;&gt;Percona Server 5.7 -->
<g id="edge59" class="edge">
<title>MySQL 5.7&#45;&gt;Percona Server 5.7</title>
<path fill="none" stroke="#000000" d="M574.0082,-289.1192C587.2655,-279.6685 603.9967,-267.7412 618.5018,-257.401"/>
<polygon fill="#000000" stroke="#000000" points="620.6308,-260.1816 626.7419,-251.5269 616.5674,-254.4817 620.6308,-260.1816"/>
</g>
<!-- MySQL Cluster 7.5 -->
<g id="node25" class="node">
<title>MySQL Cluster 7.5</title>
<ellipse fill="none" stroke="#cd0000" cx="367.3282" cy="-162" rx="100.9827" ry="18"/>
<text text-anchor="middle" x="367.3282" y="-158.3" font-family="Times,serif" font-size="14.00" fill="#000000">MySQL Cluster 7.5</text>
</g>
<!-- MySQL 5.7&#45;&gt;MySQL Cluster 7.5 -->
<g id="edge30" class="edge">
<title>MySQL 5.7&#45;&gt;MySQL Cluster 7.5</title>
<path fill="none" stroke="#000000" d="M536.596,-288.1605C521.0361,-268.752 494.1964,-237.6111 466.3282,-216 450.4025,-203.65 431.2775,-192.5009 414.101,-183.5838"/>
<polygon fill="#000000" stroke="#000000" points="415.2938,-180.2645 404.7917,-178.866 412.1295,-186.5085 415.2938,-180.2645"/>
</g>
<!-- MariaDB 10.2 -->
<g id="node33" class="node">
<title>MariaDB 10.2</title>
<ellipse fill="none" stroke="#0000ff" cx="839.3282" cy="-90" rx="75.2868" ry="18"/>
<text text-anchor="middle" x="839.3282" y="-86.3" font-family="Times,serif" font-size="14.00" fill="#000000">MariaDB 10.2</text>
</g>
<!-- MySQL 5.7&#45;&gt;MariaDB 10.2 -->
<g id="edge50" class="edge">
<title>MySQL 5.7&#45;&gt;MariaDB 10.2</title>
<path fill="none" stroke="#c0c0c0" d="M598.0637,-294.0173C659.5551,-278.5402 758.7978,-253.4032 760.3282,-252 797.8333,-217.611 774.2074,-188.8043 798.3282,-144 803.5174,-134.361 810.3473,-124.5988 816.9409,-116.075"/>
<polygon fill="#c0c0c0" stroke="#c0c0c0" points="819.8746,-118.0104 823.3862,-108.0144 814.4075,-113.6388 819.8746,-118.0104"/>
</g>
<!-- Percona Server 8.0 -->
<g id="node39" class="node">
<title>Percona Server 8.0</title>
<ellipse fill="none" stroke="#ffa500" stroke-dasharray="5,2" cx="613.3282" cy="-90" rx="100.1823" ry="18"/>
<text text-anchor="middle" x="613.3282" y="-86.3" font-family="Times,serif" font-size="14.00" fill="#000000">Percona Server 8.0</text>
</g>
<!-- MySQL 8.0&#45;&gt;Percona Server 8.0 -->
<g id="edge62" class="edge">
<title>MySQL 8.0&#45;&gt;Percona Server 8.0</title>
<path fill="none" stroke="#000000" stroke-dasharray="5,2" d="M572.6765,-144.2022C579.0372,-135.7214 586.7695,-125.4115 593.776,-116.0696"/>
<polygon fill="#000000" stroke="#000000" points="596.7463,-117.9426 599.9463,-107.8425 591.1462,-113.7426 596.7463,-117.9426"/>
</g>
<!-- MySQL 5.4 -->
<g id="node14" class="node">
<title>MySQL 5.4</title>
<ellipse fill="none" stroke="#ff0000" stroke-dasharray="1,5" cx="556.3282" cy="-522" rx="63.8893" ry="18"/>
<text text-anchor="middle" x="556.3282" y="-518.3" font-family="Times,serif" font-size="14.00" fill="#000000">MySQL 5.4</text>
</g>
<!-- MySQL 5.4&#45;&gt;MySQL 5.5 -->
<g id="edge12" class="edge">
<title>MySQL 5.4&#45;&gt;MySQL 5.5</title>
<path fill="none" stroke="#c0c0c0" d="M555.5712,-503.8314C555.2503,-496.131 554.8688,-486.9743 554.5122,-478.4166"/>
<polygon fill="#c0c0c0" stroke="#c0c0c0" points="558.0088,-478.2589 554.0954,-468.4133 551.0148,-478.5503 558.0088,-478.2589"/>
</g>
<!-- MySQL 6.0&#45;&gt;MySQL 5.5 -->
<g id="edge13" class="edge">
<title>MySQL 6.0&#45;&gt;MySQL 5.5</title>
<path fill="none" stroke="#c0c0c0" d="M404.0145,-649.727C418.0635,-640.2599 434.4183,-627.2002 445.3282,-612 474.9989,-570.6613 453.5136,-545.235 483.3282,-504 492.2293,-491.6893 504.7113,-480.826 516.6746,-472.131"/>
<polygon fill="#c0c0c0" stroke="#c0c0c0" points="519.0132,-474.7685 525.2355,-466.1933 515.0237,-469.0166 519.0132,-474.7685"/>
</g>
<!-- Drizzle 7.0 -->
<g id="node40" class="node">
<title>Drizzle 7.0</title>
<ellipse fill="none" stroke="#00008b" cx="375.3282" cy="-594" rx="61.1893" ry="18"/>
<text text-anchor="middle" x="375.3282" y="-590.3" font-family="Times,serif" font-size="14.00" fill="#000000">Drizzle 7.0</text>
</g>
<!-- MySQL 6.0&#45;&gt;Drizzle 7.0 -->
<g id="edge63" class="edge">
<title>MySQL 6.0&#45;&gt;Drizzle 7.0</title>
<path fill="none" stroke="#000000" d="M376.0759,-647.8314C375.9689,-640.131 375.8417,-630.9743 375.7229,-622.4166"/>
<polygon fill="#000000" stroke="#000000" points="379.2226,-622.3637 375.5839,-612.4133 372.2232,-622.4609 379.2226,-622.3637"/>
</g>
<!-- MySQL 5.2&#45;&gt;MySQL 5.4 -->
<g id="edge16" class="edge">
<title>MySQL 5.2&#45;&gt;MySQL 5.4</title>
<path fill="none" stroke="#000000" stroke-dasharray="5,2" d="M525.761,-647.7623C531.757,-623.0928 542.5081,-578.8598 549.5292,-549.9731"/>
<polygon fill="#000000" stroke="#000000" points="552.9705,-550.6334 551.9314,-540.0896 546.1686,-548.9801 552.9705,-550.6334"/>
</g>
<!-- Percona Server 5.7&#45;&gt;MySQL 8.0 -->
<g id="edge17" class="edge">
<title>Percona Server 5.7&#45;&gt;MySQL 8.0</title>
<path fill="none" stroke="#c0c0c0" d="M628.5866,-216.2022C616.714,-206.9106 602.0362,-195.4237 589.253,-185.4194"/>
<polygon fill="#c0c0c0" stroke="#c0c0c0" points="591.2068,-182.5041 581.1746,-179.0972 586.8926,-188.0166 591.2068,-182.5041"/>
</g>
<!-- Percona Server 5.7&#45;&gt;Percona Server 8.0 -->
<g id="edge61" class="edge">
<title>Percona Server 5.7&#45;&gt;Percona Server 8.0</title>
<path fill="none" stroke="#000000" stroke-dasharray="5,2" d="M648.2248,-215.903C644.9204,-197.6089 639.222,-168.6035 632.3282,-144 629.9262,-135.4275 626.8789,-126.2426 623.9319,-117.9233"/>
<polygon fill="#000000" stroke="#000000" points="627.1416,-116.5081 620.4371,-108.3045 620.5624,-118.8986 627.1416,-116.5081"/>
</g>
<!-- MySQL Cluster 6.2&#45;&gt;MySQL Cluster 6.3 -->
<g id="edge20" class="edge">
<title>MySQL Cluster 6.2&#45;&gt;MySQL Cluster 6.3</title>
<path fill="none" stroke="#000000" d="M117.3282,-647.8314C117.3282,-640.131 117.3282,-630.9743 117.3282,-622.4166"/>
<polygon fill="#000000" stroke="#000000" points="120.8283,-622.4132 117.3282,-612.4133 113.8283,-622.4133 120.8283,-622.4132"/>
</g>
<!-- MySQL Cluster 6.3&#45;&gt;MySQL Cluster 7.0 -->
<g id="edge22" class="edge">
<title>MySQL Cluster 6.3&#45;&gt;MySQL Cluster 7.0</title>
<path fill="none" stroke="#000000" d="M126.9172,-575.8314C131.1599,-567.7925 136.2403,-558.1666 140.9242,-549.2918"/>
<polygon fill="#000000" stroke="#000000" points="144.0378,-550.8908 145.6101,-540.4133 137.8471,-547.6235 144.0378,-550.8908"/>
</g>
<!-- MySQL Cluster 7.0&#45;&gt;MySQL Cluster 7.1 -->
<g id="edge24" class="edge">
<title>MySQL Cluster 7.0&#45;&gt;MySQL Cluster 7.1</title>
<path fill="none" stroke="#000000" d="M169.4594,-503.8314C176.0085,-495.411 183.9119,-485.2495 191.0797,-476.0338"/>
<polygon fill="#000000" stroke="#000000" points="194.0188,-477.9558 197.3955,-467.9134 188.4934,-473.6581 194.0188,-477.9558"/>
</g>
<!-- MySQL Cluster 7.1&#45;&gt;MySQL Cluster 7.2 -->
<g id="edge26" class="edge">
<title>MySQL Cluster 7.1&#45;&gt;MySQL Cluster 7.2</title>
<path fill="none" stroke="#000000" d="M246.731,-433.1192C267.9531,-423 295.1297,-410.0417 317.7997,-399.2321"/>
<polygon fill="#000000" stroke="#000000" points="319.3659,-402.3629 326.8859,-394.8996 316.3531,-396.0444 319.3659,-402.3629"/>
</g>
<!-- MySQL Cluster 7.2&#45;&gt;MySQL Cluster 7.3 -->
<g id="edge28" class="edge">
<title>MySQL Cluster 7.2&#45;&gt;MySQL Cluster 7.3</title>
<path fill="none" stroke="#000000" d="M362.3282,-359.8314C362.3282,-352.131 362.3282,-342.9743 362.3282,-334.4166"/>
<polygon fill="#000000" stroke="#000000" points="365.8283,-334.4132 362.3282,-324.4133 358.8283,-334.4133 365.8283,-334.4132"/>
</g>
<!-- MySQL Cluster 7.4 -->
<g id="node24" class="node">
<title>MySQL Cluster 7.4</title>
<ellipse fill="none" stroke="#cd0000" cx="356.3282" cy="-234" rx="100.9827" ry="18"/>
<text text-anchor="middle" x="356.3282" y="-230.3" font-family="Times,serif" font-size="14.00" fill="#000000">MySQL Cluster 7.4</text>
</g>
<!-- MySQL Cluster 7.3&#45;&gt;MySQL Cluster 7.4 -->
<g id="edge29" class="edge">
<title>MySQL Cluster 7.3&#45;&gt;MySQL Cluster 7.4</title>
<path fill="none" stroke="#000000" d="M360.8141,-287.8314C360.1724,-280.131 359.4094,-270.9743 358.6962,-262.4166"/>
<polygon fill="#000000" stroke="#000000" points="362.1811,-262.088 357.8626,-252.4133 355.2053,-262.6694 362.1811,-262.088"/>
</g>
<!-- MySQL Cluster 7.4&#45;&gt;MySQL Cluster 7.5 -->
<g id="edge31" class="edge">
<title>MySQL Cluster 7.4&#45;&gt;MySQL Cluster 7.5</title>
<path fill="none" stroke="#000000" d="M359.104,-215.8314C360.2804,-208.131 361.6793,-198.9743 362.9868,-190.4166"/>
<polygon fill="#000000" stroke="#000000" points="366.4646,-190.8272 364.5151,-180.4133 359.5449,-189.7699 366.4646,-190.8272"/>
</g>
<!-- MySQL Cluster 7.6 -->
<g id="node26" class="node">
<title>MySQL Cluster 7.6</title>
<ellipse fill="none" stroke="#cd0000" cx="367.3282" cy="-90" rx="100.9827" ry="18"/>
<text text-anchor="middle" x="367.3282" y="-86.3" font-family="Times,serif" font-size="14.00" fill="#000000">MySQL Cluster 7.6</text>
</g>
<!-- MySQL Cluster 7.5&#45;&gt;MySQL Cluster 7.6 -->
<g id="edge32" class="edge">
<title>MySQL Cluster 7.5&#45;&gt;MySQL Cluster 7.6</title>
<path fill="none" stroke="#000000" d="M367.3282,-143.8314C367.3282,-136.131 367.3282,-126.9743 367.3282,-118.4166"/>
<polygon fill="#000000" stroke="#000000" points="370.8283,-118.4132 367.3282,-108.4133 363.8283,-118.4133 370.8283,-118.4132"/>
</g>
<!-- MariaDB 5.1&#45;&gt;MariaDB 5.2 -->
<g id="edge36" class="edge">
<title>MariaDB 5.1&#45;&gt;MariaDB 5.2</title>
<path fill="none" stroke="#000000" d="M689.1508,-575.8314C692.6282,-567.7547 696.7954,-558.0761 700.6314,-549.1668"/>
<polygon fill="#000000" stroke="#000000" points="703.8755,-550.4824 704.6155,-539.9134 697.4461,-547.7141 703.8755,-550.4824"/>
</g>
<!-- MariaDB 5.2&#45;&gt;MariaDB 5.3 -->
<g id="edge39" class="edge">
<title>MariaDB 5.2&#45;&gt;MariaDB 5.3</title>
<path fill="none" stroke="#000000" d="M752.8742,-507.256C783.9726,-495.9475 827.0601,-480.2793 860.3013,-468.1916"/>
<polygon fill="#000000" stroke="#000000" points="861.6346,-471.4311 869.8364,-464.7243 859.2423,-464.8525 861.6346,-471.4311"/>
</g>
<!-- MariaDB 5.3&#45;&gt;MariaDB 5.5 -->
<g id="edge42" class="edge">
<title>MariaDB 5.3&#45;&gt;MariaDB 5.5</title>
<path fill="none" stroke="#000000" d="M911.5947,-431.7623C913.3003,-407.201 916.3527,-363.2474 918.3592,-334.3541"/>
<polygon fill="#000000" stroke="#000000" points="921.8707,-334.3081 919.072,-324.0896 914.8875,-333.8231 921.8707,-334.3081"/>
</g>
<!-- MariaDB 5.3&#45;&gt;Percona Server 5.5 -->
<g id="edge56" class="edge">
<title>MariaDB 5.3&#45;&gt;Percona Server 5.5</title>
<path fill="none" stroke="#c0c0c0" d="M882.96,-433.3008C867.0744,-423.6079 846.8451,-411.2646 829.5303,-400.6996"/>
<polygon fill="#c0c0c0" stroke="#c0c0c0" points="831.1393,-397.5813 820.7799,-395.3603 827.4932,-403.5568 831.1393,-397.5813"/>
</g>
<!-- MariaDB 10.0 -->
<g id="node31" class="node">
<title>MariaDB 10.0</title>
<ellipse fill="none" stroke="#0000ff" cx="920.3282" cy="-234" rx="75.2868" ry="18"/>
<text text-anchor="middle" x="920.3282" y="-230.3" font-family="Times,serif" font-size="14.00" fill="#000000">MariaDB 10.0</text>
</g>
<!-- MariaDB 5.5&#45;&gt;MariaDB 10.0 -->
<g id="edge44" class="edge">
<title>MariaDB 5.5&#45;&gt;MariaDB 10.0</title>
<path fill="none" stroke="#000000" d="M920.3282,-287.8314C920.3282,-280.131 920.3282,-270.9743 920.3282,-262.4166"/>
<polygon fill="#000000" stroke="#000000" points="923.8283,-262.4132 920.3282,-252.4133 916.8283,-262.4133 923.8283,-262.4132"/>
</g>
<!-- MariaDB 10.1 -->
<g id="node32" class="node">
<title>MariaDB 10.1</title>
<ellipse fill="none" stroke="#0000ff" cx="882.3282" cy="-162" rx="75.2868" ry="18"/>
<text text-anchor="middle" x="882.3282" y="-158.3" font-family="Times,serif" font-size="14.00" fill="#000000">MariaDB 10.1</text>
</g>
<!-- MariaDB 10.0&#45;&gt;MariaDB 10.1 -->
<g id="edge45" class="edge">
<title>MariaDB 10.0&#45;&gt;MariaDB 10.1</title>
<path fill="none" stroke="#000000" d="M910.7392,-215.8314C906.4312,-207.6688 901.2596,-197.87 896.5163,-188.8827"/>
<polygon fill="#000000" stroke="#000000" points="899.5455,-187.1236 891.7825,-179.9134 893.3548,-190.3909 899.5455,-187.1236"/>
</g>
<!-- MariaDB 10.1&#45;&gt;MariaDB 10.2 -->
<g id="edge47" class="edge">
<title>MariaDB 10.1&#45;&gt;MariaDB 10.2</title>
<path fill="none" stroke="#000000" d="M871.4775,-143.8314C866.5513,-135.5829 860.6272,-125.6635 855.2138,-116.5992"/>
<polygon fill="#000000" stroke="#000000" points="858.1588,-114.7042 850.0265,-107.9134 852.149,-118.2935 858.1588,-114.7042"/>
</g>
<!-- MariaDB 10.3 -->
<g id="node34" class="node">
<title>MariaDB 10.3</title>
<ellipse fill="none" stroke="#0000ff" cx="839.3282" cy="-18" rx="75.2868" ry="18"/>
<text text-anchor="middle" x="839.3282" y="-14.3" font-family="Times,serif" font-size="14.00" fill="#000000">MariaDB 10.3</text>
</g>
<!-- MariaDB 10.2&#45;&gt;MariaDB 10.3 -->
<g id="edge49" class="edge">
<title>MariaDB 10.2&#45;&gt;MariaDB 10.3</title>
<path fill="none" stroke="#000000" d="M839.3282,-71.8314C839.3282,-64.131 839.3282,-54.9743 839.3282,-46.4166"/>
<polygon fill="#000000" stroke="#000000" points="842.8283,-46.4132 839.3282,-36.4133 835.8283,-46.4133 842.8283,-46.4132"/>
</g>
<!-- Percona Server 5.1&#45;&gt;MariaDB 5.1 -->
<g id="edge34" class="edge">
<title>Percona Server 5.1&#45;&gt;MariaDB 5.1</title>
<path fill="none" stroke="#c0c0c0" d="M755.3547,-648.3868C742.5908,-639.0092 726.7299,-627.3564 712.9675,-617.2452"/>
<polygon fill="#c0c0c0" stroke="#c0c0c0" points="714.8471,-614.2831 704.716,-611.1829 710.7026,-619.9243 714.8471,-614.2831"/>
</g>
<!-- Percona Server 5.1&#45;&gt;MariaDB 5.2 -->
<g id="edge37" class="edge">
<title>Percona Server 5.1&#45;&gt;MariaDB 5.2</title>
<path fill="none" stroke="#c0c0c0" d="M778.2386,-647.85C776.496,-629.0019 771.9834,-599.0962 760.3282,-576 755.0498,-565.5401 747.233,-555.5243 739.433,-547.0209"/>
<polygon fill="#c0c0c0" stroke="#c0c0c0" points="741.8067,-544.4401 732.3476,-539.6675 736.7659,-549.2972 741.8067,-544.4401"/>
</g>
<!-- Percona Server 5.1&#45;&gt;MariaDB 5.3 -->
<g id="edge40" class="edge">
<title>Percona Server 5.1&#45;&gt;MariaDB 5.3</title>
<path fill="none" stroke="#c0c0c0" d="M799.1711,-648.2846C809.592,-638.3096 822.0812,-625.2268 831.3282,-612 861.8745,-568.3068 886.7532,-511.0175 899.9784,-477.5822"/>
<polygon fill="#c0c0c0" stroke="#c0c0c0" points="903.3374,-478.6015 903.702,-468.013 896.8138,-476.063 903.3374,-478.6015"/>
</g>
<!-- Percona Server 5.1&#45;&gt;Percona Server 5.5 -->
<g id="edge55" class="edge">
<title>Percona Server 5.1&#45;&gt;Percona Server 5.5</title>
<path fill="none" stroke="#000000" d="M781.5883,-647.6744C784.4907,-623.1832 789.3847,-578.4053 791.3282,-540 793.6909,-493.312 793.4071,-438.9599 792.9174,-406.5766"/>
<polygon fill="#000000" stroke="#000000" points="796.4153,-406.4189 792.7469,-396.4794 789.4163,-406.5371 796.4153,-406.4189"/>
</g>
<!-- Percona Server 5.5&#45;&gt;MariaDB 5.5 -->
<g id="edge43" class="edge">
<title>Percona Server 5.5&#45;&gt;MariaDB 5.5</title>
<path fill="none" stroke="#c0c0c0" d="M822.9874,-360.7542C840.7841,-350.7436 863.3528,-338.0486 882.2774,-327.4036"/>
<polygon fill="#c0c0c0" stroke="#c0c0c0" points="884.2382,-330.3164 891.238,-322.3632 880.8063,-324.2154 884.2382,-330.3164"/>
</g>
<!-- Percona Server 5.5&#45;&gt;Percona Server 5.6 -->
<g id="edge58" class="edge">
<title>Percona Server 5.5&#45;&gt;Percona Server 5.6</title>
<path fill="none" stroke="#000000" d="M777.1877,-359.8314C770.0991,-351.3251 761.5298,-341.0419 753.7882,-331.752"/>
<polygon fill="#000000" stroke="#000000" points="756.3467,-329.355 747.256,-323.9134 750.9691,-333.8363 756.3467,-329.355"/>
</g>
<!-- Percona Server 5.6&#45;&gt;Percona Server 5.7 -->
<g id="edge60" class="edge">
<title>Percona Server 5.6&#45;&gt;Percona Server 5.7</title>
<path fill="none" stroke="#000000" d="M712.3057,-288.2022C702.2779,-279.2887 689.9773,-268.3548 679.0568,-258.6476"/>
<polygon fill="#000000" stroke="#000000" points="681.2005,-255.8703 671.4011,-251.8425 676.5499,-261.1022 681.2005,-255.8703"/>
</g>
<!-- Percona Server 5.6&#45;&gt;MariaDB 10.0 -->
<g id="edge46" class="edge">
<title>Percona Server 5.6&#45;&gt;MariaDB 10.0</title>
<path fill="none" stroke="#c0c0c0" d="M774.9883,-289.6621C803.5331,-278.73 841.1891,-264.3086 871.0193,-252.8843"/>
<polygon fill="#c0c0c0" stroke="#c0c0c0" points="872.3211,-256.1337 880.4079,-249.2886 869.8176,-249.5967 872.3211,-256.1337"/>
</g>
<!-- Percona Server 5.6&#45;&gt;MariaDB 10.1 -->
<g id="edge48" class="edge">
<title>Percona Server 5.6&#45;&gt;MariaDB 10.1</title>
<path fill="none" stroke="#c0c0c0" d="M752.9658,-288.3324C764.9283,-277.9432 780.1783,-264.4432 793.3282,-252 815.9535,-230.5906 840.81,-205.2968 858.4901,-186.9843"/>
<polygon fill="#c0c0c0" stroke="#c0c0c0" points="861.1886,-189.2278 865.6005,-179.5952 856.1446,-184.3741 861.1886,-189.2278"/>
</g>
<!-- Percona Server 5.0&#45;&gt;Percona Server 5.1 -->
<g id="edge53" class="edge">
<title>Percona Server 5.0&#45;&gt;Percona Server 5.1</title>
<path fill="none" stroke="#000000" d="M750.9172,-719.8314C755.1599,-711.7925 760.2403,-702.1666 764.9242,-693.2918"/>
<polygon fill="#000000" stroke="#000000" points="768.0378,-694.8908 769.6101,-684.4133 761.8471,-691.6235 768.0378,-694.8908"/>
</g>
<!-- Drizzle 7.1 -->
<g id="node41" class="node">
<title>Drizzle 7.1</title>
<ellipse fill="none" stroke="#00008b" cx="375.3282" cy="-522" rx="61.1893" ry="18"/>
<text text-anchor="middle" x="375.3282" y="-518.3" font-family="Times,serif" font-size="14.00" fill="#000000">Drizzle 7.1</text>
</g>
<!-- Drizzle 7.0&#45;&gt;Drizzle 7.1 -->
<g id="edge64" class="edge">
<title>Drizzle 7.0&#45;&gt;Drizzle 7.1</title>
<path fill="none" stroke="#000000" d="M375.3282,-575.8314C375.3282,-568.131 375.3282,-558.9743 375.3282,-550.4166"/>
<polygon fill="#000000" stroke="#000000" points="378.8283,-550.4132 375.3282,-540.4133 371.8283,-550.4133 378.8283,-550.4132"/>
</g>
<!-- Drizzle 7.2 -->
<g id="node42" class="node">
<title>Drizzle 7.2</title>
<ellipse fill="none" stroke="#00008b" stroke-dasharray="5,2" cx="391.3282" cy="-450" rx="61.1893" ry="18"/>
<text text-anchor="middle" x="391.3282" y="-446.3" font-family="Times,serif" font-size="14.00" fill="#000000">Drizzle 7.2</text>
</g>
<!-- Drizzle 7.1&#45;&gt;Drizzle 7.2 -->
<g id="edge65" class="edge">
<title>Drizzle 7.1&#45;&gt;Drizzle 7.2</title>
<path fill="none" stroke="#000000" stroke-dasharray="5,2" d="M379.3657,-503.8314C381.0769,-496.131 383.1117,-486.9743 385.0134,-478.4166"/>
<polygon fill="#000000" stroke="#000000" points="388.4836,-478.9344 387.2364,-468.4133 381.6503,-477.4159 388.4836,-478.9344"/>
</g>
</g>
</svg>
