<?xml version="1.0" encoding="UTF-8" standalone="no"?>
<!DOCTYPE svg PUBLIC "-//W3C//DTD SVG 1.1//EN"
 "http://www.w3.org/Graphics/SVG/1.1/DTD/svg11.dtd">
<!-- Generated by graphviz version 2.40.1 (20161225.0304)
 -->
<!-- Title: mysql_history_graph Pages: 1 -->
<svg width="977pt" height="1340pt"
 viewBox="0.00 0.00 977.43 1340.00" xmlns="http://www.w3.org/2000/svg" xmlns:xlink="http://www.w3.org/1999/xlink">
<g id="graph0" class="graph" transform="scale(1 1) rotate(0) translate(4 1336)">
<title>mysql_history_graph</title>
<polygon fill="#ffffff" stroke="transparent" points="-4,4 -4,-1336 973.4299,-1336 973.4299,4 -4,4"/>
<!-- MySQL 3.19 -->
<g id="node1" class="node">
<title>MySQL 3.19</title>
<ellipse fill="none" stroke="#ff0000" cx="633.3388" cy="-1314" rx="69.5877" ry="18"/>
<text text-anchor="middle" x="633.3388" y="-1310.3" font-family="Times,serif" font-size="14.00" fill="#000000">MySQL 3.19</text>
</g>
<!-- MySQL 3.20 -->
<g id="node2" class="node">
<title>MySQL 3.20</title>
<ellipse fill="none" stroke="#ff0000" cx="633.3388" cy="-1242" rx="69.5877" ry="18"/>
<text text-anchor="middle" x="633.3388" y="-1238.3" font-family="Times,serif" font-size="14.00" fill="#000000">MySQL 3.20</text>
</g>
<!-- MySQL 3.19&#45;&gt;MySQL 3.20 -->
<g id="edge1" class="edge">
<title>MySQL 3.19&#45;&gt;MySQL 3.20</title>
<path fill="none" stroke="#000000" d="M633.3388,-1295.8314C633.3388,-1288.131 633.3388,-1278.9743 633.3388,-1270.4166"/>
<polygon fill="#000000" stroke="#000000" points="636.8389,-1270.4132 633.3388,-1260.4133 629.8389,-1270.4133 636.8389,-1270.4132"/>
</g>
<!-- MySQL 3.21 -->
<g id="node3" class="node">
<title>MySQL 3.21</title>
<ellipse fill="none" stroke="#ff0000" cx="633.3388" cy="-1170" rx="69.5877" ry="18"/>
<text text-anchor="middle" x="633.3388" y="-1166.3" font-family="Times,serif" font-size="14.00" fill="#000000">MySQL 3.21</text>
</g>
<!-- MySQL 3.20&#45;&gt;MySQL 3.21 -->
<g id="edge2" class="edge">
<title>MySQL 3.20&#45;&gt;MySQL 3.21</title>
<path fill="none" stroke="#000000" d="M633.3388,-1223.8314C633.3388,-1216.131 633.3388,-1206.9743 633.3388,-1198.4166"/>
<polygon fill="#000000" stroke="#000000" points="636.8389,-1198.4132 633.3388,-1188.4133 629.8389,-1198.4133 636.8389,-1198.4132"/>
</g>
<!-- MySQL 3.22 -->
<g id="node4" class="node">
<title>MySQL 3.22</title>
<ellipse fill="none" stroke="#ff0000" cx="633.3388" cy="-1098" rx="69.5877" ry="18"/>
<text text-anchor="middle" x="633.3388" y="-1094.3" font-family="Times,serif" font-size="14.00" fill="#000000">MySQL 3.22</text>
</g>
<!-- MySQL 3.21&#45;&gt;MySQL 3.22 -->
<g id="edge3" class="edge">
<title>MySQL 3.21&#45;&gt;MySQL 3.22</title>
<path fill="none" stroke="#000000" d="M633.3388,-1151.8314C633.3388,-1144.131 633.3388,-1134.9743 633.3388,-1126.4166"/>
<polygon fill="#000000" stroke="#000000" points="636.8389,-1126.4132 633.3388,-1116.4133 629.8389,-1126.4133 636.8389,-1126.4132"/>
</g>
<!-- MySQL 3.23 -->
<g id="node5" class="node">
<title>MySQL 3.23</title>
<ellipse fill="none" stroke="#ff0000" cx="633.3388" cy="-1026" rx="69.5877" ry="18"/>
<text text-anchor="middle" x="633.3388" y="-1022.3" font-family="Times,serif" font-size="14.00" fill="#000000">MySQL 3.23</text>
</g>
<!-- MySQL 3.22&#45;&gt;MySQL 3.23 -->
<g id="edge4" class="edge">
<title>MySQL 3.22&#45;&gt;MySQL 3.23</title>
<path fill="none" stroke="#000000" d="M633.3388,-1079.8314C633.3388,-1072.131 633.3388,-1062.9743 633.3388,-1054.4166"/>
<polygon fill="#000000" stroke="#000000" points="636.8389,-1054.4132 633.3388,-1044.4133 629.8389,-1054.4133 636.8389,-1054.4132"/>
</g>
<!-- MySQL 4.0 -->
<g id="node6" class="node">
<title>MySQL 4.0</title>
<ellipse fill="none" stroke="#ff0000" cx="633.3388" cy="-954" rx="63.8893" ry="18"/>
<text text-anchor="middle" x="633.3388" y="-950.3" font-family="Times,serif" font-size="14.00" fill="#000000">MySQL 4.0</text>
</g>
<!-- MySQL 3.23&#45;&gt;MySQL 4.0 -->
<g id="edge5" class="edge">
<title>MySQL 3.23&#45;&gt;MySQL 4.0</title>
<path fill="none" stroke="#000000" d="M633.3388,-1007.8314C633.3388,-1000.131 633.3388,-990.9743 633.3388,-982.4166"/>
<polygon fill="#000000" stroke="#000000" points="636.8389,-982.4132 633.3388,-972.4133 629.8389,-982.4133 636.8389,-982.4132"/>
</g>
<!-- MySQL 4.1 -->
<g id="node7" class="node">
<title>MySQL 4.1</title>
<ellipse fill="none" stroke="#ff0000" cx="633.3388" cy="-882" rx="63.8893" ry="18"/>
<text text-anchor="middle" x="633.3388" y="-878.3" font-family="Times,serif" font-size="14.00" fill="#000000">MySQL 4.1</text>
</g>
<!-- MySQL 4.0&#45;&gt;MySQL 4.1 -->
<g id="edge6" class="edge">
<title>MySQL 4.0&#45;&gt;MySQL 4.1</title>
<path fill="none" stroke="#000000" d="M633.3388,-935.8314C633.3388,-928.131 633.3388,-918.9743 633.3388,-910.4166"/>
<polygon fill="#000000" stroke="#000000" points="636.8389,-910.4132 633.3388,-900.4133 629.8389,-910.4133 636.8389,-910.4132"/>
</g>
<!-- MySQL 5.0 -->
<g id="node8" class="node">
<title>MySQL 5.0</title>
<ellipse fill="none" stroke="#ff0000" cx="633.3388" cy="-810" rx="63.8893" ry="18"/>
<text text-anchor="middle" x="633.3388" y="-806.3" font-family="Times,serif" font-size="14.00" fill="#000000">MySQL 5.0</text>
</g>
<!-- MySQL 4.1&#45;&gt;MySQL 5.0 -->
<g id="edge7" class="edge">
<title>MySQL 4.1&#45;&gt;MySQL 5.0</title>
<path fill="none" stroke="#000000" d="M633.3388,-863.8314C633.3388,-856.131 633.3388,-846.9743 633.3388,-838.4166"/>
<polygon fill="#000000" stroke="#000000" points="636.8389,-838.4132 633.3388,-828.4133 629.8389,-838.4133 636.8389,-838.4132"/>
</g>
<!-- MySQL 5.1 -->
<g id="node9" class="node">
<title>MySQL 5.1</title>
<ellipse fill="none" stroke="#ff0000" cx="542.3388" cy="-738" rx="63.8893" ry="18"/>
<text text-anchor="middle" x="542.3388" y="-734.3" font-family="Times,serif" font-size="14.00" fill="#000000">MySQL 5.1</text>
</g>
<!-- MySQL 5.0&#45;&gt;MySQL 5.1 -->
<g id="edge8" class="edge">
<title>MySQL 5.0&#45;&gt;MySQL 5.1</title>
<path fill="none" stroke="#000000" d="M611.7731,-792.937C599.9597,-783.5902 585.1372,-771.8625 572.2242,-761.6456"/>
<polygon fill="#000000" stroke="#000000" points="574.079,-758.6501 564.0651,-755.19 569.7356,-764.1397 574.079,-758.6501"/>
</g>
<!-- Percona Server 5.0 -->
<g id="node37" class="node">
<title>Percona Server 5.0</title>
<ellipse fill="none" stroke="#ffa500" cx="796.3388" cy="-738" rx="100.1823" ry="18"/>
<text text-anchor="middle" x="796.3388" y="-734.3" font-family="Times,serif" font-size="14.00" fill="#000000">Percona Server 5.0</text>
</g>
<!-- MySQL 5.0&#45;&gt;Percona Server 5.0 -->
<g id="edge50" class="edge">
<title>MySQL 5.0&#45;&gt;Percona Server 5.0</title>
<path fill="none" stroke="#000000" d="M667.9069,-794.7307C691.5443,-784.2896 723.1714,-770.3193 749.1253,-758.855"/>
<polygon fill="#000000" stroke="#000000" points="750.6722,-761.9981 758.4053,-754.7559 747.8437,-755.5949 750.6722,-761.9981"/>
</g>
<!-- MySQL 6.0 -->
<g id="node14" class="node">
<title>MySQL 6.0</title>
<ellipse fill="none" stroke="#ff0000" stroke-dasharray="1,5" cx="542.3388" cy="-666" rx="63.8893" ry="18"/>
<text text-anchor="middle" x="542.3388" y="-662.3" font-family="Times,serif" font-size="14.00" fill="#000000">MySQL 6.0</text>
</g>
<!-- MySQL 5.1&#45;&gt;MySQL 6.0 -->
<g id="edge14" class="edge">
<title>MySQL 5.1&#45;&gt;MySQL 6.0</title>
<path fill="none" stroke="#000000" stroke-dasharray="5,2" d="M542.3388,-719.8314C542.3388,-712.131 542.3388,-702.9743 542.3388,-694.4166"/>
<polygon fill="#000000" stroke="#000000" points="545.8389,-694.4132 542.3388,-684.4133 538.8389,-694.4133 545.8389,-694.4132"/>
</g>
<!-- MySQL 5.2 -->
<g id="node15" class="node">
<title>MySQL 5.2</title>
<ellipse fill="none" stroke="#ff0000" stroke-dasharray="1,5" cx="381.3388" cy="-666" rx="63.8893" ry="18"/>
<text text-anchor="middle" x="381.3388" y="-662.3" font-family="Times,serif" font-size="14.00" fill="#000000">MySQL 5.2</text>
</g>
<!-- MySQL 5.1&#45;&gt;MySQL 5.2 -->
<g id="edge13" class="edge">
<title>MySQL 5.1&#45;&gt;MySQL 5.2</title>
<path fill="none" stroke="#000000" stroke-dasharray="5,2" d="M508.1948,-722.7307C483.861,-711.8484 450.9544,-697.1324 424.7544,-685.4157"/>
<polygon fill="#000000" stroke="#000000" points="425.9912,-682.1348 415.4335,-681.2473 423.1334,-688.5249 425.9912,-682.1348"/>
</g>
<!-- MySQL Cluster 6.2 -->
<g id="node17" class="node">
<title>MySQL Cluster 6.2</title>
<ellipse fill="none" stroke="#cd0000" cx="117.3388" cy="-666" rx="100.9827" ry="18"/>
<text text-anchor="middle" x="117.3388" y="-662.3" font-family="Times,serif" font-size="14.00" fill="#000000">MySQL Cluster 6.2</text>
</g>
<!-- MySQL 5.1&#45;&gt;MySQL Cluster 6.2 -->
<g id="edge17" class="edge">
<title>MySQL 5.1&#45;&gt;MySQL Cluster 6.2</title>
<path fill="none" stroke="#000000" d="M487.6475,-728.7347C414.8649,-716.4044 285.4988,-694.4883 200.5677,-680.1"/>
<polygon fill="#000000" stroke="#000000" points="201.1388,-676.6469 190.6947,-678.4273 199.9696,-683.5486 201.1388,-676.6469"/>
</g>
<!-- MySQL Cluster 6.3 -->
<g id="node18" class="node">
<title>MySQL Cluster 6.3</title>
<ellipse fill="none" stroke="#cd0000" cx="117.3388" cy="-594" rx="100.9827" ry="18"/>
<text text-anchor="middle" x="117.3388" y="-590.3" font-family="Times,serif" font-size="14.00" fill="#000000">MySQL Cluster 6.3</text>
</g>
<!-- MySQL 5.1&#45;&gt;MySQL Cluster 6.3 -->
<g id="edge18" class="edge">
<title>MySQL 5.1&#45;&gt;MySQL Cluster 6.3</title>
<path fill="none" stroke="#000000" d="M478.7047,-736.2682C343.7218,-731.9373 38.4476,-718.4068 7.3388,-684 -3.3918,-672.1318 -1.1225,-661.5796 7.3388,-648 17.1637,-632.232 33.0858,-620.9379 49.8021,-612.9003"/>
<polygon fill="#000000" stroke="#000000" points="51.4134,-616.0146 59.137,-608.7623 48.5765,-609.6152 51.4134,-616.0146"/>
</g>
<!-- MySQL Cluster 7.0 -->
<g id="node19" class="node">
<title>MySQL Cluster 7.0</title>
<ellipse fill="none" stroke="#cd0000" cx="151.3388" cy="-522" rx="100.9827" ry="18"/>
<text text-anchor="middle" x="151.3388" y="-518.3" font-family="Times,serif" font-size="14.00" fill="#000000">MySQL Cluster 7.0</text>
</g>
<!-- MySQL 5.1&#45;&gt;MySQL Cluster 7.0 -->
<g id="edge20" class="edge">
<title>MySQL 5.1&#45;&gt;MySQL Cluster 7.0</title>
<path fill="none" stroke="#000000" d="M481.2151,-732.641C411.0989,-725.3527 301.7509,-710.134 270.3388,-684 230.6223,-650.957 259.2585,-616.6247 227.3388,-576 217.7512,-563.7978 204.6853,-553.1613 192.0911,-544.6293"/>
<polygon fill="#000000" stroke="#000000" points="193.7926,-541.5614 183.496,-539.0653 189.9886,-547.4377 193.7926,-541.5614"/>
</g>
<!-- MySQL Cluster 7.1 -->
<g id="node20" class="node">
<title>MySQL Cluster 7.1</title>
<ellipse fill="none" stroke="#cd0000" cx="254.3388" cy="-450" rx="100.9827" ry="18"/>
<text text-anchor="middle" x="254.3388" y="-446.3" font-family="Times,serif" font-size="14.00" fill="#000000">MySQL Cluster 7.1</text>
</g>
<!-- MySQL 5.1&#45;&gt;MySQL Cluster 7.1 -->
<g id="edge22" class="edge">
<title>MySQL 5.1&#45;&gt;MySQL Cluster 7.1</title>
<path fill="none" stroke="#000000" d="M482.7632,-731.4568C421.748,-723.5371 332.5134,-708.1746 308.3388,-684 293.7334,-669.3946 269.3824,-537.1859 259.1253,-478.1958"/>
<polygon fill="#000000" stroke="#000000" points="262.529,-477.3372 257.3796,-468.0779 255.6309,-478.5275 262.529,-477.3372"/>
</g>
<!-- MariaDB 5.1 -->
<g id="node26" class="node">
<title>MariaDB 5.1</title>
<ellipse fill="none" stroke="#0000ff" cx="778.3388" cy="-594" rx="69.5877" ry="18"/>
<text text-anchor="middle" x="778.3388" y="-590.3" font-family="Times,serif" font-size="14.00" fill="#000000">MariaDB 5.1</text>
</g>
<!-- MySQL 5.1&#45;&gt;MariaDB 5.1 -->
<g id="edge32" class="edge">
<title>MySQL 5.1&#45;&gt;MariaDB 5.1</title>
<path fill="none" stroke="#000000" d="M592.3201,-726.7307C623.3859,-718.2081 663.1962,-704.4309 694.3388,-684 720.4524,-666.8684 744.123,-639.971 759.6314,-620.0382"/>
<polygon fill="#000000" stroke="#000000" points="762.4981,-622.0505 765.7614,-611.9708 756.9245,-617.8155 762.4981,-622.0505"/>
</g>
<!-- MariaDB 5.2 -->
<g id="node27" class="node">
<title>MariaDB 5.2</title>
<ellipse fill="none" stroke="#0000ff" cx="778.3388" cy="-522" rx="69.5877" ry="18"/>
<text text-anchor="middle" x="778.3388" y="-518.3" font-family="Times,serif" font-size="14.00" fill="#000000">MariaDB 5.2</text>
</g>
<!-- MySQL 5.1&#45;&gt;MariaDB 5.2 -->
<g id="edge34" class="edge">
<title>MySQL 5.1&#45;&gt;MariaDB 5.2</title>
<path fill="none" stroke="#000000" d="M587.7508,-725.3236C610.8686,-716.875 637.9055,-703.6419 656.3388,-684 691.6937,-646.3269 667.0515,-616.3332 699.3388,-576 709.644,-563.1268 723.8342,-552.1182 737.3476,-543.4636"/>
<polygon fill="#000000" stroke="#000000" points="739.3783,-546.3243 746.0824,-538.1203 735.7255,-540.353 739.3783,-546.3243"/>
</g>
<!-- MariaDB 5.3 -->
<g id="node28" class="node">
<title>MariaDB 5.3</title>
<ellipse fill="none" stroke="#0000ff" cx="778.3388" cy="-450" rx="69.5877" ry="18"/>
<text text-anchor="middle" x="778.3388" y="-446.3" font-family="Times,serif" font-size="14.00" fill="#000000">MariaDB 5.3</text>
</g>
<!-- MySQL 5.1&#45;&gt;MariaDB 5.3 -->
<g id="edge37" class="edge">
<title>MySQL 5.1&#45;&gt;MariaDB 5.3</title>
<path fill="none" stroke="#000000" d="M570.6817,-721.8064C585.4537,-712.2772 602.9675,-699.1348 615.3388,-684 671.2108,-615.6473 642.2019,-571.299 699.3388,-504 710.0994,-491.3256 724.52,-480.3082 738.0945,-471.5892"/>
<polygon fill="#000000" stroke="#000000" points="740.168,-474.4227 746.8457,-466.1972 736.496,-468.4631 740.168,-474.4227"/>
</g>
<!-- Percona Server 5.1 -->
<g id="node34" class="node">
<title>Percona Server 5.1</title>
<ellipse fill="none" stroke="#ffa500" cx="869.3388" cy="-666" rx="100.1823" ry="18"/>
<text text-anchor="middle" x="869.3388" y="-662.3" font-family="Times,serif" font-size="14.00" fill="#000000">Percona Server 5.1</text>
</g>
<!-- MySQL 5.1&#45;&gt;Percona Server 5.1 -->
<g id="edge51" class="edge">
<title>MySQL 5.1&#45;&gt;Percona Server 5.1</title>
<path fill="none" stroke="#000000" d="M592.7159,-726.9078C647.0215,-714.9506 733.9846,-695.8027 795.9013,-682.1697"/>
<polygon fill="#000000" stroke="#000000" points="796.9858,-685.5149 805.9992,-679.9463 795.4805,-678.6786 796.9858,-685.5149"/>
</g>
<!-- MySQL 5.5 -->
<g id="node10" class="node">
<title>MySQL 5.5</title>
<ellipse fill="none" stroke="#ff0000" cx="436.3388" cy="-450" rx="63.8893" ry="18"/>
<text text-anchor="middle" x="436.3388" y="-446.3" font-family="Times,serif" font-size="14.00" fill="#000000">MySQL 5.5</text>
</g>
<!-- MySQL 5.6 -->
<g id="node11" class="node">
<title>MySQL 5.6</title>
<ellipse fill="none" stroke="#ff0000" cx="436.3388" cy="-378" rx="63.8893" ry="18"/>
<text text-anchor="middle" x="436.3388" y="-374.3" font-family="Times,serif" font-size="14.00" fill="#000000">MySQL 5.6</text>
</g>
<!-- MySQL 5.5&#45;&gt;MySQL 5.6 -->
<g id="edge9" class="edge">
<title>MySQL 5.5&#45;&gt;MySQL 5.6</title>
<path fill="none" stroke="#000000" d="M436.3388,-431.8314C436.3388,-424.131 436.3388,-414.9743 436.3388,-406.4166"/>
<polygon fill="#000000" stroke="#000000" points="439.8389,-406.4132 436.3388,-396.4133 432.8389,-406.4133 439.8389,-406.4132"/>
</g>
<!-- MySQL Cluster 7.2 -->
<g id="node21" class="node">
<title>MySQL Cluster 7.2</title>
<ellipse fill="none" stroke="#cd0000" cx="254.3388" cy="-378" rx="100.9827" ry="18"/>
<text text-anchor="middle" x="254.3388" y="-374.3" font-family="Times,serif" font-size="14.00" fill="#000000">MySQL Cluster 7.2</text>
</g>
<!-- MySQL 5.5&#45;&gt;MySQL Cluster 7.2 -->
<g id="edge24" class="edge">
<title>MySQL 5.5&#45;&gt;MySQL Cluster 7.2</title>
<path fill="none" stroke="#000000" d="M399.0692,-435.256C372.043,-424.5643 335.1658,-409.9755 305.4004,-398.2002"/>
<polygon fill="#000000" stroke="#000000" points="306.594,-394.9085 296.0077,-394.4844 304.0189,-401.4177 306.594,-394.9085"/>
</g>
<!-- MariaDB 5.5 -->
<g id="node29" class="node">
<title>MariaDB 5.5</title>
<ellipse fill="none" stroke="#0000ff" cx="806.3388" cy="-306" rx="69.5877" ry="18"/>
<text text-anchor="middle" x="806.3388" y="-302.3" font-family="Times,serif" font-size="14.00" fill="#000000">MariaDB 5.5</text>
</g>
<!-- MySQL 5.5&#45;&gt;MariaDB 5.5 -->
<g id="edge40" class="edge">
<title>MySQL 5.5&#45;&gt;MariaDB 5.5</title>
<path fill="none" stroke="#000000" d="M458.9853,-433.1676C490.5444,-409.9777 546.4488,-369.9342 569.3388,-360 569.3388,-360 673.7212,-336.2167 743.9391,-320.2177"/>
<polygon fill="#000000" stroke="#000000" points="745.0622,-323.5515 754.0347,-317.9174 743.5071,-316.7265 745.0622,-323.5515"/>
</g>
<!-- Percona Server 5.5 -->
<g id="node35" class="node">
<title>Percona Server 5.5</title>
<ellipse fill="none" stroke="#ffa500" cx="678.3388" cy="-378" rx="100.1823" ry="18"/>
<text text-anchor="middle" x="678.3388" y="-374.3" font-family="Times,serif" font-size="14.00" fill="#000000">Percona Server 5.5</text>
</g>
<!-- MySQL 5.5&#45;&gt;Percona Server 5.5 -->
<g id="edge53" class="edge">
<title>MySQL 5.5&#45;&gt;Percona Server 5.5</title>
<path fill="none" stroke="#000000" d="M480.4439,-436.8778C518.6404,-425.5136 574.2924,-408.9559 616.8582,-396.2918"/>
<polygon fill="#000000" stroke="#000000" points="617.9658,-399.6139 626.5525,-393.4075 615.9696,-392.9046 617.9658,-399.6139"/>
</g>
<!-- MySQL 5.7 -->
<g id="node12" class="node">
<title>MySQL 5.7</title>
<ellipse fill="none" stroke="#ff0000" cx="436.3388" cy="-306" rx="63.8893" ry="18"/>
<text text-anchor="middle" x="436.3388" y="-302.3" font-family="Times,serif" font-size="14.00" fill="#000000">MySQL 5.7</text>
</g>
<!-- MySQL 5.6&#45;&gt;MySQL 5.7 -->
<g id="edge10" class="edge">
<title>MySQL 5.6&#45;&gt;MySQL 5.7</title>
<path fill="none" stroke="#000000" d="M436.3388,-359.8314C436.3388,-352.131 436.3388,-342.9743 436.3388,-334.4166"/>
<polygon fill="#000000" stroke="#000000" points="439.8389,-334.4132 436.3388,-324.4133 432.8389,-334.4133 439.8389,-334.4132"/>
</g>
<!-- MySQL Cluster 7.3 -->
<g id="node22" class="node">
<title>MySQL Cluster 7.3</title>
<ellipse fill="none" stroke="#cd0000" cx="254.3388" cy="-306" rx="100.9827" ry="18"/>
<text text-anchor="middle" x="254.3388" y="-302.3" font-family="Times,serif" font-size="14.00" fill="#000000">MySQL Cluster 7.3</text>
</g>
<!-- MySQL 5.6&#45;&gt;MySQL Cluster 7.3 -->
<g id="edge26" class="edge">
<title>MySQL 5.6&#45;&gt;MySQL Cluster 7.3</title>
<path fill="none" stroke="#000000" d="M399.0692,-363.256C372.043,-352.5643 335.1658,-337.9755 305.4004,-326.2002"/>
<polygon fill="#000000" stroke="#000000" points="306.594,-322.9085 296.0077,-322.4844 304.0189,-329.4177 306.594,-322.9085"/>
</g>
<!-- Percona Server 5.6 -->
<g id="node36" class="node">
<title>Percona Server 5.6</title>
<ellipse fill="none" stroke="#ffa500" cx="618.3388" cy="-306" rx="100.1823" ry="18"/>
<text text-anchor="middle" x="618.3388" y="-302.3" font-family="Times,serif" font-size="14.00" fill="#000000">Percona Server 5.6</text>
</g>
<!-- MySQL 5.6&#45;&gt;Percona Server 5.6 -->
<g id="edge56" class="edge">
<title>MySQL 5.6&#45;&gt;Percona Server 5.6</title>
<path fill="none" stroke="#000000" d="M473.6084,-363.256C500.6346,-352.5643 537.5118,-337.9755 567.2772,-326.2002"/>
<polygon fill="#000000" stroke="#000000" points="568.6587,-329.4177 576.6699,-322.4844 566.0836,-322.9085 568.6587,-329.4177"/>
</g>
<!-- MySQL 8.0 -->
<g id="node16" class="node">
<title>MySQL 8.0</title>
<ellipse fill="none" stroke="#ff0000" stroke-dasharray="5,2" cx="355.3388" cy="-234" rx="63.8893" ry="18"/>
<text text-anchor="middle" x="355.3388" y="-230.3" font-family="Times,serif" font-size="14.00" fill="#000000">MySQL 8.0</text>
</g>
<!-- MySQL 5.7&#45;&gt;MySQL 8.0 -->
<g id="edge16" class="edge">
<title>MySQL 5.7&#45;&gt;MySQL 8.0</title>
<path fill="none" stroke="#000000" stroke-dasharray="5,2" d="M416.731,-288.5708C406.3836,-279.3732 393.5307,-267.9484 382.2631,-257.9328"/>
<polygon fill="#000000" stroke="#000000" points="384.5655,-255.2964 374.7661,-251.2687 379.9149,-260.5283 384.5655,-255.2964"/>
</g>
<!-- MySQL Cluster 7.5 -->
<g id="node24" class="node">
<title>MySQL Cluster 7.5</title>
<ellipse fill="none" stroke="#cd0000" cx="258.3388" cy="-162" rx="100.9827" ry="18"/>
<text text-anchor="middle" x="258.3388" y="-158.3" font-family="Times,serif" font-size="14.00" fill="#000000">MySQL Cluster 7.5</text>
</g>
<!-- MySQL 5.7&#45;&gt;MySQL Cluster 7.5 -->
<g id="edge29" class="edge">
<title>MySQL 5.7&#45;&gt;MySQL Cluster 7.5</title>
<path fill="none" stroke="#000000" d="M387.5955,-294.2232C348.1789,-283.7672 296.9218,-267.746 282.3388,-252 266.9486,-235.3825 261.2148,-210.0079 259.1779,-190.4329"/>
<polygon fill="#000000" stroke="#000000" points="262.6508,-189.9468 258.3888,-180.247 255.6717,-190.4875 262.6508,-189.9468"/>
</g>
<!-- MariaDB 10.2 -->
<g id="node32" class="node">
<title>MariaDB 10.2</title>
<ellipse fill="none" stroke="#0000ff" cx="577.3388" cy="-90" rx="75.2868" ry="18"/>
<text text-anchor="middle" x="577.3388" y="-86.3" font-family="Times,serif" font-size="14.00" fill="#000000">MariaDB 10.2</text>
</g>
<!-- MySQL 5.7&#45;&gt;MariaDB 10.2 -->
<g id="edge49" class="edge">
<title>MySQL 5.7&#45;&gt;MariaDB 10.2</title>
<path fill="none" stroke="#c0c0c0" d="M440.1219,-287.8631C444.5557,-269.0258 453.0356,-239.1287 466.3388,-216 488.9956,-176.6093 525.214,-138.4739 550.0792,-114.669"/>
<polygon fill="#c0c0c0" stroke="#c0c0c0" points="552.5339,-117.165 557.404,-107.7558 547.7292,-112.0743 552.5339,-117.165"/>
</g>
<!-- Percona Server 5.7 -->
<g id="node38" class="node">
<title>Percona Server 5.7</title>
<ellipse fill="none" stroke="#ffa500" cx="575.3388" cy="-234" rx="100.1823" ry="18"/>
<text text-anchor="middle" x="575.3388" y="-230.3" font-family="Times,serif" font-size="14.00" fill="#000000">Percona Server 5.7</text>
</g>
<!-- MySQL 5.7&#45;&gt;Percona Server 5.7 -->
<g id="edge58" class="edge">
<title>MySQL 5.7&#45;&gt;Percona Server 5.7</title>
<path fill="none" stroke="#000000" d="M467.1874,-290.0209C486.556,-279.9882 511.7971,-266.9137 533.0226,-255.9192"/>
<polygon fill="#000000" stroke="#000000" points="534.8801,-258.8988 542.1497,-251.1915 531.6604,-252.6831 534.8801,-258.8988"/>
</g>
<!-- MySQL 5.4 -->
<g id="node13" class="node">
<title>MySQL 5.4</title>
<ellipse fill="none" stroke="#ff0000" stroke-dasharray="1,5" cx="372.3388" cy="-522" rx="63.8893" ry="18"/>
<text text-anchor="middle" x="372.3388" y="-518.3" font-family="Times,serif" font-size="14.00" fill="#000000">MySQL 5.4</text>
</g>
<!-- MySQL 5.4&#45;&gt;MySQL 5.5 -->
<g id="edge11" class="edge">
<title>MySQL 5.4&#45;&gt;MySQL 5.5</title>
<path fill="none" stroke="#c0c0c0" d="M388.159,-504.2022C395.9093,-495.4832 405.3778,-484.8311 413.8633,-475.2849"/>
<polygon fill="#c0c0c0" stroke="#c0c0c0" points="416.6728,-477.3924 420.7005,-467.593 411.4409,-472.7419 416.6728,-477.3924"/>
</g>
<!-- MySQL 6.0&#45;&gt;MySQL 5.5 -->
<g id="edge12" class="edge">
<title>MySQL 6.0&#45;&gt;MySQL 5.5</title>
<path fill="none" stroke="#c0c0c0" d="M518.4104,-649.1655C506.3253,-639.5394 492.3531,-626.5068 483.3388,-612 469.3988,-589.5662 451.7689,-518.3171 442.5699,-478.1823"/>
<polygon fill="#c0c0c0" stroke="#c0c0c0" points="445.9372,-477.2049 440.3144,-468.2252 439.1102,-478.7514 445.9372,-477.2049"/>
</g>
<!-- Drizzle 7.0 -->
<g id="node39" class="node">
<title>Drizzle 7.0</title>
<ellipse fill="none" stroke="#00008b" cx="553.3388" cy="-594" rx="61.1893" ry="18"/>
<text text-anchor="middle" x="553.3388" y="-590.3" font-family="Times,serif" font-size="14.00" fill="#000000">Drizzle 7.0</text>
</g>
<!-- MySQL 6.0&#45;&gt;Drizzle 7.0 -->
<g id="edge60" class="edge">
<title>MySQL 6.0&#45;&gt;Drizzle 7.0</title>
<path fill="none" stroke="#000000" d="M545.1146,-647.8314C546.291,-640.131 547.6899,-630.9743 548.9974,-622.4166"/>
<polygon fill="#000000" stroke="#000000" points="552.4752,-622.8272 550.5257,-612.4133 545.5555,-621.7699 552.4752,-622.8272"/>
</g>
<!-- MySQL 5.2&#45;&gt;MySQL 5.4 -->
<g id="edge15" class="edge">
<title>MySQL 5.2&#45;&gt;MySQL 5.4</title>
<path fill="none" stroke="#000000" stroke-dasharray="5,2" d="M380.1989,-647.7623C378.6639,-623.201 375.9168,-579.2474 374.1109,-550.3541"/>
<polygon fill="#000000" stroke="#000000" points="377.5865,-549.8518 373.4694,-540.0896 370.6001,-550.2885 377.5865,-549.8518"/>
</g>
<!-- MySQL Cluster 6.2&#45;&gt;MySQL Cluster 6.3 -->
<g id="edge19" class="edge">
<title>MySQL Cluster 6.2&#45;&gt;MySQL Cluster 6.3</title>
<path fill="none" stroke="#000000" d="M117.3388,-647.8314C117.3388,-640.131 117.3388,-630.9743 117.3388,-622.4166"/>
<polygon fill="#000000" stroke="#000000" points="120.8389,-622.4132 117.3388,-612.4133 113.8389,-622.4133 120.8389,-622.4132"/>
</g>
<!-- MySQL Cluster 6.3&#45;&gt;MySQL Cluster 7.0 -->
<g id="edge21" class="edge">
<title>MySQL Cluster 6.3&#45;&gt;MySQL Cluster 7.0</title>
<path fill="none" stroke="#000000" d="M125.9184,-575.8314C129.6746,-567.8771 134.1645,-558.369 138.3185,-549.5723"/>
<polygon fill="#000000" stroke="#000000" points="141.5384,-550.9503 142.6436,-540.4133 135.2086,-547.9612 141.5384,-550.9503"/>
</g>
<!-- MySQL Cluster 7.0&#45;&gt;MySQL Cluster 7.1 -->
<g id="edge23" class="edge">
<title>MySQL Cluster 7.0&#45;&gt;MySQL Cluster 7.1</title>
<path fill="none" stroke="#000000" d="M176.5354,-504.3868C189.7533,-495.1472 206.1311,-483.6986 220.4457,-473.6922"/>
<polygon fill="#000000" stroke="#000000" points="222.8545,-476.2788 229.0453,-467.6809 218.844,-470.5416 222.8545,-476.2788"/>
</g>
<!-- MySQL Cluster 7.1&#45;&gt;MySQL Cluster 7.2 -->
<g id="edge25" class="edge">
<title>MySQL Cluster 7.1&#45;&gt;MySQL Cluster 7.2</title>
<path fill="none" stroke="#000000" d="M254.3388,-431.8314C254.3388,-424.131 254.3388,-414.9743 254.3388,-406.4166"/>
<polygon fill="#000000" stroke="#000000" points="257.8389,-406.4132 254.3388,-396.4133 250.8389,-406.4133 257.8389,-406.4132"/>
</g>
<!-- MySQL Cluster 7.2&#45;&gt;MySQL Cluster 7.3 -->
<g id="edge27" class="edge">
<title>MySQL Cluster 7.2&#45;&gt;MySQL Cluster 7.3</title>
<path fill="none" stroke="#000000" d="M254.3388,-359.8314C254.3388,-352.131 254.3388,-342.9743 254.3388,-334.4166"/>
<polygon fill="#000000" stroke="#000000" points="257.8389,-334.4132 254.3388,-324.4133 250.8389,-334.4133 257.8389,-334.4132"/>
</g>
<!-- MySQL Cluster 7.4 -->
<g id="node23" class="node">
<title>MySQL Cluster 7.4</title>
<ellipse fill="none" stroke="#cd0000" cx="134.3388" cy="-234" rx="100.9827" ry="18"/>
<text text-anchor="middle" x="134.3388" y="-230.3" font-family="Times,serif" font-size="14.00" fill="#000000">MySQL Cluster 7.4</text>
</g>
<!-- MySQL Cluster 7.3&#45;&gt;MySQL Cluster 7.4 -->
<g id="edge28" class="edge">
<title>MySQL Cluster 7.3&#45;&gt;MySQL Cluster 7.4</title>
<path fill="none" stroke="#000000" d="M225.2901,-288.5708C209.2237,-278.931 189.0799,-266.8447 171.8361,-256.4984"/>
<polygon fill="#000000" stroke="#000000" points="173.4956,-253.4125 163.1199,-251.2687 169.8941,-259.4149 173.4956,-253.4125"/>
</g>
<!-- MySQL Cluster 7.4&#45;&gt;MySQL Cluster 7.5 -->
<g id="edge30" class="edge">
<title>MySQL Cluster 7.4&#45;&gt;MySQL Cluster 7.5</title>
<path fill="none" stroke="#000000" d="M164.0399,-216.7542C180.6356,-207.118 201.5149,-194.9945 219.4056,-184.6064"/>
<polygon fill="#000000" stroke="#000000" points="221.5599,-187.4028 228.4503,-179.3546 218.0449,-181.3493 221.5599,-187.4028"/>
</g>
<!-- MySQL Cluster 7.6 -->
<g id="node25" class="node">
<title>MySQL Cluster 7.6</title>
<ellipse fill="none" stroke="#cd0000" stroke-dasharray="5,2" cx="258.3388" cy="-90" rx="100.9827" ry="18"/>
<text text-anchor="middle" x="258.3388" y="-86.3" font-family="Times,serif" font-size="14.00" fill="#000000">MySQL Cluster 7.6</text>
</g>
<!-- MySQL Cluster 7.5&#45;&gt;MySQL Cluster 7.6 -->
<g id="edge31" class="edge">
<title>MySQL Cluster 7.5&#45;&gt;MySQL Cluster 7.6</title>
<path fill="none" stroke="#000000" stroke-dasharray="5,2" d="M258.3388,-143.8314C258.3388,-136.131 258.3388,-126.9743 258.3388,-118.4166"/>
<polygon fill="#000000" stroke="#000000" points="261.8389,-118.4132 258.3388,-108.4133 254.8389,-118.4133 261.8389,-118.4132"/>
</g>
<!-- MariaDB 5.1&#45;&gt;MariaDB 5.2 -->
<g id="edge35" class="edge">
<title>MariaDB 5.1&#45;&gt;MariaDB 5.2</title>
<path fill="none" stroke="#000000" d="M778.3388,-575.8314C778.3388,-568.131 778.3388,-558.9743 778.3388,-550.4166"/>
<polygon fill="#000000" stroke="#000000" points="781.8389,-550.4132 778.3388,-540.4133 774.8389,-550.4133 781.8389,-550.4132"/>
</g>
<!-- MariaDB 5.2&#45;&gt;MariaDB 5.3 -->
<g id="edge38" class="edge">
<title>MariaDB 5.2&#45;&gt;MariaDB 5.3</title>
<path fill="none" stroke="#000000" d="M778.3388,-503.8314C778.3388,-496.131 778.3388,-486.9743 778.3388,-478.4166"/>
<polygon fill="#000000" stroke="#000000" points="781.8389,-478.4132 778.3388,-468.4133 774.8389,-478.4133 781.8389,-478.4132"/>
</g>
<!-- MariaDB 5.3&#45;&gt;MariaDB 5.5 -->
<g id="edge41" class="edge">
<title>MariaDB 5.3&#45;&gt;MariaDB 5.5</title>
<path fill="none" stroke="#000000" d="M781.885,-431.7623C786.6819,-407.0928 795.2827,-362.8598 800.8996,-333.9731"/>
<polygon fill="#000000" stroke="#000000" points="804.3482,-334.5738 802.8214,-324.0896 797.4769,-333.2377 804.3482,-334.5738"/>
</g>
<!-- MariaDB 5.3&#45;&gt;Percona Server 5.5 -->
<g id="edge55" class="edge">
<title>MariaDB 5.3&#45;&gt;Percona Server 5.5</title>
<path fill="none" stroke="#c0c0c0" d="M754.6402,-432.937C741.7262,-423.6389 725.5398,-411.9847 711.402,-401.8055"/>
<polygon fill="#c0c0c0" stroke="#c0c0c0" points="713.072,-398.6951 702.9116,-395.6924 708.9819,-404.3759 713.072,-398.6951"/>
</g>
<!-- MariaDB 10.0 -->
<g id="node30" class="node">
<title>MariaDB 10.0</title>
<ellipse fill="none" stroke="#0000ff" cx="806.3388" cy="-234" rx="75.2868" ry="18"/>
<text text-anchor="middle" x="806.3388" y="-230.3" font-family="Times,serif" font-size="14.00" fill="#000000">MariaDB 10.0</text>
</g>
<!-- MariaDB 5.5&#45;&gt;MariaDB 10.0 -->
<g id="edge43" class="edge">
<title>MariaDB 5.5&#45;&gt;MariaDB 10.0</title>
<path fill="none" stroke="#000000" d="M806.3388,-287.8314C806.3388,-280.131 806.3388,-270.9743 806.3388,-262.4166"/>
<polygon fill="#000000" stroke="#000000" points="809.8389,-262.4132 806.3388,-252.4133 802.8389,-262.4133 809.8389,-262.4132"/>
</g>
<!-- MariaDB 10.1 -->
<g id="node31" class="node">
<title>MariaDB 10.1</title>
<ellipse fill="none" stroke="#0000ff" cx="703.3388" cy="-162" rx="75.2868" ry="18"/>
<text text-anchor="middle" x="703.3388" y="-158.3" font-family="Times,serif" font-size="14.00" fill="#000000">MariaDB 10.1</text>
</g>
<!-- MariaDB 10.0&#45;&gt;MariaDB 10.1 -->
<g id="edge44" class="edge">
<title>MariaDB 10.0&#45;&gt;MariaDB 10.1</title>
<path fill="none" stroke="#000000" d="M781.9292,-216.937C768.3034,-207.4122 751.1406,-195.4149 736.3324,-185.0635"/>
<polygon fill="#000000" stroke="#000000" points="738.1314,-182.0507 727.9301,-179.19 734.1209,-187.788 738.1314,-182.0507"/>
</g>
<!-- MariaDB 10.1&#45;&gt;MariaDB 10.2 -->
<g id="edge46" class="edge">
<title>MariaDB 10.1&#45;&gt;MariaDB 10.2</title>
<path fill="none" stroke="#000000" d="M674.1152,-145.3008C656.6221,-135.3047 634.1962,-122.49 615.3379,-111.7138"/>
<polygon fill="#000000" stroke="#000000" points="616.8229,-108.5312 606.4039,-106.6087 613.3499,-114.609 616.8229,-108.5312"/>
</g>
<!-- MariaDB 10.3 -->
<g id="node33" class="node">
<title>MariaDB 10.3</title>
<ellipse fill="none" stroke="#0000ff" stroke-dasharray="5,2" cx="577.3388" cy="-18" rx="75.2868" ry="18"/>
<text text-anchor="middle" x="577.3388" y="-14.3" font-family="Times,serif" font-size="14.00" fill="#000000">MariaDB 10.3</text>
</g>
<!-- MariaDB 10.2&#45;&gt;MariaDB 10.3 -->
<g id="edge48" class="edge">
<title>MariaDB 10.2&#45;&gt;MariaDB 10.3</title>
<path fill="none" stroke="#000000" stroke-dasharray="5,2" d="M577.3388,-71.8314C577.3388,-64.131 577.3388,-54.9743 577.3388,-46.4166"/>
<polygon fill="#000000" stroke="#000000" points="580.8389,-46.4132 577.3388,-36.4133 573.8389,-46.4133 580.8389,-46.4132"/>
</g>
<!-- Percona Server 5.1&#45;&gt;MariaDB 5.1 -->
<g id="edge33" class="edge">
<title>Percona Server 5.1&#45;&gt;MariaDB 5.1</title>
<path fill="none" stroke="#c0c0c0" d="M846.8444,-648.2022C835.1872,-638.9789 820.7959,-627.5925 808.2175,-617.6403"/>
<polygon fill="#c0c0c0" stroke="#c0c0c0" points="810.2743,-614.8047 800.2604,-611.3446 805.9309,-620.2942 810.2743,-614.8047"/>
</g>
<!-- Percona Server 5.1&#45;&gt;MariaDB 5.2 -->
<g id="edge36" class="edge">
<title>Percona Server 5.1&#45;&gt;MariaDB 5.2</title>
<path fill="none" stroke="#c0c0c0" d="M871.0719,-647.6596C871.9913,-628.3839 870.8099,-597.8797 857.3388,-576 848.9077,-562.3063 835.5579,-551.2477 822.2143,-542.7894"/>
<polygon fill="#c0c0c0" stroke="#c0c0c0" points="823.8822,-539.7091 813.4984,-537.605 820.3036,-545.7253 823.8822,-539.7091"/>
</g>
<!-- Percona Server 5.1&#45;&gt;MariaDB 5.3 -->
<g id="edge39" class="edge">
<title>Percona Server 5.1&#45;&gt;MariaDB 5.3</title>
<path fill="none" stroke="#c0c0c0" d="M873.5184,-647.9784C879.8809,-615.8096 888.2371,-547.7782 857.3388,-504 847.9873,-490.7504 834.2808,-479.7536 820.9002,-471.2181"/>
<polygon fill="#c0c0c0" stroke="#c0c0c0" points="822.5728,-468.1395 812.2034,-465.9656 818.9539,-474.1315 822.5728,-468.1395"/>
</g>
<!-- Percona Server 5.1&#45;&gt;Percona Server 5.5 -->
<g id="edge54" class="edge">
<title>Percona Server 5.1&#45;&gt;Percona Server 5.5</title>
<path fill="none" stroke="#000000" d="M879.3623,-647.6094C884.3369,-637.4366 889.8121,-624.3803 892.3388,-612 908.636,-532.1478 914.7011,-489.8925 857.3388,-432 842.586,-417.1108 797.1629,-403.5013 755.7691,-393.6695"/>
<polygon fill="#000000" stroke="#000000" points="756.4418,-390.2327 745.9092,-391.379 754.8578,-397.0511 756.4418,-390.2327"/>
</g>
<!-- Percona Server 5.5&#45;&gt;MariaDB 5.5 -->
<g id="edge42" class="edge">
<title>Percona Server 5.5&#45;&gt;MariaDB 5.5</title>
<path fill="none" stroke="#c0c0c0" d="M708.998,-360.7542C726.7947,-350.7436 749.3634,-338.0486 768.288,-327.4036"/>
<polygon fill="#c0c0c0" stroke="#c0c0c0" points="770.2488,-330.3164 777.2486,-322.3632 766.8169,-324.2154 770.2488,-330.3164"/>
</g>
<!-- Percona Server 5.5&#45;&gt;Percona Server 5.6 -->
<g id="edge57" class="edge">
<title>Percona Server 5.5&#45;&gt;Percona Server 5.6</title>
<path fill="none" stroke="#000000" d="M663.1983,-359.8314C656.1097,-351.3251 647.5404,-341.0419 639.7988,-331.752"/>
<polygon fill="#000000" stroke="#000000" points="642.3573,-329.355 633.2666,-323.9134 636.9797,-333.8363 642.3573,-329.355"/>
</g>
<!-- Percona Server 5.6&#45;&gt;MariaDB 10.0 -->
<g id="edge45" class="edge">
<title>Percona Server 5.6&#45;&gt;MariaDB 10.0</title>
<path fill="none" stroke="#c0c0c0" d="M660.9989,-289.6621C689.5437,-278.73 727.1997,-264.3086 757.0299,-252.8843"/>
<polygon fill="#c0c0c0" stroke="#c0c0c0" points="758.3317,-256.1337 766.4185,-249.2886 755.8282,-249.5967 758.3317,-256.1337"/>
</g>
<!-- Percona Server 5.6&#45;&gt;MariaDB 10.1 -->
<g id="edge47" class="edge">
<title>Percona Server 5.6&#45;&gt;MariaDB 10.1</title>
<path fill="none" stroke="#c0c0c0" d="M647.6196,-288.6163C660.7762,-279.3493 675.3358,-266.7982 684.3388,-252 695.7012,-233.3236 700.3447,-208.8858 702.206,-190.1888"/>
<polygon fill="#c0c0c0" stroke="#c0c0c0" points="705.6968,-190.443 702.9947,-180.1985 698.7185,-189.8921 705.6968,-190.443"/>
</g>
<!-- Percona Server 5.6&#45;&gt;Percona Server 5.7 -->
<g id="edge59" class="edge">
<title>Percona Server 5.6&#45;&gt;Percona Server 5.7</title>
<path fill="none" stroke="#000000" d="M607.4881,-287.8314C602.5619,-279.5829 596.6378,-269.6635 591.2244,-260.5992"/>
<polygon fill="#000000" stroke="#000000" points="594.1694,-258.7042 586.0371,-251.9134 588.1596,-262.2935 594.1694,-258.7042"/>
</g>
<!-- Percona Server 5.0&#45;&gt;Percona Server 5.1 -->
<g id="edge52" class="edge">
<title>Percona Server 5.0&#45;&gt;Percona Server 5.1</title>
<path fill="none" stroke="#000000" d="M814.3837,-720.2022C823.3334,-711.3752 834.2918,-700.5669 844.0619,-690.9307"/>
<polygon fill="#000000" stroke="#000000" points="846.5865,-693.3566 851.2484,-683.8425 841.671,-688.3728 846.5865,-693.3566"/>
</g>
<!-- Drizzle 7.1 -->
<g id="node40" class="node">
<title>Drizzle 7.1</title>
<ellipse fill="none" stroke="#00008b" cx="553.3388" cy="-522" rx="61.1893" ry="18"/>
<text text-anchor="middle" x="553.3388" y="-518.3" font-family="Times,serif" font-size="14.00" fill="#000000">Drizzle 7.1</text>
</g>
<!-- Drizzle 7.0&#45;&gt;Drizzle 7.1 -->
<g id="edge61" class="edge">
<title>Drizzle 7.0&#45;&gt;Drizzle 7.1</title>
<path fill="none" stroke="#000000" d="M553.3388,-575.8314C553.3388,-568.131 553.3388,-558.9743 553.3388,-550.4166"/>
<polygon fill="#000000" stroke="#000000" points="556.8389,-550.4132 553.3388,-540.4133 549.8389,-550.4133 556.8389,-550.4132"/>
</g>
<!-- Drizzle 7.2 -->
<g id="node41" class="node">
<title>Drizzle 7.2</title>
<ellipse fill="none" stroke="#00008b" stroke-dasharray="5,2" cx="579.3388" cy="-450" rx="61.1893" ry="18"/>
<text text-anchor="middle" x="579.3388" y="-446.3" font-family="Times,serif" font-size="14.00" fill="#000000">Drizzle 7.2</text>
</g>
<!-- Drizzle 7.1&#45;&gt;Drizzle 7.2 -->
<g id="edge62" class="edge">
<title>Drizzle 7.1&#45;&gt;Drizzle 7.2</title>
<path fill="none" stroke="#000000" stroke-dasharray="5,2" d="M559.8997,-503.8314C562.7852,-495.8406 566.237,-486.2819 569.4258,-477.4514"/>
<polygon fill="#000000" stroke="#000000" points="572.7655,-478.5077 572.8701,-467.9134 566.1816,-476.1302 572.7655,-478.5077"/>
</g>
</g>
</svg>
